<svg xmlns="http://www.w3.org/2000/svg" viewBox="0 0 1200 22" width="1200" height="22" role="presentation" aria-hidden="true">
  <defs>
    <linearGradient id="dg" x1="0" y1="0" x2="1" y2="0">
      <stop offset="0%" stop-color="#2563EB"/><stop offset="50%" stop-color="#0D9488"/><stop offset="100%" stop-color="#7C3AED"/>
    </linearGradient>
    <linearGradient id="df" x1="0" y1="0" x2="1" y2="0">
      <stop offset="0%" stop-color="#0D1117" stop-opacity="1"/><stop offset="14%" stop-color="#0D1117" stop-opacity="0"/>
      <stop offset="86%" stop-color="#0D1117" stop-opacity="0"/><stop offset="100%" stop-color="#0D1117" stop-opacity="1"/>
    </linearGradient>
  </defs>
  <path d="M 0.0 13.6 Q 6.0 13.4 9.0 12.6 Q 12.1 11.8 15.1 9.6 Q 18.1 7.4 21.1 5.9 Q 24.1 4.4 27.1 6.0 Q 30.2 7.6 33.2 9.8 Q 36.2 12.0 39.2 13.0 Q 42.2 13.9 45.2 13.4 Q 48.2 13.0 51.3 12.1 Q 54.3 11.3 57.3 11.1 Q 60.3 10.9 63.3 11.4 Q 66.3 11.9 69.3 12.4 Q 72.4 13.0 75.4 13.3 Q 78.4 13.5 81.4 13.6 Q 84.4 13.6 87.4 13.6 Q 90.5 13.6 93.5 13.6 Q 96.5 13.6 99.5 13.6 Q 102.5 13.6 105.5 13.6 Q 108.5 13.6 111.6 13.6 Q 114.6 13.6 117.6 13.6 Q 120.6 13.6 123.6 13.6 Q 126.6 13.6 129.6 13.6 Q 132.7 13.6 135.7 13.5 Q 138.7 13.5 141.7 12.8 Q 144.7 12.1 147.7 10.0 Q 150.8 8.0 153.8 6.2 Q 156.8 4.4 159.8 5.7 Q 162.8 7.0 165.8 9.3 Q 168.8 11.6 171.9 12.7 Q 174.9 13.8 177.9 13.5 Q 180.9 13.2 183.9 12.3 Q 186.9 11.4 189.9 11.2 Q 193.0 10.9 196.0 11.3 Q 199.0 11.7 202.0 12.3 Q 205.0 12.9 208.0 13.2 Q 211.1 13.5 214.1 13.5 Q 217.1 13.6 220.1 13.6 Q 223.1 13.6 226.1 13.6 Q 229.1 13.6 232.2 13.6 Q 235.2 13.6 238.2 13.6 Q 241.2 13.6 244.2 13.6 Q 247.2 13.6 250.3 13.6 Q 253.3 13.6 256.3 13.6 Q 259.3 13.6 262.3 13.6 Q 265.3 13.6 268.3 13.6 Q 271.4 13.5 274.4 12.9 Q 277.4 12.4 280.4 10.4 Q 283.4 8.5 286.4 6.5 Q 289.4 4.6 292.5 5.5 Q 295.5 6.5 298.5 8.9 Q 301.5 11.2 304.5 12.5 Q 307.5 13.7 310.6 13.5 Q 313.6 13.4 316.6 12.5 Q 319.6 11.6 322.6 11.2 Q 325.6 10.9 328.6 11.2 Q 331.7 11.6 334.7 12.2 Q 337.7 12.8 340.7 13.1 Q 343.7 13.4 346.7 13.5 Q 349.7 13.6 352.8 13.6 Q 355.8 13.6 358.8 13.6 Q 361.8 13.6 364.8 13.6 Q 367.8 13.6 370.9 13.6 Q 373.9 13.6 376.9 13.6 Q 379.9 13.6 382.9 13.6 Q 385.9 13.6 388.9 13.6 Q 392.0 13.6 395.0 13.6 Q 398.0 13.6 401.0 13.6 Q 404.0 13.5 407.0 13.1 Q 410.1 12.6 413.1 10.8 Q 416.1 9.1 419.1 6.9 Q 422.1 4.8 425.1 5.4 Q 428.1 6.0 431.2 8.4 Q 434.2 10.8 437.2 12.2 Q 440.2 13.6 443.2 13.6 Q 446.2 13.6 449.2 12.7 Q 452.3 11.7 455.3 11.3 Q 458.3 10.9 461.3 11.2 Q 464.3 11.5 467.3 12.1 Q 470.4 12.7 473.4 13.0 Q 476.4 13.4 479.4 13.5 Q 482.4 13.6 485.4 13.6 Q 488.4 13.6 491.5 13.6 Q 494.5 13.6 497.5 13.6 Q 500.5 13.6 503.5 13.6 Q 506.5 13.6 509.5 13.6 Q 512.6 13.6 515.6 13.6 Q 518.6 13.6 521.6 13.6 Q 524.6 13.6 527.6 13.6 Q 530.7 13.6 533.7 13.6 Q 536.7 13.6 539.7 13.2 Q 542.7 12.8 545.7 11.2 Q 548.7 9.6 551.8 7.3 Q 554.8 5.1 557.8 5.3 Q 560.8 5.6 563.8 7.9 Q 566.8 10.3 569.8 11.8 Q 572.9 13.4 575.9 13.5 Q 578.9 13.7 581.9 12.8 Q 584.9 11.9 587.9 11.4 Q 591.0 10.9 594.0 11.1 Q 597.0 11.4 600.0 12.0 Q 603.0 12.6 606.0 13.0 Q 609.0 13.4 612.1 13.5 Q 615.1 13.6 618.1 13.6 Q 621.1 13.6 624.1 13.6 Q 627.1 13.6 630.2 13.6 Q 633.2 13.6 636.2 13.6 Q 639.2 13.6 642.2 13.6 Q 645.2 13.6 648.2 13.6 Q 651.3 13.6 654.3 13.6 Q 657.3 13.6 660.3 13.6 Q 663.3 13.6 666.3 13.6 Q 669.3 13.6 672.4 13.3 Q 675.4 13.0 678.4 11.5 Q 681.4 10.1 684.4 7.8 Q 687.4 5.4 690.5 5.3 Q 693.5 5.2 696.5 7.5 Q 699.5 9.8 702.5 11.5 Q 705.5 13.1 708.5 13.5 Q 711.6 13.8 714.6 13.0 Q 717.6 12.1 720.6 11.5 Q 723.6 10.9 726.6 11.1 Q 729.6 11.2 732.7 11.8 Q 735.7 12.4 738.7 12.9 Q 741.7 13.3 744.7 13.4 Q 747.7 13.6 750.8 13.6 Q 753.8 13.6 756.8 13.6 Q 759.8 13.6 762.8 13.6 Q 765.8 13.6 768.8 13.6 Q 771.9 13.6 774.9 13.6 Q 777.9 13.6 780.9 13.6 Q 783.9 13.6 786.9 13.6 Q 789.9 13.6 793.0 13.6 Q 796.0 13.6 799.0 13.6 Q 802.0 13.6 805.0 13.4 Q 808.0 13.1 811.1 11.9 Q 814.1 10.6 817.1 8.2 Q 820.1 5.9 823.1 5.4 Q 826.1 4.9 829.1 7.1 Q 832.2 9.3 835.2 11.1 Q 838.2 12.9 841.2 13.4 Q 844.2 13.9 847.2 13.1 Q 850.3 12.3 853.3 11.7 Q 856.3 11.0 859.3 11.1 Q 862.3 11.1 865.3 11.7 Q 868.3 12.3 871.4 12.8 Q 874.4 13.2 877.4 13.4 Q 880.4 13.6 883.4 13.6 Q 886.4 13.6 889.4 13.6 Q 892.5 13.6 895.5 13.6 Q 898.5 13.6 901.5 13.6 Q 904.5 13.6 907.5 13.6 Q 910.6 13.6 913.6 13.6 Q 916.6 13.6 919.6 13.6 Q 922.6 13.6 925.6 13.6 Q 928.6 13.6 931.7 13.6 Q 934.7 13.6 937.7 13.4 Q 940.7 13.2 943.7 12.1 Q 946.7 11.0 949.7 8.7 Q 952.8 6.3 955.8 5.5 Q 958.8 4.6 961.8 6.7 Q 964.8 8.7 967.8 10.7 Q 970.9 12.6 973.9 13.3 Q 976.9 14.0 979.9 13.2 Q 982.9 12.5 985.9 11.8 Q 988.9 11.1 992.0 11.1 Q 995.0 11.1 998.0 11.6 Q 1001.0 12.2 1004.0 12.7 Q 1007.0 13.2 1010.1 13.4 Q 1013.1 13.6 1016.1 13.6 Q 1019.1 13.6 1022.1 13.6 Q 1025.1 13.6 1028.1 13.6 Q 1031.2 13.6 1034.2 13.6 Q 1037.2 13.6 1040.2 13.6 Q 1043.2 13.6 1046.2 13.6 Q 1049.2 13.6 1052.3 13.6 Q 1055.3 13.6 1058.3 13.6 Q 1061.3 13.6 1064.3 13.6 Q 1067.3 13.6 1070.4 13.5 Q 1073.4 13.3 1076.4 12.4 Q 1079.4 11.4 1082.4 9.1 Q 1085.4 6.9 1088.4 5.7 Q 1091.5 4.5 1094.5 6.3 Q 1097.5 8.2 1100.5 10.2 Q 1103.5 12.3 1106.5 13.1 Q 1109.5 14.0 1112.6 13.4 Q 1115.6 12.7 1118.6 12.0 Q 1121.6 11.2 1124.6 11.1 Q 1127.6 11.0 1130.7 11.5 Q 1133.7 12.0 1136.7 12.6 Q 1139.7 13.1 1142.7 13.3 Q 1145.7 13.5 1148.7 13.6 Q 1151.8 13.6 1154.8 13.6 Q 1157.8 13.6 1160.8 13.6 Q 1163.8 13.6 1166.8 13.6 Q 1169.8 13.6 1172.9 13.6 Q 1175.9 13.6 1178.9 13.6 Q 1181.9 13.6 1184.9 13.6 Q 1187.9 13.6 1191.0 13.6 Q 1194.0 13.6 1197.0 13.6 T 1200.0 13.6" fill="none" stroke="#2563EB" stroke-opacity="0.22" stroke-width="1.4" stroke-linecap="round"/>
  <path d="M 0.0 13.6 Q 6.0 13.4 9.0 12.6 Q 12.1 11.8 15.1 9.6 Q 18.1 7.4 21.1 5.9 Q 24.1 4.4 27.1 6.0 Q 30.2 7.6 33.2 9.8 Q 36.2 12.0 39.2 13.0 Q 42.2 13.9 45.2 13.4 Q 48.2 13.0 51.3 12.1 Q 54.3 11.3 57.3 11.1 Q 60.3 10.9 63.3 11.4 Q 66.3 11.9 69.3 12.4 Q 72.4 13.0 75.4 13.3 Q 78.4 13.5 81.4 13.6 Q 84.4 13.6 87.4 13.6 Q 90.5 13.6 93.5 13.6 Q 96.5 13.6 99.5 13.6 Q 102.5 13.6 105.5 13.6 Q 108.5 13.6 111.6 13.6 Q 114.6 13.6 117.6 13.6 Q 120.6 13.6 123.6 13.6 Q 126.6 13.6 129.6 13.6 Q 132.7 13.6 135.7 13.5 Q 138.7 13.5 141.7 12.8 Q 144.7 12.1 147.7 10.0 Q 150.8 8.0 153.8 6.2 Q 156.8 4.4 159.8 5.7 Q 162.8 7.0 165.8 9.3 Q 168.8 11.6 171.9 12.7 Q 174.9 13.8 177.9 13.5 Q 180.9 13.2 183.9 12.3 Q 186.9 11.4 189.9 11.2 Q 193.0 10.9 196.0 11.3 Q 199.0 11.7 202.0 12.3 Q 205.0 12.9 208.0 13.2 Q 211.1 13.5 214.1 13.5 Q 217.1 13.6 220.1 13.6 Q 223.1 13.6 226.1 13.6 Q 229.1 13.6 232.2 13.6 Q 235.2 13.6 238.2 13.6 Q 241.2 13.6 244.2 13.6 Q 247.2 13.6 250.3 13.6 Q 253.3 13.6 256.3 13.6 Q 259.3 13.6 262.3 13.6 Q 265.3 13.6 268.3 13.6 Q 271.4 13.5 274.4 12.9 Q 277.4 12.4 280.4 10.4 Q 283.4 8.5 286.4 6.5 Q 289.4 4.6 292.5 5.5 Q 295.5 6.5 298.5 8.9 Q 301.5 11.2 304.5 12.5 Q 307.5 13.7 310.6 13.5 Q 313.6 13.4 316.6 12.5 Q 319.6 11.6 322.6 11.2 Q 325.6 10.9 328.6 11.2 Q 331.7 11.6 334.7 12.2 Q 337.7 12.8 340.7 13.1 Q 343.7 13.4 346.7 13.5 Q 349.7 13.6 352.8 13.6 Q 355.8 13.6 358.8 13.6 Q 361.8 13.6 364.8 13.6 Q 367.8 13.6 370.9 13.6 Q 373.9 13.6 376.9 13.6 Q 379.9 13.6 382.9 13.6 Q 385.9 13.6 388.9 13.6 Q 392.0 13.6 395.0 13.6 Q 398.0 13.6 401.0 13.6 Q 404.0 13.5 407.0 13.1 Q 410.1 12.6 413.1 10.8 Q 416.1 9.1 419.1 6.9 Q 422.1 4.8 425.1 5.4 Q 428.1 6.0 431.2 8.4 Q 434.2 10.8 437.2 12.2 Q 440.2 13.6 443.2 13.6 Q 446.2 13.6 449.2 12.7 Q 452.3 11.7 455.3 11.3 Q 458.3 10.9 461.3 11.2 Q 464.3 11.5 467.3 12.1 Q 470.4 12.7 473.4 13.0 Q 476.4 13.4 479.4 13.5 Q 482.4 13.6 485.4 13.6 Q 488.4 13.6 491.5 13.6 Q 494.5 13.6 497.5 13.6 Q 500.5 13.6 503.5 13.6 Q 506.5 13.6 509.5 13.6 Q 512.6 13.6 515.6 13.6 Q 518.6 13.6 521.6 13.6 Q 524.6 13.6 527.6 13.6 Q 530.7 13.6 533.7 13.6 Q 536.7 13.6 539.7 13.2 Q 542.7 12.8 545.7 11.2 Q 548.7 9.6 551.8 7.3 Q 554.8 5.1 557.8 5.3 Q 560.8 5.6 563.8 7.9 Q 566.8 10.3 569.8 11.8 Q 572.9 13.4 575.9 13.5 Q 578.9 13.7 581.9 12.8 Q 584.9 11.9 587.9 11.4 Q 591.0 10.9 594.0 11.1 Q 597.0 11.4 600.0 12.0 Q 603.0 12.6 606.0 13.0 Q 609.0 13.4 612.1 13.5 Q 615.1 13.6 618.1 13.6 Q 621.1 13.6 624.1 13.6 Q 627.1 13.6 630.2 13.6 Q 633.2 13.6 636.2 13.6 Q 639.2 13.6 642.2 13.6 Q 645.2 13.6 648.2 13.6 Q 651.3 13.6 654.3 13.6 Q 657.3 13.6 660.3 13.6 Q 663.3 13.6 666.3 13.6 Q 669.3 13.6 672.4 13.3 Q 675.4 13.0 678.4 11.5 Q 681.4 10.1 684.4 7.8 Q 687.4 5.4 690.5 5.3 Q 693.5 5.2 696.5 7.5 Q 699.5 9.8 702.5 11.5 Q 705.5 13.1 708.5 13.5 Q 711.6 13.8 714.6 13.0 Q 717.6 12.1 720.6 11.5 Q 723.6 10.9 726.6 11.1 Q 729.6 11.2 732.7 11.8 Q 735.7 12.4 738.7 12.9 Q 741.7 13.3 744.7 13.4 Q 747.7 13.6 750.8 13.6 Q 753.8 13.6 756.8 13.6 Q 759.8 13.6 762.8 13.6 Q 765.8 13.6 768.8 13.6 Q 771.9 13.6 774.9 13.6 Q 777.9 13.6 780.9 13.6 Q 783.9 13.6 786.9 13.6 Q 789.9 13.6 793.0 13.6 Q 796.0 13.6 799.0 13.6 Q 802.0 13.6 805.0 13.4 Q 808.0 13.1 811.1 11.9 Q 814.1 10.6 817.1 8.2 Q 820.1 5.9 823.1 5.4 Q 826.1 4.9 829.1 7.1 Q 832.2 9.3 835.2 11.1 Q 838.2 12.9 841.2 13.4 Q 844.2 13.9 847.2 13.1 Q 850.3 12.3 853.3 11.7 Q 856.3 11.0 859.3 11.1 Q 862.3 11.1 865.3 11.7 Q 868.3 12.3 871.4 12.8 Q 874.4 13.2 877.4 13.4 Q 880.4 13.6 883.4 13.6 Q 886.4 13.6 889.4 13.6 Q 892.5 13.6 895.5 13.6 Q 898.5 13.6 901.5 13.6 Q 904.5 13.6 907.5 13.6 Q 910.6 13.6 913.6 13.6 Q 916.6 13.6 919.6 13.6 Q 922.6 13.6 925.6 13.6 Q 928.6 13.6 931.7 13.6 Q 934.7 13.6 937.7 13.4 Q 940.7 13.2 943.7 12.1 Q 946.7 11.0 949.7 8.7 Q 952.8 6.3 955.8 5.5 Q 958.8 4.6 961.8 6.7 Q 964.8 8.7 967.8 10.7 Q 970.9 12.6 973.9 13.3 Q 976.9 14.0 979.9 13.2 Q 982.9 12.5 985.9 11.8 Q 988.9 11.1 992.0 11.1 Q 995.0 11.1 998.0 11.6 Q 1001.0 12.2 1004.0 12.7 Q 1007.0 13.2 1010.1 13.4 Q 1013.1 13.6 1016.1 13.6 Q 1019.1 13.6 1022.1 13.6 Q 1025.1 13.6 1028.1 13.6 Q 1031.2 13.6 1034.2 13.6 Q 1037.2 13.6 1040.2 13.6 Q 1043.2 13.6 1046.2 13.6 Q 1049.2 13.6 1052.3 13.6 Q 1055.3 13.6 1058.3 13.6 Q 1061.3 13.6 1064.3 13.6 Q 1067.3 13.6 1070.4 13.5 Q 1073.4 13.3 1076.4 12.4 Q 1079.4 11.4 1082.4 9.1 Q 1085.4 6.9 1088.4 5.7 Q 1091.5 4.5 1094.5 6.3 Q 1097.5 8.2 1100.5 10.2 Q 1103.5 12.3 1106.5 13.1 Q 1109.5 14.0 1112.6 13.4 Q 1115.6 12.7 1118.6 12.0 Q 1121.6 11.2 1124.6 11.1 Q 1127.6 11.0 1130.7 11.5 Q 1133.7 12.0 1136.7 12.6 Q 1139.7 13.1 1142.7 13.3 Q 1145.7 13.5 1148.7 13.6 Q 1151.8 13.6 1154.8 13.6 Q 1157.8 13.6 1160.8 13.6 Q 1163.8 13.6 1166.8 13.6 Q 1169.8 13.6 1172.9 13.6 Q 1175.9 13.6 1178.9 13.6 Q 1181.9 13.6 1184.9 13.6 Q 1187.9 13.6 1191.0 13.6 Q 1194.0 13.6 1197.0 13.6 T 1200.0 13.6" fill="none" stroke="url(#dg)" stroke-width="1.8" stroke-linecap="round"
        stroke-dasharray="260 1248" stroke-dashoffset="1508">
    <animate attributeName="stroke-dashoffset" from="1508" to="0" dur="6s" repeatCount="indefinite"/>
  </path>
</svg>