<svg xmlns="http://www.w3.org/2000/svg" viewBox="0 0 1200 280" width="1200" height="280" role="img" aria-label="QEbellavita - neural workflows, closed-loop prediction, cross-modal fusion">
  <defs>
    <linearGradient id="trace" x1="0" y1="0" x2="1" y2="0">
      <stop offset="0%" stop-color="#2563EB"/><stop offset="38%" stop-color="#0D9488"/>
      <stop offset="68%" stop-color="#5EEAD4"/><stop offset="100%" stop-color="#7C3AED"/>
    </linearGradient>
    <radialGradient id="halo" cx="50%" cy="34%" r="62%">
      <stop offset="0%" stop-color="#2563EB" stop-opacity="0.20"/>
      <stop offset="100%" stop-color="#2563EB" stop-opacity="0"/>
    </radialGradient>
    <linearGradient id="fade" x1="0" y1="0" x2="1" y2="0">
      <stop offset="0%" stop-color="#0D1117" stop-opacity="1"/><stop offset="10%" stop-color="#0D1117" stop-opacity="0"/>
      <stop offset="90%" stop-color="#0D1117" stop-opacity="0"/><stop offset="100%" stop-color="#0D1117" stop-opacity="1"/>
    </linearGradient>
    <filter id="glow" x="-50%" y="-50%" width="200%" height="200%">
      <feGaussianBlur stdDeviation="4" result="b"/><feMerge><feMergeNode in="b"/><feMergeNode in="SourceGraphic"/></feMerge>
    </filter>
    <clipPath id="card"><rect x="0" y="0" width="1200" height="280" rx="14"/></clipPath>
  </defs>
  <g clip-path="url(#card)">
    <rect width="1200" height="280" fill="#0D1117"/>
    <rect width="1200" height="280" fill="url(#halo)"/>
    <g stroke="#3B82F6" stroke-opacity="0.06" stroke-width="1"><line x1="0" y1="0" x2="0" y2="280"/><line x1="60" y1="0" x2="60" y2="280"/><line x1="120" y1="0" x2="120" y2="280"/><line x1="180" y1="0" x2="180" y2="280"/><line x1="240" y1="0" x2="240" y2="280"/><line x1="300" y1="0" x2="300" y2="280"/><line x1="360" y1="0" x2="360" y2="280"/><line x1="420" y1="0" x2="420" y2="280"/><line x1="480" y1="0" x2="480" y2="280"/><line x1="540" y1="0" x2="540" y2="280"/><line x1="600" y1="0" x2="600" y2="280"/><line x1="660" y1="0" x2="660" y2="280"/><line x1="720" y1="0" x2="720" y2="280"/><line x1="780" y1="0" x2="780" y2="280"/><line x1="840" y1="0" x2="840" y2="280"/><line x1="900" y1="0" x2="900" y2="280"/><line x1="960" y1="0" x2="960" y2="280"/><line x1="1020" y1="0" x2="1020" y2="280"/><line x1="1080" y1="0" x2="1080" y2="280"/><line x1="1140" y1="0" x2="1140" y2="280"/><line x1="1200" y1="0" x2="1200" y2="280"/><line x1="0" y1="0" x2="1200" y2="0"/><line x1="0" y1="56" x2="1200" y2="56"/><line x1="0" y1="112" x2="1200" y2="112"/><line x1="0" y1="168" x2="1200" y2="168"/><line x1="0" y1="224" x2="1200" y2="224"/><line x1="0" y1="280" x2="1200" y2="280"/></g>

    <path d="M 0.0 224.0 Q 4.6 223.6 6.9 223.2 Q 9.3 222.8 11.6 220.9 Q 13.9 219.0 16.2 213.5 Q 18.5 208.1 20.8 198.9 Q 23.2 189.7 25.5 180.7 Q 27.8 171.6 30.1 169.8 Q 32.4 168.0 34.7 175.4 Q 37.1 182.8 39.4 192.6 Q 41.7 202.4 44.0 208.9 Q 46.3 215.5 48.6 219.1 Q 51.0 222.7 53.3 223.7 Q 55.6 224.8 57.9 222.0 Q 60.2 219.2 62.5 214.5 Q 64.9 209.8 67.2 206.9 Q 69.5 204.0 71.8 204.2 Q 74.1 204.3 76.4 206.0 Q 78.8 207.7 81.1 210.7 Q 83.4 213.7 85.7 215.9 Q 88.0 218.1 90.3 219.5 Q 92.7 220.9 95.0 221.2 Q 97.3 221.5 99.6 221.8 Q 101.9 222.2 104.2 221.9 Q 106.6 221.7 108.9 221.6 Q 111.2 221.6 113.5 221.7 Q 115.8 221.7 118.1 222.0 Q 120.5 222.4 122.8 222.0 Q 125.1 221.7 127.4 221.5 Q 129.7 221.4 132.0 221.4 Q 134.4 221.3 136.7 221.5 Q 139.0 221.8 141.3 221.6 Q 143.6 221.4 145.9 221.4 Q 148.3 221.5 150.6 221.4 Q 152.9 221.4 155.2 221.0 Q 157.5 220.7 159.8 221.0 Q 162.2 221.3 164.5 221.1 Q 166.8 221.0 169.1 220.8 Q 171.4 220.6 173.7 220.7 Q 176.1 220.9 178.4 220.3 Q 180.7 219.8 183.0 217.8 Q 185.3 215.8 187.6 210.4 Q 190.0 205.1 192.3 196.1 Q 194.6 187.1 196.9 178.0 Q 199.2 168.9 201.5 167.2 Q 203.9 165.4 206.2 173.0 Q 208.5 180.7 210.8 190.1 Q 213.1 199.5 215.4 206.4 Q 217.8 213.3 220.1 217.1 Q 222.4 220.8 224.7 221.4 Q 227.0 222.0 229.3 219.3 Q 231.7 216.6 234.0 212.4 Q 236.3 208.3 238.6 205.3 Q 240.9 202.4 243.2 202.2 Q 245.6 201.9 247.9 204.0 Q 250.2 206.0 252.5 208.6 Q 254.8 211.3 257.1 213.8 Q 259.5 216.2 261.8 217.5 Q 264.1 218.8 266.4 219.3 Q 268.7 219.7 271.0 220.3 Q 273.4 220.9 275.7 220.8 Q 278.0 220.7 280.3 220.9 Q 282.6 221.0 284.9 220.9 Q 287.3 220.8 289.6 221.1 Q 291.9 221.3 294.2 221.2 Q 296.5 221.2 298.8 221.1 Q 301.2 221.1 303.5 220.9 Q 305.8 220.8 308.1 220.8 Q 310.4 220.7 312.7 221.2 Q 315.1 221.6 317.4 221.6 Q 319.7 221.5 322.0 221.3 Q 324.3 221.1 326.6 221.6 Q 329.0 222.0 331.3 221.8 Q 333.6 221.6 335.9 221.6 Q 338.2 221.5 340.5 221.3 Q 342.9 221.1 345.2 221.2 Q 347.5 221.2 349.8 221.0 Q 352.1 220.7 354.4 218.8 Q 356.8 216.9 359.1 211.6 Q 361.4 206.3 363.7 196.9 Q 366.0 187.4 368.3 178.9 Q 370.7 170.4 373.0 168.9 Q 375.3 167.4 377.6 174.5 Q 379.9 181.6 382.2 191.5 Q 384.6 201.4 386.9 208.3 Q 389.2 215.2 391.5 219.0 Q 393.8 222.8 396.1 223.7 Q 398.5 224.7 400.8 221.9 Q 403.1 219.1 405.4 214.4 Q 407.7 209.6 410.0 207.0 Q 412.4 204.5 414.7 204.5 Q 417.0 204.5 419.3 206.3 Q 421.6 208.2 423.9 211.1 Q 426.3 214.1 428.6 216.3 Q 430.9 218.5 433.2 220.1 Q 435.5 221.7 437.8 222.2 Q 440.2 222.8 442.5 223.4 Q 444.8 223.9 447.1 223.8 Q 449.4 223.6 451.7 224.0 Q 454.1 224.4 456.4 224.5 Q 458.7 224.6 461.0 224.4 Q 463.3 224.1 465.6 224.3 Q 468.0 224.4 470.3 224.3 Q 472.6 224.2 474.9 223.9 Q 477.2 223.6 479.5 224.2 Q 481.9 224.7 484.2 224.8 Q 486.5 224.8 488.8 224.7 Q 491.1 224.6 493.4 224.6 Q 495.8 224.6 498.1 224.8 Q 500.4 224.9 502.7 225.0 Q 505.0 225.0 507.3 224.9 Q 509.7 224.8 512.0 224.9 Q 514.3 225.0 516.6 225.2 Q 518.9 225.5 521.2 224.9 Q 523.6 224.3 525.9 222.4 Q 528.2 220.5 530.5 215.4 Q 532.8 210.3 535.1 200.9 Q 537.5 191.5 539.8 182.9 Q 542.1 174.3 544.4 172.5 Q 546.7 170.7 549.0 178.0 Q 551.4 185.3 553.7 195.2 Q 556.0 205.1 558.3 212.1 Q 560.6 219.0 562.9 222.6 Q 565.3 226.2 567.6 227.6 Q 569.9 229.0 572.2 226.0 Q 574.5 223.0 576.8 218.2 Q 579.2 213.5 581.5 211.2 Q 583.8 209.0 586.1 208.4 Q 588.4 207.7 590.7 210.1 Q 593.1 212.5 595.4 214.9 Q 597.7 217.3 600.0 219.9 Q 602.3 222.5 604.6 223.7 Q 606.9 224.8 609.3 225.6 Q 611.6 226.3 613.9 226.8 Q 616.2 227.3 618.5 226.9 Q 620.8 226.5 623.2 226.5 Q 625.5 226.5 627.8 226.8 Q 630.1 227.1 632.4 227.1 Q 634.7 227.2 637.1 227.2 Q 639.4 227.2 641.7 227.4 Q 644.0 227.5 646.3 227.2 Q 648.6 226.8 651.0 227.1 Q 653.3 227.4 655.6 227.4 Q 657.9 227.3 660.2 227.4 Q 662.5 227.6 664.9 227.5 Q 667.2 227.5 669.5 227.6 Q 671.8 227.8 674.1 227.3 Q 676.4 226.9 678.8 227.2 Q 681.1 227.4 683.4 227.2 Q 685.7 227.0 688.0 227.1 Q 690.3 227.2 692.7 226.8 Q 695.0 226.5 697.3 224.5 Q 699.6 222.5 701.9 217.2 Q 704.2 211.9 706.6 202.6 Q 708.9 193.3 711.2 184.5 Q 713.5 175.7 715.8 174.1 Q 718.1 172.6 720.5 179.9 Q 722.8 187.2 725.1 196.9 Q 727.4 206.6 729.7 213.0 Q 732.0 219.4 734.4 223.4 Q 736.7 227.4 739.0 228.5 Q 741.3 229.6 743.6 226.4 Q 745.9 223.3 748.3 218.6 Q 750.6 213.8 752.9 211.6 Q 755.2 209.3 757.5 208.9 Q 759.8 208.5 762.2 210.5 Q 764.5 212.5 766.8 215.4 Q 769.1 218.3 771.4 220.2 Q 773.7 222.1 776.1 223.6 Q 778.4 225.1 780.7 225.6 Q 783.0 226.2 785.3 226.5 Q 787.6 226.8 790.0 226.6 Q 792.3 226.4 794.6 226.6 Q 796.9 226.7 799.2 226.6 Q 801.5 226.5 803.9 226.6 Q 806.2 226.8 808.5 226.8 Q 810.8 226.7 813.1 226.3 Q 815.4 225.8 817.8 226.1 Q 820.1 226.3 822.4 226.2 Q 824.7 226.0 827.0 226.0 Q 829.3 226.0 831.7 226.0 Q 834.0 226.1 836.3 226.0 Q 838.6 226.0 840.9 225.8 Q 843.2 225.5 845.6 225.6 Q 847.9 225.7 850.2 225.7 Q 852.5 225.6 854.8 225.5 Q 857.1 225.4 859.5 225.1 Q 861.8 224.8 864.1 224.4 Q 866.4 223.9 868.7 222.0 Q 871.0 220.0 873.4 214.8 Q 875.7 209.6 878.0 200.5 Q 880.3 191.4 882.6 182.1 Q 884.9 172.8 887.3 171.2 Q 889.6 169.6 891.9 176.9 Q 894.2 184.2 896.5 193.8 Q 898.8 203.5 901.2 210.2 Q 903.5 216.9 905.8 220.5 Q 908.1 224.0 910.4 225.0 Q 912.7 226.0 915.1 223.3 Q 917.4 220.5 919.7 215.6 Q 922.0 210.7 924.3 208.4 Q 926.6 206.1 929.0 205.6 Q 931.3 205.0 933.6 206.9 Q 935.9 208.8 938.2 211.5 Q 940.5 214.1 942.9 216.3 Q 945.2 218.4 947.5 219.8 Q 949.8 221.2 952.1 222.2 Q 954.4 223.2 956.8 223.4 Q 959.1 223.6 961.4 223.2 Q 963.7 222.8 966.0 223.1 Q 968.3 223.3 970.7 223.1 Q 973.0 222.9 975.3 222.7 Q 977.6 222.5 979.9 222.9 Q 982.2 223.2 984.6 223.3 Q 986.9 223.3 989.2 222.8 Q 991.5 222.4 993.8 222.4 Q 996.1 222.4 998.5 222.4 Q 1000.8 222.4 1003.1 222.3 Q 1005.4 222.2 1007.7 222.3 Q 1010.0 222.4 1012.4 222.5 Q 1014.7 222.5 1017.0 222.3 Q 1019.3 222.0 1021.6 222.1 Q 1023.9 222.2 1026.3 222.3 Q 1028.6 222.3 1030.9 221.9 Q 1033.2 221.4 1035.5 221.0 Q 1037.8 220.5 1040.2 218.5 Q 1042.5 216.4 1044.8 211.3 Q 1047.1 206.2 1049.4 196.9 Q 1051.7 187.6 1054.1 178.7 Q 1056.4 169.9 1058.7 168.3 Q 1061.0 166.7 1063.3 173.7 Q 1065.6 180.6 1068.0 190.6 Q 1070.3 200.5 1072.6 207.1 Q 1074.9 213.7 1077.2 217.3 Q 1079.5 220.9 1081.9 221.6 Q 1084.2 222.4 1086.5 220.0 Q 1088.8 217.7 1091.1 212.8 Q 1093.4 207.8 1095.8 205.3 Q 1098.1 202.7 1100.4 202.5 Q 1102.7 202.3 1105.0 204.4 Q 1107.3 206.6 1109.7 209.2 Q 1112.0 211.8 1114.3 213.9 Q 1116.6 216.0 1118.9 217.5 Q 1121.2 219.0 1123.6 219.6 Q 1125.9 220.2 1128.2 220.4 Q 1130.5 220.7 1132.8 220.5 Q 1135.1 220.3 1137.5 220.5 Q 1139.8 220.7 1142.1 221.0 Q 1144.4 221.4 1146.7 221.1 Q 1149.0 220.9 1151.4 221.1 Q 1153.7 221.3 1156.0 221.5 Q 1158.3 221.7 1160.6 221.3 Q 1162.9 220.8 1165.3 220.5 Q 1167.6 220.2 1169.9 220.4 Q 1172.2 220.7 1174.5 220.9 Q 1176.8 221.1 1179.2 221.0 Q 1181.5 221.0 1183.8 220.7 Q 1186.1 220.3 1188.4 220.5 Q 1190.7 220.7 1193.1 220.7 Q 1195.4 220.8 1197.7 220.8 T 1200.0 220.8" fill="none" stroke="#2563EB" stroke-opacity="0.22" stroke-width="2" stroke-linecap="round" stroke-linejoin="round"/>
    <path d="M 0.0 224.0 Q 4.6 223.6 6.9 223.2 Q 9.3 222.8 11.6 220.9 Q 13.9 219.0 16.2 213.5 Q 18.5 208.1 20.8 198.9 Q 23.2 189.7 25.5 180.7 Q 27.8 171.6 30.1 169.8 Q 32.4 168.0 34.7 175.4 Q 37.1 182.8 39.4 192.6 Q 41.7 202.4 44.0 208.9 Q 46.3 215.5 48.6 219.1 Q 51.0 222.7 53.3 223.7 Q 55.6 224.8 57.9 222.0 Q 60.2 219.2 62.5 214.5 Q 64.9 209.8 67.2 206.9 Q 69.5 204.0 71.8 204.2 Q 74.1 204.3 76.4 206.0 Q 78.8 207.7 81.1 210.7 Q 83.4 213.7 85.7 215.9 Q 88.0 218.1 90.3 219.5 Q 92.7 220.9 95.0 221.2 Q 97.3 221.5 99.6 221.8 Q 101.9 222.2 104.2 221.9 Q 106.6 221.7 108.9 221.6 Q 111.2 221.6 113.5 221.7 Q 115.8 221.7 118.1 222.0 Q 120.5 222.4 122.8 222.0 Q 125.1 221.7 127.4 221.5 Q 129.7 221.4 132.0 221.4 Q 134.4 221.3 136.7 221.5 Q 139.0 221.8 141.3 221.6 Q 143.6 221.4 145.9 221.4 Q 148.3 221.5 150.6 221.4 Q 152.9 221.4 155.2 221.0 Q 157.5 220.7 159.8 221.0 Q 162.2 221.3 164.5 221.1 Q 166.8 221.0 169.1 220.8 Q 171.4 220.6 173.7 220.7 Q 176.1 220.9 178.4 220.3 Q 180.7 219.8 183.0 217.8 Q 185.3 215.8 187.6 210.4 Q 190.0 205.1 192.3 196.1 Q 194.6 187.1 196.9 178.0 Q 199.2 168.9 201.5 167.2 Q 203.9 165.4 206.2 173.0 Q 208.5 180.7 210.8 190.1 Q 213.1 199.5 215.4 206.4 Q 217.8 213.3 220.1 217.1 Q 222.4 220.8 224.7 221.4 Q 227.0 222.0 229.3 219.3 Q 231.7 216.6 234.0 212.4 Q 236.3 208.3 238.6 205.3 Q 240.9 202.4 243.2 202.2 Q 245.6 201.9 247.9 204.0 Q 250.2 206.0 252.5 208.6 Q 254.8 211.3 257.1 213.8 Q 259.5 216.2 261.8 217.5 Q 264.1 218.8 266.4 219.3 Q 268.7 219.7 271.0 220.3 Q 273.4 220.9 275.7 220.8 Q 278.0 220.7 280.3 220.9 Q 282.6 221.0 284.9 220.9 Q 287.3 220.8 289.6 221.1 Q 291.9 221.3 294.2 221.2 Q 296.5 221.2 298.8 221.1 Q 301.2 221.1 303.5 220.9 Q 305.8 220.8 308.1 220.8 Q 310.4 220.7 312.7 221.2 Q 315.1 221.6 317.4 221.6 Q 319.7 221.5 322.0 221.3 Q 324.3 221.1 326.6 221.6 Q 329.0 222.0 331.3 221.8 Q 333.6 221.6 335.9 221.6 Q 338.2 221.5 340.5 221.3 Q 342.9 221.1 345.2 221.2 Q 347.5 221.2 349.8 221.0 Q 352.1 220.7 354.4 218.8 Q 356.8 216.9 359.1 211.6 Q 361.4 206.3 363.7 196.9 Q 366.0 187.4 368.3 178.9 Q 370.7 170.4 373.0 168.9 Q 375.3 167.4 377.6 174.5 Q 379.9 181.6 382.2 191.5 Q 384.6 201.4 386.9 208.3 Q 389.2 215.2 391.5 219.0 Q 393.8 222.8 396.1 223.7 Q 398.5 224.7 400.8 221.9 Q 403.1 219.1 405.4 214.4 Q 407.7 209.6 410.0 207.0 Q 412.4 204.5 414.7 204.5 Q 417.0 204.5 419.3 206.3 Q 421.6 208.2 423.9 211.1 Q 426.3 214.1 428.6 216.3 Q 430.9 218.5 433.2 220.1 Q 435.5 221.7 437.8 222.2 Q 440.2 222.8 442.5 223.4 Q 444.8 223.9 447.1 223.8 Q 449.4 223.6 451.7 224.0 Q 454.1 224.4 456.4 224.5 Q 458.7 224.6 461.0 224.4 Q 463.3 224.1 465.6 224.3 Q 468.0 224.4 470.3 224.3 Q 472.6 224.2 474.9 223.9 Q 477.2 223.6 479.5 224.2 Q 481.9 224.7 484.2 224.8 Q 486.5 224.8 488.8 224.7 Q 491.1 224.6 493.4 224.6 Q 495.8 224.6 498.1 224.8 Q 500.4 224.9 502.7 225.0 Q 505.0 225.0 507.3 224.9 Q 509.7 224.8 512.0 224.9 Q 514.3 225.0 516.6 225.2 Q 518.9 225.5 521.2 224.9 Q 523.6 224.3 525.9 222.4 Q 528.2 220.5 530.5 215.4 Q 532.8 210.3 535.1 200.9 Q 537.5 191.5 539.8 182.9 Q 542.1 174.3 544.4 172.5 Q 546.7 170.7 549.0 178.0 Q 551.4 185.3 553.7 195.2 Q 556.0 205.1 558.3 212.1 Q 560.6 219.0 562.9 222.6 Q 565.3 226.2 567.6 227.6 Q 569.9 229.0 572.2 226.0 Q 574.5 223.0 576.8 218.2 Q 579.2 213.5 581.5 211.2 Q 583.8 209.0 586.1 208.4 Q 588.4 207.7 590.7 210.1 Q 593.1 212.5 595.4 214.9 Q 597.7 217.3 600.0 219.9 Q 602.3 222.5 604.6 223.7 Q 606.9 224.8 609.3 225.6 Q 611.6 226.3 613.9 226.8 Q 616.2 227.3 618.5 226.9 Q 620.8 226.5 623.2 226.5 Q 625.5 226.5 627.8 226.8 Q 630.1 227.1 632.4 227.1 Q 634.7 227.2 637.1 227.2 Q 639.4 227.2 641.7 227.4 Q 644.0 227.5 646.3 227.2 Q 648.6 226.8 651.0 227.1 Q 653.3 227.4 655.6 227.4 Q 657.9 227.3 660.2 227.4 Q 662.5 227.6 664.9 227.5 Q 667.2 227.5 669.5 227.6 Q 671.8 227.8 674.1 227.3 Q 676.4 226.9 678.8 227.2 Q 681.1 227.4 683.4 227.2 Q 685.7 227.0 688.0 227.1 Q 690.3 227.2 692.7 226.8 Q 695.0 226.5 697.3 224.5 Q 699.6 222.5 701.9 217.2 Q 704.2 211.9 706.6 202.6 Q 708.9 193.3 711.2 184.5 Q 713.5 175.7 715.8 174.1 Q 718.1 172.6 720.5 179.9 Q 722.8 187.2 725.1 196.9 Q 727.4 206.6 729.7 213.0 Q 732.0 219.4 734.4 223.4 Q 736.7 227.4 739.0 228.5 Q 741.3 229.6 743.6 226.4 Q 745.9 223.3 748.3 218.6 Q 750.6 213.8 752.9 211.6 Q 755.2 209.3 757.5 208.9 Q 759.8 208.5 762.2 210.5 Q 764.5 212.5 766.8 215.4 Q 769.1 218.3 771.4 220.2 Q 773.7 222.1 776.1 223.6 Q 778.4 225.1 780.7 225.6 Q 783.0 226.2 785.3 226.5 Q 787.6 226.8 790.0 226.6 Q 792.3 226.4 794.6 226.6 Q 796.9 226.7 799.2 226.6 Q 801.5 226.5 803.9 226.6 Q 806.2 226.8 808.5 226.8 Q 810.8 226.7 813.1 226.3 Q 815.4 225.8 817.8 226.1 Q 820.1 226.3 822.4 226.2 Q 824.7 226.0 827.0 226.0 Q 829.3 226.0 831.7 226.0 Q 834.0 226.1 836.3 226.0 Q 838.6 226.0 840.9 225.8 Q 843.2 225.5 845.6 225.6 Q 847.9 225.7 850.2 225.7 Q 852.5 225.6 854.8 225.5 Q 857.1 225.4 859.5 225.1 Q 861.8 224.8 864.1 224.4 Q 866.4 223.9 868.7 222.0 Q 871.0 220.0 873.4 214.8 Q 875.7 209.6 878.0 200.5 Q 880.3 191.4 882.6 182.1 Q 884.9 172.8 887.3 171.2 Q 889.6 169.6 891.9 176.9 Q 894.2 184.2 896.5 193.8 Q 898.8 203.5 901.2 210.2 Q 903.5 216.9 905.8 220.5 Q 908.1 224.0 910.4 225.0 Q 912.7 226.0 915.1 223.3 Q 917.4 220.5 919.7 215.6 Q 922.0 210.7 924.3 208.4 Q 926.6 206.1 929.0 205.6 Q 931.3 205.0 933.6 206.9 Q 935.9 208.8 938.2 211.5 Q 940.5 214.1 942.9 216.3 Q 945.2 218.4 947.5 219.8 Q 949.8 221.2 952.1 222.2 Q 954.4 223.2 956.8 223.4 Q 959.1 223.6 961.4 223.2 Q 963.7 222.8 966.0 223.1 Q 968.3 223.3 970.7 223.1 Q 973.0 222.9 975.3 222.7 Q 977.6 222.5 979.9 222.9 Q 982.2 223.2 984.6 223.3 Q 986.9 223.3 989.2 222.8 Q 991.5 222.4 993.8 222.4 Q 996.1 222.4 998.5 222.4 Q 1000.8 222.4 1003.1 222.3 Q 1005.4 222.2 1007.7 222.3 Q 1010.0 222.4 1012.4 222.5 Q 1014.7 222.5 1017.0 222.3 Q 1019.3 222.0 1021.6 222.1 Q 1023.9 222.2 1026.3 222.3 Q 1028.6 222.3 1030.9 221.9 Q 1033.2 221.4 1035.5 221.0 Q 1037.8 220.5 1040.2 218.5 Q 1042.5 216.4 1044.8 211.3 Q 1047.1 206.2 1049.4 196.9 Q 1051.7 187.6 1054.1 178.7 Q 1056.4 169.9 1058.7 168.3 Q 1061.0 166.7 1063.3 173.7 Q 1065.6 180.6 1068.0 190.6 Q 1070.3 200.5 1072.6 207.1 Q 1074.9 213.7 1077.2 217.3 Q 1079.5 220.9 1081.9 221.6 Q 1084.2 222.4 1086.5 220.0 Q 1088.8 217.7 1091.1 212.8 Q 1093.4 207.8 1095.8 205.3 Q 1098.1 202.7 1100.4 202.5 Q 1102.7 202.3 1105.0 204.4 Q 1107.3 206.6 1109.7 209.2 Q 1112.0 211.8 1114.3 213.9 Q 1116.6 216.0 1118.9 217.5 Q 1121.2 219.0 1123.6 219.6 Q 1125.9 220.2 1128.2 220.4 Q 1130.5 220.7 1132.8 220.5 Q 1135.1 220.3 1137.5 220.5 Q 1139.8 220.7 1142.1 221.0 Q 1144.4 221.4 1146.7 221.1 Q 1149.0 220.9 1151.4 221.1 Q 1153.7 221.3 1156.0 221.5 Q 1158.3 221.7 1160.6 221.3 Q 1162.9 220.8 1165.3 220.5 Q 1167.6 220.2 1169.9 220.4 Q 1172.2 220.7 1174.5 220.9 Q 1176.8 221.1 1179.2 221.0 Q 1181.5 221.0 1183.8 220.7 Q 1186.1 220.3 1188.4 220.5 Q 1190.7 220.7 1193.1 220.7 Q 1195.4 220.8 1197.7 220.8 T 1200.0 220.8" fill="none" stroke="url(#trace)" stroke-width="2.8" stroke-linecap="round" stroke-linejoin="round"
          filter="url(#glow)" stroke-dasharray="340 1871" stroke-dashoffset="2211">
      <animate attributeName="stroke-dashoffset" from="2211" to="0" dur="7.0s" repeatCount="indefinite"/>
    </path>
    <circle r="4.5" fill="#5EEAD4" filter="url(#glow)">
      <animateMotion dur="5.92s" repeatCount="indefinite" path="M 0.0 224.0 Q 4.6 223.6 6.9 223.2 Q 9.3 222.8 11.6 220.9 Q 13.9 219.0 16.2 213.5 Q 18.5 208.1 20.8 198.9 Q 23.2 189.7 25.5 180.7 Q 27.8 171.6 30.1 169.8 Q 32.4 168.0 34.7 175.4 Q 37.1 182.8 39.4 192.6 Q 41.7 202.4 44.0 208.9 Q 46.3 215.5 48.6 219.1 Q 51.0 222.7 53.3 223.7 Q 55.6 224.8 57.9 222.0 Q 60.2 219.2 62.5 214.5 Q 64.9 209.8 67.2 206.9 Q 69.5 204.0 71.8 204.2 Q 74.1 204.3 76.4 206.0 Q 78.8 207.7 81.1 210.7 Q 83.4 213.7 85.7 215.9 Q 88.0 218.1 90.3 219.5 Q 92.7 220.9 95.0 221.2 Q 97.3 221.5 99.6 221.8 Q 101.9 222.2 104.2 221.9 Q 106.6 221.7 108.9 221.6 Q 111.2 221.6 113.5 221.7 Q 115.8 221.7 118.1 222.0 Q 120.5 222.4 122.8 222.0 Q 125.1 221.7 127.4 221.5 Q 129.7 221.4 132.0 221.4 Q 134.4 221.3 136.7 221.5 Q 139.0 221.8 141.3 221.6 Q 143.6 221.4 145.9 221.4 Q 148.3 221.5 150.6 221.4 Q 152.9 221.4 155.2 221.0 Q 157.5 220.7 159.8 221.0 Q 162.2 221.3 164.5 221.1 Q 166.8 221.0 169.1 220.8 Q 171.4 220.6 173.7 220.7 Q 176.1 220.9 178.4 220.3 Q 180.7 219.8 183.0 217.8 Q 185.3 215.8 187.6 210.4 Q 190.0 205.1 192.3 196.1 Q 194.6 187.1 196.9 178.0 Q 199.2 168.9 201.5 167.2 Q 203.9 165.4 206.2 173.0 Q 208.5 180.7 210.8 190.1 Q 213.1 199.5 215.4 206.4 Q 217.8 213.3 220.1 217.1 Q 222.4 220.8 224.7 221.4 Q 227.0 222.0 229.3 219.3 Q 231.7 216.6 234.0 212.4 Q 236.3 208.3 238.6 205.3 Q 240.9 202.4 243.2 202.2 Q 245.6 201.9 247.9 204.0 Q 250.2 206.0 252.5 208.6 Q 254.8 211.3 257.1 213.8 Q 259.5 216.2 261.8 217.5 Q 264.1 218.8 266.4 219.3 Q 268.7 219.7 271.0 220.3 Q 273.4 220.9 275.7 220.8 Q 278.0 220.7 280.3 220.9 Q 282.6 221.0 284.9 220.9 Q 287.3 220.8 289.6 221.1 Q 291.9 221.3 294.2 221.2 Q 296.5 221.2 298.8 221.1 Q 301.2 221.1 303.5 220.9 Q 305.8 220.8 308.1 220.8 Q 310.4 220.7 312.7 221.2 Q 315.1 221.6 317.4 221.6 Q 319.7 221.5 322.0 221.3 Q 324.3 221.1 326.6 221.6 Q 329.0 222.0 331.3 221.8 Q 333.6 221.6 335.9 221.6 Q 338.2 221.5 340.5 221.3 Q 342.9 221.1 345.2 221.2 Q 347.5 221.2 349.8 221.0 Q 352.1 220.7 354.4 218.8 Q 356.8 216.9 359.1 211.6 Q 361.4 206.3 363.7 196.9 Q 366.0 187.4 368.3 178.9 Q 370.7 170.4 373.0 168.9 Q 375.3 167.4 377.6 174.5 Q 379.9 181.6 382.2 191.5 Q 384.6 201.4 386.9 208.3 Q 389.2 215.2 391.5 219.0 Q 393.8 222.8 396.1 223.7 Q 398.5 224.7 400.8 221.9 Q 403.1 219.1 405.4 214.4 Q 407.7 209.6 410.0 207.0 Q 412.4 204.5 414.7 204.5 Q 417.0 204.5 419.3 206.3 Q 421.6 208.2 423.9 211.1 Q 426.3 214.1 428.6 216.3 Q 430.9 218.5 433.2 220.1 Q 435.5 221.7 437.8 222.2 Q 440.2 222.8 442.5 223.4 Q 444.8 223.9 447.1 223.8 Q 449.4 223.6 451.7 224.0 Q 454.1 224.4 456.4 224.5 Q 458.7 224.6 461.0 224.4 Q 463.3 224.1 465.6 224.3 Q 468.0 224.4 470.3 224.3 Q 472.6 224.2 474.9 223.9 Q 477.2 223.6 479.5 224.2 Q 481.9 224.7 484.2 224.8 Q 486.5 224.8 488.8 224.7 Q 491.1 224.6 493.4 224.6 Q 495.8 224.6 498.1 224.8 Q 500.4 224.9 502.7 225.0 Q 505.0 225.0 507.3 224.9 Q 509.7 224.8 512.0 224.9 Q 514.3 225.0 516.6 225.2 Q 518.9 225.5 521.2 224.9 Q 523.6 224.3 525.9 222.4 Q 528.2 220.5 530.5 215.4 Q 532.8 210.3 535.1 200.9 Q 537.5 191.5 539.8 182.9 Q 542.1 174.3 544.4 172.5 Q 546.7 170.7 549.0 178.0 Q 551.4 185.3 553.7 195.2 Q 556.0 205.1 558.3 212.1 Q 560.6 219.0 562.9 222.6 Q 565.3 226.2 567.6 227.6 Q 569.9 229.0 572.2 226.0 Q 574.5 223.0 576.8 218.2 Q 579.2 213.5 581.5 211.2 Q 583.8 209.0 586.1 208.4 Q 588.4 207.7 590.7 210.1 Q 593.1 212.5 595.4 214.9 Q 597.7 217.3 600.0 219.9 Q 602.3 222.5 604.6 223.7 Q 606.9 224.8 609.3 225.6 Q 611.6 226.3 613.9 226.8 Q 616.2 227.3 618.5 226.9 Q 620.8 226.5 623.2 226.5 Q 625.5 226.5 627.8 226.8 Q 630.1 227.1 632.4 227.1 Q 634.7 227.2 637.1 227.2 Q 639.4 227.2 641.7 227.4 Q 644.0 227.5 646.3 227.2 Q 648.6 226.8 651.0 227.1 Q 653.3 227.4 655.6 227.4 Q 657.9 227.3 660.2 227.4 Q 662.5 227.6 664.9 227.5 Q 667.2 227.5 669.5 227.6 Q 671.8 227.8 674.1 227.3 Q 676.4 226.9 678.8 227.2 Q 681.1 227.4 683.4 227.2 Q 685.7 227.0 688.0 227.1 Q 690.3 227.2 692.7 226.8 Q 695.0 226.5 697.3 224.5 Q 699.6 222.5 701.9 217.2 Q 704.2 211.9 706.6 202.6 Q 708.9 193.3 711.2 184.5 Q 713.5 175.7 715.8 174.1 Q 718.1 172.6 720.5 179.9 Q 722.8 187.2 725.1 196.9 Q 727.4 206.6 729.7 213.0 Q 732.0 219.4 734.4 223.4 Q 736.7 227.4 739.0 228.5 Q 741.3 229.6 743.6 226.4 Q 745.9 223.3 748.3 218.6 Q 750.6 213.8 752.9 211.6 Q 755.2 209.3 757.5 208.9 Q 759.8 208.5 762.2 210.5 Q 764.5 212.5 766.8 215.4 Q 769.1 218.3 771.4 220.2 Q 773.7 222.1 776.1 223.6 Q 778.4 225.1 780.7 225.6 Q 783.0 226.2 785.3 226.5 Q 787.6 226.8 790.0 226.6 Q 792.3 226.4 794.6 226.6 Q 796.9 226.7 799.2 226.6 Q 801.5 226.5 803.9 226.6 Q 806.2 226.8 808.5 226.8 Q 810.8 226.7 813.1 226.3 Q 815.4 225.8 817.8 226.1 Q 820.1 226.3 822.4 226.2 Q 824.7 226.0 827.0 226.0 Q 829.3 226.0 831.7 226.0 Q 834.0 226.1 836.3 226.0 Q 838.6 226.0 840.9 225.8 Q 843.2 225.5 845.6 225.6 Q 847.9 225.7 850.2 225.7 Q 852.5 225.6 854.8 225.5 Q 857.1 225.4 859.5 225.1 Q 861.8 224.8 864.1 224.4 Q 866.4 223.9 868.7 222.0 Q 871.0 220.0 873.4 214.8 Q 875.7 209.6 878.0 200.5 Q 880.3 191.4 882.6 182.1 Q 884.9 172.8 887.3 171.2 Q 889.6 169.6 891.9 176.9 Q 894.2 184.2 896.5 193.8 Q 898.8 203.5 901.2 210.2 Q 903.5 216.9 905.8 220.5 Q 908.1 224.0 910.4 225.0 Q 912.7 226.0 915.1 223.3 Q 917.4 220.5 919.7 215.6 Q 922.0 210.7 924.3 208.4 Q 926.6 206.1 929.0 205.6 Q 931.3 205.0 933.6 206.9 Q 935.9 208.8 938.2 211.5 Q 940.5 214.1 942.9 216.3 Q 945.2 218.4 947.5 219.8 Q 949.8 221.2 952.1 222.2 Q 954.4 223.2 956.8 223.4 Q 959.1 223.6 961.4 223.2 Q 963.7 222.8 966.0 223.1 Q 968.3 223.3 970.7 223.1 Q 973.0 222.9 975.3 222.7 Q 977.6 222.5 979.9 222.9 Q 982.2 223.2 984.6 223.3 Q 986.9 223.3 989.2 222.8 Q 991.5 222.4 993.8 222.4 Q 996.1 222.4 998.5 222.4 Q 1000.8 222.4 1003.1 222.3 Q 1005.4 222.2 1007.7 222.3 Q 1010.0 222.4 1012.4 222.5 Q 1014.7 222.5 1017.0 222.3 Q 1019.3 222.0 1021.6 222.1 Q 1023.9 222.2 1026.3 222.3 Q 1028.6 222.3 1030.9 221.9 Q 1033.2 221.4 1035.5 221.0 Q 1037.8 220.5 1040.2 218.5 Q 1042.5 216.4 1044.8 211.3 Q 1047.1 206.2 1049.4 196.9 Q 1051.7 187.6 1054.1 178.7 Q 1056.4 169.9 1058.7 168.3 Q 1061.0 166.7 1063.3 173.7 Q 1065.6 180.6 1068.0 190.6 Q 1070.3 200.5 1072.6 207.1 Q 1074.9 213.7 1077.2 217.3 Q 1079.5 220.9 1081.9 221.6 Q 1084.2 222.4 1086.5 220.0 Q 1088.8 217.7 1091.1 212.8 Q 1093.4 207.8 1095.8 205.3 Q 1098.1 202.7 1100.4 202.5 Q 1102.7 202.3 1105.0 204.4 Q 1107.3 206.6 1109.7 209.2 Q 1112.0 211.8 1114.3 213.9 Q 1116.6 216.0 1118.9 217.5 Q 1121.2 219.0 1123.6 219.6 Q 1125.9 220.2 1128.2 220.4 Q 1130.5 220.7 1132.8 220.5 Q 1135.1 220.3 1137.5 220.5 Q 1139.8 220.7 1142.1 221.0 Q 1144.4 221.4 1146.7 221.1 Q 1149.0 220.9 1151.4 221.1 Q 1153.7 221.3 1156.0 221.5 Q 1158.3 221.7 1160.6 221.3 Q 1162.9 220.8 1165.3 220.5 Q 1167.6 220.2 1169.9 220.4 Q 1172.2 220.7 1174.5 220.9 Q 1176.8 221.1 1179.2 221.0 Q 1181.5 221.0 1183.8 220.7 Q 1186.1 220.3 1188.4 220.5 Q 1190.7 220.7 1193.1 220.7 Q 1195.4 220.8 1197.7 220.8 T 1200.0 220.8"/>
      <animate attributeName="r" values="3.4;5.8;3.4" dur="1s" repeatCount="indefinite"/>
    </circle>
    <rect width="1200" height="280" fill="url(#fade)"/>

    <g fill="#F8F9FA"><g transform="translate(451.6,92)"><path d="M21.1 0.7Q15.2 0.7 10.9 -1.8Q6.7 -4.3 4.4 -8.9Q2.0 -13.4 2.0 -19.7V-19.8Q2.0 -26.0 4.4 -30.6Q6.7 -35.2 11.0 -37.7Q15.2 -40.1 21.1 -40.1Q26.9 -40.1 31.2 -37.7Q35.5 -35.2 37.8 -30.6Q40.1 -26.0 40.1 -19.8V-19.7Q40.1 -13.4 37.8 -8.9Q35.5 -4.3 31.2 -1.8Q26.9 0.7 21.1 0.7ZM21.1 -6.3Q24.4 -6.3 26.7 -8.0Q29.1 -9.6 30.4 -12.6Q31.7 -15.6 31.7 -19.7V-19.8Q31.7 -23.9 30.4 -26.9Q29.1 -29.9 26.7 -31.5Q24.3 -33.1 21.1 -33.1Q17.9 -33.1 15.5 -31.5Q13.1 -29.9 11.8 -26.9Q10.5 -23.9 10.5 -19.8V-19.7Q10.5 -15.6 11.8 -12.6Q13.1 -9.6 15.4 -8.0Q17.8 -6.3 21.1 -6.3ZM30.9 3.7 18.7 -13.5H26.6L38.8 3.7Z M46.0 0.0V-39.5H72.2V-32.6H54.3V-23.2H71.1V-16.7H54.3V-6.8H72.2V0.0Z M95.4 0.6Q93.3 0.6 91.5 -0.1Q89.8 -0.8 88.5 -2.0Q87.2 -3.2 86.4 -5.0H86.2V0.0H78.2V-39.5H86.2V-24.2H86.4Q87.2 -26.0 88.5 -27.3Q89.8 -28.5 91.6 -29.2Q93.3 -29.9 95.4 -29.9Q99.1 -29.9 101.8 -28.1Q104.4 -26.3 105.9 -22.9Q107.3 -19.5 107.3 -14.7V-14.7Q107.3 -9.9 105.9 -6.5Q104.5 -3.1 101.8 -1.2Q99.1 0.6 95.4 0.6ZM92.7 -6.0Q94.7 -6.0 96.2 -7.1Q97.6 -8.1 98.4 -10.0Q99.2 -12.0 99.2 -14.7V-14.7Q99.2 -17.4 98.4 -19.3Q97.6 -21.2 96.2 -22.3Q94.7 -23.3 92.7 -23.3Q90.8 -23.3 89.3 -22.2Q87.9 -21.2 87.0 -19.3Q86.2 -17.3 86.2 -14.7V-14.6Q86.2 -12.0 87.0 -10.1Q87.9 -8.1 89.3 -7.1Q90.8 -6.0 92.7 -6.0Z M125.4 0.6Q120.9 0.6 117.7 -1.2Q114.4 -3.1 112.7 -6.5Q111.0 -9.9 111.0 -14.6V-14.6Q111.0 -19.3 112.7 -22.7Q114.4 -26.2 117.6 -28.0Q120.8 -29.9 125.1 -29.9Q129.4 -29.9 132.5 -28.1Q135.6 -26.3 137.3 -23.0Q139.0 -19.6 139.0 -15.2V-12.8H114.9V-17.8H135.3L131.5 -13.1V-16.2Q131.5 -18.7 130.7 -20.5Q129.9 -22.2 128.5 -23.1Q127.1 -24.0 125.2 -24.0Q123.3 -24.0 121.9 -23.1Q120.5 -22.1 119.7 -20.4Q118.8 -18.7 118.8 -16.2V-13.1Q118.8 -10.6 119.7 -8.9Q120.5 -7.2 122.0 -6.3Q123.5 -5.4 125.6 -5.4Q127.2 -5.4 128.4 -5.9Q129.6 -6.4 130.4 -7.2Q131.1 -8.0 131.4 -8.8L131.5 -9.0H138.8L138.7 -8.7Q138.4 -7.0 137.4 -5.4Q136.5 -3.8 134.8 -2.4Q133.2 -1.0 130.9 -0.2Q128.5 0.6 125.4 0.6Z M143.9 0.0V-39.5H151.9V0.0Z M158.1 0.0V-39.5H166.1V0.0Z M180.8 0.5Q177.9 0.5 175.6 -0.7Q173.4 -1.8 172.2 -3.8Q170.9 -5.8 170.9 -8.4V-8.4Q170.9 -11.1 172.3 -13.0Q173.6 -14.9 176.2 -16.0Q178.7 -17.1 182.3 -17.3L193.8 -18.1V-13.1L183.5 -12.4Q181.2 -12.3 180.0 -11.3Q178.8 -10.4 178.8 -8.8V-8.8Q178.8 -7.2 180.1 -6.3Q181.3 -5.4 183.4 -5.4Q185.2 -5.4 186.6 -6.1Q188.0 -6.8 188.8 -8.0Q189.6 -9.2 189.6 -10.7V-19.6Q189.6 -21.5 188.4 -22.7Q187.1 -23.8 184.8 -23.8Q182.5 -23.8 181.2 -22.9Q179.9 -22.0 179.6 -20.5L179.5 -20.3H172.2L172.3 -20.6Q172.5 -23.3 174.1 -25.4Q175.6 -27.5 178.4 -28.7Q181.2 -29.9 185.1 -29.9Q188.9 -29.9 191.7 -28.7Q194.5 -27.5 196.0 -25.3Q197.6 -23.1 197.6 -20.1V0.0H189.6V-4.4H189.4Q188.6 -2.9 187.3 -1.8Q186.0 -0.7 184.4 -0.1Q182.7 0.5 180.8 0.5Z M211.0 0.0 200.9 -29.3H209.4L215.6 -7.1H215.7L221.8 -29.3H230.1L220.1 0.0Z M233.7 0.0V-29.3H241.6V0.0ZM237.6 -33.1Q235.9 -33.1 234.6 -34.3Q233.4 -35.5 233.4 -37.2Q233.4 -39.0 234.6 -40.2Q235.9 -41.4 237.6 -41.4Q239.5 -41.4 240.7 -40.2Q241.9 -39.0 241.9 -37.2Q241.9 -35.5 240.7 -34.3Q239.5 -33.1 237.6 -33.1Z M259.2 0.6Q254.4 0.6 252.0 -1.4Q249.7 -3.5 249.7 -8.2V-23.3H245.6V-29.3H249.7V-36.5H257.7V-29.3H263.1V-23.3H257.7V-9.1Q257.7 -7.0 258.6 -6.2Q259.5 -5.4 261.4 -5.4Q261.9 -5.4 262.3 -5.5Q262.7 -5.5 263.1 -5.5V0.3Q262.4 0.4 261.4 0.5Q260.5 0.6 259.2 0.6Z M276.8 0.5Q273.9 0.5 271.7 -0.7Q269.4 -1.8 268.2 -3.8Q267.0 -5.8 267.0 -8.4V-8.4Q267.0 -11.1 268.3 -13.0Q269.6 -14.9 272.2 -16.0Q274.7 -17.1 278.4 -17.3L289.8 -18.1V-13.1L279.6 -12.4Q277.3 -12.3 276.1 -11.3Q274.9 -10.4 274.9 -8.8V-8.8Q274.9 -7.2 276.1 -6.3Q277.3 -5.4 279.4 -5.4Q281.2 -5.4 282.6 -6.1Q284.0 -6.8 284.8 -8.0Q285.6 -9.2 285.6 -10.7V-19.6Q285.6 -21.5 284.4 -22.7Q283.1 -23.8 280.8 -23.8Q278.6 -23.8 277.2 -22.9Q275.9 -22.0 275.6 -20.5L275.6 -20.3H268.3L268.3 -20.6Q268.5 -23.3 270.1 -25.4Q271.7 -27.5 274.5 -28.7Q277.3 -29.9 281.1 -29.9Q284.9 -29.9 287.7 -28.7Q290.5 -27.5 292.1 -25.3Q293.6 -23.1 293.6 -20.1V0.0H285.6V-4.4H285.5Q284.6 -2.9 283.3 -1.8Q282.0 -0.7 280.4 -0.1Q278.7 0.5 276.8 0.5Z" /></g><animate attributeName="opacity" from="0" to="1" dur="1.1s" fill="freeze"/></g>
    <g fill="#60A5FA"><g transform="translate(343.1,124)"><path d="M1.2 0.0V-10.9H3.0L8.9 -2.6L7.4 -3.5H8.4V-10.9H10.4V0.0H8.6L2.7 -8.3L4.2 -7.4H3.2V0.0Z M15.8 0.0V-10.9H22.9V-9.2H17.8V-6.3H22.6V-4.7H17.8V-1.7H22.9V0.0Z M32.5 0.3Q31.1 0.3 30.1 -0.3Q29.1 -0.8 28.6 -1.7Q28.0 -2.6 28.0 -3.8V-10.9H30.0V-4.0Q30.0 -3.2 30.3 -2.7Q30.6 -2.1 31.2 -1.8Q31.7 -1.5 32.5 -1.5Q33.3 -1.5 33.9 -1.8Q34.4 -2.1 34.7 -2.7Q35.0 -3.2 35.0 -4.0V-10.9H37.0V-3.8Q37.0 -2.6 36.5 -1.7Q35.9 -0.8 34.9 -0.3Q33.9 0.3 32.5 0.3Z M42.4 0.0V-10.9H46.9Q48.0 -10.9 48.9 -10.5Q49.7 -10.1 50.2 -9.3Q50.6 -8.6 50.6 -7.5V-7.5Q50.6 -6.4 50.1 -5.6Q49.6 -4.7 48.6 -4.4L51.0 0.0H48.6L46.5 -4.1Q46.5 -4.1 46.5 -4.1Q46.5 -4.1 46.4 -4.1H44.5V0.0ZM44.5 -5.6H46.6Q47.5 -5.6 48.1 -6.1Q48.6 -6.6 48.6 -7.5V-7.5Q48.6 -8.3 48.0 -8.8Q47.5 -9.3 46.6 -9.3H44.5Z M54.9 0.0 58.8 -10.9H60.5V-8.9H59.9L57.1 0.0ZM56.9 -2.8 57.4 -4.3H62.4L63.0 -2.8ZM62.8 0.0 60.0 -8.9V-10.9H61.1L65.0 0.0Z M69.6 0.0V-10.9H71.6V-1.7H76.6V0.0Z M90.4 0.0 87.5 -10.9H89.6L91.5 -2.8H91.5L93.7 -10.9H95.5L97.6 -2.8H97.7L99.5 -10.9H101.6L98.7 0.0H96.8L94.6 -7.7H94.5L92.3 0.0Z M111.1 0.3Q109.5 0.3 108.4 -0.4Q107.2 -1.1 106.6 -2.4Q105.9 -3.7 105.9 -5.5V-5.5Q105.9 -7.2 106.6 -8.5Q107.2 -9.8 108.4 -10.5Q109.5 -11.2 111.1 -11.2Q112.7 -11.2 113.9 -10.5Q115.0 -9.8 115.7 -8.5Q116.3 -7.2 116.3 -5.5V-5.5Q116.3 -3.7 115.7 -2.4Q115.1 -1.1 113.9 -0.4Q112.7 0.3 111.1 0.3ZM111.1 -1.5Q112.1 -1.5 112.8 -2.0Q113.5 -2.5 113.9 -3.4Q114.2 -4.3 114.2 -5.5V-5.5Q114.2 -6.7 113.8 -7.6Q113.5 -8.5 112.8 -8.9Q112.1 -9.4 111.1 -9.4Q110.2 -9.4 109.5 -8.9Q108.8 -8.5 108.4 -7.6Q108.0 -6.7 108.0 -5.5V-5.5Q108.0 -4.3 108.4 -3.4Q108.8 -2.5 109.5 -2.0Q110.2 -1.5 111.1 -1.5Z M121.3 0.0V-10.9H125.7Q126.9 -10.9 127.7 -10.5Q128.6 -10.1 129.0 -9.3Q129.5 -8.6 129.5 -7.5V-7.5Q129.5 -6.4 129.0 -5.6Q128.4 -4.7 127.5 -4.4L129.8 0.0H127.5L125.4 -4.1Q125.4 -4.1 125.3 -4.1Q125.3 -4.1 125.3 -4.1H123.3V0.0ZM123.3 -5.6H125.5Q126.4 -5.6 126.9 -6.1Q127.4 -6.6 127.4 -7.5V-7.5Q127.4 -8.3 126.9 -8.8Q126.4 -9.3 125.4 -9.3H123.3Z M136.5 -3.3 136.4 -5.9H136.7L140.9 -10.9H143.2L139.0 -6.0L138.1 -5.2ZM134.6 0.0V-10.9H136.6V0.0ZM141.1 0.0 137.6 -5.0 139.0 -6.4 143.6 0.0Z M148.0 0.0V-10.9H155.0V-9.2H150.1V-6.1H154.6V-4.4H150.1V0.0Z M159.9 0.0V-10.9H162.0V-1.7H166.9V0.0Z M176.5 0.3Q174.9 0.3 173.7 -0.4Q172.6 -1.1 171.9 -2.4Q171.3 -3.7 171.3 -5.5V-5.5Q171.3 -7.2 171.9 -8.5Q172.6 -9.8 173.7 -10.5Q174.9 -11.2 176.5 -11.2Q178.1 -11.2 179.2 -10.5Q180.4 -9.8 181.0 -8.5Q181.7 -7.2 181.7 -5.5V-5.5Q181.7 -3.7 181.0 -2.4Q180.4 -1.1 179.3 -0.4Q178.1 0.3 176.5 0.3ZM176.5 -1.5Q177.4 -1.5 178.1 -2.0Q178.8 -2.5 179.2 -3.4Q179.6 -4.3 179.6 -5.5V-5.5Q179.6 -6.7 179.2 -7.6Q178.8 -8.5 178.1 -8.9Q177.4 -9.4 176.5 -9.4Q175.5 -9.4 174.8 -8.9Q174.1 -8.5 173.8 -7.6Q173.4 -6.7 173.4 -5.5V-5.5Q173.4 -4.3 173.8 -3.4Q174.1 -2.5 174.8 -2.0Q175.5 -1.5 176.5 -1.5Z M188.9 0.0 186.0 -10.9H188.1L189.9 -2.8H190.0L192.1 -10.9H193.9L196.1 -2.8H196.2L198.0 -10.9H200.1L197.2 0.0H195.3L193.1 -7.7H193.0L190.8 0.0Z M208.7 0.3Q207.4 0.3 206.5 -0.1Q205.5 -0.5 205.0 -1.2Q204.4 -1.9 204.4 -2.9L204.4 -3.0H206.3L206.3 -2.9Q206.4 -2.5 206.7 -2.1Q207.0 -1.8 207.5 -1.6Q208.1 -1.4 208.7 -1.4Q209.4 -1.4 209.9 -1.6Q210.4 -1.8 210.7 -2.2Q210.9 -2.5 210.9 -3.0V-3.0Q210.9 -3.6 210.5 -3.9Q210.0 -4.3 209.0 -4.5L207.8 -4.7Q206.7 -5.0 206.0 -5.4Q205.3 -5.8 204.9 -6.4Q204.6 -7.1 204.6 -7.9V-7.9Q204.6 -8.9 205.1 -9.6Q205.6 -10.4 206.6 -10.8Q207.5 -11.2 208.7 -11.2Q209.9 -11.2 210.8 -10.8Q211.7 -10.4 212.2 -9.7Q212.7 -9.0 212.8 -8.1L212.8 -8.0H210.8L210.8 -8.0Q210.7 -8.5 210.5 -8.8Q210.2 -9.1 209.7 -9.3Q209.3 -9.5 208.7 -9.5Q208.1 -9.5 207.6 -9.3Q207.2 -9.1 206.9 -8.8Q206.6 -8.5 206.6 -8.0V-8.0Q206.6 -7.6 206.8 -7.4Q207.0 -7.1 207.4 -6.9Q207.9 -6.7 208.5 -6.5L209.7 -6.3Q210.9 -6.0 211.6 -5.6Q212.3 -5.2 212.6 -4.6Q213.0 -4.0 213.0 -3.2V-3.2Q213.0 -2.1 212.5 -1.4Q211.9 -0.6 211.0 -0.2Q210.0 0.3 208.7 0.3Z M225.8 -3.2Q225.3 -3.2 224.9 -3.6Q224.6 -3.9 224.6 -4.4Q224.6 -4.9 224.9 -5.3Q225.3 -5.6 225.8 -5.6Q226.3 -5.6 226.7 -5.3Q227.0 -4.9 227.0 -4.4Q227.0 -3.9 226.7 -3.6Q226.3 -3.2 225.8 -3.2Z M243.7 0.3Q242.2 0.3 241.1 -0.4Q239.9 -1.1 239.3 -2.4Q238.7 -3.7 238.7 -5.5V-5.5Q238.7 -7.2 239.3 -8.5Q239.9 -9.8 241.0 -10.5Q242.2 -11.2 243.7 -11.2Q245.0 -11.2 246.0 -10.7Q247.0 -10.2 247.7 -9.3Q248.3 -8.5 248.4 -7.3L248.4 -7.3H246.4L246.4 -7.3Q246.3 -8.0 245.9 -8.4Q245.5 -8.9 245.0 -9.2Q244.4 -9.4 243.7 -9.4Q242.8 -9.4 242.2 -8.9Q241.5 -8.5 241.1 -7.6Q240.8 -6.7 240.8 -5.5V-5.5Q240.8 -4.2 241.1 -3.4Q241.5 -2.5 242.2 -2.0Q242.8 -1.5 243.8 -1.5Q244.4 -1.5 245.0 -1.7Q245.5 -2.0 245.9 -2.4Q246.3 -2.9 246.4 -3.5L246.4 -3.5H248.4L248.4 -3.5Q248.3 -2.4 247.6 -1.5Q247.0 -0.7 246.0 -0.2Q245.0 0.3 243.7 0.3Z M253.3 0.0V-10.9H255.3V-1.7H260.3V0.0Z M269.9 0.3Q268.3 0.3 267.1 -0.4Q265.9 -1.1 265.3 -2.4Q264.7 -3.7 264.7 -5.5V-5.5Q264.7 -7.2 265.3 -8.5Q266.0 -9.8 267.1 -10.5Q268.3 -11.2 269.9 -11.2Q271.5 -11.2 272.6 -10.5Q273.8 -9.8 274.4 -8.5Q275.1 -7.2 275.1 -5.5V-5.5Q275.1 -3.7 274.4 -2.4Q273.8 -1.1 272.6 -0.4Q271.5 0.3 269.9 0.3ZM269.9 -1.5Q270.8 -1.5 271.5 -2.0Q272.2 -2.5 272.6 -3.4Q273.0 -4.3 273.0 -5.5V-5.5Q273.0 -6.7 272.6 -7.6Q272.2 -8.5 271.5 -8.9Q270.8 -9.4 269.9 -9.4Q268.9 -9.4 268.2 -8.9Q267.5 -8.5 267.1 -7.6Q266.8 -6.7 266.8 -5.5V-5.5Q266.8 -4.3 267.1 -3.4Q267.5 -2.5 268.2 -2.0Q268.9 -1.5 269.9 -1.5Z M283.9 0.3Q282.6 0.3 281.6 -0.1Q280.7 -0.5 280.2 -1.2Q279.6 -1.9 279.5 -2.9L279.5 -3.0H281.5L281.5 -2.9Q281.6 -2.5 281.9 -2.1Q282.2 -1.8 282.7 -1.6Q283.2 -1.4 283.9 -1.4Q284.6 -1.4 285.1 -1.6Q285.6 -1.8 285.8 -2.2Q286.1 -2.5 286.1 -3.0V-3.0Q286.1 -3.6 285.7 -3.9Q285.2 -4.3 284.2 -4.5L283.0 -4.7Q281.9 -5.0 281.2 -5.4Q280.5 -5.8 280.1 -6.4Q279.8 -7.1 279.8 -7.9V-7.9Q279.8 -8.9 280.3 -9.6Q280.8 -10.4 281.7 -10.8Q282.7 -11.2 283.8 -11.2Q285.1 -11.2 286.0 -10.8Q286.9 -10.4 287.4 -9.7Q287.9 -9.0 287.9 -8.1L288.0 -8.0H286.0L286.0 -8.0Q285.9 -8.5 285.6 -8.8Q285.4 -9.1 284.9 -9.3Q284.4 -9.5 283.8 -9.5Q283.2 -9.5 282.8 -9.3Q282.3 -9.1 282.1 -8.8Q281.8 -8.5 281.8 -8.0V-8.0Q281.8 -7.6 282.0 -7.4Q282.2 -7.1 282.6 -6.9Q283.0 -6.7 283.7 -6.5L284.9 -6.3Q286.0 -6.0 286.8 -5.6Q287.5 -5.2 287.8 -4.6Q288.2 -4.0 288.2 -3.2V-3.2Q288.2 -2.1 287.6 -1.4Q287.1 -0.6 286.1 -0.2Q285.2 0.3 283.9 0.3Z M293.1 0.0V-10.9H300.2V-9.2H295.1V-6.3H299.9V-4.7H295.1V-1.7H300.2V0.0Z M305.3 0.0V-10.9H309.4Q311.1 -10.9 312.2 -10.3Q313.4 -9.6 314.0 -8.4Q314.6 -7.2 314.6 -5.5V-5.5Q314.6 -3.8 314.0 -2.5Q313.4 -1.3 312.2 -0.6Q311.1 0.0 309.4 0.0ZM307.4 -1.7H309.2Q310.2 -1.7 311.0 -2.1Q311.7 -2.6 312.1 -3.4Q312.5 -4.3 312.5 -5.5V-5.5Q312.5 -6.7 312.1 -7.5Q311.7 -8.3 311.0 -8.8Q310.2 -9.2 309.2 -9.2H307.4Z M319.4 -3.5V-5.3H324.5V-3.5Z M329.7 0.0V-10.9H331.8V-1.7H336.7V0.0Z M346.3 0.3Q344.7 0.3 343.5 -0.4Q342.4 -1.1 341.8 -2.4Q341.1 -3.7 341.1 -5.5V-5.5Q341.1 -7.2 341.8 -8.5Q342.4 -9.8 343.6 -10.5Q344.7 -11.2 346.3 -11.2Q347.9 -11.2 349.1 -10.5Q350.2 -9.8 350.9 -8.5Q351.5 -7.2 351.5 -5.5V-5.5Q351.5 -3.7 350.9 -2.4Q350.2 -1.1 349.1 -0.4Q347.9 0.3 346.3 0.3ZM346.3 -1.5Q347.3 -1.5 348.0 -2.0Q348.7 -2.5 349.0 -3.4Q349.4 -4.3 349.4 -5.5V-5.5Q349.4 -6.7 349.0 -7.6Q348.7 -8.5 348.0 -8.9Q347.3 -9.4 346.3 -9.4Q345.4 -9.4 344.7 -8.9Q344.0 -8.5 343.6 -7.6Q343.2 -6.7 343.2 -5.5V-5.5Q343.2 -4.3 343.6 -3.4Q344.0 -2.5 344.7 -2.0Q345.4 -1.5 346.3 -1.5Z M361.2 0.3Q359.6 0.3 358.4 -0.4Q357.3 -1.1 356.6 -2.4Q356.0 -3.7 356.0 -5.5V-5.5Q356.0 -7.2 356.7 -8.5Q357.3 -9.8 358.5 -10.5Q359.6 -11.2 361.2 -11.2Q362.8 -11.2 364.0 -10.5Q365.1 -9.8 365.8 -8.5Q366.4 -7.2 366.4 -5.5V-5.5Q366.4 -3.7 365.8 -2.4Q365.1 -1.1 364.0 -0.4Q362.8 0.3 361.2 0.3ZM361.2 -1.5Q362.2 -1.5 362.9 -2.0Q363.6 -2.5 363.9 -3.4Q364.3 -4.3 364.3 -5.5V-5.5Q364.3 -6.7 363.9 -7.6Q363.6 -8.5 362.9 -8.9Q362.2 -9.4 361.2 -9.4Q360.3 -9.4 359.6 -8.9Q358.9 -8.5 358.5 -7.6Q358.1 -6.7 358.1 -5.5V-5.5Q358.1 -4.3 358.5 -3.4Q358.9 -2.5 359.6 -2.0Q360.3 -1.5 361.2 -1.5Z M372.4 -3.6V-5.2H375.2Q376.3 -5.2 376.8 -5.7Q377.4 -6.3 377.4 -7.2V-7.2Q377.4 -8.2 376.8 -8.7Q376.3 -9.3 375.2 -9.3H372.4V-10.9H375.7Q376.8 -10.9 377.7 -10.5Q378.5 -10.0 379.0 -9.2Q379.5 -8.4 379.5 -7.3V-7.2Q379.5 -6.1 379.0 -5.3Q378.5 -4.5 377.7 -4.0Q376.8 -3.6 375.7 -3.6ZM371.4 0.0V-10.9H373.4V0.0Z M392.1 -3.6V-5.2H395.0Q396.0 -5.2 396.6 -5.7Q397.1 -6.3 397.1 -7.2V-7.2Q397.1 -8.2 396.6 -8.7Q396.0 -9.3 395.0 -9.3H392.1V-10.9H395.5Q396.6 -10.9 397.4 -10.5Q398.3 -10.0 398.7 -9.2Q399.2 -8.4 399.2 -7.3V-7.2Q399.2 -6.1 398.7 -5.3Q398.3 -4.5 397.4 -4.0Q396.6 -3.6 395.5 -3.6ZM391.1 0.0V-10.9H393.1V0.0Z M404.1 0.0V-10.9H408.5Q409.7 -10.9 410.5 -10.5Q411.4 -10.1 411.8 -9.3Q412.3 -8.6 412.3 -7.5V-7.5Q412.3 -6.4 411.8 -5.6Q411.2 -4.7 410.3 -4.4L412.6 0.0H410.3L408.2 -4.1Q408.2 -4.1 408.1 -4.1Q408.1 -4.1 408.1 -4.1H406.1V0.0ZM406.1 -5.6H408.3Q409.2 -5.6 409.7 -6.1Q410.2 -6.6 410.2 -7.5V-7.5Q410.2 -8.3 409.7 -8.8Q409.2 -9.3 408.2 -9.3H406.1Z M417.4 0.0V-10.9H424.5V-9.2H419.4V-6.3H424.2V-4.7H419.4V-1.7H424.5V0.0Z M429.6 0.0V-10.9H433.7Q435.4 -10.9 436.5 -10.3Q437.7 -9.6 438.3 -8.4Q438.9 -7.2 438.9 -5.5V-5.5Q438.9 -3.8 438.3 -2.5Q437.7 -1.3 436.5 -0.6Q435.4 0.0 433.7 0.0ZM431.6 -1.7H433.5Q434.5 -1.7 435.3 -2.1Q436.0 -2.6 436.4 -3.4Q436.8 -4.3 436.8 -5.5V-5.5Q436.8 -6.7 436.4 -7.5Q436.0 -8.3 435.3 -8.8Q434.5 -9.2 433.5 -9.2H431.6Z M443.8 0.0V-10.9H445.9V0.0Z M455.9 0.3Q454.3 0.3 453.2 -0.4Q452.1 -1.1 451.4 -2.4Q450.8 -3.7 450.8 -5.5V-5.5Q450.8 -7.2 451.4 -8.5Q452.1 -9.8 453.2 -10.5Q454.3 -11.2 455.9 -11.2Q457.2 -11.2 458.2 -10.7Q459.2 -10.2 459.8 -9.3Q460.4 -8.5 460.6 -7.3L460.6 -7.3H458.6L458.5 -7.3Q458.4 -8.0 458.0 -8.4Q457.7 -8.9 457.1 -9.2Q456.6 -9.4 455.9 -9.4Q455.0 -9.4 454.3 -8.9Q453.6 -8.5 453.3 -7.6Q452.9 -6.7 452.9 -5.5V-5.5Q452.9 -4.2 453.3 -3.4Q453.6 -2.5 454.3 -2.0Q455.0 -1.5 455.9 -1.5Q456.6 -1.5 457.1 -1.7Q457.7 -2.0 458.0 -2.4Q458.4 -2.9 458.5 -3.5L458.6 -3.5H460.6L460.6 -3.5Q460.4 -2.4 459.8 -1.5Q459.2 -0.7 458.2 -0.2Q457.2 0.3 455.9 0.3Z M468.1 0.0V-9.2H464.8V-10.9H473.5V-9.2H470.2V0.0Z M478.3 0.0V-10.9H480.3V0.0Z M490.5 0.3Q488.9 0.3 487.7 -0.4Q486.5 -1.1 485.9 -2.4Q485.3 -3.7 485.3 -5.5V-5.5Q485.3 -7.2 485.9 -8.5Q486.5 -9.8 487.7 -10.5Q488.9 -11.2 490.5 -11.2Q492.1 -11.2 493.2 -10.5Q494.4 -9.8 495.0 -8.5Q495.6 -7.2 495.6 -5.5V-5.5Q495.6 -3.7 495.0 -2.4Q494.4 -1.1 493.2 -0.4Q492.1 0.3 490.5 0.3ZM490.5 -1.5Q491.4 -1.5 492.1 -2.0Q492.8 -2.5 493.2 -3.4Q493.6 -4.3 493.6 -5.5V-5.5Q493.6 -6.7 493.2 -7.6Q492.8 -8.5 492.1 -8.9Q491.4 -9.4 490.5 -9.4Q489.5 -9.4 488.8 -8.9Q488.1 -8.5 487.7 -7.6Q487.3 -6.7 487.3 -5.5V-5.5Q487.3 -4.3 487.7 -3.4Q488.1 -2.5 488.8 -2.0Q489.5 -1.5 490.5 -1.5Z M500.6 0.0V-10.9H502.4L508.3 -2.6L506.8 -3.5H507.7V-10.9H509.7V0.0H508.0L502.0 -8.3L503.6 -7.4H502.6V0.0Z" /></g><animate attributeName="opacity" from="0" to="1" dur="1.1s" begin="0.45s" fill="freeze"/></g>
    <g fill="#9CA3AF"><g transform="translate(369.0,148)"><path d="M4.7 0.2Q3.5 0.2 2.6 -0.3Q1.7 -0.9 1.2 -1.9Q0.7 -3.0 0.7 -4.4V-4.4Q0.7 -5.8 1.2 -6.9Q1.7 -7.9 2.6 -8.5Q3.5 -9.0 4.7 -9.0Q5.7 -9.0 6.5 -8.6Q7.3 -8.3 7.8 -7.6Q8.3 -6.9 8.4 -6.0L8.4 -6.0H7.0L7.0 -6.0Q6.9 -6.6 6.5 -7.0Q6.2 -7.3 5.8 -7.6Q5.3 -7.8 4.7 -7.8Q3.9 -7.8 3.4 -7.4Q2.8 -7.0 2.5 -6.2Q2.2 -5.4 2.2 -4.4V-4.4Q2.2 -3.4 2.5 -2.6Q2.8 -1.8 3.4 -1.4Q3.9 -1.0 4.7 -1.0Q5.3 -1.0 5.8 -1.2Q6.2 -1.4 6.6 -1.8Q6.9 -2.1 7.0 -2.6L7.0 -2.7H8.4L8.4 -2.6Q8.3 -1.8 7.8 -1.1Q7.3 -0.5 6.5 -0.1Q5.7 0.2 4.7 0.2Z M12.4 0.0V-8.8H15.9Q16.8 -8.8 17.5 -8.5Q18.2 -8.1 18.5 -7.5Q18.9 -6.9 18.9 -6.1V-6.1Q18.9 -5.2 18.4 -4.5Q18.0 -3.9 17.2 -3.6L19.1 0.0H17.5L15.7 -3.4Q15.7 -3.4 15.7 -3.4Q15.7 -3.4 15.7 -3.4H13.8V0.0ZM13.8 -4.5H15.8Q16.6 -4.5 17.0 -4.9Q17.4 -5.3 17.4 -6.1V-6.1Q17.4 -6.8 17.0 -7.2Q16.5 -7.6 15.7 -7.6H13.8Z M26.9 0.2Q25.6 0.2 24.6 -0.4Q23.7 -0.9 23.2 -2.0Q22.7 -3.0 22.7 -4.4V-4.4Q22.7 -5.8 23.2 -6.9Q23.7 -7.9 24.7 -8.5Q25.6 -9.0 26.9 -9.0Q28.1 -9.0 29.0 -8.5Q30.0 -7.9 30.5 -6.9Q31.0 -5.8 31.0 -4.4V-4.4Q31.0 -3.0 30.5 -2.0Q30.0 -0.9 29.0 -0.4Q28.1 0.2 26.9 0.2ZM26.9 -1.0Q27.7 -1.0 28.3 -1.4Q28.9 -1.9 29.2 -2.6Q29.5 -3.4 29.5 -4.4V-4.4Q29.5 -5.4 29.2 -6.2Q28.9 -7.0 28.3 -7.4Q27.7 -7.8 26.9 -7.8Q26.0 -7.8 25.4 -7.4Q24.8 -7.0 24.5 -6.2Q24.2 -5.4 24.2 -4.4V-4.4Q24.2 -3.4 24.5 -2.6Q24.8 -1.9 25.4 -1.4Q26.0 -1.0 26.9 -1.0Z M38.1 0.2Q37.1 0.2 36.3 -0.1Q35.6 -0.4 35.2 -1.0Q34.7 -1.5 34.7 -2.3L34.7 -2.4H36.0L36.1 -2.3Q36.1 -1.9 36.4 -1.6Q36.6 -1.3 37.1 -1.2Q37.5 -1.0 38.1 -1.0Q38.7 -1.0 39.1 -1.2Q39.6 -1.3 39.8 -1.7Q40.0 -2.0 40.0 -2.4V-2.4Q40.0 -2.9 39.7 -3.2Q39.3 -3.5 38.4 -3.7L37.4 -3.9Q36.6 -4.1 36.0 -4.5Q35.4 -4.8 35.2 -5.3Q34.9 -5.8 34.9 -6.4V-6.4Q34.9 -7.2 35.3 -7.8Q35.7 -8.4 36.4 -8.7Q37.1 -9.0 38.1 -9.0Q39.0 -9.0 39.7 -8.7Q40.4 -8.4 40.8 -7.8Q41.2 -7.3 41.3 -6.6L41.3 -6.5H39.9L39.9 -6.6Q39.9 -6.9 39.6 -7.2Q39.4 -7.5 39.0 -7.7Q38.6 -7.8 38.1 -7.8Q37.6 -7.8 37.2 -7.7Q36.8 -7.5 36.5 -7.2Q36.3 -6.9 36.3 -6.5V-6.5Q36.3 -6.2 36.5 -5.9Q36.6 -5.7 37.0 -5.5Q37.3 -5.3 37.9 -5.2L38.8 -5.0Q39.8 -4.8 40.3 -4.5Q40.9 -4.1 41.2 -3.7Q41.5 -3.2 41.5 -2.5V-2.5Q41.5 -1.7 41.0 -1.1Q40.6 -0.5 39.9 -0.1Q39.1 0.2 38.1 0.2Z M48.5 0.2Q47.5 0.2 46.8 -0.1Q46.0 -0.4 45.6 -1.0Q45.2 -1.5 45.1 -2.3L45.1 -2.4H46.5L46.5 -2.3Q46.5 -1.9 46.8 -1.6Q47.1 -1.3 47.5 -1.2Q48.0 -1.0 48.6 -1.0Q49.1 -1.0 49.6 -1.2Q50.0 -1.3 50.2 -1.7Q50.5 -2.0 50.5 -2.4V-2.4Q50.5 -2.9 50.1 -3.2Q49.7 -3.5 48.8 -3.7L47.9 -3.9Q47.0 -4.1 46.4 -4.5Q45.9 -4.8 45.6 -5.3Q45.3 -5.8 45.3 -6.4V-6.4Q45.3 -7.2 45.7 -7.8Q46.1 -8.4 46.9 -8.7Q47.6 -9.0 48.5 -9.0Q49.5 -9.0 50.2 -8.7Q50.9 -8.4 51.3 -7.8Q51.7 -7.3 51.7 -6.6L51.7 -6.5H50.4L50.4 -6.6Q50.3 -6.9 50.1 -7.2Q49.8 -7.5 49.4 -7.7Q49.0 -7.8 48.5 -7.8Q48.0 -7.8 47.6 -7.7Q47.2 -7.5 47.0 -7.2Q46.7 -6.9 46.7 -6.5V-6.5Q46.7 -6.2 46.9 -5.9Q47.0 -5.7 47.4 -5.5Q47.8 -5.3 48.3 -5.2L49.3 -5.0Q50.2 -4.8 50.8 -4.5Q51.3 -4.1 51.6 -3.7Q51.9 -3.2 51.9 -2.5V-2.5Q51.9 -1.7 51.5 -1.1Q51.1 -0.5 50.3 -0.1Q49.5 0.2 48.5 0.2Z M55.8 -2.9V-4.2H59.9V-2.9Z M64.2 0.0V-8.8H65.8L68.6 -1.8H68.7L71.5 -8.8H73.1V0.0H71.8V-6.4H71.1L72.6 -8.6L69.1 0.0H68.1L64.7 -8.6L66.1 -6.4H65.5V0.0Z M81.3 0.2Q80.0 0.2 79.1 -0.4Q78.2 -0.9 77.7 -2.0Q77.2 -3.0 77.2 -4.4V-4.4Q77.2 -5.8 77.7 -6.9Q78.2 -7.9 79.1 -8.5Q80.0 -9.0 81.3 -9.0Q82.6 -9.0 83.5 -8.5Q84.4 -7.9 84.9 -6.9Q85.4 -5.8 85.4 -4.4V-4.4Q85.4 -3.0 84.9 -2.0Q84.4 -0.9 83.5 -0.4Q82.6 0.2 81.3 0.2ZM81.3 -1.0Q82.1 -1.0 82.7 -1.4Q83.3 -1.9 83.7 -2.6Q84.0 -3.4 84.0 -4.4V-4.4Q84.0 -5.4 83.7 -6.2Q83.3 -7.0 82.7 -7.4Q82.1 -7.8 81.3 -7.8Q80.5 -7.8 79.9 -7.4Q79.3 -7.0 78.9 -6.2Q78.6 -5.4 78.6 -4.4V-4.4Q78.6 -3.4 78.9 -2.6Q79.3 -1.9 79.9 -1.4Q80.5 -1.0 81.3 -1.0Z M89.5 0.0V-8.8H92.7Q94.0 -8.8 95.0 -8.3Q95.9 -7.8 96.4 -6.8Q96.9 -5.8 96.9 -4.4V-4.4Q96.9 -3.0 96.4 -2.0Q95.9 -1.0 95.0 -0.5Q94.1 0.0 92.7 0.0ZM90.9 -1.2H92.6Q93.5 -1.2 94.1 -1.6Q94.8 -2.0 95.1 -2.7Q95.5 -3.4 95.5 -4.4V-4.4Q95.5 -5.4 95.1 -6.1Q94.8 -6.9 94.1 -7.2Q93.5 -7.6 92.6 -7.6H90.9Z M100.3 0.0 103.5 -8.8H104.6V-7.3H104.2L101.8 0.0ZM101.9 -2.4 102.3 -3.5H106.3L106.7 -2.4ZM106.7 0.0 104.3 -7.3V-8.8H105.0L108.2 0.0Z M112.0 0.0V-8.8H113.4V-1.2H117.5V0.0Z M127.2 0.0V-8.8H132.7V-7.6H128.6V-4.8H132.3V-3.7H128.6V0.0Z M140.3 0.2Q139.2 0.2 138.4 -0.2Q137.6 -0.6 137.1 -1.3Q136.7 -2.1 136.7 -3.0V-8.8H138.1V-3.1Q138.1 -2.5 138.4 -2.0Q138.6 -1.6 139.1 -1.3Q139.6 -1.0 140.3 -1.0Q141.0 -1.0 141.5 -1.3Q141.9 -1.6 142.2 -2.0Q142.5 -2.5 142.5 -3.1V-8.8H143.9V-3.0Q143.9 -2.1 143.4 -1.3Q143.0 -0.6 142.2 -0.2Q141.4 0.2 140.3 0.2Z M151.3 0.2Q150.3 0.2 149.6 -0.1Q148.8 -0.4 148.4 -1.0Q148.0 -1.5 147.9 -2.3L147.9 -2.4H149.3L149.3 -2.3Q149.3 -1.9 149.6 -1.6Q149.9 -1.3 150.3 -1.2Q150.8 -1.0 151.4 -1.0Q151.9 -1.0 152.4 -1.2Q152.8 -1.3 153.0 -1.7Q153.3 -2.0 153.3 -2.4V-2.4Q153.3 -2.9 152.9 -3.2Q152.5 -3.5 151.6 -3.7L150.7 -3.9Q149.8 -4.1 149.2 -4.5Q148.7 -4.8 148.4 -5.3Q148.1 -5.8 148.1 -6.4V-6.4Q148.1 -7.2 148.5 -7.8Q148.9 -8.4 149.7 -8.7Q150.4 -9.0 151.3 -9.0Q152.3 -9.0 153.0 -8.7Q153.7 -8.4 154.1 -7.8Q154.5 -7.3 154.5 -6.6L154.5 -6.5H153.2L153.2 -6.6Q153.1 -6.9 152.9 -7.2Q152.6 -7.5 152.2 -7.7Q151.8 -7.8 151.3 -7.8Q150.8 -7.8 150.4 -7.7Q150.0 -7.5 149.8 -7.2Q149.5 -6.9 149.5 -6.5V-6.5Q149.5 -6.2 149.7 -5.9Q149.9 -5.7 150.2 -5.5Q150.6 -5.3 151.1 -5.2L152.1 -5.0Q153.0 -4.8 153.6 -4.5Q154.1 -4.1 154.4 -3.7Q154.7 -3.2 154.7 -2.5V-2.5Q154.7 -1.7 154.3 -1.1Q153.9 -0.5 153.1 -0.1Q152.3 0.2 151.3 0.2Z M158.8 0.0V-8.8H160.1V0.0Z M168.4 0.2Q167.1 0.2 166.2 -0.4Q165.3 -0.9 164.8 -2.0Q164.3 -3.0 164.3 -4.4V-4.4Q164.3 -5.8 164.8 -6.9Q165.3 -7.9 166.2 -8.5Q167.1 -9.0 168.4 -9.0Q169.7 -9.0 170.6 -8.5Q171.5 -7.9 172.0 -6.9Q172.5 -5.8 172.5 -4.4V-4.4Q172.5 -3.0 172.0 -2.0Q171.5 -0.9 170.6 -0.4Q169.7 0.2 168.4 0.2ZM168.4 -1.0Q169.2 -1.0 169.8 -1.4Q170.4 -1.9 170.7 -2.6Q171.1 -3.4 171.1 -4.4V-4.4Q171.1 -5.4 170.7 -6.2Q170.4 -7.0 169.8 -7.4Q169.2 -7.8 168.4 -7.8Q167.6 -7.8 167.0 -7.4Q166.4 -7.0 166.0 -6.2Q165.7 -5.4 165.7 -4.4V-4.4Q165.7 -3.4 166.0 -2.6Q166.3 -1.9 166.9 -1.4Q167.5 -1.0 168.4 -1.0Z M176.6 0.0V-8.8H177.9L182.7 -1.9L181.8 -2.4H182.5V-8.8H183.8V0.0H182.6L177.7 -6.9L178.7 -6.4H178.0V0.0Z M193.3 -2.9V-4.2H203.5V-2.9Z M213.0 0.0V-8.8H218.6V-7.6H214.4V-5.1H218.4V-3.9H214.4V-1.2H218.6V0.0Z M222.8 0.0V-8.8H228.4V-7.6H224.2V-5.1H228.2V-3.9H224.2V-1.2H228.4V0.0Z M236.4 0.2Q235.5 0.2 234.7 -0.1Q234.0 -0.4 233.4 -1.0Q232.9 -1.6 232.6 -2.5Q232.3 -3.3 232.3 -4.4V-4.4Q232.3 -5.8 232.8 -6.9Q233.3 -7.9 234.2 -8.5Q235.2 -9.0 236.4 -9.0Q237.4 -9.0 238.2 -8.7Q239.0 -8.3 239.5 -7.7Q240.0 -7.0 240.1 -6.2L240.2 -6.1H238.8L238.7 -6.2Q238.5 -7.0 237.9 -7.4Q237.3 -7.8 236.4 -7.8Q235.6 -7.8 235.0 -7.4Q234.4 -7.0 234.1 -6.2Q233.7 -5.5 233.7 -4.4V-4.4Q233.7 -3.6 233.9 -3.0Q234.1 -2.4 234.5 -1.9Q234.8 -1.5 235.3 -1.3Q235.8 -1.0 236.4 -1.0Q237.1 -1.0 237.7 -1.3Q238.2 -1.6 238.5 -2.1Q238.8 -2.6 238.8 -3.3L238.8 -3.4H236.6V-4.6H240.2V-3.5Q240.2 -2.6 239.9 -2.0Q239.7 -1.3 239.2 -0.8Q238.7 -0.3 238.0 -0.0Q237.3 0.2 236.4 0.2Z M250.9 -2.7Q250.5 -2.7 250.2 -2.9Q250.0 -3.2 250.0 -3.6Q250.0 -3.9 250.2 -4.2Q250.5 -4.4 250.9 -4.4Q251.3 -4.4 251.5 -4.2Q251.8 -3.9 251.8 -3.6Q251.8 -3.2 251.5 -2.9Q251.3 -2.7 250.9 -2.7Z M261.9 0.0V-8.8H263.3V-5.1H267.8V-8.8H269.2V0.0H267.8V-3.9H263.3V0.0Z M273.6 0.0V-8.8H277.1Q278.0 -8.8 278.7 -8.5Q279.4 -8.1 279.7 -7.5Q280.1 -6.9 280.1 -6.1V-6.1Q280.1 -5.2 279.6 -4.5Q279.2 -3.9 278.4 -3.6L280.3 0.0H278.7L276.9 -3.4Q276.9 -3.4 276.9 -3.4Q276.9 -3.4 276.9 -3.4H275.0V0.0ZM275.0 -4.5H277.0Q277.8 -4.5 278.2 -4.9Q278.6 -5.3 278.6 -6.1V-6.1Q278.6 -6.8 278.2 -7.2Q277.7 -7.6 276.9 -7.6H275.0Z M290.8 -2.7Q290.4 -2.7 290.2 -2.9Q289.9 -3.2 289.9 -3.6Q289.9 -3.9 290.2 -4.2Q290.4 -4.4 290.8 -4.4Q291.2 -4.4 291.5 -4.2Q291.7 -3.9 291.7 -3.6Q291.7 -3.2 291.5 -2.9Q291.2 -2.7 290.8 -2.7Z M305.5 0.2Q304.6 0.2 303.8 -0.1Q303.1 -0.4 302.6 -1.0Q302.0 -1.6 301.7 -2.5Q301.5 -3.3 301.5 -4.4V-4.4Q301.5 -5.8 302.0 -6.9Q302.5 -7.9 303.4 -8.5Q304.3 -9.0 305.5 -9.0Q306.5 -9.0 307.3 -8.7Q308.1 -8.3 308.6 -7.7Q309.1 -7.0 309.3 -6.2L309.3 -6.1H307.9L307.9 -6.2Q307.6 -7.0 307.0 -7.4Q306.4 -7.8 305.5 -7.8Q304.7 -7.8 304.1 -7.4Q303.5 -7.0 303.2 -6.2Q302.9 -5.5 302.9 -4.4V-4.4Q302.9 -3.6 303.1 -3.0Q303.2 -2.4 303.6 -1.9Q303.9 -1.5 304.4 -1.3Q304.9 -1.0 305.6 -1.0Q306.3 -1.0 306.8 -1.3Q307.4 -1.6 307.7 -2.1Q308.0 -2.6 308.0 -3.3L308.0 -3.4H305.7V-4.6H309.3V-3.5Q309.3 -2.6 309.1 -2.0Q308.8 -1.3 308.3 -0.8Q307.8 -0.3 307.1 -0.0Q306.4 0.2 305.5 0.2Z M316.5 0.2Q315.5 0.2 314.7 -0.1Q314.0 -0.4 313.6 -1.0Q313.1 -1.5 313.1 -2.3L313.1 -2.4H314.5L314.5 -2.3Q314.5 -1.9 314.8 -1.6Q315.0 -1.3 315.5 -1.2Q316.0 -1.0 316.5 -1.0Q317.1 -1.0 317.5 -1.2Q318.0 -1.3 318.2 -1.7Q318.4 -2.0 318.4 -2.4V-2.4Q318.4 -2.9 318.1 -3.2Q317.7 -3.5 316.8 -3.7L315.8 -3.9Q315.0 -4.1 314.4 -4.5Q313.8 -4.8 313.6 -5.3Q313.3 -5.8 313.3 -6.4V-6.4Q313.3 -7.2 313.7 -7.8Q314.1 -8.4 314.8 -8.7Q315.6 -9.0 316.5 -9.0Q317.4 -9.0 318.1 -8.7Q318.8 -8.4 319.2 -7.8Q319.6 -7.3 319.7 -6.6L319.7 -6.5H318.3L318.3 -6.6Q318.3 -6.9 318.0 -7.2Q317.8 -7.5 317.4 -7.7Q317.0 -7.8 316.5 -7.8Q316.0 -7.8 315.6 -7.7Q315.2 -7.5 314.9 -7.2Q314.7 -6.9 314.7 -6.5V-6.5Q314.7 -6.2 314.9 -5.9Q315.0 -5.7 315.4 -5.5Q315.7 -5.3 316.3 -5.2L317.2 -5.0Q318.2 -4.8 318.7 -4.5Q319.3 -4.1 319.6 -3.7Q319.9 -3.2 319.9 -2.5V-2.5Q319.9 -1.7 319.4 -1.1Q319.0 -0.5 318.3 -0.1Q317.5 0.2 316.5 0.2Z M323.9 0.0V-8.8H327.4Q328.3 -8.8 329.0 -8.5Q329.6 -8.1 330.0 -7.5Q330.3 -6.9 330.3 -6.1V-6.1Q330.3 -5.2 329.9 -4.5Q329.5 -3.9 328.7 -3.6L330.6 0.0H329.0L327.2 -3.4Q327.2 -3.4 327.2 -3.4Q327.2 -3.4 327.1 -3.4H325.3V0.0ZM325.3 -4.5H327.3Q328.1 -4.5 328.5 -4.9Q328.9 -5.3 328.9 -6.1V-6.1Q328.9 -6.8 328.5 -7.2Q328.0 -7.6 327.2 -7.6H325.3Z M341.1 -2.7Q340.7 -2.7 340.5 -2.9Q340.2 -3.2 340.2 -3.6Q340.2 -3.9 340.5 -4.2Q340.7 -4.4 341.1 -4.4Q341.5 -4.4 341.7 -4.2Q342.0 -3.9 342.0 -3.6Q342.0 -3.2 341.7 -2.9Q341.5 -2.7 341.1 -2.7Z M351.4 0.0 354.6 -8.8H355.7V-7.3H355.3L352.9 0.0ZM353.0 -2.4 353.3 -3.5H357.4L357.7 -2.4ZM357.8 0.0 355.4 -7.3V-8.8H356.1L359.3 0.0Z M366.7 0.2Q365.5 0.2 364.7 -0.2Q363.9 -0.6 363.5 -1.3Q363.1 -2.1 363.1 -3.0V-8.8H364.5V-3.1Q364.5 -2.5 364.7 -2.0Q365.0 -1.6 365.5 -1.3Q366.0 -1.0 366.7 -1.0Q367.3 -1.0 367.8 -1.3Q368.3 -1.6 368.6 -2.0Q368.8 -2.5 368.8 -3.1V-8.8H370.2V-3.0Q370.2 -2.1 369.8 -1.3Q369.4 -0.6 368.6 -0.2Q367.8 0.2 366.7 0.2Z M374.7 0.0V-8.8H377.9Q379.2 -8.8 380.1 -8.3Q381.1 -7.8 381.5 -6.8Q382.0 -5.8 382.0 -4.4V-4.4Q382.0 -3.0 381.5 -2.0Q381.1 -1.0 380.1 -0.5Q379.2 0.0 377.9 0.0ZM376.1 -1.2H377.7Q378.6 -1.2 379.3 -1.6Q379.9 -2.0 380.3 -2.7Q380.6 -3.4 380.6 -4.4V-4.4Q380.6 -5.4 380.3 -6.1Q379.9 -6.9 379.3 -7.2Q378.6 -7.6 377.7 -7.6H376.1Z M386.2 0.0V-8.8H387.5V0.0Z M395.8 0.2Q394.5 0.2 393.6 -0.4Q392.7 -0.9 392.2 -2.0Q391.7 -3.0 391.7 -4.4V-4.4Q391.7 -5.8 392.2 -6.9Q392.7 -7.9 393.6 -8.5Q394.5 -9.0 395.8 -9.0Q397.1 -9.0 398.0 -8.5Q398.9 -7.9 399.4 -6.9Q399.9 -5.8 399.9 -4.4V-4.4Q399.9 -3.0 399.4 -2.0Q398.9 -0.9 398.0 -0.4Q397.1 0.2 395.8 0.2ZM395.8 -1.0Q396.6 -1.0 397.2 -1.4Q397.8 -1.9 398.2 -2.6Q398.5 -3.4 398.5 -4.4V-4.4Q398.5 -5.4 398.1 -6.2Q397.8 -7.0 397.2 -7.4Q396.6 -7.8 395.8 -7.8Q395.0 -7.8 394.4 -7.4Q393.8 -7.0 393.4 -6.2Q393.1 -5.4 393.1 -4.4V-4.4Q393.1 -3.4 393.4 -2.6Q393.7 -1.9 394.3 -1.4Q394.9 -1.0 395.8 -1.0Z M410.5 -2.7Q410.2 -2.7 409.9 -2.9Q409.6 -3.2 409.6 -3.6Q409.6 -3.9 409.9 -4.2Q410.2 -4.4 410.5 -4.4Q410.9 -4.4 411.2 -4.2Q411.4 -3.9 411.4 -3.6Q411.4 -3.2 411.2 -2.9Q410.9 -2.7 410.5 -2.7Z M423.8 0.0V-7.6H421.0V-8.8H427.9V-7.6H425.2V0.0Z M431.9 0.0V-8.8H437.5V-7.6H433.3V-5.1H437.3V-3.9H433.3V-1.2H437.5V0.0Z M441.2 0.0 444.4 -4.9 444.1 -3.8V-4.5L441.2 -8.8H442.8L445.0 -5.4H445.7L444.7 -4.9L447.2 -8.8H448.8L445.8 -4.4V-3.8L445.5 -4.9L448.8 0.0H447.1L444.9 -3.3H444.3L445.2 -3.9L442.7 0.0Z M455.0 0.0V-7.6H452.2V-8.8H459.1V-7.6H456.4V0.0Z" /></g><animate attributeName="opacity" from="0" to="1" dur="1.1s" begin="0.8s" fill="freeze"/></g>
  </g>
</svg>
