<svg xmlns="http://www.w3.org/2000/svg" viewBox="0 0 1200 280" width="1200" height="280" role="img" aria-label="QEbellavita - neural workflows, closed-loop prediction, cross-modal fusion">
  <defs>
    <linearGradient id="trace" x1="0" y1="0" x2="1" y2="0">
      <stop offset="0%" stop-color="#2563EB"/><stop offset="55%" stop-color="#0D9488"/><stop offset="100%" stop-color="#2563EB"/>
    </linearGradient>
    <linearGradient id="fade" x1="0" y1="0" x2="1" y2="0">
      <stop offset="0%" stop-color="#0D1117" stop-opacity="1"/><stop offset="10%" stop-color="#0D1117" stop-opacity="0"/>
      <stop offset="90%" stop-color="#0D1117" stop-opacity="0"/><stop offset="100%" stop-color="#0D1117" stop-opacity="1"/>
    </linearGradient>
    <filter id="glow" x="-50%" y="-50%" width="200%" height="200%">
      <feGaussianBlur stdDeviation="4" result="b"/><feMerge><feMergeNode in="b"/><feMergeNode in="SourceGraphic"/></feMerge>
    </filter>
    <clipPath id="card"><rect x="0" y="0" width="1200" height="280" rx="14"/></clipPath>
  </defs>
  <g clip-path="url(#card)">
    <rect width="1200" height="280" fill="#0D1117"/>
    <g stroke="#2563EB" stroke-opacity="0.07" stroke-width="1"><line x1="0" y1="0" x2="0" y2="280"/><line x1="60" y1="0" x2="60" y2="280"/><line x1="120" y1="0" x2="120" y2="280"/><line x1="180" y1="0" x2="180" y2="280"/><line x1="240" y1="0" x2="240" y2="280"/><line x1="300" y1="0" x2="300" y2="280"/><line x1="360" y1="0" x2="360" y2="280"/><line x1="420" y1="0" x2="420" y2="280"/><line x1="480" y1="0" x2="480" y2="280"/><line x1="540" y1="0" x2="540" y2="280"/><line x1="600" y1="0" x2="600" y2="280"/><line x1="660" y1="0" x2="660" y2="280"/><line x1="720" y1="0" x2="720" y2="280"/><line x1="780" y1="0" x2="780" y2="280"/><line x1="840" y1="0" x2="840" y2="280"/><line x1="900" y1="0" x2="900" y2="280"/><line x1="960" y1="0" x2="960" y2="280"/><line x1="1020" y1="0" x2="1020" y2="280"/><line x1="1080" y1="0" x2="1080" y2="280"/><line x1="1140" y1="0" x2="1140" y2="280"/><line x1="1200" y1="0" x2="1200" y2="280"/><line x1="0" y1="0" x2="1200" y2="0"/><line x1="0" y1="56" x2="1200" y2="56"/><line x1="0" y1="112" x2="1200" y2="112"/><line x1="0" y1="168" x2="1200" y2="168"/><line x1="0" y1="224" x2="1200" y2="224"/><line x1="0" y1="280" x2="1200" y2="280"/></g>
    <path d="M 0.0 224.0 Q 4.6 223.6 6.9 223.2 Q 9.3 222.8 11.6 220.9 Q 13.9 219.0 16.2 213.5 Q 18.5 208.1 20.8 198.9 Q 23.2 189.7 25.5 180.7 Q 27.8 171.6 30.1 169.8 Q 32.4 168.0 34.7 175.4 Q 37.1 182.8 39.4 192.6 Q 41.7 202.4 44.0 208.9 Q 46.3 215.5 48.6 219.1 Q 51.0 222.7 53.3 223.7 Q 55.6 224.8 57.9 222.0 Q 60.2 219.2 62.5 214.5 Q 64.9 209.8 67.2 206.9 Q 69.5 204.0 71.8 204.2 Q 74.1 204.3 76.4 206.0 Q 78.8 207.7 81.1 210.7 Q 83.4 213.7 85.7 215.9 Q 88.0 218.1 90.3 219.5 Q 92.7 220.9 95.0 221.2 Q 97.3 221.5 99.6 221.8 Q 101.9 222.2 104.2 221.9 Q 106.6 221.7 108.9 221.6 Q 111.2 221.6 113.5 221.7 Q 115.8 221.7 118.1 222.0 Q 120.5 222.4 122.8 222.0 Q 125.1 221.7 127.4 221.5 Q 129.7 221.4 132.0 221.4 Q 134.4 221.3 136.7 221.5 Q 139.0 221.8 141.3 221.6 Q 143.6 221.4 145.9 221.4 Q 148.3 221.5 150.6 221.4 Q 152.9 221.4 155.2 221.0 Q 157.5 220.7 159.8 221.0 Q 162.2 221.3 164.5 221.1 Q 166.8 221.0 169.1 220.8 Q 171.4 220.6 173.7 220.7 Q 176.1 220.9 178.4 220.3 Q 180.7 219.8 183.0 217.8 Q 185.3 215.8 187.6 210.4 Q 190.0 205.1 192.3 196.1 Q 194.6 187.1 196.9 178.0 Q 199.2 168.9 201.5 167.2 Q 203.9 165.4 206.2 173.0 Q 208.5 180.7 210.8 190.1 Q 213.1 199.5 215.4 206.4 Q 217.8 213.3 220.1 217.1 Q 222.4 220.8 224.7 221.4 Q 227.0 222.0 229.3 219.3 Q 231.7 216.6 234.0 212.4 Q 236.3 208.3 238.6 205.3 Q 240.9 202.4 243.2 202.2 Q 245.6 201.9 247.9 204.0 Q 250.2 206.0 252.5 208.6 Q 254.8 211.3 257.1 213.8 Q 259.5 216.2 261.8 217.5 Q 264.1 218.8 266.4 219.3 Q 268.7 219.7 271.0 220.3 Q 273.4 220.9 275.7 220.8 Q 278.0 220.7 280.3 220.9 Q 282.6 221.0 284.9 220.9 Q 287.3 220.8 289.6 221.1 Q 291.9 221.3 294.2 221.2 Q 296.5 221.2 298.8 221.1 Q 301.2 221.1 303.5 220.9 Q 305.8 220.8 308.1 220.8 Q 310.4 220.7 312.7 221.2 Q 315.1 221.6 317.4 221.6 Q 319.7 221.5 322.0 221.3 Q 324.3 221.1 326.6 221.6 Q 329.0 222.0 331.3 221.8 Q 333.6 221.6 335.9 221.6 Q 338.2 221.5 340.5 221.3 Q 342.9 221.1 345.2 221.2 Q 347.5 221.2 349.8 221.0 Q 352.1 220.7 354.4 218.8 Q 356.8 216.9 359.1 211.6 Q 361.4 206.3 363.7 196.9 Q 366.0 187.4 368.3 178.9 Q 370.7 170.4 373.0 168.9 Q 375.3 167.4 377.6 174.5 Q 379.9 181.6 382.2 191.5 Q 384.6 201.4 386.9 208.3 Q 389.2 215.2 391.5 219.0 Q 393.8 222.8 396.1 223.7 Q 398.5 224.7 400.8 221.9 Q 403.1 219.1 405.4 214.4 Q 407.7 209.6 410.0 207.0 Q 412.4 204.5 414.7 204.5 Q 417.0 204.5 419.3 206.3 Q 421.6 208.2 423.9 211.1 Q 426.3 214.1 428.6 216.3 Q 430.9 218.5 433.2 220.1 Q 435.5 221.7 437.8 222.2 Q 440.2 222.8 442.5 223.4 Q 444.8 223.9 447.1 223.8 Q 449.4 223.6 451.7 224.0 Q 454.1 224.4 456.4 224.5 Q 458.7 224.6 461.0 224.4 Q 463.3 224.1 465.6 224.3 Q 468.0 224.4 470.3 224.3 Q 472.6 224.2 474.9 223.9 Q 477.2 223.6 479.5 224.2 Q 481.9 224.7 484.2 224.8 Q 486.5 224.8 488.8 224.7 Q 491.1 224.6 493.4 224.6 Q 495.8 224.6 498.1 224.8 Q 500.4 224.9 502.7 225.0 Q 505.0 225.0 507.3 224.9 Q 509.7 224.8 512.0 224.9 Q 514.3 225.0 516.6 225.2 Q 518.9 225.5 521.2 224.9 Q 523.6 224.3 525.9 222.4 Q 528.2 220.5 530.5 215.4 Q 532.8 210.3 535.1 200.9 Q 537.5 191.5 539.8 182.9 Q 542.1 174.3 544.4 172.5 Q 546.7 170.7 549.0 178.0 Q 551.4 185.3 553.7 195.2 Q 556.0 205.1 558.3 212.1 Q 560.6 219.0 562.9 222.6 Q 565.3 226.2 567.6 227.6 Q 569.9 229.0 572.2 226.0 Q 574.5 223.0 576.8 218.2 Q 579.2 213.5 581.5 211.2 Q 583.8 209.0 586.1 208.4 Q 588.4 207.7 590.7 210.1 Q 593.1 212.5 595.4 214.9 Q 597.7 217.3 600.0 219.9 Q 602.3 222.5 604.6 223.7 Q 606.9 224.8 609.3 225.6 Q 611.6 226.3 613.9 226.8 Q 616.2 227.3 618.5 226.9 Q 620.8 226.5 623.2 226.5 Q 625.5 226.5 627.8 226.8 Q 630.1 227.1 632.4 227.1 Q 634.7 227.2 637.1 227.2 Q 639.4 227.2 641.7 227.4 Q 644.0 227.5 646.3 227.2 Q 648.6 226.8 651.0 227.1 Q 653.3 227.4 655.6 227.4 Q 657.9 227.3 660.2 227.4 Q 662.5 227.6 664.9 227.5 Q 667.2 227.5 669.5 227.6 Q 671.8 227.8 674.1 227.3 Q 676.4 226.9 678.8 227.2 Q 681.1 227.4 683.4 227.2 Q 685.7 227.0 688.0 227.1 Q 690.3 227.2 692.7 226.8 Q 695.0 226.5 697.3 224.5 Q 699.6 222.5 701.9 217.2 Q 704.2 211.9 706.6 202.6 Q 708.9 193.3 711.2 184.5 Q 713.5 175.7 715.8 174.1 Q 718.1 172.6 720.5 179.9 Q 722.8 187.2 725.1 196.9 Q 727.4 206.6 729.7 213.0 Q 732.0 219.4 734.4 223.4 Q 736.7 227.4 739.0 228.5 Q 741.3 229.6 743.6 226.4 Q 745.9 223.3 748.3 218.6 Q 750.6 213.8 752.9 211.6 Q 755.2 209.3 757.5 208.9 Q 759.8 208.5 762.2 210.5 Q 764.5 212.5 766.8 215.4 Q 769.1 218.3 771.4 220.2 Q 773.7 222.1 776.1 223.6 Q 778.4 225.1 780.7 225.6 Q 783.0 226.2 785.3 226.5 Q 787.6 226.8 790.0 226.6 Q 792.3 226.4 794.6 226.6 Q 796.9 226.7 799.2 226.6 Q 801.5 226.5 803.9 226.6 Q 806.2 226.8 808.5 226.8 Q 810.8 226.7 813.1 226.3 Q 815.4 225.8 817.8 226.1 Q 820.1 226.3 822.4 226.2 Q 824.7 226.0 827.0 226.0 Q 829.3 226.0 831.7 226.0 Q 834.0 226.1 836.3 226.0 Q 838.6 226.0 840.9 225.8 Q 843.2 225.5 845.6 225.6 Q 847.9 225.7 850.2 225.7 Q 852.5 225.6 854.8 225.5 Q 857.1 225.4 859.5 225.1 Q 861.8 224.8 864.1 224.4 Q 866.4 223.9 868.7 222.0 Q 871.0 220.0 873.4 214.8 Q 875.7 209.6 878.0 200.5 Q 880.3 191.4 882.6 182.1 Q 884.9 172.8 887.3 171.2 Q 889.6 169.6 891.9 176.9 Q 894.2 184.2 896.5 193.8 Q 898.8 203.5 901.2 210.2 Q 903.5 216.9 905.8 220.5 Q 908.1 224.0 910.4 225.0 Q 912.7 226.0 915.1 223.3 Q 917.4 220.5 919.7 215.6 Q 922.0 210.7 924.3 208.4 Q 926.6 206.1 929.0 205.6 Q 931.3 205.0 933.6 206.9 Q 935.9 208.8 938.2 211.5 Q 940.5 214.1 942.9 216.3 Q 945.2 218.4 947.5 219.8 Q 949.8 221.2 952.1 222.2 Q 954.4 223.2 956.8 223.4 Q 959.1 223.6 961.4 223.2 Q 963.7 222.8 966.0 223.1 Q 968.3 223.3 970.7 223.1 Q 973.0 222.9 975.3 222.7 Q 977.6 222.5 979.9 222.9 Q 982.2 223.2 984.6 223.3 Q 986.9 223.3 989.2 222.8 Q 991.5 222.4 993.8 222.4 Q 996.1 222.4 998.5 222.4 Q 1000.8 222.4 1003.1 222.3 Q 1005.4 222.2 1007.7 222.3 Q 1010.0 222.4 1012.4 222.5 Q 1014.7 222.5 1017.0 222.3 Q 1019.3 222.0 1021.6 222.1 Q 1023.9 222.2 1026.3 222.3 Q 1028.6 222.3 1030.9 221.9 Q 1033.2 221.4 1035.5 221.0 Q 1037.8 220.5 1040.2 218.5 Q 1042.5 216.4 1044.8 211.3 Q 1047.1 206.2 1049.4 196.9 Q 1051.7 187.6 1054.1 178.7 Q 1056.4 169.9 1058.7 168.3 Q 1061.0 166.7 1063.3 173.7 Q 1065.6 180.6 1068.0 190.6 Q 1070.3 200.5 1072.6 207.1 Q 1074.9 213.7 1077.2 217.3 Q 1079.5 220.9 1081.9 221.6 Q 1084.2 222.4 1086.5 220.0 Q 1088.8 217.7 1091.1 212.8 Q 1093.4 207.8 1095.8 205.3 Q 1098.1 202.7 1100.4 202.5 Q 1102.7 202.3 1105.0 204.4 Q 1107.3 206.6 1109.7 209.2 Q 1112.0 211.8 1114.3 213.9 Q 1116.6 216.0 1118.9 217.5 Q 1121.2 219.0 1123.6 219.6 Q 1125.9 220.2 1128.2 220.4 Q 1130.5 220.7 1132.8 220.5 Q 1135.1 220.3 1137.5 220.5 Q 1139.8 220.7 1142.1 221.0 Q 1144.4 221.4 1146.7 221.1 Q 1149.0 220.9 1151.4 221.1 Q 1153.7 221.3 1156.0 221.5 Q 1158.3 221.7 1160.6 221.3 Q 1162.9 220.8 1165.3 220.5 Q 1167.6 220.2 1169.9 220.4 Q 1172.2 220.7 1174.5 220.9 Q 1176.8 221.1 1179.2 221.0 Q 1181.5 221.0 1183.8 220.7 Q 1186.1 220.3 1188.4 220.5 Q 1190.7 220.7 1193.1 220.7 Q 1195.4 220.8 1197.7 220.8 T 1200.0 220.8" fill="none" stroke="#2563EB" stroke-opacity="0.20" stroke-width="2" stroke-linecap="round" stroke-linejoin="round"/>
    <path d="M 0.0 224.0 Q 4.6 223.6 6.9 223.2 Q 9.3 222.8 11.6 220.9 Q 13.9 219.0 16.2 213.5 Q 18.5 208.1 20.8 198.9 Q 23.2 189.7 25.5 180.7 Q 27.8 171.6 30.1 169.8 Q 32.4 168.0 34.7 175.4 Q 37.1 182.8 39.4 192.6 Q 41.7 202.4 44.0 208.9 Q 46.3 215.5 48.6 219.1 Q 51.0 222.7 53.3 223.7 Q 55.6 224.8 57.9 222.0 Q 60.2 219.2 62.5 214.5 Q 64.9 209.8 67.2 206.9 Q 69.5 204.0 71.8 204.2 Q 74.1 204.3 76.4 206.0 Q 78.8 207.7 81.1 210.7 Q 83.4 213.7 85.7 215.9 Q 88.0 218.1 90.3 219.5 Q 92.7 220.9 95.0 221.2 Q 97.3 221.5 99.6 221.8 Q 101.9 222.2 104.2 221.9 Q 106.6 221.7 108.9 221.6 Q 111.2 221.6 113.5 221.7 Q 115.8 221.7 118.1 222.0 Q 120.5 222.4 122.8 222.0 Q 125.1 221.7 127.4 221.5 Q 129.7 221.4 132.0 221.4 Q 134.4 221.3 136.7 221.5 Q 139.0 221.8 141.3 221.6 Q 143.6 221.4 145.9 221.4 Q 148.3 221.5 150.6 221.4 Q 152.9 221.4 155.2 221.0 Q 157.5 220.7 159.8 221.0 Q 162.2 221.3 164.5 221.1 Q 166.8 221.0 169.1 220.8 Q 171.4 220.6 173.7 220.7 Q 176.1 220.9 178.4 220.3 Q 180.7 219.8 183.0 217.8 Q 185.3 215.8 187.6 210.4 Q 190.0 205.1 192.3 196.1 Q 194.6 187.1 196.9 178.0 Q 199.2 168.9 201.5 167.2 Q 203.9 165.4 206.2 173.0 Q 208.5 180.7 210.8 190.1 Q 213.1 199.5 215.4 206.4 Q 217.8 213.3 220.1 217.1 Q 222.4 220.8 224.7 221.4 Q 227.0 222.0 229.3 219.3 Q 231.7 216.6 234.0 212.4 Q 236.3 208.3 238.6 205.3 Q 240.9 202.4 243.2 202.2 Q 245.6 201.9 247.9 204.0 Q 250.2 206.0 252.5 208.6 Q 254.8 211.3 257.1 213.8 Q 259.5 216.2 261.8 217.5 Q 264.1 218.8 266.4 219.3 Q 268.7 219.7 271.0 220.3 Q 273.4 220.9 275.7 220.8 Q 278.0 220.7 280.3 220.9 Q 282.6 221.0 284.9 220.9 Q 287.3 220.8 289.6 221.1 Q 291.9 221.3 294.2 221.2 Q 296.5 221.2 298.8 221.1 Q 301.2 221.1 303.5 220.9 Q 305.8 220.8 308.1 220.8 Q 310.4 220.7 312.7 221.2 Q 315.1 221.6 317.4 221.6 Q 319.7 221.5 322.0 221.3 Q 324.3 221.1 326.6 221.6 Q 329.0 222.0 331.3 221.8 Q 333.6 221.6 335.9 221.6 Q 338.2 221.5 340.5 221.3 Q 342.9 221.1 345.2 221.2 Q 347.5 221.2 349.8 221.0 Q 352.1 220.7 354.4 218.8 Q 356.8 216.9 359.1 211.6 Q 361.4 206.3 363.7 196.9 Q 366.0 187.4 368.3 178.9 Q 370.7 170.4 373.0 168.9 Q 375.3 167.4 377.6 174.5 Q 379.9 181.6 382.2 191.5 Q 384.6 201.4 386.9 208.3 Q 389.2 215.2 391.5 219.0 Q 393.8 222.8 396.1 223.7 Q 398.5 224.7 400.8 221.9 Q 403.1 219.1 405.4 214.4 Q 407.7 209.6 410.0 207.0 Q 412.4 204.5 414.7 204.5 Q 417.0 204.5 419.3 206.3 Q 421.6 208.2 423.9 211.1 Q 426.3 214.1 428.6 216.3 Q 430.9 218.5 433.2 220.1 Q 435.5 221.7 437.8 222.2 Q 440.2 222.8 442.5 223.4 Q 444.8 223.9 447.1 223.8 Q 449.4 223.6 451.7 224.0 Q 454.1 224.4 456.4 224.5 Q 458.7 224.6 461.0 224.4 Q 463.3 224.1 465.6 224.3 Q 468.0 224.4 470.3 224.3 Q 472.6 224.2 474.9 223.9 Q 477.2 223.6 479.5 224.2 Q 481.9 224.7 484.2 224.8 Q 486.5 224.8 488.8 224.7 Q 491.1 224.6 493.4 224.6 Q 495.8 224.6 498.1 224.8 Q 500.4 224.9 502.7 225.0 Q 505.0 225.0 507.3 224.9 Q 509.7 224.8 512.0 224.9 Q 514.3 225.0 516.6 225.2 Q 518.9 225.5 521.2 224.9 Q 523.6 224.3 525.9 222.4 Q 528.2 220.5 530.5 215.4 Q 532.8 210.3 535.1 200.9 Q 537.5 191.5 539.8 182.9 Q 542.1 174.3 544.4 172.5 Q 546.7 170.7 549.0 178.0 Q 551.4 185.3 553.7 195.2 Q 556.0 205.1 558.3 212.1 Q 560.6 219.0 562.9 222.6 Q 565.3 226.2 567.6 227.6 Q 569.9 229.0 572.2 226.0 Q 574.5 223.0 576.8 218.2 Q 579.2 213.5 581.5 211.2 Q 583.8 209.0 586.1 208.4 Q 588.4 207.7 590.7 210.1 Q 593.1 212.5 595.4 214.9 Q 597.7 217.3 600.0 219.9 Q 602.3 222.5 604.6 223.7 Q 606.9 224.8 609.3 225.6 Q 611.6 226.3 613.9 226.8 Q 616.2 227.3 618.5 226.9 Q 620.8 226.5 623.2 226.5 Q 625.5 226.5 627.8 226.8 Q 630.1 227.1 632.4 227.1 Q 634.7 227.2 637.1 227.2 Q 639.4 227.2 641.7 227.4 Q 644.0 227.5 646.3 227.2 Q 648.6 226.8 651.0 227.1 Q 653.3 227.4 655.6 227.4 Q 657.9 227.3 660.2 227.4 Q 662.5 227.6 664.9 227.5 Q 667.2 227.5 669.5 227.6 Q 671.8 227.8 674.1 227.3 Q 676.4 226.9 678.8 227.2 Q 681.1 227.4 683.4 227.2 Q 685.7 227.0 688.0 227.1 Q 690.3 227.2 692.7 226.8 Q 695.0 226.5 697.3 224.5 Q 699.6 222.5 701.9 217.2 Q 704.2 211.9 706.6 202.6 Q 708.9 193.3 711.2 184.5 Q 713.5 175.7 715.8 174.1 Q 718.1 172.6 720.5 179.9 Q 722.8 187.2 725.1 196.9 Q 727.4 206.6 729.7 213.0 Q 732.0 219.4 734.4 223.4 Q 736.7 227.4 739.0 228.5 Q 741.3 229.6 743.6 226.4 Q 745.9 223.3 748.3 218.6 Q 750.6 213.8 752.9 211.6 Q 755.2 209.3 757.5 208.9 Q 759.8 208.5 762.2 210.5 Q 764.5 212.5 766.8 215.4 Q 769.1 218.3 771.4 220.2 Q 773.7 222.1 776.1 223.6 Q 778.4 225.1 780.7 225.6 Q 783.0 226.2 785.3 226.5 Q 787.6 226.8 790.0 226.6 Q 792.3 226.4 794.6 226.6 Q 796.9 226.7 799.2 226.6 Q 801.5 226.5 803.9 226.6 Q 806.2 226.8 808.5 226.8 Q 810.8 226.7 813.1 226.3 Q 815.4 225.8 817.8 226.1 Q 820.1 226.3 822.4 226.2 Q 824.7 226.0 827.0 226.0 Q 829.3 226.0 831.7 226.0 Q 834.0 226.1 836.3 226.0 Q 838.6 226.0 840.9 225.8 Q 843.2 225.5 845.6 225.6 Q 847.9 225.7 850.2 225.7 Q 852.5 225.6 854.8 225.5 Q 857.1 225.4 859.5 225.1 Q 861.8 224.8 864.1 224.4 Q 866.4 223.9 868.7 222.0 Q 871.0 220.0 873.4 214.8 Q 875.7 209.6 878.0 200.5 Q 880.3 191.4 882.6 182.1 Q 884.9 172.8 887.3 171.2 Q 889.6 169.6 891.9 176.9 Q 894.2 184.2 896.5 193.8 Q 898.8 203.5 901.2 210.2 Q 903.5 216.9 905.8 220.5 Q 908.1 224.0 910.4 225.0 Q 912.7 226.0 915.1 223.3 Q 917.4 220.5 919.7 215.6 Q 922.0 210.7 924.3 208.4 Q 926.6 206.1 929.0 205.6 Q 931.3 205.0 933.6 206.9 Q 935.9 208.8 938.2 211.5 Q 940.5 214.1 942.9 216.3 Q 945.2 218.4 947.5 219.8 Q 949.8 221.2 952.1 222.2 Q 954.4 223.2 956.8 223.4 Q 959.1 223.6 961.4 223.2 Q 963.7 222.8 966.0 223.1 Q 968.3 223.3 970.7 223.1 Q 973.0 222.9 975.3 222.7 Q 977.6 222.5 979.9 222.9 Q 982.2 223.2 984.6 223.3 Q 986.9 223.3 989.2 222.8 Q 991.5 222.4 993.8 222.4 Q 996.1 222.4 998.5 222.4 Q 1000.8 222.4 1003.1 222.3 Q 1005.4 222.2 1007.7 222.3 Q 1010.0 222.4 1012.4 222.5 Q 1014.7 222.5 1017.0 222.3 Q 1019.3 222.0 1021.6 222.1 Q 1023.9 222.2 1026.3 222.3 Q 1028.6 222.3 1030.9 221.9 Q 1033.2 221.4 1035.5 221.0 Q 1037.8 220.5 1040.2 218.5 Q 1042.5 216.4 1044.8 211.3 Q 1047.1 206.2 1049.4 196.9 Q 1051.7 187.6 1054.1 178.7 Q 1056.4 169.9 1058.7 168.3 Q 1061.0 166.7 1063.3 173.7 Q 1065.6 180.6 1068.0 190.6 Q 1070.3 200.5 1072.6 207.1 Q 1074.9 213.7 1077.2 217.3 Q 1079.5 220.9 1081.9 221.6 Q 1084.2 222.4 1086.5 220.0 Q 1088.8 217.7 1091.1 212.8 Q 1093.4 207.8 1095.8 205.3 Q 1098.1 202.7 1100.4 202.5 Q 1102.7 202.3 1105.0 204.4 Q 1107.3 206.6 1109.7 209.2 Q 1112.0 211.8 1114.3 213.9 Q 1116.6 216.0 1118.9 217.5 Q 1121.2 219.0 1123.6 219.6 Q 1125.9 220.2 1128.2 220.4 Q 1130.5 220.7 1132.8 220.5 Q 1135.1 220.3 1137.5 220.5 Q 1139.8 220.7 1142.1 221.0 Q 1144.4 221.4 1146.7 221.1 Q 1149.0 220.9 1151.4 221.1 Q 1153.7 221.3 1156.0 221.5 Q 1158.3 221.7 1160.6 221.3 Q 1162.9 220.8 1165.3 220.5 Q 1167.6 220.2 1169.9 220.4 Q 1172.2 220.7 1174.5 220.9 Q 1176.8 221.1 1179.2 221.0 Q 1181.5 221.0 1183.8 220.7 Q 1186.1 220.3 1188.4 220.5 Q 1190.7 220.7 1193.1 220.7 Q 1195.4 220.8 1197.7 220.8 T 1200.0 220.8" fill="none" stroke="url(#trace)" stroke-width="2.6" stroke-linecap="round" stroke-linejoin="round"
          filter="url(#glow)" stroke-dasharray="340 1871" stroke-dashoffset="2211">
      <animate attributeName="stroke-dashoffset" from="2211" to="0" dur="7.0s" repeatCount="indefinite"/>
    </path>
    <circle r="4.5" fill="#0D9488" filter="url(#glow)">
      <animateMotion dur="5.92s" repeatCount="indefinite" path="M 0.0 224.0 Q 4.6 223.6 6.9 223.2 Q 9.3 222.8 11.6 220.9 Q 13.9 219.0 16.2 213.5 Q 18.5 208.1 20.8 198.9 Q 23.2 189.7 25.5 180.7 Q 27.8 171.6 30.1 169.8 Q 32.4 168.0 34.7 175.4 Q 37.1 182.8 39.4 192.6 Q 41.7 202.4 44.0 208.9 Q 46.3 215.5 48.6 219.1 Q 51.0 222.7 53.3 223.7 Q 55.6 224.8 57.9 222.0 Q 60.2 219.2 62.5 214.5 Q 64.9 209.8 67.2 206.9 Q 69.5 204.0 71.8 204.2 Q 74.1 204.3 76.4 206.0 Q 78.8 207.7 81.1 210.7 Q 83.4 213.7 85.7 215.9 Q 88.0 218.1 90.3 219.5 Q 92.7 220.9 95.0 221.2 Q 97.3 221.5 99.6 221.8 Q 101.9 222.2 104.2 221.9 Q 106.6 221.7 108.9 221.6 Q 111.2 221.6 113.5 221.7 Q 115.8 221.7 118.1 222.0 Q 120.5 222.4 122.8 222.0 Q 125.1 221.7 127.4 221.5 Q 129.7 221.4 132.0 221.4 Q 134.4 221.3 136.7 221.5 Q 139.0 221.8 141.3 221.6 Q 143.6 221.4 145.9 221.4 Q 148.3 221.5 150.6 221.4 Q 152.9 221.4 155.2 221.0 Q 157.5 220.7 159.8 221.0 Q 162.2 221.3 164.5 221.1 Q 166.8 221.0 169.1 220.8 Q 171.4 220.6 173.7 220.7 Q 176.1 220.9 178.4 220.3 Q 180.7 219.8 183.0 217.8 Q 185.3 215.8 187.6 210.4 Q 190.0 205.1 192.3 196.1 Q 194.6 187.1 196.9 178.0 Q 199.2 168.9 201.5 167.2 Q 203.9 165.4 206.2 173.0 Q 208.5 180.7 210.8 190.1 Q 213.1 199.5 215.4 206.4 Q 217.8 213.3 220.1 217.1 Q 222.4 220.8 224.7 221.4 Q 227.0 222.0 229.3 219.3 Q 231.7 216.6 234.0 212.4 Q 236.3 208.3 238.6 205.3 Q 240.9 202.4 243.2 202.2 Q 245.6 201.9 247.9 204.0 Q 250.2 206.0 252.5 208.6 Q 254.8 211.3 257.1 213.8 Q 259.5 216.2 261.8 217.5 Q 264.1 218.8 266.4 219.3 Q 268.7 219.7 271.0 220.3 Q 273.4 220.9 275.7 220.8 Q 278.0 220.7 280.3 220.9 Q 282.6 221.0 284.9 220.9 Q 287.3 220.8 289.6 221.1 Q 291.9 221.3 294.2 221.2 Q 296.5 221.2 298.8 221.1 Q 301.2 221.1 303.5 220.9 Q 305.8 220.8 308.1 220.8 Q 310.4 220.7 312.7 221.2 Q 315.1 221.6 317.4 221.6 Q 319.7 221.5 322.0 221.3 Q 324.3 221.1 326.6 221.6 Q 329.0 222.0 331.3 221.8 Q 333.6 221.6 335.9 221.6 Q 338.2 221.5 340.5 221.3 Q 342.9 221.1 345.2 221.2 Q 347.5 221.2 349.8 221.0 Q 352.1 220.7 354.4 218.8 Q 356.8 216.9 359.1 211.6 Q 361.4 206.3 363.7 196.9 Q 366.0 187.4 368.3 178.9 Q 370.7 170.4 373.0 168.9 Q 375.3 167.4 377.6 174.5 Q 379.9 181.6 382.2 191.5 Q 384.6 201.4 386.9 208.3 Q 389.2 215.2 391.5 219.0 Q 393.8 222.8 396.1 223.7 Q 398.5 224.7 400.8 221.9 Q 403.1 219.1 405.4 214.4 Q 407.7 209.6 410.0 207.0 Q 412.4 204.5 414.7 204.5 Q 417.0 204.5 419.3 206.3 Q 421.6 208.2 423.9 211.1 Q 426.3 214.1 428.6 216.3 Q 430.9 218.5 433.2 220.1 Q 435.5 221.7 437.8 222.2 Q 440.2 222.8 442.5 223.4 Q 444.8 223.9 447.1 223.8 Q 449.4 223.6 451.7 224.0 Q 454.1 224.4 456.4 224.5 Q 458.7 224.6 461.0 224.4 Q 463.3 224.1 465.6 224.3 Q 468.0 224.4 470.3 224.3 Q 472.6 224.2 474.9 223.9 Q 477.2 223.6 479.5 224.2 Q 481.9 224.7 484.2 224.8 Q 486.5 224.8 488.8 224.7 Q 491.1 224.6 493.4 224.6 Q 495.8 224.6 498.1 224.8 Q 500.4 224.9 502.7 225.0 Q 505.0 225.0 507.3 224.9 Q 509.7 224.8 512.0 224.9 Q 514.3 225.0 516.6 225.2 Q 518.9 225.5 521.2 224.9 Q 523.6 224.3 525.9 222.4 Q 528.2 220.5 530.5 215.4 Q 532.8 210.3 535.1 200.9 Q 537.5 191.5 539.8 182.9 Q 542.1 174.3 544.4 172.5 Q 546.7 170.7 549.0 178.0 Q 551.4 185.3 553.7 195.2 Q 556.0 205.1 558.3 212.1 Q 560.6 219.0 562.9 222.6 Q 565.3 226.2 567.6 227.6 Q 569.9 229.0 572.2 226.0 Q 574.5 223.0 576.8 218.2 Q 579.2 213.5 581.5 211.2 Q 583.8 209.0 586.1 208.4 Q 588.4 207.7 590.7 210.1 Q 593.1 212.5 595.4 214.9 Q 597.7 217.3 600.0 219.9 Q 602.3 222.5 604.6 223.7 Q 606.9 224.8 609.3 225.6 Q 611.6 226.3 613.9 226.8 Q 616.2 227.3 618.5 226.9 Q 620.8 226.5 623.2 226.5 Q 625.5 226.5 627.8 226.8 Q 630.1 227.1 632.4 227.1 Q 634.7 227.2 637.1 227.2 Q 639.4 227.2 641.7 227.4 Q 644.0 227.5 646.3 227.2 Q 648.6 226.8 651.0 227.1 Q 653.3 227.4 655.6 227.4 Q 657.9 227.3 660.2 227.4 Q 662.5 227.6 664.9 227.5 Q 667.2 227.5 669.5 227.6 Q 671.8 227.8 674.1 227.3 Q 676.4 226.9 678.8 227.2 Q 681.1 227.4 683.4 227.2 Q 685.7 227.0 688.0 227.1 Q 690.3 227.2 692.7 226.8 Q 695.0 226.5 697.3 224.5 Q 699.6 222.5 701.9 217.2 Q 704.2 211.9 706.6 202.6 Q 708.9 193.3 711.2 184.5 Q 713.5 175.7 715.8 174.1 Q 718.1 172.6 720.5 179.9 Q 722.8 187.2 725.1 196.9 Q 727.4 206.6 729.7 213.0 Q 732.0 219.4 734.4 223.4 Q 736.7 227.4 739.0 228.5 Q 741.3 229.6 743.6 226.4 Q 745.9 223.3 748.3 218.6 Q 750.6 213.8 752.9 211.6 Q 755.2 209.3 757.5 208.9 Q 759.8 208.5 762.2 210.5 Q 764.5 212.5 766.8 215.4 Q 769.1 218.3 771.4 220.2 Q 773.7 222.1 776.1 223.6 Q 778.4 225.1 780.7 225.6 Q 783.0 226.2 785.3 226.5 Q 787.6 226.8 790.0 226.6 Q 792.3 226.4 794.6 226.6 Q 796.9 226.7 799.2 226.6 Q 801.5 226.5 803.9 226.6 Q 806.2 226.8 808.5 226.8 Q 810.8 226.7 813.1 226.3 Q 815.4 225.8 817.8 226.1 Q 820.1 226.3 822.4 226.2 Q 824.7 226.0 827.0 226.0 Q 829.3 226.0 831.7 226.0 Q 834.0 226.1 836.3 226.0 Q 838.6 226.0 840.9 225.8 Q 843.2 225.5 845.6 225.6 Q 847.9 225.7 850.2 225.7 Q 852.5 225.6 854.8 225.5 Q 857.1 225.4 859.5 225.1 Q 861.8 224.8 864.1 224.4 Q 866.4 223.9 868.7 222.0 Q 871.0 220.0 873.4 214.8 Q 875.7 209.6 878.0 200.5 Q 880.3 191.4 882.6 182.1 Q 884.9 172.8 887.3 171.2 Q 889.6 169.6 891.9 176.9 Q 894.2 184.2 896.5 193.8 Q 898.8 203.5 901.2 210.2 Q 903.5 216.9 905.8 220.5 Q 908.1 224.0 910.4 225.0 Q 912.7 226.0 915.1 223.3 Q 917.4 220.5 919.7 215.6 Q 922.0 210.7 924.3 208.4 Q 926.6 206.1 929.0 205.6 Q 931.3 205.0 933.6 206.9 Q 935.9 208.8 938.2 211.5 Q 940.5 214.1 942.9 216.3 Q 945.2 218.4 947.5 219.8 Q 949.8 221.2 952.1 222.2 Q 954.4 223.2 956.8 223.4 Q 959.1 223.6 961.4 223.2 Q 963.7 222.8 966.0 223.1 Q 968.3 223.3 970.7 223.1 Q 973.0 222.9 975.3 222.7 Q 977.6 222.5 979.9 222.9 Q 982.2 223.2 984.6 223.3 Q 986.9 223.3 989.2 222.8 Q 991.5 222.4 993.8 222.4 Q 996.1 222.4 998.5 222.4 Q 1000.8 222.4 1003.1 222.3 Q 1005.4 222.2 1007.7 222.3 Q 1010.0 222.4 1012.4 222.5 Q 1014.7 222.5 1017.0 222.3 Q 1019.3 222.0 1021.6 222.1 Q 1023.9 222.2 1026.3 222.3 Q 1028.6 222.3 1030.9 221.9 Q 1033.2 221.4 1035.5 221.0 Q 1037.8 220.5 1040.2 218.5 Q 1042.5 216.4 1044.8 211.3 Q 1047.1 206.2 1049.4 196.9 Q 1051.7 187.6 1054.1 178.7 Q 1056.4 169.9 1058.7 168.3 Q 1061.0 166.7 1063.3 173.7 Q 1065.6 180.6 1068.0 190.6 Q 1070.3 200.5 1072.6 207.1 Q 1074.9 213.7 1077.2 217.3 Q 1079.5 220.9 1081.9 221.6 Q 1084.2 222.4 1086.5 220.0 Q 1088.8 217.7 1091.1 212.8 Q 1093.4 207.8 1095.8 205.3 Q 1098.1 202.7 1100.4 202.5 Q 1102.7 202.3 1105.0 204.4 Q 1107.3 206.6 1109.7 209.2 Q 1112.0 211.8 1114.3 213.9 Q 1116.6 216.0 1118.9 217.5 Q 1121.2 219.0 1123.6 219.6 Q 1125.9 220.2 1128.2 220.4 Q 1130.5 220.7 1132.8 220.5 Q 1135.1 220.3 1137.5 220.5 Q 1139.8 220.7 1142.1 221.0 Q 1144.4 221.4 1146.7 221.1 Q 1149.0 220.9 1151.4 221.1 Q 1153.7 221.3 1156.0 221.5 Q 1158.3 221.7 1160.6 221.3 Q 1162.9 220.8 1165.3 220.5 Q 1167.6 220.2 1169.9 220.4 Q 1172.2 220.7 1174.5 220.9 Q 1176.8 221.1 1179.2 221.0 Q 1181.5 221.0 1183.8 220.7 Q 1186.1 220.3 1188.4 220.5 Q 1190.7 220.7 1193.1 220.7 Q 1195.4 220.8 1197.7 220.8 T 1200.0 220.8"/>
      <animate attributeName="r" values="3.4;5.6;3.4" dur="1s" repeatCount="indefinite"/>
    </circle>
    <rect width="1200" height="280" fill="url(#fade)"/>
    <g font-family="Inter, SF Pro Display, Helvetica Neue, Arial, sans-serif" text-anchor="middle">
      <text x="600" y="86" font-size="54" font-weight="700" fill="#F8F9FA" letter-spacing="1.5">QEbellavita
        <animate attributeName="opacity" from="0" to="1" dur="1.1s" fill="freeze"/></text>
      <text x="600" y="120" font-size="15.5" font-weight="600" fill="#2563EB" letter-spacing="2.8">NEURAL WORKFLOWS &#183; CLOSED-LOOP PREDICTION
        <animate attributeName="opacity" from="0" to="1" dur="1.1s" begin="0.45s" fill="freeze"/></text>
      <text x="600" y="144" font-size="12.5" font-weight="500" fill="#6B7280" letter-spacing="2.2">CROSS-MODAL FUSION &#8212; EEG &#183; HR &#183; GSR &#183; AUDIO &#183; TEXT
        <animate attributeName="opacity" from="0" to="1" dur="1.1s" begin="0.8s" fill="freeze"/></text>
    </g>
  </g>
</svg>
