<svg xmlns="http://www.w3.org/2000/svg" viewBox="0 0 470 152" width="470" height="152" role="img" aria-label="system-brain-mcp — Read-only MCP tools: where code actually deploys, what's fabricated, whether the feedback loop closes.">
  <rect x="0.75" y="0.75" width="468" height="150" rx="12" fill="#0D1117" stroke="#1F2937" stroke-width="1.5"/>
  <rect x="0.75" y="0.75" width="4" height="150" rx="2" fill="#5EEAD4"/>
  <circle cx="30" cy="41" r="5.5" fill="none" stroke="#5EEAD4" stroke-width="2"/>
  <g transform="translate(46,46)" fill="#F8F9FA"><path d="M4.6 0.2Q3.4 0.2 2.6 -0.1Q1.7 -0.5 1.2 -1.1Q0.8 -1.7 0.7 -2.4L0.7 -2.5H2.9L2.9 -2.4Q3.0 -2.0 3.4 -1.7Q3.9 -1.4 4.6 -1.4Q5.0 -1.4 5.4 -1.5Q5.7 -1.7 5.9 -1.9Q6.1 -2.1 6.1 -2.4V-2.4Q6.1 -2.8 5.8 -3.0Q5.6 -3.3 4.9 -3.4L3.4 -3.7Q2.6 -3.9 2.0 -4.3Q1.5 -4.6 1.2 -5.1Q0.9 -5.6 0.9 -6.2V-6.2Q0.9 -7.1 1.4 -7.7Q1.8 -8.3 2.6 -8.6Q3.4 -9.0 4.5 -9.0Q5.6 -9.0 6.4 -8.6Q7.2 -8.3 7.7 -7.7Q8.1 -7.1 8.2 -6.4L8.2 -6.3H6.1L6.1 -6.4Q6.0 -6.8 5.6 -7.1Q5.2 -7.4 4.5 -7.4Q4.1 -7.4 3.8 -7.3Q3.5 -7.1 3.3 -6.9Q3.1 -6.7 3.1 -6.4V-6.4Q3.1 -6.1 3.2 -5.9Q3.3 -5.8 3.6 -5.6Q3.9 -5.5 4.3 -5.4L5.8 -5.1Q6.7 -4.9 7.2 -4.6Q7.8 -4.2 8.1 -3.8Q8.4 -3.3 8.4 -2.7V-2.7Q8.4 -1.8 7.9 -1.2Q7.4 -0.5 6.5 -0.2Q5.7 0.2 4.6 0.2Z M11.3 3.1Q11.1 3.1 10.9 3.0Q10.6 3.0 10.4 3.0V1.3Q10.6 1.3 10.7 1.4Q10.9 1.4 11.1 1.4Q11.7 1.4 12.0 1.1Q12.4 0.9 12.5 0.4L12.6 0.0L9.5 -8.8H12.0L14.1 -1.2L13.6 -2.0H14.3L13.8 -1.2L15.9 -8.8H18.3L15.2 0.1Q14.9 1.2 14.3 1.9Q13.8 2.5 13.1 2.8Q12.3 3.1 11.3 3.1Z M23.3 0.2Q22.1 0.2 21.3 -0.1Q20.5 -0.5 20.0 -1.1Q19.5 -1.7 19.4 -2.4L19.4 -2.5H21.6L21.6 -2.4Q21.8 -2.0 22.2 -1.7Q22.6 -1.4 23.3 -1.4Q23.8 -1.4 24.1 -1.5Q24.5 -1.7 24.7 -1.9Q24.9 -2.1 24.9 -2.4V-2.4Q24.9 -2.8 24.6 -3.0Q24.3 -3.3 23.6 -3.4L22.2 -3.7Q21.3 -3.9 20.8 -4.3Q20.2 -4.6 19.9 -5.1Q19.7 -5.6 19.7 -6.2V-6.2Q19.7 -7.1 20.1 -7.7Q20.6 -8.3 21.4 -8.6Q22.2 -9.0 23.3 -9.0Q24.4 -9.0 25.2 -8.6Q26.0 -8.3 26.4 -7.7Q26.9 -7.1 26.9 -6.4L26.9 -6.3H24.8L24.8 -6.4Q24.7 -6.8 24.3 -7.1Q23.9 -7.4 23.3 -7.4Q22.9 -7.4 22.5 -7.3Q22.2 -7.1 22.0 -6.9Q21.8 -6.7 21.8 -6.4V-6.4Q21.8 -6.1 22.0 -5.9Q22.1 -5.8 22.4 -5.6Q22.6 -5.5 23.1 -5.4L24.6 -5.1Q25.4 -4.9 26.0 -4.6Q26.6 -4.2 26.8 -3.8Q27.1 -3.3 27.1 -2.7V-2.7Q27.1 -1.8 26.6 -1.2Q26.1 -0.5 25.3 -0.2Q24.4 0.2 23.3 0.2Z M32.5 0.1Q31.0 0.1 30.3 -0.5Q29.6 -1.1 29.6 -2.4V-7.1H28.3V-8.8H29.6V-10.9H31.9V-8.8H33.7V-7.1H31.9V-2.8Q31.9 -2.2 32.1 -1.9Q32.4 -1.7 33.0 -1.7Q33.2 -1.7 33.4 -1.7Q33.5 -1.7 33.7 -1.7V-0.0Q33.4 0.0 33.2 0.0Q32.9 0.1 32.5 0.1Z M39.4 0.2Q38.1 0.2 37.1 -0.4Q36.2 -0.9 35.7 -1.9Q35.2 -3.0 35.2 -4.4V-4.4Q35.2 -5.8 35.7 -6.8Q36.2 -7.8 37.1 -8.4Q38.1 -9.0 39.3 -9.0Q40.6 -9.0 41.5 -8.4Q42.5 -7.9 43.0 -6.9Q43.5 -5.9 43.5 -4.6V-3.9H36.3V-5.3H42.4L41.3 -3.9V-4.8Q41.3 -5.6 41.1 -6.2Q40.8 -6.7 40.4 -7.0Q39.9 -7.3 39.4 -7.3Q38.8 -7.3 38.3 -7.0Q37.9 -6.7 37.6 -6.2Q37.4 -5.6 37.4 -4.8V-3.9Q37.4 -3.2 37.6 -2.6Q37.9 -2.1 38.3 -1.8Q38.8 -1.5 39.5 -1.5Q40.0 -1.5 40.4 -1.7Q40.7 -1.8 41.0 -2.0Q41.2 -2.3 41.3 -2.4L41.3 -2.5L43.4 -2.5L43.4 -2.4Q43.3 -2.0 43.0 -1.5Q42.7 -1.1 42.2 -0.7Q41.7 -0.3 41.0 -0.1Q40.4 0.2 39.4 0.2Z M45.3 0.0V-8.8H47.6V-7.4H47.7Q48.0 -8.1 48.6 -8.6Q49.2 -9.0 50.1 -9.0Q50.7 -9.0 51.2 -8.8Q51.7 -8.6 52.0 -8.2Q52.4 -7.8 52.5 -7.3H52.7Q52.9 -7.8 53.3 -8.2Q53.7 -8.6 54.2 -8.8Q54.7 -9.0 55.3 -9.0Q56.2 -9.0 56.8 -8.6Q57.5 -8.3 57.8 -7.6Q58.2 -6.9 58.2 -6.0V0.0H56.0V-5.5Q56.0 -6.0 55.8 -6.4Q55.6 -6.7 55.3 -6.9Q55.0 -7.1 54.5 -7.1Q54.0 -7.1 53.6 -6.9Q53.2 -6.7 53.1 -6.3Q52.9 -5.9 52.9 -5.4V0.0H50.6V-5.6Q50.6 -6.1 50.5 -6.4Q50.3 -6.8 50.0 -6.9Q49.6 -7.1 49.2 -7.1Q48.7 -7.1 48.3 -6.9Q48.0 -6.6 47.8 -6.2Q47.6 -5.8 47.6 -5.3V0.0Z M60.5 -3.7V-5.7H65.9V-3.7Z M73.4 0.2Q72.8 0.2 72.2 -0.0Q71.7 -0.2 71.3 -0.6Q71.0 -0.9 70.7 -1.4H70.6V0.0H68.4V-12.1H70.6V-7.4H70.7Q71.0 -7.9 71.3 -8.2Q71.7 -8.6 72.3 -8.7Q72.8 -8.9 73.4 -8.9Q74.5 -8.9 75.3 -8.4Q76.1 -7.8 76.5 -6.8Q77.0 -5.8 77.0 -4.4V-4.4Q77.0 -3.0 76.5 -2.0Q76.1 -0.9 75.3 -0.4Q74.5 0.2 73.4 0.2ZM72.7 -1.7Q73.3 -1.7 73.8 -2.0Q74.2 -2.4 74.5 -3.0Q74.7 -3.6 74.7 -4.4V-4.4Q74.7 -5.2 74.5 -5.8Q74.2 -6.4 73.8 -6.8Q73.3 -7.1 72.7 -7.1Q72.0 -7.1 71.6 -6.8Q71.1 -6.4 70.8 -5.8Q70.6 -5.2 70.6 -4.4V-4.4Q70.6 -3.6 70.8 -3.0Q71.1 -2.4 71.6 -2.0Q72.0 -1.7 72.7 -1.7Z M78.9 0.0V-8.8H81.1V-7.4H81.2Q81.4 -8.1 82.0 -8.5Q82.5 -8.9 83.4 -8.9Q83.6 -8.9 83.8 -8.9Q84.0 -8.9 84.2 -8.8V-6.9Q84.0 -6.9 83.7 -7.0Q83.5 -7.0 83.2 -7.0Q82.5 -7.0 82.1 -6.8Q81.6 -6.5 81.3 -6.1Q81.1 -5.6 81.1 -5.0V0.0Z M88.2 0.1Q87.3 0.1 86.7 -0.2Q86.0 -0.5 85.7 -1.1Q85.3 -1.7 85.3 -2.5V-2.5Q85.3 -3.3 85.7 -3.9Q86.1 -4.4 86.8 -4.8Q87.6 -5.1 88.7 -5.1L92.0 -5.3V-3.9L89.0 -3.8Q88.2 -3.7 87.9 -3.4Q87.5 -3.1 87.5 -2.6V-2.6Q87.5 -2.1 87.9 -1.8Q88.3 -1.5 88.9 -1.5Q89.5 -1.5 89.9 -1.7Q90.3 -2.0 90.6 -2.3Q90.9 -2.7 90.9 -3.2V-6.0Q90.9 -6.6 90.5 -6.9Q90.1 -7.2 89.3 -7.2Q88.7 -7.2 88.3 -7.0Q87.8 -6.8 87.7 -6.4L87.7 -6.3H85.6L85.6 -6.4Q85.7 -7.2 86.2 -7.7Q86.7 -8.3 87.5 -8.6Q88.3 -9.0 89.4 -9.0Q90.6 -9.0 91.4 -8.6Q92.2 -8.3 92.6 -7.6Q93.1 -6.9 93.1 -6.0V0.0H90.9V-1.2H90.7Q90.5 -0.8 90.1 -0.5Q89.7 -0.2 89.3 -0.0Q88.8 0.1 88.2 0.1Z M95.3 0.0V-8.8H97.6V0.0ZM96.5 -10.1Q95.9 -10.1 95.6 -10.5Q95.2 -10.9 95.2 -11.4Q95.2 -11.9 95.6 -12.3Q95.9 -12.6 96.5 -12.6Q97.0 -12.6 97.3 -12.3Q97.7 -11.9 97.7 -11.4Q97.7 -10.9 97.3 -10.5Q97.0 -10.1 96.5 -10.1Z M99.9 0.0V-8.8H102.1V-7.4H102.2Q102.5 -8.1 103.2 -8.6Q103.8 -9.0 104.8 -9.0Q106.3 -9.0 107.0 -8.1Q107.8 -7.2 107.8 -5.7V0.0H105.6V-5.2Q105.6 -6.1 105.2 -6.6Q104.8 -7.1 103.9 -7.1Q103.4 -7.1 103.0 -6.9Q102.5 -6.6 102.3 -6.2Q102.1 -5.7 102.1 -5.1V0.0Z M110.2 -3.7V-5.7H115.5V-3.7Z M117.9 0.0V-8.8H120.2V-7.4H120.3Q120.6 -8.1 121.2 -8.6Q121.8 -9.0 122.7 -9.0Q123.3 -9.0 123.8 -8.8Q124.3 -8.6 124.6 -8.2Q125.0 -7.8 125.1 -7.3H125.3Q125.5 -7.8 125.9 -8.2Q126.3 -8.6 126.8 -8.8Q127.3 -9.0 127.9 -9.0Q128.8 -9.0 129.4 -8.6Q130.1 -8.3 130.4 -7.6Q130.8 -6.9 130.8 -6.0V0.0H128.6V-5.5Q128.6 -6.0 128.4 -6.4Q128.2 -6.7 127.9 -6.9Q127.6 -7.1 127.1 -7.1Q126.6 -7.1 126.2 -6.9Q125.9 -6.7 125.7 -6.3Q125.5 -5.9 125.5 -5.4V0.0H123.2V-5.6Q123.2 -6.1 123.1 -6.4Q122.9 -6.8 122.6 -6.9Q122.2 -7.1 121.8 -7.1Q121.3 -7.1 120.9 -6.9Q120.6 -6.6 120.4 -6.2Q120.2 -5.8 120.2 -5.3V0.0Z M136.9 0.2Q135.5 0.2 134.6 -0.4Q133.6 -0.9 133.1 -1.9Q132.6 -3.0 132.6 -4.4V-4.4Q132.6 -5.9 133.1 -6.9Q133.6 -7.9 134.6 -8.4Q135.5 -9.0 136.9 -9.0Q138.0 -9.0 138.9 -8.6Q139.7 -8.2 140.2 -7.4Q140.7 -6.7 140.8 -5.8L140.8 -5.7H138.7L138.7 -5.8Q138.6 -6.4 138.1 -6.8Q137.7 -7.2 136.9 -7.2Q136.2 -7.2 135.8 -6.9Q135.3 -6.5 135.1 -5.9Q134.9 -5.3 134.9 -4.4V-4.4Q134.9 -3.5 135.1 -2.9Q135.3 -2.2 135.8 -1.9Q136.2 -1.6 136.9 -1.6Q137.6 -1.6 138.1 -1.9Q138.5 -2.3 138.7 -3.0L138.7 -3.0L140.8 -3.0L140.8 -3.0Q140.6 -2.0 140.2 -1.3Q139.7 -0.6 138.8 -0.2Q138.0 0.2 136.9 0.2Z M142.6 2.9V-8.8H144.8V-7.4H144.9Q145.1 -7.9 145.5 -8.2Q145.9 -8.6 146.4 -8.8Q146.9 -8.9 147.6 -8.9Q148.7 -8.9 149.5 -8.4Q150.3 -7.8 150.7 -6.8Q151.2 -5.8 151.2 -4.4V-4.4Q151.2 -3.0 150.7 -2.0Q150.3 -0.9 149.5 -0.4Q148.7 0.2 147.6 0.2Q147.0 0.2 146.4 -0.0Q145.9 -0.2 145.5 -0.6Q145.1 -0.9 144.9 -1.4H144.8V2.9ZM146.8 -1.7Q147.5 -1.7 147.9 -2.0Q148.4 -2.4 148.6 -3.0Q148.9 -3.6 148.9 -4.4V-4.4Q148.9 -5.2 148.6 -5.8Q148.4 -6.4 147.9 -6.8Q147.5 -7.1 146.8 -7.1Q146.2 -7.1 145.7 -6.8Q145.3 -6.4 145.0 -5.8Q144.8 -5.2 144.8 -4.4V-4.4Q144.8 -3.6 145.0 -3.0Q145.3 -2.4 145.7 -2.0Q146.2 -1.7 146.8 -1.7Z"/></g>
  <g transform="translate(46,74)" fill="#9CA3AF"><path d="M1.0 0.0V-8.1H4.2Q5.0 -8.1 5.5 -7.8Q6.1 -7.5 6.5 -7.0Q6.8 -6.4 6.8 -5.7V-5.7Q6.8 -4.8 6.4 -4.2Q5.9 -3.6 5.2 -3.3L7.0 0.0H5.7L4.0 -3.2Q4.0 -3.2 4.0 -3.2Q4.0 -3.2 4.0 -3.2H2.1V0.0ZM2.1 -4.1H4.0Q4.8 -4.1 5.2 -4.5Q5.6 -4.9 5.6 -5.6V-5.6Q5.6 -6.3 5.2 -6.7Q4.8 -7.1 4.0 -7.1H2.1Z M11.1 0.1Q10.2 0.1 9.6 -0.3Q9.0 -0.7 8.6 -1.4Q8.3 -2.1 8.3 -3.0V-3.0Q8.3 -4.0 8.6 -4.7Q9.0 -5.4 9.6 -5.8Q10.2 -6.2 11.0 -6.2Q11.9 -6.2 12.5 -5.8Q13.1 -5.4 13.4 -4.7Q13.7 -4.0 13.7 -3.1V-2.7H8.9V-3.6H13.2L12.7 -2.8V-3.2Q12.7 -3.9 12.4 -4.4Q12.2 -4.8 11.9 -5.0Q11.5 -5.2 11.0 -5.2Q10.6 -5.2 10.2 -5.0Q9.8 -4.8 9.6 -4.3Q9.4 -3.9 9.4 -3.2V-2.8Q9.4 -2.2 9.6 -1.7Q9.8 -1.3 10.2 -1.1Q10.6 -0.8 11.1 -0.8Q11.5 -0.8 11.8 -0.9Q12.1 -1.0 12.3 -1.2Q12.5 -1.4 12.6 -1.6L12.6 -1.6L13.7 -1.6L13.6 -1.6Q13.6 -1.2 13.4 -1.0Q13.2 -0.7 12.9 -0.4Q12.5 -0.2 12.1 -0.0Q11.7 0.1 11.1 0.1Z M17.0 0.1Q16.4 0.1 16.0 -0.1Q15.5 -0.3 15.3 -0.7Q15.0 -1.1 15.0 -1.7V-1.7Q15.0 -2.3 15.3 -2.6Q15.5 -3.0 16.0 -3.2Q16.5 -3.5 17.2 -3.5L19.5 -3.6V-2.8L17.4 -2.7Q16.7 -2.7 16.4 -2.4Q16.1 -2.2 16.1 -1.7V-1.7Q16.1 -1.3 16.4 -1.0Q16.8 -0.8 17.3 -0.8Q17.8 -0.8 18.1 -1.0Q18.5 -1.2 18.7 -1.5Q18.9 -1.8 18.9 -2.3V-4.1Q18.9 -4.7 18.6 -5.0Q18.3 -5.2 17.6 -5.2Q17.1 -5.2 16.8 -5.1Q16.4 -4.9 16.3 -4.5L16.3 -4.5H15.2L15.2 -4.5Q15.3 -5.0 15.6 -5.4Q16.0 -5.8 16.5 -6.0Q17.0 -6.2 17.7 -6.2Q18.4 -6.2 18.9 -5.9Q19.5 -5.7 19.7 -5.2Q20.0 -4.8 20.0 -4.2V0.0H18.9V-0.9H18.8Q18.6 -0.6 18.4 -0.3Q18.1 -0.1 17.8 -0.0Q17.4 0.1 17.0 0.1Z M24.1 0.1Q23.3 0.1 22.8 -0.3Q22.2 -0.7 21.9 -1.4Q21.6 -2.1 21.6 -3.0V-3.0Q21.6 -4.0 21.9 -4.7Q22.2 -5.4 22.8 -5.8Q23.3 -6.2 24.1 -6.2Q24.5 -6.2 24.9 -6.0Q25.3 -5.9 25.5 -5.7Q25.8 -5.4 26.0 -5.1H26.1V-8.5H27.2V0.0H26.1V-1.0H26.0Q25.8 -0.6 25.5 -0.4Q25.3 -0.2 24.9 -0.0Q24.5 0.1 24.1 0.1ZM24.4 -0.8Q24.9 -0.8 25.3 -1.1Q25.7 -1.4 25.9 -1.9Q26.1 -2.4 26.1 -3.0V-3.0Q26.1 -3.7 25.9 -4.2Q25.7 -4.7 25.3 -5.0Q24.9 -5.2 24.4 -5.2Q23.9 -5.2 23.5 -5.0Q23.1 -4.7 22.9 -4.2Q22.7 -3.7 22.7 -3.0V-3.0Q22.7 -2.3 22.9 -1.9Q23.1 -1.4 23.5 -1.1Q23.9 -0.8 24.4 -0.8Z M29.1 -2.8V-3.8H32.8V-2.8Z M37.2 0.1Q36.4 0.1 35.7 -0.3Q35.1 -0.6 34.8 -1.4Q34.4 -2.1 34.4 -3.0V-3.0Q34.4 -4.0 34.8 -4.7Q35.1 -5.4 35.7 -5.8Q36.4 -6.2 37.2 -6.2Q38.1 -6.2 38.7 -5.8Q39.4 -5.4 39.7 -4.7Q40.1 -4.0 40.1 -3.0V-3.0Q40.1 -2.1 39.7 -1.4Q39.4 -0.6 38.7 -0.3Q38.1 0.1 37.2 0.1ZM37.2 -0.8Q37.8 -0.8 38.2 -1.1Q38.6 -1.3 38.8 -1.8Q39.0 -2.3 39.0 -3.0V-3.0Q39.0 -3.7 38.8 -4.2Q38.6 -4.7 38.2 -5.0Q37.8 -5.2 37.2 -5.2Q36.7 -5.2 36.3 -5.0Q35.9 -4.7 35.7 -4.2Q35.5 -3.7 35.5 -3.0V-3.0Q35.5 -2.3 35.7 -1.8Q35.9 -1.3 36.3 -1.1Q36.7 -0.8 37.2 -0.8Z M41.7 0.0V-6.1H42.8V-5.2H42.9Q43.1 -5.6 43.5 -5.9Q44.0 -6.2 44.6 -6.2Q45.6 -6.2 46.2 -5.6Q46.7 -5.0 46.7 -3.9V0.0H45.6V-3.7Q45.6 -4.5 45.3 -4.8Q45.0 -5.2 44.3 -5.2Q43.8 -5.2 43.5 -5.0Q43.1 -4.8 43.0 -4.5Q42.8 -4.1 42.8 -3.6V0.0Z M48.7 0.0V-8.5H49.7V0.0Z M52.3 2.1Q52.2 2.1 52.0 2.1Q51.9 2.1 51.8 2.1V1.2Q51.9 1.2 52.0 1.2Q52.1 1.2 52.2 1.2Q52.6 1.2 52.9 1.0Q53.2 0.8 53.3 0.3L53.4 0.0L51.2 -6.1H52.4L54.1 -0.5L53.8 -1.1H54.2L53.9 -0.5L55.6 -6.1H56.8L54.5 0.3Q54.2 1.0 53.9 1.4Q53.6 1.8 53.2 2.0Q52.8 2.1 52.3 2.1Z M61.6 0.0V-8.1H62.9L65.6 -1.5H65.7L68.4 -8.1H69.7V0.0H68.6V-6.1H68.1L69.3 -7.9L66.1 0.0H65.2L62.0 -7.9L63.2 -6.1H62.6V0.0Z M75.1 0.2Q74.0 0.2 73.2 -0.3Q72.4 -0.8 72.0 -1.8Q71.5 -2.7 71.5 -4.0V-4.1Q71.5 -5.4 72.0 -6.3Q72.4 -7.3 73.2 -7.8Q74.0 -8.3 75.1 -8.3Q76.0 -8.3 76.7 -8.0Q77.4 -7.6 77.9 -7.0Q78.3 -6.4 78.5 -5.6L78.5 -5.6H77.3L77.3 -5.6Q77.2 -6.1 76.9 -6.5Q76.6 -6.9 76.1 -7.1Q75.7 -7.3 75.1 -7.3Q74.4 -7.3 73.8 -6.9Q73.3 -6.5 73.0 -5.8Q72.7 -5.0 72.7 -4.1V-4.0Q72.7 -3.1 73.0 -2.3Q73.3 -1.6 73.8 -1.2Q74.4 -0.8 75.1 -0.8Q75.7 -0.8 76.1 -1.0Q76.6 -1.2 76.9 -1.5Q77.2 -1.9 77.3 -2.3L77.3 -2.3H78.5L78.5 -2.3Q78.3 -1.6 77.9 -1.0Q77.4 -0.4 76.7 -0.1Q76.0 0.2 75.1 0.2Z M80.8 -2.8V-3.8H83.1Q83.9 -3.8 84.4 -4.2Q84.9 -4.7 84.9 -5.5V-5.5Q84.9 -6.3 84.4 -6.7Q83.9 -7.1 83.1 -7.1H80.8V-8.1H83.4Q84.1 -8.1 84.7 -7.8Q85.3 -7.4 85.7 -6.9Q86.0 -6.3 86.0 -5.5V-5.5Q86.0 -4.7 85.7 -4.1Q85.3 -3.5 84.7 -3.2Q84.1 -2.8 83.4 -2.8ZM80.3 0.0V-8.1H81.4V0.0Z M93.1 0.0Q92.2 0.0 91.8 -0.3Q91.3 -0.7 91.3 -1.6V-5.2H90.4V-6.1H91.3V-7.6H92.4V-6.1H93.7V-5.2H92.4V-1.8Q92.4 -1.3 92.6 -1.1Q92.8 -0.9 93.3 -0.9Q93.4 -0.9 93.5 -0.9Q93.6 -0.9 93.7 -0.9V-0.0Q93.6 0.0 93.5 0.0Q93.3 0.0 93.1 0.0Z M97.9 0.1Q97.0 0.1 96.3 -0.3Q95.7 -0.6 95.4 -1.4Q95.0 -2.1 95.0 -3.0V-3.0Q95.0 -4.0 95.4 -4.7Q95.7 -5.4 96.3 -5.8Q97.0 -6.2 97.9 -6.2Q98.7 -6.2 99.4 -5.8Q100.0 -5.4 100.3 -4.7Q100.7 -4.0 100.7 -3.0V-3.0Q100.7 -2.1 100.3 -1.4Q100.0 -0.6 99.4 -0.3Q98.7 0.1 97.9 0.1ZM97.9 -0.8Q98.4 -0.8 98.8 -1.1Q99.2 -1.3 99.4 -1.8Q99.6 -2.3 99.6 -3.0V-3.0Q99.6 -3.7 99.4 -4.2Q99.2 -4.7 98.8 -5.0Q98.4 -5.2 97.9 -5.2Q97.3 -5.2 96.9 -5.0Q96.5 -4.7 96.3 -4.2Q96.1 -3.7 96.1 -3.0V-3.0Q96.1 -2.3 96.3 -1.8Q96.5 -1.3 96.9 -1.1Q97.3 -0.8 97.9 -0.8Z M104.8 0.1Q103.9 0.1 103.3 -0.3Q102.7 -0.6 102.3 -1.4Q102.0 -2.1 102.0 -3.0V-3.0Q102.0 -4.0 102.3 -4.7Q102.7 -5.4 103.3 -5.8Q103.9 -6.2 104.8 -6.2Q105.7 -6.2 106.3 -5.8Q107.0 -5.4 107.3 -4.7Q107.6 -4.0 107.6 -3.0V-3.0Q107.6 -2.1 107.3 -1.4Q107.0 -0.6 106.3 -0.3Q105.7 0.1 104.8 0.1ZM104.8 -0.8Q105.4 -0.8 105.7 -1.1Q106.1 -1.3 106.3 -1.8Q106.5 -2.3 106.5 -3.0V-3.0Q106.5 -3.7 106.3 -4.2Q106.1 -4.7 105.7 -5.0Q105.4 -5.2 104.8 -5.2Q104.3 -5.2 103.9 -5.0Q103.5 -4.7 103.3 -4.2Q103.1 -3.7 103.1 -3.0V-3.0Q103.1 -2.3 103.3 -1.8Q103.5 -1.3 103.9 -1.1Q104.3 -0.8 104.8 -0.8Z M109.3 0.0V-8.5H110.4V0.0Z M114.5 0.1Q113.8 0.1 113.3 -0.1Q112.8 -0.3 112.4 -0.7Q112.1 -1.1 112.1 -1.6L112.1 -1.6H113.2L113.2 -1.6Q113.3 -1.2 113.6 -1.0Q114.0 -0.8 114.5 -0.8Q114.9 -0.8 115.2 -0.9Q115.5 -1.0 115.7 -1.2Q115.9 -1.4 115.9 -1.7V-1.7Q115.9 -2.0 115.6 -2.2Q115.4 -2.4 114.9 -2.5L113.9 -2.7Q113.3 -2.9 113.0 -3.1Q112.6 -3.3 112.4 -3.6Q112.2 -3.9 112.2 -4.4V-4.4Q112.2 -4.9 112.5 -5.3Q112.8 -5.7 113.4 -5.9Q113.9 -6.2 114.5 -6.2Q115.2 -6.2 115.7 -6.0Q116.2 -5.8 116.5 -5.4Q116.8 -5.0 116.9 -4.5L116.9 -4.5H115.8L115.8 -4.5Q115.7 -4.9 115.4 -5.1Q115.1 -5.3 114.5 -5.3Q114.2 -5.3 113.9 -5.2Q113.6 -5.1 113.5 -4.9Q113.3 -4.7 113.3 -4.4V-4.4Q113.3 -4.2 113.4 -4.1Q113.5 -3.9 113.8 -3.8Q114.0 -3.7 114.3 -3.6L115.3 -3.4Q115.9 -3.3 116.2 -3.0Q116.6 -2.8 116.8 -2.5Q117.0 -2.2 117.0 -1.8V-1.7Q117.0 -1.2 116.7 -0.8Q116.3 -0.4 115.8 -0.1Q115.2 0.1 114.5 0.1Z M119.4 0.1Q119.1 0.1 118.9 -0.2Q118.7 -0.4 118.7 -0.7Q118.7 -1.0 118.9 -1.2Q119.1 -1.5 119.4 -1.5Q119.8 -1.5 120.0 -1.2Q120.2 -1.0 120.2 -0.7Q120.2 -0.4 120.0 -0.2Q119.8 0.1 119.4 0.1ZM119.4 -4.2Q119.1 -4.2 118.9 -4.5Q118.7 -4.7 118.7 -5.0Q118.7 -5.3 118.9 -5.5Q119.1 -5.8 119.4 -5.8Q119.8 -5.8 120.0 -5.5Q120.2 -5.3 120.2 -5.0Q120.2 -4.7 120.0 -4.5Q119.8 -4.2 119.4 -4.2Z M126.7 0.0 125.0 -6.1H126.1L127.2 -1.3H127.3L128.6 -6.1H129.7L131.0 -1.3H131.0L132.2 -6.1H133.3L131.6 0.0H130.5L129.2 -4.6H129.1L127.8 0.0Z M134.7 0.0V-8.5H135.8V-5.1H135.9Q136.1 -5.6 136.6 -5.9Q137.0 -6.2 137.7 -6.2Q138.3 -6.2 138.8 -5.9Q139.3 -5.6 139.5 -5.1Q139.8 -4.6 139.8 -3.9V0.0H138.7V-3.7Q138.7 -4.5 138.4 -4.8Q138.0 -5.2 137.3 -5.2Q136.9 -5.2 136.5 -5.0Q136.2 -4.8 136.0 -4.5Q135.8 -4.1 135.8 -3.6V0.0Z M144.2 0.1Q143.3 0.1 142.6 -0.3Q142.0 -0.7 141.7 -1.4Q141.3 -2.1 141.3 -3.0V-3.0Q141.3 -4.0 141.7 -4.7Q142.0 -5.4 142.6 -5.8Q143.3 -6.2 144.1 -6.2Q144.9 -6.2 145.5 -5.8Q146.1 -5.4 146.5 -4.7Q146.8 -4.0 146.8 -3.1V-2.7H141.9V-3.6H146.2L145.7 -2.8V-3.2Q145.7 -3.9 145.5 -4.4Q145.3 -4.8 144.9 -5.0Q144.6 -5.2 144.1 -5.2Q143.6 -5.2 143.2 -5.0Q142.9 -4.8 142.7 -4.3Q142.4 -3.9 142.4 -3.2V-2.8Q142.4 -2.2 142.7 -1.7Q142.9 -1.3 143.3 -1.1Q143.6 -0.8 144.2 -0.8Q144.6 -0.8 144.9 -0.9Q145.2 -1.0 145.4 -1.2Q145.5 -1.4 145.6 -1.6L145.6 -1.6L146.7 -1.6L146.7 -1.6Q146.6 -1.2 146.4 -1.0Q146.2 -0.7 145.9 -0.4Q145.6 -0.2 145.1 -0.0Q144.7 0.1 144.2 0.1Z M148.4 0.0V-6.1H149.5V-5.2H149.6Q149.7 -5.6 150.1 -5.9Q150.6 -6.2 151.2 -6.2Q151.3 -6.2 151.4 -6.2Q151.6 -6.1 151.7 -6.1V-5.1Q151.5 -5.1 151.4 -5.1Q151.2 -5.2 151.0 -5.2Q150.6 -5.2 150.2 -5.0Q149.9 -4.8 149.7 -4.5Q149.5 -4.1 149.5 -3.7V0.0Z M155.5 0.1Q154.6 0.1 154.0 -0.3Q153.4 -0.7 153.0 -1.4Q152.7 -2.1 152.7 -3.0V-3.0Q152.7 -4.0 153.0 -4.7Q153.4 -5.4 154.0 -5.8Q154.6 -6.2 155.4 -6.2Q156.3 -6.2 156.9 -5.8Q157.5 -5.4 157.8 -4.7Q158.1 -4.0 158.1 -3.1V-2.7H153.2V-3.6H157.6L157.0 -2.8V-3.2Q157.0 -3.9 156.8 -4.4Q156.6 -4.8 156.3 -5.0Q155.9 -5.2 155.4 -5.2Q155.0 -5.2 154.6 -5.0Q154.2 -4.8 154.0 -4.3Q153.8 -3.9 153.8 -3.2V-2.8Q153.8 -2.2 154.0 -1.7Q154.2 -1.3 154.6 -1.1Q155.0 -0.8 155.5 -0.8Q155.9 -0.8 156.2 -0.9Q156.5 -1.0 156.7 -1.2Q156.9 -1.4 157.0 -1.6L157.0 -1.6L158.1 -1.6L158.0 -1.6Q158.0 -1.2 157.8 -1.0Q157.6 -0.7 157.2 -0.4Q156.9 -0.2 156.5 -0.0Q156.1 0.1 155.5 0.1Z M165.6 0.1Q164.7 0.1 164.1 -0.3Q163.4 -0.7 163.1 -1.4Q162.7 -2.1 162.7 -3.0V-3.1Q162.7 -4.0 163.1 -4.7Q163.4 -5.4 164.0 -5.8Q164.7 -6.2 165.5 -6.2Q166.3 -6.2 166.8 -5.9Q167.4 -5.7 167.7 -5.2Q168.0 -4.8 168.1 -4.2L168.1 -4.2H167.1L167.0 -4.2Q166.9 -4.6 166.6 -4.9Q166.2 -5.2 165.5 -5.2Q165.0 -5.2 164.6 -5.0Q164.3 -4.7 164.0 -4.2Q163.8 -3.7 163.8 -3.1V-3.0Q163.8 -2.4 164.1 -1.9Q164.3 -1.4 164.6 -1.1Q165.0 -0.8 165.5 -0.8Q166.1 -0.8 166.5 -1.1Q166.9 -1.3 167.0 -1.8L167.1 -1.9L168.1 -1.9L168.1 -1.8Q168.0 -1.3 167.7 -0.8Q167.3 -0.4 166.8 -0.1Q166.3 0.1 165.6 0.1Z M172.2 0.1Q171.3 0.1 170.7 -0.3Q170.0 -0.6 169.7 -1.4Q169.3 -2.1 169.3 -3.0V-3.0Q169.3 -4.0 169.7 -4.7Q170.0 -5.4 170.7 -5.8Q171.3 -6.2 172.2 -6.2Q173.0 -6.2 173.7 -5.8Q174.3 -5.4 174.7 -4.7Q175.0 -4.0 175.0 -3.0V-3.0Q175.0 -2.1 174.7 -1.4Q174.3 -0.6 173.7 -0.3Q173.0 0.1 172.2 0.1ZM172.2 -0.8Q172.7 -0.8 173.1 -1.1Q173.5 -1.3 173.7 -1.8Q173.9 -2.3 173.9 -3.0V-3.0Q173.9 -3.7 173.7 -4.2Q173.5 -4.7 173.1 -5.0Q172.7 -5.2 172.2 -5.2Q171.6 -5.2 171.2 -5.0Q170.9 -4.7 170.7 -4.2Q170.5 -3.7 170.5 -3.0V-3.0Q170.5 -2.3 170.7 -1.8Q170.9 -1.3 171.2 -1.1Q171.6 -0.8 172.2 -0.8Z M178.8 0.1Q178.1 0.1 177.5 -0.3Q176.9 -0.7 176.6 -1.4Q176.3 -2.1 176.3 -3.0V-3.0Q176.3 -4.0 176.6 -4.7Q176.9 -5.4 177.5 -5.8Q178.1 -6.2 178.8 -6.2Q179.3 -6.2 179.6 -6.0Q180.0 -5.9 180.3 -5.7Q180.6 -5.4 180.7 -5.1H180.8V-8.5H181.9V0.0H180.8V-1.0H180.7Q180.5 -0.6 180.3 -0.4Q180.0 -0.2 179.6 -0.0Q179.3 0.1 178.8 0.1ZM179.1 -0.8Q179.6 -0.8 180.0 -1.1Q180.4 -1.4 180.6 -1.9Q180.8 -2.4 180.8 -3.0V-3.0Q180.8 -3.7 180.6 -4.2Q180.4 -4.7 180.0 -5.0Q179.6 -5.2 179.1 -5.2Q178.6 -5.2 178.2 -5.0Q177.8 -4.7 177.6 -4.2Q177.4 -3.7 177.4 -3.0V-3.0Q177.4 -2.3 177.6 -1.9Q177.8 -1.4 178.2 -1.1Q178.6 -0.8 179.1 -0.8Z M186.4 0.1Q185.5 0.1 184.9 -0.3Q184.2 -0.7 183.9 -1.4Q183.6 -2.1 183.6 -3.0V-3.0Q183.6 -4.0 183.9 -4.7Q184.2 -5.4 184.9 -5.8Q185.5 -6.2 186.3 -6.2Q187.1 -6.2 187.7 -5.8Q188.4 -5.4 188.7 -4.7Q189.0 -4.0 189.0 -3.1V-2.7H184.1V-3.6H188.5L187.9 -2.8V-3.2Q187.9 -3.9 187.7 -4.4Q187.5 -4.8 187.1 -5.0Q186.8 -5.2 186.3 -5.2Q185.8 -5.2 185.5 -5.0Q185.1 -4.8 184.9 -4.3Q184.7 -3.9 184.7 -3.2V-2.8Q184.7 -2.2 184.9 -1.7Q185.1 -1.3 185.5 -1.1Q185.9 -0.8 186.4 -0.8Q186.8 -0.8 187.1 -0.9Q187.4 -1.0 187.6 -1.2Q187.8 -1.4 187.8 -1.6L187.9 -1.6L188.9 -1.6L188.9 -1.6Q188.8 -1.2 188.6 -1.0Q188.4 -0.7 188.1 -0.4Q187.8 -0.2 187.4 -0.0Q186.9 0.1 186.4 0.1Z M195.6 0.1Q195.0 0.1 194.5 -0.1Q194.1 -0.3 193.8 -0.7Q193.6 -1.1 193.6 -1.7V-1.7Q193.6 -2.3 193.8 -2.6Q194.1 -3.0 194.6 -3.2Q195.1 -3.5 195.8 -3.5L198.0 -3.6V-2.8L195.9 -2.7Q195.3 -2.7 195.0 -2.4Q194.7 -2.2 194.7 -1.7V-1.7Q194.7 -1.3 195.0 -1.0Q195.3 -0.8 195.8 -0.8Q196.3 -0.8 196.7 -1.0Q197.1 -1.2 197.3 -1.5Q197.5 -1.8 197.5 -2.3V-4.1Q197.5 -4.7 197.2 -5.0Q196.8 -5.2 196.2 -5.2Q195.7 -5.2 195.3 -5.1Q195.0 -4.9 194.9 -4.5L194.9 -4.5H193.8L193.8 -4.5Q193.9 -5.0 194.2 -5.4Q194.5 -5.8 195.0 -6.0Q195.6 -6.2 196.2 -6.2Q197.0 -6.2 197.5 -5.9Q198.0 -5.7 198.3 -5.2Q198.6 -4.8 198.6 -4.2V0.0H197.5V-0.9H197.4Q197.2 -0.6 196.9 -0.3Q196.7 -0.1 196.3 -0.0Q196.0 0.1 195.6 0.1Z M203.0 0.1Q202.1 0.1 201.5 -0.3Q200.8 -0.7 200.5 -1.4Q200.1 -2.1 200.1 -3.0V-3.1Q200.1 -4.0 200.5 -4.7Q200.8 -5.4 201.5 -5.8Q202.1 -6.2 203.0 -6.2Q203.7 -6.2 204.3 -5.9Q204.8 -5.7 205.1 -5.2Q205.4 -4.8 205.5 -4.2L205.5 -4.2H204.5L204.5 -4.2Q204.4 -4.6 204.0 -4.9Q203.6 -5.2 203.0 -5.2Q202.4 -5.2 202.1 -5.0Q201.7 -4.7 201.5 -4.2Q201.3 -3.7 201.3 -3.1V-3.0Q201.3 -2.4 201.5 -1.9Q201.7 -1.4 202.1 -1.1Q202.4 -0.8 203.0 -0.8Q203.6 -0.8 203.9 -1.1Q204.3 -1.3 204.5 -1.8L204.5 -1.9L205.5 -1.9L205.5 -1.8Q205.4 -1.3 205.1 -0.8Q204.8 -0.4 204.2 -0.1Q203.7 0.1 203.0 0.1Z M209.3 0.0Q208.3 0.0 207.9 -0.3Q207.4 -0.7 207.4 -1.6V-5.2H206.5V-6.1H207.4V-7.6H208.6V-6.1H209.9V-5.2H208.6V-1.8Q208.6 -1.3 208.8 -1.1Q209.0 -0.9 209.4 -0.9Q209.6 -0.9 209.7 -0.9Q209.7 -0.9 209.9 -0.9V-0.0Q209.7 0.0 209.6 0.0Q209.4 0.0 209.3 0.0Z M213.5 0.1Q212.8 0.1 212.3 -0.2Q211.9 -0.4 211.6 -0.9Q211.4 -1.4 211.4 -2.1V-6.1H212.5V-2.4Q212.5 -1.6 212.8 -1.2Q213.1 -0.8 213.8 -0.8Q214.2 -0.8 214.5 -1.0Q214.8 -1.1 215.0 -1.3Q215.2 -1.5 215.3 -1.8Q215.4 -2.1 215.4 -2.5V-6.1H216.4V0.0H215.4V-0.9H215.3Q215.1 -0.6 214.9 -0.4Q214.6 -0.1 214.3 -0.0Q213.9 0.1 213.5 0.1Z M220.0 0.1Q219.5 0.1 219.0 -0.1Q218.5 -0.3 218.3 -0.7Q218.0 -1.1 218.0 -1.7V-1.7Q218.0 -2.3 218.3 -2.6Q218.5 -3.0 219.0 -3.2Q219.5 -3.5 220.2 -3.5L222.5 -3.6V-2.8L220.4 -2.7Q219.7 -2.7 219.4 -2.4Q219.1 -2.2 219.1 -1.7V-1.7Q219.1 -1.3 219.4 -1.0Q219.8 -0.8 220.3 -0.8Q220.8 -0.8 221.1 -1.0Q221.5 -1.2 221.7 -1.5Q221.9 -1.8 221.9 -2.3V-4.1Q221.9 -4.7 221.6 -5.0Q221.3 -5.2 220.6 -5.2Q220.1 -5.2 219.8 -5.1Q219.4 -4.9 219.3 -4.5L219.3 -4.5H218.3L218.3 -4.5Q218.3 -5.0 218.7 -5.4Q219.0 -5.8 219.5 -6.0Q220.0 -6.2 220.7 -6.2Q221.4 -6.2 222.0 -5.9Q222.5 -5.7 222.8 -5.2Q223.0 -4.8 223.0 -4.2V0.0H221.9V-0.9H221.9Q221.7 -0.6 221.4 -0.3Q221.1 -0.1 220.8 -0.0Q220.4 0.1 220.0 0.1Z M225.0 0.0V-8.5H226.0V0.0Z M228.1 0.0V-8.5H229.2V0.0Z M231.7 2.1Q231.6 2.1 231.5 2.1Q231.3 2.1 231.2 2.1V1.2Q231.3 1.2 231.4 1.2Q231.5 1.2 231.6 1.2Q232.1 1.2 232.3 1.0Q232.6 0.8 232.7 0.3L232.8 0.0L230.6 -6.1H231.8L233.6 -0.5L233.2 -1.1H233.7L233.3 -0.5L235.1 -6.1H236.2L233.9 0.3Q233.6 1.0 233.4 1.4Q233.1 1.8 232.7 2.0Q232.3 2.1 231.7 2.1Z M243.1 0.1Q242.4 0.1 241.8 -0.3Q241.2 -0.7 240.9 -1.4Q240.6 -2.1 240.6 -3.0V-3.0Q240.6 -4.0 240.9 -4.7Q241.2 -5.4 241.8 -5.8Q242.4 -6.2 243.1 -6.2Q243.5 -6.2 243.9 -6.0Q244.3 -5.9 244.6 -5.7Q244.8 -5.4 245.0 -5.1H245.1V-8.5H246.2V0.0H245.1V-1.0H245.0Q244.8 -0.6 244.5 -0.4Q244.3 -0.2 243.9 -0.0Q243.6 0.1 243.1 0.1ZM243.4 -0.8Q243.9 -0.8 244.3 -1.1Q244.7 -1.4 244.9 -1.9Q245.1 -2.4 245.1 -3.0V-3.0Q245.1 -3.7 244.9 -4.2Q244.7 -4.7 244.3 -5.0Q243.9 -5.2 243.4 -5.2Q242.9 -5.2 242.5 -5.0Q242.1 -4.7 241.9 -4.2Q241.7 -3.7 241.7 -3.0V-3.0Q241.7 -2.3 241.9 -1.9Q242.1 -1.4 242.5 -1.1Q242.9 -0.8 243.4 -0.8Z M250.7 0.1Q249.8 0.1 249.2 -0.3Q248.5 -0.7 248.2 -1.4Q247.9 -2.1 247.9 -3.0V-3.0Q247.9 -4.0 248.2 -4.7Q248.5 -5.4 249.1 -5.8Q249.8 -6.2 250.6 -6.2Q251.4 -6.2 252.0 -5.8Q252.6 -5.4 253.0 -4.7Q253.3 -4.0 253.3 -3.1V-2.7H248.4V-3.6H252.7L252.2 -2.8V-3.2Q252.2 -3.9 252.0 -4.4Q251.8 -4.8 251.4 -5.0Q251.1 -5.2 250.6 -5.2Q250.1 -5.2 249.8 -5.0Q249.4 -4.8 249.2 -4.3Q249.0 -3.9 249.0 -3.2V-2.8Q249.0 -2.2 249.2 -1.7Q249.4 -1.3 249.8 -1.1Q250.2 -0.8 250.7 -0.8Q251.1 -0.8 251.4 -0.9Q251.7 -1.0 251.9 -1.2Q252.1 -1.4 252.1 -1.6L252.2 -1.6L253.2 -1.6L253.2 -1.6Q253.1 -1.2 252.9 -1.0Q252.7 -0.7 252.4 -0.4Q252.1 -0.2 251.7 -0.0Q251.2 0.1 250.7 0.1Z M254.9 2.0V-6.1H256.0V-5.1H256.1Q256.3 -5.4 256.5 -5.7Q256.8 -5.9 257.2 -6.0Q257.5 -6.2 258.0 -6.2Q258.7 -6.2 259.3 -5.8Q259.9 -5.4 260.2 -4.7Q260.5 -4.0 260.5 -3.0V-3.0Q260.5 -2.1 260.2 -1.4Q259.9 -0.7 259.3 -0.3Q258.7 0.1 258.0 0.1Q257.5 0.1 257.2 -0.0Q256.8 -0.2 256.5 -0.4Q256.2 -0.6 256.1 -1.0H256.0V2.0ZM257.7 -0.8Q258.2 -0.8 258.6 -1.1Q259.0 -1.4 259.2 -1.9Q259.4 -2.3 259.4 -3.0V-3.0Q259.4 -3.7 259.2 -4.2Q259.0 -4.7 258.6 -5.0Q258.2 -5.2 257.7 -5.2Q257.2 -5.2 256.8 -5.0Q256.4 -4.7 256.2 -4.2Q256.0 -3.7 256.0 -3.0V-3.0Q256.0 -2.4 256.2 -1.9Q256.4 -1.4 256.8 -1.1Q257.2 -0.8 257.7 -0.8Z M262.2 0.0V-8.5H263.3V0.0Z M267.8 0.1Q266.9 0.1 266.2 -0.3Q265.6 -0.6 265.3 -1.4Q264.9 -2.1 264.9 -3.0V-3.0Q264.9 -4.0 265.3 -4.7Q265.6 -5.4 266.2 -5.8Q266.9 -6.2 267.8 -6.2Q268.6 -6.2 269.3 -5.8Q269.9 -5.4 270.2 -4.7Q270.6 -4.0 270.6 -3.0V-3.0Q270.6 -2.1 270.2 -1.4Q269.9 -0.6 269.3 -0.3Q268.6 0.1 267.8 0.1ZM267.8 -0.8Q268.3 -0.8 268.7 -1.1Q269.1 -1.3 269.3 -1.8Q269.5 -2.3 269.5 -3.0V-3.0Q269.5 -3.7 269.3 -4.2Q269.1 -4.7 268.7 -5.0Q268.3 -5.2 267.8 -5.2Q267.2 -5.2 266.8 -5.0Q266.4 -4.7 266.2 -4.2Q266.0 -3.7 266.0 -3.0V-3.0Q266.0 -2.3 266.2 -1.8Q266.4 -1.3 266.8 -1.1Q267.2 -0.8 267.8 -0.8Z M272.7 2.1Q272.6 2.1 272.5 2.1Q272.4 2.1 272.3 2.1V1.2Q272.4 1.2 272.5 1.2Q272.6 1.2 272.7 1.2Q273.1 1.2 273.4 1.0Q273.6 0.8 273.8 0.3L273.9 0.0L271.7 -6.1H272.8L274.6 -0.5L274.3 -1.1H274.7L274.3 -0.5L276.1 -6.1H277.3L275.0 0.3Q274.7 1.0 274.4 1.4Q274.1 1.8 273.7 2.0Q273.3 2.1 272.7 2.1Z M280.8 0.1Q280.1 0.1 279.6 -0.1Q279.0 -0.3 278.7 -0.7Q278.4 -1.1 278.4 -1.6L278.4 -1.6H279.5L279.5 -1.6Q279.6 -1.2 279.9 -1.0Q280.3 -0.8 280.8 -0.8Q281.2 -0.8 281.5 -0.9Q281.8 -1.0 282.0 -1.2Q282.2 -1.4 282.2 -1.7V-1.7Q282.2 -2.0 281.9 -2.2Q281.7 -2.4 281.1 -2.5L280.2 -2.7Q279.6 -2.9 279.2 -3.1Q278.9 -3.3 278.7 -3.6Q278.5 -3.9 278.5 -4.4V-4.4Q278.5 -4.9 278.8 -5.3Q279.1 -5.7 279.6 -5.9Q280.2 -6.2 280.8 -6.2Q281.5 -6.2 282.0 -6.0Q282.5 -5.8 282.8 -5.4Q283.1 -5.0 283.2 -4.5L283.2 -4.5H282.1L282.1 -4.5Q282.0 -4.9 281.7 -5.1Q281.4 -5.3 280.8 -5.3Q280.5 -5.3 280.2 -5.2Q279.9 -5.1 279.8 -4.9Q279.6 -4.7 279.6 -4.4V-4.4Q279.6 -4.2 279.7 -4.1Q279.8 -3.9 280.0 -3.8Q280.3 -3.7 280.6 -3.6L281.6 -3.4Q282.1 -3.3 282.5 -3.0Q282.9 -2.8 283.1 -2.5Q283.3 -2.2 283.3 -1.8V-1.7Q283.3 -1.2 282.9 -0.8Q282.6 -0.4 282.1 -0.1Q281.5 0.1 280.8 0.1Z M284.6 2.1 285.1 -1.2H286.3L285.4 2.1Z"/></g><g transform="translate(46,93)" fill="#9CA3AF"><path d="M2.1 0.0 0.4 -6.1H1.5L2.6 -1.3H2.7L4.0 -6.1H5.0L6.3 -1.3H6.4L7.6 -6.1H8.6L7.0 0.0H5.9L4.5 -4.6H4.5L3.2 0.0Z M10.1 0.0V-8.5H11.2V-5.1H11.3Q11.5 -5.6 11.9 -5.9Q12.4 -6.2 13.0 -6.2Q13.7 -6.2 14.2 -5.9Q14.7 -5.6 14.9 -5.1Q15.2 -4.6 15.2 -3.9V0.0H14.1V-3.7Q14.1 -4.5 13.7 -4.8Q13.4 -5.2 12.7 -5.2Q12.2 -5.2 11.9 -5.0Q11.6 -4.8 11.4 -4.5Q11.2 -4.1 11.2 -3.6V0.0Z M18.7 0.1Q18.1 0.1 17.7 -0.1Q17.2 -0.3 16.9 -0.7Q16.7 -1.1 16.7 -1.7V-1.7Q16.7 -2.3 16.9 -2.6Q17.2 -3.0 17.7 -3.2Q18.2 -3.5 18.9 -3.5L21.1 -3.6V-2.8L19.0 -2.7Q18.4 -2.7 18.1 -2.4Q17.8 -2.2 17.8 -1.7V-1.7Q17.8 -1.3 18.1 -1.0Q18.4 -0.8 18.9 -0.8Q19.4 -0.8 19.8 -1.0Q20.2 -1.2 20.4 -1.5Q20.6 -1.8 20.6 -2.3V-4.1Q20.6 -4.7 20.3 -5.0Q19.9 -5.2 19.3 -5.2Q18.8 -5.2 18.4 -5.1Q18.1 -4.9 18.0 -4.5L18.0 -4.5H16.9L16.9 -4.5Q17.0 -5.0 17.3 -5.4Q17.6 -5.8 18.1 -6.0Q18.7 -6.2 19.3 -6.2Q20.1 -6.2 20.6 -5.9Q21.1 -5.7 21.4 -5.2Q21.7 -4.8 21.7 -4.2V0.0H20.6V-0.9H20.5Q20.3 -0.6 20.1 -0.3Q19.8 -0.1 19.4 -0.0Q19.1 0.1 18.7 0.1Z M25.8 0.0Q24.8 0.0 24.4 -0.3Q23.9 -0.7 23.9 -1.6V-5.2H23.0V-6.1H23.9V-7.6H25.1V-6.1H26.4V-5.2H25.1V-1.8Q25.1 -1.3 25.3 -1.1Q25.5 -0.9 25.9 -0.9Q26.1 -0.9 26.2 -0.9Q26.2 -0.9 26.4 -0.9V-0.0Q26.2 0.0 26.1 0.0Q25.9 0.0 25.8 0.0Z M28.4 -4.9 28.2 -8.1H29.4L29.2 -4.9Z M33.7 0.1Q33.0 0.1 32.5 -0.1Q32.0 -0.3 31.7 -0.7Q31.3 -1.1 31.3 -1.6L31.3 -1.6H32.4L32.4 -1.6Q32.5 -1.2 32.8 -1.0Q33.2 -0.8 33.8 -0.8Q34.1 -0.8 34.4 -0.9Q34.7 -1.0 34.9 -1.2Q35.1 -1.4 35.1 -1.7V-1.7Q35.1 -2.0 34.8 -2.2Q34.6 -2.4 34.1 -2.5L33.1 -2.7Q32.5 -2.9 32.2 -3.1Q31.8 -3.3 31.6 -3.6Q31.4 -3.9 31.4 -4.4V-4.4Q31.4 -4.9 31.7 -5.3Q32.0 -5.7 32.6 -5.9Q33.1 -6.2 33.8 -6.2Q34.4 -6.2 34.9 -6.0Q35.4 -5.8 35.7 -5.4Q36.0 -5.0 36.1 -4.5L36.1 -4.5H35.0L35.0 -4.5Q34.9 -4.9 34.6 -5.1Q34.3 -5.3 33.7 -5.3Q33.4 -5.3 33.1 -5.2Q32.9 -5.1 32.7 -4.9Q32.5 -4.7 32.5 -4.4V-4.4Q32.5 -4.2 32.7 -4.1Q32.8 -3.9 33.0 -3.8Q33.2 -3.7 33.5 -3.6L34.5 -3.4Q35.1 -3.3 35.4 -3.0Q35.8 -2.8 36.0 -2.5Q36.2 -2.2 36.2 -1.8V-1.7Q36.2 -1.2 35.9 -0.8Q35.5 -0.4 35.0 -0.1Q34.4 0.1 33.7 0.1Z M41.5 0.0V-5.2H40.5V-6.1H41.5V-6.7Q41.5 -7.3 41.7 -7.7Q41.9 -8.1 42.3 -8.3Q42.7 -8.5 43.3 -8.5Q43.5 -8.5 43.7 -8.5Q43.9 -8.5 44.0 -8.5V-7.6Q43.9 -7.6 43.8 -7.6Q43.7 -7.7 43.5 -7.7Q43.0 -7.7 42.8 -7.4Q42.6 -7.2 42.6 -6.7V-6.1H44.0V-5.2H42.6V0.0Z M47.1 0.1Q46.6 0.1 46.1 -0.1Q45.7 -0.3 45.4 -0.7Q45.1 -1.1 45.1 -1.7V-1.7Q45.1 -2.3 45.4 -2.6Q45.6 -3.0 46.1 -3.2Q46.6 -3.5 47.4 -3.5L49.6 -3.6V-2.8L47.5 -2.7Q46.8 -2.7 46.5 -2.4Q46.2 -2.2 46.2 -1.7V-1.7Q46.2 -1.3 46.6 -1.0Q46.9 -0.8 47.4 -0.8Q47.9 -0.8 48.2 -1.0Q48.6 -1.2 48.8 -1.5Q49.0 -1.8 49.0 -2.3V-4.1Q49.0 -4.7 48.7 -5.0Q48.4 -5.2 47.7 -5.2Q47.2 -5.2 46.9 -5.1Q46.5 -4.9 46.4 -4.5L46.4 -4.5H45.4L45.4 -4.5Q45.4 -5.0 45.8 -5.4Q46.1 -5.8 46.6 -6.0Q47.1 -6.2 47.8 -6.2Q48.5 -6.2 49.1 -5.9Q49.6 -5.7 49.9 -5.2Q50.1 -4.8 50.1 -4.2V0.0H49.0V-0.9H49.0Q48.8 -0.6 48.5 -0.3Q48.2 -0.1 47.9 -0.0Q47.5 0.1 47.1 0.1Z M55.1 0.1Q54.7 0.1 54.3 -0.0Q54.0 -0.2 53.7 -0.4Q53.4 -0.6 53.2 -1.0H53.2V0.0H52.1V-8.5H53.2V-5.1H53.2Q53.4 -5.4 53.7 -5.7Q54.0 -5.9 54.3 -6.0Q54.7 -6.2 55.1 -6.2Q55.9 -6.2 56.5 -5.8Q57.0 -5.4 57.3 -4.7Q57.7 -4.0 57.7 -3.0V-3.0Q57.7 -2.1 57.3 -1.4Q57.0 -0.7 56.5 -0.3Q55.9 0.1 55.1 0.1ZM54.8 -0.8Q55.4 -0.8 55.8 -1.1Q56.1 -1.4 56.3 -1.9Q56.5 -2.3 56.5 -3.0V-3.0Q56.5 -3.7 56.3 -4.2Q56.1 -4.7 55.8 -5.0Q55.4 -5.2 54.8 -5.2Q54.3 -5.2 53.9 -5.0Q53.5 -4.7 53.3 -4.2Q53.1 -3.7 53.1 -3.0V-3.0Q53.1 -2.4 53.3 -1.9Q53.5 -1.4 53.9 -1.1Q54.3 -0.8 54.8 -0.8Z M59.3 0.0V-6.1H60.4V-5.2H60.4Q60.6 -5.6 61.0 -5.9Q61.4 -6.2 62.0 -6.2Q62.2 -6.2 62.3 -6.2Q62.5 -6.1 62.5 -6.1V-5.1Q62.4 -5.1 62.2 -5.1Q62.1 -5.2 61.9 -5.2Q61.5 -5.2 61.1 -5.0Q60.8 -4.8 60.6 -4.5Q60.4 -4.1 60.4 -3.7V0.0Z M63.9 0.0V-6.1H65.0V0.0ZM64.4 -7.2Q64.1 -7.2 63.9 -7.4Q63.7 -7.6 63.7 -7.9Q63.7 -8.2 63.9 -8.4Q64.1 -8.6 64.4 -8.6Q64.7 -8.6 64.9 -8.4Q65.1 -8.2 65.1 -7.9Q65.1 -7.6 64.9 -7.4Q64.7 -7.2 64.4 -7.2Z M69.4 0.1Q68.6 0.1 67.9 -0.3Q67.3 -0.7 67.0 -1.4Q66.6 -2.1 66.6 -3.0V-3.1Q66.6 -4.0 66.9 -4.7Q67.3 -5.4 67.9 -5.8Q68.6 -6.2 69.4 -6.2Q70.2 -6.2 70.7 -5.9Q71.3 -5.7 71.6 -5.2Q71.9 -4.8 72.0 -4.2L72.0 -4.2H70.9L70.9 -4.2Q70.8 -4.6 70.4 -4.9Q70.1 -5.2 69.4 -5.2Q68.9 -5.2 68.5 -5.0Q68.1 -4.7 67.9 -4.2Q67.7 -3.7 67.7 -3.1V-3.0Q67.7 -2.4 67.9 -1.9Q68.1 -1.4 68.5 -1.1Q68.9 -0.8 69.4 -0.8Q70.0 -0.8 70.4 -1.1Q70.8 -1.3 70.9 -1.8L70.9 -1.9L72.0 -1.9L72.0 -1.8Q71.9 -1.3 71.5 -0.8Q71.2 -0.4 70.7 -0.1Q70.2 0.1 69.4 0.1Z M75.2 0.1Q74.6 0.1 74.2 -0.1Q73.7 -0.3 73.4 -0.7Q73.2 -1.1 73.2 -1.7V-1.7Q73.2 -2.3 73.4 -2.6Q73.7 -3.0 74.2 -3.2Q74.7 -3.5 75.4 -3.5L77.6 -3.6V-2.8L75.5 -2.7Q74.9 -2.7 74.6 -2.4Q74.3 -2.2 74.3 -1.7V-1.7Q74.3 -1.3 74.6 -1.0Q74.9 -0.8 75.4 -0.8Q75.9 -0.8 76.3 -1.0Q76.7 -1.2 76.9 -1.5Q77.1 -1.8 77.1 -2.3V-4.1Q77.1 -4.7 76.8 -5.0Q76.4 -5.2 75.8 -5.2Q75.3 -5.2 74.9 -5.1Q74.6 -4.9 74.5 -4.5L74.5 -4.5H73.4L73.4 -4.5Q73.5 -5.0 73.8 -5.4Q74.1 -5.8 74.6 -6.0Q75.2 -6.2 75.8 -6.2Q76.6 -6.2 77.1 -5.9Q77.6 -5.7 77.9 -5.2Q78.2 -4.8 78.2 -4.2V0.0H77.1V-0.9H77.0Q76.8 -0.6 76.6 -0.3Q76.3 -0.1 75.9 -0.0Q75.6 0.1 75.2 0.1Z M82.3 0.0Q81.3 0.0 80.9 -0.3Q80.4 -0.7 80.4 -1.6V-5.2H79.5V-6.1H80.4V-7.6H81.6V-6.1H82.9V-5.2H81.6V-1.8Q81.6 -1.3 81.8 -1.1Q82.0 -0.9 82.4 -0.9Q82.6 -0.9 82.7 -0.9Q82.7 -0.9 82.9 -0.9V-0.0Q82.7 0.0 82.6 0.0Q82.4 0.0 82.3 0.0Z M87.0 0.1Q86.1 0.1 85.5 -0.3Q84.8 -0.7 84.5 -1.4Q84.1 -2.1 84.1 -3.0V-3.0Q84.1 -4.0 84.5 -4.7Q84.8 -5.4 85.4 -5.8Q86.1 -6.2 86.9 -6.2Q87.7 -6.2 88.3 -5.8Q88.9 -5.4 89.3 -4.7Q89.6 -4.0 89.6 -3.1V-2.7H84.7V-3.6H89.0L88.5 -2.8V-3.2Q88.5 -3.9 88.3 -4.4Q88.1 -4.8 87.7 -5.0Q87.4 -5.2 86.9 -5.2Q86.4 -5.2 86.1 -5.0Q85.7 -4.8 85.5 -4.3Q85.2 -3.9 85.2 -3.2V-2.8Q85.2 -2.2 85.5 -1.7Q85.7 -1.3 86.1 -1.1Q86.4 -0.8 87.0 -0.8Q87.4 -0.8 87.7 -0.9Q88.0 -1.0 88.2 -1.2Q88.3 -1.4 88.4 -1.6L88.4 -1.6L89.5 -1.6L89.5 -1.6Q89.4 -1.2 89.2 -1.0Q89.0 -0.7 88.7 -0.4Q88.4 -0.2 88.0 -0.0Q87.5 0.1 87.0 0.1Z M93.4 0.1Q92.7 0.1 92.1 -0.3Q91.5 -0.7 91.2 -1.4Q90.9 -2.1 90.9 -3.0V-3.0Q90.9 -4.0 91.2 -4.7Q91.5 -5.4 92.1 -5.8Q92.7 -6.2 93.4 -6.2Q93.8 -6.2 94.2 -6.0Q94.6 -5.9 94.9 -5.7Q95.1 -5.4 95.3 -5.1H95.4V-8.5H96.5V0.0H95.4V-1.0H95.3Q95.1 -0.6 94.8 -0.4Q94.6 -0.2 94.2 -0.0Q93.8 0.1 93.4 0.1ZM93.7 -0.8Q94.2 -0.8 94.6 -1.1Q95.0 -1.4 95.2 -1.9Q95.4 -2.4 95.4 -3.0V-3.0Q95.4 -3.7 95.2 -4.2Q95.0 -4.7 94.6 -5.0Q94.2 -5.2 93.7 -5.2Q93.2 -5.2 92.8 -5.0Q92.4 -4.7 92.2 -4.2Q92.0 -3.7 92.0 -3.0V-3.0Q92.0 -2.3 92.2 -1.9Q92.4 -1.4 92.8 -1.1Q93.2 -0.8 93.7 -0.8Z M98.2 2.1 98.7 -1.2H99.9L99.0 2.1Z M106.5 0.0 104.8 -6.1H105.9L107.1 -1.3H107.2L108.5 -6.1H109.5L110.8 -1.3H110.9L112.0 -6.1H113.1L111.4 0.0H110.3L109.0 -4.6H108.9L107.6 0.0Z M114.6 0.0V-8.5H115.7V-5.1H115.8Q116.0 -5.6 116.4 -5.9Q116.9 -6.2 117.5 -6.2Q118.2 -6.2 118.7 -5.9Q119.1 -5.6 119.4 -5.1Q119.6 -4.6 119.6 -3.9V0.0H118.6V-3.7Q118.6 -4.5 118.2 -4.8Q117.9 -5.2 117.2 -5.2Q116.7 -5.2 116.4 -5.0Q116.0 -4.8 115.9 -4.5Q115.7 -4.1 115.7 -3.6V0.0Z M124.0 0.1Q123.1 0.1 122.5 -0.3Q121.9 -0.7 121.5 -1.4Q121.2 -2.1 121.2 -3.0V-3.0Q121.2 -4.0 121.5 -4.7Q121.9 -5.4 122.5 -5.8Q123.1 -6.2 123.9 -6.2Q124.8 -6.2 125.4 -5.8Q126.0 -5.4 126.3 -4.7Q126.6 -4.0 126.6 -3.1V-2.7H121.8V-3.6H126.1L125.6 -2.8V-3.2Q125.6 -3.9 125.3 -4.4Q125.1 -4.8 124.8 -5.0Q124.4 -5.2 123.9 -5.2Q123.5 -5.2 123.1 -5.0Q122.7 -4.8 122.5 -4.3Q122.3 -3.9 122.3 -3.2V-2.8Q122.3 -2.2 122.5 -1.7Q122.7 -1.3 123.1 -1.1Q123.5 -0.8 124.0 -0.8Q124.4 -0.8 124.7 -0.9Q125.0 -1.0 125.2 -1.2Q125.4 -1.4 125.5 -1.6L125.5 -1.6L126.6 -1.6L126.6 -1.6Q126.5 -1.2 126.3 -1.0Q126.1 -0.7 125.8 -0.4Q125.4 -0.2 125.0 -0.0Q124.6 0.1 124.0 0.1Z M130.5 0.0Q129.5 0.0 129.1 -0.3Q128.6 -0.7 128.6 -1.6V-5.2H127.7V-6.1H128.6V-7.6H129.8V-6.1H131.1V-5.2H129.8V-1.8Q129.8 -1.3 130.0 -1.1Q130.2 -0.9 130.6 -0.9Q130.7 -0.9 130.8 -0.9Q130.9 -0.9 131.1 -0.9V-0.0Q130.9 0.0 130.8 0.0Q130.6 0.0 130.5 0.0Z M132.7 0.0V-8.5H133.8V-5.1H133.9Q134.1 -5.6 134.5 -5.9Q135.0 -6.2 135.6 -6.2Q136.3 -6.2 136.8 -5.9Q137.3 -5.6 137.5 -5.1Q137.7 -4.6 137.7 -3.9V0.0H136.7V-3.7Q136.7 -4.5 136.3 -4.8Q136.0 -5.2 135.3 -5.2Q134.8 -5.2 134.5 -5.0Q134.1 -4.8 134.0 -4.5Q133.8 -4.1 133.8 -3.6V0.0Z M142.1 0.1Q141.2 0.1 140.6 -0.3Q140.0 -0.7 139.6 -1.4Q139.3 -2.1 139.3 -3.0V-3.0Q139.3 -4.0 139.6 -4.7Q140.0 -5.4 140.6 -5.8Q141.2 -6.2 142.1 -6.2Q142.9 -6.2 143.5 -5.8Q144.1 -5.4 144.4 -4.7Q144.7 -4.0 144.7 -3.1V-2.7H139.9V-3.6H144.2L143.7 -2.8V-3.2Q143.7 -3.9 143.5 -4.4Q143.3 -4.8 142.9 -5.0Q142.5 -5.2 142.1 -5.2Q141.6 -5.2 141.2 -5.0Q140.8 -4.8 140.6 -4.3Q140.4 -3.9 140.4 -3.2V-2.8Q140.4 -2.2 140.6 -1.7Q140.8 -1.3 141.2 -1.1Q141.6 -0.8 142.1 -0.8Q142.5 -0.8 142.8 -0.9Q143.1 -1.0 143.3 -1.2Q143.5 -1.4 143.6 -1.6L143.6 -1.6L144.7 -1.6L144.7 -1.6Q144.6 -1.2 144.4 -1.0Q144.2 -0.7 143.9 -0.4Q143.6 -0.2 143.1 -0.0Q142.7 0.1 142.1 0.1Z M146.4 0.0V-6.1H147.4V-5.2H147.5Q147.7 -5.6 148.1 -5.9Q148.5 -6.2 149.1 -6.2Q149.3 -6.2 149.4 -6.2Q149.6 -6.1 149.6 -6.1V-5.1Q149.5 -5.1 149.3 -5.1Q149.2 -5.2 149.0 -5.2Q148.5 -5.2 148.2 -5.0Q147.8 -4.8 147.6 -4.5Q147.4 -4.1 147.4 -3.7V0.0Z M156.5 0.0Q155.5 0.0 155.1 -0.3Q154.6 -0.7 154.6 -1.6V-5.2H153.7V-6.1H154.6V-7.6H155.8V-6.1H157.1V-5.2H155.8V-1.8Q155.8 -1.3 156.0 -1.1Q156.2 -0.9 156.6 -0.9Q156.8 -0.9 156.8 -0.9Q156.9 -0.9 157.1 -0.9V-0.0Q156.9 0.0 156.8 0.0Q156.6 0.0 156.5 0.0Z M158.7 0.0V-8.5H159.8V-5.1H159.9Q160.1 -5.6 160.5 -5.9Q161.0 -6.2 161.6 -6.2Q162.3 -6.2 162.8 -5.9Q163.3 -5.6 163.5 -5.1Q163.8 -4.6 163.8 -3.9V0.0H162.7V-3.7Q162.7 -4.5 162.3 -4.8Q162.0 -5.2 161.3 -5.2Q160.8 -5.2 160.5 -5.0Q160.2 -4.8 160.0 -4.5Q159.8 -4.1 159.8 -3.6V0.0Z M168.1 0.1Q167.2 0.1 166.6 -0.3Q166.0 -0.7 165.7 -1.4Q165.3 -2.1 165.3 -3.0V-3.0Q165.3 -4.0 165.7 -4.7Q166.0 -5.4 166.6 -5.8Q167.2 -6.2 168.1 -6.2Q168.9 -6.2 169.5 -5.8Q170.1 -5.4 170.4 -4.7Q170.7 -4.0 170.7 -3.1V-2.7H165.9V-3.6H170.2L169.7 -2.8V-3.2Q169.7 -3.9 169.5 -4.4Q169.3 -4.8 168.9 -5.0Q168.5 -5.2 168.1 -5.2Q167.6 -5.2 167.2 -5.0Q166.8 -4.8 166.6 -4.3Q166.4 -3.9 166.4 -3.2V-2.8Q166.4 -2.2 166.6 -1.7Q166.8 -1.3 167.2 -1.1Q167.6 -0.8 168.1 -0.8Q168.5 -0.8 168.8 -0.9Q169.1 -1.0 169.3 -1.2Q169.5 -1.4 169.6 -1.6L169.6 -1.6L170.7 -1.6L170.7 -1.6Q170.6 -1.2 170.4 -1.0Q170.2 -0.7 169.9 -0.4Q169.6 -0.2 169.1 -0.0Q168.7 0.1 168.1 0.1Z M176.1 0.0V-5.2H175.1V-6.1H176.1V-6.7Q176.1 -7.3 176.3 -7.7Q176.5 -8.1 176.9 -8.3Q177.3 -8.5 177.9 -8.5Q178.1 -8.5 178.2 -8.5Q178.4 -8.5 178.6 -8.5V-7.6Q178.5 -7.6 178.4 -7.6Q178.2 -7.7 178.1 -7.7Q177.6 -7.7 177.4 -7.4Q177.2 -7.2 177.2 -6.7V-6.1H178.5V-5.2H177.2V0.0Z M182.5 0.1Q181.7 0.1 181.0 -0.3Q180.4 -0.7 180.1 -1.4Q179.7 -2.1 179.7 -3.0V-3.0Q179.7 -4.0 180.1 -4.7Q180.4 -5.4 181.0 -5.8Q181.6 -6.2 182.5 -6.2Q183.3 -6.2 183.9 -5.8Q184.5 -5.4 184.8 -4.7Q185.2 -4.0 185.2 -3.1V-2.7H180.3V-3.6H184.6L184.1 -2.8V-3.2Q184.1 -3.9 183.9 -4.4Q183.7 -4.8 183.3 -5.0Q182.9 -5.2 182.5 -5.2Q182.0 -5.2 181.6 -5.0Q181.3 -4.8 181.0 -4.3Q180.8 -3.9 180.8 -3.2V-2.8Q180.8 -2.2 181.0 -1.7Q181.3 -1.3 181.6 -1.1Q182.0 -0.8 182.6 -0.8Q183.0 -0.8 183.3 -0.9Q183.6 -1.0 183.7 -1.2Q183.9 -1.4 184.0 -1.6L184.0 -1.6L185.1 -1.6L185.1 -1.6Q185.0 -1.2 184.8 -1.0Q184.6 -0.7 184.3 -0.4Q184.0 -0.2 183.5 -0.0Q183.1 0.1 182.5 0.1Z M189.3 0.1Q188.4 0.1 187.8 -0.3Q187.2 -0.7 186.8 -1.4Q186.5 -2.1 186.5 -3.0V-3.0Q186.5 -4.0 186.8 -4.7Q187.2 -5.4 187.8 -5.8Q188.4 -6.2 189.2 -6.2Q190.1 -6.2 190.7 -5.8Q191.3 -5.4 191.6 -4.7Q191.9 -4.0 191.9 -3.1V-2.7H187.0V-3.6H191.4L190.8 -2.8V-3.2Q190.8 -3.9 190.6 -4.4Q190.4 -4.8 190.1 -5.0Q189.7 -5.2 189.2 -5.2Q188.8 -5.2 188.4 -5.0Q188.0 -4.8 187.8 -4.3Q187.6 -3.9 187.6 -3.2V-2.8Q187.6 -2.2 187.8 -1.7Q188.0 -1.3 188.4 -1.1Q188.8 -0.8 189.3 -0.8Q189.7 -0.8 190.0 -0.9Q190.3 -1.0 190.5 -1.2Q190.7 -1.4 190.8 -1.6L190.8 -1.6L191.8 -1.6L191.8 -1.6Q191.8 -1.2 191.6 -1.0Q191.4 -0.7 191.0 -0.4Q190.7 -0.2 190.3 -0.0Q189.8 0.1 189.3 0.1Z M195.8 0.1Q195.0 0.1 194.4 -0.3Q193.8 -0.7 193.5 -1.4Q193.2 -2.1 193.2 -3.0V-3.0Q193.2 -4.0 193.5 -4.7Q193.8 -5.4 194.4 -5.8Q195.0 -6.2 195.8 -6.2Q196.2 -6.2 196.5 -6.0Q196.9 -5.9 197.2 -5.7Q197.5 -5.4 197.6 -5.1H197.7V-8.5H198.8V0.0H197.7V-1.0H197.6Q197.5 -0.6 197.2 -0.4Q196.9 -0.2 196.5 -0.0Q196.2 0.1 195.8 0.1ZM196.0 -0.8Q196.6 -0.8 196.9 -1.1Q197.3 -1.4 197.5 -1.9Q197.7 -2.4 197.7 -3.0V-3.0Q197.7 -3.7 197.5 -4.2Q197.3 -4.7 196.9 -5.0Q196.6 -5.2 196.0 -5.2Q195.5 -5.2 195.1 -5.0Q194.7 -4.7 194.5 -4.2Q194.3 -3.7 194.3 -3.0V-3.0Q194.3 -2.3 194.5 -1.9Q194.7 -1.4 195.1 -1.1Q195.5 -0.8 196.0 -0.8Z M203.9 0.1Q203.5 0.1 203.1 -0.0Q202.7 -0.2 202.5 -0.4Q202.2 -0.6 202.0 -1.0H201.9V0.0H200.8V-8.5H201.9V-5.1H202.0Q202.2 -5.4 202.5 -5.7Q202.7 -5.9 203.1 -6.0Q203.5 -6.2 203.9 -6.2Q204.7 -6.2 205.2 -5.8Q205.8 -5.4 206.1 -4.7Q206.4 -4.0 206.4 -3.0V-3.0Q206.4 -2.1 206.1 -1.4Q205.8 -0.7 205.2 -0.3Q204.7 0.1 203.9 0.1ZM203.6 -0.8Q204.1 -0.8 204.5 -1.1Q204.9 -1.4 205.1 -1.9Q205.3 -2.3 205.3 -3.0V-3.0Q205.3 -3.7 205.1 -4.2Q204.9 -4.7 204.5 -5.0Q204.1 -5.2 203.6 -5.2Q203.1 -5.2 202.7 -5.0Q202.3 -4.7 202.1 -4.2Q201.9 -3.7 201.9 -3.0V-3.0Q201.9 -2.4 202.1 -1.9Q202.3 -1.4 202.7 -1.1Q203.1 -0.8 203.6 -0.8Z M209.7 0.1Q209.1 0.1 208.7 -0.1Q208.2 -0.3 207.9 -0.7Q207.7 -1.1 207.7 -1.7V-1.7Q207.7 -2.3 207.9 -2.6Q208.2 -3.0 208.7 -3.2Q209.2 -3.5 209.9 -3.5L212.2 -3.6V-2.8L210.1 -2.7Q209.4 -2.7 209.1 -2.4Q208.8 -2.2 208.8 -1.7V-1.7Q208.8 -1.3 209.1 -1.0Q209.4 -0.8 210.0 -0.8Q210.4 -0.8 210.8 -1.0Q211.2 -1.2 211.4 -1.5Q211.6 -1.8 211.6 -2.3V-4.1Q211.6 -4.7 211.3 -5.0Q211.0 -5.2 210.3 -5.2Q209.8 -5.2 209.4 -5.1Q209.1 -4.9 209.0 -4.5L209.0 -4.5H207.9L207.9 -4.5Q208.0 -5.0 208.3 -5.4Q208.6 -5.8 209.2 -6.0Q209.7 -6.2 210.3 -6.2Q211.1 -6.2 211.6 -5.9Q212.1 -5.7 212.4 -5.2Q212.7 -4.8 212.7 -4.2V0.0H211.6V-0.9H211.5Q211.3 -0.6 211.1 -0.3Q210.8 -0.1 210.5 -0.0Q210.1 0.1 209.7 0.1Z M217.1 0.1Q216.2 0.1 215.6 -0.3Q215.0 -0.7 214.6 -1.4Q214.3 -2.1 214.3 -3.0V-3.1Q214.3 -4.0 214.6 -4.7Q215.0 -5.4 215.6 -5.8Q216.2 -6.2 217.1 -6.2Q217.8 -6.2 218.4 -5.9Q218.9 -5.7 219.2 -5.2Q219.6 -4.8 219.6 -4.2L219.7 -4.2H218.6L218.6 -4.2Q218.5 -4.6 218.1 -4.9Q217.7 -5.2 217.1 -5.2Q216.6 -5.2 216.2 -5.0Q215.8 -4.7 215.6 -4.2Q215.4 -3.7 215.4 -3.1V-3.0Q215.4 -2.4 215.6 -1.9Q215.8 -1.4 216.2 -1.1Q216.6 -0.8 217.1 -0.8Q217.7 -0.8 218.1 -1.1Q218.4 -1.3 218.6 -1.8L218.6 -1.9L219.6 -1.9L219.6 -1.8Q219.5 -1.3 219.2 -0.8Q218.9 -0.4 218.4 -0.1Q217.8 0.1 217.1 0.1Z M221.2 0.0V-8.5H222.3V0.0ZM225.1 0.0 222.8 -2.9 223.6 -3.6 226.4 0.0ZM222.2 -2.1 222.2 -3.5H222.4L224.9 -6.1H226.2L223.4 -3.3L223.1 -3.0Z M231.0 0.0V-8.5H232.1V0.0Z M236.6 0.1Q235.7 0.1 235.1 -0.3Q234.5 -0.6 234.1 -1.4Q233.8 -2.1 233.8 -3.0V-3.0Q233.8 -4.0 234.1 -4.7Q234.5 -5.4 235.1 -5.8Q235.7 -6.2 236.6 -6.2Q237.5 -6.2 238.1 -5.8Q238.7 -5.4 239.1 -4.7Q239.4 -4.0 239.4 -3.0V-3.0Q239.4 -2.1 239.1 -1.4Q238.7 -0.6 238.1 -0.3Q237.5 0.1 236.6 0.1ZM236.6 -0.8Q237.1 -0.8 237.5 -1.1Q237.9 -1.3 238.1 -1.8Q238.3 -2.3 238.3 -3.0V-3.0Q238.3 -3.7 238.1 -4.2Q237.9 -4.7 237.5 -5.0Q237.1 -5.2 236.6 -5.2Q236.0 -5.2 235.7 -5.0Q235.3 -4.7 235.1 -4.2Q234.9 -3.7 234.9 -3.0V-3.0Q234.9 -2.3 235.1 -1.8Q235.3 -1.3 235.7 -1.1Q236.0 -0.8 236.6 -0.8Z M243.6 0.1Q242.7 0.1 242.1 -0.3Q241.4 -0.6 241.1 -1.4Q240.7 -2.1 240.7 -3.0V-3.0Q240.7 -4.0 241.1 -4.7Q241.4 -5.4 242.1 -5.8Q242.7 -6.2 243.6 -6.2Q244.4 -6.2 245.1 -5.8Q245.7 -5.4 246.0 -4.7Q246.4 -4.0 246.4 -3.0V-3.0Q246.4 -2.1 246.0 -1.4Q245.7 -0.6 245.1 -0.3Q244.4 0.1 243.6 0.1ZM243.6 -0.8Q244.1 -0.8 244.5 -1.1Q244.9 -1.3 245.1 -1.8Q245.3 -2.3 245.3 -3.0V-3.0Q245.3 -3.7 245.1 -4.2Q244.9 -4.7 244.5 -5.0Q244.1 -5.2 243.6 -5.2Q243.0 -5.2 242.6 -5.0Q242.2 -4.7 242.0 -4.2Q241.8 -3.7 241.8 -3.0V-3.0Q241.8 -2.3 242.0 -1.8Q242.2 -1.3 242.6 -1.1Q243.0 -0.8 243.6 -0.8Z M248.0 2.0V-6.1H249.1V-5.1H249.2Q249.4 -5.4 249.6 -5.7Q249.9 -5.9 250.3 -6.0Q250.6 -6.2 251.1 -6.2Q251.8 -6.2 252.4 -5.8Q253.0 -5.4 253.3 -4.7Q253.6 -4.0 253.6 -3.0V-3.0Q253.6 -2.1 253.3 -1.4Q253.0 -0.7 252.4 -0.3Q251.8 0.1 251.1 0.1Q250.6 0.1 250.3 -0.0Q249.9 -0.2 249.6 -0.4Q249.3 -0.6 249.2 -1.0H249.1V2.0ZM250.8 -0.8Q251.3 -0.8 251.7 -1.1Q252.1 -1.4 252.3 -1.9Q252.5 -2.3 252.5 -3.0V-3.0Q252.5 -3.7 252.3 -4.2Q252.1 -4.7 251.7 -5.0Q251.3 -5.2 250.8 -5.2Q250.2 -5.2 249.9 -5.0Q249.5 -4.7 249.3 -4.2Q249.1 -3.7 249.1 -3.0V-3.0Q249.1 -2.4 249.3 -1.9Q249.5 -1.4 249.9 -1.1Q250.2 -0.8 250.8 -0.8Z M261.0 0.1Q260.2 0.1 259.5 -0.3Q258.9 -0.7 258.6 -1.4Q258.2 -2.1 258.2 -3.0V-3.1Q258.2 -4.0 258.5 -4.7Q258.9 -5.4 259.5 -5.8Q260.2 -6.2 261.0 -6.2Q261.8 -6.2 262.3 -5.9Q262.9 -5.7 263.2 -5.2Q263.5 -4.8 263.6 -4.2L263.6 -4.2H262.5L262.5 -4.2Q262.4 -4.6 262.0 -4.9Q261.7 -5.2 261.0 -5.2Q260.5 -5.2 260.1 -5.0Q259.7 -4.7 259.5 -4.2Q259.3 -3.7 259.3 -3.1V-3.0Q259.3 -2.4 259.5 -1.9Q259.7 -1.4 260.1 -1.1Q260.5 -0.8 261.0 -0.8Q261.6 -0.8 262.0 -1.1Q262.4 -1.3 262.5 -1.8L262.5 -1.9L263.6 -1.9L263.6 -1.8Q263.5 -1.3 263.1 -0.8Q262.8 -0.4 262.3 -0.1Q261.8 0.1 261.0 0.1Z M265.2 0.0V-8.5H266.3V0.0Z M270.8 0.1Q269.9 0.1 269.3 -0.3Q268.6 -0.6 268.3 -1.4Q267.9 -2.1 267.9 -3.0V-3.0Q267.9 -4.0 268.3 -4.7Q268.6 -5.4 269.3 -5.8Q269.9 -6.2 270.8 -6.2Q271.6 -6.2 272.3 -5.8Q272.9 -5.4 273.2 -4.7Q273.6 -4.0 273.6 -3.0V-3.0Q273.6 -2.1 273.2 -1.4Q272.9 -0.6 272.3 -0.3Q271.6 0.1 270.8 0.1ZM270.8 -0.8Q271.3 -0.8 271.7 -1.1Q272.1 -1.3 272.3 -1.8Q272.5 -2.3 272.5 -3.0V-3.0Q272.5 -3.7 272.3 -4.2Q272.1 -4.7 271.7 -5.0Q271.3 -5.2 270.8 -5.2Q270.2 -5.2 269.8 -5.0Q269.4 -4.7 269.2 -4.2Q269.0 -3.7 269.0 -3.0V-3.0Q269.0 -2.3 269.2 -1.8Q269.4 -1.3 269.8 -1.1Q270.2 -0.8 270.8 -0.8Z M277.3 0.1Q276.6 0.1 276.1 -0.1Q275.6 -0.3 275.3 -0.7Q275.0 -1.1 274.9 -1.6L274.9 -1.6H276.0L276.0 -1.6Q276.1 -1.2 276.5 -1.0Q276.8 -0.8 277.4 -0.8Q277.8 -0.8 278.1 -0.9Q278.4 -1.0 278.5 -1.2Q278.7 -1.4 278.7 -1.7V-1.7Q278.7 -2.0 278.5 -2.2Q278.2 -2.4 277.7 -2.5L276.7 -2.7Q276.2 -2.9 275.8 -3.1Q275.4 -3.3 275.2 -3.6Q275.1 -3.9 275.1 -4.4V-4.4Q275.1 -4.9 275.4 -5.3Q275.7 -5.7 276.2 -5.9Q276.7 -6.2 277.4 -6.2Q278.0 -6.2 278.5 -6.0Q279.0 -5.8 279.3 -5.4Q279.6 -5.0 279.7 -4.5L279.7 -4.5H278.6L278.6 -4.5Q278.6 -4.9 278.2 -5.1Q277.9 -5.3 277.4 -5.3Q277.0 -5.3 276.7 -5.2Q276.5 -5.1 276.3 -4.9Q276.2 -4.7 276.2 -4.4V-4.4Q276.2 -4.2 276.3 -4.1Q276.4 -3.9 276.6 -3.8Q276.8 -3.7 277.2 -3.6L278.1 -3.4Q278.7 -3.3 279.1 -3.0Q279.4 -2.8 279.6 -2.5Q279.8 -2.2 279.8 -1.8V-1.7Q279.8 -1.2 279.5 -0.8Q279.2 -0.4 278.6 -0.1Q278.0 0.1 277.3 0.1Z M283.9 0.1Q283.1 0.1 282.4 -0.3Q281.8 -0.7 281.5 -1.4Q281.1 -2.1 281.1 -3.0V-3.0Q281.1 -4.0 281.5 -4.7Q281.8 -5.4 282.4 -5.8Q283.0 -6.2 283.9 -6.2Q284.7 -6.2 285.3 -5.8Q285.9 -5.4 286.2 -4.7Q286.6 -4.0 286.6 -3.1V-2.7H281.7V-3.6H286.0L285.5 -2.8V-3.2Q285.5 -3.9 285.3 -4.4Q285.1 -4.8 284.7 -5.0Q284.3 -5.2 283.9 -5.2Q283.4 -5.2 283.0 -5.0Q282.7 -4.8 282.4 -4.3Q282.2 -3.9 282.2 -3.2V-2.8Q282.2 -2.2 282.4 -1.7Q282.6 -1.3 283.0 -1.1Q283.4 -0.8 284.0 -0.8Q284.4 -0.8 284.6 -0.9Q284.9 -1.0 285.1 -1.2Q285.3 -1.4 285.4 -1.6L285.4 -1.6L286.5 -1.6L286.5 -1.6Q286.4 -1.2 286.2 -1.0Q286.0 -0.7 285.7 -0.4Q285.4 -0.2 284.9 -0.0Q284.5 0.1 283.9 0.1Z M290.3 0.1Q289.6 0.1 289.1 -0.1Q288.5 -0.3 288.2 -0.7Q287.9 -1.1 287.9 -1.6L287.9 -1.6H289.0L289.0 -1.6Q289.1 -1.2 289.4 -1.0Q289.8 -0.8 290.3 -0.8Q290.7 -0.8 291.0 -0.9Q291.3 -1.0 291.5 -1.2Q291.7 -1.4 291.7 -1.7V-1.7Q291.7 -2.0 291.4 -2.2Q291.2 -2.4 290.6 -2.5L289.7 -2.7Q289.1 -2.9 288.8 -3.1Q288.4 -3.3 288.2 -3.6Q288.0 -3.9 288.0 -4.4V-4.4Q288.0 -4.9 288.3 -5.3Q288.6 -5.7 289.2 -5.9Q289.7 -6.2 290.3 -6.2Q291.0 -6.2 291.5 -6.0Q292.0 -5.8 292.3 -5.4Q292.6 -5.0 292.7 -4.5L292.7 -4.5H291.6L291.6 -4.5Q291.5 -4.9 291.2 -5.1Q290.9 -5.3 290.3 -5.3Q290.0 -5.3 289.7 -5.2Q289.4 -5.1 289.3 -4.9Q289.1 -4.7 289.1 -4.4V-4.4Q289.1 -4.2 289.2 -4.1Q289.3 -3.9 289.6 -3.8Q289.8 -3.7 290.1 -3.6L291.1 -3.4Q291.6 -3.3 292.0 -3.0Q292.4 -2.8 292.6 -2.5Q292.8 -2.2 292.8 -1.8V-1.7Q292.8 -1.2 292.5 -0.8Q292.1 -0.4 291.6 -0.1Q291.0 0.1 290.3 0.1Z M295.2 0.1Q294.9 0.1 294.7 -0.2Q294.5 -0.4 294.5 -0.7Q294.5 -1.0 294.7 -1.2Q294.9 -1.5 295.2 -1.5Q295.6 -1.5 295.8 -1.2Q296.0 -1.0 296.0 -0.7Q296.0 -0.4 295.8 -0.2Q295.6 0.1 295.2 0.1Z"/></g><circle cx="51.0" cy="126.0" r="4.2" fill="#F1E05A"/><g transform="translate(60.0,129.5)" fill="#9CA3AF"><path d="M2.6 0.2Q2.1 0.2 1.7 0.0Q1.3 -0.1 1.0 -0.4Q0.7 -0.6 0.6 -1.0Q0.4 -1.4 0.4 -1.8L0.4 -1.9H1.6L1.6 -1.8Q1.6 -1.6 1.7 -1.3Q1.8 -1.1 2.0 -1.0Q2.3 -0.9 2.6 -0.9Q3.1 -0.9 3.4 -1.2Q3.6 -1.5 3.6 -2.1V-7.0H4.8V-2.1Q4.8 -1.4 4.6 -0.9Q4.3 -0.4 3.8 -0.1Q3.3 0.2 2.6 0.2Z M8.1 0.1Q7.6 0.1 7.2 -0.1Q6.8 -0.3 6.6 -0.7Q6.4 -1.0 6.4 -1.5V-1.5Q6.4 -2.0 6.6 -2.3Q6.8 -2.7 7.3 -2.9Q7.7 -3.1 8.4 -3.1L10.3 -3.2V-2.4L8.5 -2.3Q8.0 -2.3 7.8 -2.1Q7.5 -1.9 7.5 -1.6V-1.6Q7.5 -1.2 7.8 -1.0Q8.0 -0.8 8.5 -0.8Q8.8 -0.8 9.1 -1.0Q9.4 -1.1 9.6 -1.4Q9.8 -1.6 9.8 -2.0V-3.6Q9.8 -4.1 9.5 -4.3Q9.2 -4.5 8.7 -4.5Q8.3 -4.5 8.0 -4.3Q7.8 -4.2 7.7 -3.9L7.7 -3.9H6.6L6.6 -3.9Q6.6 -4.4 6.9 -4.7Q7.2 -5.1 7.7 -5.2Q8.2 -5.4 8.8 -5.4Q9.5 -5.4 9.9 -5.2Q10.4 -5.0 10.7 -4.6Q10.9 -4.2 10.9 -3.6V0.0H9.8V-0.7H9.7Q9.5 -0.5 9.3 -0.3Q9.1 -0.1 8.8 -0.0Q8.5 0.1 8.1 0.1Z M14.0 0.0 12.1 -5.3H13.4L14.6 -1.1H14.7L16.0 -5.3H17.2L15.3 0.0Z M19.9 0.1Q19.4 0.1 19.0 -0.1Q18.6 -0.3 18.4 -0.7Q18.1 -1.0 18.1 -1.5V-1.5Q18.1 -2.0 18.4 -2.3Q18.6 -2.7 19.0 -2.9Q19.5 -3.1 20.1 -3.1L22.1 -3.2V-2.4L20.3 -2.3Q19.8 -2.3 19.5 -2.1Q19.3 -1.9 19.3 -1.6V-1.6Q19.3 -1.2 19.5 -1.0Q19.8 -0.8 20.2 -0.8Q20.6 -0.8 20.9 -1.0Q21.2 -1.1 21.4 -1.4Q21.5 -1.6 21.5 -2.0V-3.6Q21.5 -4.1 21.3 -4.3Q21.0 -4.5 20.5 -4.5Q20.1 -4.5 19.8 -4.3Q19.5 -4.2 19.4 -3.9L19.4 -3.9H18.3L18.3 -3.9Q18.4 -4.4 18.7 -4.7Q19.0 -5.1 19.5 -5.2Q19.9 -5.4 20.6 -5.4Q21.2 -5.4 21.7 -5.2Q22.2 -5.0 22.4 -4.6Q22.7 -4.2 22.7 -3.6V0.0H21.5V-0.7H21.4Q21.3 -0.5 21.1 -0.3Q20.8 -0.1 20.5 -0.0Q20.2 0.1 19.9 0.1Z M26.9 0.2Q26.1 0.2 25.5 -0.1Q24.9 -0.3 24.5 -0.8Q24.2 -1.2 24.1 -1.8L24.1 -1.9H25.3L25.3 -1.9Q25.3 -1.5 25.6 -1.3Q25.8 -1.1 26.1 -1.0Q26.5 -0.8 26.9 -0.8Q27.4 -0.8 27.7 -1.0Q28.0 -1.1 28.2 -1.4Q28.4 -1.6 28.4 -1.9V-1.9Q28.4 -2.3 28.1 -2.5Q27.8 -2.8 27.1 -2.9L26.4 -3.1Q25.6 -3.3 25.2 -3.5Q24.7 -3.8 24.5 -4.2Q24.3 -4.6 24.3 -5.1V-5.1Q24.3 -5.8 24.6 -6.2Q25.0 -6.7 25.6 -7.0Q26.1 -7.2 26.9 -7.2Q27.7 -7.2 28.2 -7.0Q28.8 -6.7 29.1 -6.3Q29.4 -5.8 29.5 -5.3L29.5 -5.2H28.3L28.3 -5.2Q28.3 -5.5 28.1 -5.7Q27.9 -6.0 27.6 -6.1Q27.3 -6.2 26.9 -6.2Q26.5 -6.2 26.2 -6.1Q25.9 -6.0 25.7 -5.7Q25.5 -5.5 25.5 -5.2V-5.2Q25.5 -4.9 25.6 -4.8Q25.8 -4.6 26.0 -4.4Q26.3 -4.3 26.8 -4.2L27.5 -4.0Q28.3 -3.9 28.7 -3.6Q29.2 -3.3 29.4 -3.0Q29.6 -2.6 29.6 -2.0V-2.0Q29.6 -1.4 29.3 -0.9Q29.0 -0.4 28.3 -0.1Q27.7 0.2 26.9 0.2Z M33.4 0.1Q32.6 0.1 32.0 -0.2Q31.5 -0.6 31.2 -1.2Q30.8 -1.8 30.8 -2.7V-2.7Q30.8 -3.5 31.2 -4.2Q31.5 -4.8 32.0 -5.1Q32.6 -5.4 33.4 -5.4Q34.1 -5.4 34.5 -5.2Q35.0 -5.0 35.3 -4.5Q35.6 -4.1 35.7 -3.6L35.7 -3.6H34.6L34.6 -3.6Q34.5 -4.0 34.2 -4.2Q33.9 -4.5 33.4 -4.5Q33.0 -4.5 32.7 -4.3Q32.4 -4.1 32.2 -3.6Q32.0 -3.2 32.0 -2.7V-2.7Q32.0 -2.1 32.2 -1.7Q32.4 -1.3 32.7 -1.1Q33.0 -0.8 33.4 -0.8Q33.9 -0.8 34.2 -1.1Q34.5 -1.3 34.6 -1.7L34.6 -1.7L35.7 -1.7L35.7 -1.7Q35.6 -1.2 35.3 -0.7Q35.0 -0.3 34.5 -0.1Q34.1 0.1 33.4 0.1Z M37.1 0.0V-5.3H38.2V-4.5H38.3Q38.4 -4.9 38.8 -5.2Q39.1 -5.4 39.7 -5.4Q39.8 -5.4 39.9 -5.4Q40.1 -5.4 40.2 -5.4V-4.3Q40.0 -4.3 39.9 -4.4Q39.7 -4.4 39.6 -4.4Q39.2 -4.4 38.9 -4.2Q38.6 -4.1 38.4 -3.8Q38.2 -3.5 38.2 -3.1V0.0Z M41.4 0.0V-5.3H42.5V0.0ZM41.9 -6.2Q41.7 -6.2 41.5 -6.4Q41.2 -6.6 41.2 -6.9Q41.2 -7.2 41.5 -7.4Q41.7 -7.6 41.9 -7.6Q42.2 -7.6 42.4 -7.4Q42.7 -7.2 42.7 -6.9Q42.7 -6.6 42.4 -6.4Q42.2 -6.2 41.9 -6.2Z M44.2 1.8V-5.3H45.4V-4.5H45.5Q45.6 -4.8 45.9 -5.0Q46.1 -5.2 46.4 -5.3Q46.7 -5.4 47.1 -5.4Q47.8 -5.4 48.3 -5.1Q48.8 -4.7 49.0 -4.1Q49.3 -3.5 49.3 -2.7V-2.7Q49.3 -1.8 49.0 -1.2Q48.8 -0.6 48.3 -0.2Q47.8 0.1 47.1 0.1Q46.7 0.1 46.4 -0.0Q46.1 -0.1 45.9 -0.3Q45.6 -0.6 45.5 -0.8H45.4V1.8ZM46.8 -0.9Q47.2 -0.9 47.5 -1.1Q47.8 -1.3 48.0 -1.7Q48.1 -2.1 48.1 -2.7V-2.7Q48.1 -3.2 48.0 -3.6Q47.8 -4.0 47.5 -4.2Q47.2 -4.4 46.8 -4.4Q46.3 -4.4 46.0 -4.2Q45.7 -4.0 45.5 -3.6Q45.4 -3.2 45.4 -2.7V-2.7Q45.4 -2.1 45.5 -1.7Q45.7 -1.3 46.0 -1.1Q46.3 -0.9 46.8 -0.9Z M52.8 0.0Q51.9 0.0 51.5 -0.3Q51.1 -0.6 51.1 -1.4V-4.4H50.3V-5.3H51.1V-6.6H52.3V-5.3H53.4V-4.4H52.3V-1.7Q52.3 -1.3 52.5 -1.1Q52.6 -0.9 53.0 -0.9Q53.1 -0.9 53.2 -0.9Q53.3 -0.9 53.4 -0.9V-0.0Q53.3 -0.0 53.1 0.0Q53.0 0.0 52.8 0.0Z"/></g><circle cx="135.1" cy="126.0" r="4.2" fill="#6B7280"/><g transform="translate(144.1,129.5)" fill="#9CA3AF"><path d="M0.9 0.0V-7.0H2.3L4.4 -1.6H4.5L6.7 -7.0H8.0V0.0H7.0V-5.1H6.4L7.6 -6.9L4.9 0.0H4.0L1.3 -6.9L2.5 -5.1H2.0V0.0Z M10.0 0.0V-7.0H11.2V0.0Z M14.9 0.0V-6.0H12.7V-7.0H18.3V-6.0H16.1V0.0Z"/></g><circle cx="184.0" cy="126.0" r="4.2" fill="#6B7280"/><g transform="translate(193.0,129.5)" fill="#9CA3AF"><path d="M3.3 0.1Q2.5 0.1 1.9 -0.1Q1.3 -0.4 1.0 -0.8Q0.6 -1.3 0.6 -1.9V-1.9Q0.6 -2.4 0.8 -2.7Q1.0 -3.1 1.4 -3.4Q1.7 -3.6 2.2 -3.7V-3.7Q1.6 -3.9 1.2 -4.3Q0.9 -4.7 0.9 -5.3V-5.3Q0.9 -5.8 1.2 -6.3Q1.5 -6.7 2.1 -6.9Q2.6 -7.2 3.3 -7.2Q4.1 -7.2 4.6 -6.9Q5.2 -6.7 5.5 -6.3Q5.8 -5.8 5.8 -5.3V-5.3Q5.8 -4.7 5.4 -4.3Q5.1 -3.9 4.5 -3.7V-3.7Q4.9 -3.6 5.3 -3.4Q5.7 -3.1 5.9 -2.7Q6.1 -2.4 6.1 -1.9V-1.9Q6.1 -1.3 5.7 -0.8Q5.4 -0.4 4.8 -0.1Q4.1 0.1 3.3 0.1ZM3.3 -0.8Q3.8 -0.8 4.1 -0.9Q4.4 -1.1 4.6 -1.4Q4.8 -1.6 4.8 -2.0V-2.0Q4.8 -2.3 4.6 -2.6Q4.4 -2.9 4.1 -3.0Q3.8 -3.2 3.3 -3.2Q2.9 -3.2 2.6 -3.0Q2.2 -2.9 2.0 -2.6Q1.9 -2.3 1.9 -2.0V-2.0Q1.9 -1.6 2.0 -1.4Q2.2 -1.1 2.6 -0.9Q2.9 -0.8 3.3 -0.8ZM3.3 -4.1Q3.7 -4.1 4.0 -4.3Q4.3 -4.4 4.5 -4.6Q4.6 -4.9 4.6 -5.2V-5.2Q4.6 -5.5 4.5 -5.8Q4.3 -6.0 4.0 -6.1Q3.7 -6.3 3.3 -6.3Q3.0 -6.3 2.7 -6.1Q2.4 -6.0 2.2 -5.8Q2.1 -5.5 2.1 -5.2V-5.2Q2.1 -4.9 2.2 -4.6Q2.4 -4.4 2.7 -4.3Q3.0 -4.1 3.3 -4.1Z M12.6 0.0Q11.7 0.0 11.3 -0.3Q10.9 -0.6 10.9 -1.4V-4.4H10.1V-5.3H10.9V-6.6H12.1V-5.3H13.2V-4.4H12.1V-1.7Q12.1 -1.3 12.2 -1.1Q12.4 -0.9 12.8 -0.9Q12.9 -0.9 13.0 -0.9Q13.1 -0.9 13.2 -0.9V-0.0Q13.1 -0.0 12.9 0.0Q12.7 0.0 12.6 0.0Z M16.9 0.1Q16.1 0.1 15.5 -0.2Q15.0 -0.6 14.7 -1.2Q14.3 -1.8 14.3 -2.7V-2.7Q14.3 -3.5 14.7 -4.1Q15.0 -4.8 15.5 -5.1Q16.1 -5.4 16.9 -5.4Q17.7 -5.4 18.3 -5.1Q18.8 -4.8 19.1 -4.1Q19.4 -3.5 19.4 -2.7V-2.7Q19.4 -1.8 19.1 -1.2Q18.8 -0.6 18.3 -0.2Q17.7 0.1 16.9 0.1ZM16.9 -0.8Q17.3 -0.8 17.6 -1.1Q17.9 -1.3 18.1 -1.7Q18.3 -2.1 18.3 -2.7V-2.7Q18.3 -3.2 18.1 -3.6Q17.9 -4.0 17.6 -4.3Q17.3 -4.5 16.9 -4.5Q16.5 -4.5 16.2 -4.3Q15.9 -4.0 15.7 -3.6Q15.5 -3.2 15.5 -2.7V-2.7Q15.5 -2.1 15.7 -1.7Q15.9 -1.3 16.2 -1.1Q16.5 -0.8 16.9 -0.8Z M23.2 0.1Q22.4 0.1 21.8 -0.2Q21.2 -0.6 20.9 -1.2Q20.6 -1.8 20.6 -2.7V-2.7Q20.6 -3.5 20.9 -4.1Q21.2 -4.8 21.8 -5.1Q22.4 -5.4 23.2 -5.4Q23.9 -5.4 24.5 -5.1Q25.1 -4.8 25.4 -4.1Q25.7 -3.5 25.7 -2.7V-2.7Q25.7 -1.8 25.4 -1.2Q25.1 -0.6 24.5 -0.2Q23.9 0.1 23.2 0.1ZM23.2 -0.8Q23.6 -0.8 23.9 -1.1Q24.2 -1.3 24.4 -1.7Q24.5 -2.1 24.5 -2.7V-2.7Q24.5 -3.2 24.4 -3.6Q24.2 -4.0 23.9 -4.3Q23.6 -4.5 23.2 -4.5Q22.7 -4.5 22.4 -4.3Q22.1 -4.0 22.0 -3.6Q21.8 -3.2 21.8 -2.7V-2.7Q21.8 -2.1 22.0 -1.7Q22.1 -1.3 22.4 -1.1Q22.7 -0.8 23.2 -0.8Z M27.2 0.0V-7.4H28.3V0.0Z M32.1 0.1Q31.4 0.1 30.9 -0.1Q30.4 -0.3 30.2 -0.6Q29.9 -1.0 29.8 -1.4L29.8 -1.4H31.0L31.0 -1.4Q31.1 -1.1 31.4 -0.9Q31.6 -0.8 32.1 -0.8Q32.4 -0.8 32.6 -0.9Q32.9 -0.9 33.0 -1.1Q33.1 -1.3 33.1 -1.5V-1.5Q33.1 -1.7 32.9 -1.9Q32.8 -2.0 32.3 -2.1L31.4 -2.3Q30.9 -2.4 30.6 -2.6Q30.3 -2.8 30.1 -3.1Q30.0 -3.4 30.0 -3.8V-3.8Q30.0 -4.3 30.2 -4.7Q30.5 -5.0 31.0 -5.2Q31.5 -5.4 32.1 -5.4Q32.7 -5.4 33.2 -5.2Q33.6 -5.0 33.9 -4.7Q34.2 -4.4 34.2 -3.9V-3.9H33.1L33.1 -3.9Q33.0 -4.2 32.8 -4.4Q32.5 -4.6 32.1 -4.6Q31.8 -4.6 31.6 -4.5Q31.4 -4.4 31.2 -4.2Q31.1 -4.1 31.1 -3.9V-3.9Q31.1 -3.7 31.2 -3.6Q31.3 -3.5 31.5 -3.4Q31.6 -3.3 31.9 -3.2L32.8 -3.0Q33.3 -2.9 33.6 -2.7Q34.0 -2.5 34.1 -2.3Q34.3 -2.0 34.3 -1.6V-1.6Q34.3 -1.1 34.0 -0.7Q33.7 -0.3 33.2 -0.1Q32.7 0.1 32.1 0.1Z M39.5 -2.1Q39.2 -2.1 39.0 -2.3Q38.7 -2.5 38.7 -2.8Q38.7 -3.2 39.0 -3.4Q39.2 -3.6 39.5 -3.6Q39.8 -3.6 40.0 -3.4Q40.3 -3.2 40.3 -2.8Q40.3 -2.5 40.0 -2.3Q39.8 -2.1 39.5 -2.1Z M47.5 0.2Q46.8 0.2 46.2 -0.1Q45.7 -0.4 45.3 -0.8Q45.0 -1.3 45.0 -1.9L45.0 -1.9H46.1L46.1 -1.9Q46.1 -1.6 46.3 -1.3Q46.5 -1.1 46.8 -1.0Q47.1 -0.8 47.5 -0.8Q47.9 -0.8 48.2 -1.0Q48.5 -1.2 48.7 -1.5Q48.9 -1.8 48.9 -2.3V-2.3Q48.9 -2.7 48.7 -3.0Q48.5 -3.3 48.2 -3.5Q47.9 -3.7 47.5 -3.7Q47.2 -3.7 46.9 -3.6Q46.7 -3.5 46.5 -3.3Q46.4 -3.3 46.3 -3.2Q46.2 -3.1 46.1 -2.9H45.1L45.4 -7.0H49.6V-6.1H46.4L46.2 -3.9H46.3Q46.4 -4.1 46.6 -4.3Q46.9 -4.4 47.1 -4.5Q47.4 -4.6 47.8 -4.6Q48.4 -4.6 48.9 -4.3Q49.4 -4.0 49.7 -3.5Q50.0 -3.0 50.0 -2.3V-2.3Q50.0 -1.6 49.7 -1.0Q49.4 -0.4 48.8 -0.1Q48.2 0.2 47.5 0.2Z M53.3 0.0V-5.8H53.2L51.5 -4.6V-5.7L53.3 -7.0H54.5V0.0Z M61.6 0.0Q60.7 0.0 60.3 -0.3Q59.9 -0.6 59.9 -1.4V-4.4H59.1V-5.3H59.9V-6.6H61.1V-5.3H62.2V-4.4H61.1V-1.7Q61.1 -1.3 61.3 -1.1Q61.4 -0.9 61.8 -0.9Q61.9 -0.9 62.0 -0.9Q62.1 -0.9 62.2 -0.9V-0.0Q62.1 -0.0 61.9 0.0Q61.8 0.0 61.6 0.0Z M65.9 0.1Q65.1 0.1 64.6 -0.2Q64.0 -0.6 63.7 -1.2Q63.4 -1.8 63.4 -2.6V-2.7Q63.4 -3.5 63.7 -4.1Q64.0 -4.7 64.6 -5.1Q65.1 -5.4 65.9 -5.4Q66.6 -5.4 67.2 -5.1Q67.7 -4.8 68.0 -4.2Q68.3 -3.6 68.3 -2.8V-2.4H64.0V-3.2H67.7L67.2 -2.4V-2.9Q67.2 -3.4 67.0 -3.8Q66.8 -4.1 66.5 -4.3Q66.3 -4.5 65.9 -4.5Q65.5 -4.5 65.2 -4.3Q64.9 -4.1 64.7 -3.8Q64.5 -3.4 64.5 -2.9V-2.4Q64.5 -1.9 64.7 -1.6Q64.9 -1.2 65.2 -1.0Q65.5 -0.8 65.9 -0.8Q66.3 -0.8 66.5 -0.9Q66.8 -1.0 66.9 -1.1Q67.1 -1.3 67.1 -1.4L67.1 -1.4L68.2 -1.4L68.2 -1.4Q68.2 -1.1 68.0 -0.9Q67.8 -0.6 67.5 -0.4Q67.3 -0.2 66.8 -0.0Q66.4 0.1 65.9 0.1Z M71.7 0.1Q71.0 0.1 70.6 -0.1Q70.1 -0.3 69.8 -0.6Q69.5 -1.0 69.5 -1.4L69.5 -1.4H70.6L70.6 -1.4Q70.7 -1.1 71.0 -0.9Q71.3 -0.8 71.7 -0.8Q72.0 -0.8 72.3 -0.9Q72.5 -0.9 72.6 -1.1Q72.8 -1.3 72.8 -1.5V-1.5Q72.8 -1.7 72.6 -1.9Q72.4 -2.0 71.9 -2.1L71.1 -2.3Q70.6 -2.4 70.3 -2.6Q69.9 -2.8 69.8 -3.1Q69.6 -3.4 69.6 -3.8V-3.8Q69.6 -4.3 69.9 -4.7Q70.1 -5.0 70.6 -5.2Q71.1 -5.4 71.7 -5.4Q72.3 -5.4 72.8 -5.2Q73.3 -5.0 73.5 -4.7Q73.8 -4.4 73.8 -3.9V-3.9H72.7L72.7 -3.9Q72.7 -4.2 72.4 -4.4Q72.1 -4.6 71.7 -4.6Q71.4 -4.6 71.2 -4.5Q71.0 -4.4 70.9 -4.2Q70.7 -4.1 70.7 -3.9V-3.9Q70.7 -3.7 70.8 -3.6Q70.9 -3.5 71.1 -3.4Q71.3 -3.3 71.6 -3.2L72.4 -3.0Q72.9 -2.9 73.3 -2.7Q73.6 -2.5 73.8 -2.3Q73.9 -2.0 73.9 -1.6V-1.6Q73.9 -1.1 73.7 -0.7Q73.4 -0.3 72.9 -0.1Q72.4 0.1 71.7 0.1Z M77.4 0.0Q76.5 0.0 76.1 -0.3Q75.7 -0.6 75.7 -1.4V-4.4H74.9V-5.3H75.7V-6.6H76.9V-5.3H78.1V-4.4H76.9V-1.7Q76.9 -1.3 77.1 -1.1Q77.3 -0.9 77.7 -0.9Q77.8 -0.9 77.9 -0.9Q77.9 -0.9 78.1 -0.9V-0.0Q77.9 -0.0 77.8 0.0Q77.6 0.0 77.4 0.0Z M81.5 0.1Q80.8 0.1 80.3 -0.1Q79.8 -0.3 79.6 -0.6Q79.3 -1.0 79.2 -1.4L79.2 -1.4H80.4L80.4 -1.4Q80.5 -1.1 80.7 -0.9Q81.0 -0.8 81.5 -0.8Q81.8 -0.8 82.0 -0.9Q82.3 -0.9 82.4 -1.1Q82.5 -1.3 82.5 -1.5V-1.5Q82.5 -1.7 82.3 -1.9Q82.2 -2.0 81.7 -2.1L80.8 -2.3Q80.3 -2.4 80.0 -2.6Q79.7 -2.8 79.5 -3.1Q79.4 -3.4 79.4 -3.8V-3.8Q79.4 -4.3 79.6 -4.7Q79.9 -5.0 80.4 -5.2Q80.9 -5.4 81.5 -5.4Q82.1 -5.4 82.6 -5.2Q83.0 -5.0 83.3 -4.7Q83.6 -4.4 83.6 -3.9V-3.9H82.5L82.5 -3.9Q82.4 -4.2 82.2 -4.4Q81.9 -4.6 81.5 -4.6Q81.2 -4.6 81.0 -4.5Q80.8 -4.4 80.6 -4.2Q80.5 -4.1 80.5 -3.9V-3.9Q80.5 -3.7 80.6 -3.6Q80.7 -3.5 80.9 -3.4Q81.0 -3.3 81.3 -3.2L82.2 -3.0Q82.7 -2.9 83.0 -2.7Q83.4 -2.5 83.5 -2.3Q83.7 -2.0 83.7 -1.6V-1.6Q83.7 -1.1 83.4 -0.7Q83.1 -0.3 82.6 -0.1Q82.1 0.1 81.5 0.1Z"/></g>
</svg>