<svg xmlns="http://www.w3.org/2000/svg" viewBox="0 0 470 152" width="470" height="152" role="img" aria-label="obsidian-icloud-mcp — Obsidian MCP that survives iCloud — detects dataless notes instead of hanging on them.">
  <rect x="0.75" y="0.75" width="468" height="150" rx="12" fill="#0D1117" stroke="#1F2937" stroke-width="1.5"/>
  <rect x="0.75" y="0.75" width="4" height="150" rx="2" fill="#0D9488"/>
  <circle cx="30" cy="41" r="5.5" fill="none" stroke="#0D9488" stroke-width="2"/>
  <g font-family="-apple-system, BlinkMacSystemFont, 'Segoe UI', Helvetica, Arial, sans-serif">
    <text x="46" y="46" fill="#F8F9FA" font-size="16" font-weight="700">obsidian-icloud-mcp</text>
    <text x="46" y="74" fill="#9CA3AF" font-size="13">Obsidian MCP that survives iCloud — detects dataless</text>
    <text x="46" y="93" fill="#9CA3AF" font-size="13">notes instead of hanging on them.</text>
  </g><circle cx="51.0" cy="126.0" r="4.2" fill="#F1E05A"/><g transform="translate(60.0,129.5)" fill="#9CA3AF"><path d="M2.6 0.2Q2.1 0.2 1.7 0.0Q1.3 -0.1 1.0 -0.4Q0.7 -0.6 0.6 -1.0Q0.4 -1.4 0.4 -1.8L0.4 -1.9H1.6L1.6 -1.8Q1.6 -1.6 1.7 -1.3Q1.8 -1.1 2.0 -1.0Q2.3 -0.9 2.6 -0.9Q3.1 -0.9 3.4 -1.2Q3.6 -1.5 3.6 -2.1V-7.0H4.8V-2.1Q4.8 -1.4 4.6 -0.9Q4.3 -0.4 3.8 -0.1Q3.3 0.2 2.6 0.2Z M8.1 0.1Q7.6 0.1 7.2 -0.1Q6.8 -0.3 6.6 -0.7Q6.4 -1.0 6.4 -1.5V-1.5Q6.4 -2.0 6.6 -2.3Q6.8 -2.7 7.3 -2.9Q7.7 -3.1 8.4 -3.1L10.3 -3.2V-2.4L8.5 -2.3Q8.0 -2.3 7.8 -2.1Q7.5 -1.9 7.5 -1.6V-1.6Q7.5 -1.2 7.8 -1.0Q8.0 -0.8 8.5 -0.8Q8.8 -0.8 9.1 -1.0Q9.4 -1.1 9.6 -1.4Q9.8 -1.6 9.8 -2.0V-3.6Q9.8 -4.1 9.5 -4.3Q9.2 -4.5 8.7 -4.5Q8.3 -4.5 8.0 -4.3Q7.8 -4.2 7.7 -3.9L7.7 -3.9H6.6L6.6 -3.9Q6.6 -4.4 6.9 -4.7Q7.2 -5.1 7.7 -5.2Q8.2 -5.4 8.8 -5.4Q9.5 -5.4 9.9 -5.2Q10.4 -5.0 10.7 -4.6Q10.9 -4.2 10.9 -3.6V0.0H9.8V-0.7H9.7Q9.5 -0.5 9.3 -0.3Q9.1 -0.1 8.8 -0.0Q8.5 0.1 8.1 0.1Z M14.0 0.0 12.1 -5.3H13.4L14.6 -1.1H14.7L16.0 -5.3H17.2L15.3 0.0Z M19.9 0.1Q19.4 0.1 19.0 -0.1Q18.6 -0.3 18.4 -0.7Q18.1 -1.0 18.1 -1.5V-1.5Q18.1 -2.0 18.4 -2.3Q18.6 -2.7 19.0 -2.9Q19.5 -3.1 20.1 -3.1L22.1 -3.2V-2.4L20.3 -2.3Q19.8 -2.3 19.5 -2.1Q19.3 -1.9 19.3 -1.6V-1.6Q19.3 -1.2 19.5 -1.0Q19.8 -0.8 20.2 -0.8Q20.6 -0.8 20.9 -1.0Q21.2 -1.1 21.4 -1.4Q21.5 -1.6 21.5 -2.0V-3.6Q21.5 -4.1 21.3 -4.3Q21.0 -4.5 20.5 -4.5Q20.1 -4.5 19.8 -4.3Q19.5 -4.2 19.4 -3.9L19.4 -3.9H18.3L18.3 -3.9Q18.4 -4.4 18.7 -4.7Q19.0 -5.1 19.5 -5.2Q19.9 -5.4 20.6 -5.4Q21.2 -5.4 21.7 -5.2Q22.2 -5.0 22.4 -4.6Q22.7 -4.2 22.7 -3.6V0.0H21.5V-0.7H21.4Q21.3 -0.5 21.1 -0.3Q20.8 -0.1 20.5 -0.0Q20.2 0.1 19.9 0.1Z M26.9 0.2Q26.1 0.2 25.5 -0.1Q24.9 -0.3 24.5 -0.8Q24.2 -1.2 24.1 -1.8L24.1 -1.9H25.3L25.3 -1.9Q25.3 -1.5 25.6 -1.3Q25.8 -1.1 26.1 -1.0Q26.5 -0.8 26.9 -0.8Q27.4 -0.8 27.7 -1.0Q28.0 -1.1 28.2 -1.4Q28.4 -1.6 28.4 -1.9V-1.9Q28.4 -2.3 28.1 -2.5Q27.8 -2.8 27.1 -2.9L26.4 -3.1Q25.6 -3.3 25.2 -3.5Q24.7 -3.8 24.5 -4.2Q24.3 -4.6 24.3 -5.1V-5.1Q24.3 -5.8 24.6 -6.2Q25.0 -6.7 25.6 -7.0Q26.1 -7.2 26.9 -7.2Q27.7 -7.2 28.2 -7.0Q28.8 -6.7 29.1 -6.3Q29.4 -5.8 29.5 -5.3L29.5 -5.2H28.3L28.3 -5.2Q28.3 -5.5 28.1 -5.7Q27.9 -6.0 27.6 -6.1Q27.3 -6.2 26.9 -6.2Q26.5 -6.2 26.2 -6.1Q25.9 -6.0 25.7 -5.7Q25.5 -5.5 25.5 -5.2V-5.2Q25.5 -4.9 25.6 -4.8Q25.8 -4.6 26.0 -4.4Q26.3 -4.3 26.8 -4.2L27.5 -4.0Q28.3 -3.9 28.7 -3.6Q29.2 -3.3 29.4 -3.0Q29.6 -2.6 29.6 -2.0V-2.0Q29.6 -1.4 29.3 -0.9Q29.0 -0.4 28.3 -0.1Q27.7 0.2 26.9 0.2Z M33.4 0.1Q32.6 0.1 32.0 -0.2Q31.5 -0.6 31.2 -1.2Q30.8 -1.8 30.8 -2.7V-2.7Q30.8 -3.5 31.2 -4.2Q31.5 -4.8 32.0 -5.1Q32.6 -5.4 33.4 -5.4Q34.1 -5.4 34.5 -5.2Q35.0 -5.0 35.3 -4.5Q35.6 -4.1 35.7 -3.6L35.7 -3.6H34.6L34.6 -3.6Q34.5 -4.0 34.2 -4.2Q33.9 -4.5 33.4 -4.5Q33.0 -4.5 32.7 -4.3Q32.4 -4.1 32.2 -3.6Q32.0 -3.2 32.0 -2.7V-2.7Q32.0 -2.1 32.2 -1.7Q32.4 -1.3 32.7 -1.1Q33.0 -0.8 33.4 -0.8Q33.9 -0.8 34.2 -1.1Q34.5 -1.3 34.6 -1.7L34.6 -1.7L35.7 -1.7L35.7 -1.7Q35.6 -1.2 35.3 -0.7Q35.0 -0.3 34.5 -0.1Q34.1 0.1 33.4 0.1Z M37.1 0.0V-5.3H38.2V-4.5H38.3Q38.4 -4.9 38.8 -5.2Q39.1 -5.4 39.7 -5.4Q39.8 -5.4 39.9 -5.4Q40.1 -5.4 40.2 -5.4V-4.3Q40.0 -4.3 39.9 -4.4Q39.7 -4.4 39.6 -4.4Q39.2 -4.4 38.9 -4.2Q38.6 -4.1 38.4 -3.8Q38.2 -3.5 38.2 -3.1V0.0Z M41.4 0.0V-5.3H42.5V0.0ZM41.9 -6.2Q41.7 -6.2 41.5 -6.4Q41.2 -6.6 41.2 -6.9Q41.2 -7.2 41.5 -7.4Q41.7 -7.6 41.9 -7.6Q42.2 -7.6 42.4 -7.4Q42.7 -7.2 42.7 -6.9Q42.7 -6.6 42.4 -6.4Q42.2 -6.2 41.9 -6.2Z M44.2 1.8V-5.3H45.4V-4.5H45.5Q45.6 -4.8 45.9 -5.0Q46.1 -5.2 46.4 -5.3Q46.7 -5.4 47.1 -5.4Q47.8 -5.4 48.3 -5.1Q48.8 -4.7 49.0 -4.1Q49.3 -3.5 49.3 -2.7V-2.7Q49.3 -1.8 49.0 -1.2Q48.8 -0.6 48.3 -0.2Q47.8 0.1 47.1 0.1Q46.7 0.1 46.4 -0.0Q46.1 -0.1 45.9 -0.3Q45.6 -0.6 45.5 -0.8H45.4V1.8ZM46.8 -0.9Q47.2 -0.9 47.5 -1.1Q47.8 -1.3 48.0 -1.7Q48.1 -2.1 48.1 -2.7V-2.7Q48.1 -3.2 48.0 -3.6Q47.8 -4.0 47.5 -4.2Q47.2 -4.4 46.8 -4.4Q46.3 -4.4 46.0 -4.2Q45.7 -4.0 45.5 -3.6Q45.4 -3.2 45.4 -2.7V-2.7Q45.4 -2.1 45.5 -1.7Q45.7 -1.3 46.0 -1.1Q46.3 -0.9 46.8 -0.9Z M52.8 0.0Q51.9 0.0 51.5 -0.3Q51.1 -0.6 51.1 -1.4V-4.4H50.3V-5.3H51.1V-6.6H52.3V-5.3H53.4V-4.4H52.3V-1.7Q52.3 -1.3 52.5 -1.1Q52.6 -0.9 53.0 -0.9Q53.1 -0.9 53.2 -0.9Q53.3 -0.9 53.4 -0.9V-0.0Q53.3 -0.0 53.1 0.0Q53.0 0.0 52.8 0.0Z"/></g><circle cx="135.1" cy="126.0" r="4.2" fill="#6B7280"/><g transform="translate(144.1,129.5)" fill="#9CA3AF"><path d="M0.9 0.0V-7.0H2.3L4.4 -1.6H4.5L6.7 -7.0H8.0V0.0H7.0V-5.1H6.4L7.6 -6.9L4.9 0.0H4.0L1.3 -6.9L2.5 -5.1H2.0V0.0Z M10.0 0.0V-7.0H11.2V0.0Z M14.9 0.0V-6.0H12.7V-7.0H18.3V-6.0H16.1V0.0Z"/></g><circle cx="184.0" cy="126.0" r="4.2" fill="#6B7280"/><text x="193" y="129.5" fill="#9CA3AF" font-size="11" font-family="-apple-system, BlinkMacSystemFont, 'Segoe UI', Helvetica, Arial, sans-serif">7 tools &#183; 23 tests</text>
</svg>