<svg xmlns="http://www.w3.org/2000/svg" viewBox="0 0 470 152" width="470" height="152" role="img" aria-label="obsidian-icloud-mcp — Obsidian MCP that survives iCloud — detects dataless notes instead of hanging on them.">
  <rect x="0.75" y="0.75" width="468" height="150" rx="12" fill="#0D1117" stroke="#1F2937" stroke-width="1.5"/>
  <rect x="0.75" y="0.75" width="4" height="150" rx="2" fill="#0D9488"/>
  <circle cx="30" cy="41" r="5.5" fill="none" stroke="#0D9488" stroke-width="2"/>
  <g font-family="-apple-system, BlinkMacSystemFont, 'Segoe UI', Helvetica, Arial, sans-serif">
    <text x="46" y="46" fill="#F8F9FA" font-size="16" font-weight="700">obsidian-icloud-mcp</text>
    <text x="46" y="74" fill="#9CA3AF" font-size="13">Obsidian MCP that survives iCloud — detects dataless</text>
    <text x="46" y="93" fill="#9CA3AF" font-size="13">notes instead of hanging on them.</text>
  </g><circle cx="51.0" cy="126.0" r="4.2" fill="#F1E05A"/><g transform="translate(60.0,129.5)" fill="#9CA3AF"><path d="M2.6 0.2Q2.1 0.2 1.7 0.0Q1.3 -0.1 1.0 -0.4Q0.7 -0.6 0.6 -1.0Q0.4 -1.4 0.4 -1.8L0.4 -1.9H1.6L1.6 -1.8Q1.6 -1.6 1.7 -1.3Q1.8 -1.1 2.0 -1.0Q2.3 -0.9 2.6 -0.9Q3.1 -0.9 3.4 -1.2Q3.6 -1.5 3.6 -2.1V-7.0H4.8V-2.1Q4.8 -1.4 4.6 -0.9Q4.3 -0.4 3.8 -0.1Q3.3 0.2 2.6 0.2Z M8.1 0.1Q7.6 0.1 7.2 -0.1Q6.8 -0.3 6.6 -0.7Q6.4 -1.0 6.4 -1.5V-1.5Q6.4 -2.0 6.6 -2.3Q6.8 -2.7 7.3 -2.9Q7.7 -3.1 8.4 -3.1L10.3 -3.2V-2.4L8.5 -2.3Q8.0 -2.3 7.8 -2.1Q7.5 -1.9 7.5 -1.6V-1.6Q7.5 -1.2 7.8 -1.0Q8.0 -0.8 8.5 -0.8Q8.8 -0.8 9.1 -1.0Q9.4 -1.1 9.6 -1.4Q9.8 -1.6 9.8 -2.0V-3.6Q9.8 -4.1 9.5 -4.3Q9.2 -4.5 8.7 -4.5Q8.3 -4.5 8.0 -4.3Q7.8 -4.2 7.7 -3.9L7.7 -3.9H6.6L6.6 -3.9Q6.6 -4.4 6.9 -4.7Q7.2 -5.1 7.7 -5.2Q8.2 -5.4 8.8 -5.4Q9.5 -5.4 9.9 -5.2Q10.4 -5.0 10.7 -4.6Q10.9 -4.2 10.9 -3.6V0.0H9.8V-0.7H9.7Q9.5 -0.5 9.3 -0.3Q9.1 -0.1 8.8 -0.0Q8.5 0.1 8.1 0.1Z M14.0 0.0 12.1 -5.3H13.4L14.6 -1.1H14.7L16.0 -5.3H17.2L15.3 0.0Z M19.9 0.1Q19.4 0.1 19.0 -0.1Q18.6 -0.3 18.4 -0.7Q18.1 -1.0 18.1 -1.5V-1.5Q18.1 -2.0 18.4 -2.3Q18.6 -2.7 19.0 -2.9Q19.5 -3.1 20.1 -3.1L22.1 -3.2V-2.4L20.3 -2.3Q19.8 -2.3 19.5 -2.1Q19.3 -1.9 19.3 -1.6V-1.6Q19.3 -1.2 19.5 -1.0Q19.8 -0.8 20.2 -0.8Q20.6 -0.8 20.9 -1.0Q21.2 -1.1 21.4 -1.4Q21.5 -1.6 21.5 -2.0V-3.6Q21.5 -4.1 21.3 -4.3Q21.0 -4.5 20.5 -4.5Q20.1 -4.5 19.8 -4.3Q19.5 -4.2 19.4 -3.9L19.4 -3.9H18.3L18.3 -3.9Q18.4 -4.4 18.7 -4.7Q19.0 -5.1 19.5 -5.2Q19.9 -5.4 20.6 -5.4Q21.2 -5.4 21.7 -5.2Q22.2 -5.0 22.4 -4.6Q22.7 -4.2 22.7 -3.6V0.0H21.5V-0.7H21.4Q21.3 -0.5 21.1 -0.3Q20.8 -0.1 20.5 -0.0Q20.2 0.1 19.9 0.1Z M26.9 0.2Q26.1 0.2 25.5 -0.1Q24.9 -0.3 24.5 -0.8Q24.2 -1.2 24.1 -1.8L24.1 -1.9H25.3L25.3 -1.9Q25.3 -1.5 25.6 -1.3Q25.8 -1.1 26.1 -1.0Q26.5 -0.8 26.9 -0.8Q27.4 -0.8 27.7 -1.0Q28.0 -1.1 28.2 -1.4Q28.4 -1.6 28.4 -1.9V-1.9Q28.4 -2.3 28.1 -2.5Q27.8 -2.8 27.1 -2.9L26.4 -3.1Q25.6 -3.3 25.2 -3.5Q24.7 -3.8 24.5 -4.2Q24.3 -4.6 24.3 -5.1V-5.1Q24.3 -5.8 24.6 -6.2Q25.0 -6.7 25.6 -7.0Q26.1 -7.2 26.9 -7.2Q27.7 -7.2 28.2 -7.0Q28.8 -6.7 29.1 -6.3Q29.4 -5.8 29.5 -5.3L29.5 -5.2H28.3L28.3 -5.2Q28.3 -5.5 28.1 -5.7Q27.9 -6.0 27.6 -6.1Q27.3 -6.2 26.9 -6.2Q26.5 -6.2 26.2 -6.1Q25.9 -6.0 25.7 -5.7Q25.5 -5.5 25.5 -5.2V-5.2Q25.5 -4.9 25.6 -4.8Q25.8 -4.6 26.0 -4.4Q26.3 -4.3 26.8 -4.2L27.5 -4.0Q28.3 -3.9 28.7 -3.6Q29.2 -3.3 29.4 -3.0Q29.6 -2.6 29.6 -2.0V-2.0Q29.6 -1.4 29.3 -0.9Q29.0 -0.4 28.3 -0.1Q27.7 0.2 26.9 0.2Z M33.4 0.1Q32.6 0.1 32.0 -0.2Q31.5 -0.6 31.2 -1.2Q30.8 -1.8 30.8 -2.7V-2.7Q30.8 -3.5 31.2 -4.2Q31.5 -4.8 32.0 -5.1Q32.6 -5.4 33.4 -5.4Q34.1 -5.4 34.5 -5.2Q35.0 -5.0 35.3 -4.5Q35.6 -4.1 35.7 -3.6L35.7 -3.6H34.6L34.6 -3.6Q34.5 -4.0 34.2 -4.2Q33.9 -4.5 33.4 -4.5Q33.0 -4.5 32.7 -4.3Q32.4 -4.1 32.2 -3.6Q32.0 -3.2 32.0 -2.7V-2.7Q32.0 -2.1 32.2 -1.7Q32.4 -1.3 32.7 -1.1Q33.0 -0.8 33.4 -0.8Q33.9 -0.8 34.2 -1.1Q34.5 -1.3 34.6 -1.7L34.6 -1.7L35.7 -1.7L35.7 -1.7Q35.6 -1.2 35.3 -0.7Q35.0 -0.3 34.5 -0.1Q34.1 0.1 33.4 0.1Z M37.1 0.0V-5.3H38.2V-4.5H38.3Q38.4 -4.9 38.8 -5.2Q39.1 -5.4 39.7 -5.4Q39.8 -5.4 39.9 -5.4Q40.1 -5.4 40.2 -5.4V-4.3Q40.0 -4.3 39.9 -4.4Q39.7 -4.4 39.6 -4.4Q39.2 -4.4 38.9 -4.2Q38.6 -4.1 38.4 -3.8Q38.2 -3.5 38.2 -3.1V0.0Z M41.4 0.0V-5.3H42.5V0.0ZM41.9 -6.2Q41.7 -6.2 41.5 -6.4Q41.2 -6.6 41.2 -6.9Q41.2 -7.2 41.5 -7.4Q41.7 -7.6 41.9 -7.6Q42.2 -7.6 42.4 -7.4Q42.7 -7.2 42.7 -6.9Q42.7 -6.6 42.4 -6.4Q42.2 -6.2 41.9 -6.2Z M44.2 1.8V-5.3H45.4V-4.5H45.5Q45.6 -4.8 45.9 -5.0Q46.1 -5.2 46.4 -5.3Q46.7 -5.4 47.1 -5.4Q47.8 -5.4 48.3 -5.1Q48.8 -4.7 49.0 -4.1Q49.3 -3.5 49.3 -2.7V-2.7Q49.3 -1.8 49.0 -1.2Q48.8 -0.6 48.3 -0.2Q47.8 0.1 47.1 0.1Q46.7 0.1 46.4 -0.0Q46.1 -0.1 45.9 -0.3Q45.6 -0.6 45.5 -0.8H45.4V1.8ZM46.8 -0.9Q47.2 -0.9 47.5 -1.1Q47.8 -1.3 48.0 -1.7Q48.1 -2.1 48.1 -2.7V-2.7Q48.1 -3.2 48.0 -3.6Q47.8 -4.0 47.5 -4.2Q47.2 -4.4 46.8 -4.4Q46.3 -4.4 46.0 -4.2Q45.7 -4.0 45.5 -3.6Q45.4 -3.2 45.4 -2.7V-2.7Q45.4 -2.1 45.5 -1.7Q45.7 -1.3 46.0 -1.1Q46.3 -0.9 46.8 -0.9Z M52.8 0.0Q51.9 0.0 51.5 -0.3Q51.1 -0.6 51.1 -1.4V-4.4H50.3V-5.3H51.1V-6.6H52.3V-5.3H53.4V-4.4H52.3V-1.7Q52.3 -1.3 52.5 -1.1Q52.6 -0.9 53.0 -0.9Q53.1 -0.9 53.2 -0.9Q53.3 -0.9 53.4 -0.9V-0.0Q53.3 -0.0 53.1 0.0Q53.0 0.0 52.8 0.0Z"/></g><circle cx="135.1" cy="126.0" r="4.2" fill="#6B7280"/><g transform="translate(144.1,129.5)" fill="#9CA3AF"><path d="M0.9 0.0V-7.0H2.3L4.4 -1.6H4.5L6.7 -7.0H8.0V0.0H7.0V-5.1H6.4L7.6 -6.9L4.9 0.0H4.0L1.3 -6.9L2.5 -5.1H2.0V0.0Z M10.0 0.0V-7.0H11.2V0.0Z M14.9 0.0V-6.0H12.7V-7.0H18.3V-6.0H16.1V0.0Z"/></g><circle cx="184.0" cy="126.0" r="4.2" fill="#6B7280"/><g transform="translate(193.0,129.5)" fill="#9CA3AF"><path d="M3.3 0.2Q2.5 0.2 2.0 -0.1Q1.5 -0.4 1.1 -0.8Q0.8 -1.3 0.8 -1.9L0.8 -1.9H1.9L1.9 -1.9Q1.9 -1.6 2.1 -1.3Q2.3 -1.1 2.6 -1.0Q2.9 -0.8 3.3 -0.8Q3.7 -0.8 4.0 -1.0Q4.3 -1.2 4.5 -1.5Q4.7 -1.8 4.7 -2.3V-2.3Q4.7 -2.7 4.5 -3.0Q4.3 -3.3 4.0 -3.5Q3.7 -3.7 3.3 -3.7Q3.0 -3.7 2.7 -3.6Q2.4 -3.5 2.2 -3.3Q2.1 -3.3 2.1 -3.2Q2.0 -3.1 1.9 -2.9H0.9L1.2 -7.0H5.4V-6.1H2.2L2.0 -3.9H2.1Q2.2 -4.1 2.4 -4.3Q2.7 -4.4 2.9 -4.5Q3.2 -4.6 3.6 -4.6Q4.2 -4.6 4.7 -4.3Q5.2 -4.0 5.5 -3.5Q5.8 -3.0 5.8 -2.3V-2.3Q5.8 -1.6 5.5 -1.0Q5.2 -0.4 4.6 -0.1Q4.0 0.2 3.3 0.2Z M12.3 0.0Q11.4 0.0 11.0 -0.3Q10.6 -0.6 10.6 -1.4V-4.4H9.8V-5.3H10.6V-6.6H11.8V-5.3H12.9V-4.4H11.8V-1.7Q11.8 -1.3 12.0 -1.1Q12.1 -0.9 12.5 -0.9Q12.6 -0.9 12.7 -0.9Q12.8 -0.9 12.9 -0.9V-0.0Q12.8 -0.0 12.6 0.0Q12.5 0.0 12.3 0.0Z M16.6 0.1Q15.8 0.1 15.3 -0.2Q14.7 -0.6 14.4 -1.2Q14.1 -1.8 14.1 -2.7V-2.7Q14.1 -3.5 14.4 -4.1Q14.7 -4.8 15.3 -5.1Q15.8 -5.4 16.6 -5.4Q17.4 -5.4 18.0 -5.1Q18.6 -4.8 18.9 -4.1Q19.2 -3.5 19.2 -2.7V-2.7Q19.2 -1.8 18.9 -1.2Q18.6 -0.6 18.0 -0.2Q17.4 0.1 16.6 0.1ZM16.6 -0.8Q17.1 -0.8 17.4 -1.1Q17.7 -1.3 17.8 -1.7Q18.0 -2.1 18.0 -2.7V-2.7Q18.0 -3.2 17.8 -3.6Q17.7 -4.0 17.4 -4.3Q17.1 -4.5 16.6 -4.5Q16.2 -4.5 15.9 -4.3Q15.6 -4.0 15.4 -3.6Q15.3 -3.2 15.3 -2.7V-2.7Q15.3 -2.1 15.4 -1.7Q15.6 -1.3 15.9 -1.1Q16.2 -0.8 16.6 -0.8Z M22.9 0.1Q22.1 0.1 21.5 -0.2Q21.0 -0.6 20.7 -1.2Q20.3 -1.8 20.3 -2.7V-2.7Q20.3 -3.5 20.7 -4.1Q21.0 -4.8 21.5 -5.1Q22.1 -5.4 22.9 -5.4Q23.7 -5.4 24.3 -5.1Q24.8 -4.8 25.1 -4.1Q25.4 -3.5 25.4 -2.7V-2.7Q25.4 -1.8 25.1 -1.2Q24.8 -0.6 24.3 -0.2Q23.7 0.1 22.9 0.1ZM22.9 -0.8Q23.3 -0.8 23.6 -1.1Q23.9 -1.3 24.1 -1.7Q24.3 -2.1 24.3 -2.7V-2.7Q24.3 -3.2 24.1 -3.6Q23.9 -4.0 23.6 -4.3Q23.3 -4.5 22.9 -4.5Q22.5 -4.5 22.2 -4.3Q21.9 -4.0 21.7 -3.6Q21.5 -3.2 21.5 -2.7V-2.7Q21.5 -2.1 21.7 -1.7Q21.9 -1.3 22.2 -1.1Q22.5 -0.8 22.9 -0.8Z M26.9 0.0V-7.4H28.1V0.0Z M31.8 0.1Q31.1 0.1 30.7 -0.1Q30.2 -0.3 29.9 -0.6Q29.6 -1.0 29.6 -1.4L29.6 -1.4H30.7L30.7 -1.4Q30.8 -1.1 31.1 -0.9Q31.4 -0.8 31.8 -0.8Q32.1 -0.8 32.4 -0.9Q32.6 -0.9 32.7 -1.1Q32.9 -1.3 32.9 -1.5V-1.5Q32.9 -1.7 32.7 -1.9Q32.5 -2.0 32.0 -2.1L31.2 -2.3Q30.7 -2.4 30.4 -2.6Q30.0 -2.8 29.9 -3.1Q29.7 -3.4 29.7 -3.8V-3.8Q29.7 -4.3 30.0 -4.7Q30.2 -5.0 30.7 -5.2Q31.2 -5.4 31.8 -5.4Q32.4 -5.4 32.9 -5.2Q33.4 -5.0 33.6 -4.7Q33.9 -4.4 33.9 -3.9V-3.9H32.8L32.8 -3.9Q32.8 -4.2 32.5 -4.4Q32.2 -4.6 31.8 -4.6Q31.5 -4.6 31.3 -4.5Q31.1 -4.4 31.0 -4.2Q30.9 -4.1 30.9 -3.9V-3.9Q30.9 -3.7 30.9 -3.6Q31.0 -3.5 31.2 -3.4Q31.4 -3.3 31.7 -3.2L32.5 -3.0Q33.0 -2.9 33.4 -2.7Q33.7 -2.5 33.9 -2.3Q34.0 -2.0 34.0 -1.6V-1.6Q34.0 -1.1 33.8 -0.7Q33.5 -0.3 33.0 -0.1Q32.5 0.1 31.8 0.1Z M39.2 -2.1Q38.9 -2.1 38.7 -2.3Q38.5 -2.5 38.5 -2.8Q38.5 -3.2 38.7 -3.4Q38.9 -3.6 39.2 -3.6Q39.6 -3.6 39.8 -3.4Q40.0 -3.2 40.0 -2.8Q40.0 -2.5 39.8 -2.3Q39.6 -2.1 39.2 -2.1Z M46.4 0.0V-5.8H46.3L44.6 -4.6V-5.7L46.4 -7.0H47.6V0.0Z M52.3 0.2Q51.6 0.2 51.0 -0.1Q50.5 -0.4 50.2 -0.8Q49.9 -1.3 49.8 -1.9L49.8 -1.9H50.9L50.9 -1.9Q51.0 -1.6 51.2 -1.3Q51.3 -1.1 51.6 -1.0Q51.9 -0.8 52.3 -0.8Q52.7 -0.8 53.0 -1.0Q53.4 -1.2 53.5 -1.5Q53.7 -1.8 53.7 -2.3V-2.3Q53.7 -2.7 53.5 -3.0Q53.4 -3.3 53.0 -3.5Q52.7 -3.7 52.3 -3.7Q52.0 -3.7 51.7 -3.6Q51.5 -3.5 51.3 -3.3Q51.2 -3.3 51.1 -3.2Q51.0 -3.1 51.0 -2.9H49.9L50.3 -7.0H54.5V-6.1H51.2L51.0 -3.9H51.1Q51.2 -4.1 51.5 -4.3Q51.7 -4.4 52.0 -4.5Q52.3 -4.6 52.6 -4.6Q53.3 -4.6 53.8 -4.3Q54.3 -4.0 54.6 -3.5Q54.9 -3.0 54.9 -2.3V-2.3Q54.9 -1.6 54.5 -1.0Q54.2 -0.4 53.6 -0.1Q53.0 0.2 52.3 0.2Z M61.4 0.0Q60.5 0.0 60.1 -0.3Q59.7 -0.6 59.7 -1.4V-4.4H58.8V-5.3H59.7V-6.6H60.8V-5.3H62.0V-4.4H60.8V-1.7Q60.8 -1.3 61.0 -1.1Q61.2 -0.9 61.6 -0.9Q61.7 -0.9 61.8 -0.9Q61.9 -0.9 62.0 -0.9V-0.0Q61.8 -0.0 61.7 0.0Q61.5 0.0 61.4 0.0Z M65.7 0.1Q64.9 0.1 64.3 -0.2Q63.7 -0.6 63.4 -1.2Q63.1 -1.8 63.1 -2.6V-2.7Q63.1 -3.5 63.4 -4.1Q63.7 -4.7 64.3 -5.1Q64.8 -5.4 65.6 -5.4Q66.4 -5.4 66.9 -5.1Q67.4 -4.8 67.7 -4.2Q68.0 -3.6 68.0 -2.8V-2.4H63.7V-3.2H67.5L66.9 -2.4V-2.9Q66.9 -3.4 66.7 -3.8Q66.6 -4.1 66.3 -4.3Q66.0 -4.5 65.6 -4.5Q65.2 -4.5 64.9 -4.3Q64.6 -4.1 64.5 -3.8Q64.3 -3.4 64.3 -2.9V-2.4Q64.3 -1.9 64.5 -1.6Q64.6 -1.2 64.9 -1.0Q65.3 -0.8 65.7 -0.8Q66.0 -0.8 66.3 -0.9Q66.5 -1.0 66.6 -1.1Q66.8 -1.3 66.9 -1.4L66.9 -1.4L68.0 -1.4L68.0 -1.4Q67.9 -1.1 67.7 -0.9Q67.6 -0.6 67.3 -0.4Q67.0 -0.2 66.6 -0.0Q66.2 0.1 65.7 0.1Z M71.4 0.1Q70.8 0.1 70.3 -0.1Q69.8 -0.3 69.5 -0.6Q69.3 -1.0 69.2 -1.4L69.2 -1.4H70.4L70.4 -1.4Q70.5 -1.1 70.7 -0.9Q71.0 -0.8 71.5 -0.8Q71.8 -0.8 72.0 -0.9Q72.3 -0.9 72.4 -1.1Q72.5 -1.3 72.5 -1.5V-1.5Q72.5 -1.7 72.3 -1.9Q72.1 -2.0 71.7 -2.1L70.8 -2.3Q70.3 -2.4 70.0 -2.6Q69.7 -2.8 69.5 -3.1Q69.3 -3.4 69.3 -3.8V-3.8Q69.3 -4.3 69.6 -4.7Q69.9 -5.0 70.4 -5.2Q70.8 -5.4 71.5 -5.4Q72.1 -5.4 72.5 -5.2Q73.0 -5.0 73.3 -4.7Q73.5 -4.4 73.6 -3.9V-3.9H72.5L72.5 -3.9Q72.4 -4.2 72.1 -4.4Q71.9 -4.6 71.4 -4.6Q71.2 -4.6 71.0 -4.5Q70.7 -4.4 70.6 -4.2Q70.5 -4.1 70.5 -3.9V-3.9Q70.5 -3.7 70.6 -3.6Q70.7 -3.5 70.8 -3.4Q71.0 -3.3 71.3 -3.2L72.2 -3.0Q72.7 -2.9 73.0 -2.7Q73.4 -2.5 73.5 -2.3Q73.7 -2.0 73.7 -1.6V-1.6Q73.7 -1.1 73.4 -0.7Q73.1 -0.3 72.6 -0.1Q72.1 0.1 71.4 0.1Z M77.2 0.0Q76.3 0.0 75.9 -0.3Q75.5 -0.6 75.5 -1.4V-4.4H74.7V-5.3H75.5V-6.6H76.7V-5.3H77.8V-4.4H76.7V-1.7Q76.7 -1.3 76.8 -1.1Q77.0 -0.9 77.4 -0.9Q77.5 -0.9 77.6 -0.9Q77.7 -0.9 77.8 -0.9V-0.0Q77.7 -0.0 77.5 0.0Q77.4 0.0 77.2 0.0Z M81.2 0.1Q80.5 0.1 80.1 -0.1Q79.6 -0.3 79.3 -0.6Q79.0 -1.0 79.0 -1.4L79.0 -1.4H80.1L80.1 -1.4Q80.2 -1.1 80.5 -0.9Q80.8 -0.8 81.2 -0.8Q81.5 -0.8 81.8 -0.9Q82.0 -0.9 82.1 -1.1Q82.3 -1.3 82.3 -1.5V-1.5Q82.3 -1.7 82.1 -1.9Q81.9 -2.0 81.4 -2.1L80.6 -2.3Q80.1 -2.4 79.8 -2.6Q79.4 -2.8 79.3 -3.1Q79.1 -3.4 79.1 -3.8V-3.8Q79.1 -4.3 79.4 -4.7Q79.6 -5.0 80.1 -5.2Q80.6 -5.4 81.2 -5.4Q81.8 -5.4 82.3 -5.2Q82.8 -5.0 83.0 -4.7Q83.3 -4.4 83.3 -3.9V-3.9H82.2L82.2 -3.9Q82.2 -4.2 81.9 -4.4Q81.6 -4.6 81.2 -4.6Q80.9 -4.6 80.7 -4.5Q80.5 -4.4 80.4 -4.2Q80.3 -4.1 80.3 -3.9V-3.9Q80.3 -3.7 80.3 -3.6Q80.4 -3.5 80.6 -3.4Q80.8 -3.3 81.1 -3.2L81.9 -3.0Q82.4 -2.9 82.8 -2.7Q83.1 -2.5 83.3 -2.3Q83.4 -2.0 83.4 -1.6V-1.6Q83.4 -1.1 83.2 -0.7Q82.9 -0.3 82.4 -0.1Q81.9 0.1 81.2 0.1Z"/></g>
</svg>