<svg xmlns="http://www.w3.org/2000/svg" viewBox="0 0 440 150" width="440" height="150" role="img" aria-label="rppg10-extractor — Camera heart-rate extraction scored against synchronized 1000 Hz ECG ground truth.">
  <rect x="0.75" y="0.75" width="438" height="148" rx="12" fill="#0D1117" stroke="#1F2937" stroke-width="1.5"/>
  <rect x="0.75" y="0.75" width="4" height="148" rx="2" fill="#0D9488"/>
  <g transform="translate(46,44)" fill="#F8F9FA"><path d="M1.1 0.0V-8.8H3.3V-7.4H3.4Q3.7 -8.1 4.2 -8.5Q4.8 -8.9 5.6 -8.9Q5.8 -8.9 6.1 -8.9Q6.3 -8.9 6.4 -8.8V-6.9Q6.2 -6.9 6.0 -7.0Q5.7 -7.0 5.4 -7.0Q4.8 -7.0 4.3 -6.8Q3.8 -6.5 3.6 -6.1Q3.3 -5.6 3.3 -5.0V0.0Z M8.0 2.9V-8.8H10.2V-7.4H10.3Q10.6 -7.9 10.9 -8.2Q11.3 -8.6 11.8 -8.8Q12.4 -8.9 13.0 -8.9Q14.1 -8.9 14.9 -8.4Q15.7 -7.8 16.1 -6.8Q16.6 -5.8 16.6 -4.4V-4.4Q16.6 -3.0 16.1 -2.0Q15.7 -0.9 14.9 -0.4Q14.1 0.2 13.0 0.2Q12.4 0.2 11.9 -0.0Q11.3 -0.2 10.9 -0.6Q10.6 -0.9 10.3 -1.4H10.2V2.9ZM12.3 -1.7Q12.9 -1.7 13.4 -2.0Q13.8 -2.4 14.1 -3.0Q14.3 -3.6 14.3 -4.4V-4.4Q14.3 -5.2 14.1 -5.8Q13.8 -6.4 13.3 -6.8Q12.9 -7.1 12.3 -7.1Q11.6 -7.1 11.2 -6.8Q10.7 -6.4 10.4 -5.8Q10.2 -5.2 10.2 -4.4V-4.4Q10.2 -3.6 10.4 -3.0Q10.7 -2.4 11.2 -2.0Q11.6 -1.7 12.3 -1.7Z M18.5 2.9V-8.8H20.7V-7.4H20.8Q21.0 -7.9 21.4 -8.2Q21.8 -8.6 22.3 -8.8Q22.9 -8.9 23.5 -8.9Q24.6 -8.9 25.4 -8.4Q26.2 -7.8 26.6 -6.8Q27.1 -5.8 27.1 -4.4V-4.4Q27.1 -3.0 26.6 -2.0Q26.2 -0.9 25.4 -0.4Q24.6 0.2 23.5 0.2Q22.9 0.2 22.3 -0.0Q21.8 -0.2 21.4 -0.6Q21.0 -0.9 20.8 -1.4H20.7V2.9ZM22.7 -1.7Q23.4 -1.7 23.8 -2.0Q24.3 -2.4 24.5 -3.0Q24.8 -3.6 24.8 -4.4V-4.4Q24.8 -5.2 24.5 -5.8Q24.3 -6.4 23.8 -6.8Q23.4 -7.1 22.7 -7.1Q22.1 -7.1 21.6 -6.8Q21.2 -6.4 20.9 -5.8Q20.7 -5.2 20.7 -4.4V-4.4Q20.7 -3.6 20.9 -3.0Q21.2 -2.4 21.6 -2.0Q22.1 -1.7 22.7 -1.7Z M32.8 3.1Q31.6 3.1 30.8 2.8Q29.9 2.5 29.4 1.9Q28.9 1.3 28.8 0.6L28.8 0.5H31.0L31.0 0.6Q31.1 1.0 31.6 1.2Q32.1 1.5 32.9 1.5Q33.8 1.5 34.4 1.0Q34.9 0.6 34.9 -0.2V-1.8H34.8Q34.5 -1.3 34.1 -1.0Q33.8 -0.7 33.2 -0.5Q32.7 -0.3 32.1 -0.3Q31.0 -0.3 30.2 -0.9Q29.4 -1.4 29.0 -2.3Q28.5 -3.3 28.5 -4.6V-4.6Q28.5 -5.9 29.0 -6.9Q29.4 -7.9 30.2 -8.4Q31.0 -8.9 32.1 -8.9Q32.8 -8.9 33.3 -8.7Q33.8 -8.5 34.2 -8.2Q34.6 -7.8 34.8 -7.3H34.9V-8.8H37.1V-0.3Q37.1 0.8 36.6 1.5Q36.1 2.3 35.1 2.7Q34.2 3.1 32.8 3.1ZM32.8 -2.0Q33.5 -2.0 34.0 -2.4Q34.4 -2.7 34.7 -3.2Q34.9 -3.8 34.9 -4.6V-4.6Q34.9 -5.3 34.7 -5.9Q34.4 -6.5 34.0 -6.8Q33.5 -7.1 32.8 -7.1Q32.2 -7.1 31.7 -6.8Q31.3 -6.5 31.0 -5.9Q30.8 -5.3 30.8 -4.6V-4.6Q30.8 -3.8 31.0 -3.2Q31.3 -2.7 31.7 -2.4Q32.2 -2.0 32.8 -2.0Z M42.3 0.0V-9.4H42.2L39.3 -7.4V-9.5L42.3 -11.6H44.6V0.0Z M52.2 0.3Q50.7 0.3 49.7 -0.5Q48.7 -1.2 48.1 -2.6Q47.6 -3.9 47.6 -5.8V-5.8Q47.6 -7.7 48.1 -9.1Q48.7 -10.4 49.7 -11.2Q50.7 -11.9 52.2 -11.9Q53.6 -11.9 54.6 -11.2Q55.6 -10.4 56.2 -9.1Q56.7 -7.7 56.7 -5.8V-5.8Q56.7 -3.9 56.2 -2.6Q55.6 -1.2 54.6 -0.5Q53.6 0.3 52.2 0.3ZM52.2 -1.6Q52.9 -1.6 53.4 -2.1Q53.9 -2.6 54.2 -3.5Q54.4 -4.5 54.4 -5.8V-5.8Q54.4 -7.2 54.2 -8.1Q53.9 -9.0 53.4 -9.6Q52.9 -10.1 52.2 -10.1Q51.4 -10.1 50.9 -9.6Q50.4 -9.0 50.2 -8.1Q49.9 -7.2 49.9 -5.8V-5.8Q49.9 -4.5 50.2 -3.5Q50.4 -2.6 50.9 -2.1Q51.4 -1.6 52.2 -1.6Z M59.0 -3.7V-5.7H64.4V-3.7Z M70.6 0.2Q69.3 0.2 68.4 -0.4Q67.4 -0.9 66.9 -1.9Q66.4 -3.0 66.4 -4.4V-4.4Q66.4 -5.8 66.9 -6.8Q67.4 -7.8 68.3 -8.4Q69.3 -9.0 70.5 -9.0Q71.8 -9.0 72.7 -8.4Q73.7 -7.9 74.2 -6.9Q74.7 -5.9 74.7 -4.6V-3.9H67.5V-5.3H73.6L72.5 -3.9V-4.8Q72.5 -5.6 72.3 -6.2Q72.0 -6.7 71.6 -7.0Q71.2 -7.3 70.6 -7.3Q70.0 -7.3 69.6 -7.0Q69.1 -6.7 68.8 -6.2Q68.6 -5.6 68.6 -4.8V-3.9Q68.6 -3.2 68.8 -2.6Q69.1 -2.1 69.6 -1.8Q70.0 -1.5 70.7 -1.5Q71.2 -1.5 71.6 -1.7Q71.9 -1.8 72.2 -2.0Q72.4 -2.3 72.5 -2.4L72.5 -2.5L74.6 -2.5L74.6 -2.4Q74.5 -2.0 74.2 -1.5Q73.9 -1.1 73.4 -0.7Q73.0 -0.3 72.3 -0.1Q71.6 0.2 70.6 0.2Z M75.9 0.0 78.7 -4.4 75.9 -8.8H78.4L80.1 -5.8H80.2L81.8 -8.8H84.2L81.5 -4.4L84.3 0.0H81.8L80.1 -3.0H80.0L78.3 0.0Z M89.4 0.1Q87.9 0.1 87.2 -0.5Q86.5 -1.1 86.5 -2.4V-7.1H85.2V-8.8H86.5V-10.9H88.8V-8.8H90.6V-7.1H88.8V-2.8Q88.8 -2.2 89.0 -1.9Q89.3 -1.7 89.9 -1.7Q90.1 -1.7 90.3 -1.7Q90.4 -1.7 90.6 -1.7V-0.0Q90.3 0.0 90.1 0.0Q89.8 0.1 89.4 0.1Z M92.5 0.0V-8.8H94.7V-7.4H94.8Q95.0 -8.1 95.6 -8.5Q96.2 -8.9 97.0 -8.9Q97.2 -8.9 97.4 -8.9Q97.6 -8.9 97.8 -8.8V-6.9Q97.6 -6.9 97.3 -7.0Q97.1 -7.0 96.8 -7.0Q96.2 -7.0 95.7 -6.8Q95.2 -6.5 95.0 -6.1Q94.7 -5.6 94.7 -5.0V0.0Z M101.8 0.1Q101.0 0.1 100.3 -0.2Q99.6 -0.5 99.3 -1.1Q98.9 -1.7 98.9 -2.5V-2.5Q98.9 -3.3 99.3 -3.9Q99.7 -4.4 100.5 -4.8Q101.2 -5.1 102.3 -5.1L105.6 -5.3V-3.9L102.6 -3.8Q101.9 -3.7 101.5 -3.4Q101.1 -3.1 101.1 -2.6V-2.6Q101.1 -2.1 101.5 -1.8Q101.9 -1.5 102.5 -1.5Q103.1 -1.5 103.5 -1.7Q104.0 -2.0 104.2 -2.3Q104.5 -2.7 104.5 -3.2V-6.0Q104.5 -6.6 104.1 -6.9Q103.7 -7.2 102.9 -7.2Q102.3 -7.2 101.9 -7.0Q101.5 -6.8 101.3 -6.4L101.3 -6.3H99.2L99.3 -6.4Q99.3 -7.2 99.8 -7.7Q100.3 -8.3 101.1 -8.6Q102.0 -9.0 103.0 -9.0Q104.2 -9.0 105.0 -8.6Q105.8 -8.3 106.2 -7.6Q106.7 -6.9 106.7 -6.0V0.0H104.5V-1.2H104.4Q104.1 -0.8 103.7 -0.5Q103.4 -0.2 102.9 -0.0Q102.4 0.1 101.8 0.1Z M112.8 0.2Q111.4 0.2 110.5 -0.4Q109.5 -0.9 109.0 -1.9Q108.5 -3.0 108.5 -4.4V-4.4Q108.5 -5.9 109.0 -6.9Q109.5 -7.9 110.5 -8.4Q111.4 -9.0 112.8 -9.0Q113.9 -9.0 114.8 -8.6Q115.6 -8.2 116.1 -7.4Q116.6 -6.7 116.7 -5.8L116.7 -5.7H114.6L114.6 -5.8Q114.5 -6.4 114.0 -6.8Q113.6 -7.2 112.8 -7.2Q112.2 -7.2 111.7 -6.9Q111.3 -6.5 111.0 -5.9Q110.8 -5.3 110.8 -4.4V-4.4Q110.8 -3.5 111.0 -2.9Q111.3 -2.2 111.7 -1.9Q112.2 -1.6 112.8 -1.6Q113.5 -1.6 114.0 -1.9Q114.4 -2.3 114.6 -3.0L114.6 -3.0L116.7 -3.0L116.7 -3.0Q116.6 -2.0 116.1 -1.3Q115.6 -0.6 114.8 -0.2Q113.9 0.2 112.8 0.2Z M122.0 0.1Q120.5 0.1 119.8 -0.5Q119.1 -1.1 119.1 -2.4V-7.1H117.8V-8.8H119.1V-10.9H121.4V-8.8H123.1V-7.1H121.4V-2.8Q121.4 -2.2 121.6 -1.9Q121.9 -1.7 122.5 -1.7Q122.7 -1.7 122.8 -1.7Q123.0 -1.7 123.1 -1.7V-0.0Q122.9 0.0 122.6 0.0Q122.4 0.1 122.0 0.1Z M128.9 0.2Q127.6 0.2 126.6 -0.4Q125.7 -0.9 125.2 -1.9Q124.6 -3.0 124.6 -4.4V-4.4Q124.6 -5.8 125.2 -6.8Q125.7 -7.9 126.7 -8.4Q127.6 -9.0 128.9 -9.0Q130.3 -9.0 131.2 -8.4Q132.2 -7.9 132.7 -6.8Q133.2 -5.8 133.2 -4.4V-4.4Q133.2 -3.0 132.7 -1.9Q132.2 -0.9 131.2 -0.4Q130.3 0.2 128.9 0.2ZM128.9 -1.6Q129.6 -1.6 130.0 -1.9Q130.5 -2.2 130.7 -2.9Q131.0 -3.5 131.0 -4.4V-4.4Q131.0 -5.3 130.7 -5.9Q130.5 -6.5 130.0 -6.9Q129.6 -7.2 128.9 -7.2Q128.3 -7.2 127.9 -6.9Q127.4 -6.5 127.2 -5.9Q126.9 -5.3 126.9 -4.4V-4.4Q126.9 -3.5 127.2 -2.9Q127.4 -2.2 127.9 -1.9Q128.3 -1.6 128.9 -1.6Z M135.1 0.0V-8.8H137.4V-7.4H137.5Q137.7 -8.1 138.3 -8.5Q138.8 -8.9 139.7 -8.9Q139.9 -8.9 140.1 -8.9Q140.3 -8.9 140.5 -8.8V-6.9Q140.2 -6.9 140.0 -7.0Q139.7 -7.0 139.5 -7.0Q138.8 -7.0 138.3 -6.8Q137.9 -6.5 137.6 -6.1Q137.4 -5.6 137.4 -5.0V0.0Z"/></g>
  <circle cx="30" cy="39" r="5.5" fill="none" stroke="#0D9488" stroke-width="2"/>
  <g transform="translate(46,72)" fill="#9CA3AF"><path d="M4.5 0.2Q3.3 0.2 2.5 -0.3Q1.6 -0.9 1.2 -1.9Q0.7 -2.9 0.7 -4.2V-4.2Q0.7 -5.6 1.2 -6.6Q1.6 -7.6 2.5 -8.1Q3.3 -8.7 4.5 -8.7Q5.4 -8.7 6.1 -8.3Q6.9 -7.9 7.4 -7.3Q7.8 -6.7 8.0 -5.9L8.0 -5.8H6.8L6.8 -5.9Q6.6 -6.4 6.3 -6.8Q6.0 -7.2 5.5 -7.4Q5.1 -7.6 4.5 -7.6Q3.7 -7.6 3.1 -7.2Q2.6 -6.8 2.2 -6.0Q1.9 -5.3 1.9 -4.2V-4.2Q1.9 -3.2 2.2 -2.4Q2.6 -1.7 3.1 -1.3Q3.7 -0.9 4.5 -0.9Q5.1 -0.9 5.5 -1.1Q6.0 -1.2 6.3 -1.6Q6.6 -1.9 6.8 -2.4L6.8 -2.4H8.0L8.0 -2.4Q7.8 -1.6 7.4 -1.0Q6.9 -0.5 6.2 -0.1Q5.4 0.2 4.5 0.2Z M11.4 0.1Q10.8 0.1 10.4 -0.1Q9.9 -0.4 9.6 -0.8Q9.3 -1.2 9.3 -1.8V-1.8Q9.3 -2.3 9.6 -2.8Q9.9 -3.2 10.4 -3.4Q10.9 -3.6 11.7 -3.7L14.0 -3.8V-2.9L11.8 -2.8Q11.1 -2.8 10.8 -2.5Q10.5 -2.3 10.5 -1.8V-1.8Q10.5 -1.3 10.8 -1.1Q11.2 -0.8 11.7 -0.8Q12.2 -0.8 12.6 -1.0Q13.0 -1.2 13.2 -1.6Q13.4 -1.9 13.4 -2.4V-4.3Q13.4 -4.9 13.1 -5.2Q12.7 -5.5 12.1 -5.5Q11.5 -5.5 11.2 -5.3Q10.8 -5.1 10.7 -4.7L10.7 -4.7H9.6L9.6 -4.7Q9.7 -5.3 10.0 -5.6Q10.3 -6.0 10.9 -6.2Q11.4 -6.4 12.1 -6.4Q12.9 -6.4 13.4 -6.2Q14.0 -5.9 14.3 -5.5Q14.6 -5.0 14.6 -4.3V0.0H13.4V-0.9H13.3Q13.1 -0.6 12.9 -0.4Q12.6 -0.1 12.2 -0.0Q11.9 0.1 11.4 0.1Z M16.5 0.0V-6.3H17.6V-5.4H17.7Q18.0 -5.9 18.4 -6.2Q18.8 -6.4 19.5 -6.4Q19.9 -6.4 20.2 -6.3Q20.6 -6.2 20.8 -5.9Q21.1 -5.7 21.2 -5.3H21.3Q21.5 -5.7 21.8 -5.9Q22.0 -6.2 22.4 -6.3Q22.8 -6.4 23.2 -6.4Q23.9 -6.4 24.3 -6.2Q24.8 -6.0 25.0 -5.5Q25.3 -5.0 25.3 -4.4V0.0H24.1V-4.1Q24.1 -4.6 24.0 -4.9Q23.8 -5.2 23.6 -5.3Q23.3 -5.5 22.8 -5.5Q22.4 -5.5 22.1 -5.3Q21.8 -5.1 21.6 -4.8Q21.4 -4.4 21.4 -4.0V0.0H20.3V-4.2Q20.3 -4.6 20.2 -4.9Q20.0 -5.2 19.7 -5.3Q19.4 -5.5 19.0 -5.5Q18.6 -5.5 18.3 -5.2Q18.0 -5.0 17.8 -4.7Q17.6 -4.3 17.6 -3.9V0.0Z M29.8 0.1Q28.9 0.1 28.2 -0.3Q27.6 -0.7 27.2 -1.4Q26.9 -2.1 26.9 -3.1V-3.1Q26.9 -4.1 27.2 -4.9Q27.6 -5.6 28.2 -6.0Q28.9 -6.4 29.7 -6.4Q30.6 -6.4 31.2 -6.0Q31.9 -5.6 32.2 -4.9Q32.6 -4.2 32.6 -3.3V-2.9H27.5V-3.7H32.0L31.4 -2.9V-3.4Q31.4 -4.1 31.2 -4.6Q31.0 -5.0 30.6 -5.2Q30.2 -5.5 29.7 -5.5Q29.3 -5.5 28.9 -5.2Q28.5 -5.0 28.3 -4.5Q28.0 -4.1 28.0 -3.4V-2.9Q28.0 -2.3 28.2 -1.8Q28.5 -1.3 28.9 -1.1Q29.3 -0.9 29.8 -0.9Q30.3 -0.9 30.6 -1.0Q30.9 -1.1 31.1 -1.3Q31.3 -1.4 31.3 -1.6L31.4 -1.7L32.5 -1.7L32.5 -1.6Q32.4 -1.3 32.2 -1.0Q32.0 -0.7 31.6 -0.4Q31.3 -0.2 30.8 -0.0Q30.4 0.1 29.8 0.1Z M34.2 0.0V-6.3H35.4V-5.4H35.5Q35.6 -5.9 36.1 -6.2Q36.5 -6.4 37.1 -6.4Q37.3 -6.4 37.4 -6.4Q37.6 -6.4 37.6 -6.4V-5.3Q37.5 -5.3 37.3 -5.4Q37.2 -5.4 37.0 -5.4Q36.5 -5.4 36.1 -5.2Q35.8 -5.0 35.6 -4.7Q35.4 -4.3 35.4 -3.9V0.0Z M40.8 0.1Q40.2 0.1 39.7 -0.1Q39.2 -0.4 38.9 -0.8Q38.7 -1.2 38.7 -1.8V-1.8Q38.7 -2.3 38.9 -2.8Q39.2 -3.2 39.7 -3.4Q40.2 -3.6 41.0 -3.7L43.3 -3.8V-2.9L41.1 -2.8Q40.4 -2.8 40.1 -2.5Q39.8 -2.3 39.8 -1.8V-1.8Q39.8 -1.3 40.1 -1.1Q40.5 -0.8 41.0 -0.8Q41.5 -0.8 41.9 -1.0Q42.3 -1.2 42.5 -1.6Q42.8 -1.9 42.8 -2.4V-4.3Q42.8 -4.9 42.4 -5.2Q42.1 -5.5 41.4 -5.5Q40.8 -5.5 40.5 -5.3Q40.1 -5.1 40.0 -4.7L40.0 -4.7H38.9L38.9 -4.7Q39.0 -5.3 39.3 -5.6Q39.7 -6.0 40.2 -6.2Q40.7 -6.4 41.4 -6.4Q42.2 -6.4 42.8 -6.2Q43.3 -5.9 43.6 -5.5Q43.9 -5.0 43.9 -4.3V0.0H42.8V-0.9H42.7Q42.5 -0.6 42.2 -0.4Q41.9 -0.1 41.5 -0.0Q41.2 0.1 40.8 0.1Z M49.3 0.0V-8.8H50.5V-5.4H50.6Q50.8 -5.9 51.3 -6.2Q51.7 -6.4 52.4 -6.4Q53.1 -6.4 53.6 -6.2Q54.1 -5.9 54.4 -5.4Q54.6 -4.8 54.6 -4.1V0.0H53.5V-3.8Q53.5 -4.6 53.1 -5.1Q52.8 -5.5 52.0 -5.5Q51.6 -5.5 51.2 -5.2Q50.9 -5.0 50.7 -4.6Q50.5 -4.3 50.5 -3.7V0.0Z M59.2 0.1Q58.2 0.1 57.6 -0.3Q56.9 -0.7 56.6 -1.4Q56.2 -2.1 56.2 -3.1V-3.1Q56.2 -4.1 56.6 -4.9Q56.9 -5.6 57.6 -6.0Q58.2 -6.4 59.1 -6.4Q60.0 -6.4 60.6 -6.0Q61.2 -5.6 61.6 -4.9Q61.9 -4.2 61.9 -3.3V-2.9H56.8V-3.7H61.3L60.8 -2.9V-3.4Q60.8 -4.1 60.6 -4.6Q60.3 -5.0 60.0 -5.2Q59.6 -5.5 59.1 -5.5Q58.6 -5.5 58.2 -5.2Q57.8 -5.0 57.6 -4.5Q57.4 -4.1 57.4 -3.4V-2.9Q57.4 -2.3 57.6 -1.8Q57.8 -1.3 58.2 -1.1Q58.6 -0.9 59.2 -0.9Q59.6 -0.9 59.9 -1.0Q60.2 -1.1 60.4 -1.3Q60.6 -1.4 60.7 -1.6L60.7 -1.7L61.8 -1.7L61.8 -1.6Q61.7 -1.3 61.5 -1.0Q61.3 -0.7 61.0 -0.4Q60.7 -0.2 60.2 -0.0Q59.7 0.1 59.2 0.1Z M65.3 0.1Q64.7 0.1 64.2 -0.1Q63.8 -0.4 63.5 -0.8Q63.2 -1.2 63.2 -1.8V-1.8Q63.2 -2.3 63.5 -2.8Q63.8 -3.2 64.3 -3.4Q64.8 -3.6 65.5 -3.7L67.9 -3.8V-2.9L65.7 -2.8Q65.0 -2.8 64.7 -2.5Q64.4 -2.3 64.4 -1.8V-1.8Q64.4 -1.3 64.7 -1.1Q65.1 -0.8 65.6 -0.8Q66.1 -0.8 66.5 -1.0Q66.9 -1.2 67.1 -1.6Q67.3 -1.9 67.3 -2.4V-4.3Q67.3 -4.9 67.0 -5.2Q66.6 -5.5 66.0 -5.5Q65.4 -5.5 65.0 -5.3Q64.7 -5.1 64.6 -4.7L64.6 -4.7H63.5L63.5 -4.7Q63.5 -5.3 63.9 -5.6Q64.2 -6.0 64.8 -6.2Q65.3 -6.4 66.0 -6.4Q66.8 -6.4 67.3 -6.2Q67.9 -5.9 68.2 -5.5Q68.4 -5.0 68.4 -4.3V0.0H67.3V-0.9H67.2Q67.0 -0.6 66.7 -0.4Q66.5 -0.1 66.1 -0.0Q65.7 0.1 65.3 0.1Z M70.4 0.0V-6.3H71.5V-5.4H71.6Q71.8 -5.9 72.2 -6.2Q72.7 -6.4 73.3 -6.4Q73.4 -6.4 73.6 -6.4Q73.7 -6.4 73.8 -6.4V-5.3Q73.7 -5.3 73.5 -5.4Q73.3 -5.4 73.2 -5.4Q72.7 -5.4 72.3 -5.2Q71.9 -5.0 71.7 -4.7Q71.5 -4.3 71.5 -3.9V0.0Z M77.5 0.0Q76.5 0.0 76.0 -0.3Q75.6 -0.7 75.6 -1.7V-5.4H74.6V-6.3H75.6V-7.9H76.8V-6.3H78.1V-5.4H76.8V-1.9Q76.8 -1.4 77.0 -1.2Q77.2 -0.9 77.7 -0.9Q77.8 -0.9 77.9 -0.9Q78.0 -0.9 78.1 -0.9V-0.0Q78.0 0.0 77.8 0.0Q77.7 0.0 77.5 0.0Z M79.7 -2.9V-3.9H83.6V-2.9Z M85.6 0.0V-6.3H86.7V-5.4H86.8Q87.0 -5.9 87.4 -6.2Q87.8 -6.4 88.5 -6.4Q88.6 -6.4 88.8 -6.4Q88.9 -6.4 89.0 -6.4V-5.3Q88.8 -5.3 88.7 -5.4Q88.5 -5.4 88.3 -5.4Q87.9 -5.4 87.5 -5.2Q87.1 -5.0 86.9 -4.7Q86.7 -4.3 86.7 -3.9V0.0Z M92.1 0.1Q91.5 0.1 91.0 -0.1Q90.5 -0.4 90.3 -0.8Q90.0 -1.2 90.0 -1.8V-1.8Q90.0 -2.3 90.3 -2.8Q90.5 -3.2 91.1 -3.4Q91.6 -3.6 92.3 -3.7L94.7 -3.8V-2.9L92.5 -2.8Q91.8 -2.8 91.5 -2.5Q91.1 -2.3 91.1 -1.8V-1.8Q91.1 -1.3 91.5 -1.1Q91.8 -0.8 92.4 -0.8Q92.9 -0.8 93.3 -1.0Q93.6 -1.2 93.9 -1.6Q94.1 -1.9 94.1 -2.4V-4.3Q94.1 -4.9 93.8 -5.2Q93.4 -5.5 92.7 -5.5Q92.2 -5.5 91.8 -5.3Q91.5 -5.1 91.4 -4.7L91.4 -4.7H90.2L90.3 -4.7Q90.3 -5.3 90.7 -5.6Q91.0 -6.0 91.5 -6.2Q92.1 -6.4 92.8 -6.4Q93.6 -6.4 94.1 -6.2Q94.7 -5.9 94.9 -5.5Q95.2 -5.0 95.2 -4.3V0.0H94.1V-0.9H94.0Q93.8 -0.6 93.5 -0.4Q93.2 -0.1 92.9 -0.0Q92.5 0.1 92.1 0.1Z M99.5 0.0Q98.5 0.0 98.0 -0.3Q97.6 -0.7 97.6 -1.7V-5.4H96.6V-6.3H97.6V-7.9H98.8V-6.3H100.1V-5.4H98.8V-1.9Q98.8 -1.4 99.0 -1.2Q99.2 -0.9 99.6 -0.9Q99.8 -0.9 99.9 -0.9Q100.0 -0.9 100.1 -0.9V-0.0Q100.0 0.0 99.8 0.0Q99.7 0.0 99.5 0.0Z M104.4 0.1Q103.5 0.1 102.8 -0.3Q102.1 -0.7 101.8 -1.4Q101.4 -2.1 101.4 -3.1V-3.1Q101.4 -4.1 101.8 -4.9Q102.1 -5.6 102.8 -6.0Q103.4 -6.4 104.3 -6.4Q105.2 -6.4 105.8 -6.0Q106.4 -5.6 106.8 -4.9Q107.1 -4.2 107.1 -3.3V-2.9H102.0V-3.7H106.5L106.0 -2.9V-3.4Q106.0 -4.1 105.8 -4.6Q105.6 -5.0 105.2 -5.2Q104.8 -5.5 104.3 -5.5Q103.8 -5.5 103.4 -5.2Q103.0 -5.0 102.8 -4.5Q102.6 -4.1 102.6 -3.4V-2.9Q102.6 -2.3 102.8 -1.8Q103.0 -1.3 103.4 -1.1Q103.8 -0.9 104.4 -0.9Q104.8 -0.9 105.1 -1.0Q105.4 -1.1 105.6 -1.3Q105.8 -1.4 105.9 -1.6L105.9 -1.7L107.0 -1.7L107.0 -1.6Q106.9 -1.3 106.7 -1.0Q106.5 -0.7 106.2 -0.4Q105.9 -0.2 105.4 -0.0Q104.9 0.1 104.4 0.1Z M114.8 0.1Q113.9 0.1 113.3 -0.3Q112.6 -0.7 112.3 -1.4Q111.9 -2.1 111.9 -3.1V-3.1Q111.9 -4.1 112.3 -4.9Q112.6 -5.6 113.3 -6.0Q113.9 -6.4 114.8 -6.4Q115.7 -6.4 116.3 -6.0Q116.9 -5.6 117.2 -4.9Q117.6 -4.2 117.6 -3.3V-2.9H112.5V-3.7H117.0L116.5 -2.9V-3.4Q116.5 -4.1 116.2 -4.6Q116.0 -5.0 115.6 -5.2Q115.3 -5.5 114.8 -5.5Q114.3 -5.5 113.9 -5.2Q113.5 -5.0 113.3 -4.5Q113.1 -4.1 113.1 -3.4V-2.9Q113.1 -2.3 113.3 -1.8Q113.5 -1.3 113.9 -1.1Q114.3 -0.9 114.9 -0.9Q115.3 -0.9 115.6 -1.0Q115.9 -1.1 116.1 -1.3Q116.3 -1.4 116.4 -1.6L116.4 -1.7L117.5 -1.7L117.5 -1.6Q117.4 -1.3 117.2 -1.0Q117.0 -0.7 116.7 -0.4Q116.3 -0.2 115.9 -0.0Q115.4 0.1 114.8 0.1Z M118.8 0.0 120.9 -3.2 118.7 -6.3H120.1L121.5 -4.0H121.6L123.0 -6.3H124.3L122.2 -3.2L124.3 0.0H123.0L121.6 -2.3H121.5L120.0 0.0Z M128.1 0.0Q127.1 0.0 126.6 -0.3Q126.2 -0.7 126.2 -1.7V-5.4H125.2V-6.3H126.2V-7.9H127.4V-6.3H128.7V-5.4H127.4V-1.9Q127.4 -1.4 127.6 -1.2Q127.8 -0.9 128.3 -0.9Q128.4 -0.9 128.5 -0.9Q128.6 -0.9 128.7 -0.9V-0.0Q128.6 0.0 128.4 0.0Q128.3 0.0 128.1 0.0Z M130.4 0.0V-6.3H131.5V-5.4H131.6Q131.8 -5.9 132.2 -6.2Q132.6 -6.4 133.3 -6.4Q133.4 -6.4 133.5 -6.4Q133.7 -6.4 133.8 -6.4V-5.3Q133.6 -5.3 133.5 -5.4Q133.3 -5.4 133.1 -5.4Q132.6 -5.4 132.3 -5.2Q131.9 -5.0 131.7 -4.7Q131.5 -4.3 131.5 -3.9V0.0Z M136.9 0.1Q136.3 0.1 135.8 -0.1Q135.3 -0.4 135.1 -0.8Q134.8 -1.2 134.8 -1.8V-1.8Q134.8 -2.3 135.1 -2.8Q135.3 -3.2 135.9 -3.4Q136.4 -3.6 137.1 -3.7L139.4 -3.8V-2.9L137.3 -2.8Q136.6 -2.8 136.3 -2.5Q135.9 -2.3 135.9 -1.8V-1.8Q135.9 -1.3 136.3 -1.1Q136.6 -0.8 137.2 -0.8Q137.7 -0.8 138.0 -1.0Q138.4 -1.2 138.7 -1.6Q138.9 -1.9 138.9 -2.4V-4.3Q138.9 -4.9 138.5 -5.2Q138.2 -5.5 137.5 -5.5Q137.0 -5.5 136.6 -5.3Q136.3 -5.1 136.2 -4.7L136.1 -4.7H135.0L135.0 -4.7Q135.1 -5.3 135.5 -5.6Q135.8 -6.0 136.3 -6.2Q136.9 -6.4 137.6 -6.4Q138.4 -6.4 138.9 -6.2Q139.4 -5.9 139.7 -5.5Q140.0 -5.0 140.0 -4.3V0.0H138.9V-0.9H138.8Q138.6 -0.6 138.3 -0.4Q138.0 -0.1 137.7 -0.0Q137.3 0.1 136.9 0.1Z M144.6 0.1Q143.7 0.1 143.0 -0.3Q142.4 -0.7 142.0 -1.4Q141.7 -2.2 141.7 -3.2V-3.2Q141.7 -4.2 142.0 -4.9Q142.4 -5.6 143.0 -6.0Q143.7 -6.4 144.6 -6.4Q145.4 -6.4 145.9 -6.2Q146.5 -5.9 146.8 -5.4Q147.2 -5.0 147.3 -4.4L147.3 -4.3H146.2L146.2 -4.4Q146.0 -4.8 145.6 -5.1Q145.2 -5.5 144.6 -5.5Q144.0 -5.5 143.6 -5.2Q143.2 -4.9 143.0 -4.4Q142.8 -3.9 142.8 -3.2V-3.2Q142.8 -2.5 143.0 -1.9Q143.2 -1.4 143.6 -1.1Q144.0 -0.9 144.6 -0.9Q145.2 -0.9 145.6 -1.1Q146.0 -1.4 146.1 -1.9L146.2 -2.0L147.3 -2.0L147.3 -1.9Q147.1 -1.3 146.8 -0.9Q146.5 -0.4 145.9 -0.1Q145.4 0.1 144.6 0.1Z M151.2 0.0Q150.2 0.0 149.7 -0.3Q149.3 -0.7 149.3 -1.7V-5.4H148.3V-6.3H149.3V-7.9H150.4V-6.3H151.8V-5.4H150.4V-1.9Q150.4 -1.4 150.6 -1.2Q150.8 -0.9 151.3 -0.9Q151.5 -0.9 151.6 -0.9Q151.7 -0.9 151.8 -0.9V-0.0Q151.6 0.0 151.5 0.0Q151.3 0.0 151.2 0.0Z M153.5 0.0V-6.3H154.6V0.0ZM154.0 -7.5Q153.7 -7.5 153.5 -7.7Q153.3 -7.9 153.3 -8.2Q153.3 -8.6 153.5 -8.8Q153.7 -9.0 154.0 -9.0Q154.3 -9.0 154.6 -8.8Q154.8 -8.6 154.8 -8.2Q154.8 -7.9 154.6 -7.7Q154.3 -7.5 154.0 -7.5Z M159.2 0.1Q158.3 0.1 157.7 -0.3Q157.0 -0.7 156.6 -1.4Q156.3 -2.1 156.3 -3.2V-3.2Q156.3 -4.2 156.6 -4.9Q157.0 -5.7 157.7 -6.1Q158.3 -6.4 159.2 -6.4Q160.2 -6.4 160.8 -6.1Q161.5 -5.7 161.8 -4.9Q162.2 -4.2 162.2 -3.2V-3.2Q162.2 -2.1 161.8 -1.4Q161.5 -0.7 160.8 -0.3Q160.2 0.1 159.2 0.1ZM159.2 -0.9Q159.8 -0.9 160.2 -1.1Q160.6 -1.4 160.8 -1.9Q161.0 -2.4 161.0 -3.2V-3.2Q161.0 -3.9 160.8 -4.4Q160.6 -4.9 160.2 -5.2Q159.8 -5.5 159.2 -5.5Q158.7 -5.5 158.3 -5.2Q157.9 -4.9 157.7 -4.4Q157.4 -3.9 157.4 -3.2V-3.2Q157.4 -2.4 157.7 -1.9Q157.9 -1.4 158.3 -1.1Q158.7 -0.9 159.2 -0.9Z M163.9 0.0V-6.3H165.0V-5.4H165.1Q165.3 -5.9 165.8 -6.2Q166.2 -6.4 166.9 -6.4Q168.0 -6.4 168.6 -5.8Q169.1 -5.2 169.1 -4.1V0.0H168.0V-3.8Q168.0 -4.7 167.7 -5.1Q167.3 -5.5 166.6 -5.5Q166.1 -5.5 165.7 -5.2Q165.4 -5.0 165.2 -4.7Q165.0 -4.3 165.0 -3.7V0.0Z M176.7 0.1Q176.0 0.1 175.5 -0.1Q174.9 -0.3 174.6 -0.7Q174.3 -1.1 174.2 -1.6L174.2 -1.6H175.3L175.3 -1.6Q175.5 -1.3 175.8 -1.0Q176.2 -0.8 176.8 -0.8Q177.2 -0.8 177.5 -0.9Q177.8 -1.0 178.0 -1.2Q178.2 -1.4 178.2 -1.7V-1.7Q178.2 -2.0 177.9 -2.3Q177.7 -2.5 177.1 -2.6L176.1 -2.8Q175.5 -3.0 175.1 -3.2Q174.7 -3.4 174.6 -3.8Q174.4 -4.1 174.4 -4.6V-4.6Q174.4 -5.1 174.7 -5.5Q175.0 -6.0 175.5 -6.2Q176.1 -6.4 176.8 -6.4Q177.5 -6.4 178.0 -6.2Q178.5 -6.0 178.8 -5.6Q179.1 -5.2 179.2 -4.7L179.2 -4.7H178.1L178.1 -4.7Q178.0 -5.1 177.7 -5.3Q177.3 -5.5 176.8 -5.5Q176.4 -5.5 176.1 -5.4Q175.8 -5.3 175.7 -5.1Q175.5 -4.9 175.5 -4.6V-4.6Q175.5 -4.4 175.6 -4.3Q175.7 -4.1 176.0 -4.0Q176.2 -3.9 176.6 -3.8L177.5 -3.5Q178.1 -3.4 178.5 -3.2Q178.9 -2.9 179.1 -2.6Q179.3 -2.3 179.3 -1.8V-1.8Q179.3 -1.2 179.0 -0.8Q178.6 -0.4 178.1 -0.1Q177.5 0.1 176.7 0.1Z M183.6 0.1Q182.7 0.1 182.1 -0.3Q181.4 -0.7 181.0 -1.4Q180.7 -2.2 180.7 -3.2V-3.2Q180.7 -4.2 181.0 -4.9Q181.4 -5.6 182.1 -6.0Q182.7 -6.4 183.6 -6.4Q184.4 -6.4 185.0 -6.2Q185.5 -5.9 185.9 -5.4Q186.2 -5.0 186.3 -4.4L186.3 -4.3H185.2L185.2 -4.4Q185.1 -4.8 184.7 -5.1Q184.3 -5.5 183.6 -5.5Q183.1 -5.5 182.7 -5.2Q182.3 -4.9 182.1 -4.4Q181.8 -3.9 181.8 -3.2V-3.2Q181.8 -2.5 182.1 -1.9Q182.3 -1.4 182.7 -1.1Q183.1 -0.9 183.6 -0.9Q184.2 -0.9 184.6 -1.1Q185.0 -1.4 185.2 -1.9L185.2 -2.0L186.3 -2.0L186.3 -1.9Q186.2 -1.3 185.8 -0.9Q185.5 -0.4 184.9 -0.1Q184.4 0.1 183.6 0.1Z M190.5 0.1Q189.6 0.1 189.0 -0.3Q188.3 -0.7 187.9 -1.4Q187.6 -2.1 187.6 -3.2V-3.2Q187.6 -4.2 187.9 -4.9Q188.3 -5.7 189.0 -6.1Q189.6 -6.4 190.5 -6.4Q191.4 -6.4 192.1 -6.1Q192.8 -5.7 193.1 -4.9Q193.5 -4.2 193.5 -3.2V-3.2Q193.5 -2.1 193.1 -1.4Q192.8 -0.7 192.1 -0.3Q191.4 0.1 190.5 0.1ZM190.5 -0.9Q191.1 -0.9 191.5 -1.1Q191.9 -1.4 192.1 -1.9Q192.3 -2.4 192.3 -3.2V-3.2Q192.3 -3.9 192.1 -4.4Q191.9 -4.9 191.5 -5.2Q191.1 -5.5 190.5 -5.5Q190.0 -5.5 189.6 -5.2Q189.2 -4.9 188.9 -4.4Q188.7 -3.9 188.7 -3.2V-3.2Q188.7 -2.4 188.9 -1.9Q189.2 -1.4 189.6 -1.1Q190.0 -0.9 190.5 -0.9Z M195.1 0.0V-6.3H196.3V-5.4H196.4Q196.6 -5.9 197.0 -6.2Q197.4 -6.4 198.0 -6.4Q198.2 -6.4 198.3 -6.4Q198.5 -6.4 198.6 -6.4V-5.3Q198.4 -5.3 198.3 -5.4Q198.1 -5.4 197.9 -5.4Q197.4 -5.4 197.1 -5.2Q196.7 -5.0 196.5 -4.7Q196.3 -4.3 196.3 -3.9V0.0Z M202.6 0.1Q201.6 0.1 201.0 -0.3Q200.3 -0.7 200.0 -1.4Q199.6 -2.1 199.6 -3.1V-3.1Q199.6 -4.1 200.0 -4.9Q200.3 -5.6 201.0 -6.0Q201.6 -6.4 202.5 -6.4Q203.4 -6.4 204.0 -6.0Q204.6 -5.6 205.0 -4.9Q205.3 -4.2 205.3 -3.3V-2.9H200.2V-3.7H204.7L204.2 -2.9V-3.4Q204.2 -4.1 204.0 -4.6Q203.7 -5.0 203.4 -5.2Q203.0 -5.5 202.5 -5.5Q202.0 -5.5 201.6 -5.2Q201.2 -5.0 201.0 -4.5Q200.8 -4.1 200.8 -3.4V-2.9Q200.8 -2.3 201.0 -1.8Q201.2 -1.3 201.6 -1.1Q202.0 -0.9 202.6 -0.9Q203.0 -0.9 203.3 -1.0Q203.6 -1.1 203.8 -1.3Q204.0 -1.4 204.1 -1.6L204.1 -1.7L205.2 -1.7L205.2 -1.6Q205.1 -1.3 204.9 -1.0Q204.7 -0.7 204.4 -0.4Q204.1 -0.2 203.6 -0.0Q203.1 0.1 202.6 0.1Z M209.3 0.1Q208.5 0.1 207.9 -0.3Q207.3 -0.7 207.0 -1.4Q206.7 -2.2 206.7 -3.2V-3.2Q206.7 -4.2 207.0 -4.9Q207.3 -5.6 207.9 -6.0Q208.5 -6.4 209.3 -6.4Q209.7 -6.4 210.1 -6.3Q210.5 -6.2 210.8 -5.9Q211.1 -5.7 211.3 -5.3H211.4V-8.8H212.5V0.0H211.4V-1.0H211.3Q211.1 -0.7 210.8 -0.4Q210.5 -0.2 210.1 -0.0Q209.7 0.1 209.3 0.1ZM209.6 -0.9Q210.1 -0.9 210.5 -1.2Q210.9 -1.4 211.2 -1.9Q211.4 -2.5 211.4 -3.2V-3.2Q211.4 -3.9 211.2 -4.4Q210.9 -4.9 210.5 -5.2Q210.1 -5.5 209.6 -5.5Q209.0 -5.5 208.6 -5.2Q208.2 -4.9 208.0 -4.4Q207.8 -3.9 207.8 -3.2V-3.2Q207.8 -2.5 208.0 -1.9Q208.2 -1.4 208.6 -1.2Q209.0 -0.9 209.6 -0.9Z M219.7 0.1Q219.1 0.1 218.6 -0.1Q218.2 -0.4 217.9 -0.8Q217.6 -1.2 217.6 -1.8V-1.8Q217.6 -2.3 217.9 -2.8Q218.2 -3.2 218.7 -3.4Q219.2 -3.6 219.9 -3.7L222.3 -3.8V-2.9L220.1 -2.8Q219.4 -2.8 219.1 -2.5Q218.8 -2.3 218.8 -1.8V-1.8Q218.8 -1.3 219.1 -1.1Q219.5 -0.8 220.0 -0.8Q220.5 -0.8 220.9 -1.0Q221.3 -1.2 221.5 -1.6Q221.7 -1.9 221.7 -2.4V-4.3Q221.7 -4.9 221.4 -5.2Q221.0 -5.5 220.3 -5.5Q219.8 -5.5 219.4 -5.3Q219.1 -5.1 219.0 -4.7L219.0 -4.7H217.9L217.9 -4.7Q217.9 -5.3 218.3 -5.6Q218.6 -6.0 219.2 -6.2Q219.7 -6.4 220.4 -6.4Q221.2 -6.4 221.7 -6.2Q222.3 -5.9 222.6 -5.5Q222.8 -5.0 222.8 -4.3V0.0H221.7V-0.9H221.6Q221.4 -0.6 221.1 -0.4Q220.9 -0.1 220.5 -0.0Q220.1 0.1 219.7 0.1Z M227.4 2.2Q226.6 2.2 226.1 2.0Q225.5 1.8 225.1 1.4Q224.8 1.0 224.7 0.5L224.7 0.5H225.9L225.9 0.5Q226.0 0.8 226.4 1.1Q226.8 1.3 227.4 1.3Q228.3 1.3 228.7 0.9Q229.2 0.5 229.2 -0.1V-1.4H229.1Q228.9 -1.0 228.6 -0.8Q228.3 -0.6 227.9 -0.4Q227.6 -0.3 227.1 -0.3Q226.3 -0.3 225.7 -0.7Q225.1 -1.1 224.8 -1.8Q224.5 -2.5 224.5 -3.4V-3.4Q224.5 -4.3 224.8 -5.0Q225.1 -5.6 225.7 -6.0Q226.3 -6.4 227.1 -6.4Q227.6 -6.4 228.0 -6.3Q228.3 -6.2 228.6 -5.9Q228.9 -5.6 229.1 -5.3H229.2V-6.3H230.3V-0.1Q230.3 0.6 230.0 1.1Q229.6 1.7 229.0 1.9Q228.3 2.2 227.4 2.2ZM227.4 -1.3Q228.0 -1.3 228.4 -1.5Q228.8 -1.8 229.0 -2.3Q229.2 -2.7 229.2 -3.4V-3.4Q229.2 -4.0 229.0 -4.4Q228.8 -4.9 228.4 -5.2Q228.0 -5.5 227.4 -5.5Q226.8 -5.5 226.4 -5.2Q226.0 -4.9 225.8 -4.5Q225.6 -4.0 225.6 -3.4V-3.4Q225.6 -2.7 225.8 -2.3Q226.0 -1.8 226.4 -1.5Q226.8 -1.3 227.4 -1.3Z M234.0 0.1Q233.4 0.1 233.0 -0.1Q232.5 -0.4 232.2 -0.8Q231.9 -1.2 231.9 -1.8V-1.8Q231.9 -2.3 232.2 -2.8Q232.5 -3.2 233.0 -3.4Q233.5 -3.6 234.3 -3.7L236.6 -3.8V-2.9L234.4 -2.8Q233.7 -2.8 233.4 -2.5Q233.1 -2.3 233.1 -1.8V-1.8Q233.1 -1.3 233.4 -1.1Q233.8 -0.8 234.3 -0.8Q234.8 -0.8 235.2 -1.0Q235.6 -1.2 235.8 -1.6Q236.0 -1.9 236.0 -2.4V-4.3Q236.0 -4.9 235.7 -5.2Q235.3 -5.5 234.7 -5.5Q234.1 -5.5 233.8 -5.3Q233.4 -5.1 233.3 -4.7L233.3 -4.7H232.2L232.2 -4.7Q232.3 -5.3 232.6 -5.6Q232.9 -6.0 233.5 -6.2Q234.0 -6.4 234.7 -6.4Q235.5 -6.4 236.0 -6.2Q236.6 -5.9 236.9 -5.5Q237.2 -5.0 237.2 -4.3V0.0H236.0V-0.9H235.9Q235.7 -0.6 235.5 -0.4Q235.2 -0.1 234.8 -0.0Q234.5 0.1 234.0 0.1Z M239.1 0.0V-6.3H240.3V0.0ZM239.7 -7.5Q239.4 -7.5 239.2 -7.7Q239.0 -7.9 239.0 -8.2Q239.0 -8.6 239.2 -8.8Q239.4 -9.0 239.7 -9.0Q240.0 -9.0 240.2 -8.8Q240.5 -8.6 240.5 -8.2Q240.5 -7.9 240.2 -7.7Q240.0 -7.5 239.7 -7.5Z M242.3 0.0V-6.3H243.4V-5.4H243.5Q243.8 -5.9 244.2 -6.2Q244.7 -6.4 245.4 -6.4Q246.4 -6.4 247.0 -5.8Q247.6 -5.2 247.6 -4.1V0.0H246.4V-3.8Q246.4 -4.7 246.1 -5.1Q245.7 -5.5 245.0 -5.5Q244.5 -5.5 244.2 -5.2Q243.8 -5.0 243.6 -4.7Q243.4 -4.3 243.4 -3.7V0.0Z M251.7 0.1Q251.0 0.1 250.4 -0.1Q249.9 -0.3 249.6 -0.7Q249.2 -1.1 249.2 -1.6L249.2 -1.6H250.3L250.3 -1.6Q250.5 -1.3 250.8 -1.0Q251.2 -0.8 251.8 -0.8Q252.2 -0.8 252.5 -0.9Q252.8 -1.0 253.0 -1.2Q253.1 -1.4 253.1 -1.7V-1.7Q253.1 -2.0 252.9 -2.3Q252.7 -2.5 252.1 -2.6L251.1 -2.8Q250.5 -3.0 250.1 -3.2Q249.7 -3.4 249.5 -3.8Q249.4 -4.1 249.4 -4.6V-4.6Q249.4 -5.1 249.7 -5.5Q250.0 -6.0 250.5 -6.2Q251.1 -6.4 251.8 -6.4Q252.5 -6.4 253.0 -6.2Q253.5 -6.0 253.8 -5.6Q254.1 -5.2 254.2 -4.7L254.2 -4.7H253.1L253.1 -4.7Q253.0 -5.1 252.7 -5.3Q252.3 -5.5 251.8 -5.5Q251.4 -5.5 251.1 -5.4Q250.8 -5.3 250.7 -5.1Q250.5 -4.9 250.5 -4.6V-4.6Q250.5 -4.4 250.6 -4.3Q250.7 -4.1 250.9 -4.0Q251.2 -3.9 251.5 -3.8L252.5 -3.5Q253.1 -3.4 253.5 -3.2Q253.9 -2.9 254.1 -2.6Q254.3 -2.3 254.3 -1.8V-1.8Q254.3 -1.2 254.0 -0.8Q253.6 -0.4 253.0 -0.1Q252.5 0.1 251.7 0.1Z M258.3 0.0Q257.3 0.0 256.8 -0.3Q256.4 -0.7 256.4 -1.7V-5.4H255.4V-6.3H256.4V-7.9H257.6V-6.3H258.9V-5.4H257.6V-1.9Q257.6 -1.4 257.8 -1.2Q258.0 -0.9 258.5 -0.9Q258.6 -0.9 258.7 -0.9Q258.8 -0.9 258.9 -0.9V-0.0Q258.8 0.0 258.6 0.0Q258.5 0.0 258.3 0.0Z"/></g><g transform="translate(46,91)" fill="#9CA3AF"><path d="M3.2 0.1Q2.4 0.1 1.9 -0.1Q1.3 -0.3 1.0 -0.7Q0.7 -1.1 0.6 -1.6L0.6 -1.6H1.8L1.8 -1.6Q1.9 -1.3 2.2 -1.0Q2.6 -0.8 3.2 -0.8Q3.6 -0.8 3.9 -0.9Q4.2 -1.0 4.4 -1.2Q4.6 -1.4 4.6 -1.7V-1.7Q4.6 -2.0 4.3 -2.3Q4.1 -2.5 3.5 -2.6L2.5 -2.8Q1.9 -3.0 1.5 -3.2Q1.2 -3.4 1.0 -3.8Q0.8 -4.1 0.8 -4.6V-4.6Q0.8 -5.1 1.1 -5.5Q1.4 -6.0 1.9 -6.2Q2.5 -6.4 3.2 -6.4Q3.9 -6.4 4.4 -6.2Q4.9 -6.0 5.2 -5.6Q5.6 -5.2 5.6 -4.7L5.6 -4.7H4.5L4.5 -4.7Q4.4 -5.1 4.1 -5.3Q3.7 -5.5 3.2 -5.5Q2.8 -5.5 2.5 -5.4Q2.3 -5.3 2.1 -5.1Q1.9 -4.9 1.9 -4.6V-4.6Q1.9 -4.4 2.0 -4.3Q2.1 -4.1 2.4 -4.0Q2.6 -3.9 3.0 -3.8L3.9 -3.5Q4.6 -3.4 4.9 -3.2Q5.3 -2.9 5.5 -2.6Q5.7 -2.3 5.7 -1.8V-1.8Q5.7 -1.2 5.4 -0.8Q5.1 -0.4 4.5 -0.1Q3.9 0.1 3.2 0.1Z M8.0 2.2Q7.9 2.2 7.7 2.2Q7.6 2.2 7.5 2.2V1.3Q7.6 1.3 7.7 1.3Q7.8 1.3 7.9 1.3Q8.4 1.3 8.6 1.1Q8.9 0.9 9.1 0.4L9.2 0.0L6.9 -6.3H8.1L10.0 -0.6L9.6 -1.2H10.0L9.6 -0.6L11.5 -6.3H12.7L10.3 0.3Q10.0 1.0 9.7 1.5Q9.4 1.9 9.0 2.0Q8.6 2.2 8.0 2.2Z M14.1 0.0V-6.3H15.3V-5.4H15.4Q15.6 -5.9 16.1 -6.2Q16.5 -6.4 17.2 -6.4Q18.3 -6.4 18.9 -5.8Q19.4 -5.2 19.4 -4.1V0.0H18.3V-3.8Q18.3 -4.7 17.9 -5.1Q17.6 -5.5 16.9 -5.5Q16.4 -5.5 16.0 -5.2Q15.7 -5.0 15.5 -4.7Q15.3 -4.3 15.3 -3.7V0.0Z M24.0 0.1Q23.1 0.1 22.4 -0.3Q21.8 -0.7 21.4 -1.4Q21.0 -2.2 21.0 -3.2V-3.2Q21.0 -4.2 21.4 -4.9Q21.8 -5.6 22.4 -6.0Q23.1 -6.4 24.0 -6.4Q24.8 -6.4 25.3 -6.2Q25.9 -5.9 26.2 -5.4Q26.6 -5.0 26.7 -4.4L26.7 -4.3H25.5L25.5 -4.4Q25.4 -4.8 25.0 -5.1Q24.6 -5.5 24.0 -5.5Q23.4 -5.5 23.0 -5.2Q22.6 -4.9 22.4 -4.4Q22.2 -3.9 22.2 -3.2V-3.2Q22.2 -2.5 22.4 -1.9Q22.6 -1.4 23.0 -1.1Q23.4 -0.9 24.0 -0.9Q24.6 -0.9 25.0 -1.1Q25.4 -1.4 25.5 -1.9L25.6 -2.0L26.7 -2.0L26.6 -1.9Q26.5 -1.3 26.2 -0.9Q25.9 -0.4 25.3 -0.1Q24.8 0.1 24.0 0.1Z M28.3 0.0V-8.8H29.4V-5.4H29.5Q29.8 -5.9 30.2 -6.2Q30.7 -6.4 31.4 -6.4Q32.1 -6.4 32.6 -6.2Q33.1 -5.9 33.3 -5.4Q33.6 -4.8 33.6 -4.1V0.0H32.4V-3.8Q32.4 -4.6 32.1 -5.1Q31.7 -5.5 31.0 -5.5Q30.5 -5.5 30.2 -5.2Q29.8 -5.0 29.6 -4.6Q29.4 -4.3 29.4 -3.7V0.0Z M35.5 0.0V-6.3H36.6V-5.4H36.7Q36.9 -5.9 37.3 -6.2Q37.8 -6.4 38.4 -6.4Q38.6 -6.4 38.7 -6.4Q38.8 -6.4 38.9 -6.4V-5.3Q38.8 -5.3 38.6 -5.4Q38.5 -5.4 38.3 -5.4Q37.8 -5.4 37.4 -5.2Q37.1 -5.0 36.9 -4.7Q36.6 -4.3 36.6 -3.9V0.0Z M42.9 0.1Q42.0 0.1 41.4 -0.3Q40.7 -0.7 40.3 -1.4Q40.0 -2.1 40.0 -3.2V-3.2Q40.0 -4.2 40.3 -4.9Q40.7 -5.7 41.4 -6.1Q42.0 -6.4 42.9 -6.4Q43.9 -6.4 44.5 -6.1Q45.2 -5.7 45.5 -4.9Q45.9 -4.2 45.9 -3.2V-3.2Q45.9 -2.1 45.5 -1.4Q45.2 -0.7 44.5 -0.3Q43.9 0.1 42.9 0.1ZM42.9 -0.9Q43.5 -0.9 43.9 -1.1Q44.3 -1.4 44.5 -1.9Q44.7 -2.4 44.7 -3.2V-3.2Q44.7 -3.9 44.5 -4.4Q44.3 -4.9 43.9 -5.2Q43.5 -5.5 42.9 -5.5Q42.4 -5.5 42.0 -5.2Q41.6 -4.9 41.4 -4.4Q41.2 -3.9 41.2 -3.2V-3.2Q41.2 -2.4 41.4 -1.9Q41.6 -1.4 42.0 -1.1Q42.4 -0.9 42.9 -0.9Z M47.6 0.0V-6.3H48.7V-5.4H48.8Q49.0 -5.9 49.5 -6.2Q49.9 -6.4 50.6 -6.4Q51.7 -6.4 52.3 -5.8Q52.8 -5.2 52.8 -4.1V0.0H51.7V-3.8Q51.7 -4.7 51.4 -5.1Q51.0 -5.5 50.3 -5.5Q49.8 -5.5 49.4 -5.2Q49.1 -5.0 48.9 -4.7Q48.7 -4.3 48.7 -3.7V0.0Z M54.8 0.0V-6.3H55.9V0.0ZM55.4 -7.5Q55.1 -7.5 54.9 -7.7Q54.6 -7.9 54.6 -8.2Q54.6 -8.6 54.9 -8.8Q55.1 -9.0 55.4 -9.0Q55.7 -9.0 55.9 -8.8Q56.1 -8.6 56.1 -8.2Q56.1 -7.9 55.9 -7.7Q55.7 -7.5 55.4 -7.5Z M57.8 0.0V-0.8L61.4 -5.3V-5.4H57.8V-6.3H62.7V-5.5L59.2 -1.0V-0.9H62.7V0.0Z M67.2 0.1Q66.3 0.1 65.6 -0.3Q65.0 -0.7 64.6 -1.4Q64.3 -2.1 64.3 -3.1V-3.1Q64.3 -4.1 64.6 -4.9Q65.0 -5.6 65.6 -6.0Q66.3 -6.4 67.1 -6.4Q68.0 -6.4 68.6 -6.0Q69.3 -5.6 69.6 -4.9Q69.9 -4.2 69.9 -3.3V-2.9H64.9V-3.7H69.4L68.8 -2.9V-3.4Q68.8 -4.1 68.6 -4.6Q68.4 -5.0 68.0 -5.2Q67.6 -5.5 67.1 -5.5Q66.6 -5.5 66.3 -5.2Q65.9 -5.0 65.6 -4.5Q65.4 -4.1 65.4 -3.4V-2.9Q65.4 -2.3 65.6 -1.8Q65.9 -1.3 66.3 -1.1Q66.7 -0.9 67.2 -0.9Q67.6 -0.9 68.0 -1.0Q68.3 -1.1 68.5 -1.3Q68.7 -1.4 68.7 -1.6L68.8 -1.7L69.9 -1.7L69.9 -1.6Q69.8 -1.3 69.6 -1.0Q69.4 -0.7 69.0 -0.4Q68.7 -0.2 68.2 -0.0Q67.8 0.1 67.2 0.1Z M73.9 0.1Q73.2 0.1 72.6 -0.3Q72.0 -0.7 71.6 -1.4Q71.3 -2.2 71.3 -3.2V-3.2Q71.3 -4.2 71.6 -4.9Q72.0 -5.6 72.6 -6.0Q73.1 -6.4 73.9 -6.4Q74.4 -6.4 74.8 -6.3Q75.1 -6.2 75.4 -5.9Q75.7 -5.7 75.9 -5.3H76.0V-8.8H77.1V0.0H76.0V-1.0H75.9Q75.7 -0.7 75.4 -0.4Q75.1 -0.2 74.8 -0.0Q74.4 0.1 73.9 0.1ZM74.2 -0.9Q74.8 -0.9 75.2 -1.2Q75.6 -1.4 75.8 -1.9Q76.0 -2.5 76.0 -3.2V-3.2Q76.0 -3.9 75.8 -4.4Q75.6 -4.9 75.2 -5.2Q74.8 -5.5 74.2 -5.5Q73.7 -5.5 73.3 -5.2Q72.9 -4.9 72.7 -4.4Q72.5 -3.9 72.5 -3.2V-3.2Q72.5 -2.5 72.7 -1.9Q72.9 -1.4 73.3 -1.2Q73.7 -0.9 74.2 -0.9Z M84.7 0.0V-7.2H84.6L82.5 -5.7V-6.9L84.7 -8.5H85.9V0.0Z M91.3 0.2Q90.4 0.2 89.7 -0.3Q89.0 -0.9 88.6 -1.9Q88.3 -2.9 88.3 -4.2V-4.2Q88.3 -5.6 88.6 -6.6Q89.0 -7.6 89.7 -8.1Q90.4 -8.7 91.3 -8.7Q92.3 -8.7 93.0 -8.1Q93.6 -7.6 94.0 -6.6Q94.4 -5.6 94.4 -4.2V-4.2Q94.4 -2.9 94.0 -1.9Q93.6 -0.9 93.0 -0.3Q92.3 0.2 91.3 0.2ZM91.3 -0.8Q91.9 -0.8 92.3 -1.2Q92.8 -1.6 93.0 -2.4Q93.2 -3.2 93.2 -4.2V-4.2Q93.2 -5.3 93.0 -6.1Q92.8 -6.8 92.3 -7.2Q91.9 -7.6 91.3 -7.6Q90.7 -7.6 90.3 -7.2Q89.9 -6.8 89.7 -6.1Q89.5 -5.3 89.5 -4.2V-4.2Q89.5 -3.2 89.7 -2.4Q89.9 -1.6 90.3 -1.2Q90.7 -0.8 91.3 -0.8Z M99.1 0.2Q98.2 0.2 97.5 -0.3Q96.8 -0.9 96.4 -1.9Q96.1 -2.9 96.1 -4.2V-4.2Q96.1 -5.6 96.4 -6.6Q96.8 -7.6 97.5 -8.1Q98.2 -8.7 99.1 -8.7Q100.1 -8.7 100.8 -8.1Q101.4 -7.6 101.8 -6.6Q102.2 -5.6 102.2 -4.2V-4.2Q102.2 -2.9 101.8 -1.9Q101.4 -0.9 100.8 -0.3Q100.1 0.2 99.1 0.2ZM99.1 -0.8Q99.7 -0.8 100.1 -1.2Q100.6 -1.6 100.8 -2.4Q101.0 -3.2 101.0 -4.2V-4.2Q101.0 -5.3 100.8 -6.1Q100.6 -6.8 100.1 -7.2Q99.7 -7.6 99.1 -7.6Q98.5 -7.6 98.1 -7.2Q97.7 -6.8 97.5 -6.1Q97.3 -5.3 97.3 -4.2V-4.2Q97.3 -3.2 97.5 -2.4Q97.7 -1.6 98.1 -1.2Q98.5 -0.8 99.1 -0.8Z M106.9 0.2Q106.0 0.2 105.3 -0.3Q104.6 -0.9 104.2 -1.9Q103.9 -2.9 103.9 -4.2V-4.2Q103.9 -5.6 104.2 -6.6Q104.6 -7.6 105.3 -8.1Q106.0 -8.7 106.9 -8.7Q107.9 -8.7 108.6 -8.1Q109.3 -7.6 109.6 -6.6Q110.0 -5.6 110.0 -4.2V-4.2Q110.0 -2.9 109.6 -1.9Q109.3 -0.9 108.6 -0.3Q107.9 0.2 106.9 0.2ZM106.9 -0.8Q107.5 -0.8 107.9 -1.2Q108.4 -1.6 108.6 -2.4Q108.8 -3.2 108.8 -4.2V-4.2Q108.8 -5.3 108.6 -6.1Q108.4 -6.8 107.9 -7.2Q107.5 -7.6 106.9 -7.6Q106.3 -7.6 105.9 -7.2Q105.5 -6.8 105.3 -6.1Q105.1 -5.3 105.1 -4.2V-4.2Q105.1 -3.2 105.3 -2.4Q105.5 -1.6 105.9 -1.2Q106.3 -0.8 106.9 -0.8Z M115.4 0.0V-8.5H116.6V-4.8H121.1V-8.5H122.3V0.0H121.1V-3.8H116.6V0.0Z M124.2 0.0V-0.8L127.8 -5.3V-5.4H124.2V-6.3H129.1V-5.5L125.6 -1.0V-0.9H129.2V0.0Z M134.6 0.0V-8.5H139.9V-7.4H135.8V-4.8H139.7V-3.8H135.8V-1.0H139.9V0.0Z M145.4 0.2Q144.2 0.2 143.3 -0.3Q142.5 -0.9 142.0 -1.9Q141.6 -2.9 141.6 -4.2V-4.2Q141.6 -5.6 142.0 -6.6Q142.5 -7.6 143.3 -8.1Q144.2 -8.7 145.4 -8.7Q146.3 -8.7 147.0 -8.3Q147.7 -7.9 148.2 -7.3Q148.7 -6.7 148.8 -5.9L148.8 -5.8H147.6L147.6 -5.9Q147.5 -6.4 147.2 -6.8Q146.9 -7.2 146.4 -7.4Q145.9 -7.6 145.4 -7.6Q144.6 -7.6 144.0 -7.2Q143.4 -6.8 143.1 -6.0Q142.8 -5.3 142.8 -4.2V-4.2Q142.8 -3.2 143.1 -2.4Q143.4 -1.7 144.0 -1.3Q144.6 -0.9 145.4 -0.9Q145.9 -0.9 146.4 -1.1Q146.9 -1.2 147.2 -1.6Q147.5 -1.9 147.6 -2.4L147.6 -2.4H148.8L148.8 -2.4Q148.7 -1.6 148.2 -1.0Q147.7 -0.5 147.0 -0.1Q146.3 0.2 145.4 0.2Z M154.2 0.2Q153.3 0.2 152.6 -0.1Q151.9 -0.4 151.4 -1.0Q150.9 -1.6 150.6 -2.4Q150.4 -3.2 150.4 -4.2V-4.2Q150.4 -5.6 150.8 -6.6Q151.3 -7.6 152.2 -8.1Q153.1 -8.7 154.2 -8.7Q155.2 -8.7 155.9 -8.3Q156.7 -8.0 157.1 -7.4Q157.6 -6.8 157.8 -6.0L157.8 -5.9H156.6L156.6 -6.0Q156.3 -6.8 155.7 -7.2Q155.1 -7.6 154.2 -7.6Q153.4 -7.6 152.8 -7.2Q152.2 -6.8 151.9 -6.0Q151.6 -5.3 151.6 -4.2V-4.2Q151.6 -3.5 151.7 -2.8Q151.9 -2.2 152.3 -1.8Q152.6 -1.3 153.1 -1.1Q153.6 -0.9 154.2 -0.9Q155.0 -0.9 155.5 -1.1Q156.1 -1.4 156.4 -2.0Q156.7 -2.5 156.7 -3.2L156.7 -3.3H154.4V-4.3H157.8V-3.3Q157.8 -2.5 157.6 -1.9Q157.3 -1.2 156.9 -0.8Q156.4 -0.3 155.7 -0.0Q155.0 0.2 154.2 0.2Z M165.7 2.2Q165.0 2.2 164.4 2.0Q163.8 1.8 163.5 1.4Q163.1 1.0 163.0 0.5L163.1 0.5H164.2L164.2 0.5Q164.3 0.8 164.7 1.1Q165.1 1.3 165.8 1.3Q166.6 1.3 167.0 0.9Q167.5 0.5 167.5 -0.1V-1.4H167.4Q167.2 -1.0 166.9 -0.8Q166.6 -0.6 166.2 -0.4Q165.9 -0.3 165.4 -0.3Q164.6 -0.3 164.0 -0.7Q163.4 -1.1 163.1 -1.8Q162.8 -2.5 162.8 -3.4V-3.4Q162.8 -4.3 163.1 -5.0Q163.4 -5.6 164.0 -6.0Q164.6 -6.4 165.5 -6.4Q165.9 -6.4 166.3 -6.3Q166.6 -6.2 166.9 -5.9Q167.2 -5.6 167.4 -5.3H167.5V-6.3H168.6V-0.1Q168.6 0.6 168.3 1.1Q167.9 1.7 167.3 1.9Q166.6 2.2 165.7 2.2ZM165.7 -1.3Q166.3 -1.3 166.7 -1.5Q167.1 -1.8 167.3 -2.3Q167.5 -2.7 167.5 -3.4V-3.4Q167.5 -4.0 167.3 -4.4Q167.1 -4.9 166.7 -5.2Q166.3 -5.5 165.7 -5.5Q165.2 -5.5 164.8 -5.2Q164.4 -4.9 164.2 -4.5Q164.0 -4.0 164.0 -3.4V-3.4Q164.0 -2.7 164.2 -2.3Q164.4 -1.8 164.8 -1.5Q165.2 -1.3 165.7 -1.3Z M170.6 0.0V-6.3H171.7V-5.4H171.8Q172.0 -5.9 172.4 -6.2Q172.9 -6.4 173.5 -6.4Q173.7 -6.4 173.8 -6.4Q173.9 -6.4 174.0 -6.4V-5.3Q173.9 -5.3 173.7 -5.4Q173.6 -5.4 173.4 -5.4Q172.9 -5.4 172.5 -5.2Q172.2 -5.0 172.0 -4.7Q171.7 -4.3 171.7 -3.9V0.0Z M178.0 0.1Q177.1 0.1 176.5 -0.3Q175.8 -0.7 175.4 -1.4Q175.1 -2.1 175.1 -3.2V-3.2Q175.1 -4.2 175.4 -4.9Q175.8 -5.7 176.5 -6.1Q177.1 -6.4 178.0 -6.4Q179.0 -6.4 179.6 -6.1Q180.3 -5.7 180.6 -4.9Q181.0 -4.2 181.0 -3.2V-3.2Q181.0 -2.1 180.6 -1.4Q180.3 -0.7 179.6 -0.3Q179.0 0.1 178.0 0.1ZM178.0 -0.9Q178.6 -0.9 179.0 -1.1Q179.4 -1.4 179.6 -1.9Q179.8 -2.4 179.8 -3.2V-3.2Q179.8 -3.9 179.6 -4.4Q179.4 -4.9 179.0 -5.2Q178.6 -5.5 178.0 -5.5Q177.5 -5.5 177.1 -5.2Q176.7 -4.9 176.5 -4.4Q176.2 -3.9 176.2 -3.2V-3.2Q176.2 -2.4 176.5 -1.9Q176.7 -1.4 177.1 -1.1Q177.5 -0.9 178.0 -0.9Z M184.8 0.1Q184.1 0.1 183.6 -0.2Q183.1 -0.4 182.9 -1.0Q182.6 -1.5 182.6 -2.2V-6.3H183.7V-2.5Q183.7 -1.7 184.1 -1.3Q184.4 -0.9 185.1 -0.9Q185.5 -0.9 185.8 -1.0Q186.1 -1.1 186.3 -1.3Q186.5 -1.6 186.6 -1.9Q186.7 -2.2 186.7 -2.6V-6.3H187.9V0.0H186.7V-0.9H186.7Q186.5 -0.6 186.2 -0.4Q186.0 -0.1 185.6 -0.0Q185.2 0.1 184.8 0.1Z M189.9 0.0V-6.3H191.0V-5.4H191.1Q191.3 -5.9 191.8 -6.2Q192.3 -6.4 192.9 -6.4Q194.0 -6.4 194.6 -5.8Q195.2 -5.2 195.2 -4.1V0.0H194.0V-3.8Q194.0 -4.7 193.7 -5.1Q193.3 -5.5 192.6 -5.5Q192.1 -5.5 191.8 -5.2Q191.4 -5.0 191.2 -4.7Q191.0 -4.3 191.0 -3.7V0.0Z M199.4 0.1Q198.6 0.1 198.0 -0.3Q197.4 -0.7 197.1 -1.4Q196.8 -2.2 196.8 -3.2V-3.2Q196.8 -4.2 197.1 -4.9Q197.4 -5.6 198.0 -6.0Q198.6 -6.4 199.4 -6.4Q199.8 -6.4 200.2 -6.3Q200.6 -6.2 200.9 -5.9Q201.2 -5.7 201.4 -5.3H201.5V-8.8H202.6V0.0H201.5V-1.0H201.4Q201.2 -0.7 200.9 -0.4Q200.6 -0.2 200.2 -0.0Q199.9 0.1 199.4 0.1ZM199.7 -0.9Q200.3 -0.9 200.7 -1.2Q201.1 -1.4 201.3 -1.9Q201.5 -2.5 201.5 -3.2V-3.2Q201.5 -3.9 201.3 -4.4Q201.1 -4.9 200.7 -5.2Q200.3 -5.5 199.7 -5.5Q199.2 -5.5 198.8 -5.2Q198.4 -4.9 198.1 -4.4Q197.9 -3.9 197.9 -3.2V-3.2Q197.9 -2.5 198.1 -1.9Q198.4 -1.4 198.8 -1.2Q199.2 -0.9 199.7 -0.9Z M210.4 0.0Q209.4 0.0 208.9 -0.3Q208.5 -0.7 208.5 -1.7V-5.4H207.5V-6.3H208.5V-7.9H209.7V-6.3H211.0V-5.4H209.7V-1.9Q209.7 -1.4 209.9 -1.2Q210.1 -0.9 210.6 -0.9Q210.7 -0.9 210.8 -0.9Q210.9 -0.9 211.0 -0.9V-0.0Q210.9 0.0 210.7 0.0Q210.6 0.0 210.4 0.0Z M212.7 0.0V-6.3H213.8V-5.4H213.9Q214.1 -5.9 214.5 -6.2Q214.9 -6.4 215.6 -6.4Q215.7 -6.4 215.8 -6.4Q216.0 -6.4 216.1 -6.4V-5.3Q215.9 -5.3 215.8 -5.4Q215.6 -5.4 215.4 -5.4Q214.9 -5.4 214.6 -5.2Q214.2 -5.0 214.0 -4.7Q213.8 -4.3 213.8 -3.9V0.0Z M219.6 0.1Q218.9 0.1 218.4 -0.2Q217.9 -0.4 217.6 -1.0Q217.4 -1.5 217.4 -2.2V-6.3H218.5V-2.5Q218.5 -1.7 218.8 -1.3Q219.2 -0.9 219.9 -0.9Q220.3 -0.9 220.6 -1.0Q220.9 -1.1 221.1 -1.3Q221.3 -1.6 221.4 -1.9Q221.5 -2.2 221.5 -2.6V-6.3H222.7V0.0H221.5V-0.9H221.4Q221.3 -0.6 221.0 -0.4Q220.8 -0.1 220.4 -0.0Q220.0 0.1 219.6 0.1Z M227.0 0.0Q226.0 0.0 225.5 -0.3Q225.1 -0.7 225.1 -1.7V-5.4H224.1V-6.3H225.1V-7.9H226.2V-6.3H227.6V-5.4H226.2V-1.9Q226.2 -1.4 226.4 -1.2Q226.7 -0.9 227.1 -0.9Q227.3 -0.9 227.4 -0.9Q227.5 -0.9 227.6 -0.9V-0.0Q227.5 0.0 227.3 0.0Q227.1 0.0 227.0 0.0Z M229.3 0.0V-8.8H230.4V-5.4H230.5Q230.8 -5.9 231.2 -6.2Q231.7 -6.4 232.4 -6.4Q233.1 -6.4 233.6 -6.2Q234.1 -5.9 234.3 -5.4Q234.6 -4.8 234.6 -4.1V0.0H233.4V-3.8Q233.4 -4.6 233.1 -5.1Q232.7 -5.5 232.0 -5.5Q231.5 -5.5 231.2 -5.2Q230.8 -5.0 230.6 -4.6Q230.4 -4.3 230.4 -3.7V0.0Z M237.4 0.1Q237.1 0.1 236.8 -0.2Q236.6 -0.4 236.6 -0.7Q236.6 -1.1 236.8 -1.3Q237.1 -1.5 237.4 -1.5Q237.7 -1.5 238.0 -1.3Q238.2 -1.1 238.2 -0.7Q238.2 -0.4 238.0 -0.2Q237.7 0.1 237.4 0.1Z"/></g><circle cx="51.0" cy="123" r="4.5" fill="#3572A5"/><g transform="translate(61.0,127)" fill="#9CA3AF"><path d="M1.5 -2.5V-3.5H3.5Q4.3 -3.5 4.7 -3.9Q5.1 -4.3 5.1 -4.9V-4.9Q5.1 -5.6 4.7 -6.0Q4.3 -6.4 3.5 -6.4H1.5V-7.4H3.8Q4.6 -7.4 5.1 -7.1Q5.7 -6.8 6.0 -6.2Q6.3 -5.7 6.3 -4.9V-4.9Q6.3 -4.2 6.0 -3.6Q5.7 -3.1 5.1 -2.8Q4.6 -2.5 3.8 -2.5ZM0.9 0.0V-7.4H2.2V0.0Z M8.5 2.0Q8.3 2.0 8.2 2.0Q8.1 2.0 8.0 1.9V1.0Q8.1 1.0 8.2 1.0Q8.3 1.0 8.4 1.0Q8.7 1.0 9.0 0.8Q9.2 0.7 9.3 0.3L9.4 0.0L7.4 -5.6H8.7L10.2 -0.6L9.9 -1.2H10.3L10.0 -0.6L11.5 -5.6H12.8L10.7 0.2Q10.5 0.8 10.2 1.2Q9.9 1.6 9.5 1.8Q9.1 2.0 8.5 2.0Z M16.2 0.0Q15.3 0.0 14.9 -0.3Q14.5 -0.7 14.5 -1.5V-4.6H13.6V-5.6H14.5V-7.0H15.7V-5.6H16.9V-4.6H15.7V-1.8Q15.7 -1.3 15.9 -1.1Q16.1 -1.0 16.5 -1.0Q16.6 -1.0 16.7 -1.0Q16.8 -1.0 16.9 -1.0V-0.0Q16.7 -0.0 16.6 0.0Q16.4 0.0 16.2 0.0Z M18.4 0.0V-7.8H19.6V-4.7H19.7Q19.9 -5.2 20.3 -5.4Q20.7 -5.7 21.3 -5.7Q22.0 -5.7 22.4 -5.5Q22.8 -5.2 23.0 -4.7Q23.3 -4.3 23.3 -3.6V0.0H22.1V-3.3Q22.1 -4.0 21.8 -4.3Q21.5 -4.7 20.9 -4.7Q20.5 -4.7 20.2 -4.5Q19.9 -4.3 19.8 -4.0Q19.6 -3.7 19.6 -3.3V0.0Z M27.4 0.1Q26.6 0.1 26.0 -0.2Q25.4 -0.6 25.0 -1.2Q24.7 -1.9 24.7 -2.8V-2.8Q24.7 -3.7 25.0 -4.4Q25.4 -5.0 26.0 -5.3Q26.6 -5.7 27.4 -5.7Q28.2 -5.7 28.8 -5.4Q29.4 -5.0 29.7 -4.4Q30.1 -3.7 30.1 -2.8V-2.8Q30.1 -1.9 29.7 -1.2Q29.4 -0.6 28.8 -0.2Q28.2 0.1 27.4 0.1ZM27.4 -0.9Q27.8 -0.9 28.2 -1.1Q28.5 -1.3 28.6 -1.8Q28.8 -2.2 28.8 -2.8V-2.8Q28.8 -3.4 28.6 -3.8Q28.5 -4.3 28.2 -4.5Q27.8 -4.7 27.4 -4.7Q26.9 -4.7 26.6 -4.5Q26.3 -4.3 26.1 -3.8Q26.0 -3.4 26.0 -2.8V-2.8Q26.0 -2.2 26.1 -1.8Q26.3 -1.3 26.6 -1.1Q26.9 -0.9 27.4 -0.9Z M31.6 0.0V-5.6H32.8V-4.7H32.9Q33.1 -5.2 33.5 -5.4Q33.9 -5.7 34.5 -5.7Q35.4 -5.7 35.9 -5.2Q36.4 -4.6 36.4 -3.6V0.0H35.2V-3.3Q35.2 -4.0 34.9 -4.3Q34.6 -4.7 34.0 -4.7Q33.6 -4.7 33.4 -4.5Q33.1 -4.3 32.9 -4.0Q32.8 -3.7 32.8 -3.3V0.0Z"/></g><circle cx="121.3" cy="123" r="4.5" fill="#6B7280"/><g transform="translate(131.3,127)" fill="#9CA3AF"><path d="M0.9 0.0V-7.4H2.4L4.6 -1.6H4.7L7.0 -7.4H8.4V0.0H7.3V-5.3H6.7L8.0 -7.2L5.1 0.0H4.2L1.4 -7.2L2.7 -5.3H2.1V0.0Z M10.5 0.0V-7.4H11.7V0.0Z M15.6 0.0V-6.3H13.3V-7.4H19.2V-6.3H16.9V0.0Z"/></g><circle cx="174.2" cy="123" r="4.5" fill="#6B7280"/><g transform="translate(184.2,127)" fill="#9CA3AF"><path d="M1.1 0.0 4.3 -6.3V-6.4H0.5V-7.4H5.6V-6.3L2.4 0.0Z M9.8 0.2Q9.0 0.2 8.3 -0.3Q7.7 -0.8 7.4 -1.6Q7.0 -2.5 7.0 -3.7V-3.7Q7.0 -4.9 7.4 -5.8Q7.7 -6.6 8.3 -7.1Q9.0 -7.6 9.8 -7.6Q10.7 -7.6 11.3 -7.1Q11.9 -6.6 12.3 -5.8Q12.6 -4.9 12.6 -3.7V-3.7Q12.6 -2.5 12.3 -1.6Q11.9 -0.8 11.3 -0.3Q10.7 0.2 9.8 0.2ZM9.8 -0.8Q10.3 -0.8 10.7 -1.2Q11.0 -1.5 11.2 -2.2Q11.4 -2.8 11.4 -3.7V-3.7Q11.4 -4.6 11.2 -5.2Q11.0 -5.9 10.7 -6.2Q10.3 -6.5 9.8 -6.5Q9.4 -6.5 9.0 -6.2Q8.7 -5.9 8.5 -5.2Q8.3 -4.6 8.3 -3.7V-3.7Q8.3 -2.8 8.5 -2.2Q8.7 -1.5 9.0 -1.2Q9.4 -0.8 9.8 -0.8Z M19.5 0.0Q18.5 0.0 18.1 -0.3Q17.7 -0.7 17.7 -1.5V-4.6H16.8V-5.6H17.7V-7.0H18.9V-5.6H20.1V-4.6H18.9V-1.8Q18.9 -1.3 19.1 -1.1Q19.3 -1.0 19.7 -1.0Q19.8 -1.0 19.9 -1.0Q20.0 -1.0 20.1 -1.0V-0.0Q20.0 -0.0 19.8 0.0Q19.6 0.0 19.5 0.0Z M24.0 0.1Q23.1 0.1 22.5 -0.2Q22.0 -0.6 21.6 -1.2Q21.3 -1.9 21.3 -2.8V-2.8Q21.3 -3.7 21.6 -4.3Q22.0 -5.0 22.5 -5.3Q23.1 -5.7 23.9 -5.7Q24.7 -5.7 25.3 -5.3Q25.8 -5.0 26.2 -4.4Q26.5 -3.7 26.5 -2.9V-2.5H21.9V-3.3H25.9L25.3 -2.5V-3.0Q25.3 -3.6 25.1 -4.0Q24.9 -4.4 24.6 -4.5Q24.3 -4.7 23.9 -4.7Q23.5 -4.7 23.2 -4.5Q22.9 -4.3 22.7 -4.0Q22.5 -3.6 22.5 -3.0V-2.5Q22.5 -2.0 22.7 -1.6Q22.9 -1.3 23.2 -1.1Q23.5 -0.9 24.0 -0.9Q24.3 -0.9 24.6 -1.0Q24.8 -1.1 25.0 -1.2Q25.2 -1.3 25.2 -1.5L25.2 -1.5L26.4 -1.5L26.4 -1.5Q26.3 -1.2 26.1 -0.9Q26.0 -0.6 25.7 -0.4Q25.4 -0.2 25.0 -0.0Q24.5 0.1 24.0 0.1Z M30.0 0.1Q29.3 0.1 28.8 -0.1Q28.3 -0.3 28.0 -0.6Q27.7 -1.0 27.7 -1.5L27.7 -1.5H28.9L28.9 -1.5Q29.0 -1.2 29.3 -1.0Q29.6 -0.8 30.1 -0.8Q30.4 -0.8 30.6 -0.9Q30.9 -1.0 31.0 -1.2Q31.2 -1.3 31.2 -1.5V-1.5Q31.2 -1.8 31.0 -2.0Q30.8 -2.1 30.3 -2.2L29.4 -2.4Q28.9 -2.6 28.5 -2.8Q28.2 -3.0 28.0 -3.3Q27.8 -3.6 27.8 -4.0V-4.0Q27.8 -4.5 28.1 -4.9Q28.4 -5.3 28.9 -5.5Q29.4 -5.7 30.0 -5.7Q30.7 -5.7 31.2 -5.5Q31.7 -5.3 32.0 -4.9Q32.2 -4.6 32.3 -4.1V-4.1H31.1L31.1 -4.1Q31.1 -4.4 30.8 -4.6Q30.5 -4.8 30.0 -4.8Q29.7 -4.8 29.5 -4.7Q29.3 -4.6 29.2 -4.5Q29.0 -4.3 29.0 -4.1V-4.1Q29.0 -3.9 29.1 -3.8Q29.2 -3.6 29.4 -3.6Q29.6 -3.5 29.9 -3.4L30.8 -3.2Q31.3 -3.1 31.7 -2.9Q32.0 -2.7 32.2 -2.4Q32.4 -2.1 32.4 -1.7V-1.7Q32.4 -1.1 32.1 -0.7Q31.8 -0.3 31.2 -0.1Q30.7 0.1 30.0 0.1Z M36.1 0.0Q35.1 0.0 34.7 -0.3Q34.3 -0.7 34.3 -1.5V-4.6H33.4V-5.6H34.3V-7.0H35.5V-5.6H36.7V-4.6H35.5V-1.8Q35.5 -1.3 35.7 -1.1Q35.9 -1.0 36.3 -1.0Q36.4 -1.0 36.5 -1.0Q36.6 -1.0 36.7 -1.0V-0.0Q36.6 -0.0 36.4 0.0Q36.2 0.0 36.1 0.0Z M40.3 0.1Q39.6 0.1 39.1 -0.1Q38.6 -0.3 38.3 -0.6Q38.0 -1.0 37.9 -1.5L37.9 -1.5H39.1L39.1 -1.5Q39.2 -1.2 39.5 -1.0Q39.8 -0.8 40.3 -0.8Q40.6 -0.8 40.9 -0.9Q41.1 -1.0 41.3 -1.2Q41.4 -1.3 41.4 -1.5V-1.5Q41.4 -1.8 41.2 -2.0Q41.0 -2.1 40.5 -2.2L39.6 -2.4Q39.1 -2.6 38.7 -2.8Q38.4 -3.0 38.2 -3.3Q38.1 -3.6 38.1 -4.0V-4.0Q38.1 -4.5 38.3 -4.9Q38.6 -5.3 39.1 -5.5Q39.6 -5.7 40.3 -5.7Q40.9 -5.7 41.4 -5.5Q41.9 -5.3 42.2 -4.9Q42.5 -4.6 42.5 -4.1V-4.1H41.4L41.4 -4.1Q41.3 -4.4 41.0 -4.6Q40.7 -4.8 40.3 -4.8Q40.0 -4.8 39.7 -4.7Q39.5 -4.6 39.4 -4.5Q39.3 -4.3 39.3 -4.1V-4.1Q39.3 -3.9 39.3 -3.8Q39.4 -3.6 39.6 -3.6Q39.8 -3.5 40.1 -3.4L41.0 -3.2Q41.6 -3.1 41.9 -2.9Q42.3 -2.7 42.4 -2.4Q42.6 -2.1 42.6 -1.7V-1.7Q42.6 -1.1 42.3 -0.7Q42.0 -0.3 41.5 -0.1Q40.9 0.1 40.3 0.1Z"/></g>
</svg>