<svg xmlns="http://www.w3.org/2000/svg" viewBox="0 0 470 152" width="470" height="152" role="img" aria-label="rppg-skin-tone-equity — Fitzpatrick-stratified error for cross-dataset deep rPPG. Caveats stated up front.">
  <rect x="0.75" y="0.75" width="468" height="150" rx="12" fill="#0D1117" stroke="#1F2937" stroke-width="1.5"/>
  <rect x="0.75" y="0.75" width="4" height="150" rx="2" fill="#7C3AED"/>
  <circle cx="30" cy="41" r="5.5" fill="none" stroke="#7C3AED" stroke-width="2"/>
  <g transform="translate(46,46)" fill="#F8F9FA"><path d="M1.1 0.0V-8.8H3.3V-7.4H3.4Q3.7 -8.1 4.2 -8.5Q4.8 -8.9 5.6 -8.9Q5.8 -8.9 6.1 -8.9Q6.3 -8.9 6.4 -8.8V-6.9Q6.2 -6.9 6.0 -7.0Q5.7 -7.0 5.4 -7.0Q4.8 -7.0 4.3 -6.8Q3.8 -6.5 3.6 -6.1Q3.3 -5.6 3.3 -5.0V0.0Z M8.0 2.9V-8.8H10.2V-7.4H10.3Q10.6 -7.9 10.9 -8.2Q11.3 -8.6 11.8 -8.8Q12.4 -8.9 13.0 -8.9Q14.1 -8.9 14.9 -8.4Q15.7 -7.8 16.1 -6.8Q16.6 -5.8 16.6 -4.4V-4.4Q16.6 -3.0 16.1 -2.0Q15.7 -0.9 14.9 -0.4Q14.1 0.2 13.0 0.2Q12.4 0.2 11.9 -0.0Q11.3 -0.2 10.9 -0.6Q10.6 -0.9 10.3 -1.4H10.2V2.9ZM12.3 -1.7Q12.9 -1.7 13.4 -2.0Q13.8 -2.4 14.1 -3.0Q14.3 -3.6 14.3 -4.4V-4.4Q14.3 -5.2 14.1 -5.8Q13.8 -6.4 13.3 -6.8Q12.9 -7.1 12.3 -7.1Q11.6 -7.1 11.2 -6.8Q10.7 -6.4 10.4 -5.8Q10.2 -5.2 10.2 -4.4V-4.4Q10.2 -3.6 10.4 -3.0Q10.7 -2.4 11.2 -2.0Q11.6 -1.7 12.3 -1.7Z M18.5 2.9V-8.8H20.7V-7.4H20.8Q21.0 -7.9 21.4 -8.2Q21.8 -8.6 22.3 -8.8Q22.9 -8.9 23.5 -8.9Q24.6 -8.9 25.4 -8.4Q26.2 -7.8 26.6 -6.8Q27.1 -5.8 27.1 -4.4V-4.4Q27.1 -3.0 26.6 -2.0Q26.2 -0.9 25.4 -0.4Q24.6 0.2 23.5 0.2Q22.9 0.2 22.3 -0.0Q21.8 -0.2 21.4 -0.6Q21.0 -0.9 20.8 -1.4H20.7V2.9ZM22.7 -1.7Q23.4 -1.7 23.8 -2.0Q24.3 -2.4 24.5 -3.0Q24.8 -3.6 24.8 -4.4V-4.4Q24.8 -5.2 24.5 -5.8Q24.3 -6.4 23.8 -6.8Q23.4 -7.1 22.7 -7.1Q22.1 -7.1 21.6 -6.8Q21.2 -6.4 20.9 -5.8Q20.7 -5.2 20.7 -4.4V-4.4Q20.7 -3.6 20.9 -3.0Q21.2 -2.4 21.6 -2.0Q22.1 -1.7 22.7 -1.7Z M32.8 3.1Q31.6 3.1 30.8 2.8Q29.9 2.5 29.4 1.9Q28.9 1.3 28.8 0.6L28.8 0.5H31.0L31.0 0.6Q31.1 1.0 31.6 1.2Q32.1 1.5 32.9 1.5Q33.8 1.5 34.4 1.0Q34.9 0.6 34.9 -0.2V-1.8H34.8Q34.5 -1.3 34.1 -1.0Q33.8 -0.7 33.2 -0.5Q32.7 -0.3 32.1 -0.3Q31.0 -0.3 30.2 -0.9Q29.4 -1.4 29.0 -2.3Q28.5 -3.3 28.5 -4.6V-4.6Q28.5 -5.9 29.0 -6.9Q29.4 -7.9 30.2 -8.4Q31.0 -8.9 32.1 -8.9Q32.8 -8.9 33.3 -8.7Q33.8 -8.5 34.2 -8.2Q34.6 -7.8 34.8 -7.3H34.9V-8.8H37.1V-0.3Q37.1 0.8 36.6 1.5Q36.1 2.3 35.1 2.7Q34.2 3.1 32.8 3.1ZM32.8 -2.0Q33.5 -2.0 34.0 -2.4Q34.4 -2.7 34.7 -3.2Q34.9 -3.8 34.9 -4.6V-4.6Q34.9 -5.3 34.7 -5.9Q34.4 -6.5 34.0 -6.8Q33.5 -7.1 32.8 -7.1Q32.2 -7.1 31.7 -6.8Q31.3 -6.5 31.0 -5.9Q30.8 -5.3 30.8 -4.6V-4.6Q30.8 -3.8 31.0 -3.2Q31.3 -2.7 31.7 -2.4Q32.2 -2.0 32.8 -2.0Z M39.5 -3.7V-5.7H44.9V-3.7Z M50.8 0.2Q49.6 0.2 48.8 -0.1Q47.9 -0.5 47.5 -1.1Q47.0 -1.7 46.9 -2.4L46.9 -2.5H49.1L49.1 -2.4Q49.2 -2.0 49.7 -1.7Q50.1 -1.4 50.8 -1.4Q51.3 -1.4 51.6 -1.5Q52.0 -1.7 52.1 -1.9Q52.3 -2.1 52.3 -2.4V-2.4Q52.3 -2.8 52.1 -3.0Q51.8 -3.3 51.1 -3.4L49.6 -3.7Q48.8 -3.9 48.2 -4.3Q47.7 -4.6 47.4 -5.1Q47.1 -5.6 47.1 -6.2V-6.2Q47.1 -7.1 47.6 -7.7Q48.0 -8.3 48.8 -8.6Q49.7 -9.0 50.7 -9.0Q51.9 -9.0 52.7 -8.6Q53.5 -8.3 53.9 -7.7Q54.3 -7.1 54.4 -6.4L54.4 -6.3H52.3L52.3 -6.4Q52.2 -6.8 51.8 -7.1Q51.4 -7.4 50.7 -7.4Q50.3 -7.4 50.0 -7.3Q49.7 -7.1 49.5 -6.9Q49.3 -6.7 49.3 -6.4V-6.4Q49.3 -6.1 49.4 -5.9Q49.5 -5.8 49.8 -5.6Q50.1 -5.5 50.6 -5.4L52.0 -5.1Q52.9 -4.9 53.5 -4.6Q54.0 -4.2 54.3 -3.8Q54.6 -3.3 54.6 -2.7V-2.7Q54.6 -1.8 54.1 -1.2Q53.6 -0.5 52.7 -0.2Q51.9 0.2 50.8 0.2Z M56.5 0.0V-12.1H58.8V0.0ZM62.1 0.0 59.3 -3.9 60.9 -5.3 64.7 0.0ZM58.6 -2.8 58.5 -5.3H58.9L61.9 -8.8H64.5L60.7 -4.7L59.7 -4.0Z M66.1 0.0V-8.8H68.4V0.0ZM67.2 -10.1Q66.7 -10.1 66.4 -10.5Q66.0 -10.9 66.0 -11.4Q66.0 -11.9 66.4 -12.3Q66.7 -12.6 67.2 -12.6Q67.8 -12.6 68.1 -12.3Q68.5 -11.9 68.5 -11.4Q68.5 -10.9 68.1 -10.5Q67.8 -10.1 67.2 -10.1Z M70.7 0.0V-8.8H72.9V-7.4H73.0Q73.3 -8.1 74.0 -8.6Q74.6 -9.0 75.6 -9.0Q77.1 -9.0 77.8 -8.1Q78.6 -7.2 78.6 -5.7V0.0H76.4V-5.2Q76.4 -6.1 76.0 -6.6Q75.6 -7.1 74.7 -7.1Q74.2 -7.1 73.7 -6.9Q73.3 -6.6 73.1 -6.2Q72.9 -5.7 72.9 -5.1V0.0Z M81.0 -3.7V-5.7H86.3V-3.7Z M92.3 0.1Q90.7 0.1 90.0 -0.5Q89.3 -1.1 89.3 -2.4V-7.1H88.0V-8.8H89.3V-10.9H91.6V-8.8H93.4V-7.1H91.6V-2.8Q91.6 -2.2 91.9 -1.9Q92.1 -1.7 92.7 -1.7Q92.9 -1.7 93.1 -1.7Q93.2 -1.7 93.4 -1.7V-0.0Q93.2 0.0 92.9 0.0Q92.6 0.1 92.3 0.1Z M99.2 0.2Q97.8 0.2 96.9 -0.4Q95.9 -0.9 95.4 -1.9Q94.9 -3.0 94.9 -4.4V-4.4Q94.9 -5.8 95.4 -6.8Q95.9 -7.9 96.9 -8.4Q97.9 -9.0 99.2 -9.0Q100.5 -9.0 101.5 -8.4Q102.4 -7.9 103.0 -6.8Q103.5 -5.8 103.5 -4.4V-4.4Q103.5 -3.0 103.0 -1.9Q102.4 -0.9 101.5 -0.4Q100.5 0.2 99.2 0.2ZM99.2 -1.6Q99.8 -1.6 100.3 -1.9Q100.7 -2.2 101.0 -2.9Q101.2 -3.5 101.2 -4.4V-4.4Q101.2 -5.3 101.0 -5.9Q100.7 -6.5 100.3 -6.9Q99.8 -7.2 99.2 -7.2Q98.5 -7.2 98.1 -6.9Q97.6 -6.5 97.4 -5.9Q97.2 -5.3 97.2 -4.4V-4.4Q97.2 -3.5 97.4 -2.9Q97.6 -2.2 98.1 -1.9Q98.5 -1.6 99.2 -1.6Z M105.4 0.0V-8.8H107.6V-7.4H107.7Q108.0 -8.1 108.7 -8.6Q109.3 -9.0 110.3 -9.0Q111.7 -9.0 112.5 -8.1Q113.3 -7.2 113.3 -5.7V0.0H111.1V-5.2Q111.1 -6.1 110.7 -6.6Q110.3 -7.1 109.4 -7.1Q108.8 -7.1 108.4 -6.9Q108.0 -6.6 107.8 -6.2Q107.6 -5.7 107.6 -5.1V0.0Z M119.4 0.2Q118.0 0.2 117.1 -0.4Q116.1 -0.9 115.6 -1.9Q115.1 -3.0 115.1 -4.4V-4.4Q115.1 -5.8 115.6 -6.8Q116.1 -7.8 117.1 -8.4Q118.0 -9.0 119.3 -9.0Q120.5 -9.0 121.5 -8.4Q122.4 -7.9 122.9 -6.9Q123.4 -5.9 123.4 -4.6V-3.9H116.2V-5.3H122.3L121.3 -3.9V-4.8Q121.3 -5.6 121.0 -6.2Q120.8 -6.7 120.3 -7.0Q119.9 -7.3 119.3 -7.3Q118.7 -7.3 118.3 -7.0Q117.8 -6.7 117.6 -6.2Q117.3 -5.6 117.3 -4.8V-3.9Q117.3 -3.2 117.6 -2.6Q117.8 -2.1 118.3 -1.8Q118.8 -1.5 119.4 -1.5Q119.9 -1.5 120.3 -1.7Q120.7 -1.8 120.9 -2.0Q121.1 -2.3 121.2 -2.4L121.2 -2.5L123.3 -2.5L123.3 -2.4Q123.2 -2.0 122.9 -1.5Q122.6 -1.1 122.2 -0.7Q121.7 -0.3 121.0 -0.1Q120.3 0.2 119.4 0.2Z M125.4 -3.7V-5.7H130.7V-3.7Z M137.0 0.2Q135.7 0.2 134.7 -0.4Q133.8 -0.9 133.3 -1.9Q132.8 -3.0 132.8 -4.4V-4.4Q132.8 -5.8 133.3 -6.8Q133.8 -7.8 134.7 -8.4Q135.7 -9.0 136.9 -9.0Q138.2 -9.0 139.1 -8.4Q140.1 -7.9 140.6 -6.9Q141.1 -5.9 141.1 -4.6V-3.9H133.9V-5.3H140.0L138.9 -3.9V-4.8Q138.9 -5.6 138.7 -6.2Q138.4 -6.7 138.0 -7.0Q137.5 -7.3 137.0 -7.3Q136.4 -7.3 135.9 -7.0Q135.5 -6.7 135.2 -6.2Q135.0 -5.6 135.0 -4.8V-3.9Q135.0 -3.2 135.2 -2.6Q135.5 -2.1 135.9 -1.8Q136.4 -1.5 137.1 -1.5Q137.6 -1.5 138.0 -1.7Q138.3 -1.8 138.6 -2.0Q138.8 -2.3 138.9 -2.4L138.9 -2.5L141.0 -2.5L141.0 -2.4Q140.9 -2.0 140.6 -1.5Q140.3 -1.1 139.8 -0.7Q139.3 -0.3 138.7 -0.1Q138.0 0.2 137.0 0.2Z M148.9 2.9V-1.4H148.8Q148.6 -0.9 148.2 -0.6Q147.8 -0.2 147.3 -0.0Q146.7 0.1 146.1 0.1Q145.0 0.1 144.2 -0.4Q143.4 -1.0 143.0 -2.0Q142.5 -3.0 142.5 -4.4V-4.4Q142.5 -5.8 143.0 -6.8Q143.4 -7.8 144.2 -8.4Q145.0 -8.9 146.1 -8.9Q146.7 -8.9 147.3 -8.7Q147.8 -8.5 148.2 -8.2Q148.6 -7.8 148.8 -7.3H148.9V-8.8H151.1V2.9ZM146.9 -1.7Q147.5 -1.7 148.0 -2.0Q148.4 -2.4 148.7 -3.0Q148.9 -3.6 148.9 -4.4V-4.4Q148.9 -5.2 148.7 -5.8Q148.4 -6.4 147.9 -6.8Q147.5 -7.1 146.9 -7.1Q146.2 -7.1 145.8 -6.8Q145.3 -6.4 145.0 -5.8Q144.8 -5.2 144.8 -4.4V-4.4Q144.8 -3.6 145.0 -3.0Q145.3 -2.4 145.8 -2.0Q146.2 -1.7 146.9 -1.7Z M156.3 0.2Q155.4 0.2 154.7 -0.2Q154.0 -0.6 153.7 -1.3Q153.3 -2.1 153.3 -3.1V-8.8H155.6V-3.6Q155.6 -2.7 156.0 -2.2Q156.4 -1.7 157.2 -1.7Q157.6 -1.7 158.0 -1.8Q158.3 -2.0 158.6 -2.2Q158.8 -2.5 158.9 -2.9Q159.0 -3.2 159.0 -3.7V-8.8H161.3V0.0H159.0V-1.4H158.9Q158.7 -0.9 158.4 -0.5Q158.0 -0.2 157.5 -0.0Q157.0 0.2 156.3 0.2Z M163.6 0.0V-8.8H165.8V0.0ZM164.7 -10.1Q164.2 -10.1 163.8 -10.5Q163.4 -10.9 163.4 -11.4Q163.4 -11.9 163.8 -12.3Q164.2 -12.6 164.7 -12.6Q165.2 -12.6 165.6 -12.3Q166.0 -11.9 166.0 -11.4Q166.0 -10.9 165.6 -10.5Q165.2 -10.1 164.7 -10.1Z M171.7 0.1Q170.1 0.1 169.4 -0.5Q168.8 -1.1 168.8 -2.4V-7.1H167.4V-8.8H168.8V-10.9H171.0V-8.8H172.8V-7.1H171.0V-2.8Q171.0 -2.2 171.3 -1.9Q171.6 -1.7 172.1 -1.7Q172.4 -1.7 172.5 -1.7Q172.6 -1.7 172.8 -1.7V-0.0Q172.6 0.0 172.3 0.0Q172.0 0.1 171.7 0.1Z M175.8 3.1Q175.6 3.1 175.3 3.0Q175.1 3.0 174.9 3.0V1.3Q175.0 1.3 175.2 1.4Q175.3 1.4 175.5 1.4Q176.1 1.4 176.5 1.1Q176.9 0.9 177.0 0.4L177.1 0.0L174.0 -8.8H176.4L178.6 -1.2L178.1 -2.0H178.7L178.2 -1.2L180.4 -8.8H182.7L179.7 0.1Q179.3 1.2 178.8 1.9Q178.3 2.5 177.5 2.8Q176.8 3.1 175.8 3.1Z"/></g>
  <g transform="translate(46,74)" fill="#9CA3AF"><path d="M1.0 0.0V-8.1H6.0V-7.1H2.1V-4.4H5.7V-3.5H2.1V0.0Z M7.7 0.0V-6.1H8.7V0.0ZM8.2 -7.2Q7.9 -7.2 7.7 -7.4Q7.5 -7.6 7.5 -7.9Q7.5 -8.2 7.7 -8.4Q7.9 -8.6 8.2 -8.6Q8.5 -8.6 8.7 -8.4Q8.9 -8.2 8.9 -7.9Q8.9 -7.6 8.7 -7.4Q8.5 -7.2 8.2 -7.2Z M12.9 0.0Q11.9 0.0 11.5 -0.3Q11.1 -0.7 11.1 -1.6V-5.2H10.1V-6.1H11.1V-7.6H12.2V-6.1H13.5V-5.2H12.2V-1.8Q12.2 -1.3 12.4 -1.1Q12.6 -0.9 13.1 -0.9Q13.2 -0.9 13.3 -0.9Q13.4 -0.9 13.5 -0.9V-0.0Q13.4 0.0 13.2 0.0Q13.1 0.0 12.9 0.0Z M14.9 0.0V-0.7L18.4 -5.1V-5.2H14.9V-6.1H19.6V-5.3L16.3 -1.0V-0.9H19.7V0.0Z M21.4 2.0V-6.1H22.5V-5.1H22.6Q22.8 -5.4 23.1 -5.7Q23.4 -5.9 23.7 -6.0Q24.1 -6.2 24.5 -6.2Q25.3 -6.2 25.8 -5.8Q26.4 -5.4 26.7 -4.7Q27.0 -4.0 27.0 -3.0V-3.0Q27.0 -2.1 26.7 -1.4Q26.4 -0.7 25.8 -0.3Q25.3 0.1 24.5 0.1Q24.1 0.1 23.7 -0.0Q23.3 -0.2 23.1 -0.4Q22.8 -0.6 22.6 -1.0H22.5V2.0ZM24.2 -0.8Q24.7 -0.8 25.1 -1.1Q25.5 -1.4 25.7 -1.9Q25.9 -2.3 25.9 -3.0V-3.0Q25.9 -3.7 25.7 -4.2Q25.5 -4.7 25.1 -5.0Q24.7 -5.2 24.2 -5.2Q23.7 -5.2 23.3 -5.0Q22.9 -4.7 22.7 -4.2Q22.5 -3.7 22.5 -3.0V-3.0Q22.5 -2.4 22.7 -1.9Q22.9 -1.4 23.3 -1.1Q23.7 -0.8 24.2 -0.8Z M30.3 0.1Q29.7 0.1 29.3 -0.1Q28.8 -0.3 28.6 -0.7Q28.3 -1.1 28.3 -1.7V-1.7Q28.3 -2.3 28.6 -2.6Q28.8 -3.0 29.3 -3.2Q29.8 -3.5 30.5 -3.5L32.8 -3.6V-2.8L30.7 -2.7Q30.0 -2.7 29.7 -2.4Q29.4 -2.2 29.4 -1.7V-1.7Q29.4 -1.3 29.7 -1.0Q30.1 -0.8 30.6 -0.8Q31.1 -0.8 31.4 -1.0Q31.8 -1.2 32.0 -1.5Q32.2 -1.8 32.2 -2.3V-4.1Q32.2 -4.7 31.9 -5.0Q31.6 -5.2 30.9 -5.2Q30.4 -5.2 30.1 -5.1Q29.7 -4.9 29.6 -4.5L29.6 -4.5H28.5L28.5 -4.5Q28.6 -5.0 28.9 -5.4Q29.3 -5.8 29.8 -6.0Q30.3 -6.2 31.0 -6.2Q31.7 -6.2 32.2 -5.9Q32.8 -5.7 33.0 -5.2Q33.3 -4.8 33.3 -4.2V0.0H32.2V-0.9H32.1Q32.0 -0.6 31.7 -0.3Q31.4 -0.1 31.1 -0.0Q30.7 0.1 30.3 0.1Z M37.4 0.0Q36.4 0.0 36.0 -0.3Q35.6 -0.7 35.6 -1.6V-5.2H34.6V-6.1H35.6V-7.6H36.7V-6.1H38.0V-5.2H36.7V-1.8Q36.7 -1.3 36.9 -1.1Q37.1 -0.9 37.6 -0.9Q37.7 -0.9 37.8 -0.9Q37.9 -0.9 38.0 -0.9V-0.0Q37.9 0.0 37.7 0.0Q37.6 0.0 37.4 0.0Z M39.6 0.0V-6.1H40.7V-5.2H40.8Q40.9 -5.6 41.3 -5.9Q41.7 -6.2 42.3 -6.2Q42.5 -6.2 42.6 -6.2Q42.8 -6.1 42.9 -6.1V-5.1Q42.7 -5.1 42.6 -5.1Q42.4 -5.2 42.2 -5.2Q41.8 -5.2 41.4 -5.0Q41.1 -4.8 40.9 -4.5Q40.7 -4.1 40.7 -3.7V0.0Z M44.2 0.0V-6.1H45.3V0.0ZM44.7 -7.2Q44.5 -7.2 44.2 -7.4Q44.0 -7.6 44.0 -7.9Q44.0 -8.2 44.2 -8.4Q44.5 -8.6 44.7 -8.6Q45.0 -8.6 45.2 -8.4Q45.5 -8.2 45.5 -7.9Q45.5 -7.6 45.2 -7.4Q45.0 -7.2 44.7 -7.2Z M49.7 0.1Q48.9 0.1 48.2 -0.3Q47.6 -0.7 47.3 -1.4Q46.9 -2.1 46.9 -3.0V-3.1Q46.9 -4.0 47.3 -4.7Q47.6 -5.4 48.2 -5.8Q48.9 -6.2 49.7 -6.2Q50.5 -6.2 51.0 -5.9Q51.6 -5.7 51.9 -5.2Q52.2 -4.8 52.3 -4.2L52.3 -4.2H51.2L51.2 -4.2Q51.1 -4.6 50.7 -4.9Q50.4 -5.2 49.7 -5.2Q49.2 -5.2 48.8 -5.0Q48.4 -4.7 48.2 -4.2Q48.0 -3.7 48.0 -3.1V-3.0Q48.0 -2.4 48.2 -1.9Q48.4 -1.4 48.8 -1.1Q49.2 -0.8 49.7 -0.8Q50.3 -0.8 50.7 -1.1Q51.1 -1.3 51.2 -1.8L51.2 -1.9L52.3 -1.9L52.3 -1.8Q52.2 -1.3 51.9 -0.8Q51.5 -0.4 51.0 -0.1Q50.5 0.1 49.7 0.1Z M53.9 0.0V-8.5H55.0V0.0ZM57.7 0.0 55.4 -2.9 56.2 -3.6 59.0 0.0ZM54.8 -2.1 54.8 -3.5H55.1L57.6 -6.1H58.9L56.1 -3.3L55.7 -3.0Z M60.3 -2.8V-3.8H64.0V-2.8Z M68.0 0.1Q67.3 0.1 66.8 -0.1Q66.3 -0.3 65.9 -0.7Q65.6 -1.1 65.6 -1.6L65.6 -1.6H66.7L66.7 -1.6Q66.8 -1.2 67.1 -1.0Q67.5 -0.8 68.0 -0.8Q68.4 -0.8 68.7 -0.9Q69.0 -1.0 69.2 -1.2Q69.4 -1.4 69.4 -1.7V-1.7Q69.4 -2.0 69.1 -2.2Q68.9 -2.4 68.4 -2.5L67.4 -2.7Q66.8 -2.9 66.5 -3.1Q66.1 -3.3 65.9 -3.6Q65.7 -3.9 65.7 -4.4V-4.4Q65.7 -4.9 66.0 -5.3Q66.3 -5.7 66.9 -5.9Q67.4 -6.2 68.0 -6.2Q68.7 -6.2 69.2 -6.0Q69.7 -5.8 70.0 -5.4Q70.3 -5.0 70.4 -4.5L70.4 -4.5H69.3L69.3 -4.5Q69.2 -4.9 68.9 -5.1Q68.6 -5.3 68.0 -5.3Q67.7 -5.3 67.4 -5.2Q67.2 -5.1 67.0 -4.9Q66.8 -4.7 66.8 -4.4V-4.4Q66.8 -4.2 66.9 -4.1Q67.0 -3.9 67.3 -3.8Q67.5 -3.7 67.8 -3.6L68.8 -3.4Q69.4 -3.3 69.7 -3.0Q70.1 -2.8 70.3 -2.5Q70.5 -2.2 70.5 -1.8V-1.7Q70.5 -1.2 70.2 -0.8Q69.8 -0.4 69.3 -0.1Q68.7 0.1 68.0 0.1Z M74.3 0.0Q73.3 0.0 72.9 -0.3Q72.5 -0.7 72.5 -1.6V-5.2H71.5V-6.1H72.5V-7.6H73.6V-6.1H74.9V-5.2H73.6V-1.8Q73.6 -1.3 73.8 -1.1Q74.0 -0.9 74.5 -0.9Q74.6 -0.9 74.7 -0.9Q74.8 -0.9 74.9 -0.9V-0.0Q74.8 0.0 74.6 0.0Q74.5 0.0 74.3 0.0Z M76.5 0.0V-6.1H77.6V-5.2H77.7Q77.8 -5.6 78.2 -5.9Q78.7 -6.2 79.3 -6.2Q79.4 -6.2 79.5 -6.2Q79.7 -6.1 79.8 -6.1V-5.1Q79.6 -5.1 79.5 -5.1Q79.3 -5.2 79.1 -5.2Q78.7 -5.2 78.3 -5.0Q78.0 -4.8 77.8 -4.5Q77.6 -4.1 77.6 -3.7V0.0Z M82.8 0.1Q82.2 0.1 81.7 -0.1Q81.3 -0.3 81.0 -0.7Q80.7 -1.1 80.7 -1.7V-1.7Q80.7 -2.3 81.0 -2.6Q81.3 -3.0 81.8 -3.2Q82.3 -3.5 83.0 -3.5L85.2 -3.6V-2.8L83.1 -2.7Q82.4 -2.7 82.1 -2.4Q81.8 -2.2 81.8 -1.7V-1.7Q81.8 -1.3 82.2 -1.0Q82.5 -0.8 83.0 -0.8Q83.5 -0.8 83.9 -1.0Q84.2 -1.2 84.4 -1.5Q84.7 -1.8 84.7 -2.3V-4.1Q84.7 -4.7 84.3 -5.0Q84.0 -5.2 83.4 -5.2Q82.8 -5.2 82.5 -5.1Q82.2 -4.9 82.0 -4.5L82.0 -4.5H81.0L81.0 -4.5Q81.1 -5.0 81.4 -5.4Q81.7 -5.8 82.2 -6.0Q82.7 -6.2 83.4 -6.2Q84.2 -6.2 84.7 -5.9Q85.2 -5.7 85.5 -5.2Q85.7 -4.8 85.7 -4.2V0.0H84.7V-0.9H84.6Q84.4 -0.6 84.1 -0.3Q83.8 -0.1 83.5 -0.0Q83.2 0.1 82.8 0.1Z M89.8 0.0Q88.9 0.0 88.4 -0.3Q88.0 -0.7 88.0 -1.6V-5.2H87.1V-6.1H88.0V-7.6H89.1V-6.1H90.4V-5.2H89.1V-1.8Q89.1 -1.3 89.3 -1.1Q89.5 -0.9 90.0 -0.9Q90.1 -0.9 90.2 -0.9Q90.3 -0.9 90.4 -0.9V-0.0Q90.3 0.0 90.1 0.0Q90.0 0.0 89.8 0.0Z M92.0 0.0V-6.1H93.1V0.0ZM92.6 -7.2Q92.3 -7.2 92.1 -7.4Q91.9 -7.6 91.9 -7.9Q91.9 -8.2 92.1 -8.4Q92.3 -8.6 92.6 -8.6Q92.9 -8.6 93.1 -8.4Q93.3 -8.2 93.3 -7.9Q93.3 -7.6 93.1 -7.4Q92.9 -7.2 92.6 -7.2Z M95.5 0.0V-5.2H94.5V-6.1H95.5V-6.7Q95.5 -7.3 95.7 -7.7Q95.9 -8.1 96.3 -8.3Q96.7 -8.5 97.3 -8.5Q97.5 -8.5 97.6 -8.5Q97.8 -8.5 98.0 -8.5V-7.6Q97.9 -7.6 97.8 -7.6Q97.6 -7.7 97.5 -7.7Q97.0 -7.7 96.8 -7.4Q96.6 -7.2 96.6 -6.7V-6.1H97.9V-5.2H96.6V0.0Z M99.4 0.0V-6.1H100.5V0.0ZM100.0 -7.2Q99.7 -7.2 99.5 -7.4Q99.3 -7.6 99.3 -7.9Q99.3 -8.2 99.5 -8.4Q99.7 -8.6 100.0 -8.6Q100.3 -8.6 100.5 -8.4Q100.7 -8.2 100.7 -7.9Q100.7 -7.6 100.5 -7.4Q100.3 -7.2 100.0 -7.2Z M105.0 0.1Q104.1 0.1 103.5 -0.3Q102.8 -0.7 102.5 -1.4Q102.2 -2.1 102.2 -3.0V-3.0Q102.2 -4.0 102.5 -4.7Q102.8 -5.4 103.5 -5.8Q104.1 -6.2 104.9 -6.2Q105.8 -6.2 106.4 -5.8Q107.0 -5.4 107.3 -4.7Q107.6 -4.0 107.6 -3.1V-2.7H102.7V-3.6H107.1L106.5 -2.8V-3.2Q106.5 -3.9 106.3 -4.4Q106.1 -4.8 105.8 -5.0Q105.4 -5.2 104.9 -5.2Q104.4 -5.2 104.1 -5.0Q103.7 -4.8 103.5 -4.3Q103.3 -3.9 103.3 -3.2V-2.8Q103.3 -2.2 103.5 -1.7Q103.7 -1.3 104.1 -1.1Q104.5 -0.8 105.0 -0.8Q105.4 -0.8 105.7 -0.9Q106.0 -1.0 106.2 -1.2Q106.4 -1.4 106.5 -1.6L106.5 -1.6L107.5 -1.6L107.5 -1.6Q107.5 -1.2 107.3 -1.0Q107.1 -0.7 106.7 -0.4Q106.4 -0.2 106.0 -0.0Q105.5 0.1 105.0 0.1Z M111.5 0.1Q110.7 0.1 110.1 -0.3Q109.5 -0.7 109.2 -1.4Q108.9 -2.1 108.9 -3.0V-3.0Q108.9 -4.0 109.2 -4.7Q109.5 -5.4 110.1 -5.8Q110.7 -6.2 111.5 -6.2Q111.9 -6.2 112.2 -6.0Q112.6 -5.9 112.9 -5.7Q113.2 -5.4 113.3 -5.1H113.4V-8.5H114.5V0.0H113.4V-1.0H113.3Q113.1 -0.6 112.9 -0.4Q112.6 -0.2 112.2 -0.0Q111.9 0.1 111.5 0.1ZM111.7 -0.8Q112.3 -0.8 112.6 -1.1Q113.0 -1.4 113.2 -1.9Q113.4 -2.4 113.4 -3.0V-3.0Q113.4 -3.7 113.2 -4.2Q113.0 -4.7 112.6 -5.0Q112.3 -5.2 111.7 -5.2Q111.2 -5.2 110.8 -5.0Q110.4 -4.7 110.2 -4.2Q110.0 -3.7 110.0 -3.0V-3.0Q110.0 -2.3 110.2 -1.9Q110.4 -1.4 110.8 -1.1Q111.2 -0.8 111.7 -0.8Z M122.3 0.1Q121.4 0.1 120.8 -0.3Q120.2 -0.7 119.8 -1.4Q119.5 -2.1 119.5 -3.0V-3.0Q119.5 -4.0 119.8 -4.7Q120.2 -5.4 120.8 -5.8Q121.4 -6.2 122.2 -6.2Q123.1 -6.2 123.7 -5.8Q124.3 -5.4 124.6 -4.7Q124.9 -4.0 124.9 -3.1V-2.7H120.0V-3.6H124.4L123.8 -2.8V-3.2Q123.8 -3.9 123.6 -4.4Q123.4 -4.8 123.1 -5.0Q122.7 -5.2 122.2 -5.2Q121.8 -5.2 121.4 -5.0Q121.0 -4.8 120.8 -4.3Q120.6 -3.9 120.6 -3.2V-2.8Q120.6 -2.2 120.8 -1.7Q121.0 -1.3 121.4 -1.1Q121.8 -0.8 122.3 -0.8Q122.7 -0.8 123.0 -0.9Q123.3 -1.0 123.5 -1.2Q123.7 -1.4 123.8 -1.6L123.8 -1.6L124.8 -1.6L124.8 -1.6Q124.8 -1.2 124.6 -1.0Q124.4 -0.7 124.0 -0.4Q123.7 -0.2 123.3 -0.0Q122.8 0.1 122.3 0.1Z M126.5 0.0V-6.1H127.6V-5.2H127.7Q127.9 -5.6 128.3 -5.9Q128.7 -6.2 129.3 -6.2Q129.4 -6.2 129.6 -6.2Q129.7 -6.1 129.8 -6.1V-5.1Q129.6 -5.1 129.5 -5.1Q129.3 -5.2 129.2 -5.2Q128.7 -5.2 128.4 -5.0Q128.0 -4.8 127.8 -4.5Q127.6 -4.1 127.6 -3.7V0.0Z M131.1 0.0V-6.1H132.2V-5.2H132.3Q132.5 -5.6 132.9 -5.9Q133.3 -6.2 133.9 -6.2Q134.0 -6.2 134.2 -6.2Q134.3 -6.1 134.4 -6.1V-5.1Q134.2 -5.1 134.1 -5.1Q133.9 -5.2 133.8 -5.2Q133.3 -5.2 133.0 -5.0Q132.6 -4.8 132.4 -4.5Q132.2 -4.1 132.2 -3.7V0.0Z M138.2 0.1Q137.4 0.1 136.7 -0.3Q136.1 -0.6 135.8 -1.4Q135.4 -2.1 135.4 -3.0V-3.0Q135.4 -4.0 135.8 -4.7Q136.1 -5.4 136.7 -5.8Q137.4 -6.2 138.2 -6.2Q139.1 -6.2 139.8 -5.8Q140.4 -5.4 140.7 -4.7Q141.1 -4.0 141.1 -3.0V-3.0Q141.1 -2.1 140.7 -1.4Q140.4 -0.6 139.8 -0.3Q139.1 0.1 138.2 0.1ZM138.2 -0.8Q138.8 -0.8 139.2 -1.1Q139.6 -1.3 139.8 -1.8Q140.0 -2.3 140.0 -3.0V-3.0Q140.0 -3.7 139.8 -4.2Q139.6 -4.7 139.2 -5.0Q138.8 -5.2 138.2 -5.2Q137.7 -5.2 137.3 -5.0Q136.9 -4.7 136.7 -4.2Q136.5 -3.7 136.5 -3.0V-3.0Q136.5 -2.3 136.7 -1.8Q136.9 -1.3 137.3 -1.1Q137.7 -0.8 138.2 -0.8Z M142.7 0.0V-6.1H143.8V-5.2H143.9Q144.0 -5.6 144.4 -5.9Q144.9 -6.2 145.5 -6.2Q145.6 -6.2 145.7 -6.2Q145.9 -6.1 146.0 -6.1V-5.1Q145.8 -5.1 145.7 -5.1Q145.5 -5.2 145.3 -5.2Q144.9 -5.2 144.5 -5.0Q144.2 -4.8 144.0 -4.5Q143.8 -4.1 143.8 -3.7V0.0Z M151.0 0.0V-5.2H150.0V-6.1H151.0V-6.7Q151.0 -7.3 151.2 -7.7Q151.4 -8.1 151.8 -8.3Q152.2 -8.5 152.8 -8.5Q153.0 -8.5 153.2 -8.5Q153.3 -8.5 153.5 -8.5V-7.6Q153.4 -7.6 153.3 -7.6Q153.2 -7.7 153.0 -7.7Q152.5 -7.7 152.3 -7.4Q152.1 -7.2 152.1 -6.7V-6.1H153.4V-5.2H152.1V0.0Z M157.5 0.1Q156.6 0.1 156.0 -0.3Q155.3 -0.6 155.0 -1.4Q154.6 -2.1 154.6 -3.0V-3.0Q154.6 -4.0 155.0 -4.7Q155.3 -5.4 156.0 -5.8Q156.6 -6.2 157.5 -6.2Q158.4 -6.2 159.0 -5.8Q159.6 -5.4 160.0 -4.7Q160.3 -4.0 160.3 -3.0V-3.0Q160.3 -2.1 160.0 -1.4Q159.6 -0.6 159.0 -0.3Q158.4 0.1 157.5 0.1ZM157.5 -0.8Q158.0 -0.8 158.4 -1.1Q158.8 -1.3 159.0 -1.8Q159.2 -2.3 159.2 -3.0V-3.0Q159.2 -3.7 159.0 -4.2Q158.8 -4.7 158.4 -5.0Q158.0 -5.2 157.5 -5.2Q156.9 -5.2 156.5 -5.0Q156.2 -4.7 156.0 -4.2Q155.8 -3.7 155.8 -3.0V-3.0Q155.8 -2.3 156.0 -1.8Q156.2 -1.3 156.5 -1.1Q156.9 -0.8 157.5 -0.8Z M161.9 0.0V-6.1H163.0V-5.2H163.1Q163.3 -5.6 163.7 -5.9Q164.1 -6.2 164.7 -6.2Q164.8 -6.2 165.0 -6.2Q165.1 -6.1 165.2 -6.1V-5.1Q165.0 -5.1 164.9 -5.1Q164.7 -5.2 164.6 -5.2Q164.1 -5.2 163.8 -5.0Q163.4 -4.8 163.2 -4.5Q163.0 -4.1 163.0 -3.7V0.0Z M172.3 0.1Q171.5 0.1 170.8 -0.3Q170.2 -0.7 169.9 -1.4Q169.5 -2.1 169.5 -3.0V-3.1Q169.5 -4.0 169.9 -4.7Q170.2 -5.4 170.8 -5.8Q171.5 -6.2 172.3 -6.2Q173.1 -6.2 173.6 -5.9Q174.2 -5.7 174.5 -5.2Q174.8 -4.8 174.9 -4.2L174.9 -4.2H173.8L173.8 -4.2Q173.7 -4.6 173.3 -4.9Q173.0 -5.2 172.3 -5.2Q171.8 -5.2 171.4 -5.0Q171.0 -4.7 170.8 -4.2Q170.6 -3.7 170.6 -3.1V-3.0Q170.6 -2.4 170.8 -1.9Q171.0 -1.4 171.4 -1.1Q171.8 -0.8 172.3 -0.8Q172.9 -0.8 173.3 -1.1Q173.7 -1.3 173.8 -1.8L173.8 -1.9L174.9 -1.9L174.9 -1.8Q174.8 -1.3 174.4 -0.8Q174.1 -0.4 173.6 -0.1Q173.1 0.1 172.3 0.1Z M176.4 0.0V-6.1H177.5V-5.2H177.6Q177.8 -5.6 178.2 -5.9Q178.6 -6.2 179.2 -6.2Q179.3 -6.2 179.5 -6.2Q179.6 -6.1 179.7 -6.1V-5.1Q179.5 -5.1 179.4 -5.1Q179.2 -5.2 179.1 -5.2Q178.6 -5.2 178.3 -5.0Q177.9 -4.8 177.7 -4.5Q177.5 -4.1 177.5 -3.7V0.0Z M183.5 0.1Q182.7 0.1 182.0 -0.3Q181.4 -0.6 181.1 -1.4Q180.7 -2.1 180.7 -3.0V-3.0Q180.7 -4.0 181.1 -4.7Q181.4 -5.4 182.0 -5.8Q182.7 -6.2 183.5 -6.2Q184.4 -6.2 185.1 -5.8Q185.7 -5.4 186.0 -4.7Q186.4 -4.0 186.4 -3.0V-3.0Q186.4 -2.1 186.0 -1.4Q185.7 -0.6 185.1 -0.3Q184.4 0.1 183.5 0.1ZM183.5 -0.8Q184.1 -0.8 184.5 -1.1Q184.9 -1.3 185.1 -1.8Q185.3 -2.3 185.3 -3.0V-3.0Q185.3 -3.7 185.1 -4.2Q184.9 -4.7 184.5 -5.0Q184.1 -5.2 183.5 -5.2Q183.0 -5.2 182.6 -5.0Q182.2 -4.7 182.0 -4.2Q181.8 -3.7 181.8 -3.0V-3.0Q181.8 -2.3 182.0 -1.8Q182.2 -1.3 182.6 -1.1Q183.0 -0.8 183.5 -0.8Z M190.1 0.1Q189.4 0.1 188.9 -0.1Q188.4 -0.3 188.1 -0.7Q187.7 -1.1 187.7 -1.6L187.7 -1.6H188.8L188.8 -1.6Q188.9 -1.2 189.2 -1.0Q189.6 -0.8 190.2 -0.8Q190.5 -0.8 190.8 -0.9Q191.1 -1.0 191.3 -1.2Q191.5 -1.4 191.5 -1.7V-1.7Q191.5 -2.0 191.2 -2.2Q191.0 -2.4 190.5 -2.5L189.5 -2.7Q188.9 -2.9 188.6 -3.1Q188.2 -3.3 188.0 -3.6Q187.9 -3.9 187.9 -4.4V-4.4Q187.9 -4.9 188.1 -5.3Q188.4 -5.7 189.0 -5.9Q189.5 -6.2 190.2 -6.2Q190.8 -6.2 191.3 -6.0Q191.8 -5.8 192.1 -5.4Q192.4 -5.0 192.5 -4.5L192.5 -4.5H191.4L191.4 -4.5Q191.3 -4.9 191.0 -5.1Q190.7 -5.3 190.1 -5.3Q189.8 -5.3 189.5 -5.2Q189.3 -5.1 189.1 -4.9Q189.0 -4.7 189.0 -4.4V-4.4Q189.0 -4.2 189.1 -4.1Q189.2 -3.9 189.4 -3.8Q189.6 -3.7 189.9 -3.6L190.9 -3.4Q191.5 -3.3 191.8 -3.0Q192.2 -2.8 192.4 -2.5Q192.6 -2.2 192.6 -1.8V-1.7Q192.6 -1.2 192.3 -0.8Q191.9 -0.4 191.4 -0.1Q190.8 0.1 190.1 0.1Z M196.3 0.1Q195.6 0.1 195.1 -0.1Q194.6 -0.3 194.3 -0.7Q194.0 -1.1 193.9 -1.6L193.9 -1.6H195.0L195.0 -1.6Q195.1 -1.2 195.5 -1.0Q195.8 -0.8 196.4 -0.8Q196.8 -0.8 197.1 -0.9Q197.4 -1.0 197.5 -1.2Q197.7 -1.4 197.7 -1.7V-1.7Q197.7 -2.0 197.5 -2.2Q197.2 -2.4 196.7 -2.5L195.7 -2.7Q195.2 -2.9 194.8 -3.1Q194.4 -3.3 194.2 -3.6Q194.1 -3.9 194.1 -4.4V-4.4Q194.1 -4.9 194.4 -5.3Q194.7 -5.7 195.2 -5.9Q195.7 -6.2 196.4 -6.2Q197.0 -6.2 197.5 -6.0Q198.0 -5.8 198.3 -5.4Q198.6 -5.0 198.7 -4.5L198.7 -4.5H197.7L197.6 -4.5Q197.6 -4.9 197.2 -5.1Q196.9 -5.3 196.4 -5.3Q196.0 -5.3 195.8 -5.2Q195.5 -5.1 195.3 -4.9Q195.2 -4.7 195.2 -4.4V-4.4Q195.2 -4.2 195.3 -4.1Q195.4 -3.9 195.6 -3.8Q195.8 -3.7 196.2 -3.6L197.1 -3.4Q197.7 -3.3 198.1 -3.0Q198.4 -2.8 198.6 -2.5Q198.8 -2.2 198.8 -1.8V-1.7Q198.8 -1.2 198.5 -0.8Q198.2 -0.4 197.6 -0.1Q197.1 0.1 196.3 0.1Z M200.4 -2.8V-3.8H204.1V-2.8Z M208.2 0.1Q207.5 0.1 206.9 -0.3Q206.3 -0.7 206.0 -1.4Q205.7 -2.1 205.7 -3.0V-3.0Q205.7 -4.0 206.0 -4.7Q206.3 -5.4 206.9 -5.8Q207.5 -6.2 208.2 -6.2Q208.6 -6.2 209.0 -6.0Q209.4 -5.9 209.7 -5.7Q209.9 -5.4 210.1 -5.1H210.2V-8.5H211.3V0.0H210.2V-1.0H210.1Q209.9 -0.6 209.6 -0.4Q209.4 -0.2 209.0 -0.0Q208.7 0.1 208.2 0.1ZM208.5 -0.8Q209.0 -0.8 209.4 -1.1Q209.8 -1.4 210.0 -1.9Q210.2 -2.4 210.2 -3.0V-3.0Q210.2 -3.7 210.0 -4.2Q209.8 -4.7 209.4 -5.0Q209.0 -5.2 208.5 -5.2Q208.0 -5.2 207.6 -5.0Q207.2 -4.7 207.0 -4.2Q206.8 -3.7 206.8 -3.0V-3.0Q206.8 -2.3 207.0 -1.9Q207.2 -1.4 207.6 -1.1Q208.0 -0.8 208.5 -0.8Z M214.9 0.1Q214.3 0.1 213.9 -0.1Q213.4 -0.3 213.2 -0.7Q212.9 -1.1 212.9 -1.7V-1.7Q212.9 -2.3 213.2 -2.6Q213.4 -3.0 213.9 -3.2Q214.4 -3.5 215.1 -3.5L217.4 -3.6V-2.8L215.3 -2.7Q214.6 -2.7 214.3 -2.4Q214.0 -2.2 214.0 -1.7V-1.7Q214.0 -1.3 214.3 -1.0Q214.7 -0.8 215.2 -0.8Q215.7 -0.8 216.0 -1.0Q216.4 -1.2 216.6 -1.5Q216.8 -1.8 216.8 -2.3V-4.1Q216.8 -4.7 216.5 -5.0Q216.2 -5.2 215.5 -5.2Q215.0 -5.2 214.7 -5.1Q214.3 -4.9 214.2 -4.5L214.2 -4.5H213.1L213.1 -4.5Q213.2 -5.0 213.5 -5.4Q213.9 -5.8 214.4 -6.0Q214.9 -6.2 215.6 -6.2Q216.3 -6.2 216.8 -5.9Q217.4 -5.7 217.6 -5.2Q217.9 -4.8 217.9 -4.2V0.0H216.8V-0.9H216.7Q216.6 -0.6 216.3 -0.3Q216.0 -0.1 215.7 -0.0Q215.3 0.1 214.9 0.1Z M222.0 0.0Q221.0 0.0 220.6 -0.3Q220.2 -0.7 220.2 -1.6V-5.2H219.2V-6.1H220.2V-7.6H221.3V-6.1H222.6V-5.2H221.3V-1.8Q221.3 -1.3 221.5 -1.1Q221.7 -0.9 222.2 -0.9Q222.3 -0.9 222.4 -0.9Q222.5 -0.9 222.6 -0.9V-0.0Q222.5 0.0 222.3 0.0Q222.2 0.0 222.0 0.0Z M225.9 0.1Q225.3 0.1 224.8 -0.1Q224.4 -0.3 224.1 -0.7Q223.8 -1.1 223.8 -1.7V-1.7Q223.8 -2.3 224.1 -2.6Q224.4 -3.0 224.9 -3.2Q225.4 -3.5 226.1 -3.5L228.3 -3.6V-2.8L226.2 -2.7Q225.5 -2.7 225.2 -2.4Q224.9 -2.2 224.9 -1.7V-1.7Q224.9 -1.3 225.3 -1.0Q225.6 -0.8 226.1 -0.8Q226.6 -0.8 227.0 -1.0Q227.3 -1.2 227.5 -1.5Q227.8 -1.8 227.8 -2.3V-4.1Q227.8 -4.7 227.4 -5.0Q227.1 -5.2 226.5 -5.2Q225.9 -5.2 225.6 -5.1Q225.3 -4.9 225.1 -4.5L225.1 -4.5H224.1L224.1 -4.5Q224.2 -5.0 224.5 -5.4Q224.8 -5.8 225.3 -6.0Q225.8 -6.2 226.5 -6.2Q227.3 -6.2 227.8 -5.9Q228.3 -5.7 228.6 -5.2Q228.8 -4.8 228.8 -4.2V0.0H227.8V-0.9H227.7Q227.5 -0.6 227.2 -0.3Q226.9 -0.1 226.6 -0.0Q226.3 0.1 225.9 0.1Z M232.9 0.1Q232.2 0.1 231.6 -0.1Q231.1 -0.3 230.8 -0.7Q230.5 -1.1 230.4 -1.6L230.4 -1.6H231.5L231.5 -1.6Q231.6 -1.2 232.0 -1.0Q232.3 -0.8 232.9 -0.8Q233.3 -0.8 233.6 -0.9Q233.9 -1.0 234.1 -1.2Q234.2 -1.4 234.2 -1.7V-1.7Q234.2 -2.0 234.0 -2.2Q233.7 -2.4 233.2 -2.5L232.3 -2.7Q231.7 -2.9 231.3 -3.1Q230.9 -3.3 230.8 -3.6Q230.6 -3.9 230.6 -4.4V-4.4Q230.6 -4.9 230.9 -5.3Q231.2 -5.7 231.7 -5.9Q232.2 -6.2 232.9 -6.2Q233.6 -6.2 234.1 -6.0Q234.6 -5.8 234.9 -5.4Q235.2 -5.0 235.2 -4.5L235.2 -4.5H234.2L234.2 -4.5Q234.1 -4.9 233.7 -5.1Q233.4 -5.3 232.9 -5.3Q232.5 -5.3 232.3 -5.2Q232.0 -5.1 231.8 -4.9Q231.7 -4.7 231.7 -4.4V-4.4Q231.7 -4.2 231.8 -4.1Q231.9 -3.9 232.1 -3.8Q232.3 -3.7 232.7 -3.6L233.6 -3.4Q234.2 -3.3 234.6 -3.0Q235.0 -2.8 235.1 -2.5Q235.3 -2.2 235.3 -1.8V-1.7Q235.3 -1.2 235.0 -0.8Q234.7 -0.4 234.1 -0.1Q233.6 0.1 232.9 0.1Z M239.5 0.1Q238.6 0.1 237.9 -0.3Q237.3 -0.7 237.0 -1.4Q236.6 -2.1 236.6 -3.0V-3.0Q236.6 -4.0 237.0 -4.7Q237.3 -5.4 237.9 -5.8Q238.6 -6.2 239.4 -6.2Q240.2 -6.2 240.8 -5.8Q241.4 -5.4 241.8 -4.7Q242.1 -4.0 242.1 -3.1V-2.7H237.2V-3.6H241.5L241.0 -2.8V-3.2Q241.0 -3.9 240.8 -4.4Q240.6 -4.8 240.2 -5.0Q239.9 -5.2 239.4 -5.2Q238.9 -5.2 238.5 -5.0Q238.2 -4.8 238.0 -4.3Q237.7 -3.9 237.7 -3.2V-2.8Q237.7 -2.2 238.0 -1.7Q238.2 -1.3 238.6 -1.1Q238.9 -0.8 239.5 -0.8Q239.9 -0.8 240.2 -0.9Q240.5 -1.0 240.7 -1.2Q240.8 -1.4 240.9 -1.6L240.9 -1.6L242.0 -1.6L242.0 -1.6Q241.9 -1.2 241.7 -1.0Q241.5 -0.7 241.2 -0.4Q240.9 -0.2 240.4 -0.0Q240.0 0.1 239.5 0.1Z M245.9 0.0Q244.9 0.0 244.5 -0.3Q244.1 -0.7 244.1 -1.6V-5.2H243.1V-6.1H244.1V-7.6H245.2V-6.1H246.5V-5.2H245.2V-1.8Q245.2 -1.3 245.4 -1.1Q245.6 -0.9 246.1 -0.9Q246.2 -0.9 246.3 -0.9Q246.4 -0.9 246.5 -0.9V-0.0Q246.4 0.0 246.2 0.0Q246.1 0.0 245.9 0.0Z"/></g><g transform="translate(46,93)" fill="#9CA3AF"><path d="M3.1 0.1Q2.3 0.1 1.8 -0.3Q1.2 -0.7 0.9 -1.4Q0.6 -2.1 0.6 -3.0V-3.0Q0.6 -4.0 0.9 -4.7Q1.2 -5.4 1.8 -5.8Q2.3 -6.2 3.1 -6.2Q3.5 -6.2 3.9 -6.0Q4.3 -5.9 4.5 -5.7Q4.8 -5.4 5.0 -5.1H5.1V-8.5H6.2V0.0H5.1V-1.0H5.0Q4.8 -0.6 4.5 -0.4Q4.3 -0.2 3.9 -0.0Q3.5 0.1 3.1 0.1ZM3.4 -0.8Q3.9 -0.8 4.3 -1.1Q4.7 -1.4 4.9 -1.9Q5.1 -2.4 5.1 -3.0V-3.0Q5.1 -3.7 4.9 -4.2Q4.7 -4.7 4.3 -5.0Q3.9 -5.2 3.4 -5.2Q2.9 -5.2 2.5 -5.0Q2.1 -4.7 1.9 -4.2Q1.7 -3.7 1.7 -3.0V-3.0Q1.7 -2.3 1.9 -1.9Q2.1 -1.4 2.5 -1.1Q2.9 -0.8 3.4 -0.8Z M10.6 0.1Q9.8 0.1 9.1 -0.3Q8.5 -0.7 8.2 -1.4Q7.8 -2.1 7.8 -3.0V-3.0Q7.8 -4.0 8.2 -4.7Q8.5 -5.4 9.1 -5.8Q9.7 -6.2 10.6 -6.2Q11.4 -6.2 12.0 -5.8Q12.6 -5.4 12.9 -4.7Q13.3 -4.0 13.3 -3.1V-2.7H8.4V-3.6H12.7L12.2 -2.8V-3.2Q12.2 -3.9 12.0 -4.4Q11.8 -4.8 11.4 -5.0Q11.1 -5.2 10.6 -5.2Q10.1 -5.2 9.7 -5.0Q9.4 -4.8 9.2 -4.3Q8.9 -3.9 8.9 -3.2V-2.8Q8.9 -2.2 9.1 -1.7Q9.4 -1.3 9.7 -1.1Q10.1 -0.8 10.7 -0.8Q11.1 -0.8 11.4 -0.9Q11.7 -1.0 11.8 -1.2Q12.0 -1.4 12.1 -1.6L12.1 -1.6L13.2 -1.6L13.2 -1.6Q13.1 -1.2 12.9 -1.0Q12.7 -0.7 12.4 -0.4Q12.1 -0.2 11.6 -0.0Q11.2 0.1 10.6 0.1Z M17.4 0.1Q16.5 0.1 15.9 -0.3Q15.3 -0.7 14.9 -1.4Q14.6 -2.1 14.6 -3.0V-3.0Q14.6 -4.0 14.9 -4.7Q15.3 -5.4 15.9 -5.8Q16.5 -6.2 17.3 -6.2Q18.2 -6.2 18.8 -5.8Q19.4 -5.4 19.7 -4.7Q20.0 -4.0 20.0 -3.1V-2.7H15.1V-3.6H19.5L18.9 -2.8V-3.2Q18.9 -3.9 18.7 -4.4Q18.5 -4.8 18.2 -5.0Q17.8 -5.2 17.3 -5.2Q16.9 -5.2 16.5 -5.0Q16.1 -4.8 15.9 -4.3Q15.7 -3.9 15.7 -3.2V-2.8Q15.7 -2.2 15.9 -1.7Q16.1 -1.3 16.5 -1.1Q16.9 -0.8 17.4 -0.8Q17.8 -0.8 18.1 -0.9Q18.4 -1.0 18.6 -1.2Q18.8 -1.4 18.9 -1.6L18.9 -1.6L19.9 -1.6L19.9 -1.6Q19.9 -1.2 19.7 -1.0Q19.5 -0.7 19.1 -0.4Q18.8 -0.2 18.4 -0.0Q17.9 0.1 17.4 0.1Z M21.6 2.0V-6.1H22.7V-5.1H22.8Q23.0 -5.4 23.3 -5.7Q23.5 -5.9 23.9 -6.0Q24.3 -6.2 24.7 -6.2Q25.5 -6.2 26.0 -5.8Q26.6 -5.4 26.9 -4.7Q27.2 -4.0 27.2 -3.0V-3.0Q27.2 -2.1 26.9 -1.4Q26.6 -0.7 26.0 -0.3Q25.5 0.1 24.7 0.1Q24.3 0.1 23.9 -0.0Q23.5 -0.2 23.3 -0.4Q23.0 -0.6 22.8 -1.0H22.7V2.0ZM24.4 -0.8Q24.9 -0.8 25.3 -1.1Q25.7 -1.4 25.9 -1.9Q26.1 -2.3 26.1 -3.0V-3.0Q26.1 -3.7 25.9 -4.2Q25.7 -4.7 25.3 -5.0Q24.9 -5.2 24.4 -5.2Q23.9 -5.2 23.5 -5.0Q23.1 -4.7 22.9 -4.2Q22.7 -3.7 22.7 -3.0V-3.0Q22.7 -2.4 22.9 -1.9Q23.1 -1.4 23.5 -1.1Q23.9 -0.8 24.4 -0.8Z M32.1 0.0V-6.1H33.2V-5.2H33.3Q33.5 -5.6 33.9 -5.9Q34.3 -6.2 34.9 -6.2Q35.1 -6.2 35.2 -6.2Q35.3 -6.1 35.4 -6.1V-5.1Q35.3 -5.1 35.1 -5.1Q35.0 -5.2 34.8 -5.2Q34.3 -5.2 34.0 -5.0Q33.6 -4.8 33.4 -4.5Q33.2 -4.1 33.2 -3.7V0.0Z M37.4 -2.8V-3.8H39.7Q40.5 -3.8 41.0 -4.2Q41.5 -4.7 41.5 -5.5V-5.5Q41.5 -6.3 41.0 -6.7Q40.5 -7.1 39.7 -7.1H37.4V-8.1H40.0Q40.7 -8.1 41.3 -7.8Q41.9 -7.4 42.3 -6.9Q42.6 -6.3 42.6 -5.5V-5.5Q42.6 -4.7 42.3 -4.1Q41.9 -3.5 41.3 -3.2Q40.7 -2.8 40.0 -2.8ZM36.9 0.0V-8.1H38.0V0.0Z M44.9 -2.8V-3.8H47.2Q48.0 -3.8 48.5 -4.2Q49.0 -4.7 49.0 -5.5V-5.5Q49.0 -6.3 48.5 -6.7Q48.0 -7.1 47.2 -7.1H44.9V-8.1H47.5Q48.2 -8.1 48.8 -7.8Q49.4 -7.4 49.8 -6.9Q50.1 -6.3 50.1 -5.5V-5.5Q50.1 -4.7 49.8 -4.1Q49.4 -3.5 48.8 -3.2Q48.2 -2.8 47.5 -2.8ZM44.4 0.0V-8.1H45.5V0.0Z M55.3 0.2Q54.4 0.2 53.7 -0.1Q53.0 -0.4 52.6 -1.0Q52.1 -1.5 51.8 -2.3Q51.5 -3.1 51.5 -4.1V-4.1Q51.5 -5.3 52.0 -6.3Q52.5 -7.2 53.3 -7.8Q54.1 -8.3 55.3 -8.3Q56.2 -8.3 56.9 -8.0Q57.6 -7.6 58.0 -7.1Q58.5 -6.5 58.7 -5.7L58.7 -5.7H57.5L57.5 -5.7Q57.3 -6.5 56.7 -6.9Q56.1 -7.3 55.3 -7.3Q54.5 -7.3 53.9 -6.9Q53.3 -6.5 53.0 -5.8Q52.7 -5.0 52.7 -4.1V-4.1Q52.7 -3.3 52.9 -2.7Q53.1 -2.1 53.4 -1.7Q53.7 -1.3 54.2 -1.0Q54.7 -0.8 55.3 -0.8Q56.0 -0.8 56.5 -1.1Q57.0 -1.4 57.3 -1.9Q57.6 -2.4 57.6 -3.0L57.6 -3.2H55.4V-4.2H58.7V-3.2Q58.7 -2.4 58.5 -1.8Q58.2 -1.2 57.8 -0.7Q57.3 -0.3 56.7 -0.0Q56.0 0.2 55.3 0.2Z M61.3 0.1Q61.0 0.1 60.8 -0.2Q60.6 -0.4 60.6 -0.7Q60.6 -1.0 60.8 -1.2Q61.0 -1.5 61.3 -1.5Q61.7 -1.5 61.9 -1.2Q62.1 -1.0 62.1 -0.7Q62.1 -0.4 61.9 -0.2Q61.7 0.1 61.3 0.1Z M70.8 0.2Q69.7 0.2 68.9 -0.3Q68.1 -0.8 67.6 -1.8Q67.2 -2.7 67.2 -4.0V-4.1Q67.2 -5.4 67.6 -6.3Q68.1 -7.3 68.9 -7.8Q69.7 -8.3 70.8 -8.3Q71.7 -8.3 72.4 -8.0Q73.1 -7.6 73.6 -7.0Q74.0 -6.4 74.1 -5.6L74.1 -5.6H73.0L73.0 -5.6Q72.9 -6.1 72.6 -6.5Q72.3 -6.9 71.8 -7.1Q71.4 -7.3 70.8 -7.3Q70.1 -7.3 69.5 -6.9Q69.0 -6.5 68.7 -5.8Q68.4 -5.0 68.4 -4.1V-4.0Q68.4 -3.1 68.7 -2.3Q69.0 -1.6 69.5 -1.2Q70.1 -0.8 70.8 -0.8Q71.4 -0.8 71.8 -1.0Q72.3 -1.2 72.6 -1.5Q72.9 -1.9 73.0 -2.3L73.0 -2.3H74.1L74.1 -2.3Q74.0 -1.6 73.6 -1.0Q73.1 -0.4 72.4 -0.1Q71.7 0.2 70.8 0.2Z M77.5 0.1Q76.9 0.1 76.4 -0.1Q76.0 -0.3 75.7 -0.7Q75.5 -1.1 75.5 -1.7V-1.7Q75.5 -2.3 75.7 -2.6Q76.0 -3.0 76.5 -3.2Q77.0 -3.5 77.7 -3.5L79.9 -3.6V-2.8L77.8 -2.7Q77.2 -2.7 76.9 -2.4Q76.6 -2.2 76.6 -1.7V-1.7Q76.6 -1.3 76.9 -1.0Q77.2 -0.8 77.7 -0.8Q78.2 -0.8 78.6 -1.0Q79.0 -1.2 79.2 -1.5Q79.4 -1.8 79.4 -2.3V-4.1Q79.4 -4.7 79.1 -5.0Q78.7 -5.2 78.1 -5.2Q77.6 -5.2 77.2 -5.1Q76.9 -4.9 76.8 -4.5L76.8 -4.5H75.7L75.7 -4.5Q75.8 -5.0 76.1 -5.4Q76.4 -5.8 76.9 -6.0Q77.5 -6.2 78.1 -6.2Q78.9 -6.2 79.4 -5.9Q79.9 -5.7 80.2 -5.2Q80.5 -4.8 80.5 -4.2V0.0H79.4V-0.9H79.3Q79.1 -0.6 78.8 -0.3Q78.6 -0.1 78.2 -0.0Q77.9 0.1 77.5 0.1Z M84.0 0.0 81.8 -6.1H83.0L84.6 -1.1H84.7L86.2 -6.1H87.4L85.2 0.0Z M91.3 0.1Q90.4 0.1 89.8 -0.3Q89.2 -0.7 88.8 -1.4Q88.5 -2.1 88.5 -3.0V-3.0Q88.5 -4.0 88.8 -4.7Q89.2 -5.4 89.8 -5.8Q90.4 -6.2 91.2 -6.2Q92.1 -6.2 92.7 -5.8Q93.3 -5.4 93.6 -4.7Q93.9 -4.0 93.9 -3.1V-2.7H89.0V-3.6H93.4L92.8 -2.8V-3.2Q92.8 -3.9 92.6 -4.4Q92.4 -4.8 92.1 -5.0Q91.7 -5.2 91.2 -5.2Q90.8 -5.2 90.4 -5.0Q90.0 -4.8 89.8 -4.3Q89.6 -3.9 89.6 -3.2V-2.8Q89.6 -2.2 89.8 -1.7Q90.0 -1.3 90.4 -1.1Q90.8 -0.8 91.3 -0.8Q91.7 -0.8 92.0 -0.9Q92.3 -1.0 92.5 -1.2Q92.7 -1.4 92.8 -1.6L92.8 -1.6L93.8 -1.6L93.8 -1.6Q93.8 -1.2 93.6 -1.0Q93.4 -0.7 93.0 -0.4Q92.7 -0.2 92.3 -0.0Q91.8 0.1 91.3 0.1Z M97.2 0.1Q96.6 0.1 96.2 -0.1Q95.7 -0.3 95.4 -0.7Q95.2 -1.1 95.2 -1.7V-1.7Q95.2 -2.3 95.4 -2.6Q95.7 -3.0 96.2 -3.2Q96.7 -3.5 97.4 -3.5L99.6 -3.6V-2.8L97.5 -2.7Q96.9 -2.7 96.6 -2.4Q96.3 -2.2 96.3 -1.7V-1.7Q96.3 -1.3 96.6 -1.0Q96.9 -0.8 97.5 -0.8Q97.9 -0.8 98.3 -1.0Q98.7 -1.2 98.9 -1.5Q99.1 -1.8 99.1 -2.3V-4.1Q99.1 -4.7 98.8 -5.0Q98.4 -5.2 97.8 -5.2Q97.3 -5.2 96.9 -5.1Q96.6 -4.9 96.5 -4.5L96.5 -4.5H95.4L95.4 -4.5Q95.5 -5.0 95.8 -5.4Q96.1 -5.8 96.7 -6.0Q97.2 -6.2 97.8 -6.2Q98.6 -6.2 99.1 -5.9Q99.6 -5.7 99.9 -5.2Q100.2 -4.8 100.2 -4.2V0.0H99.1V-0.9H99.0Q98.8 -0.6 98.6 -0.3Q98.3 -0.1 97.9 -0.0Q97.6 0.1 97.2 0.1Z M104.3 0.0Q103.3 0.0 102.9 -0.3Q102.5 -0.7 102.5 -1.6V-5.2H101.5V-6.1H102.5V-7.6H103.6V-6.1H104.9V-5.2H103.6V-1.8Q103.6 -1.3 103.8 -1.1Q104.0 -0.9 104.4 -0.9Q104.6 -0.9 104.7 -0.9Q104.8 -0.9 104.9 -0.9V-0.0Q104.7 0.0 104.6 0.0Q104.4 0.0 104.3 0.0Z M108.6 0.1Q107.9 0.1 107.4 -0.1Q106.8 -0.3 106.5 -0.7Q106.2 -1.1 106.2 -1.6L106.2 -1.6H107.3L107.3 -1.6Q107.4 -1.2 107.7 -1.0Q108.1 -0.8 108.6 -0.8Q109.0 -0.8 109.3 -0.9Q109.6 -1.0 109.8 -1.2Q110.0 -1.4 110.0 -1.7V-1.7Q110.0 -2.0 109.7 -2.2Q109.5 -2.4 108.9 -2.5L108.0 -2.7Q107.4 -2.9 107.0 -3.1Q106.7 -3.3 106.5 -3.6Q106.3 -3.9 106.3 -4.4V-4.4Q106.3 -4.9 106.6 -5.3Q106.9 -5.7 107.4 -5.9Q108.0 -6.2 108.6 -6.2Q109.3 -6.2 109.8 -6.0Q110.3 -5.8 110.6 -5.4Q110.9 -5.0 111.0 -4.5L111.0 -4.5H109.9L109.9 -4.5Q109.8 -4.9 109.5 -5.1Q109.2 -5.3 108.6 -5.3Q108.3 -5.3 108.0 -5.2Q107.7 -5.1 107.6 -4.9Q107.4 -4.7 107.4 -4.4V-4.4Q107.4 -4.2 107.5 -4.1Q107.6 -3.9 107.8 -3.8Q108.1 -3.7 108.4 -3.6L109.4 -3.4Q109.9 -3.3 110.3 -3.0Q110.7 -2.8 110.9 -2.5Q111.1 -2.2 111.1 -1.8V-1.7Q111.1 -1.2 110.7 -0.8Q110.4 -0.4 109.9 -0.1Q109.3 0.1 108.6 0.1Z M118.1 0.1Q117.4 0.1 116.9 -0.1Q116.4 -0.3 116.0 -0.7Q115.7 -1.1 115.7 -1.6L115.7 -1.6H116.8L116.8 -1.6Q116.9 -1.2 117.2 -1.0Q117.6 -0.8 118.1 -0.8Q118.5 -0.8 118.8 -0.9Q119.1 -1.0 119.3 -1.2Q119.5 -1.4 119.5 -1.7V-1.7Q119.5 -2.0 119.2 -2.2Q119.0 -2.4 118.5 -2.5L117.5 -2.7Q116.9 -2.9 116.6 -3.1Q116.2 -3.3 116.0 -3.6Q115.8 -3.9 115.8 -4.4V-4.4Q115.8 -4.9 116.1 -5.3Q116.4 -5.7 117.0 -5.9Q117.5 -6.2 118.1 -6.2Q118.8 -6.2 119.3 -6.0Q119.8 -5.8 120.1 -5.4Q120.4 -5.0 120.5 -4.5L120.5 -4.5H119.4L119.4 -4.5Q119.3 -4.9 119.0 -5.1Q118.7 -5.3 118.1 -5.3Q117.8 -5.3 117.5 -5.2Q117.3 -5.1 117.1 -4.9Q116.9 -4.7 116.9 -4.4V-4.4Q116.9 -4.2 117.0 -4.1Q117.1 -3.9 117.4 -3.8Q117.6 -3.7 117.9 -3.6L118.9 -3.4Q119.5 -3.3 119.8 -3.0Q120.2 -2.8 120.4 -2.5Q120.6 -2.2 120.6 -1.8V-1.7Q120.6 -1.2 120.3 -0.8Q119.9 -0.4 119.4 -0.1Q118.8 0.1 118.1 0.1Z M124.4 0.0Q123.4 0.0 123.0 -0.3Q122.6 -0.7 122.6 -1.6V-5.2H121.6V-6.1H122.6V-7.6H123.7V-6.1H125.0V-5.2H123.7V-1.8Q123.7 -1.3 123.9 -1.1Q124.1 -0.9 124.6 -0.9Q124.7 -0.9 124.8 -0.9Q124.9 -0.9 125.0 -0.9V-0.0Q124.9 0.0 124.7 0.0Q124.6 0.0 124.4 0.0Z M128.3 0.1Q127.7 0.1 127.2 -0.1Q126.8 -0.3 126.5 -0.7Q126.2 -1.1 126.2 -1.7V-1.7Q126.2 -2.3 126.5 -2.6Q126.8 -3.0 127.3 -3.2Q127.8 -3.5 128.5 -3.5L130.7 -3.6V-2.8L128.6 -2.7Q128.0 -2.7 127.6 -2.4Q127.3 -2.2 127.3 -1.7V-1.7Q127.3 -1.3 127.7 -1.0Q128.0 -0.8 128.5 -0.8Q129.0 -0.8 129.4 -1.0Q129.7 -1.2 129.9 -1.5Q130.2 -1.8 130.2 -2.3V-4.1Q130.2 -4.7 129.8 -5.0Q129.5 -5.2 128.9 -5.2Q128.3 -5.2 128.0 -5.1Q127.7 -4.9 127.5 -4.5L127.5 -4.5H126.5L126.5 -4.5Q126.6 -5.0 126.9 -5.4Q127.2 -5.8 127.7 -6.0Q128.2 -6.2 128.9 -6.2Q129.7 -6.2 130.2 -5.9Q130.7 -5.7 131.0 -5.2Q131.2 -4.8 131.2 -4.2V0.0H130.2V-0.9H130.1Q129.9 -0.6 129.6 -0.3Q129.3 -0.1 129.0 -0.0Q128.7 0.1 128.3 0.1Z M135.3 0.0Q134.4 0.0 133.9 -0.3Q133.5 -0.7 133.5 -1.6V-5.2H132.6V-6.1H133.5V-7.6H134.6V-6.1H135.9V-5.2H134.6V-1.8Q134.6 -1.3 134.8 -1.1Q135.0 -0.9 135.5 -0.9Q135.6 -0.9 135.7 -0.9Q135.8 -0.9 135.9 -0.9V-0.0Q135.8 0.0 135.6 0.0Q135.5 0.0 135.3 0.0Z M140.0 0.1Q139.1 0.1 138.5 -0.3Q137.9 -0.7 137.6 -1.4Q137.2 -2.1 137.2 -3.0V-3.0Q137.2 -4.0 137.6 -4.7Q137.9 -5.4 138.5 -5.8Q139.1 -6.2 140.0 -6.2Q140.8 -6.2 141.4 -5.8Q142.0 -5.4 142.3 -4.7Q142.6 -4.0 142.6 -3.1V-2.7H137.8V-3.6H142.1L141.6 -2.8V-3.2Q141.6 -3.9 141.4 -4.4Q141.2 -4.8 140.8 -5.0Q140.4 -5.2 140.0 -5.2Q139.5 -5.2 139.1 -5.0Q138.7 -4.8 138.5 -4.3Q138.3 -3.9 138.3 -3.2V-2.8Q138.3 -2.2 138.5 -1.7Q138.7 -1.3 139.1 -1.1Q139.5 -0.8 140.0 -0.8Q140.4 -0.8 140.7 -0.9Q141.0 -1.0 141.2 -1.2Q141.4 -1.4 141.5 -1.6L141.5 -1.6L142.6 -1.6L142.6 -1.6Q142.5 -1.2 142.3 -1.0Q142.1 -0.7 141.8 -0.4Q141.5 -0.2 141.0 -0.0Q140.6 0.1 140.0 0.1Z M146.5 0.1Q145.7 0.1 145.2 -0.3Q144.6 -0.7 144.3 -1.4Q144.0 -2.1 144.0 -3.0V-3.0Q144.0 -4.0 144.3 -4.7Q144.6 -5.4 145.2 -5.8Q145.7 -6.2 146.5 -6.2Q146.9 -6.2 147.3 -6.0Q147.6 -5.9 147.9 -5.7Q148.2 -5.4 148.4 -5.1H148.5V-8.5H149.5V0.0H148.5V-1.0H148.4Q148.2 -0.6 147.9 -0.4Q147.6 -0.2 147.3 -0.0Q146.9 0.1 146.5 0.1ZM146.8 -0.8Q147.3 -0.8 147.7 -1.1Q148.1 -1.4 148.3 -1.9Q148.5 -2.4 148.5 -3.0V-3.0Q148.5 -3.7 148.3 -4.2Q148.1 -4.7 147.7 -5.0Q147.3 -5.2 146.8 -5.2Q146.2 -5.2 145.9 -5.0Q145.5 -4.7 145.3 -4.2Q145.1 -3.7 145.1 -3.0V-3.0Q145.1 -2.3 145.3 -1.9Q145.5 -1.4 145.9 -1.1Q146.2 -0.8 146.8 -0.8Z M156.8 0.1Q156.2 0.1 155.7 -0.2Q155.2 -0.4 155.0 -0.9Q154.8 -1.4 154.8 -2.1V-6.1H155.8V-2.4Q155.8 -1.6 156.2 -1.2Q156.5 -0.8 157.2 -0.8Q157.5 -0.8 157.8 -1.0Q158.1 -1.1 158.3 -1.3Q158.5 -1.5 158.6 -1.8Q158.7 -2.1 158.7 -2.5V-6.1H159.8V0.0H158.7V-0.9H158.6Q158.5 -0.6 158.2 -0.4Q158.0 -0.1 157.6 -0.0Q157.3 0.1 156.8 0.1Z M161.7 2.0V-6.1H162.8V-5.1H162.9Q163.1 -5.4 163.4 -5.7Q163.6 -5.9 164.0 -6.0Q164.4 -6.2 164.8 -6.2Q165.6 -6.2 166.1 -5.8Q166.7 -5.4 167.0 -4.7Q167.3 -4.0 167.3 -3.0V-3.0Q167.3 -2.1 167.0 -1.4Q166.7 -0.7 166.1 -0.3Q165.6 0.1 164.8 0.1Q164.4 0.1 164.0 -0.0Q163.6 -0.2 163.4 -0.4Q163.1 -0.6 162.9 -1.0H162.8V2.0ZM164.5 -0.8Q165.0 -0.8 165.4 -1.1Q165.8 -1.4 166.0 -1.9Q166.2 -2.3 166.2 -3.0V-3.0Q166.2 -3.7 166.0 -4.2Q165.8 -4.7 165.4 -5.0Q165.0 -5.2 164.5 -5.2Q164.0 -5.2 163.6 -5.0Q163.2 -4.7 163.0 -4.2Q162.8 -3.7 162.8 -3.0V-3.0Q162.8 -2.4 163.0 -1.9Q163.2 -1.4 163.6 -1.1Q164.0 -0.8 164.5 -0.8Z M172.7 0.0V-5.2H171.7V-6.1H172.7V-6.7Q172.7 -7.3 172.9 -7.7Q173.1 -8.1 173.5 -8.3Q173.9 -8.5 174.5 -8.5Q174.7 -8.5 174.8 -8.5Q175.0 -8.5 175.1 -8.5V-7.6Q175.1 -7.6 174.9 -7.6Q174.8 -7.7 174.7 -7.7Q174.2 -7.7 174.0 -7.4Q173.7 -7.2 173.7 -6.7V-6.1H175.1V-5.2H173.7V0.0Z M176.6 0.0V-6.1H177.7V-5.2H177.8Q178.0 -5.6 178.4 -5.9Q178.8 -6.2 179.4 -6.2Q179.5 -6.2 179.7 -6.2Q179.8 -6.1 179.9 -6.1V-5.1Q179.7 -5.1 179.6 -5.1Q179.4 -5.2 179.3 -5.2Q178.8 -5.2 178.4 -5.0Q178.1 -4.8 177.9 -4.5Q177.7 -4.1 177.7 -3.7V0.0Z M183.7 0.1Q182.9 0.1 182.2 -0.3Q181.6 -0.6 181.2 -1.4Q180.9 -2.1 180.9 -3.0V-3.0Q180.9 -4.0 181.2 -4.7Q181.6 -5.4 182.2 -5.8Q182.9 -6.2 183.7 -6.2Q184.6 -6.2 185.2 -5.8Q185.9 -5.4 186.2 -4.7Q186.6 -4.0 186.6 -3.0V-3.0Q186.6 -2.1 186.2 -1.4Q185.9 -0.6 185.2 -0.3Q184.6 0.1 183.7 0.1ZM183.7 -0.8Q184.3 -0.8 184.7 -1.1Q185.0 -1.3 185.2 -1.8Q185.4 -2.3 185.4 -3.0V-3.0Q185.4 -3.7 185.2 -4.2Q185.0 -4.7 184.7 -5.0Q184.3 -5.2 183.7 -5.2Q183.2 -5.2 182.8 -5.0Q182.4 -4.7 182.2 -4.2Q182.0 -3.7 182.0 -3.0V-3.0Q182.0 -2.3 182.2 -1.8Q182.4 -1.3 182.8 -1.1Q183.2 -0.8 183.7 -0.8Z M188.2 0.0V-6.1H189.3V-5.2H189.3Q189.6 -5.6 190.0 -5.9Q190.4 -6.2 191.1 -6.2Q192.1 -6.2 192.7 -5.6Q193.2 -5.0 193.2 -3.9V0.0H192.1V-3.7Q192.1 -4.5 191.8 -4.8Q191.5 -5.2 190.8 -5.2Q190.3 -5.2 190.0 -5.0Q189.6 -4.8 189.4 -4.5Q189.3 -4.1 189.3 -3.6V0.0Z M197.3 0.0Q196.3 0.0 195.9 -0.3Q195.5 -0.7 195.5 -1.6V-5.2H194.5V-6.1H195.5V-7.6H196.6V-6.1H197.9V-5.2H196.6V-1.8Q196.6 -1.3 196.8 -1.1Q197.0 -0.9 197.5 -0.9Q197.6 -0.9 197.7 -0.9Q197.8 -0.9 197.9 -0.9V-0.0Q197.8 0.0 197.6 0.0Q197.5 0.0 197.3 0.0Z M200.3 0.1Q200.0 0.1 199.8 -0.2Q199.6 -0.4 199.6 -0.7Q199.6 -1.0 199.8 -1.2Q200.0 -1.5 200.3 -1.5Q200.7 -1.5 200.9 -1.2Q201.1 -1.0 201.1 -0.7Q201.1 -0.4 200.9 -0.2Q200.7 0.1 200.3 0.1Z"/></g><circle cx="51.0" cy="126.0" r="4.2" fill="#3572A5"/><g transform="translate(60.0,129.5)" fill="#9CA3AF"><path d="M1.5 -2.4V-3.3H3.4Q4.1 -3.3 4.4 -3.7Q4.8 -4.1 4.8 -4.7V-4.7Q4.8 -5.4 4.4 -5.7Q4.1 -6.1 3.4 -6.1H1.5V-7.0H3.7Q4.4 -7.0 4.9 -6.8Q5.4 -6.5 5.7 -5.9Q6.0 -5.4 6.0 -4.7V-4.7Q6.0 -4.0 5.7 -3.5Q5.4 -2.9 4.9 -2.7Q4.4 -2.4 3.7 -2.4ZM0.9 0.0V-7.0H2.1V0.0Z M8.1 1.9Q8.0 1.9 7.8 1.9Q7.7 1.9 7.6 1.9V1.0Q7.7 1.0 7.8 1.0Q7.9 1.0 8.0 1.0Q8.3 1.0 8.6 0.8Q8.8 0.6 8.9 0.3L9.0 0.0L7.1 -5.3H8.3L9.8 -0.6L9.4 -1.1H9.8L9.5 -0.6L11.0 -5.3H12.2L10.2 0.1Q10.0 0.8 9.7 1.2Q9.4 1.6 9.0 1.7Q8.6 1.9 8.1 1.9Z M15.5 0.0Q14.6 0.0 14.2 -0.3Q13.8 -0.6 13.8 -1.4V-4.4H13.0V-5.3H13.8V-6.6H15.0V-5.3H16.1V-4.4H15.0V-1.7Q15.0 -1.3 15.1 -1.1Q15.3 -0.9 15.7 -0.9Q15.8 -0.9 15.9 -0.9Q16.0 -0.9 16.1 -0.9V-0.0Q16.0 -0.0 15.8 0.0Q15.7 0.0 15.5 0.0Z M17.6 0.0V-7.4H18.7V-4.5H18.8Q19.0 -4.9 19.4 -5.2Q19.8 -5.4 20.3 -5.4Q20.9 -5.4 21.4 -5.2Q21.8 -5.0 22.0 -4.5Q22.2 -4.1 22.2 -3.4V0.0H21.0V-3.2Q21.0 -3.8 20.8 -4.1Q20.5 -4.4 19.9 -4.4Q19.6 -4.4 19.3 -4.3Q19.0 -4.1 18.9 -3.8Q18.7 -3.5 18.7 -3.1V0.0Z M26.1 0.1Q25.3 0.1 24.8 -0.2Q24.2 -0.6 23.9 -1.2Q23.6 -1.8 23.6 -2.7V-2.7Q23.6 -3.5 23.9 -4.1Q24.2 -4.8 24.8 -5.1Q25.3 -5.4 26.1 -5.4Q26.9 -5.4 27.5 -5.1Q28.0 -4.8 28.4 -4.1Q28.7 -3.5 28.7 -2.7V-2.7Q28.7 -1.8 28.4 -1.2Q28.1 -0.6 27.5 -0.2Q26.9 0.1 26.1 0.1ZM26.1 -0.8Q26.6 -0.8 26.9 -1.1Q27.2 -1.3 27.3 -1.7Q27.5 -2.1 27.5 -2.7V-2.7Q27.5 -3.2 27.3 -3.6Q27.2 -4.0 26.9 -4.3Q26.6 -4.5 26.1 -4.5Q25.7 -4.5 25.4 -4.3Q25.1 -4.0 24.9 -3.6Q24.8 -3.2 24.8 -2.7V-2.7Q24.8 -2.1 24.9 -1.7Q25.1 -1.3 25.4 -1.1Q25.7 -0.8 26.1 -0.8Z M30.1 0.0V-5.3H31.3V-4.5H31.3Q31.5 -4.9 31.9 -5.2Q32.3 -5.4 32.9 -5.4Q33.8 -5.4 34.2 -4.9Q34.7 -4.4 34.7 -3.4V0.0H33.6V-3.2Q33.6 -3.8 33.3 -4.1Q33.0 -4.4 32.5 -4.4Q32.1 -4.4 31.8 -4.3Q31.5 -4.1 31.4 -3.8Q31.3 -3.5 31.3 -3.1V0.0Z"/></g><circle cx="116.6" cy="126.0" r="4.2" fill="#6B7280"/><g transform="translate(125.6,129.5)" fill="#9CA3AF"><path d="M0.9 0.0V-7.0H2.3L4.4 -1.6H4.5L6.7 -7.0H8.0V0.0H7.0V-5.1H6.4L7.6 -6.9L4.9 0.0H4.0L1.3 -6.9L2.5 -5.1H2.0V0.0Z M10.0 0.0V-7.0H11.2V0.0Z M14.9 0.0V-6.0H12.7V-7.0H18.3V-6.0H16.1V0.0Z"/></g><circle cx="165.6" cy="126.0" r="4.2" fill="#6B7280"/><g transform="translate(174.6,129.5)" fill="#9CA3AF"><path d="M0.7 0.0V-5.3H1.9V-4.5H2.0Q2.1 -4.9 2.5 -5.2Q2.8 -5.4 3.4 -5.4Q3.5 -5.4 3.6 -5.4Q3.8 -5.4 3.9 -5.4V-4.3Q3.7 -4.3 3.6 -4.4Q3.4 -4.4 3.3 -4.4Q2.9 -4.4 2.5 -4.2Q2.2 -4.1 2.1 -3.8Q1.9 -3.5 1.9 -3.1V0.0Z M7.3 0.1Q6.5 0.1 6.0 -0.2Q5.4 -0.6 5.1 -1.2Q4.8 -1.8 4.8 -2.6V-2.7Q4.8 -3.5 5.1 -4.1Q5.4 -4.7 5.9 -5.1Q6.5 -5.4 7.3 -5.4Q8.0 -5.4 8.6 -5.1Q9.1 -4.8 9.4 -4.2Q9.7 -3.6 9.7 -2.8V-2.4H5.4V-3.2H9.1L8.6 -2.4V-2.9Q8.6 -3.4 8.4 -3.8Q8.2 -4.1 7.9 -4.3Q7.6 -4.5 7.3 -4.5Q6.9 -4.5 6.6 -4.3Q6.3 -4.1 6.1 -3.8Q5.9 -3.4 5.9 -2.9V-2.4Q5.9 -1.9 6.1 -1.6Q6.3 -1.2 6.6 -1.0Q6.9 -0.8 7.3 -0.8Q7.7 -0.8 7.9 -0.9Q8.1 -1.0 8.3 -1.1Q8.5 -1.3 8.5 -1.4L8.5 -1.4L9.6 -1.4L9.6 -1.4Q9.6 -1.1 9.4 -0.9Q9.2 -0.6 8.9 -0.4Q8.6 -0.2 8.2 -0.0Q7.8 0.1 7.3 0.1Z M13.1 0.1Q12.4 0.1 12.0 -0.1Q11.5 -0.3 11.2 -0.6Q10.9 -1.0 10.9 -1.4L10.9 -1.4H12.0L12.0 -1.4Q12.1 -1.1 12.4 -0.9Q12.7 -0.8 13.1 -0.8Q13.4 -0.8 13.7 -0.9Q13.9 -0.9 14.0 -1.1Q14.2 -1.3 14.2 -1.5V-1.5Q14.2 -1.7 14.0 -1.9Q13.8 -2.0 13.3 -2.1L12.5 -2.3Q12.0 -2.4 11.6 -2.6Q11.3 -2.8 11.2 -3.1Q11.0 -3.4 11.0 -3.8V-3.8Q11.0 -4.3 11.3 -4.7Q11.5 -5.0 12.0 -5.2Q12.5 -5.4 13.1 -5.4Q13.7 -5.4 14.2 -5.2Q14.7 -5.0 14.9 -4.7Q15.2 -4.4 15.2 -3.9V-3.9H14.1L14.1 -3.9Q14.1 -4.2 13.8 -4.4Q13.5 -4.6 13.1 -4.6Q12.8 -4.6 12.6 -4.5Q12.4 -4.4 12.3 -4.2Q12.1 -4.1 12.1 -3.9V-3.9Q12.1 -3.7 12.2 -3.6Q12.3 -3.5 12.5 -3.4Q12.7 -3.3 13.0 -3.2L13.8 -3.0Q14.3 -2.9 14.7 -2.7Q15.0 -2.5 15.2 -2.3Q15.3 -2.0 15.3 -1.6V-1.6Q15.3 -1.1 15.0 -0.7Q14.8 -0.3 14.3 -0.1Q13.7 0.1 13.1 0.1Z M19.0 0.1Q18.3 0.1 17.7 -0.2Q17.1 -0.6 16.8 -1.2Q16.5 -1.8 16.5 -2.6V-2.7Q16.5 -3.5 16.8 -4.1Q17.1 -4.7 17.7 -5.1Q18.2 -5.4 19.0 -5.4Q19.7 -5.4 20.3 -5.1Q20.8 -4.8 21.1 -4.2Q21.4 -3.6 21.4 -2.8V-2.4H17.1V-3.2H20.8L20.3 -2.4V-2.9Q20.3 -3.4 20.1 -3.8Q20.0 -4.1 19.7 -4.3Q19.4 -4.5 19.0 -4.5Q18.6 -4.5 18.3 -4.3Q18.0 -4.1 17.8 -3.8Q17.7 -3.4 17.7 -2.9V-2.4Q17.7 -1.9 17.8 -1.6Q18.0 -1.2 18.3 -1.0Q18.6 -0.8 19.1 -0.8Q19.4 -0.8 19.6 -0.9Q19.9 -1.0 20.0 -1.1Q20.2 -1.3 20.2 -1.4L20.3 -1.4L21.4 -1.4L21.4 -1.4Q21.3 -1.1 21.1 -0.9Q20.9 -0.6 20.7 -0.4Q20.4 -0.2 20.0 -0.0Q19.6 0.1 19.0 0.1Z M24.3 0.1Q23.8 0.1 23.4 -0.1Q23.0 -0.3 22.8 -0.7Q22.5 -1.0 22.5 -1.5V-1.5Q22.5 -2.0 22.8 -2.3Q23.0 -2.7 23.5 -2.9Q23.9 -3.1 24.6 -3.1L26.5 -3.2V-2.4L24.7 -2.3Q24.2 -2.3 23.9 -2.1Q23.7 -1.9 23.7 -1.6V-1.6Q23.7 -1.2 24.0 -1.0Q24.2 -0.8 24.6 -0.8Q25.0 -0.8 25.3 -1.0Q25.6 -1.1 25.8 -1.4Q26.0 -1.6 26.0 -2.0V-3.6Q26.0 -4.1 25.7 -4.3Q25.4 -4.5 24.9 -4.5Q24.5 -4.5 24.2 -4.3Q24.0 -4.2 23.9 -3.9L23.9 -3.9H22.8L22.8 -3.9Q22.8 -4.4 23.1 -4.7Q23.4 -5.1 23.9 -5.2Q24.4 -5.4 25.0 -5.4Q25.7 -5.4 26.1 -5.2Q26.6 -5.0 26.9 -4.6Q27.1 -4.2 27.1 -3.6V0.0H26.0V-0.7H25.9Q25.7 -0.5 25.5 -0.3Q25.3 -0.1 25.0 -0.0Q24.7 0.1 24.3 0.1Z M28.8 0.0V-5.3H29.9V-4.5H30.0Q30.1 -4.9 30.5 -5.2Q30.9 -5.4 31.4 -5.4Q31.5 -5.4 31.7 -5.4Q31.8 -5.4 31.9 -5.4V-4.3Q31.7 -4.3 31.6 -4.4Q31.4 -4.4 31.3 -4.4Q30.9 -4.4 30.6 -4.2Q30.3 -4.1 30.1 -3.8Q29.9 -3.5 29.9 -3.1V0.0Z M35.3 0.1Q34.5 0.1 34.0 -0.2Q33.4 -0.6 33.1 -1.2Q32.8 -1.8 32.8 -2.7V-2.7Q32.8 -3.5 33.1 -4.2Q33.4 -4.8 34.0 -5.1Q34.5 -5.4 35.3 -5.4Q36.0 -5.4 36.5 -5.2Q37.0 -5.0 37.3 -4.5Q37.6 -4.1 37.6 -3.6L37.6 -3.6H36.5L36.5 -3.6Q36.4 -4.0 36.1 -4.2Q35.8 -4.5 35.3 -4.5Q34.9 -4.5 34.6 -4.3Q34.3 -4.1 34.1 -3.6Q34.0 -3.2 34.0 -2.7V-2.7Q34.0 -2.1 34.1 -1.7Q34.3 -1.3 34.6 -1.1Q34.9 -0.8 35.3 -0.8Q35.8 -0.8 36.1 -1.1Q36.4 -1.3 36.5 -1.7L36.5 -1.7L37.6 -1.7L37.6 -1.7Q37.5 -1.2 37.2 -0.7Q37.0 -0.3 36.5 -0.1Q36.0 0.1 35.3 0.1Z M39.1 0.0V-7.4H40.2V-4.5H40.3Q40.5 -4.9 40.9 -5.2Q41.3 -5.4 41.8 -5.4Q42.4 -5.4 42.8 -5.2Q43.2 -5.0 43.5 -4.5Q43.7 -4.1 43.7 -3.4V0.0H42.5V-3.2Q42.5 -3.8 42.2 -4.1Q42.0 -4.4 41.4 -4.4Q41.0 -4.4 40.8 -4.3Q40.5 -4.1 40.4 -3.8Q40.2 -3.5 40.2 -3.1V0.0Z"/></g>
</svg>