<svg xmlns="http://www.w3.org/2000/svg" viewBox="0 0 470 152" width="470" height="152" role="img" aria-label="eeg-affect-honest-negatives — Six pre-registered spikes finding EEG affect sits at the chance ceiling — including at N=123.">
  <rect x="0.75" y="0.75" width="468" height="150" rx="12" fill="#0D1117" stroke="#1F2937" stroke-width="1.5"/>
  <rect x="0.75" y="0.75" width="4" height="150" rx="2" fill="#F43F5E"/>
  <circle cx="30" cy="41" r="5.5" fill="none" stroke="#F43F5E" stroke-width="2"/>
  <g transform="translate(46,46)" fill="#F8F9FA"><path d="M4.1 0.1Q3.0 0.1 2.2 -0.3Q1.4 -0.8 1.0 -1.6Q0.6 -2.4 0.6 -3.6V-3.6Q0.6 -4.7 1.0 -5.6Q1.4 -6.4 2.2 -6.9Q2.9 -7.3 4.0 -7.3Q5.0 -7.3 5.8 -6.9Q6.5 -6.4 6.9 -5.6Q7.3 -4.8 7.3 -3.7V-3.2H1.5V-4.3H6.5L5.6 -3.2V-3.9Q5.6 -4.6 5.4 -5.1Q5.2 -5.5 4.8 -5.7Q4.5 -6.0 4.0 -6.0Q3.5 -6.0 3.2 -5.7Q2.8 -5.5 2.6 -5.0Q2.4 -4.6 2.4 -3.9V-3.2Q2.4 -2.6 2.6 -2.1Q2.8 -1.7 3.2 -1.5Q3.6 -1.2 4.1 -1.2Q4.5 -1.2 4.8 -1.4Q5.1 -1.5 5.3 -1.7Q5.5 -1.8 5.6 -2.0L5.6 -2.0L7.3 -2.0L7.3 -2.0Q7.2 -1.6 7.0 -1.3Q6.7 -0.9 6.3 -0.6Q6.0 -0.2 5.4 -0.0Q4.8 0.1 4.1 0.1Z M12.1 0.1Q11.0 0.1 10.2 -0.3Q9.4 -0.8 9.0 -1.6Q8.6 -2.4 8.6 -3.6V-3.6Q8.6 -4.7 9.0 -5.6Q9.4 -6.4 10.2 -6.9Q10.9 -7.3 12.0 -7.3Q13.0 -7.3 13.8 -6.9Q14.5 -6.4 14.9 -5.6Q15.4 -4.8 15.4 -3.7V-3.2H9.5V-4.3H14.5L13.6 -3.2V-3.9Q13.6 -4.6 13.4 -5.1Q13.2 -5.5 12.8 -5.7Q12.5 -6.0 12.0 -6.0Q11.5 -6.0 11.2 -5.7Q10.8 -5.5 10.6 -5.0Q10.4 -4.6 10.4 -3.9V-3.2Q10.4 -2.6 10.6 -2.1Q10.8 -1.7 11.2 -1.5Q11.6 -1.2 12.1 -1.2Q12.5 -1.2 12.8 -1.4Q13.1 -1.5 13.3 -1.7Q13.5 -1.8 13.6 -2.0L13.6 -2.0L15.3 -2.0L15.3 -2.0Q15.2 -1.6 15.0 -1.3Q14.7 -0.9 14.3 -0.6Q14.0 -0.2 13.4 -0.0Q12.8 0.1 12.1 0.1Z M20.1 2.5Q19.1 2.5 18.4 2.3Q17.7 2.0 17.3 1.5Q16.9 1.1 16.8 0.5L16.8 0.4H18.6L18.6 0.5Q18.7 0.8 19.1 1.0Q19.5 1.2 20.1 1.2Q20.9 1.2 21.3 0.8Q21.8 0.5 21.8 -0.2V-1.5H21.7Q21.5 -1.1 21.2 -0.8Q20.8 -0.5 20.4 -0.4Q20.0 -0.3 19.5 -0.3Q18.6 -0.3 17.9 -0.7Q17.3 -1.1 16.9 -1.9Q16.6 -2.7 16.6 -3.7V-3.8Q16.6 -4.8 16.9 -5.6Q17.3 -6.4 17.9 -6.9Q18.6 -7.3 19.5 -7.3Q20.0 -7.3 20.4 -7.2Q20.9 -7.0 21.2 -6.7Q21.5 -6.4 21.7 -6.0H21.8V-7.2H23.6V-0.2Q23.6 0.6 23.2 1.2Q22.7 1.9 21.9 2.2Q21.2 2.5 20.1 2.5ZM20.1 -1.7Q20.6 -1.7 21.0 -1.9Q21.4 -2.2 21.6 -2.7Q21.8 -3.1 21.8 -3.7V-3.7Q21.8 -4.4 21.6 -4.8Q21.4 -5.3 21.0 -5.6Q20.6 -5.8 20.1 -5.8Q19.6 -5.8 19.2 -5.6Q18.8 -5.3 18.6 -4.8Q18.4 -4.4 18.4 -3.7V-3.7Q18.4 -3.1 18.6 -2.7Q18.8 -2.2 19.2 -1.9Q19.6 -1.7 20.1 -1.7Z M25.6 -3.0V-4.7H30.0V-3.0Z M34.0 0.1Q33.3 0.1 32.7 -0.2Q32.2 -0.4 31.9 -0.9Q31.6 -1.4 31.6 -2.0V-2.1Q31.6 -2.7 31.9 -3.2Q32.2 -3.6 32.9 -3.9Q33.5 -4.2 34.4 -4.2L37.1 -4.4V-3.2L34.6 -3.1Q34.0 -3.0 33.7 -2.8Q33.4 -2.6 33.4 -2.2V-2.1Q33.4 -1.7 33.7 -1.5Q34.0 -1.2 34.6 -1.2Q35.0 -1.2 35.4 -1.4Q35.7 -1.6 35.9 -1.9Q36.2 -2.2 36.2 -2.6V-4.9Q36.2 -5.4 35.8 -5.7Q35.5 -5.9 34.9 -5.9Q34.4 -5.9 34.0 -5.7Q33.7 -5.5 33.6 -5.2L33.6 -5.2H31.9L31.9 -5.2Q32.0 -5.9 32.4 -6.3Q32.7 -6.8 33.4 -7.1Q34.1 -7.3 35.0 -7.3Q35.9 -7.3 36.6 -7.0Q37.3 -6.8 37.6 -6.2Q38.0 -5.7 38.0 -4.9V0.0H36.2V-1.0H36.1Q35.9 -0.6 35.6 -0.4Q35.2 -0.1 34.8 -0.0Q34.4 0.1 34.0 0.1Z M40.3 0.0V-5.8H39.2V-7.2H40.3V-7.9Q40.3 -8.6 40.6 -9.0Q40.8 -9.5 41.4 -9.8Q41.9 -10.0 42.7 -10.0Q43.0 -10.0 43.3 -10.0Q43.5 -9.9 43.7 -9.9V-8.7Q43.6 -8.7 43.5 -8.7Q43.3 -8.7 43.1 -8.7Q42.6 -8.7 42.4 -8.5Q42.1 -8.2 42.1 -7.8V-7.2H43.6V-5.8H42.2V0.0Z M45.7 0.0V-5.8H44.6V-7.2H45.7V-7.9Q45.7 -8.6 46.0 -9.0Q46.2 -9.5 46.7 -9.8Q47.3 -10.0 48.1 -10.0Q48.4 -10.0 48.6 -10.0Q48.9 -9.9 49.0 -9.9V-8.7Q49.0 -8.7 48.8 -8.7Q48.7 -8.7 48.5 -8.7Q48.0 -8.7 47.7 -8.5Q47.5 -8.2 47.5 -7.8V-7.2H49.0V-5.8H47.5V0.0Z M53.7 0.1Q52.6 0.1 51.8 -0.3Q51.0 -0.8 50.6 -1.6Q50.2 -2.4 50.2 -3.6V-3.6Q50.2 -4.7 50.6 -5.6Q51.0 -6.4 51.8 -6.9Q52.6 -7.3 53.6 -7.3Q54.6 -7.3 55.4 -6.9Q56.2 -6.4 56.6 -5.6Q57.0 -4.8 57.0 -3.7V-3.2H51.1V-4.3H56.1L55.2 -3.2V-3.9Q55.2 -4.6 55.0 -5.1Q54.8 -5.5 54.5 -5.7Q54.1 -6.0 53.6 -6.0Q53.2 -6.0 52.8 -5.7Q52.4 -5.5 52.2 -5.0Q52.0 -4.6 52.0 -3.9V-3.2Q52.0 -2.6 52.2 -2.1Q52.4 -1.7 52.8 -1.5Q53.2 -1.2 53.7 -1.2Q54.1 -1.2 54.4 -1.4Q54.7 -1.5 54.9 -1.7Q55.1 -1.8 55.2 -2.0L55.2 -2.0L56.9 -2.0L56.9 -2.0Q56.8 -1.6 56.6 -1.3Q56.4 -0.9 56.0 -0.6Q55.6 -0.2 55.0 -0.0Q54.4 0.1 53.7 0.1Z M61.7 0.1Q60.6 0.1 59.8 -0.3Q59.0 -0.7 58.6 -1.6Q58.2 -2.4 58.2 -3.6V-3.6Q58.2 -4.8 58.6 -5.6Q59.0 -6.5 59.8 -6.9Q60.6 -7.3 61.7 -7.3Q62.6 -7.3 63.3 -7.0Q64.0 -6.7 64.4 -6.1Q64.8 -5.5 64.9 -4.7L64.9 -4.7H63.2L63.2 -4.7Q63.1 -5.2 62.7 -5.6Q62.3 -5.9 61.7 -5.9Q61.2 -5.9 60.8 -5.6Q60.4 -5.4 60.2 -4.9Q60.0 -4.3 60.0 -3.6V-3.6Q60.0 -2.9 60.2 -2.4Q60.4 -1.8 60.8 -1.6Q61.2 -1.3 61.7 -1.3Q62.3 -1.3 62.7 -1.6Q63.0 -1.9 63.2 -2.4L63.2 -2.5L64.9 -2.5L64.9 -2.4Q64.8 -1.7 64.4 -1.1Q64.0 -0.5 63.3 -0.2Q62.6 0.1 61.7 0.1Z M69.3 0.1Q68.0 0.1 67.4 -0.4Q66.9 -0.9 66.9 -1.9V-5.8H65.8V-7.2H66.9V-8.9H68.7V-7.2H70.2V-5.8H68.7V-2.3Q68.7 -1.8 68.9 -1.6Q69.2 -1.4 69.6 -1.4Q69.8 -1.4 69.9 -1.4Q70.0 -1.4 70.2 -1.4V-0.0Q70.0 0.0 69.8 0.0Q69.5 0.1 69.3 0.1Z M71.9 -3.0V-4.7H76.2V-3.0Z M78.3 0.0V-9.9H80.1V-6.1H80.2Q80.5 -6.7 81.0 -7.0Q81.5 -7.3 82.3 -7.3Q83.1 -7.3 83.7 -7.0Q84.2 -6.7 84.5 -6.1Q84.8 -5.5 84.8 -4.6V0.0H83.0V-4.2Q83.0 -5.0 82.6 -5.4Q82.3 -5.8 81.6 -5.8Q81.1 -5.8 80.8 -5.6Q80.5 -5.4 80.3 -5.0Q80.1 -4.7 80.1 -4.2V0.0Z M89.8 0.1Q88.7 0.1 87.9 -0.3Q87.2 -0.7 86.7 -1.6Q86.3 -2.4 86.3 -3.6V-3.6Q86.3 -4.8 86.7 -5.6Q87.2 -6.4 87.9 -6.9Q88.7 -7.3 89.8 -7.3Q90.9 -7.3 91.7 -6.9Q92.5 -6.4 92.9 -5.6Q93.3 -4.8 93.3 -3.6V-3.6Q93.3 -2.4 92.9 -1.6Q92.5 -0.7 91.7 -0.3Q90.9 0.1 89.8 0.1ZM89.8 -1.3Q90.3 -1.3 90.7 -1.6Q91.1 -1.8 91.3 -2.4Q91.5 -2.9 91.5 -3.6V-3.6Q91.5 -4.3 91.3 -4.8Q91.1 -5.3 90.7 -5.6Q90.3 -5.9 89.8 -5.9Q89.3 -5.9 88.9 -5.6Q88.6 -5.3 88.4 -4.8Q88.2 -4.3 88.2 -3.6V-3.6Q88.2 -2.9 88.4 -2.4Q88.6 -1.8 88.9 -1.6Q89.3 -1.3 89.8 -1.3Z M94.9 0.0V-7.2H96.7V-6.1H96.8Q97.1 -6.7 97.6 -7.0Q98.1 -7.3 98.9 -7.3Q100.1 -7.3 100.7 -6.6Q101.4 -5.9 101.4 -4.6V0.0H99.6V-4.2Q99.6 -5.0 99.2 -5.4Q98.9 -5.8 98.2 -5.8Q97.7 -5.8 97.4 -5.6Q97.1 -5.4 96.9 -5.0Q96.7 -4.7 96.7 -4.2V0.0Z M106.4 0.1Q105.3 0.1 104.5 -0.3Q103.7 -0.8 103.3 -1.6Q102.9 -2.4 102.9 -3.6V-3.6Q102.9 -4.7 103.3 -5.6Q103.7 -6.4 104.5 -6.9Q105.3 -7.3 106.3 -7.3Q107.3 -7.3 108.1 -6.9Q108.8 -6.4 109.3 -5.6Q109.7 -4.8 109.7 -3.7V-3.2H103.8V-4.3H108.8L107.9 -3.2V-3.9Q107.9 -4.6 107.7 -5.1Q107.5 -5.5 107.2 -5.7Q106.8 -6.0 106.3 -6.0Q105.8 -6.0 105.5 -5.7Q105.1 -5.5 104.9 -5.0Q104.7 -4.6 104.7 -3.9V-3.2Q104.7 -2.6 104.9 -2.1Q105.1 -1.7 105.5 -1.5Q105.9 -1.2 106.4 -1.2Q106.8 -1.2 107.1 -1.4Q107.4 -1.5 107.6 -1.7Q107.8 -1.8 107.9 -2.0L107.9 -2.0L109.6 -2.0L109.6 -2.0Q109.5 -1.6 109.3 -1.3Q109.0 -0.9 108.7 -0.6Q108.3 -0.2 107.7 -0.0Q107.1 0.1 106.4 0.1Z M114.0 0.1Q113.1 0.1 112.4 -0.1Q111.7 -0.4 111.3 -0.9Q111.0 -1.4 110.9 -2.0L110.9 -2.0H112.7L112.7 -2.0Q112.8 -1.6 113.1 -1.4Q113.5 -1.2 114.1 -1.2Q114.5 -1.2 114.7 -1.3Q115.0 -1.4 115.2 -1.5Q115.3 -1.7 115.3 -2.0V-2.0Q115.3 -2.3 115.1 -2.5Q114.9 -2.7 114.3 -2.8L113.1 -3.1Q112.4 -3.2 112.0 -3.5Q111.5 -3.8 111.3 -4.2Q111.1 -4.6 111.1 -5.1V-5.1Q111.1 -5.8 111.4 -6.3Q111.8 -6.8 112.5 -7.1Q113.1 -7.3 114.0 -7.3Q114.9 -7.3 115.6 -7.1Q116.2 -6.8 116.6 -6.3Q117.0 -5.8 117.0 -5.2L117.0 -5.2H115.3L115.3 -5.2Q115.2 -5.6 114.9 -5.8Q114.6 -6.0 114.0 -6.0Q113.7 -6.0 113.4 -5.9Q113.1 -5.8 113.0 -5.6Q112.9 -5.5 112.9 -5.2V-5.2Q112.9 -5.0 113.0 -4.9Q113.1 -4.7 113.3 -4.6Q113.5 -4.5 113.9 -4.4L115.1 -4.1Q115.8 -4.0 116.3 -3.7Q116.7 -3.5 116.9 -3.1Q117.2 -2.7 117.2 -2.2V-2.2Q117.2 -1.5 116.8 -1.0Q116.4 -0.4 115.7 -0.1Q115.0 0.1 114.0 0.1Z M121.6 0.1Q120.4 0.1 119.8 -0.4Q119.2 -0.9 119.2 -1.9V-5.8H118.1V-7.2H119.2V-8.9H121.1V-7.2H122.5V-5.8H121.1V-2.3Q121.1 -1.8 121.3 -1.6Q121.5 -1.4 122.0 -1.4Q122.2 -1.4 122.3 -1.4Q122.4 -1.4 122.5 -1.4V-0.0Q122.4 0.0 122.1 0.0Q121.9 0.1 121.6 0.1Z M124.2 -3.0V-4.7H128.6V-3.0Z M130.6 0.0V-7.2H132.4V-6.1H132.5Q132.8 -6.7 133.3 -7.0Q133.8 -7.3 134.6 -7.3Q135.8 -7.3 136.4 -6.6Q137.1 -5.9 137.1 -4.6V0.0H135.3V-4.2Q135.3 -5.0 134.9 -5.4Q134.6 -5.8 133.9 -5.8Q133.4 -5.8 133.1 -5.6Q132.8 -5.4 132.6 -5.0Q132.4 -4.7 132.4 -4.2V0.0Z M142.1 0.1Q141.0 0.1 140.2 -0.3Q139.4 -0.8 139.0 -1.6Q138.6 -2.4 138.6 -3.6V-3.6Q138.6 -4.7 139.0 -5.6Q139.4 -6.4 140.2 -6.9Q141.0 -7.3 142.0 -7.3Q143.0 -7.3 143.8 -6.9Q144.5 -6.4 145.0 -5.6Q145.4 -4.8 145.4 -3.7V-3.2H139.5V-4.3H144.5L143.6 -3.2V-3.9Q143.6 -4.6 143.4 -5.1Q143.2 -5.5 142.9 -5.7Q142.5 -6.0 142.0 -6.0Q141.5 -6.0 141.2 -5.7Q140.8 -5.5 140.6 -5.0Q140.4 -4.6 140.4 -3.9V-3.2Q140.4 -2.6 140.6 -2.1Q140.8 -1.7 141.2 -1.5Q141.6 -1.2 142.1 -1.2Q142.5 -1.2 142.8 -1.4Q143.1 -1.5 143.3 -1.7Q143.5 -1.8 143.6 -2.0L143.6 -2.0L145.3 -2.0L145.3 -2.0Q145.2 -1.6 145.0 -1.3Q144.7 -0.9 144.4 -0.6Q144.0 -0.2 143.4 -0.0Q142.8 0.1 142.1 0.1Z M150.1 2.5Q149.1 2.5 148.4 2.3Q147.7 2.0 147.3 1.5Q146.9 1.1 146.8 0.5L146.8 0.4H148.6L148.6 0.5Q148.7 0.8 149.1 1.0Q149.5 1.2 150.1 1.2Q150.9 1.2 151.4 0.8Q151.8 0.5 151.8 -0.2V-1.5H151.7Q151.5 -1.1 151.2 -0.8Q150.9 -0.5 150.4 -0.4Q150.0 -0.3 149.5 -0.3Q148.6 -0.3 147.9 -0.7Q147.3 -1.1 146.9 -1.9Q146.6 -2.7 146.6 -3.7V-3.8Q146.6 -4.8 146.9 -5.6Q147.3 -6.4 148.0 -6.9Q148.6 -7.3 149.5 -7.3Q150.0 -7.3 150.5 -7.2Q150.9 -7.0 151.2 -6.7Q151.5 -6.4 151.7 -6.0H151.8V-7.2H153.6V-0.2Q153.6 0.6 153.2 1.2Q152.7 1.9 152.0 2.2Q151.2 2.5 150.1 2.5ZM150.1 -1.7Q150.6 -1.7 151.0 -1.9Q151.4 -2.2 151.6 -2.7Q151.8 -3.1 151.8 -3.7V-3.7Q151.8 -4.4 151.6 -4.8Q151.4 -5.3 151.0 -5.6Q150.6 -5.8 150.1 -5.8Q149.6 -5.8 149.2 -5.6Q148.8 -5.3 148.6 -4.8Q148.4 -4.4 148.4 -3.7V-3.7Q148.4 -3.1 148.6 -2.7Q148.8 -2.2 149.2 -1.9Q149.6 -1.7 150.1 -1.7Z M157.5 0.1Q156.8 0.1 156.3 -0.2Q155.7 -0.4 155.4 -0.9Q155.1 -1.4 155.1 -2.0V-2.1Q155.1 -2.7 155.5 -3.2Q155.8 -3.6 156.4 -3.9Q157.0 -4.2 157.9 -4.2L160.6 -4.4V-3.2L158.2 -3.1Q157.5 -3.0 157.2 -2.8Q156.9 -2.6 156.9 -2.2V-2.1Q156.9 -1.7 157.2 -1.5Q157.6 -1.2 158.1 -1.2Q158.5 -1.2 158.9 -1.4Q159.3 -1.6 159.5 -1.9Q159.7 -2.2 159.7 -2.6V-4.9Q159.7 -5.4 159.4 -5.7Q159.0 -5.9 158.4 -5.9Q157.9 -5.9 157.6 -5.7Q157.2 -5.5 157.1 -5.2L157.1 -5.2H155.4L155.4 -5.2Q155.5 -5.9 155.9 -6.3Q156.3 -6.8 157.0 -7.1Q157.6 -7.3 158.5 -7.3Q159.5 -7.3 160.1 -7.0Q160.8 -6.8 161.1 -6.2Q161.5 -5.7 161.5 -4.9V0.0H159.7V-1.0H159.6Q159.4 -0.6 159.1 -0.4Q158.8 -0.1 158.4 -0.0Q158.0 0.1 157.5 0.1Z M166.2 0.1Q165.0 0.1 164.4 -0.4Q163.9 -0.9 163.9 -1.9V-5.8H162.8V-7.2H163.9V-8.9H165.7V-7.2H167.2V-5.8H165.7V-2.3Q165.7 -1.8 165.9 -1.6Q166.2 -1.4 166.6 -1.4Q166.8 -1.4 166.9 -1.4Q167.0 -1.4 167.2 -1.4V-0.0Q167.0 0.0 166.8 0.0Q166.5 0.1 166.2 0.1Z M168.8 0.0V-7.2H170.6V0.0ZM169.7 -8.3Q169.3 -8.3 169.0 -8.6Q168.6 -8.9 168.6 -9.3Q168.6 -9.7 169.0 -10.0Q169.3 -10.3 169.7 -10.3Q170.1 -10.3 170.4 -10.0Q170.7 -9.7 170.7 -9.3Q170.7 -8.9 170.4 -8.6Q170.1 -8.3 169.7 -8.3Z M174.4 0.0 171.9 -7.2H173.8L175.4 -1.7H175.5L177.0 -7.2H178.9L176.4 0.0Z M183.4 0.1Q182.3 0.1 181.5 -0.3Q180.7 -0.8 180.3 -1.6Q179.9 -2.4 179.9 -3.6V-3.6Q179.9 -4.7 180.3 -5.6Q180.7 -6.4 181.5 -6.9Q182.3 -7.3 183.3 -7.3Q184.3 -7.3 185.1 -6.9Q185.9 -6.4 186.3 -5.6Q186.7 -4.8 186.7 -3.7V-3.2H180.8V-4.3H185.8L184.9 -3.2V-3.9Q184.9 -4.6 184.7 -5.1Q184.5 -5.5 184.2 -5.7Q183.8 -6.0 183.3 -6.0Q182.9 -6.0 182.5 -5.7Q182.1 -5.5 181.9 -5.0Q181.7 -4.6 181.7 -3.9V-3.2Q181.7 -2.6 181.9 -2.1Q182.1 -1.7 182.5 -1.5Q182.9 -1.2 183.4 -1.2Q183.8 -1.2 184.1 -1.4Q184.4 -1.5 184.6 -1.7Q184.8 -1.8 184.9 -2.0L184.9 -2.0L186.6 -2.0L186.6 -2.0Q186.5 -1.6 186.3 -1.3Q186.1 -0.9 185.7 -0.6Q185.3 -0.2 184.7 -0.0Q184.1 0.1 183.4 0.1Z M191.1 0.1Q190.1 0.1 189.4 -0.1Q188.7 -0.4 188.3 -0.9Q188.0 -1.4 187.9 -2.0L187.9 -2.0H189.7L189.7 -2.0Q189.8 -1.6 190.1 -1.4Q190.5 -1.2 191.1 -1.2Q191.5 -1.2 191.7 -1.3Q192.0 -1.4 192.2 -1.5Q192.3 -1.7 192.3 -2.0V-2.0Q192.3 -2.3 192.1 -2.5Q191.9 -2.7 191.3 -2.8L190.1 -3.1Q189.4 -3.2 189.0 -3.5Q188.5 -3.8 188.3 -4.2Q188.1 -4.6 188.1 -5.1V-5.1Q188.1 -5.8 188.4 -6.3Q188.8 -6.8 189.5 -7.1Q190.1 -7.3 191.0 -7.3Q191.9 -7.3 192.6 -7.1Q193.3 -6.8 193.6 -6.3Q194.0 -5.8 194.0 -5.2L194.0 -5.2H192.3L192.3 -5.2Q192.2 -5.6 191.9 -5.8Q191.6 -6.0 191.0 -6.0Q190.7 -6.0 190.4 -5.9Q190.2 -5.8 190.0 -5.6Q189.9 -5.5 189.9 -5.2V-5.2Q189.9 -5.0 190.0 -4.9Q190.1 -4.7 190.3 -4.6Q190.5 -4.5 190.9 -4.4L192.1 -4.1Q192.8 -4.0 193.3 -3.7Q193.7 -3.5 193.9 -3.1Q194.2 -2.7 194.2 -2.2V-2.2Q194.2 -1.5 193.8 -1.0Q193.4 -0.4 192.7 -0.1Q192.0 0.1 191.1 0.1Z"/></g>
  <g transform="translate(46,74)" fill="#9CA3AF"><path d="M3.7 0.2Q2.8 0.2 2.1 -0.1Q1.5 -0.4 1.1 -0.9Q0.7 -1.4 0.6 -2.1L0.6 -2.1H1.7L1.7 -2.1Q1.8 -1.7 2.1 -1.4Q2.3 -1.1 2.8 -1.0Q3.2 -0.8 3.8 -0.8Q4.3 -0.8 4.7 -1.0Q5.1 -1.2 5.4 -1.5Q5.6 -1.8 5.6 -2.2V-2.2Q5.6 -2.6 5.2 -3.0Q4.9 -3.3 4.1 -3.5L3.2 -3.7Q2.4 -3.9 1.8 -4.2Q1.3 -4.5 1.1 -4.9Q0.8 -5.4 0.8 -6.0V-6.0Q0.8 -6.7 1.2 -7.2Q1.6 -7.7 2.2 -8.0Q2.9 -8.3 3.7 -8.3Q4.5 -8.3 5.2 -8.0Q5.8 -7.7 6.2 -7.2Q6.6 -6.7 6.6 -6.1L6.6 -6.0H5.5L5.5 -6.1Q5.4 -6.4 5.2 -6.7Q5.0 -7.0 4.6 -7.1Q4.2 -7.3 3.7 -7.3Q3.2 -7.3 2.8 -7.1Q2.4 -7.0 2.2 -6.7Q2.0 -6.4 2.0 -6.0V-6.0Q2.0 -5.7 2.1 -5.5Q2.3 -5.2 2.6 -5.0Q2.9 -4.9 3.5 -4.7L4.4 -4.5Q5.2 -4.4 5.7 -4.1Q6.3 -3.8 6.5 -3.3Q6.7 -2.9 6.7 -2.3V-2.3Q6.7 -1.5 6.4 -1.0Q6.0 -0.4 5.3 -0.1Q4.6 0.2 3.7 0.2Z M8.4 0.0V-6.1H9.5V0.0ZM9.0 -7.2Q8.7 -7.2 8.5 -7.4Q8.3 -7.6 8.3 -7.9Q8.3 -8.2 8.5 -8.4Q8.7 -8.6 9.0 -8.6Q9.3 -8.6 9.5 -8.4Q9.7 -8.2 9.7 -7.9Q9.7 -7.6 9.5 -7.4Q9.3 -7.2 9.0 -7.2Z M11.0 0.0 13.0 -3.0 11.0 -6.1H12.2L13.6 -3.8H13.7L15.1 -6.1H16.3L14.2 -3.1L16.3 0.0H15.0L13.7 -2.2H13.6L12.2 0.0Z M21.0 2.0V-6.1H22.1V-5.1H22.2Q22.4 -5.4 22.7 -5.7Q22.9 -5.9 23.3 -6.0Q23.6 -6.2 24.1 -6.2Q24.8 -6.2 25.4 -5.8Q26.0 -5.4 26.3 -4.7Q26.6 -4.0 26.6 -3.0V-3.0Q26.6 -2.1 26.3 -1.4Q26.0 -0.7 25.4 -0.3Q24.8 0.1 24.1 0.1Q23.7 0.1 23.3 -0.0Q22.9 -0.2 22.6 -0.4Q22.4 -0.6 22.2 -1.0H22.1V2.0ZM23.8 -0.8Q24.3 -0.8 24.7 -1.1Q25.1 -1.4 25.3 -1.9Q25.5 -2.3 25.5 -3.0V-3.0Q25.5 -3.7 25.3 -4.2Q25.1 -4.7 24.7 -5.0Q24.3 -5.2 23.8 -5.2Q23.3 -5.2 22.9 -5.0Q22.5 -4.7 22.3 -4.2Q22.1 -3.7 22.1 -3.0V-3.0Q22.1 -2.4 22.3 -1.9Q22.5 -1.4 22.9 -1.1Q23.3 -0.8 23.8 -0.8Z M28.2 0.0V-6.1H29.3V-5.2H29.4Q29.6 -5.6 30.0 -5.9Q30.4 -6.2 31.0 -6.2Q31.1 -6.2 31.3 -6.2Q31.4 -6.1 31.5 -6.1V-5.1Q31.4 -5.1 31.2 -5.1Q31.0 -5.2 30.9 -5.2Q30.4 -5.2 30.1 -5.0Q29.7 -4.8 29.5 -4.5Q29.3 -4.1 29.3 -3.7V0.0Z M35.3 0.1Q34.5 0.1 33.8 -0.3Q33.2 -0.7 32.9 -1.4Q32.5 -2.1 32.5 -3.0V-3.0Q32.5 -4.0 32.9 -4.7Q33.2 -5.4 33.8 -5.8Q34.4 -6.2 35.3 -6.2Q36.1 -6.2 36.7 -5.8Q37.3 -5.4 37.6 -4.7Q38.0 -4.0 38.0 -3.1V-2.7H33.1V-3.6H37.4L36.9 -2.8V-3.2Q36.9 -3.9 36.7 -4.4Q36.5 -4.8 36.1 -5.0Q35.7 -5.2 35.3 -5.2Q34.8 -5.2 34.4 -5.0Q34.1 -4.8 33.8 -4.3Q33.6 -3.9 33.6 -3.2V-2.8Q33.6 -2.2 33.8 -1.7Q34.0 -1.3 34.4 -1.1Q34.8 -0.8 35.4 -0.8Q35.8 -0.8 36.1 -0.9Q36.3 -1.0 36.5 -1.2Q36.7 -1.4 36.8 -1.6L36.8 -1.6L37.9 -1.6L37.9 -1.6Q37.8 -1.2 37.6 -1.0Q37.4 -0.7 37.1 -0.4Q36.8 -0.2 36.3 -0.0Q35.9 0.1 35.3 0.1Z M39.5 -2.8V-3.8H43.3V-2.8Z M45.1 0.0V-6.1H46.2V-5.2H46.3Q46.5 -5.6 46.9 -5.9Q47.3 -6.2 47.9 -6.2Q48.1 -6.2 48.2 -6.2Q48.3 -6.1 48.4 -6.1V-5.1Q48.3 -5.1 48.1 -5.1Q48.0 -5.2 47.8 -5.2Q47.3 -5.2 47.0 -5.0Q46.6 -4.8 46.4 -4.5Q46.2 -4.1 46.2 -3.7V0.0Z M52.3 0.1Q51.4 0.1 50.7 -0.3Q50.1 -0.7 49.8 -1.4Q49.4 -2.1 49.4 -3.0V-3.0Q49.4 -4.0 49.8 -4.7Q50.1 -5.4 50.7 -5.8Q51.4 -6.2 52.2 -6.2Q53.0 -6.2 53.6 -5.8Q54.2 -5.4 54.6 -4.7Q54.9 -4.0 54.9 -3.1V-2.7H50.0V-3.6H54.3L53.8 -2.8V-3.2Q53.8 -3.9 53.6 -4.4Q53.4 -4.8 53.0 -5.0Q52.7 -5.2 52.2 -5.2Q51.7 -5.2 51.3 -5.0Q51.0 -4.8 50.8 -4.3Q50.5 -3.9 50.5 -3.2V-2.8Q50.5 -2.2 50.8 -1.7Q51.0 -1.3 51.4 -1.1Q51.7 -0.8 52.3 -0.8Q52.7 -0.8 53.0 -0.9Q53.3 -1.0 53.5 -1.2Q53.6 -1.4 53.7 -1.6L53.7 -1.6L54.8 -1.6L54.8 -1.6Q54.7 -1.2 54.5 -1.0Q54.3 -0.7 54.0 -0.4Q53.7 -0.2 53.2 -0.0Q52.8 0.1 52.3 0.1Z M59.0 2.1Q58.3 2.1 57.7 1.9Q57.2 1.7 56.8 1.3Q56.5 1.0 56.4 0.5L56.4 0.5H57.5L57.6 0.5Q57.6 0.8 58.0 1.0Q58.4 1.2 59.0 1.2Q59.8 1.2 60.3 0.9Q60.7 0.5 60.7 -0.1V-1.3H60.6Q60.4 -1.0 60.1 -0.8Q59.9 -0.5 59.5 -0.4Q59.1 -0.3 58.7 -0.3Q57.9 -0.3 57.4 -0.7Q56.8 -1.0 56.5 -1.7Q56.2 -2.4 56.2 -3.2V-3.2Q56.2 -4.1 56.5 -4.7Q56.8 -5.4 57.4 -5.8Q58.0 -6.2 58.7 -6.2Q59.2 -6.2 59.5 -6.0Q59.9 -5.9 60.2 -5.7Q60.4 -5.4 60.6 -5.1H60.7V-6.1H61.8V-0.1Q61.8 0.6 61.4 1.1Q61.1 1.6 60.5 1.9Q59.9 2.1 59.0 2.1ZM59.0 -1.2Q59.5 -1.2 59.9 -1.5Q60.3 -1.7 60.5 -2.2Q60.7 -2.6 60.7 -3.2V-3.2Q60.7 -3.8 60.5 -4.3Q60.3 -4.7 59.9 -5.0Q59.5 -5.2 59.0 -5.2Q58.4 -5.2 58.1 -5.0Q57.7 -4.7 57.5 -4.3Q57.3 -3.8 57.3 -3.2V-3.2Q57.3 -2.6 57.5 -2.2Q57.7 -1.7 58.1 -1.5Q58.4 -1.2 59.0 -1.2Z M63.7 0.0V-6.1H64.8V0.0ZM64.3 -7.2Q64.0 -7.2 63.8 -7.4Q63.5 -7.6 63.5 -7.9Q63.5 -8.2 63.8 -8.4Q64.0 -8.6 64.3 -8.6Q64.6 -8.6 64.8 -8.4Q65.0 -8.2 65.0 -7.9Q65.0 -7.6 64.8 -7.4Q64.6 -7.2 64.3 -7.2Z M68.9 0.1Q68.2 0.1 67.6 -0.1Q67.1 -0.3 66.8 -0.7Q66.5 -1.1 66.4 -1.6L66.4 -1.6H67.5L67.5 -1.6Q67.7 -1.2 68.0 -1.0Q68.3 -0.8 68.9 -0.8Q69.3 -0.8 69.6 -0.9Q69.9 -1.0 70.1 -1.2Q70.2 -1.4 70.2 -1.7V-1.7Q70.2 -2.0 70.0 -2.2Q69.8 -2.4 69.2 -2.5L68.3 -2.7Q67.7 -2.9 67.3 -3.1Q67.0 -3.3 66.8 -3.6Q66.6 -3.9 66.6 -4.4V-4.4Q66.6 -4.9 66.9 -5.3Q67.2 -5.7 67.7 -5.9Q68.2 -6.2 68.9 -6.2Q69.6 -6.2 70.1 -6.0Q70.6 -5.8 70.9 -5.4Q71.2 -5.0 71.2 -4.5L71.2 -4.5H70.2L70.2 -4.5Q70.1 -4.9 69.8 -5.1Q69.4 -5.3 68.9 -5.3Q68.6 -5.3 68.3 -5.2Q68.0 -5.1 67.9 -4.9Q67.7 -4.7 67.7 -4.4V-4.4Q67.7 -4.2 67.8 -4.1Q67.9 -3.9 68.1 -3.8Q68.3 -3.7 68.7 -3.6L69.6 -3.4Q70.2 -3.3 70.6 -3.0Q71.0 -2.8 71.2 -2.5Q71.3 -2.2 71.3 -1.8V-1.7Q71.3 -1.2 71.0 -0.8Q70.7 -0.4 70.1 -0.1Q69.6 0.1 68.9 0.1Z M75.2 0.0Q74.2 0.0 73.8 -0.3Q73.3 -0.7 73.3 -1.6V-5.2H72.4V-6.1H73.3V-7.6H74.5V-6.1H75.8V-5.2H74.5V-1.8Q74.5 -1.3 74.7 -1.1Q74.9 -0.9 75.3 -0.9Q75.5 -0.9 75.5 -0.9Q75.6 -0.9 75.8 -0.9V-0.0Q75.6 0.0 75.5 0.0Q75.3 0.0 75.2 0.0Z M79.9 0.1Q79.0 0.1 78.3 -0.3Q77.7 -0.7 77.4 -1.4Q77.0 -2.1 77.0 -3.0V-3.0Q77.0 -4.0 77.4 -4.7Q77.7 -5.4 78.3 -5.8Q79.0 -6.2 79.8 -6.2Q80.6 -6.2 81.2 -5.8Q81.8 -5.4 82.2 -4.7Q82.5 -4.0 82.5 -3.1V-2.7H77.6V-3.6H81.9L81.4 -2.8V-3.2Q81.4 -3.9 81.2 -4.4Q81.0 -4.8 80.6 -5.0Q80.3 -5.2 79.8 -5.2Q79.3 -5.2 78.9 -5.0Q78.6 -4.8 78.4 -4.3Q78.1 -3.9 78.1 -3.2V-2.8Q78.1 -2.2 78.4 -1.7Q78.6 -1.3 79.0 -1.1Q79.3 -0.8 79.9 -0.8Q80.3 -0.8 80.6 -0.9Q80.9 -1.0 81.1 -1.2Q81.2 -1.4 81.3 -1.6L81.3 -1.6L82.4 -1.6L82.4 -1.6Q82.3 -1.2 82.1 -1.0Q81.9 -0.7 81.6 -0.4Q81.3 -0.2 80.8 -0.0Q80.4 0.1 79.9 0.1Z M84.1 0.0V-6.1H85.2V-5.2H85.3Q85.4 -5.6 85.8 -5.9Q86.3 -6.2 86.9 -6.2Q87.0 -6.2 87.1 -6.2Q87.3 -6.1 87.4 -6.1V-5.1Q87.2 -5.1 87.1 -5.1Q86.9 -5.2 86.7 -5.2Q86.3 -5.2 85.9 -5.0Q85.6 -4.8 85.4 -4.5Q85.2 -4.1 85.2 -3.7V0.0Z M91.2 0.1Q90.3 0.1 89.7 -0.3Q89.1 -0.7 88.7 -1.4Q88.4 -2.1 88.4 -3.0V-3.0Q88.4 -4.0 88.7 -4.7Q89.1 -5.4 89.7 -5.8Q90.3 -6.2 91.1 -6.2Q92.0 -6.2 92.6 -5.8Q93.2 -5.4 93.5 -4.7Q93.8 -4.0 93.8 -3.1V-2.7H88.9V-3.6H93.3L92.7 -2.8V-3.2Q92.7 -3.9 92.5 -4.4Q92.3 -4.8 92.0 -5.0Q91.6 -5.2 91.1 -5.2Q90.7 -5.2 90.3 -5.0Q89.9 -4.8 89.7 -4.3Q89.5 -3.9 89.5 -3.2V-2.8Q89.5 -2.2 89.7 -1.7Q89.9 -1.3 90.3 -1.1Q90.7 -0.8 91.2 -0.8Q91.6 -0.8 91.9 -0.9Q92.2 -1.0 92.4 -1.2Q92.6 -1.4 92.7 -1.6L92.7 -1.6L93.8 -1.6L93.7 -1.6Q93.7 -1.2 93.5 -1.0Q93.3 -0.7 93.0 -0.4Q92.6 -0.2 92.2 -0.0Q91.8 0.1 91.2 0.1Z M97.7 0.1Q96.9 0.1 96.3 -0.3Q95.8 -0.7 95.4 -1.4Q95.1 -2.1 95.1 -3.0V-3.0Q95.1 -4.0 95.4 -4.7Q95.8 -5.4 96.3 -5.8Q96.9 -6.2 97.7 -6.2Q98.1 -6.2 98.4 -6.0Q98.8 -5.9 99.1 -5.7Q99.4 -5.4 99.5 -5.1H99.6V-8.5H100.7V0.0H99.6V-1.0H99.5Q99.4 -0.6 99.1 -0.4Q98.8 -0.2 98.4 -0.0Q98.1 0.1 97.7 0.1ZM97.9 -0.8Q98.5 -0.8 98.9 -1.1Q99.2 -1.4 99.4 -1.9Q99.7 -2.4 99.7 -3.0V-3.0Q99.7 -3.7 99.4 -4.2Q99.2 -4.7 98.9 -5.0Q98.5 -5.2 97.9 -5.2Q97.4 -5.2 97.0 -5.0Q96.7 -4.7 96.4 -4.2Q96.2 -3.7 96.2 -3.0V-3.0Q96.2 -2.3 96.4 -1.9Q96.7 -1.4 97.0 -1.1Q97.4 -0.8 97.9 -0.8Z M108.1 0.1Q107.4 0.1 106.9 -0.1Q106.4 -0.3 106.1 -0.7Q105.7 -1.1 105.7 -1.6L105.7 -1.6H106.8L106.8 -1.6Q106.9 -1.2 107.3 -1.0Q107.6 -0.8 108.2 -0.8Q108.6 -0.8 108.9 -0.9Q109.2 -1.0 109.3 -1.2Q109.5 -1.4 109.5 -1.7V-1.7Q109.5 -2.0 109.3 -2.2Q109.0 -2.4 108.5 -2.5L107.5 -2.7Q107.0 -2.9 106.6 -3.1Q106.2 -3.3 106.0 -3.6Q105.9 -3.9 105.9 -4.4V-4.4Q105.9 -4.9 106.2 -5.3Q106.5 -5.7 107.0 -5.9Q107.5 -6.2 108.2 -6.2Q108.8 -6.2 109.3 -6.0Q109.8 -5.8 110.1 -5.4Q110.4 -5.0 110.5 -4.5L110.5 -4.5H109.4L109.4 -4.5Q109.3 -4.9 109.0 -5.1Q108.7 -5.3 108.2 -5.3Q107.8 -5.3 107.5 -5.2Q107.3 -5.1 107.1 -4.9Q107.0 -4.7 107.0 -4.4V-4.4Q107.0 -4.2 107.1 -4.1Q107.2 -3.9 107.4 -3.8Q107.6 -3.7 107.9 -3.6L108.9 -3.4Q109.5 -3.3 109.9 -3.0Q110.2 -2.8 110.4 -2.5Q110.6 -2.2 110.6 -1.8V-1.7Q110.6 -1.2 110.3 -0.8Q110.0 -0.4 109.4 -0.1Q108.8 0.1 108.1 0.1Z M112.2 2.0V-6.1H113.3V-5.1H113.4Q113.6 -5.4 113.8 -5.7Q114.1 -5.9 114.5 -6.0Q114.8 -6.2 115.3 -6.2Q116.0 -6.2 116.6 -5.8Q117.2 -5.4 117.5 -4.7Q117.8 -4.0 117.8 -3.0V-3.0Q117.8 -2.1 117.5 -1.4Q117.2 -0.7 116.6 -0.3Q116.0 0.1 115.3 0.1Q114.9 0.1 114.5 -0.0Q114.1 -0.2 113.8 -0.4Q113.6 -0.6 113.4 -1.0H113.3V2.0ZM115.0 -0.8Q115.5 -0.8 115.9 -1.1Q116.3 -1.4 116.5 -1.9Q116.7 -2.3 116.7 -3.0V-3.0Q116.7 -3.7 116.5 -4.2Q116.3 -4.7 115.9 -5.0Q115.5 -5.2 115.0 -5.2Q114.5 -5.2 114.1 -5.0Q113.7 -4.7 113.5 -4.2Q113.3 -3.7 113.3 -3.0V-3.0Q113.3 -2.4 113.5 -1.9Q113.7 -1.4 114.1 -1.1Q114.5 -0.8 115.0 -0.8Z M119.4 0.0V-6.1H120.5V0.0ZM120.0 -7.2Q119.7 -7.2 119.5 -7.4Q119.3 -7.6 119.3 -7.9Q119.3 -8.2 119.5 -8.4Q119.7 -8.6 120.0 -8.6Q120.3 -8.6 120.5 -8.4Q120.7 -8.2 120.7 -7.9Q120.7 -7.6 120.5 -7.4Q120.3 -7.2 120.0 -7.2Z M122.5 0.0V-8.5H123.6V0.0ZM126.3 0.0 124.1 -2.9 124.9 -3.6 127.7 0.0ZM123.5 -2.1 123.4 -3.5H123.7L126.2 -6.1H127.5L124.7 -3.3L124.4 -3.0Z M131.4 0.1Q130.6 0.1 129.9 -0.3Q129.3 -0.7 129.0 -1.4Q128.6 -2.1 128.6 -3.0V-3.0Q128.6 -4.0 129.0 -4.7Q129.3 -5.4 129.9 -5.8Q130.6 -6.2 131.4 -6.2Q132.2 -6.2 132.8 -5.8Q133.4 -5.4 133.8 -4.7Q134.1 -4.0 134.1 -3.1V-2.7H129.2V-3.6H133.5L133.0 -2.8V-3.2Q133.0 -3.9 132.8 -4.4Q132.6 -4.8 132.2 -5.0Q131.9 -5.2 131.4 -5.2Q130.9 -5.2 130.5 -5.0Q130.2 -4.8 130.0 -4.3Q129.7 -3.9 129.7 -3.2V-2.8Q129.7 -2.2 130.0 -1.7Q130.2 -1.3 130.6 -1.1Q130.9 -0.8 131.5 -0.8Q131.9 -0.8 132.2 -0.9Q132.5 -1.0 132.7 -1.2Q132.8 -1.4 132.9 -1.6L132.9 -1.6L134.0 -1.6L134.0 -1.6Q133.9 -1.2 133.7 -1.0Q133.5 -0.7 133.2 -0.4Q132.9 -0.2 132.4 -0.0Q132.0 0.1 131.4 0.1Z M137.8 0.1Q137.1 0.1 136.6 -0.1Q136.1 -0.3 135.8 -0.7Q135.4 -1.1 135.4 -1.6L135.4 -1.6H136.5L136.5 -1.6Q136.6 -1.2 136.9 -1.0Q137.3 -0.8 137.9 -0.8Q138.3 -0.8 138.5 -0.9Q138.8 -1.0 139.0 -1.2Q139.2 -1.4 139.2 -1.7V-1.7Q139.2 -2.0 139.0 -2.2Q138.7 -2.4 138.2 -2.5L137.2 -2.7Q136.6 -2.9 136.3 -3.1Q135.9 -3.3 135.7 -3.6Q135.6 -3.9 135.6 -4.4V-4.4Q135.6 -4.9 135.9 -5.3Q136.2 -5.7 136.7 -5.9Q137.2 -6.2 137.9 -6.2Q138.5 -6.2 139.0 -6.0Q139.5 -5.8 139.8 -5.4Q140.1 -5.0 140.2 -4.5L140.2 -4.5H139.1L139.1 -4.5Q139.0 -4.9 138.7 -5.1Q138.4 -5.3 137.8 -5.3Q137.5 -5.3 137.2 -5.2Q137.0 -5.1 136.8 -4.9Q136.7 -4.7 136.7 -4.4V-4.4Q136.7 -4.2 136.8 -4.1Q136.9 -3.9 137.1 -3.8Q137.3 -3.7 137.6 -3.6L138.6 -3.4Q139.2 -3.3 139.5 -3.0Q139.9 -2.8 140.1 -2.5Q140.3 -2.2 140.3 -1.8V-1.7Q140.3 -1.2 140.0 -0.8Q139.6 -0.4 139.1 -0.1Q138.5 0.1 137.8 0.1Z M145.6 0.0V-5.2H144.6V-6.1H145.6V-6.7Q145.6 -7.3 145.8 -7.7Q146.0 -8.1 146.4 -8.3Q146.8 -8.5 147.4 -8.5Q147.6 -8.5 147.8 -8.5Q148.0 -8.5 148.1 -8.5V-7.6Q148.0 -7.6 147.9 -7.6Q147.8 -7.7 147.7 -7.7Q147.1 -7.7 146.9 -7.4Q146.7 -7.2 146.7 -6.7V-6.1H148.1V-5.2H146.7V0.0Z M149.6 0.0V-6.1H150.7V0.0ZM150.1 -7.2Q149.9 -7.2 149.6 -7.4Q149.4 -7.6 149.4 -7.9Q149.4 -8.2 149.6 -8.4Q149.9 -8.6 150.1 -8.6Q150.4 -8.6 150.7 -8.4Q150.9 -8.2 150.9 -7.9Q150.9 -7.6 150.7 -7.4Q150.4 -7.2 150.1 -7.2Z M152.6 0.0V-6.1H153.7V-5.2H153.8Q154.0 -5.6 154.5 -5.9Q154.9 -6.2 155.6 -6.2Q156.6 -6.2 157.1 -5.6Q157.7 -5.0 157.7 -3.9V0.0H156.6V-3.7Q156.6 -4.5 156.3 -4.8Q155.9 -5.2 155.2 -5.2Q154.8 -5.2 154.4 -5.0Q154.1 -4.8 153.9 -4.5Q153.7 -4.1 153.7 -3.6V0.0Z M161.8 0.1Q161.0 0.1 160.4 -0.3Q159.9 -0.7 159.5 -1.4Q159.2 -2.1 159.2 -3.0V-3.0Q159.2 -4.0 159.5 -4.7Q159.9 -5.4 160.4 -5.8Q161.0 -6.2 161.8 -6.2Q162.2 -6.2 162.5 -6.0Q162.9 -5.9 163.2 -5.7Q163.5 -5.4 163.6 -5.1H163.7V-8.5H164.8V0.0H163.7V-1.0H163.6Q163.5 -0.6 163.2 -0.4Q162.9 -0.2 162.6 -0.0Q162.2 0.1 161.8 0.1ZM162.0 -0.8Q162.6 -0.8 163.0 -1.1Q163.3 -1.4 163.5 -1.9Q163.8 -2.4 163.8 -3.0V-3.0Q163.8 -3.7 163.5 -4.2Q163.3 -4.7 163.0 -5.0Q162.6 -5.2 162.0 -5.2Q161.5 -5.2 161.1 -5.0Q160.8 -4.7 160.6 -4.2Q160.3 -3.7 160.3 -3.0V-3.0Q160.3 -2.3 160.6 -1.9Q160.8 -1.4 161.1 -1.1Q161.5 -0.8 162.0 -0.8Z M166.8 0.0V-6.1H167.9V0.0ZM167.4 -7.2Q167.1 -7.2 166.9 -7.4Q166.7 -7.6 166.7 -7.9Q166.7 -8.2 166.9 -8.4Q167.1 -8.6 167.4 -8.6Q167.7 -8.6 167.9 -8.4Q168.1 -8.2 168.1 -7.9Q168.1 -7.6 167.9 -7.4Q167.7 -7.2 167.4 -7.2Z M169.8 0.0V-6.1H170.9V-5.2H171.0Q171.2 -5.6 171.7 -5.9Q172.1 -6.2 172.8 -6.2Q173.8 -6.2 174.3 -5.6Q174.9 -5.0 174.9 -3.9V0.0H173.8V-3.7Q173.8 -4.5 173.5 -4.8Q173.1 -5.2 172.4 -5.2Q172.0 -5.2 171.6 -5.0Q171.3 -4.8 171.1 -4.5Q170.9 -4.1 170.9 -3.6V0.0Z M179.3 2.1Q178.5 2.1 178.0 1.9Q177.4 1.7 177.1 1.3Q176.8 1.0 176.7 0.5L176.7 0.5H177.8L177.8 0.5Q177.9 0.8 178.3 1.0Q178.7 1.2 179.3 1.2Q180.1 1.2 180.5 0.9Q181.0 0.5 181.0 -0.1V-1.3H180.9Q180.7 -1.0 180.4 -0.8Q180.1 -0.5 179.8 -0.4Q179.4 -0.3 179.0 -0.3Q178.2 -0.3 177.6 -0.7Q177.1 -1.0 176.8 -1.7Q176.5 -2.4 176.5 -3.2V-3.2Q176.5 -4.1 176.8 -4.7Q177.1 -5.4 177.6 -5.8Q178.2 -6.2 179.0 -6.2Q179.4 -6.2 179.8 -6.0Q180.1 -5.9 180.4 -5.7Q180.7 -5.4 180.9 -5.1H181.0V-6.1H182.0V-0.1Q182.0 0.6 181.7 1.1Q181.4 1.6 180.7 1.9Q180.1 2.1 179.3 2.1ZM179.3 -1.2Q179.8 -1.2 180.2 -1.5Q180.6 -1.7 180.8 -2.2Q181.0 -2.6 181.0 -3.2V-3.2Q181.0 -3.8 180.8 -4.3Q180.6 -4.7 180.2 -5.0Q179.8 -5.2 179.3 -5.2Q178.7 -5.2 178.3 -5.0Q178.0 -4.7 177.8 -4.3Q177.6 -3.8 177.6 -3.2V-3.2Q177.6 -2.6 177.8 -2.2Q178.0 -1.7 178.3 -1.5Q178.7 -1.2 179.3 -1.2Z M187.4 0.0V-8.1H192.5V-7.1H188.5V-4.6H192.3V-3.7H188.5V-1.0H192.5V0.0Z M194.4 0.0V-8.1H199.5V-7.1H195.5V-4.6H199.3V-3.7H195.5V-1.0H199.5V0.0Z M204.8 0.2Q204.0 0.2 203.3 -0.1Q202.6 -0.4 202.1 -1.0Q201.6 -1.5 201.4 -2.3Q201.1 -3.1 201.1 -4.1V-4.1Q201.1 -5.3 201.6 -6.3Q202.0 -7.2 202.9 -7.8Q203.7 -8.3 204.8 -8.3Q205.7 -8.3 206.4 -8.0Q207.2 -7.6 207.6 -7.1Q208.1 -6.5 208.2 -5.7L208.2 -5.7H207.1L207.1 -5.7Q206.9 -6.5 206.3 -6.9Q205.7 -7.3 204.8 -7.3Q204.0 -7.3 203.5 -6.9Q202.9 -6.5 202.6 -5.8Q202.3 -5.0 202.3 -4.1V-4.1Q202.3 -3.3 202.4 -2.7Q202.6 -2.1 203.0 -1.7Q203.3 -1.3 203.8 -1.0Q204.2 -0.8 204.8 -0.8Q205.5 -0.8 206.1 -1.1Q206.6 -1.4 206.9 -1.9Q207.2 -2.4 207.2 -3.0L207.2 -3.2H205.0V-4.2H208.3V-3.2Q208.3 -2.4 208.1 -1.8Q207.8 -1.2 207.4 -0.7Q206.9 -0.3 206.3 -0.0Q205.6 0.2 204.8 0.2Z M215.0 0.1Q214.4 0.1 214.0 -0.1Q213.5 -0.3 213.3 -0.7Q213.0 -1.1 213.0 -1.7V-1.7Q213.0 -2.3 213.3 -2.6Q213.5 -3.0 214.0 -3.2Q214.5 -3.5 215.2 -3.5L217.5 -3.6V-2.8L215.4 -2.7Q214.7 -2.7 214.4 -2.4Q214.1 -2.2 214.1 -1.7V-1.7Q214.1 -1.3 214.4 -1.0Q214.8 -0.8 215.3 -0.8Q215.8 -0.8 216.1 -1.0Q216.5 -1.2 216.7 -1.5Q216.9 -1.8 216.9 -2.3V-4.1Q216.9 -4.7 216.6 -5.0Q216.3 -5.2 215.6 -5.2Q215.1 -5.2 214.8 -5.1Q214.4 -4.9 214.3 -4.5L214.3 -4.5H213.2L213.2 -4.5Q213.3 -5.0 213.6 -5.4Q214.0 -5.8 214.5 -6.0Q215.0 -6.2 215.7 -6.2Q216.4 -6.2 216.9 -5.9Q217.5 -5.7 217.7 -5.2Q218.0 -4.8 218.0 -4.2V0.0H216.9V-0.9H216.8Q216.7 -0.6 216.4 -0.3Q216.1 -0.1 215.8 -0.0Q215.4 0.1 215.0 0.1Z M220.3 0.0V-5.2H219.3V-6.1H220.3V-6.7Q220.3 -7.3 220.5 -7.7Q220.7 -8.1 221.1 -8.3Q221.5 -8.5 222.1 -8.5Q222.3 -8.5 222.5 -8.5Q222.6 -8.5 222.8 -8.5V-7.6Q222.7 -7.6 222.6 -7.6Q222.5 -7.7 222.3 -7.7Q221.8 -7.7 221.6 -7.4Q221.4 -7.2 221.4 -6.7V-6.1H222.7V-5.2H221.4V0.0Z M224.7 0.0V-5.2H223.7V-6.1H224.7V-6.7Q224.7 -7.3 224.9 -7.7Q225.1 -8.1 225.5 -8.3Q225.9 -8.5 226.5 -8.5Q226.7 -8.5 226.8 -8.5Q227.0 -8.5 227.2 -8.5V-7.6Q227.1 -7.6 227.0 -7.6Q226.8 -7.7 226.7 -7.7Q226.2 -7.7 226.0 -7.4Q225.8 -7.2 225.8 -6.7V-6.1H227.1V-5.2H225.8V0.0Z M231.1 0.1Q230.3 0.1 229.6 -0.3Q229.0 -0.7 228.7 -1.4Q228.3 -2.1 228.3 -3.0V-3.0Q228.3 -4.0 228.7 -4.7Q229.0 -5.4 229.6 -5.8Q230.2 -6.2 231.1 -6.2Q231.9 -6.2 232.5 -5.8Q233.1 -5.4 233.4 -4.7Q233.8 -4.0 233.8 -3.1V-2.7H228.9V-3.6H233.2L232.7 -2.8V-3.2Q232.7 -3.9 232.5 -4.4Q232.3 -4.8 231.9 -5.0Q231.5 -5.2 231.1 -5.2Q230.6 -5.2 230.2 -5.0Q229.9 -4.8 229.6 -4.3Q229.4 -3.9 229.4 -3.2V-2.8Q229.4 -2.2 229.6 -1.7Q229.8 -1.3 230.2 -1.1Q230.6 -0.8 231.2 -0.8Q231.6 -0.8 231.9 -0.9Q232.1 -1.0 232.3 -1.2Q232.5 -1.4 232.6 -1.6L232.6 -1.6L233.7 -1.6L233.7 -1.6Q233.6 -1.2 233.4 -1.0Q233.2 -0.7 232.9 -0.4Q232.6 -0.2 232.1 -0.0Q231.7 0.1 231.1 0.1Z M237.9 0.1Q237.0 0.1 236.4 -0.3Q235.8 -0.7 235.4 -1.4Q235.1 -2.1 235.1 -3.0V-3.1Q235.1 -4.0 235.4 -4.7Q235.8 -5.4 236.4 -5.8Q237.0 -6.2 237.9 -6.2Q238.6 -6.2 239.2 -5.9Q239.7 -5.7 240.0 -5.2Q240.4 -4.8 240.5 -4.2L240.5 -4.2H239.4L239.4 -4.2Q239.3 -4.6 238.9 -4.9Q238.5 -5.2 237.9 -5.2Q237.4 -5.2 237.0 -5.0Q236.6 -4.7 236.4 -4.2Q236.2 -3.7 236.2 -3.1V-3.0Q236.2 -2.4 236.4 -1.9Q236.6 -1.4 237.0 -1.1Q237.4 -0.8 237.9 -0.8Q238.5 -0.8 238.9 -1.1Q239.2 -1.3 239.4 -1.8L239.4 -1.9L240.5 -1.9L240.4 -1.8Q240.3 -1.3 240.0 -0.8Q239.7 -0.4 239.2 -0.1Q238.6 0.1 237.9 0.1Z M244.2 0.0Q243.2 0.0 242.8 -0.3Q242.4 -0.7 242.4 -1.6V-5.2H241.4V-6.1H242.4V-7.6H243.5V-6.1H244.8V-5.2H243.5V-1.8Q243.5 -1.3 243.7 -1.1Q243.9 -0.9 244.3 -0.9Q244.5 -0.9 244.6 -0.9Q244.7 -0.9 244.8 -0.9V-0.0Q244.7 0.0 244.5 0.0Q244.4 0.0 244.2 0.0Z M251.8 0.1Q251.1 0.1 250.6 -0.1Q250.1 -0.3 249.7 -0.7Q249.4 -1.1 249.4 -1.6L249.4 -1.6H250.5L250.5 -1.6Q250.6 -1.2 250.9 -1.0Q251.3 -0.8 251.8 -0.8Q252.2 -0.8 252.5 -0.9Q252.8 -1.0 253.0 -1.2Q253.2 -1.4 253.2 -1.7V-1.7Q253.2 -2.0 252.9 -2.2Q252.7 -2.4 252.2 -2.5L251.2 -2.7Q250.6 -2.9 250.3 -3.1Q249.9 -3.3 249.7 -3.6Q249.5 -3.9 249.5 -4.4V-4.4Q249.5 -4.9 249.8 -5.3Q250.1 -5.7 250.7 -5.9Q251.2 -6.2 251.8 -6.2Q252.5 -6.2 253.0 -6.0Q253.5 -5.8 253.8 -5.4Q254.1 -5.0 254.2 -4.5L254.2 -4.5H253.1L253.1 -4.5Q253.0 -4.9 252.7 -5.1Q252.4 -5.3 251.8 -5.3Q251.5 -5.3 251.2 -5.2Q250.9 -5.1 250.8 -4.9Q250.6 -4.7 250.6 -4.4V-4.4Q250.6 -4.2 250.7 -4.1Q250.8 -3.9 251.1 -3.8Q251.3 -3.7 251.6 -3.6L252.6 -3.4Q253.2 -3.3 253.5 -3.0Q253.9 -2.8 254.1 -2.5Q254.3 -2.2 254.3 -1.8V-1.7Q254.3 -1.2 254.0 -0.8Q253.6 -0.4 253.1 -0.1Q252.5 0.1 251.8 0.1Z M255.9 0.0V-6.1H257.0V0.0ZM256.5 -7.2Q256.2 -7.2 256.0 -7.4Q255.7 -7.6 255.7 -7.9Q255.7 -8.2 256.0 -8.4Q256.2 -8.6 256.5 -8.6Q256.8 -8.6 257.0 -8.4Q257.2 -8.2 257.2 -7.9Q257.2 -7.6 257.0 -7.4Q256.8 -7.2 256.5 -7.2Z M261.1 0.0Q260.2 0.0 259.8 -0.3Q259.3 -0.7 259.3 -1.6V-5.2H258.4V-6.1H259.3V-7.6H260.4V-6.1H261.8V-5.2H260.4V-1.8Q260.4 -1.3 260.6 -1.1Q260.8 -0.9 261.3 -0.9Q261.4 -0.9 261.5 -0.9Q261.6 -0.9 261.8 -0.9V-0.0Q261.6 0.0 261.5 0.0Q261.3 0.0 261.1 0.0Z M265.5 0.1Q264.8 0.1 264.2 -0.1Q263.7 -0.3 263.4 -0.7Q263.1 -1.1 263.0 -1.6L263.0 -1.6H264.1L264.1 -1.6Q264.2 -1.2 264.6 -1.0Q264.9 -0.8 265.5 -0.8Q265.9 -0.8 266.2 -0.9Q266.5 -1.0 266.7 -1.2Q266.8 -1.4 266.8 -1.7V-1.7Q266.8 -2.0 266.6 -2.2Q266.4 -2.4 265.8 -2.5L264.9 -2.7Q264.3 -2.9 263.9 -3.1Q263.5 -3.3 263.4 -3.6Q263.2 -3.9 263.2 -4.4V-4.4Q263.2 -4.9 263.5 -5.3Q263.8 -5.7 264.3 -5.9Q264.8 -6.2 265.5 -6.2Q266.2 -6.2 266.7 -6.0Q267.2 -5.8 267.5 -5.4Q267.8 -5.0 267.8 -4.5L267.8 -4.5H266.8L266.8 -4.5Q266.7 -4.9 266.4 -5.1Q266.0 -5.3 265.5 -5.3Q265.1 -5.3 264.9 -5.2Q264.6 -5.1 264.4 -4.9Q264.3 -4.7 264.3 -4.4V-4.4Q264.3 -4.2 264.4 -4.1Q264.5 -3.9 264.7 -3.8Q264.9 -3.7 265.3 -3.6L266.2 -3.4Q266.8 -3.3 267.2 -3.0Q267.6 -2.8 267.8 -2.5Q267.9 -2.2 267.9 -1.8V-1.7Q267.9 -1.2 267.6 -0.8Q267.3 -0.4 266.7 -0.1Q266.2 0.1 265.5 0.1Z"/></g><g transform="translate(46,93)" fill="#9CA3AF"><path d="M2.6 0.1Q2.0 0.1 1.5 -0.1Q1.1 -0.3 0.8 -0.7Q0.5 -1.1 0.5 -1.7V-1.7Q0.5 -2.3 0.8 -2.6Q1.1 -3.0 1.6 -3.2Q2.1 -3.5 2.8 -3.5L5.0 -3.6V-2.8L2.9 -2.7Q2.2 -2.7 1.9 -2.4Q1.6 -2.2 1.6 -1.7V-1.7Q1.6 -1.3 2.0 -1.0Q2.3 -0.8 2.8 -0.8Q3.3 -0.8 3.7 -1.0Q4.0 -1.2 4.2 -1.5Q4.5 -1.8 4.5 -2.3V-4.1Q4.5 -4.7 4.1 -5.0Q3.8 -5.2 3.2 -5.2Q2.6 -5.2 2.3 -5.1Q2.0 -4.9 1.8 -4.5L1.8 -4.5H0.8L0.8 -4.5Q0.9 -5.0 1.2 -5.4Q1.5 -5.8 2.0 -6.0Q2.5 -6.2 3.2 -6.2Q4.0 -6.2 4.5 -5.9Q5.0 -5.7 5.3 -5.2Q5.5 -4.8 5.5 -4.2V0.0H4.5V-0.9H4.4Q4.2 -0.6 3.9 -0.3Q3.6 -0.1 3.3 -0.0Q3.0 0.1 2.6 0.1Z M9.6 0.0Q8.7 0.0 8.2 -0.3Q7.8 -0.7 7.8 -1.6V-5.2H6.9V-6.1H7.8V-7.6H8.9V-6.1H10.2V-5.2H8.9V-1.8Q8.9 -1.3 9.1 -1.1Q9.3 -0.9 9.8 -0.9Q9.9 -0.9 10.0 -0.9Q10.1 -0.9 10.2 -0.9V-0.0Q10.1 0.0 9.9 0.0Q9.8 0.0 9.6 0.0Z M17.3 0.0Q16.4 0.0 15.9 -0.3Q15.5 -0.7 15.5 -1.6V-5.2H14.6V-6.1H15.5V-7.6H16.6V-6.1H17.9V-5.2H16.6V-1.8Q16.6 -1.3 16.8 -1.1Q17.0 -0.9 17.5 -0.9Q17.6 -0.9 17.7 -0.9Q17.8 -0.9 17.9 -0.9V-0.0Q17.8 0.0 17.6 0.0Q17.5 0.0 17.3 0.0Z M19.6 0.0V-8.5H20.6V-5.1H20.7Q21.0 -5.6 21.4 -5.9Q21.8 -6.2 22.5 -6.2Q23.2 -6.2 23.7 -5.9Q24.1 -5.6 24.4 -5.1Q24.6 -4.6 24.6 -3.9V0.0H23.5V-3.7Q23.5 -4.5 23.2 -4.8Q22.9 -5.2 22.2 -5.2Q21.7 -5.2 21.4 -5.0Q21.0 -4.8 20.8 -4.5Q20.6 -4.1 20.6 -3.6V0.0Z M29.0 0.1Q28.1 0.1 27.5 -0.3Q26.8 -0.7 26.5 -1.4Q26.2 -2.1 26.2 -3.0V-3.0Q26.2 -4.0 26.5 -4.7Q26.8 -5.4 27.5 -5.8Q28.1 -6.2 28.9 -6.2Q29.8 -6.2 30.4 -5.8Q31.0 -5.4 31.3 -4.7Q31.6 -4.0 31.6 -3.1V-2.7H26.7V-3.6H31.1L30.5 -2.8V-3.2Q30.5 -3.9 30.3 -4.4Q30.1 -4.8 29.8 -5.0Q29.4 -5.2 28.9 -5.2Q28.4 -5.2 28.1 -5.0Q27.7 -4.8 27.5 -4.3Q27.3 -3.9 27.3 -3.2V-2.8Q27.3 -2.2 27.5 -1.7Q27.7 -1.3 28.1 -1.1Q28.5 -0.8 29.0 -0.8Q29.4 -0.8 29.7 -0.9Q30.0 -1.0 30.2 -1.2Q30.4 -1.4 30.5 -1.6L30.5 -1.6L31.5 -1.6L31.5 -1.6Q31.5 -1.2 31.3 -1.0Q31.1 -0.7 30.7 -0.4Q30.4 -0.2 30.0 -0.0Q29.5 0.1 29.0 0.1Z M39.0 0.1Q38.2 0.1 37.5 -0.3Q36.9 -0.7 36.6 -1.4Q36.2 -2.1 36.2 -3.0V-3.1Q36.2 -4.0 36.6 -4.7Q36.9 -5.4 37.5 -5.8Q38.2 -6.2 39.0 -6.2Q39.8 -6.2 40.3 -5.9Q40.9 -5.7 41.2 -5.2Q41.5 -4.8 41.6 -4.2L41.6 -4.2H40.5L40.5 -4.2Q40.4 -4.6 40.0 -4.9Q39.7 -5.2 39.0 -5.2Q38.5 -5.2 38.1 -5.0Q37.7 -4.7 37.5 -4.2Q37.3 -3.7 37.3 -3.1V-3.0Q37.3 -2.4 37.5 -1.9Q37.7 -1.4 38.1 -1.1Q38.5 -0.8 39.0 -0.8Q39.6 -0.8 40.0 -1.1Q40.4 -1.3 40.5 -1.8L40.5 -1.9L41.6 -1.9L41.6 -1.8Q41.5 -1.3 41.2 -0.8Q40.8 -0.4 40.3 -0.1Q39.8 0.1 39.0 0.1Z M43.2 0.0V-8.5H44.3V-5.1H44.4Q44.6 -5.6 45.0 -5.9Q45.5 -6.2 46.1 -6.2Q46.8 -6.2 47.3 -5.9Q47.8 -5.6 48.0 -5.1Q48.2 -4.6 48.2 -3.9V0.0H47.2V-3.7Q47.2 -4.5 46.8 -4.8Q46.5 -5.2 45.8 -5.2Q45.3 -5.2 45.0 -5.0Q44.6 -4.8 44.5 -4.5Q44.3 -4.1 44.3 -3.6V0.0Z M51.8 0.1Q51.2 0.1 50.7 -0.1Q50.3 -0.3 50.0 -0.7Q49.8 -1.1 49.8 -1.7V-1.7Q49.8 -2.3 50.0 -2.6Q50.3 -3.0 50.8 -3.2Q51.3 -3.5 52.0 -3.5L54.2 -3.6V-2.8L52.1 -2.7Q51.5 -2.7 51.2 -2.4Q50.9 -2.2 50.9 -1.7V-1.7Q50.9 -1.3 51.2 -1.0Q51.5 -0.8 52.0 -0.8Q52.5 -0.8 52.9 -1.0Q53.3 -1.2 53.5 -1.5Q53.7 -1.8 53.7 -2.3V-4.1Q53.7 -4.7 53.4 -5.0Q53.0 -5.2 52.4 -5.2Q51.8 -5.2 51.5 -5.1Q51.2 -4.9 51.1 -4.5L51.1 -4.5H50.0L50.0 -4.5Q50.1 -5.0 50.4 -5.4Q50.7 -5.8 51.2 -6.0Q51.8 -6.2 52.4 -6.2Q53.2 -6.2 53.7 -5.9Q54.2 -5.7 54.5 -5.2Q54.8 -4.8 54.8 -4.2V0.0H53.7V-0.9H53.6Q53.4 -0.6 53.1 -0.3Q52.9 -0.1 52.5 -0.0Q52.2 0.1 51.8 0.1Z M56.6 0.0V-6.1H57.7V-5.2H57.8Q58.0 -5.6 58.5 -5.9Q58.9 -6.2 59.6 -6.2Q60.6 -6.2 61.2 -5.6Q61.7 -5.0 61.7 -3.9V0.0H60.6V-3.7Q60.6 -4.5 60.3 -4.8Q59.9 -5.2 59.2 -5.2Q58.8 -5.2 58.4 -5.0Q58.1 -4.8 57.9 -4.5Q57.7 -4.1 57.7 -3.6V0.0Z M66.1 0.1Q65.2 0.1 64.6 -0.3Q63.9 -0.7 63.6 -1.4Q63.3 -2.1 63.3 -3.0V-3.1Q63.3 -4.0 63.6 -4.7Q63.9 -5.4 64.6 -5.8Q65.2 -6.2 66.1 -6.2Q66.8 -6.2 67.4 -5.9Q67.9 -5.7 68.2 -5.2Q68.5 -4.8 68.6 -4.2L68.6 -4.2H67.6L67.6 -4.2Q67.5 -4.6 67.1 -4.9Q66.7 -5.2 66.1 -5.2Q65.5 -5.2 65.2 -5.0Q64.8 -4.7 64.6 -4.2Q64.4 -3.7 64.4 -3.1V-3.0Q64.4 -2.4 64.6 -1.9Q64.8 -1.4 65.2 -1.1Q65.5 -0.8 66.1 -0.8Q66.7 -0.8 67.0 -1.1Q67.4 -1.3 67.6 -1.8L67.6 -1.9L68.6 -1.9L68.6 -1.8Q68.5 -1.3 68.2 -0.8Q67.9 -0.4 67.3 -0.1Q66.8 0.1 66.1 0.1Z M72.7 0.1Q71.8 0.1 71.2 -0.3Q70.5 -0.7 70.2 -1.4Q69.9 -2.1 69.9 -3.0V-3.0Q69.9 -4.0 70.2 -4.7Q70.5 -5.4 71.2 -5.8Q71.8 -6.2 72.6 -6.2Q73.4 -6.2 74.1 -5.8Q74.7 -5.4 75.0 -4.7Q75.3 -4.0 75.3 -3.1V-2.7H70.4V-3.6H74.8L74.2 -2.8V-3.2Q74.2 -3.9 74.0 -4.4Q73.8 -4.8 73.4 -5.0Q73.1 -5.2 72.6 -5.2Q72.1 -5.2 71.8 -5.0Q71.4 -4.8 71.2 -4.3Q71.0 -3.9 71.0 -3.2V-2.8Q71.0 -2.2 71.2 -1.7Q71.4 -1.3 71.8 -1.1Q72.2 -0.8 72.7 -0.8Q73.1 -0.8 73.4 -0.9Q73.7 -1.0 73.9 -1.2Q74.1 -1.4 74.1 -1.6L74.2 -1.6L75.2 -1.6L75.2 -1.6Q75.1 -1.2 74.9 -1.0Q74.7 -0.7 74.4 -0.4Q74.1 -0.2 73.7 -0.0Q73.2 0.1 72.7 0.1Z M82.7 0.1Q81.9 0.1 81.2 -0.3Q80.6 -0.7 80.3 -1.4Q79.9 -2.1 79.9 -3.0V-3.1Q79.9 -4.0 80.3 -4.7Q80.6 -5.4 81.2 -5.8Q81.9 -6.2 82.7 -6.2Q83.5 -6.2 84.0 -5.9Q84.6 -5.7 84.9 -5.2Q85.2 -4.8 85.3 -4.2L85.3 -4.2H84.2L84.2 -4.2Q84.1 -4.6 83.7 -4.9Q83.4 -5.2 82.7 -5.2Q82.2 -5.2 81.8 -5.0Q81.4 -4.7 81.2 -4.2Q81.0 -3.7 81.0 -3.1V-3.0Q81.0 -2.4 81.2 -1.9Q81.4 -1.4 81.8 -1.1Q82.2 -0.8 82.7 -0.8Q83.3 -0.8 83.7 -1.1Q84.1 -1.3 84.2 -1.8L84.2 -1.9L85.3 -1.9L85.3 -1.8Q85.2 -1.3 84.8 -0.8Q84.5 -0.4 84.0 -0.1Q83.5 0.1 82.7 0.1Z M89.3 0.1Q88.5 0.1 87.8 -0.3Q87.2 -0.7 86.9 -1.4Q86.5 -2.1 86.5 -3.0V-3.0Q86.5 -4.0 86.9 -4.7Q87.2 -5.4 87.8 -5.8Q88.4 -6.2 89.3 -6.2Q90.1 -6.2 90.7 -5.8Q91.3 -5.4 91.6 -4.7Q92.0 -4.0 92.0 -3.1V-2.7H87.1V-3.6H91.4L90.9 -2.8V-3.2Q90.9 -3.9 90.7 -4.4Q90.5 -4.8 90.1 -5.0Q89.7 -5.2 89.3 -5.2Q88.8 -5.2 88.4 -5.0Q88.1 -4.8 87.8 -4.3Q87.6 -3.9 87.6 -3.2V-2.8Q87.6 -2.2 87.8 -1.7Q88.0 -1.3 88.4 -1.1Q88.8 -0.8 89.4 -0.8Q89.8 -0.8 90.0 -0.9Q90.3 -1.0 90.5 -1.2Q90.7 -1.4 90.8 -1.6L90.8 -1.6L91.9 -1.6L91.9 -1.6Q91.8 -1.2 91.6 -1.0Q91.4 -0.7 91.1 -0.4Q90.8 -0.2 90.3 -0.0Q89.9 0.1 89.3 0.1Z M93.6 0.0V-6.1H94.7V0.0ZM94.1 -7.2Q93.8 -7.2 93.6 -7.4Q93.4 -7.6 93.4 -7.9Q93.4 -8.2 93.6 -8.4Q93.8 -8.6 94.1 -8.6Q94.4 -8.6 94.6 -8.4Q94.9 -8.2 94.9 -7.9Q94.9 -7.6 94.6 -7.4Q94.4 -7.2 94.1 -7.2Z M96.7 0.0V-8.5H97.8V0.0Z M99.8 0.0V-6.1H100.8V0.0ZM100.3 -7.2Q100.0 -7.2 99.8 -7.4Q99.6 -7.6 99.6 -7.9Q99.6 -8.2 99.8 -8.4Q100.0 -8.6 100.3 -8.6Q100.6 -8.6 100.8 -8.4Q101.0 -8.2 101.0 -7.9Q101.0 -7.6 100.8 -7.4Q100.6 -7.2 100.3 -7.2Z M102.8 0.0V-6.1H103.9V-5.2H104.0Q104.2 -5.6 104.6 -5.9Q105.1 -6.2 105.7 -6.2Q106.7 -6.2 107.3 -5.6Q107.8 -5.0 107.8 -3.9V0.0H106.7V-3.7Q106.7 -4.5 106.4 -4.8Q106.1 -5.2 105.4 -5.2Q104.9 -5.2 104.6 -5.0Q104.2 -4.8 104.1 -4.5Q103.9 -4.1 103.9 -3.6V0.0Z M112.2 2.1Q111.5 2.1 110.9 1.9Q110.4 1.7 110.0 1.3Q109.7 1.0 109.6 0.5L109.6 0.5H110.8L110.8 0.5Q110.8 0.8 111.2 1.0Q111.6 1.2 112.2 1.2Q113.0 1.2 113.5 0.9Q113.9 0.5 113.9 -0.1V-1.3H113.8Q113.6 -1.0 113.3 -0.8Q113.1 -0.5 112.7 -0.4Q112.3 -0.3 111.9 -0.3Q111.1 -0.3 110.6 -0.7Q110.0 -1.0 109.7 -1.7Q109.4 -2.4 109.4 -3.2V-3.2Q109.4 -4.1 109.7 -4.7Q110.0 -5.4 110.6 -5.8Q111.2 -6.2 111.9 -6.2Q112.4 -6.2 112.7 -6.0Q113.1 -5.9 113.4 -5.7Q113.6 -5.4 113.8 -5.1H113.9V-6.1H115.0V-0.1Q115.0 0.6 114.6 1.1Q114.3 1.6 113.7 1.9Q113.1 2.1 112.2 2.1ZM112.2 -1.2Q112.7 -1.2 113.1 -1.5Q113.5 -1.7 113.7 -2.2Q113.9 -2.6 113.9 -3.2V-3.2Q113.9 -3.8 113.7 -4.3Q113.5 -4.7 113.1 -5.0Q112.7 -5.2 112.2 -5.2Q111.7 -5.2 111.3 -5.0Q110.9 -4.7 110.7 -4.3Q110.5 -3.8 110.5 -3.2V-3.2Q110.5 -2.6 110.7 -2.2Q110.9 -1.7 111.3 -1.5Q111.7 -1.2 112.2 -1.2Z M119.8 -2.8V-3.8H129.0V-2.8Z M133.8 0.0V-6.1H134.8V0.0ZM134.3 -7.2Q134.0 -7.2 133.8 -7.4Q133.6 -7.6 133.6 -7.9Q133.6 -8.2 133.8 -8.4Q134.0 -8.6 134.3 -8.6Q134.6 -8.6 134.8 -8.4Q135.0 -8.2 135.0 -7.9Q135.0 -7.6 134.8 -7.4Q134.6 -7.2 134.3 -7.2Z M136.8 0.0V-6.1H137.9V-5.2H138.0Q138.2 -5.6 138.6 -5.9Q139.1 -6.2 139.7 -6.2Q140.7 -6.2 141.3 -5.6Q141.8 -5.0 141.8 -3.9V0.0H140.7V-3.7Q140.7 -4.5 140.4 -4.8Q140.1 -5.2 139.4 -5.2Q138.9 -5.2 138.6 -5.0Q138.2 -4.8 138.1 -4.5Q137.9 -4.1 137.9 -3.6V0.0Z M146.2 0.1Q145.3 0.1 144.7 -0.3Q144.1 -0.7 143.7 -1.4Q143.4 -2.1 143.4 -3.0V-3.1Q143.4 -4.0 143.7 -4.7Q144.1 -5.4 144.7 -5.8Q145.3 -6.2 146.2 -6.2Q147.0 -6.2 147.5 -5.9Q148.0 -5.7 148.4 -5.2Q148.7 -4.8 148.8 -4.2L148.8 -4.2H147.7L147.7 -4.2Q147.6 -4.6 147.2 -4.9Q146.8 -5.2 146.2 -5.2Q145.7 -5.2 145.3 -5.0Q144.9 -4.7 144.7 -4.2Q144.5 -3.7 144.5 -3.1V-3.0Q144.5 -2.4 144.7 -1.9Q144.9 -1.4 145.3 -1.1Q145.7 -0.8 146.2 -0.8Q146.8 -0.8 147.2 -1.1Q147.5 -1.3 147.7 -1.8L147.7 -1.9L148.8 -1.9L148.8 -1.8Q148.6 -1.3 148.3 -0.8Q148.0 -0.4 147.5 -0.1Q147.0 0.1 146.2 0.1Z M150.4 0.0V-8.5H151.4V0.0Z M155.4 0.1Q154.8 0.1 154.3 -0.2Q153.8 -0.4 153.6 -0.9Q153.4 -1.4 153.4 -2.1V-6.1H154.5V-2.4Q154.5 -1.6 154.8 -1.2Q155.1 -0.8 155.8 -0.8Q156.1 -0.8 156.4 -1.0Q156.7 -1.1 156.9 -1.3Q157.1 -1.5 157.2 -1.8Q157.3 -2.1 157.3 -2.5V-6.1H158.4V0.0H157.3V-0.9H157.2Q157.1 -0.6 156.8 -0.4Q156.6 -0.1 156.2 -0.0Q155.9 0.1 155.4 0.1Z M162.6 0.1Q161.8 0.1 161.2 -0.3Q160.7 -0.7 160.3 -1.4Q160.0 -2.1 160.0 -3.0V-3.0Q160.0 -4.0 160.3 -4.7Q160.7 -5.4 161.2 -5.8Q161.8 -6.2 162.6 -6.2Q163.0 -6.2 163.3 -6.0Q163.7 -5.9 164.0 -5.7Q164.3 -5.4 164.4 -5.1H164.5V-8.5H165.6V0.0H164.5V-1.0H164.4Q164.3 -0.6 164.0 -0.4Q163.7 -0.2 163.3 -0.0Q163.0 0.1 162.6 0.1ZM162.8 -0.8Q163.4 -0.8 163.8 -1.1Q164.1 -1.4 164.3 -1.9Q164.6 -2.4 164.6 -3.0V-3.0Q164.6 -3.7 164.3 -4.2Q164.1 -4.7 163.8 -5.0Q163.4 -5.2 162.8 -5.2Q162.3 -5.2 161.9 -5.0Q161.6 -4.7 161.3 -4.2Q161.1 -3.7 161.1 -3.0V-3.0Q161.1 -2.3 161.3 -1.9Q161.6 -1.4 161.9 -1.1Q162.3 -0.8 162.8 -0.8Z M167.6 0.0V-6.1H168.7V0.0ZM168.2 -7.2Q167.9 -7.2 167.7 -7.4Q167.4 -7.6 167.4 -7.9Q167.4 -8.2 167.7 -8.4Q167.9 -8.6 168.2 -8.6Q168.5 -8.6 168.7 -8.4Q168.9 -8.2 168.9 -7.9Q168.9 -7.6 168.7 -7.4Q168.5 -7.2 168.2 -7.2Z M170.6 0.0V-6.1H171.7V-5.2H171.8Q172.0 -5.6 172.5 -5.9Q172.9 -6.2 173.6 -6.2Q174.6 -6.2 175.1 -5.6Q175.7 -5.0 175.7 -3.9V0.0H174.6V-3.7Q174.6 -4.5 174.3 -4.8Q173.9 -5.2 173.2 -5.2Q172.8 -5.2 172.4 -5.0Q172.1 -4.8 171.9 -4.5Q171.7 -4.1 171.7 -3.6V0.0Z M180.1 2.1Q179.3 2.1 178.8 1.9Q178.2 1.7 177.9 1.3Q177.6 1.0 177.5 0.5L177.5 0.5H178.6L178.6 0.5Q178.7 0.8 179.1 1.0Q179.5 1.2 180.1 1.2Q180.9 1.2 181.3 0.9Q181.8 0.5 181.8 -0.1V-1.3H181.7Q181.5 -1.0 181.2 -0.8Q180.9 -0.5 180.6 -0.4Q180.2 -0.3 179.8 -0.3Q179.0 -0.3 178.4 -0.7Q177.9 -1.0 177.6 -1.7Q177.2 -2.4 177.2 -3.2V-3.2Q177.2 -4.1 177.6 -4.7Q177.9 -5.4 178.4 -5.8Q179.0 -6.2 179.8 -6.2Q180.2 -6.2 180.6 -6.0Q180.9 -5.9 181.2 -5.7Q181.5 -5.4 181.7 -5.1H181.7V-6.1H182.8V-0.1Q182.8 0.6 182.5 1.1Q182.2 1.6 181.5 1.9Q180.9 2.1 180.1 2.1ZM180.1 -1.2Q180.6 -1.2 181.0 -1.5Q181.4 -1.7 181.6 -2.2Q181.8 -2.6 181.8 -3.2V-3.2Q181.8 -3.8 181.6 -4.3Q181.4 -4.7 181.0 -5.0Q180.6 -5.2 180.1 -5.2Q179.5 -5.2 179.1 -5.0Q178.8 -4.7 178.6 -4.3Q178.4 -3.8 178.4 -3.2V-3.2Q178.4 -2.6 178.6 -2.2Q178.8 -1.7 179.1 -1.5Q179.5 -1.2 180.1 -1.2Z M189.7 0.1Q189.1 0.1 188.7 -0.1Q188.2 -0.3 188.0 -0.7Q187.7 -1.1 187.7 -1.7V-1.7Q187.7 -2.3 188.0 -2.6Q188.2 -3.0 188.7 -3.2Q189.2 -3.5 189.9 -3.5L192.2 -3.6V-2.8L190.1 -2.7Q189.4 -2.7 189.1 -2.4Q188.8 -2.2 188.8 -1.7V-1.7Q188.8 -1.3 189.1 -1.0Q189.5 -0.8 190.0 -0.8Q190.5 -0.8 190.8 -1.0Q191.2 -1.2 191.4 -1.5Q191.6 -1.8 191.6 -2.3V-4.1Q191.6 -4.7 191.3 -5.0Q191.0 -5.2 190.3 -5.2Q189.8 -5.2 189.5 -5.1Q189.1 -4.9 189.0 -4.5L189.0 -4.5H187.9L187.9 -4.5Q188.0 -5.0 188.3 -5.4Q188.7 -5.8 189.2 -6.0Q189.7 -6.2 190.4 -6.2Q191.1 -6.2 191.6 -5.9Q192.2 -5.7 192.4 -5.2Q192.7 -4.8 192.7 -4.2V0.0H191.6V-0.9H191.5Q191.4 -0.6 191.1 -0.3Q190.8 -0.1 190.5 -0.0Q190.1 0.1 189.7 0.1Z M196.8 0.0Q195.8 0.0 195.4 -0.3Q195.0 -0.7 195.0 -1.6V-5.2H194.0V-6.1H195.0V-7.6H196.1V-6.1H197.4V-5.2H196.1V-1.8Q196.1 -1.3 196.3 -1.1Q196.5 -0.9 197.0 -0.9Q197.1 -0.9 197.2 -0.9Q197.3 -0.9 197.4 -0.9V-0.0Q197.3 0.0 197.1 0.0Q197.0 0.0 196.8 0.0Z M202.4 0.0V-8.1H203.5L208.1 -1.6L207.3 -2.0H207.8V-8.1H208.9V0.0H207.9L203.3 -6.5L204.1 -6.1H203.5V0.0Z M210.8 -1.3V-2.3H216.7V-1.3ZM210.8 -4.3V-5.3H216.7V-4.3Z M220.4 0.0V-6.9H220.3L218.3 -5.4V-6.6L220.4 -8.1H221.6V0.0Z M224.0 0.0V-0.8L226.7 -3.7Q227.3 -4.2 227.6 -4.6Q227.9 -5.0 228.0 -5.3Q228.1 -5.5 228.1 -5.9V-5.9Q228.1 -6.3 227.9 -6.6Q227.7 -7.0 227.4 -7.2Q227.1 -7.3 226.6 -7.3Q226.1 -7.3 225.8 -7.1Q225.4 -7.0 225.2 -6.6Q225.0 -6.3 225.0 -5.8L225.0 -5.8L224.0 -5.8L224.0 -5.8Q224.0 -6.5 224.3 -7.1Q224.7 -7.7 225.3 -8.0Q225.9 -8.3 226.7 -8.3Q227.4 -8.3 228.0 -8.0Q228.6 -7.7 228.9 -7.2Q229.2 -6.7 229.2 -6.0V-6.0Q229.2 -5.5 229.1 -5.1Q228.9 -4.7 228.5 -4.2Q228.1 -3.6 227.4 -2.9L225.3 -0.8L225.6 -1.3V-0.8L225.3 -1.0H229.4V0.0Z M234.0 0.1Q233.1 0.1 232.5 -0.1Q231.8 -0.4 231.5 -0.9Q231.1 -1.5 231.1 -2.1L231.0 -2.2H232.1L232.1 -2.1Q232.2 -1.7 232.4 -1.4Q232.6 -1.1 233.0 -1.0Q233.4 -0.8 234.0 -0.8Q234.5 -0.8 234.9 -1.0Q235.3 -1.2 235.5 -1.5Q235.7 -1.8 235.7 -2.2V-2.2Q235.7 -3.0 235.2 -3.3Q234.7 -3.7 233.9 -3.7H232.9V-4.6H233.8Q234.3 -4.6 234.7 -4.8Q235.0 -5.0 235.2 -5.3Q235.4 -5.6 235.4 -6.0V-6.0Q235.4 -6.4 235.3 -6.7Q235.1 -7.0 234.8 -7.1Q234.4 -7.3 234.0 -7.3Q233.5 -7.3 233.1 -7.1Q232.8 -7.0 232.5 -6.7Q232.3 -6.4 232.3 -6.0L232.3 -6.0H231.2L231.2 -6.0Q231.3 -6.7 231.6 -7.2Q232.0 -7.7 232.6 -8.0Q233.2 -8.2 234.0 -8.2Q234.7 -8.2 235.3 -8.0Q235.9 -7.7 236.2 -7.2Q236.6 -6.8 236.6 -6.1V-6.1Q236.6 -5.6 236.3 -5.2Q236.1 -4.9 235.7 -4.6Q235.3 -4.3 234.8 -4.2V-4.2Q235.7 -4.1 236.3 -3.6Q236.8 -3.1 236.8 -2.2V-2.2Q236.8 -1.5 236.5 -1.0Q236.1 -0.5 235.4 -0.2Q234.8 0.1 234.0 0.1Z M239.4 0.1Q239.1 0.1 238.9 -0.2Q238.7 -0.4 238.7 -0.7Q238.7 -1.0 238.9 -1.2Q239.1 -1.5 239.4 -1.5Q239.8 -1.5 240.0 -1.2Q240.2 -1.0 240.2 -0.7Q240.2 -0.4 240.0 -0.2Q239.8 0.1 239.4 0.1Z"/></g><circle cx="51.0" cy="126.0" r="4.2" fill="#3572A5"/><g transform="translate(60.0,129.5)" fill="#9CA3AF"><path d="M1.5 -2.4V-3.3H3.4Q4.1 -3.3 4.4 -3.7Q4.8 -4.1 4.8 -4.7V-4.7Q4.8 -5.4 4.4 -5.7Q4.1 -6.1 3.4 -6.1H1.5V-7.0H3.7Q4.4 -7.0 4.9 -6.8Q5.4 -6.5 5.7 -5.9Q6.0 -5.4 6.0 -4.7V-4.7Q6.0 -4.0 5.7 -3.5Q5.4 -2.9 4.9 -2.7Q4.4 -2.4 3.7 -2.4ZM0.9 0.0V-7.0H2.1V0.0Z M8.1 1.9Q8.0 1.9 7.8 1.9Q7.7 1.9 7.6 1.9V1.0Q7.7 1.0 7.8 1.0Q7.9 1.0 8.0 1.0Q8.3 1.0 8.6 0.8Q8.8 0.6 8.9 0.3L9.0 0.0L7.1 -5.3H8.3L9.8 -0.6L9.4 -1.1H9.8L9.5 -0.6L11.0 -5.3H12.2L10.2 0.1Q10.0 0.8 9.7 1.2Q9.4 1.6 9.0 1.7Q8.6 1.9 8.1 1.9Z M15.5 0.0Q14.6 0.0 14.2 -0.3Q13.8 -0.6 13.8 -1.4V-4.4H13.0V-5.3H13.8V-6.6H15.0V-5.3H16.1V-4.4H15.0V-1.7Q15.0 -1.3 15.1 -1.1Q15.3 -0.9 15.7 -0.9Q15.8 -0.9 15.9 -0.9Q16.0 -0.9 16.1 -0.9V-0.0Q16.0 -0.0 15.8 0.0Q15.7 0.0 15.5 0.0Z M17.6 0.0V-7.4H18.7V-4.5H18.8Q19.0 -4.9 19.4 -5.2Q19.8 -5.4 20.3 -5.4Q20.9 -5.4 21.4 -5.2Q21.8 -5.0 22.0 -4.5Q22.2 -4.1 22.2 -3.4V0.0H21.0V-3.2Q21.0 -3.8 20.8 -4.1Q20.5 -4.4 19.9 -4.4Q19.6 -4.4 19.3 -4.3Q19.0 -4.1 18.9 -3.8Q18.7 -3.5 18.7 -3.1V0.0Z M26.1 0.1Q25.3 0.1 24.8 -0.2Q24.2 -0.6 23.9 -1.2Q23.6 -1.8 23.6 -2.7V-2.7Q23.6 -3.5 23.9 -4.1Q24.2 -4.8 24.8 -5.1Q25.3 -5.4 26.1 -5.4Q26.9 -5.4 27.5 -5.1Q28.0 -4.8 28.4 -4.1Q28.7 -3.5 28.7 -2.7V-2.7Q28.7 -1.8 28.4 -1.2Q28.1 -0.6 27.5 -0.2Q26.9 0.1 26.1 0.1ZM26.1 -0.8Q26.6 -0.8 26.9 -1.1Q27.2 -1.3 27.3 -1.7Q27.5 -2.1 27.5 -2.7V-2.7Q27.5 -3.2 27.3 -3.6Q27.2 -4.0 26.9 -4.3Q26.6 -4.5 26.1 -4.5Q25.7 -4.5 25.4 -4.3Q25.1 -4.0 24.9 -3.6Q24.8 -3.2 24.8 -2.7V-2.7Q24.8 -2.1 24.9 -1.7Q25.1 -1.3 25.4 -1.1Q25.7 -0.8 26.1 -0.8Z M30.1 0.0V-5.3H31.3V-4.5H31.3Q31.5 -4.9 31.9 -5.2Q32.3 -5.4 32.9 -5.4Q33.8 -5.4 34.2 -4.9Q34.7 -4.4 34.7 -3.4V0.0H33.6V-3.2Q33.6 -3.8 33.3 -4.1Q33.0 -4.4 32.5 -4.4Q32.1 -4.4 31.8 -4.3Q31.5 -4.1 31.4 -3.8Q31.3 -3.5 31.3 -3.1V0.0Z"/></g><circle cx="116.6" cy="126.0" r="4.2" fill="#6B7280"/><g transform="translate(125.6,129.5)" fill="#9CA3AF"><path d="M0.9 0.0V-7.0H2.3L4.4 -1.6H4.5L6.7 -7.0H8.0V0.0H7.0V-5.1H6.4L7.6 -6.9L4.9 0.0H4.0L1.3 -6.9L2.5 -5.1H2.0V0.0Z M10.0 0.0V-7.0H11.2V0.0Z M14.9 0.0V-6.0H12.7V-7.0H18.3V-6.0H16.1V0.0Z"/></g><circle cx="165.6" cy="126.0" r="4.2" fill="#6B7280"/><g transform="translate(174.6,129.5)" fill="#9CA3AF"><path d="M3.4 0.2Q2.9 0.2 2.4 -0.0Q1.8 -0.2 1.5 -0.7Q1.1 -1.1 0.8 -1.8Q0.6 -2.5 0.6 -3.4V-3.4Q0.6 -4.6 1.0 -5.5Q1.3 -6.3 1.9 -6.8Q2.6 -7.2 3.4 -7.2Q4.1 -7.2 4.6 -7.0Q5.1 -6.8 5.4 -6.3Q5.8 -5.9 5.9 -5.4L5.9 -5.3H4.7L4.7 -5.4Q4.6 -5.6 4.4 -5.8Q4.3 -6.0 4.0 -6.1Q3.8 -6.2 3.4 -6.2Q2.9 -6.2 2.5 -5.9Q2.1 -5.6 2.0 -5.0Q1.8 -4.4 1.8 -3.7Q1.8 -3.7 1.8 -3.6Q1.8 -3.5 1.8 -3.5L2.0 -2.3Q2.0 -1.9 2.2 -1.5Q2.3 -1.2 2.7 -1.0Q3.0 -0.8 3.4 -0.8Q3.8 -0.8 4.1 -1.0Q4.4 -1.2 4.6 -1.5Q4.8 -1.9 4.8 -2.3V-2.3Q4.8 -2.7 4.6 -3.0Q4.5 -3.3 4.1 -3.5Q3.8 -3.7 3.4 -3.7Q3.0 -3.7 2.7 -3.5Q2.4 -3.3 2.2 -3.0Q2.0 -2.7 2.0 -2.3V-2.3H1.7V-3.6H1.8Q2.0 -3.9 2.2 -4.1Q2.5 -4.3 2.8 -4.5Q3.2 -4.6 3.7 -4.6Q4.4 -4.6 4.9 -4.3Q5.4 -4.0 5.7 -3.5Q6.0 -3.0 6.0 -2.3V-2.3Q6.0 -1.6 5.7 -1.0Q5.3 -0.5 4.7 -0.1Q4.2 0.2 3.4 0.2Z M12.4 0.1Q11.8 0.1 11.3 -0.1Q10.8 -0.3 10.5 -0.6Q10.2 -1.0 10.2 -1.4L10.2 -1.4H11.3L11.3 -1.4Q11.4 -1.1 11.7 -0.9Q12.0 -0.8 12.5 -0.8Q12.8 -0.8 13.0 -0.9Q13.2 -0.9 13.4 -1.1Q13.5 -1.3 13.5 -1.5V-1.5Q13.5 -1.7 13.3 -1.9Q13.1 -2.0 12.7 -2.1L11.8 -2.3Q11.3 -2.4 11.0 -2.6Q10.7 -2.8 10.5 -3.1Q10.3 -3.4 10.3 -3.8V-3.8Q10.3 -4.3 10.6 -4.7Q10.9 -5.0 11.3 -5.2Q11.8 -5.4 12.4 -5.4Q13.1 -5.4 13.5 -5.2Q14.0 -5.0 14.3 -4.7Q14.5 -4.4 14.6 -3.9V-3.9H13.5L13.5 -3.9Q13.4 -4.2 13.1 -4.4Q12.9 -4.6 12.4 -4.6Q12.2 -4.6 11.9 -4.5Q11.7 -4.4 11.6 -4.2Q11.5 -4.1 11.5 -3.9V-3.9Q11.5 -3.7 11.6 -3.6Q11.6 -3.5 11.8 -3.4Q12.0 -3.3 12.3 -3.2L13.1 -3.0Q13.7 -2.9 14.0 -2.7Q14.3 -2.5 14.5 -2.3Q14.7 -2.0 14.7 -1.6V-1.6Q14.7 -1.1 14.4 -0.7Q14.1 -0.3 13.6 -0.1Q13.1 0.1 12.4 0.1Z M16.1 1.8V-5.3H17.3V-4.5H17.4Q17.5 -4.8 17.7 -5.0Q18.0 -5.2 18.3 -5.3Q18.6 -5.4 19.0 -5.4Q19.7 -5.4 20.1 -5.1Q20.6 -4.7 20.9 -4.1Q21.2 -3.5 21.2 -2.7V-2.7Q21.2 -1.8 20.9 -1.2Q20.6 -0.6 20.1 -0.2Q19.7 0.1 19.0 0.1Q18.6 0.1 18.3 -0.0Q18.0 -0.1 17.7 -0.3Q17.5 -0.6 17.4 -0.8H17.3V1.8ZM18.6 -0.9Q19.1 -0.9 19.4 -1.1Q19.7 -1.3 19.8 -1.7Q20.0 -2.1 20.0 -2.7V-2.7Q20.0 -3.2 19.8 -3.6Q19.7 -4.0 19.4 -4.2Q19.1 -4.4 18.6 -4.4Q18.2 -4.4 17.9 -4.2Q17.6 -4.0 17.4 -3.6Q17.3 -3.2 17.3 -2.7V-2.7Q17.3 -2.1 17.4 -1.7Q17.6 -1.3 17.9 -1.1Q18.2 -0.9 18.6 -0.9Z M22.6 0.0V-5.3H23.8V0.0ZM23.2 -6.2Q22.9 -6.2 22.7 -6.4Q22.5 -6.6 22.5 -6.9Q22.5 -7.2 22.7 -7.4Q22.9 -7.6 23.2 -7.6Q23.5 -7.6 23.7 -7.4Q23.9 -7.2 23.9 -6.9Q23.9 -6.6 23.7 -6.4Q23.5 -6.2 23.2 -6.2Z M25.5 0.0V-7.4H26.7V0.0ZM28.9 0.0 27.1 -2.4 27.9 -3.2 30.3 0.0ZM26.6 -1.8 26.6 -3.1H26.8L28.8 -5.3H30.2L27.8 -2.9L27.3 -2.5Z M33.7 0.1Q32.9 0.1 32.4 -0.2Q31.8 -0.6 31.5 -1.2Q31.2 -1.8 31.2 -2.6V-2.7Q31.2 -3.5 31.5 -4.1Q31.8 -4.7 32.3 -5.1Q32.9 -5.4 33.6 -5.4Q34.4 -5.4 34.9 -5.1Q35.5 -4.8 35.8 -4.2Q36.1 -3.6 36.1 -2.8V-2.4H31.8V-3.2H35.5L35.0 -2.4V-2.9Q35.0 -3.4 34.8 -3.8Q34.6 -4.1 34.3 -4.3Q34.0 -4.5 33.7 -4.5Q33.3 -4.5 33.0 -4.3Q32.7 -4.1 32.5 -3.8Q32.3 -3.4 32.3 -2.9V-2.4Q32.3 -1.9 32.5 -1.6Q32.7 -1.2 33.0 -1.0Q33.3 -0.8 33.7 -0.8Q34.1 -0.8 34.3 -0.9Q34.5 -1.0 34.7 -1.1Q34.8 -1.3 34.9 -1.4L34.9 -1.4L36.0 -1.4L36.0 -1.4Q35.9 -1.1 35.8 -0.9Q35.6 -0.6 35.3 -0.4Q35.0 -0.2 34.6 -0.0Q34.2 0.1 33.7 0.1Z M39.5 0.1Q38.8 0.1 38.3 -0.1Q37.9 -0.3 37.6 -0.6Q37.3 -1.0 37.2 -1.4L37.2 -1.4H38.4L38.4 -1.4Q38.5 -1.1 38.8 -0.9Q39.1 -0.8 39.5 -0.8Q39.8 -0.8 40.1 -0.9Q40.3 -0.9 40.4 -1.1Q40.6 -1.3 40.6 -1.5V-1.5Q40.6 -1.7 40.4 -1.9Q40.2 -2.0 39.7 -2.1L38.9 -2.3Q38.4 -2.4 38.0 -2.6Q37.7 -2.8 37.6 -3.1Q37.4 -3.4 37.4 -3.8V-3.8Q37.4 -4.3 37.7 -4.7Q37.9 -5.0 38.4 -5.2Q38.9 -5.4 39.5 -5.4Q40.1 -5.4 40.6 -5.2Q41.1 -5.0 41.3 -4.7Q41.6 -4.4 41.6 -3.9V-3.9H40.5L40.5 -3.9Q40.5 -4.2 40.2 -4.4Q39.9 -4.6 39.5 -4.6Q39.2 -4.6 39.0 -4.5Q38.8 -4.4 38.7 -4.2Q38.5 -4.1 38.5 -3.9V-3.9Q38.5 -3.7 38.6 -3.6Q38.7 -3.5 38.9 -3.4Q39.1 -3.3 39.4 -3.2L40.2 -3.0Q40.7 -2.9 41.1 -2.7Q41.4 -2.5 41.6 -2.3Q41.7 -2.0 41.7 -1.6V-1.6Q41.7 -1.1 41.4 -0.7Q41.2 -0.3 40.6 -0.1Q40.1 0.1 39.5 0.1Z"/></g>
</svg>