<svg xmlns="http://www.w3.org/2000/svg" viewBox="0 0 440 150" width="440" height="150" role="img" aria-label="rppg-skin-tone-equity — Fitzpatrick-stratified error for cross-dataset deep rPPG. Caveats stated up front.">
  <rect x="0.75" y="0.75" width="438" height="148" rx="12" fill="#0D1117" stroke="#1F2937" stroke-width="1.5"/>
  <rect x="0.75" y="0.75" width="4" height="148" rx="2" fill="#2563EB"/>
  <g transform="translate(46,44)" fill="#F8F9FA"><path d="M1.1 0.0V-8.8H3.3V-7.4H3.4Q3.7 -8.1 4.2 -8.5Q4.8 -8.9 5.6 -8.9Q5.8 -8.9 6.1 -8.9Q6.3 -8.9 6.4 -8.8V-6.9Q6.2 -6.9 6.0 -7.0Q5.7 -7.0 5.4 -7.0Q4.8 -7.0 4.3 -6.8Q3.8 -6.5 3.6 -6.1Q3.3 -5.6 3.3 -5.0V0.0Z M8.0 2.9V-8.8H10.2V-7.4H10.3Q10.6 -7.9 10.9 -8.2Q11.3 -8.6 11.8 -8.8Q12.4 -8.9 13.0 -8.9Q14.1 -8.9 14.9 -8.4Q15.7 -7.8 16.1 -6.8Q16.6 -5.8 16.6 -4.4V-4.4Q16.6 -3.0 16.1 -2.0Q15.7 -0.9 14.9 -0.4Q14.1 0.2 13.0 0.2Q12.4 0.2 11.9 -0.0Q11.3 -0.2 10.9 -0.6Q10.6 -0.9 10.3 -1.4H10.2V2.9ZM12.3 -1.7Q12.9 -1.7 13.4 -2.0Q13.8 -2.4 14.1 -3.0Q14.3 -3.6 14.3 -4.4V-4.4Q14.3 -5.2 14.1 -5.8Q13.8 -6.4 13.3 -6.8Q12.9 -7.1 12.3 -7.1Q11.6 -7.1 11.2 -6.8Q10.7 -6.4 10.4 -5.8Q10.2 -5.2 10.2 -4.4V-4.4Q10.2 -3.6 10.4 -3.0Q10.7 -2.4 11.2 -2.0Q11.6 -1.7 12.3 -1.7Z M18.5 2.9V-8.8H20.7V-7.4H20.8Q21.0 -7.9 21.4 -8.2Q21.8 -8.6 22.3 -8.8Q22.9 -8.9 23.5 -8.9Q24.6 -8.9 25.4 -8.4Q26.2 -7.8 26.6 -6.8Q27.1 -5.8 27.1 -4.4V-4.4Q27.1 -3.0 26.6 -2.0Q26.2 -0.9 25.4 -0.4Q24.6 0.2 23.5 0.2Q22.9 0.2 22.3 -0.0Q21.8 -0.2 21.4 -0.6Q21.0 -0.9 20.8 -1.4H20.7V2.9ZM22.7 -1.7Q23.4 -1.7 23.8 -2.0Q24.3 -2.4 24.5 -3.0Q24.8 -3.6 24.8 -4.4V-4.4Q24.8 -5.2 24.5 -5.8Q24.3 -6.4 23.8 -6.8Q23.4 -7.1 22.7 -7.1Q22.1 -7.1 21.6 -6.8Q21.2 -6.4 20.9 -5.8Q20.7 -5.2 20.7 -4.4V-4.4Q20.7 -3.6 20.9 -3.0Q21.2 -2.4 21.6 -2.0Q22.1 -1.7 22.7 -1.7Z M32.8 3.1Q31.6 3.1 30.8 2.8Q29.9 2.5 29.4 1.9Q28.9 1.3 28.8 0.6L28.8 0.5H31.0L31.0 0.6Q31.1 1.0 31.6 1.2Q32.1 1.5 32.9 1.5Q33.8 1.5 34.4 1.0Q34.9 0.6 34.9 -0.2V-1.8H34.8Q34.5 -1.3 34.1 -1.0Q33.8 -0.7 33.2 -0.5Q32.7 -0.3 32.1 -0.3Q31.0 -0.3 30.2 -0.9Q29.4 -1.4 29.0 -2.3Q28.5 -3.3 28.5 -4.6V-4.6Q28.5 -5.9 29.0 -6.9Q29.4 -7.9 30.2 -8.4Q31.0 -8.9 32.1 -8.9Q32.8 -8.9 33.3 -8.7Q33.8 -8.5 34.2 -8.2Q34.6 -7.8 34.8 -7.3H34.9V-8.8H37.1V-0.3Q37.1 0.8 36.6 1.5Q36.1 2.3 35.1 2.7Q34.2 3.1 32.8 3.1ZM32.8 -2.0Q33.5 -2.0 34.0 -2.4Q34.4 -2.7 34.7 -3.2Q34.9 -3.8 34.9 -4.6V-4.6Q34.9 -5.3 34.7 -5.9Q34.4 -6.5 34.0 -6.8Q33.5 -7.1 32.8 -7.1Q32.2 -7.1 31.7 -6.8Q31.3 -6.5 31.0 -5.9Q30.8 -5.3 30.8 -4.6V-4.6Q30.8 -3.8 31.0 -3.2Q31.3 -2.7 31.7 -2.4Q32.2 -2.0 32.8 -2.0Z M39.5 -3.7V-5.7H44.9V-3.7Z M50.8 0.2Q49.6 0.2 48.8 -0.1Q47.9 -0.5 47.5 -1.1Q47.0 -1.7 46.9 -2.4L46.9 -2.5H49.1L49.1 -2.4Q49.2 -2.0 49.7 -1.7Q50.1 -1.4 50.8 -1.4Q51.3 -1.4 51.6 -1.5Q52.0 -1.7 52.1 -1.9Q52.3 -2.1 52.3 -2.4V-2.4Q52.3 -2.8 52.1 -3.0Q51.8 -3.3 51.1 -3.4L49.6 -3.7Q48.8 -3.9 48.2 -4.3Q47.7 -4.6 47.4 -5.1Q47.1 -5.6 47.1 -6.2V-6.2Q47.1 -7.1 47.6 -7.7Q48.0 -8.3 48.8 -8.6Q49.7 -9.0 50.7 -9.0Q51.9 -9.0 52.7 -8.6Q53.5 -8.3 53.9 -7.7Q54.3 -7.1 54.4 -6.4L54.4 -6.3H52.3L52.3 -6.4Q52.2 -6.8 51.8 -7.1Q51.4 -7.4 50.7 -7.4Q50.3 -7.4 50.0 -7.3Q49.7 -7.1 49.5 -6.9Q49.3 -6.7 49.3 -6.4V-6.4Q49.3 -6.1 49.4 -5.9Q49.5 -5.8 49.8 -5.6Q50.1 -5.5 50.6 -5.4L52.0 -5.1Q52.9 -4.9 53.5 -4.6Q54.0 -4.2 54.3 -3.8Q54.6 -3.3 54.6 -2.7V-2.7Q54.6 -1.8 54.1 -1.2Q53.6 -0.5 52.7 -0.2Q51.9 0.2 50.8 0.2Z M56.5 0.0V-12.1H58.8V0.0ZM62.1 0.0 59.3 -3.9 60.9 -5.3 64.7 0.0ZM58.6 -2.8 58.5 -5.3H58.9L61.9 -8.8H64.5L60.7 -4.7L59.7 -4.0Z M66.1 0.0V-8.8H68.4V0.0ZM67.2 -10.1Q66.7 -10.1 66.4 -10.5Q66.0 -10.9 66.0 -11.4Q66.0 -11.9 66.4 -12.3Q66.7 -12.6 67.2 -12.6Q67.8 -12.6 68.1 -12.3Q68.5 -11.9 68.5 -11.4Q68.5 -10.9 68.1 -10.5Q67.8 -10.1 67.2 -10.1Z M70.7 0.0V-8.8H72.9V-7.4H73.0Q73.3 -8.1 74.0 -8.6Q74.6 -9.0 75.6 -9.0Q77.1 -9.0 77.8 -8.1Q78.6 -7.2 78.6 -5.7V0.0H76.4V-5.2Q76.4 -6.1 76.0 -6.6Q75.6 -7.1 74.7 -7.1Q74.2 -7.1 73.7 -6.9Q73.3 -6.6 73.1 -6.2Q72.9 -5.7 72.9 -5.1V0.0Z M81.0 -3.7V-5.7H86.3V-3.7Z M92.3 0.1Q90.7 0.1 90.0 -0.5Q89.3 -1.1 89.3 -2.4V-7.1H88.0V-8.8H89.3V-10.9H91.6V-8.8H93.4V-7.1H91.6V-2.8Q91.6 -2.2 91.9 -1.9Q92.1 -1.7 92.7 -1.7Q92.9 -1.7 93.1 -1.7Q93.2 -1.7 93.4 -1.7V-0.0Q93.2 0.0 92.9 0.0Q92.6 0.1 92.3 0.1Z M99.2 0.2Q97.8 0.2 96.9 -0.4Q95.9 -0.9 95.4 -1.9Q94.9 -3.0 94.9 -4.4V-4.4Q94.9 -5.8 95.4 -6.8Q95.9 -7.9 96.9 -8.4Q97.9 -9.0 99.2 -9.0Q100.5 -9.0 101.5 -8.4Q102.4 -7.9 103.0 -6.8Q103.5 -5.8 103.5 -4.4V-4.4Q103.5 -3.0 103.0 -1.9Q102.4 -0.9 101.5 -0.4Q100.5 0.2 99.2 0.2ZM99.2 -1.6Q99.8 -1.6 100.3 -1.9Q100.7 -2.2 101.0 -2.9Q101.2 -3.5 101.2 -4.4V-4.4Q101.2 -5.3 101.0 -5.9Q100.7 -6.5 100.3 -6.9Q99.8 -7.2 99.2 -7.2Q98.5 -7.2 98.1 -6.9Q97.6 -6.5 97.4 -5.9Q97.2 -5.3 97.2 -4.4V-4.4Q97.2 -3.5 97.4 -2.9Q97.6 -2.2 98.1 -1.9Q98.5 -1.6 99.2 -1.6Z M105.4 0.0V-8.8H107.6V-7.4H107.7Q108.0 -8.1 108.7 -8.6Q109.3 -9.0 110.3 -9.0Q111.7 -9.0 112.5 -8.1Q113.3 -7.2 113.3 -5.7V0.0H111.1V-5.2Q111.1 -6.1 110.7 -6.6Q110.3 -7.1 109.4 -7.1Q108.8 -7.1 108.4 -6.9Q108.0 -6.6 107.8 -6.2Q107.6 -5.7 107.6 -5.1V0.0Z M119.4 0.2Q118.0 0.2 117.1 -0.4Q116.1 -0.9 115.6 -1.9Q115.1 -3.0 115.1 -4.4V-4.4Q115.1 -5.8 115.6 -6.8Q116.1 -7.8 117.1 -8.4Q118.0 -9.0 119.3 -9.0Q120.5 -9.0 121.5 -8.4Q122.4 -7.9 122.9 -6.9Q123.4 -5.9 123.4 -4.6V-3.9H116.2V-5.3H122.3L121.3 -3.9V-4.8Q121.3 -5.6 121.0 -6.2Q120.8 -6.7 120.3 -7.0Q119.9 -7.3 119.3 -7.3Q118.7 -7.3 118.3 -7.0Q117.8 -6.7 117.6 -6.2Q117.3 -5.6 117.3 -4.8V-3.9Q117.3 -3.2 117.6 -2.6Q117.8 -2.1 118.3 -1.8Q118.8 -1.5 119.4 -1.5Q119.9 -1.5 120.3 -1.7Q120.7 -1.8 120.9 -2.0Q121.1 -2.3 121.2 -2.4L121.2 -2.5L123.3 -2.5L123.3 -2.4Q123.2 -2.0 122.9 -1.5Q122.6 -1.1 122.2 -0.7Q121.7 -0.3 121.0 -0.1Q120.3 0.2 119.4 0.2Z M125.4 -3.7V-5.7H130.7V-3.7Z M137.0 0.2Q135.7 0.2 134.7 -0.4Q133.8 -0.9 133.3 -1.9Q132.8 -3.0 132.8 -4.4V-4.4Q132.8 -5.8 133.3 -6.8Q133.8 -7.8 134.7 -8.4Q135.7 -9.0 136.9 -9.0Q138.2 -9.0 139.1 -8.4Q140.1 -7.9 140.6 -6.9Q141.1 -5.9 141.1 -4.6V-3.9H133.9V-5.3H140.0L138.9 -3.9V-4.8Q138.9 -5.6 138.7 -6.2Q138.4 -6.7 138.0 -7.0Q137.5 -7.3 137.0 -7.3Q136.4 -7.3 135.9 -7.0Q135.5 -6.7 135.2 -6.2Q135.0 -5.6 135.0 -4.8V-3.9Q135.0 -3.2 135.2 -2.6Q135.5 -2.1 135.9 -1.8Q136.4 -1.5 137.1 -1.5Q137.6 -1.5 138.0 -1.7Q138.3 -1.8 138.6 -2.0Q138.8 -2.3 138.9 -2.4L138.9 -2.5L141.0 -2.5L141.0 -2.4Q140.9 -2.0 140.6 -1.5Q140.3 -1.1 139.8 -0.7Q139.3 -0.3 138.7 -0.1Q138.0 0.2 137.0 0.2Z M148.9 2.9V-1.4H148.8Q148.6 -0.9 148.2 -0.6Q147.8 -0.2 147.3 -0.0Q146.7 0.1 146.1 0.1Q145.0 0.1 144.2 -0.4Q143.4 -1.0 143.0 -2.0Q142.5 -3.0 142.5 -4.4V-4.4Q142.5 -5.8 143.0 -6.8Q143.4 -7.8 144.2 -8.4Q145.0 -8.9 146.1 -8.9Q146.7 -8.9 147.3 -8.7Q147.8 -8.5 148.2 -8.2Q148.6 -7.8 148.8 -7.3H148.9V-8.8H151.1V2.9ZM146.9 -1.7Q147.5 -1.7 148.0 -2.0Q148.4 -2.4 148.7 -3.0Q148.9 -3.6 148.9 -4.4V-4.4Q148.9 -5.2 148.7 -5.8Q148.4 -6.4 147.9 -6.8Q147.5 -7.1 146.9 -7.1Q146.2 -7.1 145.8 -6.8Q145.3 -6.4 145.0 -5.8Q144.8 -5.2 144.8 -4.4V-4.4Q144.8 -3.6 145.0 -3.0Q145.3 -2.4 145.8 -2.0Q146.2 -1.7 146.9 -1.7Z M156.3 0.2Q155.4 0.2 154.7 -0.2Q154.0 -0.6 153.7 -1.3Q153.3 -2.1 153.3 -3.1V-8.8H155.6V-3.6Q155.6 -2.7 156.0 -2.2Q156.4 -1.7 157.2 -1.7Q157.6 -1.7 158.0 -1.8Q158.3 -2.0 158.6 -2.2Q158.8 -2.5 158.9 -2.9Q159.0 -3.2 159.0 -3.7V-8.8H161.3V0.0H159.0V-1.4H158.9Q158.7 -0.9 158.4 -0.5Q158.0 -0.2 157.5 -0.0Q157.0 0.2 156.3 0.2Z M163.6 0.0V-8.8H165.8V0.0ZM164.7 -10.1Q164.2 -10.1 163.8 -10.5Q163.4 -10.9 163.4 -11.4Q163.4 -11.9 163.8 -12.3Q164.2 -12.6 164.7 -12.6Q165.2 -12.6 165.6 -12.3Q166.0 -11.9 166.0 -11.4Q166.0 -10.9 165.6 -10.5Q165.2 -10.1 164.7 -10.1Z M171.7 0.1Q170.1 0.1 169.4 -0.5Q168.8 -1.1 168.8 -2.4V-7.1H167.4V-8.8H168.8V-10.9H171.0V-8.8H172.8V-7.1H171.0V-2.8Q171.0 -2.2 171.3 -1.9Q171.6 -1.7 172.1 -1.7Q172.4 -1.7 172.5 -1.7Q172.6 -1.7 172.8 -1.7V-0.0Q172.6 0.0 172.3 0.0Q172.0 0.1 171.7 0.1Z M175.8 3.1Q175.6 3.1 175.3 3.0Q175.1 3.0 174.9 3.0V1.3Q175.0 1.3 175.2 1.4Q175.3 1.4 175.5 1.4Q176.1 1.4 176.5 1.1Q176.9 0.9 177.0 0.4L177.1 0.0L174.0 -8.8H176.4L178.6 -1.2L178.1 -2.0H178.7L178.2 -1.2L180.4 -8.8H182.7L179.7 0.1Q179.3 1.2 178.8 1.9Q178.3 2.5 177.5 2.8Q176.8 3.1 175.8 3.1Z"/></g>
  <circle cx="30" cy="39" r="5.5" fill="none" stroke="#2563EB" stroke-width="2"/>
  <g transform="translate(46,72)" fill="#9CA3AF"><path d="M1.1 0.0V-8.5H6.3V-7.4H2.2V-4.6H5.9V-3.6H2.2V0.0Z M8.0 0.0V-6.3H9.1V0.0ZM8.6 -7.5Q8.3 -7.5 8.0 -7.7Q7.8 -7.9 7.8 -8.2Q7.8 -8.6 8.0 -8.8Q8.3 -9.0 8.6 -9.0Q8.9 -9.0 9.1 -8.8Q9.3 -8.6 9.3 -8.2Q9.3 -7.9 9.1 -7.7Q8.9 -7.5 8.6 -7.5Z M13.4 0.0Q12.4 0.0 12.0 -0.3Q11.5 -0.7 11.5 -1.7V-5.4H10.6V-6.3H11.5V-7.9H12.7V-6.3H14.1V-5.4H12.7V-1.9Q12.7 -1.4 12.9 -1.2Q13.1 -0.9 13.6 -0.9Q13.7 -0.9 13.8 -0.9Q13.9 -0.9 14.1 -0.9V-0.0Q13.9 0.0 13.8 0.0Q13.6 0.0 13.4 0.0Z M15.6 0.0V-0.8L19.1 -5.3V-5.4H15.6V-6.3H20.5V-5.5L16.9 -1.0V-0.9H20.5V0.0Z M22.3 2.1V-6.3H23.5V-5.3H23.6Q23.8 -5.7 24.1 -5.9Q24.3 -6.2 24.7 -6.3Q25.1 -6.4 25.5 -6.4Q26.3 -6.4 26.9 -6.0Q27.5 -5.6 27.8 -4.9Q28.2 -4.2 28.2 -3.2V-3.2Q28.2 -2.2 27.8 -1.4Q27.5 -0.7 26.9 -0.3Q26.3 0.1 25.5 0.1Q25.1 0.1 24.7 -0.0Q24.3 -0.2 24.0 -0.4Q23.7 -0.7 23.6 -1.0H23.5V2.1ZM25.2 -0.9Q25.8 -0.9 26.2 -1.2Q26.6 -1.4 26.8 -1.9Q27.0 -2.5 27.0 -3.2V-3.2Q27.0 -3.9 26.8 -4.4Q26.6 -4.9 26.2 -5.2Q25.8 -5.5 25.2 -5.5Q24.7 -5.5 24.3 -5.2Q23.9 -4.9 23.7 -4.4Q23.5 -3.9 23.5 -3.2V-3.2Q23.5 -2.5 23.7 -1.9Q23.9 -1.4 24.3 -1.2Q24.7 -0.9 25.2 -0.9Z M31.6 0.1Q31.0 0.1 30.5 -0.1Q30.0 -0.4 29.8 -0.8Q29.5 -1.2 29.5 -1.8V-1.8Q29.5 -2.3 29.8 -2.8Q30.0 -3.2 30.6 -3.4Q31.1 -3.6 31.8 -3.7L34.2 -3.8V-2.9L32.0 -2.8Q31.3 -2.8 31.0 -2.5Q30.6 -2.3 30.6 -1.8V-1.8Q30.6 -1.3 31.0 -1.1Q31.3 -0.8 31.9 -0.8Q32.4 -0.8 32.8 -1.0Q33.1 -1.2 33.4 -1.6Q33.6 -1.9 33.6 -2.4V-4.3Q33.6 -4.9 33.3 -5.2Q32.9 -5.5 32.2 -5.5Q31.7 -5.5 31.3 -5.3Q31.0 -5.1 30.9 -4.7L30.9 -4.7H29.7L29.8 -4.7Q29.8 -5.3 30.2 -5.6Q30.5 -6.0 31.0 -6.2Q31.6 -6.4 32.3 -6.4Q33.1 -6.4 33.6 -6.2Q34.2 -5.9 34.4 -5.5Q34.7 -5.0 34.7 -4.3V0.0H33.6V-0.9H33.5Q33.3 -0.6 33.0 -0.4Q32.7 -0.1 32.4 -0.0Q32.0 0.1 31.6 0.1Z M39.0 0.0Q38.0 0.0 37.5 -0.3Q37.1 -0.7 37.1 -1.7V-5.4H36.1V-6.3H37.1V-7.9H38.3V-6.3H39.6V-5.4H38.3V-1.9Q38.3 -1.4 38.5 -1.2Q38.7 -0.9 39.1 -0.9Q39.3 -0.9 39.4 -0.9Q39.5 -0.9 39.6 -0.9V-0.0Q39.5 0.0 39.3 0.0Q39.2 0.0 39.0 0.0Z M41.3 0.0V-6.3H42.4V-5.4H42.5Q42.7 -5.9 43.1 -6.2Q43.5 -6.4 44.1 -6.4Q44.3 -6.4 44.4 -6.4Q44.6 -6.4 44.7 -6.4V-5.3Q44.5 -5.3 44.4 -5.4Q44.2 -5.4 44.0 -5.4Q43.5 -5.4 43.2 -5.2Q42.8 -5.0 42.6 -4.7Q42.4 -4.3 42.4 -3.9V0.0Z M46.1 0.0V-6.3H47.2V0.0ZM46.6 -7.5Q46.3 -7.5 46.1 -7.7Q45.9 -7.9 45.9 -8.2Q45.9 -8.6 46.1 -8.8Q46.3 -9.0 46.6 -9.0Q46.9 -9.0 47.2 -8.8Q47.4 -8.6 47.4 -8.2Q47.4 -7.9 47.2 -7.7Q46.9 -7.5 46.6 -7.5Z M51.8 0.1Q50.9 0.1 50.3 -0.3Q49.6 -0.7 49.3 -1.4Q48.9 -2.2 48.9 -3.2V-3.2Q48.9 -4.2 49.3 -4.9Q49.6 -5.6 50.3 -6.0Q50.9 -6.4 51.8 -6.4Q52.6 -6.4 53.2 -6.2Q53.7 -5.9 54.1 -5.4Q54.4 -5.0 54.5 -4.4L54.5 -4.3H53.4L53.4 -4.4Q53.3 -4.8 52.9 -5.1Q52.5 -5.5 51.8 -5.5Q51.3 -5.5 50.9 -5.2Q50.5 -4.9 50.3 -4.4Q50.1 -3.9 50.1 -3.2V-3.2Q50.1 -2.5 50.3 -1.9Q50.5 -1.4 50.9 -1.1Q51.3 -0.9 51.8 -0.9Q52.5 -0.9 52.8 -1.1Q53.2 -1.4 53.4 -1.9L53.4 -2.0L54.5 -2.0L54.5 -1.9Q54.4 -1.3 54.0 -0.9Q53.7 -0.4 53.2 -0.1Q52.6 0.1 51.8 0.1Z M56.2 0.0V-8.8H57.3V0.0ZM60.1 0.0 57.8 -3.0 58.6 -3.8 61.6 0.0ZM57.2 -2.2 57.1 -3.6H57.4L60.0 -6.3H61.4L58.4 -3.4L58.1 -3.1Z M62.8 -2.9V-3.9H66.7V-2.9Z M70.9 0.1Q70.2 0.1 69.6 -0.1Q69.1 -0.3 68.7 -0.7Q68.4 -1.1 68.3 -1.6L68.3 -1.6H69.5L69.5 -1.6Q69.6 -1.3 70.0 -1.0Q70.3 -0.8 70.9 -0.8Q71.3 -0.8 71.6 -0.9Q72.0 -1.0 72.1 -1.2Q72.3 -1.4 72.3 -1.7V-1.7Q72.3 -2.0 72.1 -2.3Q71.8 -2.5 71.3 -2.6L70.3 -2.8Q69.7 -3.0 69.3 -3.2Q68.9 -3.4 68.7 -3.8Q68.5 -4.1 68.5 -4.6V-4.6Q68.5 -5.1 68.8 -5.5Q69.1 -6.0 69.7 -6.2Q70.2 -6.4 70.9 -6.4Q71.6 -6.4 72.1 -6.2Q72.7 -6.0 73.0 -5.6Q73.3 -5.2 73.4 -4.7L73.4 -4.7H72.3L72.3 -4.7Q72.2 -5.1 71.8 -5.3Q71.5 -5.5 70.9 -5.5Q70.6 -5.5 70.3 -5.4Q70.0 -5.3 69.8 -5.1Q69.7 -4.9 69.7 -4.6V-4.6Q69.7 -4.4 69.8 -4.3Q69.9 -4.1 70.1 -4.0Q70.3 -3.9 70.7 -3.8L71.7 -3.5Q72.3 -3.4 72.7 -3.2Q73.1 -2.9 73.3 -2.6Q73.5 -2.3 73.5 -1.8V-1.8Q73.5 -1.2 73.1 -0.8Q72.8 -0.4 72.2 -0.1Q71.6 0.1 70.9 0.1Z M77.5 0.0Q76.5 0.0 76.0 -0.3Q75.6 -0.7 75.6 -1.7V-5.4H74.6V-6.3H75.6V-7.9H76.7V-6.3H78.1V-5.4H76.7V-1.9Q76.7 -1.4 76.9 -1.2Q77.1 -0.9 77.6 -0.9Q77.8 -0.9 77.9 -0.9Q78.0 -0.9 78.1 -0.9V-0.0Q77.9 0.0 77.8 0.0Q77.6 0.0 77.5 0.0Z M79.7 0.0V-6.3H80.9V-5.4H80.9Q81.1 -5.9 81.6 -6.2Q82.0 -6.4 82.6 -6.4Q82.8 -6.4 82.9 -6.4Q83.1 -6.4 83.1 -6.4V-5.3Q83.0 -5.3 82.8 -5.4Q82.7 -5.4 82.5 -5.4Q82.0 -5.4 81.6 -5.2Q81.3 -5.0 81.1 -4.7Q80.9 -4.3 80.9 -3.9V0.0Z M86.3 0.1Q85.7 0.1 85.2 -0.1Q84.7 -0.4 84.4 -0.8Q84.1 -1.2 84.1 -1.8V-1.8Q84.1 -2.3 84.4 -2.8Q84.7 -3.2 85.2 -3.4Q85.7 -3.6 86.5 -3.7L88.8 -3.8V-2.9L86.6 -2.8Q85.9 -2.8 85.6 -2.5Q85.3 -2.3 85.3 -1.8V-1.8Q85.3 -1.3 85.6 -1.1Q86.0 -0.8 86.5 -0.8Q87.0 -0.8 87.4 -1.0Q87.8 -1.2 88.0 -1.6Q88.2 -1.9 88.2 -2.4V-4.3Q88.2 -4.9 87.9 -5.2Q87.6 -5.5 86.9 -5.5Q86.3 -5.5 86.0 -5.3Q85.6 -5.1 85.5 -4.7L85.5 -4.7H84.4L84.4 -4.7Q84.5 -5.3 84.8 -5.6Q85.1 -6.0 85.7 -6.2Q86.2 -6.4 86.9 -6.4Q87.7 -6.4 88.3 -6.2Q88.8 -5.9 89.1 -5.5Q89.4 -5.0 89.4 -4.3V0.0H88.2V-0.9H88.2Q88.0 -0.6 87.7 -0.4Q87.4 -0.1 87.0 -0.0Q86.7 0.1 86.3 0.1Z M93.6 0.0Q92.6 0.0 92.2 -0.3Q91.7 -0.7 91.7 -1.7V-5.4H90.7V-6.3H91.7V-7.9H92.9V-6.3H94.3V-5.4H92.9V-1.9Q92.9 -1.4 93.1 -1.2Q93.3 -0.9 93.8 -0.9Q93.9 -0.9 94.0 -0.9Q94.1 -0.9 94.3 -0.9V-0.0Q94.1 0.0 94.0 0.0Q93.8 0.0 93.6 0.0Z M95.9 0.0V-6.3H97.1V0.0ZM96.5 -7.5Q96.2 -7.5 96.0 -7.7Q95.8 -7.9 95.8 -8.2Q95.8 -8.6 96.0 -8.8Q96.2 -9.0 96.5 -9.0Q96.8 -9.0 97.0 -8.8Q97.2 -8.6 97.2 -8.2Q97.2 -7.9 97.0 -7.7Q96.8 -7.5 96.5 -7.5Z M99.5 0.0V-5.4H98.5V-6.3H99.5V-7.0Q99.5 -7.6 99.7 -8.1Q99.9 -8.5 100.3 -8.7Q100.8 -8.9 101.4 -8.9Q101.6 -8.9 101.8 -8.9Q101.9 -8.9 102.1 -8.8V-8.0Q102.0 -8.0 101.9 -8.0Q101.8 -8.0 101.6 -8.0Q101.1 -8.0 100.9 -7.7Q100.6 -7.5 100.6 -7.0V-6.3H102.1V-5.4H100.6V0.0Z M103.6 0.0V-6.3H104.8V0.0ZM104.2 -7.5Q103.9 -7.5 103.7 -7.7Q103.5 -7.9 103.5 -8.2Q103.5 -8.6 103.7 -8.8Q103.9 -9.0 104.2 -9.0Q104.5 -9.0 104.7 -8.8Q105.0 -8.6 105.0 -8.2Q105.0 -7.9 104.7 -7.7Q104.5 -7.5 104.2 -7.5Z M109.4 0.1Q108.5 0.1 107.8 -0.3Q107.2 -0.7 106.8 -1.4Q106.5 -2.1 106.5 -3.1V-3.1Q106.5 -4.1 106.8 -4.9Q107.2 -5.6 107.8 -6.0Q108.5 -6.4 109.4 -6.4Q110.2 -6.4 110.9 -6.0Q111.5 -5.6 111.8 -4.9Q112.2 -4.2 112.2 -3.3V-2.9H107.1V-3.7H111.6L111.0 -2.9V-3.4Q111.0 -4.1 110.8 -4.6Q110.6 -5.0 110.2 -5.2Q109.8 -5.5 109.4 -5.5Q108.9 -5.5 108.5 -5.2Q108.1 -5.0 107.9 -4.5Q107.6 -4.1 107.6 -3.4V-2.9Q107.6 -2.3 107.9 -1.8Q108.1 -1.3 108.5 -1.1Q108.9 -0.9 109.4 -0.9Q109.9 -0.9 110.2 -1.0Q110.5 -1.1 110.7 -1.3Q110.9 -1.4 110.9 -1.6L111.0 -1.7L112.1 -1.7L112.1 -1.6Q112.0 -1.3 111.8 -1.0Q111.6 -0.7 111.2 -0.4Q110.9 -0.2 110.5 -0.0Q110.0 0.1 109.4 0.1Z M116.2 0.1Q115.4 0.1 114.8 -0.3Q114.2 -0.7 113.8 -1.4Q113.5 -2.2 113.5 -3.2V-3.2Q113.5 -4.2 113.8 -4.9Q114.2 -5.6 114.8 -6.0Q115.4 -6.4 116.2 -6.4Q116.6 -6.4 117.0 -6.3Q117.4 -6.2 117.7 -5.9Q118.0 -5.7 118.1 -5.3H118.2V-8.8H119.3V0.0H118.2V-1.0H118.1Q117.9 -0.7 117.6 -0.4Q117.4 -0.2 117.0 -0.0Q116.6 0.1 116.2 0.1ZM116.5 -0.9Q117.0 -0.9 117.4 -1.2Q117.8 -1.4 118.0 -1.9Q118.2 -2.5 118.2 -3.2V-3.2Q118.2 -3.9 118.0 -4.4Q117.8 -4.9 117.4 -5.2Q117.0 -5.5 116.5 -5.5Q115.9 -5.5 115.5 -5.2Q115.1 -4.9 114.9 -4.4Q114.7 -3.9 114.7 -3.2V-3.2Q114.7 -2.5 114.9 -1.9Q115.1 -1.4 115.5 -1.2Q115.9 -0.9 116.5 -0.9Z M127.5 0.1Q126.5 0.1 125.9 -0.3Q125.2 -0.7 124.9 -1.4Q124.5 -2.1 124.5 -3.1V-3.1Q124.5 -4.1 124.9 -4.9Q125.2 -5.6 125.9 -6.0Q126.5 -6.4 127.4 -6.4Q128.3 -6.4 128.9 -6.0Q129.5 -5.6 129.9 -4.9Q130.2 -4.2 130.2 -3.3V-2.9H125.1V-3.7H129.6L129.1 -2.9V-3.4Q129.1 -4.1 128.9 -4.6Q128.6 -5.0 128.3 -5.2Q127.9 -5.5 127.4 -5.5Q126.9 -5.5 126.5 -5.2Q126.1 -5.0 125.9 -4.5Q125.7 -4.1 125.7 -3.4V-2.9Q125.7 -2.3 125.9 -1.8Q126.1 -1.3 126.5 -1.1Q126.9 -0.9 127.5 -0.9Q127.9 -0.9 128.2 -1.0Q128.5 -1.1 128.7 -1.3Q128.9 -1.4 129.0 -1.6L129.0 -1.7L130.1 -1.7L130.1 -1.6Q130.0 -1.3 129.8 -1.0Q129.6 -0.7 129.3 -0.4Q128.9 -0.2 128.5 -0.0Q128.0 0.1 127.5 0.1Z M131.9 0.0V-6.3H133.0V-5.4H133.1Q133.3 -5.9 133.7 -6.2Q134.1 -6.4 134.8 -6.4Q134.9 -6.4 135.1 -6.4Q135.2 -6.4 135.3 -6.4V-5.3Q135.1 -5.3 135.0 -5.4Q134.8 -5.4 134.6 -5.4Q134.2 -5.4 133.8 -5.2Q133.4 -5.0 133.2 -4.7Q133.0 -4.3 133.0 -3.9V0.0Z M136.7 0.0V-6.3H137.8V-5.4H137.9Q138.1 -5.9 138.5 -6.2Q138.9 -6.4 139.6 -6.4Q139.7 -6.4 139.8 -6.4Q140.0 -6.4 140.1 -6.4V-5.3Q139.9 -5.3 139.8 -5.4Q139.6 -5.4 139.4 -5.4Q138.9 -5.4 138.6 -5.2Q138.2 -5.0 138.0 -4.7Q137.8 -4.3 137.8 -3.9V0.0Z M144.1 0.1Q143.2 0.1 142.5 -0.3Q141.9 -0.7 141.5 -1.4Q141.1 -2.1 141.1 -3.2V-3.2Q141.1 -4.2 141.5 -4.9Q141.9 -5.7 142.5 -6.1Q143.2 -6.4 144.1 -6.4Q145.0 -6.4 145.7 -6.1Q146.3 -5.7 146.7 -4.9Q147.0 -4.2 147.0 -3.2V-3.2Q147.0 -2.1 146.7 -1.4Q146.3 -0.7 145.7 -0.3Q145.0 0.1 144.1 0.1ZM144.1 -0.9Q144.7 -0.9 145.1 -1.1Q145.5 -1.4 145.7 -1.9Q145.9 -2.4 145.9 -3.2V-3.2Q145.9 -3.9 145.7 -4.4Q145.5 -4.9 145.1 -5.2Q144.7 -5.5 144.1 -5.5Q143.5 -5.5 143.1 -5.2Q142.7 -4.9 142.5 -4.4Q142.3 -3.9 142.3 -3.2V-3.2Q142.3 -2.4 142.5 -1.9Q142.7 -1.4 143.1 -1.1Q143.5 -0.9 144.1 -0.9Z M148.7 0.0V-6.3H149.8V-5.4H149.9Q150.1 -5.9 150.5 -6.2Q151.0 -6.4 151.6 -6.4Q151.8 -6.4 151.9 -6.4Q152.0 -6.4 152.1 -6.4V-5.3Q152.0 -5.3 151.8 -5.4Q151.7 -5.4 151.5 -5.4Q151.0 -5.4 150.6 -5.2Q150.3 -5.0 150.1 -4.7Q149.8 -4.3 149.8 -3.9V0.0Z M157.4 0.0V-5.4H156.3V-6.3H157.4V-7.0Q157.4 -7.6 157.6 -8.1Q157.8 -8.5 158.2 -8.7Q158.6 -8.9 159.3 -8.9Q159.5 -8.9 159.6 -8.9Q159.8 -8.9 160.0 -8.8V-8.0Q159.9 -8.0 159.8 -8.0Q159.6 -8.0 159.5 -8.0Q159.0 -8.0 158.7 -7.7Q158.5 -7.5 158.5 -7.0V-6.3H159.9V-5.4H158.5V0.0Z M164.1 0.1Q163.2 0.1 162.6 -0.3Q161.9 -0.7 161.5 -1.4Q161.2 -2.1 161.2 -3.2V-3.2Q161.2 -4.2 161.5 -4.9Q161.9 -5.7 162.6 -6.1Q163.2 -6.4 164.1 -6.4Q165.0 -6.4 165.7 -6.1Q166.4 -5.7 166.7 -4.9Q167.1 -4.2 167.1 -3.2V-3.2Q167.1 -2.1 166.7 -1.4Q166.4 -0.7 165.7 -0.3Q165.0 0.1 164.1 0.1ZM164.1 -0.9Q164.7 -0.9 165.1 -1.1Q165.5 -1.4 165.7 -1.9Q165.9 -2.4 165.9 -3.2V-3.2Q165.9 -3.9 165.7 -4.4Q165.5 -4.9 165.1 -5.2Q164.7 -5.5 164.1 -5.5Q163.6 -5.5 163.2 -5.2Q162.8 -4.9 162.5 -4.4Q162.3 -3.9 162.3 -3.2V-3.2Q162.3 -2.4 162.5 -1.9Q162.8 -1.4 163.2 -1.1Q163.6 -0.9 164.1 -0.9Z M168.8 0.0V-6.3H169.9V-5.4H170.0Q170.2 -5.9 170.6 -6.2Q171.0 -6.4 171.6 -6.4Q171.8 -6.4 171.9 -6.4Q172.1 -6.4 172.2 -6.4V-5.3Q172.0 -5.3 171.9 -5.4Q171.7 -5.4 171.5 -5.4Q171.0 -5.4 170.7 -5.2Q170.3 -5.0 170.1 -4.7Q169.9 -4.3 169.9 -3.9V0.0Z M179.6 0.1Q178.7 0.1 178.0 -0.3Q177.4 -0.7 177.0 -1.4Q176.7 -2.2 176.7 -3.2V-3.2Q176.7 -4.2 177.0 -4.9Q177.4 -5.6 178.0 -6.0Q178.7 -6.4 179.6 -6.4Q180.4 -6.4 180.9 -6.2Q181.5 -5.9 181.9 -5.4Q182.2 -5.0 182.3 -4.4L182.3 -4.3H181.2L181.2 -4.4Q181.1 -4.8 180.7 -5.1Q180.3 -5.5 179.6 -5.5Q179.1 -5.5 178.7 -5.2Q178.3 -4.9 178.0 -4.4Q177.8 -3.9 177.8 -3.2V-3.2Q177.8 -2.5 178.0 -1.9Q178.3 -1.4 178.7 -1.1Q179.1 -0.9 179.6 -0.9Q180.2 -0.9 180.6 -1.1Q181.0 -1.4 181.2 -1.9L181.2 -2.0L182.3 -2.0L182.3 -1.9Q182.1 -1.3 181.8 -0.9Q181.5 -0.4 180.9 -0.1Q180.4 0.1 179.6 0.1Z M183.9 0.0V-6.3H185.0V-5.4H185.1Q185.3 -5.9 185.7 -6.2Q186.1 -6.4 186.8 -6.4Q186.9 -6.4 187.1 -6.4Q187.2 -6.4 187.3 -6.4V-5.3Q187.1 -5.3 187.0 -5.4Q186.8 -5.4 186.6 -5.4Q186.2 -5.4 185.8 -5.2Q185.4 -5.0 185.2 -4.7Q185.0 -4.3 185.0 -3.9V0.0Z M191.3 0.1Q190.4 0.1 189.7 -0.3Q189.1 -0.7 188.7 -1.4Q188.3 -2.1 188.3 -3.2V-3.2Q188.3 -4.2 188.7 -4.9Q189.1 -5.7 189.7 -6.1Q190.4 -6.4 191.3 -6.4Q192.2 -6.4 192.9 -6.1Q193.5 -5.7 193.9 -4.9Q194.3 -4.2 194.3 -3.2V-3.2Q194.3 -2.1 193.9 -1.4Q193.5 -0.7 192.9 -0.3Q192.2 0.1 191.3 0.1ZM191.3 -0.9Q191.9 -0.9 192.3 -1.1Q192.7 -1.4 192.9 -1.9Q193.1 -2.4 193.1 -3.2V-3.2Q193.1 -3.9 192.9 -4.4Q192.7 -4.9 192.3 -5.2Q191.9 -5.5 191.3 -5.5Q190.7 -5.5 190.3 -5.2Q189.9 -4.9 189.7 -4.4Q189.5 -3.9 189.5 -3.2V-3.2Q189.5 -2.4 189.7 -1.9Q189.9 -1.4 190.3 -1.1Q190.7 -0.9 191.3 -0.9Z M198.2 0.1Q197.4 0.1 196.9 -0.1Q196.3 -0.3 196.0 -0.7Q195.7 -1.1 195.6 -1.6L195.6 -1.6H196.8L196.8 -1.6Q196.9 -1.3 197.2 -1.0Q197.6 -0.8 198.2 -0.8Q198.6 -0.8 198.9 -0.9Q199.2 -1.0 199.4 -1.2Q199.6 -1.4 199.6 -1.7V-1.7Q199.6 -2.0 199.3 -2.3Q199.1 -2.5 198.5 -2.6L197.5 -2.8Q196.9 -3.0 196.5 -3.2Q196.2 -3.4 196.0 -3.8Q195.8 -4.1 195.8 -4.6V-4.6Q195.8 -5.1 196.1 -5.5Q196.4 -6.0 197.0 -6.2Q197.5 -6.4 198.2 -6.4Q198.9 -6.4 199.4 -6.2Q199.9 -6.0 200.2 -5.6Q200.6 -5.2 200.6 -4.7L200.6 -4.7H199.5L199.5 -4.7Q199.4 -5.1 199.1 -5.3Q198.7 -5.5 198.2 -5.5Q197.8 -5.5 197.5 -5.4Q197.3 -5.3 197.1 -5.1Q196.9 -4.9 196.9 -4.6V-4.6Q196.9 -4.4 197.0 -4.3Q197.1 -4.1 197.4 -4.0Q197.6 -3.9 198.0 -3.8L199.0 -3.5Q199.6 -3.4 200.0 -3.2Q200.3 -2.9 200.5 -2.6Q200.7 -2.3 200.7 -1.8V-1.8Q200.7 -1.2 200.4 -0.8Q200.1 -0.4 199.5 -0.1Q198.9 0.1 198.2 0.1Z M204.6 0.1Q203.9 0.1 203.4 -0.1Q202.8 -0.3 202.5 -0.7Q202.2 -1.1 202.1 -1.6L202.1 -1.6H203.2L203.2 -1.6Q203.4 -1.3 203.7 -1.0Q204.1 -0.8 204.7 -0.8Q205.1 -0.8 205.4 -0.9Q205.7 -1.0 205.9 -1.2Q206.1 -1.4 206.1 -1.7V-1.7Q206.1 -2.0 205.8 -2.3Q205.6 -2.5 205.0 -2.6L204.0 -2.8Q203.4 -3.0 203.0 -3.2Q202.6 -3.4 202.5 -3.8Q202.3 -4.1 202.3 -4.6V-4.6Q202.3 -5.1 202.6 -5.5Q202.9 -6.0 203.4 -6.2Q204.0 -6.4 204.7 -6.4Q205.4 -6.4 205.9 -6.2Q206.4 -6.0 206.7 -5.6Q207.0 -5.2 207.1 -4.7L207.1 -4.7H206.0L206.0 -4.7Q205.9 -5.1 205.6 -5.3Q205.2 -5.5 204.7 -5.5Q204.3 -5.5 204.0 -5.4Q203.7 -5.3 203.6 -5.1Q203.4 -4.9 203.4 -4.6V-4.6Q203.4 -4.4 203.5 -4.3Q203.6 -4.1 203.9 -4.0Q204.1 -3.9 204.4 -3.8L205.4 -3.5Q206.0 -3.4 206.4 -3.2Q206.8 -2.9 207.0 -2.6Q207.2 -2.3 207.2 -1.8V-1.8Q207.2 -1.2 206.9 -0.8Q206.5 -0.4 206.0 -0.1Q205.4 0.1 204.6 0.1Z M208.8 -2.9V-3.9H212.8V-2.9Z M217.0 0.1Q216.2 0.1 215.6 -0.3Q215.0 -0.7 214.7 -1.4Q214.4 -2.2 214.4 -3.2V-3.2Q214.4 -4.2 214.7 -4.9Q215.0 -5.6 215.6 -6.0Q216.2 -6.4 217.0 -6.4Q217.5 -6.4 217.8 -6.3Q218.2 -6.2 218.5 -5.9Q218.8 -5.7 219.0 -5.3H219.1V-8.8H220.2V0.0H219.1V-1.0H219.0Q218.8 -0.7 218.5 -0.4Q218.2 -0.2 217.8 -0.0Q217.5 0.1 217.0 0.1ZM217.3 -0.9Q217.9 -0.9 218.3 -1.2Q218.7 -1.4 218.9 -1.9Q219.1 -2.5 219.1 -3.2V-3.2Q219.1 -3.9 218.9 -4.4Q218.7 -4.9 218.3 -5.2Q217.9 -5.5 217.3 -5.5Q216.8 -5.5 216.4 -5.2Q216.0 -4.9 215.8 -4.4Q215.5 -3.9 215.5 -3.2V-3.2Q215.5 -2.5 215.8 -1.9Q216.0 -1.4 216.4 -1.2Q216.8 -0.9 217.3 -0.9Z M224.0 0.1Q223.4 0.1 222.9 -0.1Q222.5 -0.4 222.2 -0.8Q221.9 -1.2 221.9 -1.8V-1.8Q221.9 -2.3 222.2 -2.8Q222.4 -3.2 223.0 -3.4Q223.5 -3.6 224.2 -3.7L226.6 -3.8V-2.9L224.4 -2.8Q223.7 -2.8 223.4 -2.5Q223.0 -2.3 223.0 -1.8V-1.8Q223.0 -1.3 223.4 -1.1Q223.7 -0.8 224.3 -0.8Q224.8 -0.8 225.2 -1.0Q225.6 -1.2 225.8 -1.6Q226.0 -1.9 226.0 -2.4V-4.3Q226.0 -4.9 225.7 -5.2Q225.3 -5.5 224.6 -5.5Q224.1 -5.5 223.7 -5.3Q223.4 -5.1 223.3 -4.7L223.3 -4.7H222.1L222.2 -4.7Q222.2 -5.3 222.6 -5.6Q222.9 -6.0 223.4 -6.2Q224.0 -6.4 224.7 -6.4Q225.5 -6.4 226.0 -6.2Q226.6 -5.9 226.8 -5.5Q227.1 -5.0 227.1 -4.3V0.0H226.0V-0.9H225.9Q225.7 -0.6 225.4 -0.4Q225.1 -0.1 224.8 -0.0Q224.4 0.1 224.0 0.1Z M231.4 0.0Q230.4 0.0 229.9 -0.3Q229.5 -0.7 229.5 -1.7V-5.4H228.5V-6.3H229.5V-7.9H230.7V-6.3H232.0V-5.4H230.7V-1.9Q230.7 -1.4 230.9 -1.2Q231.1 -0.9 231.6 -0.9Q231.7 -0.9 231.8 -0.9Q231.9 -0.9 232.0 -0.9V-0.0Q231.9 0.0 231.7 0.0Q231.6 0.0 231.4 0.0Z M235.4 0.1Q234.8 0.1 234.3 -0.1Q233.8 -0.4 233.6 -0.8Q233.3 -1.2 233.3 -1.8V-1.8Q233.3 -2.3 233.6 -2.8Q233.8 -3.2 234.4 -3.4Q234.9 -3.6 235.6 -3.7L238.0 -3.8V-2.9L235.8 -2.8Q235.1 -2.8 234.8 -2.5Q234.4 -2.3 234.4 -1.8V-1.8Q234.4 -1.3 234.8 -1.1Q235.1 -0.8 235.7 -0.8Q236.2 -0.8 236.6 -1.0Q236.9 -1.2 237.2 -1.6Q237.4 -1.9 237.4 -2.4V-4.3Q237.4 -4.9 237.0 -5.2Q236.7 -5.5 236.0 -5.5Q235.5 -5.5 235.1 -5.3Q234.8 -5.1 234.7 -4.7L234.7 -4.7H233.5L233.5 -4.7Q233.6 -5.3 234.0 -5.6Q234.3 -6.0 234.8 -6.2Q235.4 -6.4 236.1 -6.4Q236.9 -6.4 237.4 -6.2Q238.0 -5.9 238.2 -5.5Q238.5 -5.0 238.5 -4.3V0.0H237.4V-0.9H237.3Q237.1 -0.6 236.8 -0.4Q236.5 -0.1 236.2 -0.0Q235.8 0.1 235.4 0.1Z M242.7 0.1Q242.0 0.1 241.4 -0.1Q240.9 -0.3 240.5 -0.7Q240.2 -1.1 240.2 -1.6L240.2 -1.6H241.3L241.3 -1.6Q241.4 -1.3 241.8 -1.0Q242.2 -0.8 242.7 -0.8Q243.1 -0.8 243.5 -0.9Q243.8 -1.0 243.9 -1.2Q244.1 -1.4 244.1 -1.7V-1.7Q244.1 -2.0 243.9 -2.3Q243.6 -2.5 243.1 -2.6L242.1 -2.8Q241.5 -3.0 241.1 -3.2Q240.7 -3.4 240.5 -3.8Q240.3 -4.1 240.3 -4.6V-4.6Q240.3 -5.1 240.6 -5.5Q241.0 -6.0 241.5 -6.2Q242.0 -6.4 242.7 -6.4Q243.4 -6.4 244.0 -6.2Q244.5 -6.0 244.8 -5.6Q245.1 -5.2 245.2 -4.7L245.2 -4.7H244.1L244.1 -4.7Q244.0 -5.1 243.6 -5.3Q243.3 -5.5 242.7 -5.5Q242.4 -5.5 242.1 -5.4Q241.8 -5.3 241.6 -5.1Q241.5 -4.9 241.5 -4.6V-4.6Q241.5 -4.4 241.6 -4.3Q241.7 -4.1 241.9 -4.0Q242.2 -3.9 242.5 -3.8L243.5 -3.5Q244.1 -3.4 244.5 -3.2Q244.9 -2.9 245.1 -2.6Q245.3 -2.3 245.3 -1.8V-1.8Q245.3 -1.2 244.9 -0.8Q244.6 -0.4 244.0 -0.1Q243.4 0.1 242.7 0.1Z M249.6 0.1Q248.7 0.1 248.0 -0.3Q247.3 -0.7 247.0 -1.4Q246.6 -2.1 246.6 -3.1V-3.1Q246.6 -4.1 247.0 -4.9Q247.3 -5.6 248.0 -6.0Q248.6 -6.4 249.5 -6.4Q250.4 -6.4 251.0 -6.0Q251.6 -5.6 252.0 -4.9Q252.3 -4.2 252.3 -3.3V-2.9H247.2V-3.7H251.7L251.2 -2.9V-3.4Q251.2 -4.1 251.0 -4.6Q250.8 -5.0 250.4 -5.2Q250.0 -5.5 249.5 -5.5Q249.0 -5.5 248.6 -5.2Q248.2 -5.0 248.0 -4.5Q247.8 -4.1 247.8 -3.4V-2.9Q247.8 -2.3 248.0 -1.8Q248.2 -1.3 248.6 -1.1Q249.0 -0.9 249.6 -0.9Q250.0 -0.9 250.3 -1.0Q250.6 -1.1 250.8 -1.3Q251.0 -1.4 251.1 -1.6L251.1 -1.7L252.2 -1.7L252.2 -1.6Q252.2 -1.3 251.9 -1.0Q251.7 -0.7 251.4 -0.4Q251.1 -0.2 250.6 -0.0Q250.2 0.1 249.6 0.1Z M256.3 0.0Q255.3 0.0 254.8 -0.3Q254.4 -0.7 254.4 -1.7V-5.4H253.4V-6.3H254.4V-7.9H255.6V-6.3H256.9V-5.4H255.6V-1.9Q255.6 -1.4 255.8 -1.2Q256.0 -0.9 256.5 -0.9Q256.6 -0.9 256.7 -0.9Q256.8 -0.9 256.9 -0.9V-0.0Q256.8 0.0 256.6 0.0Q256.5 0.0 256.3 0.0Z"/></g><g transform="translate(46,91)" fill="#9CA3AF"><path d="M3.2 0.1Q2.4 0.1 1.9 -0.3Q1.3 -0.7 0.9 -1.4Q0.6 -2.2 0.6 -3.2V-3.2Q0.6 -4.2 0.9 -4.9Q1.3 -5.6 1.8 -6.0Q2.4 -6.4 3.2 -6.4Q3.7 -6.4 4.1 -6.3Q4.4 -6.2 4.7 -5.9Q5.0 -5.7 5.2 -5.3H5.3V-8.8H6.4V0.0H5.3V-1.0H5.2Q5.0 -0.7 4.7 -0.4Q4.4 -0.2 4.1 -0.0Q3.7 0.1 3.2 0.1ZM3.5 -0.9Q4.1 -0.9 4.5 -1.2Q4.9 -1.4 5.1 -1.9Q5.3 -2.5 5.3 -3.2V-3.2Q5.3 -3.9 5.1 -4.4Q4.9 -4.9 4.5 -5.2Q4.1 -5.5 3.5 -5.5Q3.0 -5.5 2.6 -5.2Q2.2 -4.9 2.0 -4.4Q1.8 -3.9 1.8 -3.2V-3.2Q1.8 -2.5 2.0 -1.9Q2.2 -1.4 2.6 -1.2Q3.0 -0.9 3.5 -0.9Z M11.1 0.1Q10.2 0.1 9.5 -0.3Q8.9 -0.7 8.5 -1.4Q8.2 -2.1 8.2 -3.1V-3.1Q8.2 -4.1 8.5 -4.9Q8.9 -5.6 9.5 -6.0Q10.2 -6.4 11.0 -6.4Q11.9 -6.4 12.5 -6.0Q13.2 -5.6 13.5 -4.9Q13.8 -4.2 13.8 -3.3V-2.9H8.7V-3.7H13.3L12.7 -2.9V-3.4Q12.7 -4.1 12.5 -4.6Q12.3 -5.0 11.9 -5.2Q11.5 -5.5 11.0 -5.5Q10.5 -5.5 10.2 -5.2Q9.8 -5.0 9.5 -4.5Q9.3 -4.1 9.3 -3.4V-2.9Q9.3 -2.3 9.5 -1.8Q9.8 -1.3 10.2 -1.1Q10.6 -0.9 11.1 -0.9Q11.5 -0.9 11.9 -1.0Q12.2 -1.1 12.4 -1.3Q12.6 -1.4 12.6 -1.6L12.7 -1.7L13.8 -1.7L13.8 -1.6Q13.7 -1.3 13.5 -1.0Q13.3 -0.7 12.9 -0.4Q12.6 -0.2 12.1 -0.0Q11.7 0.1 11.1 0.1Z M18.1 0.1Q17.2 0.1 16.6 -0.3Q15.9 -0.7 15.6 -1.4Q15.2 -2.1 15.2 -3.1V-3.1Q15.2 -4.1 15.6 -4.9Q15.9 -5.6 16.6 -6.0Q17.2 -6.4 18.1 -6.4Q18.9 -6.4 19.6 -6.0Q20.2 -5.6 20.5 -4.9Q20.9 -4.2 20.9 -3.3V-2.9H15.8V-3.7H20.3L19.8 -2.9V-3.4Q19.8 -4.1 19.5 -4.6Q19.3 -5.0 18.9 -5.2Q18.6 -5.5 18.1 -5.5Q17.6 -5.5 17.2 -5.2Q16.8 -5.0 16.6 -4.5Q16.4 -4.1 16.4 -3.4V-2.9Q16.4 -2.3 16.6 -1.8Q16.8 -1.3 17.2 -1.1Q17.6 -0.9 18.2 -0.9Q18.6 -0.9 18.9 -1.0Q19.2 -1.1 19.4 -1.3Q19.6 -1.4 19.7 -1.6L19.7 -1.7L20.8 -1.7L20.8 -1.6Q20.7 -1.3 20.5 -1.0Q20.3 -0.7 20.0 -0.4Q19.6 -0.2 19.2 -0.0Q18.7 0.1 18.1 0.1Z M22.6 2.1V-6.3H23.7V-5.3H23.8Q24.0 -5.7 24.3 -5.9Q24.5 -6.2 24.9 -6.3Q25.3 -6.4 25.7 -6.4Q26.5 -6.4 27.1 -6.0Q27.7 -5.6 28.1 -4.9Q28.4 -4.2 28.4 -3.2V-3.2Q28.4 -2.2 28.1 -1.4Q27.7 -0.7 27.1 -0.3Q26.5 0.1 25.7 0.1Q25.3 0.1 24.9 -0.0Q24.5 -0.2 24.2 -0.4Q24.0 -0.7 23.8 -1.0H23.7V2.1ZM25.4 -0.9Q26.0 -0.9 26.4 -1.2Q26.8 -1.4 27.0 -1.9Q27.2 -2.5 27.2 -3.2V-3.2Q27.2 -3.9 27.0 -4.4Q26.8 -4.9 26.4 -5.2Q26.0 -5.5 25.4 -5.5Q24.9 -5.5 24.5 -5.2Q24.1 -4.9 23.9 -4.4Q23.7 -3.9 23.7 -3.2V-3.2Q23.7 -2.5 23.9 -1.9Q24.1 -1.4 24.5 -1.2Q24.9 -0.9 25.4 -0.9Z M33.5 0.0V-6.3H34.6V-5.4H34.7Q34.9 -5.9 35.3 -6.2Q35.8 -6.4 36.4 -6.4Q36.5 -6.4 36.7 -6.4Q36.8 -6.4 36.9 -6.4V-5.3Q36.8 -5.3 36.6 -5.4Q36.5 -5.4 36.3 -5.4Q35.8 -5.4 35.4 -5.2Q35.1 -5.0 34.8 -4.7Q34.6 -4.3 34.6 -3.9V0.0Z M39.0 -3.0V-4.0H41.4Q42.2 -4.0 42.7 -4.4Q43.2 -4.9 43.2 -5.7V-5.7Q43.2 -6.5 42.7 -7.0Q42.2 -7.4 41.4 -7.4H39.0V-8.5H41.7Q42.5 -8.5 43.1 -8.1Q43.7 -7.8 44.1 -7.2Q44.4 -6.5 44.4 -5.7V-5.7Q44.4 -4.9 44.1 -4.3Q43.7 -3.7 43.1 -3.3Q42.5 -3.0 41.7 -3.0ZM38.4 0.0V-8.5H39.6V0.0Z M46.8 -3.0V-4.0H49.2Q50.1 -4.0 50.6 -4.4Q51.0 -4.9 51.0 -5.7V-5.7Q51.0 -6.5 50.6 -7.0Q50.1 -7.4 49.2 -7.4H46.8V-8.5H49.5Q50.3 -8.5 50.9 -8.1Q51.5 -7.8 51.9 -7.2Q52.2 -6.5 52.2 -5.7V-5.7Q52.2 -4.9 51.9 -4.3Q51.5 -3.7 50.9 -3.3Q50.3 -3.0 49.5 -3.0ZM46.3 0.0V-8.5H47.4V0.0Z M57.6 0.2Q56.7 0.2 56.0 -0.1Q55.3 -0.4 54.8 -1.0Q54.3 -1.6 54.0 -2.4Q53.7 -3.2 53.7 -4.2V-4.2Q53.7 -5.6 54.2 -6.6Q54.7 -7.6 55.6 -8.1Q56.4 -8.7 57.6 -8.7Q58.5 -8.7 59.3 -8.3Q60.0 -8.0 60.5 -7.4Q61.0 -6.8 61.2 -6.0L61.2 -5.9H60.0L60.0 -6.0Q59.7 -6.8 59.1 -7.2Q58.5 -7.6 57.6 -7.6Q56.8 -7.6 56.2 -7.2Q55.6 -6.8 55.3 -6.0Q54.9 -5.3 54.9 -4.2V-4.2Q54.9 -3.5 55.1 -2.8Q55.3 -2.2 55.7 -1.8Q56.0 -1.3 56.5 -1.1Q57.0 -0.9 57.6 -0.9Q58.3 -0.9 58.9 -1.1Q59.4 -1.4 59.7 -2.0Q60.1 -2.5 60.1 -3.2L60.1 -3.3H57.8V-4.3H61.2V-3.3Q61.2 -2.5 61.0 -1.9Q60.7 -1.2 60.2 -0.8Q59.8 -0.3 59.1 -0.0Q58.4 0.2 57.6 0.2Z M63.9 0.1Q63.6 0.1 63.4 -0.2Q63.1 -0.4 63.1 -0.7Q63.1 -1.1 63.4 -1.3Q63.6 -1.5 63.9 -1.5Q64.3 -1.5 64.5 -1.3Q64.7 -1.1 64.7 -0.7Q64.7 -0.4 64.5 -0.2Q64.3 0.1 63.9 0.1Z M73.8 0.2Q72.7 0.2 71.8 -0.3Q71.0 -0.9 70.5 -1.9Q70.1 -2.9 70.1 -4.2V-4.2Q70.1 -5.6 70.5 -6.6Q71.0 -7.6 71.8 -8.1Q72.7 -8.7 73.8 -8.7Q74.7 -8.7 75.5 -8.3Q76.2 -7.9 76.7 -7.3Q77.2 -6.7 77.3 -5.9L77.3 -5.8H76.1L76.1 -5.9Q76.0 -6.4 75.7 -6.8Q75.3 -7.2 74.9 -7.4Q74.4 -7.6 73.8 -7.6Q73.0 -7.6 72.5 -7.2Q71.9 -6.8 71.6 -6.0Q71.3 -5.3 71.3 -4.2V-4.2Q71.3 -3.2 71.6 -2.4Q71.9 -1.7 72.5 -1.3Q73.0 -0.9 73.8 -0.9Q74.4 -0.9 74.9 -1.1Q75.3 -1.2 75.7 -1.6Q76.0 -1.9 76.1 -2.4L76.1 -2.4H77.3L77.3 -2.4Q77.2 -1.6 76.7 -1.0Q76.2 -0.5 75.5 -0.1Q74.8 0.2 73.8 0.2Z M80.8 0.1Q80.2 0.1 79.7 -0.1Q79.2 -0.4 78.9 -0.8Q78.7 -1.2 78.7 -1.8V-1.8Q78.7 -2.3 78.9 -2.8Q79.2 -3.2 79.7 -3.4Q80.3 -3.6 81.0 -3.7L83.3 -3.8V-2.9L81.1 -2.8Q80.5 -2.8 80.1 -2.5Q79.8 -2.3 79.8 -1.8V-1.8Q79.8 -1.3 80.2 -1.1Q80.5 -0.8 81.0 -0.8Q81.5 -0.8 81.9 -1.0Q82.3 -1.2 82.5 -1.6Q82.8 -1.9 82.8 -2.4V-4.3Q82.8 -4.9 82.4 -5.2Q82.1 -5.5 81.4 -5.5Q80.9 -5.5 80.5 -5.3Q80.1 -5.1 80.0 -4.7L80.0 -4.7H78.9L78.9 -4.7Q79.0 -5.3 79.3 -5.6Q79.7 -6.0 80.2 -6.2Q80.7 -6.4 81.4 -6.4Q82.2 -6.4 82.8 -6.2Q83.3 -5.9 83.6 -5.5Q83.9 -5.0 83.9 -4.3V0.0H82.8V-0.9H82.7Q82.5 -0.6 82.2 -0.4Q81.9 -0.1 81.6 -0.0Q81.2 0.1 80.8 0.1Z M87.6 0.0 85.3 -6.3H86.5L88.2 -1.2H88.3L89.9 -6.3H91.1L88.8 0.0Z M95.2 0.1Q94.3 0.1 93.6 -0.3Q92.9 -0.7 92.6 -1.4Q92.2 -2.1 92.2 -3.1V-3.1Q92.2 -4.1 92.6 -4.9Q92.9 -5.6 93.6 -6.0Q94.2 -6.4 95.1 -6.4Q96.0 -6.4 96.6 -6.0Q97.2 -5.6 97.6 -4.9Q97.9 -4.2 97.9 -3.3V-2.9H92.8V-3.7H97.3L96.8 -2.9V-3.4Q96.8 -4.1 96.6 -4.6Q96.3 -5.0 96.0 -5.2Q95.6 -5.5 95.1 -5.5Q94.6 -5.5 94.2 -5.2Q93.8 -5.0 93.6 -4.5Q93.4 -4.1 93.4 -3.4V-2.9Q93.4 -2.3 93.6 -1.8Q93.8 -1.3 94.2 -1.1Q94.6 -0.9 95.2 -0.9Q95.6 -0.9 95.9 -1.0Q96.2 -1.1 96.4 -1.3Q96.6 -1.4 96.7 -1.6L96.7 -1.7L97.8 -1.7L97.8 -1.6Q97.7 -1.3 97.5 -1.0Q97.3 -0.7 97.0 -0.4Q96.7 -0.2 96.2 -0.0Q95.7 0.1 95.2 0.1Z M101.3 0.1Q100.7 0.1 100.2 -0.1Q99.8 -0.4 99.5 -0.8Q99.2 -1.2 99.2 -1.8V-1.8Q99.2 -2.3 99.5 -2.8Q99.8 -3.2 100.3 -3.4Q100.8 -3.6 101.5 -3.7L103.9 -3.8V-2.9L101.7 -2.8Q101.0 -2.8 100.7 -2.5Q100.4 -2.3 100.4 -1.8V-1.8Q100.4 -1.3 100.7 -1.1Q101.1 -0.8 101.6 -0.8Q102.1 -0.8 102.5 -1.0Q102.9 -1.2 103.1 -1.6Q103.3 -1.9 103.3 -2.4V-4.3Q103.3 -4.9 103.0 -5.2Q102.6 -5.5 102.0 -5.5Q101.4 -5.5 101.1 -5.3Q100.7 -5.1 100.6 -4.7L100.6 -4.7H99.5L99.5 -4.7Q99.5 -5.3 99.9 -5.6Q100.2 -6.0 100.8 -6.2Q101.3 -6.4 102.0 -6.4Q102.8 -6.4 103.3 -6.2Q103.9 -5.9 104.2 -5.5Q104.4 -5.0 104.4 -4.3V0.0H103.3V-0.9H103.2Q103.0 -0.6 102.7 -0.4Q102.5 -0.1 102.1 -0.0Q101.7 0.1 101.3 0.1Z M108.7 0.0Q107.7 0.0 107.3 -0.3Q106.8 -0.7 106.8 -1.7V-5.4H105.8V-6.3H106.8V-7.9H108.0V-6.3H109.3V-5.4H108.0V-1.9Q108.0 -1.4 108.2 -1.2Q108.4 -0.9 108.9 -0.9Q109.0 -0.9 109.1 -0.9Q109.2 -0.9 109.3 -0.9V-0.0Q109.2 0.0 109.0 0.0Q108.9 0.0 108.7 0.0Z M113.2 0.1Q112.5 0.1 111.9 -0.1Q111.4 -0.3 111.0 -0.7Q110.7 -1.1 110.7 -1.6L110.7 -1.6H111.8L111.8 -1.6Q111.9 -1.3 112.3 -1.0Q112.6 -0.8 113.2 -0.8Q113.6 -0.8 114.0 -0.9Q114.3 -1.0 114.4 -1.2Q114.6 -1.4 114.6 -1.7V-1.7Q114.6 -2.0 114.4 -2.3Q114.1 -2.5 113.6 -2.6L112.6 -2.8Q112.0 -3.0 111.6 -3.2Q111.2 -3.4 111.0 -3.8Q110.8 -4.1 110.8 -4.6V-4.6Q110.8 -5.1 111.1 -5.5Q111.5 -6.0 112.0 -6.2Q112.5 -6.4 113.2 -6.4Q113.9 -6.4 114.5 -6.2Q115.0 -6.0 115.3 -5.6Q115.6 -5.2 115.7 -4.7L115.7 -4.7H114.6L114.6 -4.7Q114.5 -5.1 114.1 -5.3Q113.8 -5.5 113.2 -5.5Q112.9 -5.5 112.6 -5.4Q112.3 -5.3 112.1 -5.1Q112.0 -4.9 112.0 -4.6V-4.6Q112.0 -4.4 112.1 -4.3Q112.2 -4.1 112.4 -4.0Q112.6 -3.9 113.0 -3.8L114.0 -3.5Q114.6 -3.4 115.0 -3.2Q115.4 -2.9 115.6 -2.6Q115.8 -2.3 115.8 -1.8V-1.8Q115.8 -1.2 115.4 -0.8Q115.1 -0.4 114.5 -0.1Q113.9 0.1 113.2 0.1Z M123.1 0.1Q122.4 0.1 121.8 -0.1Q121.3 -0.3 121.0 -0.7Q120.6 -1.1 120.6 -1.6L120.6 -1.6H121.7L121.7 -1.6Q121.8 -1.3 122.2 -1.0Q122.6 -0.8 123.2 -0.8Q123.6 -0.8 123.9 -0.9Q124.2 -1.0 124.4 -1.2Q124.5 -1.4 124.5 -1.7V-1.7Q124.5 -2.0 124.3 -2.3Q124.1 -2.5 123.5 -2.6L122.5 -2.8Q121.9 -3.0 121.5 -3.2Q121.1 -3.4 120.9 -3.8Q120.8 -4.1 120.8 -4.6V-4.6Q120.8 -5.1 121.1 -5.5Q121.4 -6.0 121.9 -6.2Q122.5 -6.4 123.2 -6.4Q123.8 -6.4 124.4 -6.2Q124.9 -6.0 125.2 -5.6Q125.5 -5.2 125.6 -4.7L125.6 -4.7H124.5L124.5 -4.7Q124.4 -5.1 124.1 -5.3Q123.7 -5.5 123.1 -5.5Q122.8 -5.5 122.5 -5.4Q122.2 -5.3 122.1 -5.1Q121.9 -4.9 121.9 -4.6V-4.6Q121.9 -4.4 122.0 -4.3Q122.1 -4.1 122.3 -4.0Q122.6 -3.9 122.9 -3.8L123.9 -3.5Q124.5 -3.4 124.9 -3.2Q125.3 -2.9 125.5 -2.6Q125.7 -2.3 125.7 -1.8V-1.8Q125.7 -1.2 125.4 -0.8Q125.0 -0.4 124.4 -0.1Q123.9 0.1 123.1 0.1Z M129.7 0.0Q128.7 0.0 128.2 -0.3Q127.8 -0.7 127.8 -1.7V-5.4H126.8V-6.3H127.8V-7.9H129.0V-6.3H130.3V-5.4H129.0V-1.9Q129.0 -1.4 129.2 -1.2Q129.4 -0.9 129.8 -0.9Q130.0 -0.9 130.1 -0.9Q130.2 -0.9 130.3 -0.9V-0.0Q130.2 0.0 130.0 0.0Q129.9 0.0 129.7 0.0Z M133.7 0.1Q133.1 0.1 132.6 -0.1Q132.1 -0.4 131.9 -0.8Q131.6 -1.2 131.6 -1.8V-1.8Q131.6 -2.3 131.9 -2.8Q132.1 -3.2 132.7 -3.4Q133.2 -3.6 133.9 -3.7L136.3 -3.8V-2.9L134.1 -2.8Q133.4 -2.8 133.1 -2.5Q132.7 -2.3 132.7 -1.8V-1.8Q132.7 -1.3 133.1 -1.1Q133.4 -0.8 134.0 -0.8Q134.5 -0.8 134.9 -1.0Q135.2 -1.2 135.5 -1.6Q135.7 -1.9 135.7 -2.4V-4.3Q135.7 -4.9 135.3 -5.2Q135.0 -5.5 134.3 -5.5Q133.8 -5.5 133.4 -5.3Q133.1 -5.1 133.0 -4.7L132.9 -4.7H131.8L131.8 -4.7Q131.9 -5.3 132.3 -5.6Q132.6 -6.0 133.1 -6.2Q133.7 -6.4 134.4 -6.4Q135.2 -6.4 135.7 -6.2Q136.2 -5.9 136.5 -5.5Q136.8 -5.0 136.8 -4.3V0.0H135.7V-0.9H135.6Q135.4 -0.6 135.1 -0.4Q134.8 -0.1 134.5 -0.0Q134.1 0.1 133.7 0.1Z M141.1 0.0Q140.1 0.0 139.6 -0.3Q139.2 -0.7 139.2 -1.7V-5.4H138.2V-6.3H139.2V-7.9H140.3V-6.3H141.7V-5.4H140.3V-1.9Q140.3 -1.4 140.6 -1.2Q140.8 -0.9 141.2 -0.9Q141.4 -0.9 141.5 -0.9Q141.6 -0.9 141.7 -0.9V-0.0Q141.6 0.0 141.4 0.0Q141.2 0.0 141.1 0.0Z M146.0 0.1Q145.0 0.1 144.4 -0.3Q143.7 -0.7 143.4 -1.4Q143.0 -2.1 143.0 -3.1V-3.1Q143.0 -4.1 143.4 -4.9Q143.7 -5.6 144.4 -6.0Q145.0 -6.4 145.9 -6.4Q146.8 -6.4 147.4 -6.0Q148.0 -5.6 148.4 -4.9Q148.7 -4.2 148.7 -3.3V-2.9H143.6V-3.7H148.1L147.6 -2.9V-3.4Q147.6 -4.1 147.4 -4.6Q147.1 -5.0 146.8 -5.2Q146.4 -5.5 145.9 -5.5Q145.4 -5.5 145.0 -5.2Q144.6 -5.0 144.4 -4.5Q144.2 -4.1 144.2 -3.4V-2.9Q144.2 -2.3 144.4 -1.8Q144.6 -1.3 145.0 -1.1Q145.4 -0.9 146.0 -0.9Q146.4 -0.9 146.7 -1.0Q147.0 -1.1 147.2 -1.3Q147.4 -1.4 147.5 -1.6L147.5 -1.7L148.6 -1.7L148.6 -1.6Q148.5 -1.3 148.3 -1.0Q148.1 -0.7 147.8 -0.4Q147.5 -0.2 147.0 -0.0Q146.5 0.1 146.0 0.1Z M152.7 0.1Q151.9 0.1 151.3 -0.3Q150.7 -0.7 150.4 -1.4Q150.1 -2.2 150.1 -3.2V-3.2Q150.1 -4.2 150.4 -4.9Q150.7 -5.6 151.3 -6.0Q151.9 -6.4 152.7 -6.4Q153.1 -6.4 153.5 -6.3Q153.9 -6.2 154.2 -5.9Q154.5 -5.7 154.7 -5.3H154.8V-8.8H155.9V0.0H154.8V-1.0H154.7Q154.5 -0.7 154.2 -0.4Q153.9 -0.2 153.5 -0.0Q153.1 0.1 152.7 0.1ZM153.0 -0.9Q153.5 -0.9 153.9 -1.2Q154.3 -1.4 154.6 -1.9Q154.8 -2.5 154.8 -3.2V-3.2Q154.8 -3.9 154.6 -4.4Q154.3 -4.9 153.9 -5.2Q153.5 -5.5 153.0 -5.5Q152.4 -5.5 152.0 -5.2Q151.6 -4.9 151.4 -4.4Q151.2 -3.9 151.2 -3.2V-3.2Q151.2 -2.5 151.4 -1.9Q151.6 -1.4 152.0 -1.2Q152.4 -0.9 153.0 -0.9Z M163.5 0.1Q162.8 0.1 162.3 -0.2Q161.8 -0.4 161.6 -1.0Q161.3 -1.5 161.3 -2.2V-6.3H162.5V-2.5Q162.5 -1.7 162.8 -1.3Q163.1 -0.9 163.8 -0.9Q164.2 -0.9 164.5 -1.0Q164.8 -1.1 165.0 -1.3Q165.3 -1.6 165.4 -1.9Q165.5 -2.2 165.5 -2.6V-6.3H166.6V0.0H165.5V-0.9H165.4Q165.2 -0.6 165.0 -0.4Q164.7 -0.1 164.3 -0.0Q164.0 0.1 163.5 0.1Z M168.6 2.1V-6.3H169.7V-5.3H169.8Q170.0 -5.7 170.3 -5.9Q170.6 -6.2 171.0 -6.3Q171.3 -6.4 171.8 -6.4Q172.6 -6.4 173.2 -6.0Q173.8 -5.6 174.1 -4.9Q174.4 -4.2 174.4 -3.2V-3.2Q174.4 -2.2 174.1 -1.4Q173.8 -0.7 173.2 -0.3Q172.6 0.1 171.8 0.1Q171.3 0.1 171.0 -0.0Q170.6 -0.2 170.3 -0.4Q170.0 -0.7 169.8 -1.0H169.7V2.1ZM171.5 -0.9Q172.0 -0.9 172.4 -1.2Q172.8 -1.4 173.0 -1.9Q173.3 -2.5 173.3 -3.2V-3.2Q173.3 -3.9 173.0 -4.4Q172.8 -4.9 172.4 -5.2Q172.0 -5.5 171.5 -5.5Q170.9 -5.5 170.5 -5.2Q170.1 -4.9 169.9 -4.4Q169.7 -3.9 169.7 -3.2V-3.2Q169.7 -2.5 169.9 -1.9Q170.1 -1.4 170.5 -1.2Q170.9 -0.9 171.5 -0.9Z M180.0 0.0V-5.4H178.9V-6.3H180.0V-7.0Q180.0 -7.6 180.2 -8.1Q180.4 -8.5 180.8 -8.7Q181.2 -8.9 181.9 -8.9Q182.1 -8.9 182.2 -8.9Q182.4 -8.9 182.6 -8.8V-8.0Q182.5 -8.0 182.4 -8.0Q182.2 -8.0 182.1 -8.0Q181.6 -8.0 181.3 -7.7Q181.1 -7.5 181.1 -7.0V-6.3H182.5V-5.4H181.1V0.0Z M184.1 0.0V-6.3H185.2V-5.4H185.3Q185.5 -5.9 185.9 -6.2Q186.4 -6.4 187.0 -6.4Q187.1 -6.4 187.3 -6.4Q187.4 -6.4 187.5 -6.4V-5.3Q187.4 -5.3 187.2 -5.4Q187.0 -5.4 186.9 -5.4Q186.4 -5.4 186.0 -5.2Q185.6 -5.0 185.4 -4.7Q185.2 -4.3 185.2 -3.9V0.0Z M191.5 0.1Q190.6 0.1 189.9 -0.3Q189.3 -0.7 188.9 -1.4Q188.6 -2.1 188.6 -3.2V-3.2Q188.6 -4.2 188.9 -4.9Q189.3 -5.7 189.9 -6.1Q190.6 -6.4 191.5 -6.4Q192.4 -6.4 193.1 -6.1Q193.8 -5.7 194.1 -4.9Q194.5 -4.2 194.5 -3.2V-3.2Q194.5 -2.1 194.1 -1.4Q193.8 -0.7 193.1 -0.3Q192.4 0.1 191.5 0.1ZM191.5 -0.9Q192.1 -0.9 192.5 -1.1Q192.9 -1.4 193.1 -1.9Q193.3 -2.4 193.3 -3.2V-3.2Q193.3 -3.9 193.1 -4.4Q192.9 -4.9 192.5 -5.2Q192.1 -5.5 191.5 -5.5Q190.9 -5.5 190.5 -5.2Q190.1 -4.9 189.9 -4.4Q189.7 -3.9 189.7 -3.2V-3.2Q189.7 -2.4 189.9 -1.9Q190.1 -1.4 190.5 -1.1Q190.9 -0.9 191.5 -0.9Z M196.1 0.0V-6.3H197.3V-5.4H197.4Q197.6 -5.9 198.1 -6.2Q198.5 -6.4 199.2 -6.4Q200.3 -6.4 200.9 -5.8Q201.4 -5.2 201.4 -4.1V0.0H200.3V-3.8Q200.3 -4.7 199.9 -5.1Q199.6 -5.5 198.9 -5.5Q198.4 -5.5 198.0 -5.2Q197.7 -5.0 197.5 -4.7Q197.3 -4.3 197.3 -3.7V0.0Z M205.7 0.0Q204.7 0.0 204.2 -0.3Q203.8 -0.7 203.8 -1.7V-5.4H202.8V-6.3H203.8V-7.9H204.9V-6.3H206.3V-5.4H204.9V-1.9Q204.9 -1.4 205.1 -1.2Q205.3 -0.9 205.8 -0.9Q206.0 -0.9 206.1 -0.9Q206.2 -0.9 206.3 -0.9V-0.0Q206.1 0.0 206.0 0.0Q205.8 0.0 205.7 0.0Z M208.8 0.1Q208.5 0.1 208.2 -0.2Q208.0 -0.4 208.0 -0.7Q208.0 -1.1 208.2 -1.3Q208.5 -1.5 208.8 -1.5Q209.2 -1.5 209.4 -1.3Q209.6 -1.1 209.6 -0.7Q209.6 -0.4 209.4 -0.2Q209.2 0.1 208.8 0.1Z"/></g><circle cx="51.0" cy="123" r="4.5" fill="#3572A5"/><g transform="translate(61.0,127)" fill="#9CA3AF"><path d="M1.5 -2.5V-3.5H3.5Q4.3 -3.5 4.7 -3.9Q5.1 -4.3 5.1 -4.9V-4.9Q5.1 -5.6 4.7 -6.0Q4.3 -6.4 3.5 -6.4H1.5V-7.4H3.8Q4.6 -7.4 5.1 -7.1Q5.7 -6.8 6.0 -6.2Q6.3 -5.7 6.3 -4.9V-4.9Q6.3 -4.2 6.0 -3.6Q5.7 -3.1 5.1 -2.8Q4.6 -2.5 3.8 -2.5ZM0.9 0.0V-7.4H2.2V0.0Z M8.5 2.0Q8.3 2.0 8.2 2.0Q8.1 2.0 8.0 1.9V1.0Q8.1 1.0 8.2 1.0Q8.3 1.0 8.4 1.0Q8.7 1.0 9.0 0.8Q9.2 0.7 9.3 0.3L9.4 0.0L7.4 -5.6H8.7L10.2 -0.6L9.9 -1.2H10.3L10.0 -0.6L11.5 -5.6H12.8L10.7 0.2Q10.5 0.8 10.2 1.2Q9.9 1.6 9.5 1.8Q9.1 2.0 8.5 2.0Z M16.2 0.0Q15.3 0.0 14.9 -0.3Q14.5 -0.7 14.5 -1.5V-4.6H13.6V-5.6H14.5V-7.0H15.7V-5.6H16.9V-4.6H15.7V-1.8Q15.7 -1.3 15.9 -1.1Q16.1 -1.0 16.5 -1.0Q16.6 -1.0 16.7 -1.0Q16.8 -1.0 16.9 -1.0V-0.0Q16.7 -0.0 16.6 0.0Q16.4 0.0 16.2 0.0Z M18.4 0.0V-7.8H19.6V-4.7H19.7Q19.9 -5.2 20.3 -5.4Q20.7 -5.7 21.3 -5.7Q22.0 -5.7 22.4 -5.5Q22.8 -5.2 23.0 -4.7Q23.3 -4.3 23.3 -3.6V0.0H22.1V-3.3Q22.1 -4.0 21.8 -4.3Q21.5 -4.7 20.9 -4.7Q20.5 -4.7 20.2 -4.5Q19.9 -4.3 19.8 -4.0Q19.6 -3.7 19.6 -3.3V0.0Z M27.4 0.1Q26.6 0.1 26.0 -0.2Q25.4 -0.6 25.0 -1.2Q24.7 -1.9 24.7 -2.8V-2.8Q24.7 -3.7 25.0 -4.4Q25.4 -5.0 26.0 -5.3Q26.6 -5.7 27.4 -5.7Q28.2 -5.7 28.8 -5.4Q29.4 -5.0 29.7 -4.4Q30.1 -3.7 30.1 -2.8V-2.8Q30.1 -1.9 29.7 -1.2Q29.4 -0.6 28.8 -0.2Q28.2 0.1 27.4 0.1ZM27.4 -0.9Q27.8 -0.9 28.2 -1.1Q28.5 -1.3 28.6 -1.8Q28.8 -2.2 28.8 -2.8V-2.8Q28.8 -3.4 28.6 -3.8Q28.5 -4.3 28.2 -4.5Q27.8 -4.7 27.4 -4.7Q26.9 -4.7 26.6 -4.5Q26.3 -4.3 26.1 -3.8Q26.0 -3.4 26.0 -2.8V-2.8Q26.0 -2.2 26.1 -1.8Q26.3 -1.3 26.6 -1.1Q26.9 -0.9 27.4 -0.9Z M31.6 0.0V-5.6H32.8V-4.7H32.9Q33.1 -5.2 33.5 -5.4Q33.9 -5.7 34.5 -5.7Q35.4 -5.7 35.9 -5.2Q36.4 -4.6 36.4 -3.6V0.0H35.2V-3.3Q35.2 -4.0 34.9 -4.3Q34.6 -4.7 34.0 -4.7Q33.6 -4.7 33.4 -4.5Q33.1 -4.3 32.9 -4.0Q32.8 -3.7 32.8 -3.3V0.0Z"/></g><circle cx="121.3" cy="123" r="4.5" fill="#6B7280"/><g transform="translate(131.3,127)" fill="#9CA3AF"><path d="M0.9 0.0V-7.4H2.4L4.6 -1.6H4.7L7.0 -7.4H8.4V0.0H7.3V-5.3H6.7L8.0 -7.2L5.1 0.0H4.2L1.4 -7.2L2.7 -5.3H2.1V0.0Z M10.5 0.0V-7.4H11.7V0.0Z M15.6 0.0V-6.3H13.3V-7.4H19.2V-6.3H16.9V0.0Z"/></g><circle cx="174.2" cy="123" r="4.5" fill="#6B7280"/><g transform="translate(184.2,127)" fill="#9CA3AF"><path d="M0.8 0.0V-5.6H2.0V-4.7H2.1Q2.2 -5.2 2.6 -5.4Q3.0 -5.7 3.5 -5.7Q3.7 -5.7 3.8 -5.7Q4.0 -5.7 4.0 -5.6V-4.5Q3.9 -4.6 3.7 -4.6Q3.6 -4.6 3.4 -4.6Q3.0 -4.6 2.7 -4.4Q2.4 -4.3 2.2 -4.0Q2.0 -3.7 2.0 -3.3V0.0Z M7.7 0.1Q6.8 0.1 6.2 -0.2Q5.7 -0.6 5.3 -1.2Q5.0 -1.9 5.0 -2.8V-2.8Q5.0 -3.7 5.3 -4.3Q5.6 -5.0 6.2 -5.3Q6.8 -5.7 7.6 -5.7Q8.4 -5.7 9.0 -5.3Q9.5 -5.0 9.8 -4.4Q10.2 -3.7 10.2 -2.9V-2.5H5.6V-3.3H9.6L9.0 -2.5V-3.0Q9.0 -3.6 8.8 -4.0Q8.6 -4.4 8.3 -4.5Q8.0 -4.7 7.6 -4.7Q7.2 -4.7 6.9 -4.5Q6.6 -4.3 6.4 -4.0Q6.2 -3.6 6.2 -3.0V-2.5Q6.2 -2.0 6.4 -1.6Q6.6 -1.3 6.9 -1.1Q7.2 -0.9 7.7 -0.9Q8.0 -0.9 8.3 -1.0Q8.5 -1.1 8.7 -1.2Q8.9 -1.3 8.9 -1.5L8.9 -1.5L10.1 -1.5L10.1 -1.5Q10.0 -1.2 9.8 -0.9Q9.7 -0.6 9.4 -0.4Q9.1 -0.2 8.6 -0.0Q8.2 0.1 7.7 0.1Z M13.7 0.1Q13.0 0.1 12.5 -0.1Q12.0 -0.3 11.7 -0.6Q11.4 -1.0 11.4 -1.5L11.4 -1.5H12.6L12.6 -1.5Q12.7 -1.2 13.0 -1.0Q13.3 -0.8 13.8 -0.8Q14.1 -0.8 14.3 -0.9Q14.6 -1.0 14.7 -1.2Q14.9 -1.3 14.9 -1.5V-1.5Q14.9 -1.8 14.7 -2.0Q14.5 -2.1 14.0 -2.2L13.1 -2.4Q12.6 -2.6 12.2 -2.8Q11.9 -3.0 11.7 -3.3Q11.5 -3.6 11.5 -4.0V-4.0Q11.5 -4.5 11.8 -4.9Q12.1 -5.3 12.6 -5.5Q13.1 -5.7 13.7 -5.7Q14.4 -5.7 14.9 -5.5Q15.4 -5.3 15.7 -4.9Q15.9 -4.6 16.0 -4.1V-4.1H14.8L14.8 -4.1Q14.7 -4.4 14.5 -4.6Q14.2 -4.8 13.7 -4.8Q13.4 -4.8 13.2 -4.7Q13.0 -4.6 12.9 -4.5Q12.7 -4.3 12.7 -4.1V-4.1Q12.7 -3.9 12.8 -3.8Q12.9 -3.6 13.1 -3.6Q13.3 -3.5 13.6 -3.4L14.5 -3.2Q15.0 -3.1 15.4 -2.9Q15.7 -2.7 15.9 -2.4Q16.1 -2.1 16.1 -1.7V-1.7Q16.1 -1.1 15.8 -0.7Q15.5 -0.3 14.9 -0.1Q14.4 0.1 13.7 0.1Z M20.0 0.1Q19.1 0.1 18.5 -0.2Q17.9 -0.6 17.6 -1.2Q17.3 -1.9 17.3 -2.8V-2.8Q17.3 -3.7 17.6 -4.3Q17.9 -5.0 18.5 -5.3Q19.1 -5.7 19.9 -5.7Q20.7 -5.7 21.3 -5.3Q21.8 -5.0 22.1 -4.4Q22.5 -3.7 22.5 -2.9V-2.5H17.9V-3.3H21.9L21.3 -2.5V-3.0Q21.3 -3.6 21.1 -4.0Q20.9 -4.4 20.6 -4.5Q20.3 -4.7 19.9 -4.7Q19.5 -4.7 19.2 -4.5Q18.9 -4.3 18.7 -4.0Q18.5 -3.6 18.5 -3.0V-2.5Q18.5 -2.0 18.7 -1.6Q18.9 -1.3 19.2 -1.1Q19.5 -0.9 20.0 -0.9Q20.3 -0.9 20.6 -1.0Q20.8 -1.1 21.0 -1.2Q21.2 -1.3 21.2 -1.5L21.2 -1.5L22.4 -1.5L22.4 -1.5Q22.3 -1.2 22.1 -0.9Q22.0 -0.6 21.7 -0.4Q21.4 -0.2 20.9 -0.0Q20.5 0.1 20.0 0.1Z M25.5 0.1Q24.9 0.1 24.5 -0.1Q24.1 -0.3 23.9 -0.7Q23.6 -1.1 23.6 -1.6V-1.6Q23.6 -2.1 23.9 -2.4Q24.1 -2.8 24.6 -3.0Q25.1 -3.2 25.7 -3.2L27.8 -3.4V-2.6L25.9 -2.4Q25.4 -2.4 25.1 -2.2Q24.8 -2.0 24.8 -1.6V-1.6Q24.8 -1.3 25.1 -1.1Q25.4 -0.9 25.8 -0.9Q26.2 -0.9 26.5 -1.0Q26.9 -1.2 27.0 -1.4Q27.2 -1.7 27.2 -2.1V-3.8Q27.2 -4.3 26.9 -4.5Q26.7 -4.7 26.1 -4.7Q25.7 -4.7 25.4 -4.6Q25.1 -4.4 25.0 -4.1L25.0 -4.1H23.9L23.9 -4.1Q23.9 -4.6 24.2 -5.0Q24.5 -5.3 25.0 -5.5Q25.5 -5.7 26.2 -5.7Q26.9 -5.7 27.4 -5.5Q27.9 -5.3 28.2 -4.8Q28.4 -4.4 28.4 -3.8V0.0H27.2V-0.8H27.1Q27.0 -0.5 26.7 -0.3Q26.5 -0.1 26.2 -0.0Q25.9 0.1 25.5 0.1Z M30.2 0.0V-5.6H31.4V-4.7H31.5Q31.6 -5.2 32.0 -5.4Q32.4 -5.7 32.9 -5.7Q33.0 -5.7 33.2 -5.7Q33.3 -5.7 33.4 -5.6V-4.5Q33.3 -4.6 33.1 -4.6Q33.0 -4.6 32.8 -4.6Q32.4 -4.6 32.0 -4.4Q31.7 -4.3 31.5 -4.0Q31.4 -3.7 31.4 -3.3V0.0Z M37.0 0.1Q36.2 0.1 35.6 -0.2Q35.0 -0.6 34.7 -1.2Q34.4 -1.9 34.4 -2.8V-2.8Q34.4 -3.7 34.7 -4.4Q35.0 -5.0 35.6 -5.4Q36.2 -5.7 37.0 -5.7Q37.7 -5.7 38.3 -5.5Q38.8 -5.2 39.1 -4.8Q39.4 -4.3 39.5 -3.8L39.5 -3.8H38.3L38.3 -3.8Q38.2 -4.2 37.9 -4.4Q37.6 -4.7 37.0 -4.7Q36.6 -4.7 36.3 -4.5Q36.0 -4.3 35.8 -3.8Q35.6 -3.4 35.6 -2.8V-2.8Q35.6 -2.2 35.8 -1.8Q36.0 -1.3 36.3 -1.1Q36.6 -0.9 37.0 -0.9Q37.5 -0.9 37.9 -1.1Q38.2 -1.3 38.3 -1.8L38.3 -1.8L39.5 -1.8L39.4 -1.8Q39.4 -1.2 39.1 -0.8Q38.7 -0.4 38.2 -0.1Q37.7 0.1 37.0 0.1Z M40.9 0.0V-7.8H42.2V-4.7H42.2Q42.4 -5.2 42.8 -5.4Q43.2 -5.7 43.9 -5.7Q44.5 -5.7 44.9 -5.5Q45.3 -5.2 45.6 -4.7Q45.8 -4.3 45.8 -3.6V0.0H44.6V-3.3Q44.6 -4.0 44.3 -4.3Q44.0 -4.7 43.4 -4.7Q43.0 -4.7 42.7 -4.5Q42.5 -4.3 42.3 -4.0Q42.2 -3.7 42.2 -3.3V0.0Z"/></g>
</svg>