<svg xmlns="http://www.w3.org/2000/svg" viewBox="0 0 470 171" width="470" height="171" role="img" aria-label="rppg10-eval-harness — Camera heart-rate extraction scored against synchronized ECG. Honest numbers, including the ones that aren't good.">
  <rect x="0.75" y="0.75" width="468" height="170" rx="12" fill="#0D1117" stroke="#1F2937" stroke-width="1.5"/>
  <rect x="0.75" y="0.75" width="4" height="170" rx="2" fill="#0D9488"/>
  <circle cx="30" cy="41" r="5.5" fill="none" stroke="#0D9488" stroke-width="2"/>
  <g transform="translate(46,46)" fill="#F8F9FA"><path d="M1.1 0.0V-8.8H3.3V-7.4H3.4Q3.7 -8.1 4.2 -8.5Q4.8 -8.9 5.6 -8.9Q5.8 -8.9 6.1 -8.9Q6.3 -8.9 6.4 -8.8V-6.9Q6.2 -6.9 6.0 -7.0Q5.7 -7.0 5.4 -7.0Q4.8 -7.0 4.3 -6.8Q3.8 -6.5 3.6 -6.1Q3.3 -5.6 3.3 -5.0V0.0Z M8.0 2.9V-8.8H10.2V-7.4H10.3Q10.6 -7.9 10.9 -8.2Q11.3 -8.6 11.8 -8.8Q12.4 -8.9 13.0 -8.9Q14.1 -8.9 14.9 -8.4Q15.7 -7.8 16.1 -6.8Q16.6 -5.8 16.6 -4.4V-4.4Q16.6 -3.0 16.1 -2.0Q15.7 -0.9 14.9 -0.4Q14.1 0.2 13.0 0.2Q12.4 0.2 11.9 -0.0Q11.3 -0.2 10.9 -0.6Q10.6 -0.9 10.3 -1.4H10.2V2.9ZM12.3 -1.7Q12.9 -1.7 13.4 -2.0Q13.8 -2.4 14.1 -3.0Q14.3 -3.6 14.3 -4.4V-4.4Q14.3 -5.2 14.1 -5.8Q13.8 -6.4 13.3 -6.8Q12.9 -7.1 12.3 -7.1Q11.6 -7.1 11.2 -6.8Q10.7 -6.4 10.4 -5.8Q10.2 -5.2 10.2 -4.4V-4.4Q10.2 -3.6 10.4 -3.0Q10.7 -2.4 11.2 -2.0Q11.6 -1.7 12.3 -1.7Z M18.5 2.9V-8.8H20.7V-7.4H20.8Q21.0 -7.9 21.4 -8.2Q21.8 -8.6 22.3 -8.8Q22.9 -8.9 23.5 -8.9Q24.6 -8.9 25.4 -8.4Q26.2 -7.8 26.6 -6.8Q27.1 -5.8 27.1 -4.4V-4.4Q27.1 -3.0 26.6 -2.0Q26.2 -0.9 25.4 -0.4Q24.6 0.2 23.5 0.2Q22.9 0.2 22.3 -0.0Q21.8 -0.2 21.4 -0.6Q21.0 -0.9 20.8 -1.4H20.7V2.9ZM22.7 -1.7Q23.4 -1.7 23.8 -2.0Q24.3 -2.4 24.5 -3.0Q24.8 -3.6 24.8 -4.4V-4.4Q24.8 -5.2 24.5 -5.8Q24.3 -6.4 23.8 -6.8Q23.4 -7.1 22.7 -7.1Q22.1 -7.1 21.6 -6.8Q21.2 -6.4 20.9 -5.8Q20.7 -5.2 20.7 -4.4V-4.4Q20.7 -3.6 20.9 -3.0Q21.2 -2.4 21.6 -2.0Q22.1 -1.7 22.7 -1.7Z M32.8 3.1Q31.6 3.1 30.8 2.8Q29.9 2.5 29.4 1.9Q28.9 1.3 28.8 0.6L28.8 0.5H31.0L31.0 0.6Q31.1 1.0 31.6 1.2Q32.1 1.5 32.9 1.5Q33.8 1.5 34.4 1.0Q34.9 0.6 34.9 -0.2V-1.8H34.8Q34.5 -1.3 34.1 -1.0Q33.8 -0.7 33.2 -0.5Q32.7 -0.3 32.1 -0.3Q31.0 -0.3 30.2 -0.9Q29.4 -1.4 29.0 -2.3Q28.5 -3.3 28.5 -4.6V-4.6Q28.5 -5.9 29.0 -6.9Q29.4 -7.9 30.2 -8.4Q31.0 -8.9 32.1 -8.9Q32.8 -8.9 33.3 -8.7Q33.8 -8.5 34.2 -8.2Q34.6 -7.8 34.8 -7.3H34.9V-8.8H37.1V-0.3Q37.1 0.8 36.6 1.5Q36.1 2.3 35.1 2.7Q34.2 3.1 32.8 3.1ZM32.8 -2.0Q33.5 -2.0 34.0 -2.4Q34.4 -2.7 34.7 -3.2Q34.9 -3.8 34.9 -4.6V-4.6Q34.9 -5.3 34.7 -5.9Q34.4 -6.5 34.0 -6.8Q33.5 -7.1 32.8 -7.1Q32.2 -7.1 31.7 -6.8Q31.3 -6.5 31.0 -5.9Q30.8 -5.3 30.8 -4.6V-4.6Q30.8 -3.8 31.0 -3.2Q31.3 -2.7 31.7 -2.4Q32.2 -2.0 32.8 -2.0Z M42.3 0.0V-9.4H42.2L39.3 -7.4V-9.5L42.3 -11.6H44.6V0.0Z M52.2 0.3Q50.7 0.3 49.7 -0.5Q48.7 -1.2 48.1 -2.6Q47.6 -3.9 47.6 -5.8V-5.8Q47.6 -7.7 48.1 -9.1Q48.7 -10.4 49.7 -11.2Q50.7 -11.9 52.2 -11.9Q53.6 -11.9 54.6 -11.2Q55.6 -10.4 56.2 -9.1Q56.7 -7.7 56.7 -5.8V-5.8Q56.7 -3.9 56.2 -2.6Q55.6 -1.2 54.6 -0.5Q53.6 0.3 52.2 0.3ZM52.2 -1.6Q52.9 -1.6 53.4 -2.1Q53.9 -2.6 54.2 -3.5Q54.4 -4.5 54.4 -5.8V-5.8Q54.4 -7.2 54.2 -8.1Q53.9 -9.0 53.4 -9.6Q52.9 -10.1 52.2 -10.1Q51.4 -10.1 50.9 -9.6Q50.4 -9.0 50.2 -8.1Q49.9 -7.2 49.9 -5.8V-5.8Q49.9 -4.5 50.2 -3.5Q50.4 -2.6 50.9 -2.1Q51.4 -1.6 52.2 -1.6Z M59.0 -3.7V-5.7H64.4V-3.7Z M70.6 0.2Q69.3 0.2 68.4 -0.4Q67.4 -0.9 66.9 -1.9Q66.4 -3.0 66.4 -4.4V-4.4Q66.4 -5.8 66.9 -6.8Q67.4 -7.8 68.3 -8.4Q69.3 -9.0 70.5 -9.0Q71.8 -9.0 72.7 -8.4Q73.7 -7.9 74.2 -6.9Q74.7 -5.9 74.7 -4.6V-3.9H67.5V-5.3H73.6L72.5 -3.9V-4.8Q72.5 -5.6 72.3 -6.2Q72.0 -6.7 71.6 -7.0Q71.2 -7.3 70.6 -7.3Q70.0 -7.3 69.6 -7.0Q69.1 -6.7 68.8 -6.2Q68.6 -5.6 68.6 -4.8V-3.9Q68.6 -3.2 68.8 -2.6Q69.1 -2.1 69.6 -1.8Q70.0 -1.5 70.7 -1.5Q71.2 -1.5 71.6 -1.7Q71.9 -1.8 72.2 -2.0Q72.4 -2.3 72.5 -2.4L72.5 -2.5L74.6 -2.5L74.6 -2.4Q74.5 -2.0 74.2 -1.5Q73.9 -1.1 73.4 -0.7Q73.0 -0.3 72.3 -0.1Q71.6 0.2 70.6 0.2Z M78.9 0.0 75.8 -8.8H78.2L80.1 -2.1H80.2L82.1 -8.8H84.4L81.4 0.0Z M88.4 0.1Q87.6 0.1 86.9 -0.2Q86.3 -0.5 85.9 -1.1Q85.5 -1.7 85.5 -2.5V-2.5Q85.5 -3.3 85.9 -3.9Q86.3 -4.4 87.1 -4.8Q87.8 -5.1 88.9 -5.1L92.2 -5.3V-3.9L89.2 -3.8Q88.5 -3.7 88.1 -3.4Q87.7 -3.1 87.7 -2.6V-2.6Q87.7 -2.1 88.1 -1.8Q88.5 -1.5 89.1 -1.5Q89.7 -1.5 90.1 -1.7Q90.6 -2.0 90.8 -2.3Q91.1 -2.7 91.1 -3.2V-6.0Q91.1 -6.6 90.7 -6.9Q90.3 -7.2 89.6 -7.2Q88.9 -7.2 88.5 -7.0Q88.1 -6.8 87.9 -6.4L87.9 -6.3H85.9L85.9 -6.4Q86.0 -7.2 86.4 -7.7Q86.9 -8.3 87.7 -8.6Q88.6 -9.0 89.7 -9.0Q90.8 -9.0 91.6 -8.6Q92.4 -8.3 92.9 -7.6Q93.3 -6.9 93.3 -6.0V0.0H91.1V-1.2H91.0Q90.7 -0.8 90.4 -0.5Q90.0 -0.2 89.5 -0.0Q89.0 0.1 88.4 0.1Z M95.6 0.0V-12.1H97.8V0.0Z M100.3 -3.7V-5.7H105.7V-3.7Z M108.2 0.0V-12.1H110.4V-7.4H110.5Q110.8 -8.1 111.5 -8.6Q112.1 -9.0 113.1 -9.0Q114.1 -9.0 114.7 -8.6Q115.4 -8.2 115.8 -7.4Q116.1 -6.7 116.1 -5.6V0.0H113.9V-5.1Q113.9 -6.1 113.5 -6.6Q113.1 -7.1 112.2 -7.1Q111.7 -7.1 111.3 -6.9Q110.8 -6.6 110.6 -6.2Q110.4 -5.7 110.4 -5.1V0.0Z M120.8 0.1Q120.0 0.1 119.3 -0.2Q118.6 -0.5 118.3 -1.1Q117.9 -1.7 117.9 -2.5V-2.5Q117.9 -3.3 118.3 -3.9Q118.7 -4.4 119.4 -4.8Q120.2 -5.1 121.3 -5.1L124.6 -5.3V-3.9L121.6 -3.8Q120.8 -3.7 120.5 -3.4Q120.1 -3.1 120.1 -2.6V-2.6Q120.1 -2.1 120.5 -1.8Q120.9 -1.5 121.5 -1.5Q122.1 -1.5 122.5 -1.7Q123.0 -2.0 123.2 -2.3Q123.5 -2.7 123.5 -3.2V-6.0Q123.5 -6.6 123.1 -6.9Q122.7 -7.2 121.9 -7.2Q121.3 -7.2 120.9 -7.0Q120.5 -6.8 120.3 -6.4L120.3 -6.3H118.2L118.3 -6.4Q118.3 -7.2 118.8 -7.7Q119.3 -8.3 120.1 -8.6Q121.0 -9.0 122.0 -9.0Q123.2 -9.0 124.0 -8.6Q124.8 -8.3 125.2 -7.6Q125.7 -6.9 125.7 -6.0V0.0H123.5V-1.2H123.3Q123.1 -0.8 122.7 -0.5Q122.4 -0.2 121.9 -0.0Q121.4 0.1 120.8 0.1Z M127.9 0.0V-8.8H130.1V-7.4H130.3Q130.5 -8.1 131.0 -8.5Q131.6 -8.9 132.4 -8.9Q132.7 -8.9 132.9 -8.9Q133.1 -8.9 133.3 -8.8V-6.9Q133.0 -6.9 132.8 -7.0Q132.5 -7.0 132.3 -7.0Q131.6 -7.0 131.1 -6.8Q130.7 -6.5 130.4 -6.1Q130.1 -5.6 130.1 -5.0V0.0Z M134.8 0.0V-8.8H137.0V-7.4H137.2Q137.5 -8.1 138.1 -8.6Q138.8 -9.0 139.7 -9.0Q141.2 -9.0 142.0 -8.1Q142.7 -7.2 142.7 -5.7V0.0H140.5V-5.2Q140.5 -6.1 140.1 -6.6Q139.7 -7.1 138.8 -7.1Q138.3 -7.1 137.9 -6.9Q137.5 -6.6 137.3 -6.2Q137.0 -5.7 137.0 -5.1V0.0Z M148.8 0.2Q147.5 0.2 146.5 -0.4Q145.6 -0.9 145.1 -1.9Q144.5 -3.0 144.5 -4.4V-4.4Q144.5 -5.8 145.1 -6.8Q145.6 -7.8 146.5 -8.4Q147.4 -9.0 148.7 -9.0Q150.0 -9.0 150.9 -8.4Q151.8 -7.9 152.3 -6.9Q152.8 -5.9 152.8 -4.6V-3.9H145.7V-5.3H151.8L150.7 -3.9V-4.8Q150.7 -5.6 150.5 -6.2Q150.2 -6.7 149.8 -7.0Q149.3 -7.3 148.7 -7.3Q148.2 -7.3 147.7 -7.0Q147.3 -6.7 147.0 -6.2Q146.7 -5.6 146.7 -4.8V-3.9Q146.7 -3.2 147.0 -2.6Q147.3 -2.1 147.7 -1.8Q148.2 -1.5 148.9 -1.5Q149.4 -1.5 149.7 -1.7Q150.1 -1.8 150.3 -2.0Q150.6 -2.3 150.7 -2.4L150.7 -2.5L152.8 -2.5L152.7 -2.4Q152.6 -2.0 152.4 -1.5Q152.1 -1.1 151.6 -0.7Q151.1 -0.3 150.4 -0.1Q149.7 0.2 148.8 0.2Z M158.2 0.2Q157.0 0.2 156.2 -0.1Q155.3 -0.5 154.9 -1.1Q154.4 -1.7 154.3 -2.4L154.3 -2.5H156.5L156.5 -2.4Q156.6 -2.0 157.1 -1.7Q157.5 -1.4 158.2 -1.4Q158.7 -1.4 159.0 -1.5Q159.4 -1.7 159.6 -1.9Q159.7 -2.1 159.7 -2.4V-2.4Q159.7 -2.8 159.5 -3.0Q159.2 -3.3 158.5 -3.4L157.0 -3.7Q156.2 -3.9 155.6 -4.3Q155.1 -4.6 154.8 -5.1Q154.5 -5.6 154.5 -6.2V-6.2Q154.5 -7.1 155.0 -7.7Q155.4 -8.3 156.2 -8.6Q157.1 -9.0 158.1 -9.0Q159.3 -9.0 160.1 -8.6Q160.9 -8.3 161.3 -7.7Q161.7 -7.1 161.8 -6.4L161.8 -6.3H159.7L159.7 -6.4Q159.6 -6.8 159.2 -7.1Q158.8 -7.4 158.1 -7.4Q157.7 -7.4 157.4 -7.3Q157.1 -7.1 156.9 -6.9Q156.7 -6.7 156.7 -6.4V-6.4Q156.7 -6.1 156.8 -5.9Q157.0 -5.8 157.2 -5.6Q157.5 -5.5 158.0 -5.4L159.4 -5.1Q160.3 -4.9 160.9 -4.6Q161.4 -4.2 161.7 -3.8Q162.0 -3.3 162.0 -2.7V-2.7Q162.0 -1.8 161.5 -1.2Q161.0 -0.5 160.1 -0.2Q159.3 0.2 158.2 0.2Z M167.3 0.2Q166.1 0.2 165.3 -0.1Q164.5 -0.5 164.0 -1.1Q163.5 -1.7 163.5 -2.4L163.4 -2.5H165.6L165.6 -2.4Q165.8 -2.0 166.2 -1.7Q166.6 -1.4 167.3 -1.4Q167.8 -1.4 168.2 -1.5Q168.5 -1.7 168.7 -1.9Q168.9 -2.1 168.9 -2.4V-2.4Q168.9 -2.8 168.6 -3.0Q168.3 -3.3 167.6 -3.4L166.2 -3.7Q165.3 -3.9 164.8 -4.3Q164.2 -4.6 163.9 -5.1Q163.7 -5.6 163.7 -6.2V-6.2Q163.7 -7.1 164.1 -7.7Q164.6 -8.3 165.4 -8.6Q166.2 -9.0 167.3 -9.0Q168.4 -9.0 169.2 -8.6Q170.0 -8.3 170.4 -7.7Q170.9 -7.1 170.9 -6.4L170.9 -6.3H168.8L168.8 -6.4Q168.8 -6.8 168.4 -7.1Q168.0 -7.4 167.3 -7.4Q166.9 -7.4 166.5 -7.3Q166.2 -7.1 166.0 -6.9Q165.9 -6.7 165.9 -6.4V-6.4Q165.9 -6.1 166.0 -5.9Q166.1 -5.8 166.4 -5.6Q166.7 -5.5 167.1 -5.4L168.6 -5.1Q169.4 -4.9 170.0 -4.6Q170.6 -4.2 170.9 -3.8Q171.1 -3.3 171.1 -2.7V-2.7Q171.1 -1.8 170.6 -1.2Q170.1 -0.5 169.3 -0.2Q168.4 0.2 167.3 0.2Z"/></g>
  <g transform="translate(46,74)" fill="#9CA3AF"><path d="M4.3 0.2Q3.2 0.2 2.4 -0.3Q1.6 -0.8 1.1 -1.8Q0.7 -2.7 0.7 -4.0V-4.1Q0.7 -5.4 1.1 -6.3Q1.6 -7.3 2.4 -7.8Q3.2 -8.3 4.3 -8.3Q5.2 -8.3 5.9 -8.0Q6.6 -7.6 7.1 -7.0Q7.5 -6.4 7.6 -5.6L7.6 -5.6H6.5L6.5 -5.6Q6.4 -6.1 6.1 -6.5Q5.7 -6.9 5.3 -7.1Q4.9 -7.3 4.3 -7.3Q3.6 -7.3 3.0 -6.9Q2.4 -6.5 2.1 -5.8Q1.8 -5.0 1.8 -4.1V-4.0Q1.8 -3.1 2.1 -2.3Q2.4 -1.6 3.0 -1.2Q3.6 -0.8 4.3 -0.8Q4.9 -0.8 5.3 -1.0Q5.8 -1.2 6.1 -1.5Q6.4 -1.9 6.5 -2.3L6.5 -2.3H7.6L7.6 -2.3Q7.5 -1.6 7.0 -1.0Q6.6 -0.4 5.9 -0.1Q5.2 0.2 4.3 0.2Z M11.0 0.1Q10.4 0.1 9.9 -0.1Q9.5 -0.3 9.2 -0.7Q8.9 -1.1 8.9 -1.7V-1.7Q8.9 -2.3 9.2 -2.6Q9.5 -3.0 10.0 -3.2Q10.5 -3.5 11.2 -3.5L13.4 -3.6V-2.8L11.3 -2.7Q10.7 -2.7 10.4 -2.4Q10.0 -2.2 10.0 -1.7V-1.7Q10.0 -1.3 10.4 -1.0Q10.7 -0.8 11.2 -0.8Q11.7 -0.8 12.1 -1.0Q12.4 -1.2 12.7 -1.5Q12.9 -1.8 12.9 -2.3V-4.1Q12.9 -4.7 12.5 -5.0Q12.2 -5.2 11.6 -5.2Q11.0 -5.2 10.7 -5.1Q10.4 -4.9 10.3 -4.5L10.3 -4.5H9.2L9.2 -4.5Q9.3 -5.0 9.6 -5.4Q9.9 -5.8 10.4 -6.0Q10.9 -6.2 11.6 -6.2Q12.4 -6.2 12.9 -5.9Q13.4 -5.7 13.7 -5.2Q14.0 -4.8 14.0 -4.2V0.0H12.9V-0.9H12.8Q12.6 -0.6 12.3 -0.3Q12.1 -0.1 11.7 -0.0Q11.4 0.1 11.0 0.1Z M15.8 0.0V-6.1H16.9V-5.1H17.0Q17.2 -5.6 17.6 -5.9Q18.1 -6.2 18.7 -6.2Q19.1 -6.2 19.4 -6.0Q19.7 -5.9 20.0 -5.7Q20.2 -5.4 20.3 -5.1H20.4Q20.6 -5.4 20.9 -5.7Q21.1 -5.9 21.5 -6.0Q21.9 -6.2 22.3 -6.2Q22.9 -6.2 23.3 -5.9Q23.8 -5.7 24.0 -5.3Q24.2 -4.8 24.2 -4.2V0.0H23.1V-3.9Q23.1 -4.4 23.0 -4.7Q22.9 -4.9 22.6 -5.1Q22.3 -5.2 21.9 -5.2Q21.5 -5.2 21.2 -5.0Q20.9 -4.9 20.7 -4.6Q20.6 -4.2 20.6 -3.9V0.0H19.5V-4.1Q19.5 -4.4 19.3 -4.7Q19.2 -4.9 18.9 -5.1Q18.6 -5.2 18.3 -5.2Q17.9 -5.2 17.6 -5.0Q17.3 -4.8 17.1 -4.5Q16.9 -4.2 16.9 -3.7V0.0Z M28.6 0.1Q27.7 0.1 27.1 -0.3Q26.5 -0.7 26.1 -1.4Q25.8 -2.1 25.8 -3.0V-3.0Q25.8 -4.0 26.1 -4.7Q26.5 -5.4 27.1 -5.8Q27.7 -6.2 28.5 -6.2Q29.4 -6.2 30.0 -5.8Q30.6 -5.4 30.9 -4.7Q31.2 -4.0 31.2 -3.1V-2.7H26.3V-3.6H30.7L30.1 -2.8V-3.2Q30.1 -3.9 29.9 -4.4Q29.7 -4.8 29.4 -5.0Q29.0 -5.2 28.5 -5.2Q28.1 -5.2 27.7 -5.0Q27.3 -4.8 27.1 -4.3Q26.9 -3.9 26.9 -3.2V-2.8Q26.9 -2.2 27.1 -1.7Q27.3 -1.3 27.7 -1.1Q28.1 -0.8 28.6 -0.8Q29.0 -0.8 29.3 -0.9Q29.6 -1.0 29.8 -1.2Q30.0 -1.4 30.1 -1.6L30.1 -1.6L31.1 -1.6L31.1 -1.6Q31.1 -1.2 30.9 -1.0Q30.7 -0.7 30.3 -0.4Q30.0 -0.2 29.6 -0.0Q29.1 0.1 28.6 0.1Z M32.8 0.0V-6.1H33.9V-5.2H34.0Q34.2 -5.6 34.6 -5.9Q35.0 -6.2 35.6 -6.2Q35.7 -6.2 35.9 -6.2Q36.0 -6.1 36.1 -6.1V-5.1Q36.0 -5.1 35.8 -5.1Q35.6 -5.2 35.5 -5.2Q35.0 -5.2 34.7 -5.0Q34.3 -4.8 34.1 -4.5Q33.9 -4.1 33.9 -3.7V0.0Z M39.1 0.1Q38.5 0.1 38.1 -0.1Q37.6 -0.3 37.3 -0.7Q37.1 -1.1 37.1 -1.7V-1.7Q37.1 -2.3 37.3 -2.6Q37.6 -3.0 38.1 -3.2Q38.6 -3.5 39.3 -3.5L41.5 -3.6V-2.8L39.4 -2.7Q38.8 -2.7 38.5 -2.4Q38.2 -2.2 38.2 -1.7V-1.7Q38.2 -1.3 38.5 -1.0Q38.8 -0.8 39.4 -0.8Q39.8 -0.8 40.2 -1.0Q40.6 -1.2 40.8 -1.5Q41.0 -1.8 41.0 -2.3V-4.1Q41.0 -4.7 40.7 -5.0Q40.3 -5.2 39.7 -5.2Q39.2 -5.2 38.8 -5.1Q38.5 -4.9 38.4 -4.5L38.4 -4.5H37.3L37.3 -4.5Q37.4 -5.0 37.7 -5.4Q38.0 -5.8 38.6 -6.0Q39.1 -6.2 39.7 -6.2Q40.5 -6.2 41.0 -5.9Q41.5 -5.7 41.8 -5.2Q42.1 -4.8 42.1 -4.2V0.0H41.0V-0.9H40.9Q40.7 -0.6 40.5 -0.3Q40.2 -0.1 39.8 -0.0Q39.5 0.1 39.1 0.1Z M47.3 0.0V-8.5H48.4V-5.1H48.5Q48.7 -5.6 49.2 -5.9Q49.6 -6.2 50.3 -6.2Q50.9 -6.2 51.4 -5.9Q51.9 -5.6 52.1 -5.1Q52.4 -4.6 52.4 -3.9V0.0H51.3V-3.7Q51.3 -4.5 51.0 -4.8Q50.6 -5.2 49.9 -5.2Q49.5 -5.2 49.1 -5.0Q48.8 -4.8 48.6 -4.5Q48.4 -4.1 48.4 -3.6V0.0Z M56.7 0.1Q55.9 0.1 55.2 -0.3Q54.6 -0.7 54.3 -1.4Q53.9 -2.1 53.9 -3.0V-3.0Q53.9 -4.0 54.3 -4.7Q54.6 -5.4 55.2 -5.8Q55.9 -6.2 56.7 -6.2Q57.5 -6.2 58.1 -5.8Q58.7 -5.4 59.0 -4.7Q59.4 -4.0 59.4 -3.1V-2.7H54.5V-3.6H58.8L58.3 -2.8V-3.2Q58.3 -3.9 58.1 -4.4Q57.9 -4.8 57.5 -5.0Q57.2 -5.2 56.7 -5.2Q56.2 -5.2 55.8 -5.0Q55.5 -4.8 55.3 -4.3Q55.0 -3.9 55.0 -3.2V-2.8Q55.0 -2.2 55.2 -1.7Q55.5 -1.3 55.8 -1.1Q56.2 -0.8 56.8 -0.8Q57.2 -0.8 57.5 -0.9Q57.8 -1.0 57.9 -1.2Q58.1 -1.4 58.2 -1.6L58.2 -1.6L59.3 -1.6L59.3 -1.6Q59.2 -1.2 59.0 -1.0Q58.8 -0.7 58.5 -0.4Q58.2 -0.2 57.7 -0.0Q57.3 0.1 56.7 0.1Z M62.7 0.1Q62.1 0.1 61.6 -0.1Q61.2 -0.3 60.9 -0.7Q60.6 -1.1 60.6 -1.7V-1.7Q60.6 -2.3 60.9 -2.6Q61.2 -3.0 61.7 -3.2Q62.2 -3.5 62.9 -3.5L65.1 -3.6V-2.8L63.0 -2.7Q62.3 -2.7 62.0 -2.4Q61.7 -2.2 61.7 -1.7V-1.7Q61.7 -1.3 62.1 -1.0Q62.4 -0.8 62.9 -0.8Q63.4 -0.8 63.8 -1.0Q64.1 -1.2 64.3 -1.5Q64.6 -1.8 64.6 -2.3V-4.1Q64.6 -4.7 64.2 -5.0Q63.9 -5.2 63.3 -5.2Q62.7 -5.2 62.4 -5.1Q62.1 -4.9 61.9 -4.5L61.9 -4.5H60.9L60.9 -4.5Q61.0 -5.0 61.3 -5.4Q61.6 -5.8 62.1 -6.0Q62.6 -6.2 63.3 -6.2Q64.1 -6.2 64.6 -5.9Q65.1 -5.7 65.4 -5.2Q65.6 -4.8 65.6 -4.2V0.0H64.6V-0.9H64.5Q64.3 -0.6 64.0 -0.3Q63.7 -0.1 63.4 -0.0Q63.1 0.1 62.7 0.1Z M67.5 0.0V-6.1H68.6V-5.2H68.7Q68.9 -5.6 69.3 -5.9Q69.7 -6.2 70.3 -6.2Q70.4 -6.2 70.6 -6.2Q70.7 -6.1 70.8 -6.1V-5.1Q70.6 -5.1 70.5 -5.1Q70.3 -5.2 70.2 -5.2Q69.7 -5.2 69.4 -5.0Q69.0 -4.8 68.8 -4.5Q68.6 -4.1 68.6 -3.7V0.0Z M74.3 0.0Q73.4 0.0 72.9 -0.3Q72.5 -0.7 72.5 -1.6V-5.2H71.6V-6.1H72.5V-7.6H73.6V-6.1H74.9V-5.2H73.6V-1.8Q73.6 -1.3 73.8 -1.1Q74.0 -0.9 74.5 -0.9Q74.6 -0.9 74.7 -0.9Q74.8 -0.9 74.9 -0.9V-0.0Q74.8 0.0 74.6 0.0Q74.5 0.0 74.3 0.0Z M76.5 -2.8V-3.8H80.2V-2.8Z M82.1 0.0V-6.1H83.2V-5.2H83.3Q83.4 -5.6 83.8 -5.9Q84.3 -6.2 84.9 -6.2Q85.0 -6.2 85.1 -6.2Q85.3 -6.1 85.4 -6.1V-5.1Q85.2 -5.1 85.1 -5.1Q84.9 -5.2 84.7 -5.2Q84.3 -5.2 83.9 -5.0Q83.6 -4.8 83.4 -4.5Q83.2 -4.1 83.2 -3.7V0.0Z M88.4 0.1Q87.8 0.1 87.3 -0.1Q86.9 -0.3 86.6 -0.7Q86.3 -1.1 86.3 -1.7V-1.7Q86.3 -2.3 86.6 -2.6Q86.9 -3.0 87.4 -3.2Q87.9 -3.5 88.6 -3.5L90.8 -3.6V-2.8L88.7 -2.7Q88.0 -2.7 87.7 -2.4Q87.4 -2.2 87.4 -1.7V-1.7Q87.4 -1.3 87.8 -1.0Q88.1 -0.8 88.6 -0.8Q89.1 -0.8 89.5 -1.0Q89.8 -1.2 90.0 -1.5Q90.3 -1.8 90.3 -2.3V-4.1Q90.3 -4.7 89.9 -5.0Q89.6 -5.2 89.0 -5.2Q88.4 -5.2 88.1 -5.1Q87.8 -4.9 87.6 -4.5L87.6 -4.5H86.6L86.6 -4.5Q86.7 -5.0 87.0 -5.4Q87.3 -5.8 87.8 -6.0Q88.3 -6.2 89.0 -6.2Q89.8 -6.2 90.3 -5.9Q90.8 -5.7 91.1 -5.2Q91.3 -4.8 91.3 -4.2V0.0H90.3V-0.9H90.2Q90.0 -0.6 89.7 -0.3Q89.4 -0.1 89.1 -0.0Q88.8 0.1 88.4 0.1Z M95.4 0.0Q94.5 0.0 94.0 -0.3Q93.6 -0.7 93.6 -1.6V-5.2H92.7V-6.1H93.6V-7.6H94.7V-6.1H96.0V-5.2H94.7V-1.8Q94.7 -1.3 94.9 -1.1Q95.1 -0.9 95.6 -0.9Q95.7 -0.9 95.8 -0.9Q95.9 -0.9 96.0 -0.9V-0.0Q95.9 0.0 95.7 0.0Q95.6 0.0 95.4 0.0Z M100.1 0.1Q99.2 0.1 98.6 -0.3Q98.0 -0.7 97.6 -1.4Q97.3 -2.1 97.3 -3.0V-3.0Q97.3 -4.0 97.6 -4.7Q98.0 -5.4 98.6 -5.8Q99.2 -6.2 100.1 -6.2Q100.9 -6.2 101.5 -5.8Q102.1 -5.4 102.4 -4.7Q102.7 -4.0 102.7 -3.1V-2.7H97.9V-3.6H102.2L101.7 -2.8V-3.2Q101.7 -3.9 101.5 -4.4Q101.3 -4.8 100.9 -5.0Q100.5 -5.2 100.1 -5.2Q99.6 -5.2 99.2 -5.0Q98.8 -4.8 98.6 -4.3Q98.4 -3.9 98.4 -3.2V-2.8Q98.4 -2.2 98.6 -1.7Q98.8 -1.3 99.2 -1.1Q99.6 -0.8 100.1 -0.8Q100.5 -0.8 100.8 -0.9Q101.1 -1.0 101.3 -1.2Q101.5 -1.4 101.6 -1.6L101.6 -1.6L102.7 -1.6L102.7 -1.6Q102.6 -1.2 102.4 -1.0Q102.2 -0.7 101.9 -0.4Q101.6 -0.2 101.1 -0.0Q100.7 0.1 100.1 0.1Z M110.2 0.1Q109.3 0.1 108.7 -0.3Q108.0 -0.7 107.7 -1.4Q107.4 -2.1 107.4 -3.0V-3.0Q107.4 -4.0 107.7 -4.7Q108.0 -5.4 108.7 -5.8Q109.3 -6.2 110.1 -6.2Q110.9 -6.2 111.5 -5.8Q112.1 -5.4 112.5 -4.7Q112.8 -4.0 112.8 -3.1V-2.7H107.9V-3.6H112.2L111.7 -2.8V-3.2Q111.7 -3.9 111.5 -4.4Q111.3 -4.8 110.9 -5.0Q110.6 -5.2 110.1 -5.2Q109.6 -5.2 109.3 -5.0Q108.9 -4.8 108.7 -4.3Q108.5 -3.9 108.5 -3.2V-2.8Q108.5 -2.2 108.7 -1.7Q108.9 -1.3 109.3 -1.1Q109.7 -0.8 110.2 -0.8Q110.6 -0.8 110.9 -0.9Q111.2 -1.0 111.4 -1.2Q111.6 -1.4 111.6 -1.6L111.7 -1.6L112.7 -1.6L112.7 -1.6Q112.6 -1.2 112.4 -1.0Q112.2 -0.7 111.9 -0.4Q111.6 -0.2 111.2 -0.0Q110.7 0.1 110.2 0.1Z M113.9 0.0 116.0 -3.0 113.9 -6.1H115.2L116.6 -3.8H116.7L118.0 -6.1H119.2L117.2 -3.1L119.2 0.0H118.0L116.6 -2.2H116.5L115.1 0.0Z M122.9 0.0Q121.9 0.0 121.5 -0.3Q121.1 -0.7 121.1 -1.6V-5.2H120.1V-6.1H121.1V-7.6H122.2V-6.1H123.5V-5.2H122.2V-1.8Q122.2 -1.3 122.4 -1.1Q122.6 -0.9 123.0 -0.9Q123.2 -0.9 123.3 -0.9Q123.4 -0.9 123.5 -0.9V-0.0Q123.3 0.0 123.2 0.0Q123.0 0.0 122.9 0.0Z M125.1 0.0V-6.1H126.1V-5.2H126.2Q126.4 -5.6 126.8 -5.9Q127.2 -6.2 127.8 -6.2Q128.0 -6.2 128.1 -6.2Q128.3 -6.1 128.3 -6.1V-5.1Q128.2 -5.1 128.0 -5.1Q127.9 -5.2 127.7 -5.2Q127.2 -5.2 126.9 -5.0Q126.5 -4.8 126.3 -4.5Q126.1 -4.1 126.1 -3.7V0.0Z M131.3 0.1Q130.7 0.1 130.3 -0.1Q129.8 -0.3 129.6 -0.7Q129.3 -1.1 129.3 -1.7V-1.7Q129.3 -2.3 129.6 -2.6Q129.8 -3.0 130.3 -3.2Q130.8 -3.5 131.5 -3.5L133.8 -3.6V-2.8L131.7 -2.7Q131.0 -2.7 130.7 -2.4Q130.4 -2.2 130.4 -1.7V-1.7Q130.4 -1.3 130.7 -1.0Q131.1 -0.8 131.6 -0.8Q132.1 -0.8 132.4 -1.0Q132.8 -1.2 133.0 -1.5Q133.2 -1.8 133.2 -2.3V-4.1Q133.2 -4.7 132.9 -5.0Q132.6 -5.2 131.9 -5.2Q131.4 -5.2 131.1 -5.1Q130.7 -4.9 130.6 -4.5L130.6 -4.5H129.5L129.5 -4.5Q129.6 -5.0 129.9 -5.4Q130.3 -5.8 130.8 -6.0Q131.3 -6.2 132.0 -6.2Q132.7 -6.2 133.2 -5.9Q133.8 -5.7 134.0 -5.2Q134.3 -4.8 134.3 -4.2V0.0H133.2V-0.9H133.1Q133.0 -0.6 132.7 -0.3Q132.4 -0.1 132.1 -0.0Q131.7 0.1 131.3 0.1Z M138.7 0.1Q137.8 0.1 137.2 -0.3Q136.6 -0.7 136.2 -1.4Q135.9 -2.1 135.9 -3.0V-3.1Q135.9 -4.0 136.2 -4.7Q136.6 -5.4 137.2 -5.8Q137.8 -6.2 138.7 -6.2Q139.5 -6.2 140.0 -5.9Q140.5 -5.7 140.9 -5.2Q141.2 -4.8 141.3 -4.2L141.3 -4.2H140.2L140.2 -4.2Q140.1 -4.6 139.7 -4.9Q139.3 -5.2 138.7 -5.2Q138.2 -5.2 137.8 -5.0Q137.4 -4.7 137.2 -4.2Q137.0 -3.7 137.0 -3.1V-3.0Q137.0 -2.4 137.2 -1.9Q137.4 -1.4 137.8 -1.1Q138.2 -0.8 138.7 -0.8Q139.3 -0.8 139.7 -1.1Q140.0 -1.3 140.2 -1.8L140.2 -1.9L141.3 -1.9L141.3 -1.8Q141.1 -1.3 140.8 -0.8Q140.5 -0.4 140.0 -0.1Q139.5 0.1 138.7 0.1Z M145.0 0.0Q144.1 0.0 143.6 -0.3Q143.2 -0.7 143.2 -1.6V-5.2H142.2V-6.1H143.2V-7.6H144.3V-6.1H145.6V-5.2H144.3V-1.8Q144.3 -1.3 144.5 -1.1Q144.7 -0.9 145.2 -0.9Q145.3 -0.9 145.4 -0.9Q145.5 -0.9 145.6 -0.9V-0.0Q145.5 0.0 145.3 0.0Q145.2 0.0 145.0 0.0Z M147.2 0.0V-6.1H148.3V0.0ZM147.8 -7.2Q147.5 -7.2 147.3 -7.4Q147.0 -7.6 147.0 -7.9Q147.0 -8.2 147.3 -8.4Q147.5 -8.6 147.8 -8.6Q148.1 -8.6 148.3 -8.4Q148.5 -8.2 148.5 -7.9Q148.5 -7.6 148.3 -7.4Q148.1 -7.2 147.8 -7.2Z M152.8 0.1Q151.9 0.1 151.3 -0.3Q150.6 -0.6 150.3 -1.4Q149.9 -2.1 149.9 -3.0V-3.0Q149.9 -4.0 150.3 -4.7Q150.6 -5.4 151.3 -5.8Q151.9 -6.2 152.8 -6.2Q153.6 -6.2 154.3 -5.8Q154.9 -5.4 155.3 -4.7Q155.6 -4.0 155.6 -3.0V-3.0Q155.6 -2.1 155.3 -1.4Q154.9 -0.6 154.3 -0.3Q153.6 0.1 152.8 0.1ZM152.8 -0.8Q153.3 -0.8 153.7 -1.1Q154.1 -1.3 154.3 -1.8Q154.5 -2.3 154.5 -3.0V-3.0Q154.5 -3.7 154.3 -4.2Q154.1 -4.7 153.7 -5.0Q153.3 -5.2 152.8 -5.2Q152.2 -5.2 151.8 -5.0Q151.5 -4.7 151.3 -4.2Q151.0 -3.7 151.0 -3.0V-3.0Q151.0 -2.3 151.3 -1.8Q151.5 -1.3 151.8 -1.1Q152.2 -0.8 152.8 -0.8Z M157.2 0.0V-6.1H158.3V-5.2H158.4Q158.6 -5.6 159.0 -5.9Q159.5 -6.2 160.1 -6.2Q161.2 -6.2 161.7 -5.6Q162.3 -5.0 162.3 -3.9V0.0H161.2V-3.7Q161.2 -4.5 160.8 -4.8Q160.5 -5.2 159.8 -5.2Q159.3 -5.2 159.0 -5.0Q158.7 -4.8 158.5 -4.5Q158.3 -4.1 158.3 -3.6V0.0Z M169.6 0.1Q168.9 0.1 168.3 -0.1Q167.8 -0.3 167.5 -0.7Q167.2 -1.1 167.1 -1.6L167.1 -1.6H168.2L168.2 -1.6Q168.3 -1.2 168.7 -1.0Q169.0 -0.8 169.6 -0.8Q170.0 -0.8 170.3 -0.9Q170.6 -1.0 170.8 -1.2Q170.9 -1.4 170.9 -1.7V-1.7Q170.9 -2.0 170.7 -2.2Q170.4 -2.4 169.9 -2.5L169.0 -2.7Q168.4 -2.9 168.0 -3.1Q167.6 -3.3 167.5 -3.6Q167.3 -3.9 167.3 -4.4V-4.4Q167.3 -4.9 167.6 -5.3Q167.9 -5.7 168.4 -5.9Q168.9 -6.2 169.6 -6.2Q170.3 -6.2 170.8 -6.0Q171.3 -5.8 171.6 -5.4Q171.9 -5.0 171.9 -4.5L171.9 -4.5H170.9L170.9 -4.5Q170.8 -4.9 170.4 -5.1Q170.1 -5.3 169.6 -5.3Q169.2 -5.3 169.0 -5.2Q168.7 -5.1 168.5 -4.9Q168.4 -4.7 168.4 -4.4V-4.4Q168.4 -4.2 168.5 -4.1Q168.6 -3.9 168.8 -3.8Q169.0 -3.7 169.4 -3.6L170.3 -3.4Q170.9 -3.3 171.3 -3.0Q171.7 -2.8 171.8 -2.5Q172.0 -2.2 172.0 -1.8V-1.7Q172.0 -1.2 171.7 -0.8Q171.4 -0.4 170.8 -0.1Q170.3 0.1 169.6 0.1Z M176.2 0.1Q175.3 0.1 174.7 -0.3Q174.0 -0.7 173.7 -1.4Q173.3 -2.1 173.3 -3.0V-3.1Q173.3 -4.0 173.7 -4.7Q174.0 -5.4 174.7 -5.8Q175.3 -6.2 176.2 -6.2Q176.9 -6.2 177.4 -5.9Q178.0 -5.7 178.3 -5.2Q178.6 -4.8 178.7 -4.2L178.7 -4.2H177.7L177.7 -4.2Q177.5 -4.6 177.2 -4.9Q176.8 -5.2 176.2 -5.2Q175.6 -5.2 175.2 -5.0Q174.9 -4.7 174.7 -4.2Q174.5 -3.7 174.5 -3.1V-3.0Q174.5 -2.4 174.7 -1.9Q174.9 -1.4 175.3 -1.1Q175.6 -0.8 176.2 -0.8Q176.7 -0.8 177.1 -1.1Q177.5 -1.3 177.7 -1.8L177.7 -1.9L178.7 -1.9L178.7 -1.8Q178.6 -1.3 178.3 -0.8Q178.0 -0.4 177.4 -0.1Q176.9 0.1 176.2 0.1Z M182.8 0.1Q181.9 0.1 181.3 -0.3Q180.6 -0.6 180.3 -1.4Q179.9 -2.1 179.9 -3.0V-3.0Q179.9 -4.0 180.3 -4.7Q180.6 -5.4 181.3 -5.8Q181.9 -6.2 182.8 -6.2Q183.7 -6.2 184.3 -5.8Q184.9 -5.4 185.3 -4.7Q185.6 -4.0 185.6 -3.0V-3.0Q185.6 -2.1 185.3 -1.4Q184.9 -0.6 184.3 -0.3Q183.7 0.1 182.8 0.1ZM182.8 -0.8Q183.3 -0.8 183.7 -1.1Q184.1 -1.3 184.3 -1.8Q184.5 -2.3 184.5 -3.0V-3.0Q184.5 -3.7 184.3 -4.2Q184.1 -4.7 183.7 -5.0Q183.3 -5.2 182.8 -5.2Q182.2 -5.2 181.8 -5.0Q181.5 -4.7 181.3 -4.2Q181.1 -3.7 181.1 -3.0V-3.0Q181.1 -2.3 181.3 -1.8Q181.5 -1.3 181.8 -1.1Q182.2 -0.8 182.8 -0.8Z M187.2 0.0V-6.1H188.3V-5.2H188.4Q188.6 -5.6 189.0 -5.9Q189.4 -6.2 190.0 -6.2Q190.1 -6.2 190.3 -6.2Q190.4 -6.1 190.5 -6.1V-5.1Q190.3 -5.1 190.2 -5.1Q190.0 -5.2 189.9 -5.2Q189.4 -5.2 189.1 -5.0Q188.7 -4.8 188.5 -4.5Q188.3 -4.1 188.3 -3.7V0.0Z M194.3 0.1Q193.4 0.1 192.8 -0.3Q192.2 -0.7 191.9 -1.4Q191.5 -2.1 191.5 -3.0V-3.0Q191.5 -4.0 191.9 -4.7Q192.2 -5.4 192.8 -5.8Q193.4 -6.2 194.3 -6.2Q195.1 -6.2 195.7 -5.8Q196.3 -5.4 196.6 -4.7Q196.9 -4.0 196.9 -3.1V-2.7H192.1V-3.6H196.4L195.9 -2.8V-3.2Q195.9 -3.9 195.7 -4.4Q195.5 -4.8 195.1 -5.0Q194.7 -5.2 194.3 -5.2Q193.8 -5.2 193.4 -5.0Q193.0 -4.8 192.8 -4.3Q192.6 -3.9 192.6 -3.2V-2.8Q192.6 -2.2 192.8 -1.7Q193.0 -1.3 193.4 -1.1Q193.8 -0.8 194.3 -0.8Q194.7 -0.8 195.0 -0.9Q195.3 -1.0 195.5 -1.2Q195.7 -1.4 195.8 -1.6L195.8 -1.6L196.9 -1.6L196.9 -1.6Q196.8 -1.2 196.6 -1.0Q196.4 -0.7 196.1 -0.4Q195.8 -0.2 195.3 -0.0Q194.9 0.1 194.3 0.1Z M200.8 0.1Q200.0 0.1 199.5 -0.3Q198.9 -0.7 198.6 -1.4Q198.3 -2.1 198.3 -3.0V-3.0Q198.3 -4.0 198.6 -4.7Q198.9 -5.4 199.5 -5.8Q200.0 -6.2 200.8 -6.2Q201.2 -6.2 201.6 -6.0Q201.9 -5.9 202.2 -5.7Q202.5 -5.4 202.7 -5.1H202.8V-8.5H203.8V0.0H202.8V-1.0H202.7Q202.5 -0.6 202.2 -0.4Q201.9 -0.2 201.6 -0.0Q201.2 0.1 200.8 0.1ZM201.1 -0.8Q201.6 -0.8 202.0 -1.1Q202.4 -1.4 202.6 -1.9Q202.8 -2.4 202.8 -3.0V-3.0Q202.8 -3.7 202.6 -4.2Q202.4 -4.7 202.0 -5.0Q201.6 -5.2 201.1 -5.2Q200.5 -5.2 200.2 -5.0Q199.8 -4.7 199.6 -4.2Q199.4 -3.7 199.4 -3.0V-3.0Q199.4 -2.3 199.6 -1.9Q199.8 -1.4 200.2 -1.1Q200.5 -0.8 201.1 -0.8Z M210.8 0.1Q210.2 0.1 209.8 -0.1Q209.3 -0.3 209.0 -0.7Q208.8 -1.1 208.8 -1.7V-1.7Q208.8 -2.3 209.0 -2.6Q209.3 -3.0 209.8 -3.2Q210.3 -3.5 211.0 -3.5L213.2 -3.6V-2.8L211.1 -2.7Q210.5 -2.7 210.2 -2.4Q209.9 -2.2 209.9 -1.7V-1.7Q209.9 -1.3 210.2 -1.0Q210.5 -0.8 211.0 -0.8Q211.5 -0.8 211.9 -1.0Q212.3 -1.2 212.5 -1.5Q212.7 -1.8 212.7 -2.3V-4.1Q212.7 -4.7 212.4 -5.0Q212.0 -5.2 211.4 -5.2Q210.9 -5.2 210.5 -5.1Q210.2 -4.9 210.1 -4.5L210.1 -4.5H209.0L209.0 -4.5Q209.1 -5.0 209.4 -5.4Q209.7 -5.8 210.2 -6.0Q210.8 -6.2 211.4 -6.2Q212.2 -6.2 212.7 -5.9Q213.2 -5.7 213.5 -5.2Q213.8 -4.8 213.8 -4.2V0.0H212.7V-0.9H212.6Q212.4 -0.6 212.1 -0.3Q211.9 -0.1 211.5 -0.0Q211.2 0.1 210.8 0.1Z M218.2 2.1Q217.4 2.1 216.9 1.9Q216.3 1.7 216.0 1.3Q215.7 1.0 215.6 0.5L215.6 0.5H216.7L216.7 0.5Q216.8 0.8 217.2 1.0Q217.6 1.2 218.2 1.2Q219.0 1.2 219.4 0.9Q219.9 0.5 219.9 -0.1V-1.3H219.8Q219.6 -1.0 219.3 -0.8Q219.0 -0.5 218.7 -0.4Q218.3 -0.3 217.9 -0.3Q217.1 -0.3 216.5 -0.7Q216.0 -1.0 215.7 -1.7Q215.4 -2.4 215.4 -3.2V-3.2Q215.4 -4.1 215.7 -4.7Q216.0 -5.4 216.5 -5.8Q217.1 -6.2 217.9 -6.2Q218.3 -6.2 218.7 -6.0Q219.0 -5.9 219.3 -5.7Q219.6 -5.4 219.8 -5.1H219.8V-6.1H220.9V-0.1Q220.9 0.6 220.6 1.1Q220.3 1.6 219.6 1.9Q219.0 2.1 218.2 2.1ZM218.2 -1.2Q218.7 -1.2 219.1 -1.5Q219.5 -1.7 219.7 -2.2Q219.9 -2.6 219.9 -3.2V-3.2Q219.9 -3.8 219.7 -4.3Q219.5 -4.7 219.1 -5.0Q218.7 -5.2 218.2 -5.2Q217.6 -5.2 217.2 -5.0Q216.9 -4.7 216.7 -4.3Q216.5 -3.8 216.5 -3.2V-3.2Q216.5 -2.6 216.7 -2.2Q216.9 -1.7 217.2 -1.5Q217.6 -1.2 218.2 -1.2Z M224.5 0.1Q223.9 0.1 223.5 -0.1Q223.0 -0.3 222.8 -0.7Q222.5 -1.1 222.5 -1.7V-1.7Q222.5 -2.3 222.8 -2.6Q223.0 -3.0 223.5 -3.2Q224.0 -3.5 224.7 -3.5L227.0 -3.6V-2.8L224.9 -2.7Q224.2 -2.7 223.9 -2.4Q223.6 -2.2 223.6 -1.7V-1.7Q223.6 -1.3 223.9 -1.0Q224.3 -0.8 224.8 -0.8Q225.3 -0.8 225.6 -1.0Q226.0 -1.2 226.2 -1.5Q226.4 -1.8 226.4 -2.3V-4.1Q226.4 -4.7 226.1 -5.0Q225.8 -5.2 225.1 -5.2Q224.6 -5.2 224.3 -5.1Q223.9 -4.9 223.8 -4.5L223.8 -4.5H222.7L222.7 -4.5Q222.8 -5.0 223.1 -5.4Q223.5 -5.8 224.0 -6.0Q224.5 -6.2 225.2 -6.2Q225.9 -6.2 226.4 -5.9Q227.0 -5.7 227.2 -5.2Q227.5 -4.8 227.5 -4.2V0.0H226.4V-0.9H226.3Q226.2 -0.6 225.9 -0.3Q225.6 -0.1 225.3 -0.0Q224.9 0.1 224.5 0.1Z M229.4 0.0V-6.1H230.5V0.0ZM230.0 -7.2Q229.7 -7.2 229.5 -7.4Q229.3 -7.6 229.3 -7.9Q229.3 -8.2 229.5 -8.4Q229.7 -8.6 230.0 -8.6Q230.3 -8.6 230.5 -8.4Q230.7 -8.2 230.7 -7.9Q230.7 -7.6 230.5 -7.4Q230.3 -7.2 230.0 -7.2Z M232.4 0.0V-6.1H233.5V-5.2H233.6Q233.8 -5.6 234.3 -5.9Q234.7 -6.2 235.4 -6.2Q236.4 -6.2 237.0 -5.6Q237.5 -5.0 237.5 -3.9V0.0H236.4V-3.7Q236.4 -4.5 236.1 -4.8Q235.7 -5.2 235.0 -5.2Q234.6 -5.2 234.2 -5.0Q233.9 -4.8 233.7 -4.5Q233.5 -4.1 233.5 -3.6V0.0Z M241.5 0.1Q240.8 0.1 240.3 -0.1Q239.7 -0.3 239.4 -0.7Q239.1 -1.1 239.1 -1.6L239.1 -1.6H240.2L240.2 -1.6Q240.3 -1.2 240.6 -1.0Q241.0 -0.8 241.5 -0.8Q241.9 -0.8 242.2 -0.9Q242.5 -1.0 242.7 -1.2Q242.9 -1.4 242.9 -1.7V-1.7Q242.9 -2.0 242.6 -2.2Q242.4 -2.4 241.8 -2.5L240.9 -2.7Q240.3 -2.9 239.9 -3.1Q239.6 -3.3 239.4 -3.6Q239.2 -3.9 239.2 -4.4V-4.4Q239.2 -4.9 239.5 -5.3Q239.8 -5.7 240.3 -5.9Q240.9 -6.2 241.5 -6.2Q242.2 -6.2 242.7 -6.0Q243.2 -5.8 243.5 -5.4Q243.8 -5.0 243.9 -4.5L243.9 -4.5H242.8L242.8 -4.5Q242.7 -4.9 242.4 -5.1Q242.1 -5.3 241.5 -5.3Q241.2 -5.3 240.9 -5.2Q240.6 -5.1 240.5 -4.9Q240.3 -4.7 240.3 -4.4V-4.4Q240.3 -4.2 240.4 -4.1Q240.5 -3.9 240.7 -3.8Q241.0 -3.7 241.3 -3.6L242.3 -3.4Q242.8 -3.3 243.2 -3.0Q243.6 -2.8 243.8 -2.5Q244.0 -2.2 244.0 -1.8V-1.7Q244.0 -1.2 243.6 -0.8Q243.3 -0.4 242.8 -0.1Q242.2 0.1 241.5 0.1Z M247.8 0.0Q246.8 0.0 246.4 -0.3Q246.0 -0.7 246.0 -1.6V-5.2H245.0V-6.1H246.0V-7.6H247.1V-6.1H248.4V-5.2H247.1V-1.8Q247.1 -1.3 247.3 -1.1Q247.5 -0.9 247.9 -0.9Q248.1 -0.9 248.2 -0.9Q248.3 -0.9 248.4 -0.9V-0.0Q248.3 0.0 248.1 0.0Q247.9 0.0 247.8 0.0Z"/></g><g transform="translate(46,93)" fill="#9CA3AF"><path d="M3.0 0.1Q2.3 0.1 1.8 -0.1Q1.3 -0.3 0.9 -0.7Q0.6 -1.1 0.6 -1.6L0.6 -1.6H1.7L1.7 -1.6Q1.8 -1.2 2.1 -1.0Q2.5 -0.8 3.1 -0.8Q3.4 -0.8 3.7 -0.9Q4.0 -1.0 4.2 -1.2Q4.4 -1.4 4.4 -1.7V-1.7Q4.4 -2.0 4.1 -2.2Q3.9 -2.4 3.4 -2.5L2.4 -2.7Q1.8 -2.9 1.5 -3.1Q1.1 -3.3 0.9 -3.6Q0.7 -3.9 0.7 -4.4V-4.4Q0.7 -4.9 1.0 -5.3Q1.3 -5.7 1.9 -5.9Q2.4 -6.2 3.0 -6.2Q3.7 -6.2 4.2 -6.0Q4.7 -5.8 5.0 -5.4Q5.3 -5.0 5.4 -4.5L5.4 -4.5H4.3L4.3 -4.5Q4.2 -4.9 3.9 -5.1Q3.6 -5.3 3.0 -5.3Q2.7 -5.3 2.4 -5.2Q2.2 -5.1 2.0 -4.9Q1.8 -4.7 1.8 -4.4V-4.4Q1.8 -4.2 1.9 -4.1Q2.1 -3.9 2.3 -3.8Q2.5 -3.7 2.8 -3.6L3.8 -3.4Q4.4 -3.3 4.7 -3.0Q5.1 -2.8 5.3 -2.5Q5.5 -2.2 5.5 -1.8V-1.7Q5.5 -1.2 5.2 -0.8Q4.8 -0.4 4.3 -0.1Q3.7 0.1 3.0 0.1Z M7.7 2.1Q7.6 2.1 7.4 2.1Q7.3 2.1 7.2 2.1V1.2Q7.3 1.2 7.4 1.2Q7.5 1.2 7.6 1.2Q8.0 1.2 8.3 1.0Q8.6 0.8 8.7 0.3L8.8 0.0L6.6 -6.1H7.7L9.5 -0.5L9.2 -1.1H9.6L9.2 -0.5L11.0 -6.1H12.2L9.9 0.3Q9.6 1.0 9.3 1.4Q9.0 1.8 8.6 2.0Q8.2 2.1 7.7 2.1Z M13.6 0.0V-6.1H14.7V-5.2H14.7Q15.0 -5.6 15.4 -5.9Q15.8 -6.2 16.5 -6.2Q17.5 -6.2 18.1 -5.6Q18.6 -5.0 18.6 -3.9V0.0H17.5V-3.7Q17.5 -4.5 17.2 -4.8Q16.9 -5.2 16.2 -5.2Q15.7 -5.2 15.4 -5.0Q15.0 -4.8 14.8 -4.5Q14.7 -4.1 14.7 -3.6V0.0Z M23.0 0.1Q22.1 0.1 21.5 -0.3Q20.9 -0.7 20.5 -1.4Q20.2 -2.1 20.2 -3.0V-3.1Q20.2 -4.0 20.5 -4.7Q20.9 -5.4 21.5 -5.8Q22.1 -6.2 23.0 -6.2Q23.7 -6.2 24.3 -5.9Q24.8 -5.7 25.2 -5.2Q25.5 -4.8 25.6 -4.2L25.6 -4.2H24.5L24.5 -4.2Q24.4 -4.6 24.0 -4.9Q23.6 -5.2 23.0 -5.2Q22.5 -5.2 22.1 -5.0Q21.7 -4.7 21.5 -4.2Q21.3 -3.7 21.3 -3.1V-3.0Q21.3 -2.4 21.5 -1.9Q21.7 -1.4 22.1 -1.1Q22.5 -0.8 23.0 -0.8Q23.6 -0.8 24.0 -1.1Q24.3 -1.3 24.5 -1.8L24.5 -1.9L25.6 -1.9L25.6 -1.8Q25.4 -1.3 25.1 -0.8Q24.8 -0.4 24.3 -0.1Q23.7 0.1 23.0 0.1Z M27.1 0.0V-8.5H28.2V-5.1H28.3Q28.6 -5.6 29.0 -5.9Q29.4 -6.2 30.1 -6.2Q30.8 -6.2 31.2 -5.9Q31.7 -5.6 32.0 -5.1Q32.2 -4.6 32.2 -3.9V0.0H31.1V-3.7Q31.1 -4.5 30.8 -4.8Q30.5 -5.2 29.8 -5.2Q29.3 -5.2 28.9 -5.0Q28.6 -4.8 28.4 -4.5Q28.2 -4.1 28.2 -3.6V0.0Z M34.1 0.0V-6.1H35.2V-5.2H35.2Q35.4 -5.6 35.8 -5.9Q36.2 -6.2 36.8 -6.2Q37.0 -6.2 37.1 -6.2Q37.3 -6.1 37.3 -6.1V-5.1Q37.2 -5.1 37.0 -5.1Q36.9 -5.2 36.7 -5.2Q36.3 -5.2 35.9 -5.0Q35.6 -4.8 35.4 -4.5Q35.2 -4.1 35.2 -3.7V0.0Z M41.2 0.1Q40.3 0.1 39.7 -0.3Q39.0 -0.6 38.7 -1.4Q38.4 -2.1 38.4 -3.0V-3.0Q38.4 -4.0 38.7 -4.7Q39.1 -5.4 39.7 -5.8Q40.3 -6.2 41.2 -6.2Q42.1 -6.2 42.7 -5.8Q43.3 -5.4 43.7 -4.7Q44.0 -4.0 44.0 -3.0V-3.0Q44.0 -2.1 43.7 -1.4Q43.3 -0.6 42.7 -0.3Q42.1 0.1 41.2 0.1ZM41.2 -0.8Q41.7 -0.8 42.1 -1.1Q42.5 -1.3 42.7 -1.8Q42.9 -2.3 42.9 -3.0V-3.0Q42.9 -3.7 42.7 -4.2Q42.5 -4.7 42.1 -5.0Q41.7 -5.2 41.2 -5.2Q40.6 -5.2 40.3 -5.0Q39.9 -4.7 39.7 -4.2Q39.5 -3.7 39.5 -3.0V-3.0Q39.5 -2.3 39.7 -1.8Q39.9 -1.3 40.3 -1.1Q40.6 -0.8 41.2 -0.8Z M45.6 0.0V-6.1H46.7V-5.2H46.8Q47.0 -5.6 47.5 -5.9Q47.9 -6.2 48.6 -6.2Q49.6 -6.2 50.1 -5.6Q50.7 -5.0 50.7 -3.9V0.0H49.6V-3.7Q49.6 -4.5 49.3 -4.8Q48.9 -5.2 48.2 -5.2Q47.8 -5.2 47.4 -5.0Q47.1 -4.8 46.9 -4.5Q46.7 -4.1 46.7 -3.6V0.0Z M52.6 0.0V-6.1H53.7V0.0ZM53.1 -7.2Q52.8 -7.2 52.6 -7.4Q52.4 -7.6 52.4 -7.9Q52.4 -8.2 52.6 -8.4Q52.8 -8.6 53.1 -8.6Q53.4 -8.6 53.6 -8.4Q53.8 -8.2 53.8 -7.9Q53.8 -7.6 53.6 -7.4Q53.4 -7.2 53.1 -7.2Z M55.5 0.0V-0.7L58.9 -5.1V-5.2H55.5V-6.1H60.2V-5.3L56.8 -1.0V-0.9H60.2V0.0Z M64.5 0.1Q63.6 0.1 63.0 -0.3Q62.3 -0.7 62.0 -1.4Q61.7 -2.1 61.7 -3.0V-3.0Q61.7 -4.0 62.0 -4.7Q62.3 -5.4 63.0 -5.8Q63.6 -6.2 64.4 -6.2Q65.2 -6.2 65.8 -5.8Q66.4 -5.4 66.8 -4.7Q67.1 -4.0 67.1 -3.1V-2.7H62.2V-3.6H66.5L66.0 -2.8V-3.2Q66.0 -3.9 65.8 -4.4Q65.6 -4.8 65.2 -5.0Q64.9 -5.2 64.4 -5.2Q63.9 -5.2 63.6 -5.0Q63.2 -4.8 63.0 -4.3Q62.8 -3.9 62.8 -3.2V-2.8Q62.8 -2.2 63.0 -1.7Q63.2 -1.3 63.6 -1.1Q64.0 -0.8 64.5 -0.8Q64.9 -0.8 65.2 -0.9Q65.5 -1.0 65.7 -1.2Q65.9 -1.4 65.9 -1.6L66.0 -1.6L67.0 -1.6L67.0 -1.6Q66.9 -1.2 66.7 -1.0Q66.5 -0.7 66.2 -0.4Q65.9 -0.2 65.5 -0.0Q65.0 0.1 64.5 0.1Z M70.9 0.1Q70.2 0.1 69.6 -0.3Q69.0 -0.7 68.7 -1.4Q68.4 -2.1 68.4 -3.0V-3.0Q68.4 -4.0 68.7 -4.7Q69.0 -5.4 69.6 -5.8Q70.2 -6.2 70.9 -6.2Q71.4 -6.2 71.7 -6.0Q72.1 -5.9 72.4 -5.7Q72.7 -5.4 72.8 -5.1H72.9V-8.5H74.0V0.0H72.9V-1.0H72.8Q72.6 -0.6 72.4 -0.4Q72.1 -0.2 71.7 -0.0Q71.4 0.1 70.9 0.1ZM71.2 -0.8Q71.7 -0.8 72.1 -1.1Q72.5 -1.4 72.7 -1.9Q72.9 -2.4 72.9 -3.0V-3.0Q72.9 -3.7 72.7 -4.2Q72.5 -4.7 72.1 -5.0Q71.7 -5.2 71.2 -5.2Q70.7 -5.2 70.3 -5.0Q69.9 -4.7 69.7 -4.2Q69.5 -3.7 69.5 -3.0V-3.0Q69.5 -2.3 69.7 -1.9Q69.9 -1.4 70.3 -1.1Q70.7 -0.8 71.2 -0.8Z M79.4 0.0V-8.1H84.5V-7.1H80.5V-4.6H84.3V-3.7H80.5V-1.0H84.5V0.0Z M89.7 0.2Q88.6 0.2 87.8 -0.3Q87.0 -0.8 86.5 -1.8Q86.1 -2.7 86.1 -4.0V-4.1Q86.1 -5.4 86.5 -6.3Q87.0 -7.3 87.8 -7.8Q88.6 -8.3 89.7 -8.3Q90.6 -8.3 91.3 -8.0Q92.0 -7.6 92.5 -7.0Q92.9 -6.4 93.0 -5.6L93.0 -5.6H91.9L91.9 -5.6Q91.8 -6.1 91.5 -6.5Q91.2 -6.9 90.7 -7.1Q90.3 -7.3 89.7 -7.3Q89.0 -7.3 88.4 -6.9Q87.9 -6.5 87.6 -5.8Q87.3 -5.0 87.3 -4.1V-4.0Q87.3 -3.1 87.6 -2.3Q87.9 -1.6 88.4 -1.2Q89.0 -0.8 89.7 -0.8Q90.3 -0.8 90.7 -1.0Q91.2 -1.2 91.5 -1.5Q91.8 -1.9 91.9 -2.3L91.9 -2.3H93.0L93.0 -2.3Q92.9 -1.6 92.5 -1.0Q92.0 -0.4 91.3 -0.1Q90.6 0.2 89.7 0.2Z M98.2 0.2Q97.4 0.2 96.7 -0.1Q96.0 -0.4 95.5 -1.0Q95.0 -1.5 94.8 -2.3Q94.5 -3.1 94.5 -4.1V-4.1Q94.5 -5.3 95.0 -6.3Q95.4 -7.2 96.3 -7.8Q97.1 -8.3 98.2 -8.3Q99.1 -8.3 99.8 -8.0Q100.6 -7.6 101.0 -7.1Q101.5 -6.5 101.6 -5.7L101.6 -5.7H100.5L100.5 -5.7Q100.3 -6.5 99.7 -6.9Q99.1 -7.3 98.2 -7.3Q97.4 -7.3 96.9 -6.9Q96.3 -6.5 96.0 -5.8Q95.7 -5.0 95.7 -4.1V-4.1Q95.7 -3.3 95.8 -2.7Q96.0 -2.1 96.4 -1.7Q96.7 -1.3 97.2 -1.0Q97.6 -0.8 98.2 -0.8Q98.9 -0.8 99.5 -1.1Q100.0 -1.4 100.3 -1.9Q100.6 -2.4 100.6 -3.0L100.6 -3.2H98.4V-4.2H101.7V-3.2Q101.7 -2.4 101.4 -1.8Q101.2 -1.2 100.7 -0.7Q100.3 -0.3 99.6 -0.0Q99.0 0.2 98.2 0.2Z M104.3 0.1Q104.0 0.1 103.8 -0.2Q103.5 -0.4 103.5 -0.7Q103.5 -1.0 103.8 -1.2Q104.0 -1.5 104.3 -1.5Q104.6 -1.5 104.8 -1.2Q105.1 -1.0 105.1 -0.7Q105.1 -0.4 104.8 -0.2Q104.6 0.1 104.3 0.1Z M110.5 0.0V-8.1H111.6V-4.6H115.9V-8.1H117.1V0.0H115.9V-3.6H111.6V0.0Z M121.6 0.1Q120.8 0.1 120.1 -0.3Q119.5 -0.6 119.1 -1.4Q118.8 -2.1 118.8 -3.0V-3.0Q118.8 -4.0 119.1 -4.7Q119.5 -5.4 120.1 -5.8Q120.8 -6.2 121.6 -6.2Q122.5 -6.2 123.1 -5.8Q123.8 -5.4 124.1 -4.7Q124.5 -4.0 124.5 -3.0V-3.0Q124.5 -2.1 124.1 -1.4Q123.8 -0.6 123.1 -0.3Q122.5 0.1 121.6 0.1ZM121.6 -0.8Q122.2 -0.8 122.6 -1.1Q122.9 -1.3 123.1 -1.8Q123.3 -2.3 123.3 -3.0V-3.0Q123.3 -3.7 123.1 -4.2Q122.9 -4.7 122.6 -5.0Q122.2 -5.2 121.6 -5.2Q121.1 -5.2 120.7 -5.0Q120.3 -4.7 120.1 -4.2Q119.9 -3.7 119.9 -3.0V-3.0Q119.9 -2.3 120.1 -1.8Q120.3 -1.3 120.7 -1.1Q121.1 -0.8 121.6 -0.8Z M126.1 0.0V-6.1H127.2V-5.2H127.2Q127.5 -5.6 127.9 -5.9Q128.3 -6.2 129.0 -6.2Q130.0 -6.2 130.6 -5.6Q131.1 -5.0 131.1 -3.9V0.0H130.0V-3.7Q130.0 -4.5 129.7 -4.8Q129.4 -5.2 128.7 -5.2Q128.2 -5.2 127.9 -5.0Q127.5 -4.8 127.3 -4.5Q127.2 -4.1 127.2 -3.6V0.0Z M135.5 0.1Q134.6 0.1 134.0 -0.3Q133.4 -0.7 133.0 -1.4Q132.7 -2.1 132.7 -3.0V-3.0Q132.7 -4.0 133.0 -4.7Q133.4 -5.4 134.0 -5.8Q134.6 -6.2 135.4 -6.2Q136.3 -6.2 136.9 -5.8Q137.5 -5.4 137.8 -4.7Q138.1 -4.0 138.1 -3.1V-2.7H133.2V-3.6H137.6L137.0 -2.8V-3.2Q137.0 -3.9 136.8 -4.4Q136.6 -4.8 136.3 -5.0Q135.9 -5.2 135.4 -5.2Q135.0 -5.2 134.6 -5.0Q134.2 -4.8 134.0 -4.3Q133.8 -3.9 133.8 -3.2V-2.8Q133.8 -2.2 134.0 -1.7Q134.2 -1.3 134.6 -1.1Q135.0 -0.8 135.5 -0.8Q135.9 -0.8 136.2 -0.9Q136.5 -1.0 136.7 -1.2Q136.9 -1.4 137.0 -1.6L137.0 -1.6L138.1 -1.6L138.0 -1.6Q138.0 -1.2 137.8 -1.0Q137.6 -0.7 137.2 -0.4Q136.9 -0.2 136.5 -0.0Q136.1 0.1 135.5 0.1Z M141.9 0.1Q141.2 0.1 140.6 -0.1Q140.1 -0.3 139.8 -0.7Q139.5 -1.1 139.4 -1.6L139.4 -1.6H140.5L140.5 -1.6Q140.6 -1.2 141.0 -1.0Q141.3 -0.8 141.9 -0.8Q142.3 -0.8 142.6 -0.9Q142.9 -1.0 143.1 -1.2Q143.2 -1.4 143.2 -1.7V-1.7Q143.2 -2.0 143.0 -2.2Q142.8 -2.4 142.2 -2.5L141.3 -2.7Q140.7 -2.9 140.3 -3.1Q140.0 -3.3 139.8 -3.6Q139.6 -3.9 139.6 -4.4V-4.4Q139.6 -4.9 139.9 -5.3Q140.2 -5.7 140.7 -5.9Q141.2 -6.2 141.9 -6.2Q142.6 -6.2 143.1 -6.0Q143.6 -5.8 143.9 -5.4Q144.2 -5.0 144.2 -4.5L144.2 -4.5H143.2L143.2 -4.5Q143.1 -4.9 142.8 -5.1Q142.4 -5.3 141.9 -5.3Q141.5 -5.3 141.3 -5.2Q141.0 -5.1 140.9 -4.9Q140.7 -4.7 140.7 -4.4V-4.4Q140.7 -4.2 140.8 -4.1Q140.9 -3.9 141.1 -3.8Q141.3 -3.7 141.7 -3.6L142.6 -3.4Q143.2 -3.3 143.6 -3.0Q144.0 -2.8 144.2 -2.5Q144.3 -2.2 144.3 -1.8V-1.7Q144.3 -1.2 144.0 -0.8Q143.7 -0.4 143.1 -0.1Q142.6 0.1 141.9 0.1Z M148.2 0.0Q147.2 0.0 146.8 -0.3Q146.3 -0.7 146.3 -1.6V-5.2H145.4V-6.1H146.3V-7.6H147.5V-6.1H148.8V-5.2H147.5V-1.8Q147.5 -1.3 147.7 -1.1Q147.9 -0.9 148.3 -0.9Q148.5 -0.9 148.5 -0.9Q148.6 -0.9 148.8 -0.9V-0.0Q148.6 0.0 148.5 0.0Q148.3 0.0 148.2 0.0Z M153.6 0.0V-6.1H154.7V-5.2H154.8Q155.0 -5.6 155.5 -5.9Q155.9 -6.2 156.6 -6.2Q157.6 -6.2 158.2 -5.6Q158.7 -5.0 158.7 -3.9V0.0H157.6V-3.7Q157.6 -4.5 157.3 -4.8Q156.9 -5.2 156.2 -5.2Q155.8 -5.2 155.4 -5.0Q155.1 -4.8 154.9 -4.5Q154.7 -4.1 154.7 -3.6V0.0Z M162.6 0.1Q161.9 0.1 161.4 -0.2Q161.0 -0.4 160.7 -0.9Q160.5 -1.4 160.5 -2.1V-6.1H161.6V-2.4Q161.6 -1.6 161.9 -1.2Q162.2 -0.8 162.9 -0.8Q163.3 -0.8 163.6 -1.0Q163.9 -1.1 164.1 -1.3Q164.3 -1.5 164.4 -1.8Q164.5 -2.1 164.5 -2.5V-6.1H165.6V0.0H164.5V-0.9H164.4Q164.2 -0.6 164.0 -0.4Q163.7 -0.1 163.4 -0.0Q163.0 0.1 162.6 0.1Z M167.5 0.0V-6.1H168.6V-5.1H168.7Q168.9 -5.6 169.3 -5.9Q169.7 -6.2 170.3 -6.2Q170.7 -6.2 171.0 -6.0Q171.4 -5.9 171.6 -5.7Q171.8 -5.4 172.0 -5.1H172.1Q172.2 -5.4 172.5 -5.7Q172.8 -5.9 173.1 -6.0Q173.5 -6.2 173.9 -6.2Q174.5 -6.2 175.0 -5.9Q175.4 -5.7 175.6 -5.3Q175.9 -4.8 175.9 -4.2V0.0H174.8V-3.9Q174.8 -4.4 174.6 -4.7Q174.5 -4.9 174.2 -5.1Q174.0 -5.2 173.5 -5.2Q173.1 -5.2 172.8 -5.0Q172.5 -4.9 172.4 -4.6Q172.2 -4.2 172.2 -3.9V0.0H171.1V-4.1Q171.1 -4.4 171.0 -4.7Q170.8 -4.9 170.5 -5.1Q170.3 -5.2 169.9 -5.2Q169.5 -5.2 169.2 -5.0Q168.9 -4.8 168.7 -4.5Q168.6 -4.2 168.6 -3.7V0.0Z M180.8 0.1Q180.4 0.1 180.0 -0.0Q179.7 -0.2 179.4 -0.4Q179.1 -0.6 178.9 -1.0H178.9V0.0H177.8V-8.5H178.9V-5.1H178.9Q179.1 -5.4 179.4 -5.7Q179.7 -5.9 180.0 -6.0Q180.4 -6.2 180.8 -6.2Q181.6 -6.2 182.2 -5.8Q182.7 -5.4 183.0 -4.7Q183.4 -4.0 183.4 -3.0V-3.0Q183.4 -2.1 183.0 -1.4Q182.7 -0.7 182.2 -0.3Q181.6 0.1 180.8 0.1ZM180.5 -0.8Q181.1 -0.8 181.5 -1.1Q181.8 -1.4 182.0 -1.9Q182.2 -2.3 182.2 -3.0V-3.0Q182.2 -3.7 182.0 -4.2Q181.8 -4.7 181.5 -5.0Q181.1 -5.2 180.5 -5.2Q180.0 -5.2 179.6 -5.0Q179.3 -4.7 179.0 -4.2Q178.8 -3.7 178.8 -3.0V-3.0Q178.8 -2.4 179.0 -1.9Q179.3 -1.4 179.6 -1.1Q180.0 -0.8 180.5 -0.8Z M187.5 0.1Q186.6 0.1 186.0 -0.3Q185.3 -0.7 185.0 -1.4Q184.7 -2.1 184.7 -3.0V-3.0Q184.7 -4.0 185.0 -4.7Q185.3 -5.4 186.0 -5.8Q186.6 -6.2 187.4 -6.2Q188.3 -6.2 188.9 -5.8Q189.5 -5.4 189.8 -4.7Q190.1 -4.0 190.1 -3.1V-2.7H185.2V-3.6H189.6L189.0 -2.8V-3.2Q189.0 -3.9 188.8 -4.4Q188.6 -4.8 188.3 -5.0Q187.9 -5.2 187.4 -5.2Q186.9 -5.2 186.6 -5.0Q186.2 -4.8 186.0 -4.3Q185.8 -3.9 185.8 -3.2V-2.8Q185.8 -2.2 186.0 -1.7Q186.2 -1.3 186.6 -1.1Q187.0 -0.8 187.5 -0.8Q187.9 -0.8 188.2 -0.9Q188.5 -1.0 188.7 -1.2Q188.9 -1.4 188.9 -1.6L189.0 -1.6L190.0 -1.6L190.0 -1.6Q189.9 -1.2 189.7 -1.0Q189.6 -0.7 189.2 -0.4Q188.9 -0.2 188.5 -0.0Q188.0 0.1 187.5 0.1Z M191.7 0.0V-6.1H192.8V-5.2H192.9Q193.1 -5.6 193.5 -5.9Q193.9 -6.2 194.5 -6.2Q194.6 -6.2 194.8 -6.2Q194.9 -6.1 195.0 -6.1V-5.1Q194.8 -5.1 194.7 -5.1Q194.5 -5.2 194.4 -5.2Q193.9 -5.2 193.6 -5.0Q193.2 -4.8 193.0 -4.5Q192.8 -4.1 192.8 -3.7V0.0Z M198.5 0.1Q197.8 0.1 197.2 -0.1Q196.7 -0.3 196.4 -0.7Q196.1 -1.1 196.0 -1.6L196.0 -1.6H197.1L197.1 -1.6Q197.2 -1.2 197.6 -1.0Q197.9 -0.8 198.5 -0.8Q198.9 -0.8 199.2 -0.9Q199.5 -1.0 199.6 -1.2Q199.8 -1.4 199.8 -1.7V-1.7Q199.8 -2.0 199.6 -2.2Q199.3 -2.4 198.8 -2.5L197.8 -2.7Q197.3 -2.9 196.9 -3.1Q196.5 -3.3 196.4 -3.6Q196.2 -3.9 196.2 -4.4V-4.4Q196.2 -4.9 196.5 -5.3Q196.8 -5.7 197.3 -5.9Q197.8 -6.2 198.5 -6.2Q199.1 -6.2 199.6 -6.0Q200.2 -5.8 200.5 -5.4Q200.8 -5.0 200.8 -4.5L200.8 -4.5H199.8L199.8 -4.5Q199.7 -4.9 199.3 -5.1Q199.0 -5.3 198.5 -5.3Q198.1 -5.3 197.9 -5.2Q197.6 -5.1 197.4 -4.9Q197.3 -4.7 197.3 -4.4V-4.4Q197.3 -4.2 197.4 -4.1Q197.5 -3.9 197.7 -3.8Q197.9 -3.7 198.3 -3.6L199.2 -3.4Q199.8 -3.3 200.2 -3.0Q200.6 -2.8 200.7 -2.5Q200.9 -2.2 200.9 -1.8V-1.7Q200.9 -1.2 200.6 -0.8Q200.3 -0.4 199.7 -0.1Q199.2 0.1 198.5 0.1Z M202.3 2.1 202.8 -1.2H204.0L203.1 2.1Z M209.5 0.0V-6.1H210.6V0.0ZM210.0 -7.2Q209.7 -7.2 209.5 -7.4Q209.3 -7.6 209.3 -7.9Q209.3 -8.2 209.5 -8.4Q209.7 -8.6 210.0 -8.6Q210.3 -8.6 210.5 -8.4Q210.7 -8.2 210.7 -7.9Q210.7 -7.6 210.5 -7.4Q210.3 -7.2 210.0 -7.2Z M212.5 0.0V-6.1H213.6V-5.2H213.7Q213.9 -5.6 214.3 -5.9Q214.8 -6.2 215.4 -6.2Q216.5 -6.2 217.0 -5.6Q217.6 -5.0 217.6 -3.9V0.0H216.5V-3.7Q216.5 -4.5 216.1 -4.8Q215.8 -5.2 215.1 -5.2Q214.6 -5.2 214.3 -5.0Q214.0 -4.8 213.8 -4.5Q213.6 -4.1 213.6 -3.6V0.0Z M221.9 0.1Q221.1 0.1 220.4 -0.3Q219.8 -0.7 219.5 -1.4Q219.1 -2.1 219.1 -3.0V-3.1Q219.1 -4.0 219.5 -4.7Q219.8 -5.4 220.4 -5.8Q221.1 -6.2 221.9 -6.2Q222.7 -6.2 223.2 -5.9Q223.8 -5.7 224.1 -5.2Q224.4 -4.8 224.5 -4.2L224.5 -4.2H223.4L223.4 -4.2Q223.3 -4.6 222.9 -4.9Q222.6 -5.2 221.9 -5.2Q221.4 -5.2 221.0 -5.0Q220.6 -4.7 220.4 -4.2Q220.2 -3.7 220.2 -3.1V-3.0Q220.2 -2.4 220.4 -1.9Q220.6 -1.4 221.0 -1.1Q221.4 -0.8 221.9 -0.8Q222.5 -0.8 222.9 -1.1Q223.3 -1.3 223.4 -1.8L223.4 -1.9L224.5 -1.9L224.5 -1.8Q224.4 -1.3 224.0 -0.8Q223.7 -0.4 223.2 -0.1Q222.7 0.1 221.9 0.1Z M226.1 0.0V-8.5H227.2V0.0Z M231.2 0.1Q230.5 0.1 230.0 -0.2Q229.5 -0.4 229.3 -0.9Q229.1 -1.4 229.1 -2.1V-6.1H230.2V-2.4Q230.2 -1.6 230.5 -1.2Q230.8 -0.8 231.5 -0.8Q231.9 -0.8 232.2 -1.0Q232.5 -1.1 232.7 -1.3Q232.8 -1.5 232.9 -1.8Q233.0 -2.1 233.0 -2.5V-6.1H234.1V0.0H233.0V-0.9H233.0Q232.8 -0.6 232.6 -0.4Q232.3 -0.1 232.0 -0.0Q231.6 0.1 231.2 0.1Z M238.3 0.1Q237.5 0.1 236.9 -0.3Q236.4 -0.7 236.1 -1.4Q235.8 -2.1 235.8 -3.0V-3.0Q235.8 -4.0 236.1 -4.7Q236.4 -5.4 236.9 -5.8Q237.5 -6.2 238.3 -6.2Q238.7 -6.2 239.1 -6.0Q239.4 -5.9 239.7 -5.7Q240.0 -5.4 240.2 -5.1H240.2V-8.5H241.3V0.0H240.2V-1.0H240.2Q240.0 -0.6 239.7 -0.4Q239.4 -0.2 239.1 -0.0Q238.7 0.1 238.3 0.1ZM238.6 -0.8Q239.1 -0.8 239.5 -1.1Q239.9 -1.4 240.1 -1.9Q240.3 -2.4 240.3 -3.0V-3.0Q240.3 -3.7 240.1 -4.2Q239.9 -4.7 239.5 -5.0Q239.1 -5.2 238.6 -5.2Q238.0 -5.2 237.6 -5.0Q237.3 -4.7 237.1 -4.2Q236.9 -3.7 236.9 -3.0V-3.0Q236.9 -2.3 237.1 -1.9Q237.3 -1.4 237.6 -1.1Q238.0 -0.8 238.6 -0.8Z M243.3 0.0V-6.1H244.4V0.0ZM243.9 -7.2Q243.6 -7.2 243.4 -7.4Q243.2 -7.6 243.2 -7.9Q243.2 -8.2 243.4 -8.4Q243.6 -8.6 243.9 -8.6Q244.2 -8.6 244.4 -8.4Q244.6 -8.2 244.6 -7.9Q244.6 -7.6 244.4 -7.4Q244.2 -7.2 243.9 -7.2Z M246.4 0.0V-6.1H247.4V-5.2H247.5Q247.8 -5.6 248.2 -5.9Q248.6 -6.2 249.3 -6.2Q250.3 -6.2 250.9 -5.6Q251.4 -5.0 251.4 -3.9V0.0H250.3V-3.7Q250.3 -4.5 250.0 -4.8Q249.7 -5.2 249.0 -5.2Q248.5 -5.2 248.2 -5.0Q247.8 -4.8 247.6 -4.5Q247.4 -4.1 247.4 -3.6V0.0Z M255.8 2.1Q255.1 2.1 254.5 1.9Q253.9 1.7 253.6 1.3Q253.3 1.0 253.2 0.5L253.2 0.5H254.3L254.3 0.5Q254.4 0.8 254.8 1.0Q255.2 1.2 255.8 1.2Q256.6 1.2 257.0 0.9Q257.5 0.5 257.5 -0.1V-1.3H257.4Q257.2 -1.0 256.9 -0.8Q256.6 -0.5 256.3 -0.4Q255.9 -0.3 255.5 -0.3Q254.7 -0.3 254.1 -0.7Q253.6 -1.0 253.3 -1.7Q253.0 -2.4 253.0 -3.2V-3.2Q253.0 -4.1 253.3 -4.7Q253.6 -5.4 254.2 -5.8Q254.7 -6.2 255.5 -6.2Q255.9 -6.2 256.3 -6.0Q256.7 -5.9 256.9 -5.7Q257.2 -5.4 257.4 -5.1H257.5V-6.1H258.6V-0.1Q258.6 0.6 258.2 1.1Q257.9 1.6 257.3 1.9Q256.6 2.1 255.8 2.1ZM255.8 -1.2Q256.3 -1.2 256.7 -1.5Q257.1 -1.7 257.3 -2.2Q257.5 -2.6 257.5 -3.2V-3.2Q257.5 -3.8 257.3 -4.3Q257.1 -4.7 256.7 -5.0Q256.3 -5.2 255.8 -5.2Q255.2 -5.2 254.9 -5.0Q254.5 -4.7 254.3 -4.3Q254.1 -3.8 254.1 -3.2V-3.2Q254.1 -2.6 254.3 -2.2Q254.5 -1.7 254.9 -1.5Q255.2 -1.2 255.8 -1.2Z"/></g><g transform="translate(46,112)" fill="#9CA3AF"><path d="M3.1 0.0Q2.1 0.0 1.7 -0.3Q1.3 -0.7 1.3 -1.6V-5.2H0.3V-6.1H1.3V-7.6H2.4V-6.1H3.7V-5.2H2.4V-1.8Q2.4 -1.3 2.6 -1.1Q2.8 -0.9 3.2 -0.9Q3.4 -0.9 3.5 -0.9Q3.6 -0.9 3.7 -0.9V-0.0Q3.6 0.0 3.4 0.0Q3.3 0.0 3.1 0.0Z M5.3 0.0V-8.5H6.4V-5.1H6.5Q6.7 -5.6 7.2 -5.9Q7.6 -6.2 8.3 -6.2Q8.9 -6.2 9.4 -5.9Q9.9 -5.6 10.1 -5.1Q10.4 -4.6 10.4 -3.9V0.0H9.3V-3.7Q9.3 -4.5 9.0 -4.8Q8.6 -5.2 7.9 -5.2Q7.5 -5.2 7.1 -5.0Q6.8 -4.8 6.6 -4.5Q6.4 -4.1 6.4 -3.6V0.0Z M14.8 0.1Q13.9 0.1 13.2 -0.3Q12.6 -0.7 12.3 -1.4Q11.9 -2.1 11.9 -3.0V-3.0Q11.9 -4.0 12.3 -4.7Q12.6 -5.4 13.2 -5.8Q13.9 -6.2 14.7 -6.2Q15.5 -6.2 16.1 -5.8Q16.7 -5.4 17.1 -4.7Q17.4 -4.0 17.4 -3.1V-2.7H12.5V-3.6H16.8L16.3 -2.8V-3.2Q16.3 -3.9 16.1 -4.4Q15.9 -4.8 15.5 -5.0Q15.2 -5.2 14.7 -5.2Q14.2 -5.2 13.8 -5.0Q13.5 -4.8 13.3 -4.3Q13.0 -3.9 13.0 -3.2V-2.8Q13.0 -2.2 13.3 -1.7Q13.5 -1.3 13.9 -1.1Q14.2 -0.8 14.8 -0.8Q15.2 -0.8 15.5 -0.9Q15.8 -1.0 16.0 -1.2Q16.1 -1.4 16.2 -1.6L16.2 -1.6L17.3 -1.6L17.3 -1.6Q17.2 -1.2 17.0 -1.0Q16.8 -0.7 16.5 -0.4Q16.2 -0.2 15.7 -0.0Q15.3 0.1 14.8 0.1Z M24.8 0.1Q23.9 0.1 23.3 -0.3Q22.7 -0.6 22.3 -1.4Q22.0 -2.1 22.0 -3.0V-3.0Q22.0 -4.0 22.3 -4.7Q22.7 -5.4 23.3 -5.8Q23.9 -6.2 24.8 -6.2Q25.7 -6.2 26.3 -5.8Q27.0 -5.4 27.3 -4.7Q27.6 -4.0 27.6 -3.0V-3.0Q27.6 -2.1 27.3 -1.4Q27.0 -0.6 26.3 -0.3Q25.7 0.1 24.8 0.1ZM24.8 -0.8Q25.4 -0.8 25.8 -1.1Q26.1 -1.3 26.3 -1.8Q26.5 -2.3 26.5 -3.0V-3.0Q26.5 -3.7 26.3 -4.2Q26.1 -4.7 25.7 -5.0Q25.4 -5.2 24.8 -5.2Q24.3 -5.2 23.9 -5.0Q23.5 -4.7 23.3 -4.2Q23.1 -3.7 23.1 -3.0V-3.0Q23.1 -2.3 23.3 -1.8Q23.5 -1.3 23.9 -1.1Q24.3 -0.8 24.8 -0.8Z M29.3 0.0V-6.1H30.3V-5.2H30.4Q30.7 -5.6 31.1 -5.9Q31.5 -6.2 32.2 -6.2Q33.2 -6.2 33.8 -5.6Q34.3 -5.0 34.3 -3.9V0.0H33.2V-3.7Q33.2 -4.5 32.9 -4.8Q32.6 -5.2 31.9 -5.2Q31.4 -5.2 31.1 -5.0Q30.7 -4.8 30.5 -4.5Q30.3 -4.1 30.3 -3.6V0.0Z M38.7 0.1Q37.8 0.1 37.2 -0.3Q36.6 -0.7 36.2 -1.4Q35.9 -2.1 35.9 -3.0V-3.0Q35.9 -4.0 36.2 -4.7Q36.6 -5.4 37.2 -5.8Q37.8 -6.2 38.6 -6.2Q39.5 -6.2 40.1 -5.8Q40.7 -5.4 41.0 -4.7Q41.3 -4.0 41.3 -3.1V-2.7H36.4V-3.6H40.8L40.2 -2.8V-3.2Q40.2 -3.9 40.0 -4.4Q39.8 -4.8 39.5 -5.0Q39.1 -5.2 38.6 -5.2Q38.2 -5.2 37.8 -5.0Q37.4 -4.8 37.2 -4.3Q37.0 -3.9 37.0 -3.2V-2.8Q37.0 -2.2 37.2 -1.7Q37.4 -1.3 37.8 -1.1Q38.2 -0.8 38.7 -0.8Q39.1 -0.8 39.4 -0.9Q39.7 -1.0 39.9 -1.2Q40.1 -1.4 40.2 -1.6L40.2 -1.6L41.2 -1.6L41.2 -1.6Q41.2 -1.2 41.0 -1.0Q40.8 -0.7 40.4 -0.4Q40.1 -0.2 39.7 -0.0Q39.2 0.1 38.7 0.1Z M45.1 0.1Q44.4 0.1 43.8 -0.1Q43.3 -0.3 43.0 -0.7Q42.7 -1.1 42.6 -1.6L42.6 -1.6H43.7L43.7 -1.6Q43.8 -1.2 44.2 -1.0Q44.5 -0.8 45.1 -0.8Q45.5 -0.8 45.8 -0.9Q46.1 -1.0 46.3 -1.2Q46.4 -1.4 46.4 -1.7V-1.7Q46.4 -2.0 46.2 -2.2Q46.0 -2.4 45.4 -2.5L44.5 -2.7Q43.9 -2.9 43.5 -3.1Q43.1 -3.3 43.0 -3.6Q42.8 -3.9 42.8 -4.4V-4.4Q42.8 -4.9 43.1 -5.3Q43.4 -5.7 43.9 -5.9Q44.4 -6.2 45.1 -6.2Q45.8 -6.2 46.3 -6.0Q46.8 -5.8 47.1 -5.4Q47.4 -5.0 47.4 -4.5L47.4 -4.5H46.4L46.4 -4.5Q46.3 -4.9 45.9 -5.1Q45.6 -5.3 45.1 -5.3Q44.7 -5.3 44.5 -5.2Q44.2 -5.1 44.0 -4.9Q43.9 -4.7 43.9 -4.4V-4.4Q43.9 -4.2 44.0 -4.1Q44.1 -3.9 44.3 -3.8Q44.5 -3.7 44.9 -3.6L45.8 -3.4Q46.4 -3.3 46.8 -3.0Q47.2 -2.8 47.3 -2.5Q47.5 -2.2 47.5 -1.8V-1.7Q47.5 -1.2 47.2 -0.8Q46.9 -0.4 46.3 -0.1Q45.8 0.1 45.1 0.1Z M54.7 0.0Q53.7 0.0 53.3 -0.3Q52.8 -0.7 52.8 -1.6V-5.2H51.9V-6.1H52.8V-7.6H54.0V-6.1H55.3V-5.2H54.0V-1.8Q54.0 -1.3 54.2 -1.1Q54.4 -0.9 54.8 -0.9Q54.9 -0.9 55.0 -0.9Q55.1 -0.9 55.3 -0.9V-0.0Q55.1 0.0 55.0 0.0Q54.8 0.0 54.7 0.0Z M56.9 0.0V-8.5H58.0V-5.1H58.1Q58.3 -5.6 58.7 -5.9Q59.2 -6.2 59.8 -6.2Q60.5 -6.2 61.0 -5.9Q61.5 -5.6 61.7 -5.1Q61.9 -4.6 61.9 -3.9V0.0H60.9V-3.7Q60.9 -4.5 60.5 -4.8Q60.2 -5.2 59.5 -5.2Q59.0 -5.2 58.7 -5.0Q58.3 -4.8 58.2 -4.5Q58.0 -4.1 58.0 -3.6V0.0Z M65.5 0.1Q64.9 0.1 64.4 -0.1Q64.0 -0.3 63.7 -0.7Q63.5 -1.1 63.5 -1.7V-1.7Q63.5 -2.3 63.7 -2.6Q64.0 -3.0 64.5 -3.2Q65.0 -3.5 65.7 -3.5L67.9 -3.6V-2.8L65.8 -2.7Q65.2 -2.7 64.9 -2.4Q64.6 -2.2 64.6 -1.7V-1.7Q64.6 -1.3 64.9 -1.0Q65.2 -0.8 65.7 -0.8Q66.2 -0.8 66.6 -1.0Q67.0 -1.2 67.2 -1.5Q67.4 -1.8 67.4 -2.3V-4.1Q67.4 -4.7 67.1 -5.0Q66.7 -5.2 66.1 -5.2Q65.6 -5.2 65.2 -5.1Q64.9 -4.9 64.8 -4.5L64.8 -4.5H63.7L63.7 -4.5Q63.8 -5.0 64.1 -5.4Q64.4 -5.8 64.9 -6.0Q65.5 -6.2 66.1 -6.2Q66.9 -6.2 67.4 -5.9Q67.9 -5.7 68.2 -5.2Q68.5 -4.8 68.5 -4.2V0.0H67.4V-0.9H67.3Q67.1 -0.6 66.8 -0.3Q66.6 -0.1 66.2 -0.0Q65.9 0.1 65.5 0.1Z M72.6 0.0Q71.6 0.0 71.2 -0.3Q70.7 -0.7 70.7 -1.6V-5.2H69.8V-6.1H70.7V-7.6H71.9V-6.1H73.2V-5.2H71.9V-1.8Q71.9 -1.3 72.1 -1.1Q72.3 -0.9 72.7 -0.9Q72.8 -0.9 72.9 -0.9Q73.0 -0.9 73.2 -0.9V-0.0Q73.0 0.0 72.9 0.0Q72.7 0.0 72.6 0.0Z M79.7 0.1Q79.1 0.1 78.7 -0.1Q78.2 -0.3 78.0 -0.7Q77.7 -1.1 77.7 -1.7V-1.7Q77.7 -2.3 77.9 -2.6Q78.2 -3.0 78.7 -3.2Q79.2 -3.5 79.9 -3.5L82.2 -3.6V-2.8L80.1 -2.7Q79.4 -2.7 79.1 -2.4Q78.8 -2.2 78.8 -1.7V-1.7Q78.8 -1.3 79.1 -1.0Q79.5 -0.8 80.0 -0.8Q80.4 -0.8 80.8 -1.0Q81.2 -1.2 81.4 -1.5Q81.6 -1.8 81.6 -2.3V-4.1Q81.6 -4.7 81.3 -5.0Q81.0 -5.2 80.3 -5.2Q79.8 -5.2 79.4 -5.1Q79.1 -4.9 79.0 -4.5L79.0 -4.5H77.9L77.9 -4.5Q78.0 -5.0 78.3 -5.4Q78.6 -5.8 79.2 -6.0Q79.7 -6.2 80.4 -6.2Q81.1 -6.2 81.6 -5.9Q82.2 -5.7 82.4 -5.2Q82.7 -4.8 82.7 -4.2V0.0H81.6V-0.9H81.5Q81.3 -0.6 81.1 -0.3Q80.8 -0.1 80.5 -0.0Q80.1 0.1 79.7 0.1Z M84.6 0.0V-6.1H85.7V-5.2H85.8Q85.9 -5.6 86.3 -5.9Q86.7 -6.2 87.3 -6.2Q87.5 -6.2 87.6 -6.2Q87.8 -6.1 87.9 -6.1V-5.1Q87.7 -5.1 87.5 -5.1Q87.4 -5.2 87.2 -5.2Q86.8 -5.2 86.4 -5.0Q86.1 -4.8 85.9 -4.5Q85.7 -4.1 85.7 -3.7V0.0Z M91.7 0.1Q90.8 0.1 90.2 -0.3Q89.5 -0.7 89.2 -1.4Q88.9 -2.1 88.9 -3.0V-3.0Q88.9 -4.0 89.2 -4.7Q89.5 -5.4 90.2 -5.8Q90.8 -6.2 91.6 -6.2Q92.5 -6.2 93.1 -5.8Q93.7 -5.4 94.0 -4.7Q94.3 -4.0 94.3 -3.1V-2.7H89.4V-3.6H93.8L93.2 -2.8V-3.2Q93.2 -3.9 93.0 -4.4Q92.8 -4.8 92.5 -5.0Q92.1 -5.2 91.6 -5.2Q91.1 -5.2 90.8 -5.0Q90.4 -4.8 90.2 -4.3Q90.0 -3.9 90.0 -3.2V-2.8Q90.0 -2.2 90.2 -1.7Q90.4 -1.3 90.8 -1.1Q91.2 -0.8 91.7 -0.8Q92.1 -0.8 92.4 -0.9Q92.7 -1.0 92.9 -1.2Q93.1 -1.4 93.1 -1.6L93.2 -1.6L94.2 -1.6L94.2 -1.6Q94.1 -1.2 94.0 -1.0Q93.8 -0.7 93.4 -0.4Q93.1 -0.2 92.7 -0.0Q92.2 0.1 91.7 0.1Z M95.9 0.0V-6.1H97.0V-5.2H97.1Q97.3 -5.6 97.8 -5.9Q98.2 -6.2 98.9 -6.2Q99.9 -6.2 100.4 -5.6Q101.0 -5.0 101.0 -3.9V0.0H99.9V-3.7Q99.9 -4.5 99.6 -4.8Q99.2 -5.2 98.5 -5.2Q98.1 -5.2 97.7 -5.0Q97.4 -4.8 97.2 -4.5Q97.0 -4.1 97.0 -3.6V0.0Z M103.3 -4.9 103.1 -8.1H104.3L104.1 -4.9Z M108.7 0.0Q107.7 0.0 107.3 -0.3Q106.9 -0.7 106.9 -1.6V-5.2H105.9V-6.1H106.9V-7.6H108.0V-6.1H109.3V-5.2H108.0V-1.8Q108.0 -1.3 108.2 -1.1Q108.4 -0.9 108.8 -0.9Q109.0 -0.9 109.1 -0.9Q109.2 -0.9 109.3 -0.9V-0.0Q109.2 0.0 109.0 0.0Q108.8 0.0 108.7 0.0Z M116.7 2.1Q115.9 2.1 115.4 1.9Q114.8 1.7 114.5 1.3Q114.2 1.0 114.1 0.5L114.1 0.5H115.2L115.2 0.5Q115.3 0.8 115.7 1.0Q116.1 1.2 116.7 1.2Q117.5 1.2 117.9 0.9Q118.4 0.5 118.4 -0.1V-1.3H118.3Q118.1 -1.0 117.8 -0.8Q117.5 -0.5 117.2 -0.4Q116.8 -0.3 116.4 -0.3Q115.6 -0.3 115.0 -0.7Q114.5 -1.0 114.2 -1.7Q113.9 -2.4 113.9 -3.2V-3.2Q113.9 -4.1 114.2 -4.7Q114.5 -5.4 115.1 -5.8Q115.6 -6.2 116.4 -6.2Q116.8 -6.2 117.2 -6.0Q117.6 -5.9 117.8 -5.7Q118.1 -5.4 118.3 -5.1H118.4V-6.1H119.4V-0.1Q119.4 0.6 119.1 1.1Q118.8 1.6 118.2 1.9Q117.5 2.1 116.7 2.1ZM116.7 -1.2Q117.2 -1.2 117.6 -1.5Q118.0 -1.7 118.2 -2.2Q118.4 -2.6 118.4 -3.2V-3.2Q118.4 -3.8 118.2 -4.3Q118.0 -4.7 117.6 -5.0Q117.2 -5.2 116.7 -5.2Q116.1 -5.2 115.7 -5.0Q115.4 -4.7 115.2 -4.3Q115.0 -3.8 115.0 -3.2V-3.2Q115.0 -2.6 115.2 -2.2Q115.4 -1.7 115.7 -1.5Q116.1 -1.2 116.7 -1.2Z M123.9 0.1Q123.0 0.1 122.4 -0.3Q121.7 -0.6 121.4 -1.4Q121.1 -2.1 121.1 -3.0V-3.0Q121.1 -4.0 121.4 -4.7Q121.7 -5.4 122.4 -5.8Q123.0 -6.2 123.9 -6.2Q124.8 -6.2 125.4 -5.8Q126.0 -5.4 126.4 -4.7Q126.7 -4.0 126.7 -3.0V-3.0Q126.7 -2.1 126.4 -1.4Q126.0 -0.6 125.4 -0.3Q124.8 0.1 123.9 0.1ZM123.9 -0.8Q124.4 -0.8 124.8 -1.1Q125.2 -1.3 125.4 -1.8Q125.6 -2.3 125.6 -3.0V-3.0Q125.6 -3.7 125.4 -4.2Q125.2 -4.7 124.8 -5.0Q124.4 -5.2 123.9 -5.2Q123.3 -5.2 123.0 -5.0Q122.6 -4.7 122.4 -4.2Q122.2 -3.7 122.2 -3.0V-3.0Q122.2 -2.3 122.4 -1.8Q122.6 -1.3 123.0 -1.1Q123.3 -0.8 123.9 -0.8Z M130.9 0.1Q130.0 0.1 129.3 -0.3Q128.7 -0.6 128.4 -1.4Q128.0 -2.1 128.0 -3.0V-3.0Q128.0 -4.0 128.4 -4.7Q128.7 -5.4 129.3 -5.8Q130.0 -6.2 130.9 -6.2Q131.7 -6.2 132.4 -5.8Q133.0 -5.4 133.3 -4.7Q133.7 -4.0 133.7 -3.0V-3.0Q133.7 -2.1 133.3 -1.4Q133.0 -0.6 132.4 -0.3Q131.7 0.1 130.9 0.1ZM130.9 -0.8Q131.4 -0.8 131.8 -1.1Q132.2 -1.3 132.4 -1.8Q132.6 -2.3 132.6 -3.0V-3.0Q132.6 -3.7 132.4 -4.2Q132.2 -4.7 131.8 -5.0Q131.4 -5.2 130.9 -5.2Q130.3 -5.2 129.9 -5.0Q129.5 -4.7 129.3 -4.2Q129.1 -3.7 129.1 -3.0V-3.0Q129.1 -2.3 129.3 -1.8Q129.5 -1.3 129.9 -1.1Q130.3 -0.8 130.9 -0.8Z M137.5 0.1Q136.8 0.1 136.2 -0.3Q135.6 -0.7 135.3 -1.4Q135.0 -2.1 135.0 -3.0V-3.0Q135.0 -4.0 135.3 -4.7Q135.6 -5.4 136.2 -5.8Q136.8 -6.2 137.5 -6.2Q137.9 -6.2 138.3 -6.0Q138.7 -5.9 139.0 -5.7Q139.2 -5.4 139.4 -5.1H139.5V-8.5H140.6V0.0H139.5V-1.0H139.4Q139.2 -0.6 138.9 -0.4Q138.7 -0.2 138.3 -0.0Q137.9 0.1 137.5 0.1ZM137.8 -0.8Q138.3 -0.8 138.7 -1.1Q139.1 -1.4 139.3 -1.9Q139.5 -2.4 139.5 -3.0V-3.0Q139.5 -3.7 139.3 -4.2Q139.1 -4.7 138.7 -5.0Q138.3 -5.2 137.8 -5.2Q137.3 -5.2 136.9 -5.0Q136.5 -4.7 136.3 -4.2Q136.1 -3.7 136.1 -3.0V-3.0Q136.1 -2.3 136.3 -1.9Q136.5 -1.4 136.9 -1.1Q137.3 -0.8 137.8 -0.8Z M143.4 0.1Q143.1 0.1 142.9 -0.2Q142.6 -0.4 142.6 -0.7Q142.6 -1.0 142.9 -1.2Q143.1 -1.5 143.4 -1.5Q143.7 -1.5 143.9 -1.2Q144.2 -1.0 144.2 -0.7Q144.2 -0.4 143.9 -0.2Q143.7 0.1 143.4 0.1Z"/></g><circle cx="51.0" cy="145.0" r="4.2" fill="#3572A5"/><g transform="translate(60.0,148.5)" fill="#9CA3AF"><path d="M1.5 -2.4V-3.3H3.4Q4.1 -3.3 4.4 -3.7Q4.8 -4.1 4.8 -4.7V-4.7Q4.8 -5.4 4.4 -5.7Q4.1 -6.1 3.4 -6.1H1.5V-7.0H3.7Q4.4 -7.0 4.9 -6.8Q5.4 -6.5 5.7 -5.9Q6.0 -5.4 6.0 -4.7V-4.7Q6.0 -4.0 5.7 -3.5Q5.4 -2.9 4.9 -2.7Q4.4 -2.4 3.7 -2.4ZM0.9 0.0V-7.0H2.1V0.0Z M8.1 1.9Q8.0 1.9 7.8 1.9Q7.7 1.9 7.6 1.9V1.0Q7.7 1.0 7.8 1.0Q7.9 1.0 8.0 1.0Q8.3 1.0 8.6 0.8Q8.8 0.6 8.9 0.3L9.0 0.0L7.1 -5.3H8.3L9.8 -0.6L9.4 -1.1H9.8L9.5 -0.6L11.0 -5.3H12.2L10.2 0.1Q10.0 0.8 9.7 1.2Q9.4 1.6 9.0 1.7Q8.6 1.9 8.1 1.9Z M15.5 0.0Q14.6 0.0 14.2 -0.3Q13.8 -0.6 13.8 -1.4V-4.4H13.0V-5.3H13.8V-6.6H15.0V-5.3H16.1V-4.4H15.0V-1.7Q15.0 -1.3 15.1 -1.1Q15.3 -0.9 15.7 -0.9Q15.8 -0.9 15.9 -0.9Q16.0 -0.9 16.1 -0.9V-0.0Q16.0 -0.0 15.8 0.0Q15.7 0.0 15.5 0.0Z M17.6 0.0V-7.4H18.7V-4.5H18.8Q19.0 -4.9 19.4 -5.2Q19.8 -5.4 20.3 -5.4Q20.9 -5.4 21.4 -5.2Q21.8 -5.0 22.0 -4.5Q22.2 -4.1 22.2 -3.4V0.0H21.0V-3.2Q21.0 -3.8 20.8 -4.1Q20.5 -4.4 19.9 -4.4Q19.6 -4.4 19.3 -4.3Q19.0 -4.1 18.9 -3.8Q18.7 -3.5 18.7 -3.1V0.0Z M26.1 0.1Q25.3 0.1 24.8 -0.2Q24.2 -0.6 23.9 -1.2Q23.6 -1.8 23.6 -2.7V-2.7Q23.6 -3.5 23.9 -4.1Q24.2 -4.8 24.8 -5.1Q25.3 -5.4 26.1 -5.4Q26.9 -5.4 27.5 -5.1Q28.0 -4.8 28.4 -4.1Q28.7 -3.5 28.7 -2.7V-2.7Q28.7 -1.8 28.4 -1.2Q28.1 -0.6 27.5 -0.2Q26.9 0.1 26.1 0.1ZM26.1 -0.8Q26.6 -0.8 26.9 -1.1Q27.2 -1.3 27.3 -1.7Q27.5 -2.1 27.5 -2.7V-2.7Q27.5 -3.2 27.3 -3.6Q27.2 -4.0 26.9 -4.3Q26.6 -4.5 26.1 -4.5Q25.7 -4.5 25.4 -4.3Q25.1 -4.0 24.9 -3.6Q24.8 -3.2 24.8 -2.7V-2.7Q24.8 -2.1 24.9 -1.7Q25.1 -1.3 25.4 -1.1Q25.7 -0.8 26.1 -0.8Z M30.1 0.0V-5.3H31.3V-4.5H31.3Q31.5 -4.9 31.9 -5.2Q32.3 -5.4 32.9 -5.4Q33.8 -5.4 34.2 -4.9Q34.7 -4.4 34.7 -3.4V0.0H33.6V-3.2Q33.6 -3.8 33.3 -4.1Q33.0 -4.4 32.5 -4.4Q32.1 -4.4 31.8 -4.3Q31.5 -4.1 31.4 -3.8Q31.3 -3.5 31.3 -3.1V0.0Z"/></g><circle cx="116.6" cy="145.0" r="4.2" fill="#6B7280"/><g transform="translate(125.6,148.5)" fill="#9CA3AF"><path d="M0.3 0.0 2.9 -7.0H3.8V-5.8H3.5L1.6 0.0ZM1.6 -1.9 1.9 -2.8H5.1L5.5 -1.9ZM5.5 0.0 3.6 -5.8V-7.0H4.2L6.7 0.0Z M8.0 1.8V-5.3H9.2V-4.5H9.2Q9.4 -4.8 9.6 -5.0Q9.9 -5.2 10.2 -5.3Q10.5 -5.4 10.9 -5.4Q11.5 -5.4 12.0 -5.1Q12.5 -4.7 12.8 -4.1Q13.1 -3.5 13.1 -2.7V-2.7Q13.1 -1.8 12.8 -1.2Q12.5 -0.6 12.0 -0.2Q11.5 0.1 10.9 0.1Q10.5 0.1 10.2 -0.0Q9.9 -0.1 9.6 -0.3Q9.4 -0.6 9.2 -0.8H9.2V1.8ZM10.5 -0.9Q10.9 -0.9 11.2 -1.1Q11.6 -1.3 11.7 -1.7Q11.9 -2.1 11.9 -2.7V-2.7Q11.9 -3.2 11.7 -3.6Q11.6 -4.0 11.2 -4.2Q10.9 -4.4 10.5 -4.4Q10.1 -4.4 9.8 -4.2Q9.5 -4.0 9.3 -3.6Q9.1 -3.2 9.1 -2.7V-2.7Q9.1 -2.1 9.3 -1.7Q9.5 -1.3 9.8 -1.1Q10.1 -0.9 10.5 -0.9Z M16.0 0.1Q15.5 0.1 15.1 -0.1Q14.7 -0.3 14.4 -0.7Q14.2 -1.0 14.2 -1.5V-1.5Q14.2 -2.0 14.4 -2.3Q14.7 -2.7 15.1 -2.9Q15.6 -3.1 16.2 -3.1L18.2 -3.2V-2.4L16.4 -2.3Q15.8 -2.3 15.6 -2.1Q15.3 -1.9 15.3 -1.6V-1.6Q15.3 -1.2 15.6 -1.0Q15.9 -0.8 16.3 -0.8Q16.7 -0.8 17.0 -1.0Q17.3 -1.1 17.4 -1.4Q17.6 -1.6 17.6 -2.0V-3.6Q17.6 -4.1 17.3 -4.3Q17.1 -4.5 16.6 -4.5Q16.1 -4.5 15.9 -4.3Q15.6 -4.2 15.5 -3.9L15.5 -3.9H14.4L14.4 -3.9Q14.5 -4.4 14.8 -4.7Q15.1 -5.1 15.5 -5.2Q16.0 -5.4 16.6 -5.4Q17.3 -5.4 17.8 -5.2Q18.3 -5.0 18.5 -4.6Q18.7 -4.2 18.7 -3.6V0.0H17.6V-0.7H17.5Q17.4 -0.5 17.1 -0.3Q16.9 -0.1 16.6 -0.0Q16.3 0.1 16.0 0.1Z M22.7 0.1Q21.9 0.1 21.3 -0.2Q20.8 -0.6 20.5 -1.2Q20.2 -1.8 20.2 -2.7V-2.7Q20.2 -3.5 20.5 -4.2Q20.8 -4.8 21.3 -5.1Q21.9 -5.4 22.7 -5.4Q23.4 -5.4 23.9 -5.2Q24.3 -5.0 24.6 -4.5Q24.9 -4.1 25.0 -3.6L25.0 -3.6H23.9L23.9 -3.6Q23.8 -4.0 23.5 -4.2Q23.2 -4.5 22.7 -4.5Q22.3 -4.5 22.0 -4.3Q21.7 -4.1 21.5 -3.6Q21.3 -3.2 21.3 -2.7V-2.7Q21.3 -2.1 21.5 -1.7Q21.7 -1.3 22.0 -1.1Q22.3 -0.8 22.7 -0.8Q23.2 -0.8 23.5 -1.1Q23.8 -1.3 23.9 -1.7L23.9 -1.7L25.0 -1.7L25.0 -1.7Q24.9 -1.2 24.6 -0.7Q24.3 -0.3 23.8 -0.1Q23.4 0.1 22.7 0.1Z M26.4 0.0V-7.4H27.6V-4.5H27.6Q27.8 -4.9 28.2 -5.2Q28.6 -5.4 29.2 -5.4Q29.8 -5.4 30.2 -5.2Q30.6 -5.0 30.8 -4.5Q31.0 -4.1 31.0 -3.4V0.0H29.9V-3.2Q29.9 -3.8 29.6 -4.1Q29.3 -4.4 28.8 -4.4Q28.4 -4.4 28.1 -4.3Q27.9 -4.1 27.7 -3.8Q27.6 -3.5 27.6 -3.1V0.0Z M34.9 0.1Q34.2 0.1 33.6 -0.2Q33.0 -0.6 32.7 -1.2Q32.4 -1.8 32.4 -2.6V-2.7Q32.4 -3.5 32.7 -4.1Q33.0 -4.7 33.6 -5.1Q34.1 -5.4 34.9 -5.4Q35.6 -5.4 36.2 -5.1Q36.7 -4.8 37.0 -4.2Q37.3 -3.6 37.3 -2.8V-2.4H33.0V-3.2H36.7L36.2 -2.4V-2.9Q36.2 -3.4 36.0 -3.8Q35.9 -4.1 35.6 -4.3Q35.3 -4.5 34.9 -4.5Q34.5 -4.5 34.2 -4.3Q33.9 -4.1 33.7 -3.8Q33.6 -3.4 33.6 -2.9V-2.4Q33.6 -1.9 33.7 -1.6Q33.9 -1.2 34.2 -1.0Q34.5 -0.8 35.0 -0.8Q35.3 -0.8 35.5 -0.9Q35.8 -1.0 35.9 -1.1Q36.1 -1.3 36.1 -1.4L36.2 -1.4L37.3 -1.4L37.2 -1.4Q37.2 -1.1 37.0 -0.9Q36.8 -0.6 36.6 -0.4Q36.3 -0.2 35.9 -0.0Q35.5 0.1 34.9 0.1Z M38.8 -2.3V-3.4H42.0V-2.3Z M43.7 0.0V-0.8L46.1 -3.2Q46.5 -3.7 46.8 -4.0Q47.1 -4.3 47.2 -4.6Q47.3 -4.8 47.3 -5.1V-5.1Q47.3 -5.4 47.1 -5.7Q47.0 -6.0 46.7 -6.1Q46.4 -6.2 46.1 -6.2Q45.7 -6.2 45.4 -6.1Q45.1 -5.9 45.0 -5.7Q44.8 -5.4 44.8 -5.0L44.8 -5.0L43.7 -5.0L43.7 -5.0Q43.7 -5.7 44.0 -6.2Q44.3 -6.7 44.8 -6.9Q45.4 -7.2 46.1 -7.2Q46.8 -7.2 47.3 -7.0Q47.9 -6.7 48.2 -6.3Q48.5 -5.8 48.5 -5.2V-5.2Q48.5 -4.8 48.3 -4.4Q48.2 -4.0 47.8 -3.6Q47.4 -3.1 46.8 -2.5L45.0 -0.8L45.4 -1.3V-0.8L45.0 -1.0H48.6V0.0Z M51.0 0.1Q50.7 0.1 50.5 -0.1Q50.3 -0.3 50.3 -0.7Q50.3 -1.0 50.5 -1.2Q50.7 -1.4 51.0 -1.4Q51.4 -1.4 51.6 -1.2Q51.8 -1.0 51.8 -0.7Q51.8 -0.3 51.6 -0.1Q51.4 0.1 51.0 0.1Z M56.2 0.2Q55.3 0.2 54.7 -0.3Q54.1 -0.7 53.8 -1.6Q53.5 -2.4 53.5 -3.5V-3.5Q53.5 -4.7 53.8 -5.5Q54.1 -6.3 54.7 -6.8Q55.3 -7.2 56.2 -7.2Q57.0 -7.2 57.6 -6.8Q58.2 -6.3 58.5 -5.5Q58.8 -4.7 58.8 -3.5V-3.5Q58.8 -2.4 58.5 -1.6Q58.2 -0.7 57.6 -0.3Q57.0 0.2 56.2 0.2ZM56.2 -0.8Q56.6 -0.8 56.9 -1.1Q57.3 -1.5 57.4 -2.1Q57.6 -2.7 57.6 -3.5V-3.5Q57.6 -4.4 57.4 -5.0Q57.3 -5.6 56.9 -5.9Q56.6 -6.2 56.2 -6.2Q55.7 -6.2 55.4 -5.9Q55.1 -5.6 54.9 -5.0Q54.7 -4.4 54.7 -3.5V-3.5Q54.7 -2.7 54.9 -2.1Q55.1 -1.5 55.4 -1.1Q55.7 -0.8 56.2 -0.8Z"/></g><circle cx="206.3" cy="145.0" r="4.2" fill="#6B7280"/><g transform="translate(215.3,148.5)" fill="#9CA3AF"><path d="M2.5 0.0V-5.8H2.4L0.6 -4.6V-5.7L2.5 -7.0H3.7V0.0Z M9.1 0.0V-1.4H5.6V-2.4Q5.9 -2.8 6.2 -3.3Q6.5 -3.8 6.8 -4.3Q7.1 -4.8 7.4 -5.2Q7.7 -5.7 8.0 -6.2Q8.2 -6.6 8.5 -7.0H10.2V-2.4H11.2V-1.4H10.2V0.0ZM6.8 -2.3H9.1V-6.1H9.0Q8.8 -5.7 8.6 -5.4Q8.4 -5.0 8.1 -4.6Q7.9 -4.3 7.7 -3.9Q7.4 -3.5 7.2 -3.2Q7.0 -2.8 6.8 -2.4Z M17.7 0.0Q16.8 0.0 16.4 -0.3Q16.0 -0.6 16.0 -1.4V-4.4H15.1V-5.3H16.0V-6.6H17.1V-5.3H18.3V-4.4H17.1V-1.7Q17.1 -1.3 17.3 -1.1Q17.5 -0.9 17.9 -0.9Q18.0 -0.9 18.1 -0.9Q18.2 -0.9 18.3 -0.9V-0.0Q18.1 -0.0 18.0 0.0Q17.8 0.0 17.7 0.0Z M22.0 0.1Q21.2 0.1 20.6 -0.2Q20.0 -0.6 19.7 -1.2Q19.4 -1.8 19.4 -2.6V-2.7Q19.4 -3.5 19.7 -4.1Q20.0 -4.7 20.6 -5.1Q21.1 -5.4 21.9 -5.4Q22.6 -5.4 23.2 -5.1Q23.7 -4.8 24.0 -4.2Q24.3 -3.6 24.3 -2.8V-2.4H20.0V-3.2H23.8L23.2 -2.4V-2.9Q23.2 -3.4 23.0 -3.8Q22.9 -4.1 22.6 -4.3Q22.3 -4.5 21.9 -4.5Q21.5 -4.5 21.2 -4.3Q20.9 -4.1 20.8 -3.8Q20.6 -3.4 20.6 -2.9V-2.4Q20.6 -1.9 20.8 -1.6Q20.9 -1.2 21.2 -1.0Q21.5 -0.8 22.0 -0.8Q22.3 -0.8 22.5 -0.9Q22.8 -1.0 22.9 -1.1Q23.1 -1.3 23.2 -1.4L23.2 -1.4L24.3 -1.4L24.3 -1.4Q24.2 -1.1 24.0 -0.9Q23.9 -0.6 23.6 -0.4Q23.3 -0.2 22.9 -0.0Q22.5 0.1 22.0 0.1Z M27.7 0.1Q27.1 0.1 26.6 -0.1Q26.1 -0.3 25.8 -0.6Q25.5 -1.0 25.5 -1.4L25.5 -1.4H26.6L26.7 -1.4Q26.7 -1.1 27.0 -0.9Q27.3 -0.8 27.8 -0.8Q28.1 -0.8 28.3 -0.9Q28.5 -0.9 28.7 -1.1Q28.8 -1.3 28.8 -1.5V-1.5Q28.8 -1.7 28.6 -1.9Q28.4 -2.0 28.0 -2.1L27.1 -2.3Q26.6 -2.4 26.3 -2.6Q26.0 -2.8 25.8 -3.1Q25.6 -3.4 25.6 -3.8V-3.8Q25.6 -4.3 25.9 -4.7Q26.2 -5.0 26.7 -5.2Q27.1 -5.4 27.7 -5.4Q28.4 -5.4 28.8 -5.2Q29.3 -5.0 29.6 -4.7Q29.8 -4.4 29.9 -3.9V-3.9H28.8L28.8 -3.9Q28.7 -4.2 28.4 -4.4Q28.2 -4.6 27.7 -4.6Q27.5 -4.6 27.2 -4.5Q27.0 -4.4 26.9 -4.2Q26.8 -4.1 26.8 -3.9V-3.9Q26.8 -3.7 26.9 -3.6Q27.0 -3.5 27.1 -3.4Q27.3 -3.3 27.6 -3.2L28.5 -3.0Q29.0 -2.9 29.3 -2.7Q29.7 -2.5 29.8 -2.3Q30.0 -2.0 30.0 -1.6V-1.6Q30.0 -1.1 29.7 -0.7Q29.4 -0.3 28.9 -0.1Q28.4 0.1 27.7 0.1Z M33.5 0.0Q32.6 0.0 32.2 -0.3Q31.8 -0.6 31.8 -1.4V-4.4H31.0V-5.3H31.8V-6.6H33.0V-5.3H34.1V-4.4H33.0V-1.7Q33.0 -1.3 33.1 -1.1Q33.3 -0.9 33.7 -0.9Q33.8 -0.9 33.9 -0.9Q34.0 -0.9 34.1 -0.9V-0.0Q34.0 -0.0 33.8 0.0Q33.7 0.0 33.5 0.0Z M38.4 0.0V-5.3H39.6V-4.5H39.6Q39.8 -4.9 40.2 -5.2Q40.6 -5.4 41.1 -5.4Q41.5 -5.4 41.8 -5.3Q42.0 -5.2 42.3 -5.0Q42.5 -4.8 42.6 -4.5H42.7Q42.8 -4.8 43.0 -5.0Q43.3 -5.2 43.6 -5.3Q43.9 -5.4 44.3 -5.4Q44.8 -5.4 45.2 -5.2Q45.6 -5.0 45.8 -4.6Q46.0 -4.2 46.0 -3.7V0.0H44.8V-3.4Q44.8 -3.7 44.7 -4.0Q44.6 -4.2 44.4 -4.3Q44.2 -4.4 43.8 -4.4Q43.5 -4.4 43.3 -4.3Q43.0 -4.2 42.9 -3.9Q42.8 -3.7 42.8 -3.3V0.0H41.6V-3.5Q41.6 -3.8 41.5 -4.0Q41.4 -4.2 41.2 -4.3Q40.9 -4.4 40.6 -4.4Q40.3 -4.4 40.1 -4.3Q39.8 -4.1 39.7 -3.9Q39.6 -3.6 39.6 -3.3V0.0Z M49.9 0.1Q49.1 0.1 48.6 -0.2Q48.0 -0.6 47.7 -1.2Q47.4 -1.8 47.4 -2.7V-2.7Q47.4 -3.5 47.7 -4.1Q48.0 -4.8 48.6 -5.1Q49.1 -5.4 49.9 -5.4Q50.7 -5.4 51.3 -5.1Q51.8 -4.8 52.2 -4.1Q52.5 -3.5 52.5 -2.7V-2.7Q52.5 -1.8 52.2 -1.2Q51.9 -0.6 51.3 -0.2Q50.7 0.1 49.9 0.1ZM49.9 -0.8Q50.4 -0.8 50.7 -1.1Q51.0 -1.3 51.1 -1.7Q51.3 -2.1 51.3 -2.7V-2.7Q51.3 -3.2 51.1 -3.6Q51.0 -4.0 50.7 -4.3Q50.4 -4.5 49.9 -4.5Q49.5 -4.5 49.2 -4.3Q48.9 -4.0 48.7 -3.6Q48.6 -3.2 48.6 -2.7V-2.7Q48.6 -2.1 48.7 -1.7Q48.9 -1.3 49.2 -1.1Q49.5 -0.8 49.9 -0.8Z M55.8 0.1Q55.2 0.1 54.7 -0.2Q54.2 -0.6 53.9 -1.2Q53.6 -1.8 53.6 -2.7V-2.7Q53.6 -3.5 53.9 -4.1Q54.2 -4.7 54.7 -5.1Q55.2 -5.4 55.8 -5.4Q56.2 -5.4 56.5 -5.3Q56.8 -5.2 57.1 -5.0Q57.3 -4.8 57.4 -4.5H57.5V-7.4H58.7V0.0H57.5V-0.8H57.4Q57.3 -0.5 57.1 -0.3Q56.8 -0.1 56.5 -0.0Q56.2 0.1 55.8 0.1ZM56.2 -0.9Q56.6 -0.9 56.9 -1.1Q57.2 -1.3 57.4 -1.7Q57.5 -2.1 57.5 -2.7V-2.7Q57.5 -3.2 57.4 -3.6Q57.2 -4.0 56.9 -4.2Q56.6 -4.4 56.2 -4.4Q55.8 -4.4 55.4 -4.2Q55.1 -4.0 55.0 -3.6Q54.8 -3.2 54.8 -2.7V-2.7Q54.8 -2.1 55.0 -1.7Q55.1 -1.3 55.4 -1.1Q55.8 -0.9 56.2 -0.9Z M62.2 0.1Q61.6 0.1 61.2 -0.1Q60.8 -0.4 60.6 -0.8Q60.4 -1.2 60.4 -1.9V-5.3H61.5V-2.1Q61.5 -1.5 61.8 -1.2Q62.0 -0.9 62.6 -0.9Q62.9 -0.9 63.1 -1.0Q63.4 -1.1 63.5 -1.2Q63.7 -1.4 63.8 -1.7Q63.9 -1.9 63.9 -2.2V-5.3H65.0V0.0H63.9V-0.8H63.8Q63.6 -0.5 63.4 -0.3Q63.2 -0.1 62.9 -0.0Q62.6 0.1 62.2 0.1Z M66.8 0.0V-7.4H67.9V0.0Z M71.9 0.1Q71.1 0.1 70.6 -0.2Q70.0 -0.6 69.7 -1.2Q69.4 -1.8 69.4 -2.6V-2.7Q69.4 -3.5 69.7 -4.1Q70.0 -4.7 70.6 -5.1Q71.1 -5.4 71.9 -5.4Q72.6 -5.4 73.2 -5.1Q73.7 -4.8 74.0 -4.2Q74.3 -3.6 74.3 -2.8V-2.4H70.0V-3.2H73.7L73.2 -2.4V-2.9Q73.2 -3.4 73.0 -3.8Q72.8 -4.1 72.6 -4.3Q72.3 -4.5 71.9 -4.5Q71.5 -4.5 71.2 -4.3Q70.9 -4.1 70.7 -3.8Q70.6 -3.4 70.6 -2.9V-2.4Q70.6 -1.9 70.7 -1.6Q70.9 -1.2 71.2 -1.0Q71.5 -0.8 72.0 -0.8Q72.3 -0.8 72.5 -0.9Q72.8 -1.0 72.9 -1.1Q73.1 -1.3 73.1 -1.4L73.1 -1.4L74.2 -1.4L74.2 -1.4Q74.2 -1.1 74.0 -0.9Q73.8 -0.6 73.5 -0.4Q73.3 -0.2 72.9 -0.0Q72.5 0.1 71.9 0.1Z M77.7 0.1Q77.1 0.1 76.6 -0.1Q76.1 -0.3 75.8 -0.6Q75.5 -1.0 75.5 -1.4L75.5 -1.4H76.6L76.6 -1.4Q76.7 -1.1 77.0 -0.9Q77.3 -0.8 77.7 -0.8Q78.0 -0.8 78.3 -0.9Q78.5 -0.9 78.7 -1.1Q78.8 -1.3 78.8 -1.5V-1.5Q78.8 -1.7 78.6 -1.9Q78.4 -2.0 78.0 -2.1L77.1 -2.3Q76.6 -2.4 76.3 -2.6Q75.9 -2.8 75.8 -3.1Q75.6 -3.4 75.6 -3.8V-3.8Q75.6 -4.3 75.9 -4.7Q76.1 -5.0 76.6 -5.2Q77.1 -5.4 77.7 -5.4Q78.4 -5.4 78.8 -5.2Q79.3 -5.0 79.5 -4.7Q79.8 -4.4 79.8 -3.9V-3.9H78.8L78.7 -3.9Q78.7 -4.2 78.4 -4.4Q78.2 -4.6 77.7 -4.6Q77.4 -4.6 77.2 -4.5Q77.0 -4.4 76.9 -4.2Q76.8 -4.1 76.8 -3.9V-3.9Q76.8 -3.7 76.8 -3.6Q76.9 -3.5 77.1 -3.4Q77.3 -3.3 77.6 -3.2L78.4 -3.0Q78.9 -2.9 79.3 -2.7Q79.6 -2.5 79.8 -2.3Q80.0 -2.0 80.0 -1.6V-1.6Q80.0 -1.1 79.7 -0.7Q79.4 -0.3 78.9 -0.1Q78.4 0.1 77.7 0.1Z"/></g>
</svg>