<svg xmlns="http://www.w3.org/2000/svg" viewBox="0 0 470 152" width="470" height="152" role="img" aria-label="claude-honest-engineering-skills — Nine skills that make a coding agent check its work instead of reporting success.">
  <rect x="0.75" y="0.75" width="468" height="150" rx="12" fill="#0D1117" stroke="#1F2937" stroke-width="1.5"/>
  <rect x="0.75" y="0.75" width="4" height="150" rx="2" fill="#2563EB"/>
  <circle cx="30" cy="41" r="5.5" fill="none" stroke="#2563EB" stroke-width="2"/>
  <g transform="translate(46,46)" fill="#F8F9FA"><path d="M4.1 0.1Q3.0 0.1 2.2 -0.3Q1.4 -0.7 1.0 -1.6Q0.6 -2.4 0.6 -3.6V-3.6Q0.6 -4.8 1.0 -5.6Q1.4 -6.5 2.2 -6.9Q3.0 -7.3 4.1 -7.3Q5.0 -7.3 5.7 -7.0Q6.4 -6.7 6.8 -6.1Q7.2 -5.5 7.2 -4.7L7.2 -4.7H5.5L5.5 -4.7Q5.4 -5.2 5.1 -5.6Q4.7 -5.9 4.1 -5.9Q3.5 -5.9 3.2 -5.6Q2.8 -5.4 2.6 -4.9Q2.4 -4.3 2.4 -3.6V-3.6Q2.4 -2.9 2.6 -2.4Q2.8 -1.8 3.2 -1.6Q3.5 -1.3 4.1 -1.3Q4.7 -1.3 5.0 -1.6Q5.4 -1.9 5.5 -2.4L5.5 -2.5L7.2 -2.5L7.2 -2.4Q7.1 -1.7 6.7 -1.1Q6.3 -0.5 5.7 -0.2Q5.0 0.1 4.1 0.1Z M8.8 0.0V-9.9H10.6V0.0Z M14.6 0.1Q13.9 0.1 13.3 -0.2Q12.8 -0.4 12.5 -0.9Q12.2 -1.4 12.2 -2.0V-2.1Q12.2 -2.7 12.5 -3.2Q12.9 -3.6 13.5 -3.9Q14.1 -4.2 15.0 -4.2L17.7 -4.4V-3.2L15.2 -3.1Q14.6 -3.0 14.3 -2.8Q14.0 -2.6 14.0 -2.2V-2.1Q14.0 -1.7 14.3 -1.5Q14.6 -1.2 15.2 -1.2Q15.6 -1.2 16.0 -1.4Q16.3 -1.6 16.6 -1.9Q16.8 -2.2 16.8 -2.6V-4.9Q16.8 -5.4 16.4 -5.7Q16.1 -5.9 15.5 -5.9Q15.0 -5.9 14.6 -5.7Q14.3 -5.5 14.2 -5.2L14.2 -5.2H12.5L12.5 -5.2Q12.6 -5.9 13.0 -6.3Q13.4 -6.8 14.0 -7.1Q14.7 -7.3 15.6 -7.3Q16.5 -7.3 17.2 -7.0Q17.9 -6.8 18.2 -6.2Q18.6 -5.7 18.6 -4.9V0.0H16.8V-1.0H16.7Q16.5 -0.6 16.2 -0.4Q15.9 -0.1 15.5 -0.0Q15.0 0.1 14.6 0.1Z M22.8 0.1Q22.0 0.1 21.5 -0.2Q20.9 -0.5 20.6 -1.1Q20.4 -1.7 20.4 -2.5V-7.2H22.2V-2.9Q22.2 -2.2 22.5 -1.8Q22.8 -1.4 23.5 -1.4Q23.9 -1.4 24.2 -1.5Q24.4 -1.6 24.6 -1.8Q24.8 -2.0 24.9 -2.3Q25.0 -2.6 25.0 -3.0V-7.2H26.9V0.0H25.0V-1.1H24.9Q24.8 -0.7 24.5 -0.4Q24.2 -0.2 23.8 -0.0Q23.3 0.1 22.8 0.1Z M31.3 0.1Q30.4 0.1 29.8 -0.3Q29.1 -0.8 28.8 -1.6Q28.4 -2.4 28.4 -3.6V-3.6Q28.4 -4.8 28.8 -5.6Q29.1 -6.4 29.8 -6.9Q30.4 -7.3 31.3 -7.3Q31.8 -7.3 32.3 -7.2Q32.7 -7.0 33.0 -6.7Q33.3 -6.4 33.5 -6.0H33.6V-9.9H35.4V0.0H33.6V-1.1H33.5Q33.3 -0.7 33.0 -0.5Q32.7 -0.2 32.3 -0.0Q31.9 0.1 31.3 0.1ZM31.9 -1.4Q32.5 -1.4 32.8 -1.7Q33.2 -1.9 33.4 -2.4Q33.6 -2.9 33.6 -3.6V-3.6Q33.6 -4.3 33.4 -4.8Q33.2 -5.3 32.8 -5.5Q32.5 -5.8 31.9 -5.8Q31.4 -5.8 31.0 -5.5Q30.7 -5.3 30.5 -4.8Q30.3 -4.3 30.3 -3.6V-3.6Q30.3 -2.9 30.5 -2.4Q30.7 -1.9 31.0 -1.7Q31.4 -1.4 31.9 -1.4Z M40.5 0.1Q39.5 0.1 38.7 -0.3Q37.9 -0.8 37.5 -1.6Q37.1 -2.4 37.1 -3.6V-3.6Q37.1 -4.7 37.5 -5.6Q37.9 -6.4 38.7 -6.9Q39.4 -7.3 40.5 -7.3Q41.5 -7.3 42.3 -6.9Q43.0 -6.4 43.4 -5.6Q43.8 -4.8 43.8 -3.7V-3.2H38.0V-4.3H43.0L42.1 -3.2V-3.9Q42.1 -4.6 41.9 -5.1Q41.7 -5.5 41.3 -5.7Q41.0 -6.0 40.5 -6.0Q40.0 -6.0 39.7 -5.7Q39.3 -5.5 39.1 -5.0Q38.9 -4.6 38.9 -3.9V-3.2Q38.9 -2.6 39.1 -2.1Q39.3 -1.7 39.7 -1.5Q40.1 -1.2 40.6 -1.2Q41.0 -1.2 41.3 -1.4Q41.6 -1.5 41.8 -1.7Q42.0 -1.8 42.1 -2.0L42.1 -2.0L43.8 -2.0L43.8 -2.0Q43.7 -1.6 43.5 -1.3Q43.2 -0.9 42.8 -0.6Q42.4 -0.2 41.9 -0.0Q41.3 0.1 40.5 0.1Z M45.5 -3.0V-4.7H49.9V-3.0Z M51.9 0.0V-9.9H53.8V-6.1H53.9Q54.1 -6.7 54.6 -7.0Q55.2 -7.3 56.0 -7.3Q56.8 -7.3 57.3 -7.0Q57.9 -6.7 58.2 -6.1Q58.4 -5.5 58.4 -4.6V0.0H56.6V-4.2Q56.6 -5.0 56.3 -5.4Q55.9 -5.8 55.2 -5.8Q54.8 -5.8 54.5 -5.6Q54.1 -5.4 53.9 -5.0Q53.8 -4.7 53.8 -4.2V0.0Z M63.5 0.1Q62.4 0.1 61.6 -0.3Q60.8 -0.7 60.4 -1.6Q59.9 -2.4 59.9 -3.6V-3.6Q59.9 -4.8 60.4 -5.6Q60.8 -6.4 61.6 -6.9Q62.4 -7.3 63.5 -7.3Q64.5 -7.3 65.3 -6.9Q66.1 -6.4 66.6 -5.6Q67.0 -4.8 67.0 -3.6V-3.6Q67.0 -2.4 66.6 -1.6Q66.1 -0.7 65.3 -0.3Q64.6 0.1 63.5 0.1ZM63.5 -1.3Q64.0 -1.3 64.4 -1.6Q64.7 -1.8 64.9 -2.4Q65.1 -2.9 65.1 -3.6V-3.6Q65.1 -4.3 64.9 -4.8Q64.7 -5.3 64.4 -5.6Q64.0 -5.9 63.5 -5.9Q62.9 -5.9 62.6 -5.6Q62.2 -5.3 62.0 -4.8Q61.8 -4.3 61.8 -3.6V-3.6Q61.8 -2.9 62.0 -2.4Q62.2 -1.8 62.6 -1.6Q62.9 -1.3 63.5 -1.3Z M68.5 0.0V-7.2H70.4V-6.1H70.5Q70.7 -6.7 71.2 -7.0Q71.8 -7.3 72.6 -7.3Q73.8 -7.3 74.4 -6.6Q75.0 -5.9 75.0 -4.6V0.0H73.2V-4.2Q73.2 -5.0 72.9 -5.4Q72.5 -5.8 71.8 -5.8Q71.4 -5.8 71.1 -5.6Q70.7 -5.4 70.5 -5.0Q70.4 -4.7 70.4 -4.2V0.0Z M80.0 0.1Q78.9 0.1 78.1 -0.3Q77.4 -0.8 76.9 -1.6Q76.5 -2.4 76.5 -3.6V-3.6Q76.5 -4.7 76.9 -5.6Q77.4 -6.4 78.1 -6.9Q78.9 -7.3 79.9 -7.3Q81.0 -7.3 81.7 -6.9Q82.5 -6.4 82.9 -5.6Q83.3 -4.8 83.3 -3.7V-3.2H77.4V-4.3H82.4L81.6 -3.2V-3.9Q81.6 -4.6 81.4 -5.1Q81.2 -5.5 80.8 -5.7Q80.4 -6.0 80.0 -6.0Q79.5 -6.0 79.1 -5.7Q78.8 -5.5 78.5 -5.0Q78.3 -4.6 78.3 -3.9V-3.2Q78.3 -2.6 78.5 -2.1Q78.7 -1.7 79.1 -1.5Q79.5 -1.2 80.1 -1.2Q80.5 -1.2 80.8 -1.4Q81.1 -1.5 81.3 -1.7Q81.5 -1.8 81.5 -2.0L81.5 -2.0L83.2 -2.0L83.2 -2.0Q83.1 -1.6 82.9 -1.3Q82.7 -0.9 82.3 -0.6Q81.9 -0.2 81.3 -0.0Q80.8 0.1 80.0 0.1Z M87.7 0.1Q86.7 0.1 86.1 -0.1Q85.4 -0.4 85.0 -0.9Q84.6 -1.4 84.5 -2.0L84.5 -2.0H86.3L86.3 -2.0Q86.4 -1.6 86.8 -1.4Q87.1 -1.2 87.7 -1.2Q88.1 -1.2 88.4 -1.3Q88.7 -1.4 88.8 -1.5Q89.0 -1.7 89.0 -2.0V-2.0Q89.0 -2.3 88.7 -2.5Q88.5 -2.7 88.0 -2.8L86.8 -3.1Q86.1 -3.2 85.6 -3.5Q85.2 -3.8 84.9 -4.2Q84.7 -4.6 84.7 -5.1V-5.1Q84.7 -5.8 85.1 -6.3Q85.4 -6.8 86.1 -7.1Q86.8 -7.3 87.7 -7.3Q88.6 -7.3 89.2 -7.1Q89.9 -6.8 90.2 -6.3Q90.6 -5.8 90.6 -5.2L90.6 -5.2H88.9L88.9 -5.2Q88.9 -5.6 88.5 -5.8Q88.2 -6.0 87.7 -6.0Q87.3 -6.0 87.1 -5.9Q86.8 -5.8 86.6 -5.6Q86.5 -5.5 86.5 -5.2V-5.2Q86.5 -5.0 86.6 -4.9Q86.7 -4.7 86.9 -4.6Q87.1 -4.5 87.5 -4.4L88.7 -4.1Q89.4 -4.0 89.9 -3.7Q90.4 -3.5 90.6 -3.1Q90.8 -2.7 90.8 -2.2V-2.2Q90.8 -1.5 90.4 -1.0Q90.0 -0.4 89.3 -0.1Q88.6 0.1 87.7 0.1Z M95.3 0.1Q94.0 0.1 93.4 -0.4Q92.9 -0.9 92.9 -1.9V-5.8H91.8V-7.2H92.9V-8.9H94.7V-7.2H96.2V-5.8H94.7V-2.3Q94.7 -1.8 94.9 -1.6Q95.2 -1.4 95.7 -1.4Q95.8 -1.4 95.9 -1.4Q96.0 -1.4 96.2 -1.4V-0.0Q96.0 0.0 95.8 0.0Q95.5 0.1 95.3 0.1Z M97.9 -3.0V-4.7H102.2V-3.0Z M107.4 0.1Q106.3 0.1 105.5 -0.3Q104.7 -0.8 104.3 -1.6Q103.9 -2.4 103.9 -3.6V-3.6Q103.9 -4.7 104.3 -5.6Q104.7 -6.4 105.5 -6.9Q106.3 -7.3 107.3 -7.3Q108.4 -7.3 109.1 -6.9Q109.9 -6.4 110.3 -5.6Q110.7 -4.8 110.7 -3.7V-3.2H104.8V-4.3H109.8L109.0 -3.2V-3.9Q109.0 -4.6 108.7 -5.1Q108.5 -5.5 108.2 -5.7Q107.8 -6.0 107.3 -6.0Q106.9 -6.0 106.5 -5.7Q106.1 -5.5 105.9 -5.0Q105.7 -4.6 105.7 -3.9V-3.2Q105.7 -2.6 105.9 -2.1Q106.1 -1.7 106.5 -1.5Q106.9 -1.2 107.4 -1.2Q107.9 -1.2 108.2 -1.4Q108.5 -1.5 108.6 -1.7Q108.8 -1.8 108.9 -2.0L108.9 -2.0L110.6 -2.0L110.6 -2.0Q110.5 -1.6 110.3 -1.3Q110.1 -0.9 109.7 -0.6Q109.3 -0.2 108.7 -0.0Q108.2 0.1 107.4 0.1Z M112.2 0.0V-7.2H114.1V-6.1H114.2Q114.4 -6.7 114.9 -7.0Q115.5 -7.3 116.3 -7.3Q117.5 -7.3 118.1 -6.6Q118.7 -5.9 118.7 -4.6V0.0H116.9V-4.2Q116.9 -5.0 116.6 -5.4Q116.2 -5.8 115.5 -5.8Q115.1 -5.8 114.8 -5.6Q114.4 -5.4 114.2 -5.0Q114.1 -4.7 114.1 -4.2V0.0Z M123.7 2.5Q122.8 2.5 122.1 2.3Q121.4 2.0 120.9 1.5Q120.5 1.1 120.5 0.5L120.5 0.4H122.3L122.3 0.5Q122.4 0.8 122.7 1.0Q123.1 1.2 123.8 1.2Q124.6 1.2 125.0 0.8Q125.4 0.5 125.4 -0.2V-1.5H125.3Q125.1 -1.1 124.8 -0.8Q124.5 -0.5 124.1 -0.4Q123.7 -0.3 123.1 -0.3Q122.2 -0.3 121.6 -0.7Q120.9 -1.1 120.6 -1.9Q120.2 -2.7 120.2 -3.7V-3.8Q120.2 -4.8 120.6 -5.6Q120.9 -6.4 121.6 -6.9Q122.3 -7.3 123.2 -7.3Q123.7 -7.3 124.1 -7.2Q124.5 -7.0 124.8 -6.7Q125.1 -6.4 125.3 -6.0H125.4V-7.2H127.2V-0.2Q127.2 0.6 126.8 1.2Q126.4 1.9 125.6 2.2Q124.8 2.5 123.7 2.5ZM123.7 -1.7Q124.3 -1.7 124.7 -1.9Q125.0 -2.2 125.2 -2.7Q125.4 -3.1 125.4 -3.7V-3.7Q125.4 -4.4 125.2 -4.8Q125.0 -5.3 124.7 -5.6Q124.3 -5.8 123.7 -5.8Q123.2 -5.8 122.8 -5.6Q122.5 -5.3 122.3 -4.8Q122.1 -4.4 122.1 -3.7V-3.7Q122.1 -3.1 122.3 -2.7Q122.5 -2.2 122.8 -1.9Q123.2 -1.7 123.7 -1.7Z M129.2 0.0V-7.2H131.0V0.0ZM130.1 -8.3Q129.7 -8.3 129.3 -8.6Q129.0 -8.9 129.0 -9.3Q129.0 -9.7 129.3 -10.0Q129.7 -10.3 130.1 -10.3Q130.5 -10.3 130.8 -10.0Q131.1 -9.7 131.1 -9.3Q131.1 -8.9 130.8 -8.6Q130.5 -8.3 130.1 -8.3Z M132.9 0.0V-7.2H134.7V-6.1H134.8Q135.1 -6.7 135.6 -7.0Q136.1 -7.3 136.9 -7.3Q138.1 -7.3 138.7 -6.6Q139.4 -5.9 139.4 -4.6V0.0H137.6V-4.2Q137.6 -5.0 137.2 -5.4Q136.9 -5.8 136.2 -5.8Q135.7 -5.8 135.4 -5.6Q135.1 -5.4 134.9 -5.0Q134.7 -4.7 134.7 -4.2V0.0Z M144.4 0.1Q143.3 0.1 142.5 -0.3Q141.7 -0.8 141.3 -1.6Q140.9 -2.4 140.9 -3.6V-3.6Q140.9 -4.7 141.3 -5.6Q141.7 -6.4 142.5 -6.9Q143.3 -7.3 144.3 -7.3Q145.3 -7.3 146.1 -6.9Q146.8 -6.4 147.3 -5.6Q147.7 -4.8 147.7 -3.7V-3.2H141.8V-4.3H146.8L145.9 -3.2V-3.9Q145.9 -4.6 145.7 -5.1Q145.5 -5.5 145.2 -5.7Q144.8 -6.0 144.3 -6.0Q143.8 -6.0 143.5 -5.7Q143.1 -5.5 142.9 -5.0Q142.7 -4.6 142.7 -3.9V-3.2Q142.7 -2.6 142.9 -2.1Q143.1 -1.7 143.5 -1.5Q143.9 -1.2 144.4 -1.2Q144.8 -1.2 145.1 -1.4Q145.4 -1.5 145.6 -1.7Q145.8 -1.8 145.9 -2.0L145.9 -2.0L147.6 -2.0L147.6 -2.0Q147.5 -1.6 147.3 -1.3Q147.1 -0.9 146.7 -0.6Q146.3 -0.2 145.7 -0.0Q145.1 0.1 144.4 0.1Z M152.4 0.1Q151.3 0.1 150.5 -0.3Q149.7 -0.8 149.3 -1.6Q148.9 -2.4 148.9 -3.6V-3.6Q148.9 -4.7 149.3 -5.6Q149.7 -6.4 150.5 -6.9Q151.3 -7.3 152.3 -7.3Q153.3 -7.3 154.1 -6.9Q154.9 -6.4 155.3 -5.6Q155.7 -4.8 155.7 -3.7V-3.2H149.8V-4.3H154.8L153.9 -3.2V-3.9Q153.9 -4.6 153.7 -5.1Q153.5 -5.5 153.2 -5.7Q152.8 -6.0 152.3 -6.0Q151.9 -6.0 151.5 -5.7Q151.1 -5.5 150.9 -5.0Q150.7 -4.6 150.7 -3.9V-3.2Q150.7 -2.6 150.9 -2.1Q151.1 -1.7 151.5 -1.5Q151.9 -1.2 152.4 -1.2Q152.8 -1.2 153.1 -1.4Q153.4 -1.5 153.6 -1.7Q153.8 -1.8 153.9 -2.0L153.9 -2.0L155.6 -2.0L155.6 -2.0Q155.5 -1.6 155.3 -1.3Q155.1 -0.9 154.7 -0.6Q154.3 -0.2 153.7 -0.0Q153.1 0.1 152.4 0.1Z M157.2 0.0V-7.2H159.0V-6.0H159.1Q159.3 -6.6 159.8 -7.0Q160.2 -7.3 160.9 -7.3Q161.1 -7.3 161.3 -7.3Q161.5 -7.3 161.6 -7.2V-5.6Q161.4 -5.7 161.2 -5.7Q161.0 -5.7 160.8 -5.7Q160.2 -5.7 159.9 -5.5Q159.5 -5.3 159.3 -5.0Q159.0 -4.6 159.0 -4.1V0.0Z M162.9 0.0V-7.2H164.7V0.0ZM163.8 -8.3Q163.4 -8.3 163.1 -8.6Q162.8 -8.9 162.8 -9.3Q162.8 -9.7 163.1 -10.0Q163.4 -10.3 163.8 -10.3Q164.2 -10.3 164.5 -10.0Q164.8 -9.7 164.8 -9.3Q164.8 -8.9 164.5 -8.6Q164.2 -8.3 163.8 -8.3Z M166.6 0.0V-7.2H168.5V-6.1H168.6Q168.8 -6.7 169.3 -7.0Q169.9 -7.3 170.7 -7.3Q171.8 -7.3 172.5 -6.6Q173.1 -5.9 173.1 -4.6V0.0H171.3V-4.2Q171.3 -5.0 171.0 -5.4Q170.6 -5.8 169.9 -5.8Q169.5 -5.8 169.1 -5.6Q168.8 -5.4 168.6 -5.0Q168.5 -4.7 168.5 -4.2V0.0Z M178.1 2.5Q177.2 2.5 176.5 2.3Q175.7 2.0 175.3 1.5Q174.9 1.1 174.8 0.5L174.8 0.4H176.6L176.7 0.5Q176.7 0.8 177.1 1.0Q177.5 1.2 178.2 1.2Q179.0 1.2 179.4 0.8Q179.8 0.5 179.8 -0.2V-1.5H179.7Q179.5 -1.1 179.2 -0.8Q178.9 -0.5 178.5 -0.4Q178.0 -0.3 177.5 -0.3Q176.6 -0.3 176.0 -0.7Q175.3 -1.1 175.0 -1.9Q174.6 -2.7 174.6 -3.7V-3.8Q174.6 -4.8 175.0 -5.6Q175.3 -6.4 176.0 -6.9Q176.7 -7.3 177.6 -7.3Q178.1 -7.3 178.5 -7.2Q178.9 -7.0 179.2 -6.7Q179.5 -6.4 179.7 -6.0H179.8V-7.2H181.6V-0.2Q181.6 0.6 181.2 1.2Q180.8 1.9 180.0 2.2Q179.2 2.5 178.1 2.5ZM178.1 -1.7Q178.7 -1.7 179.0 -1.9Q179.4 -2.2 179.6 -2.7Q179.8 -3.1 179.8 -3.7V-3.7Q179.8 -4.4 179.6 -4.8Q179.4 -5.3 179.0 -5.6Q178.7 -5.8 178.1 -5.8Q177.6 -5.8 177.2 -5.6Q176.9 -5.3 176.7 -4.8Q176.5 -4.4 176.5 -3.7V-3.7Q176.5 -3.1 176.7 -2.7Q176.9 -2.2 177.2 -1.9Q177.6 -1.7 178.1 -1.7Z M183.6 -3.0V-4.7H188.0V-3.0Z M192.8 0.1Q191.9 0.1 191.2 -0.1Q190.5 -0.4 190.1 -0.9Q189.7 -1.4 189.7 -2.0L189.7 -2.0H191.5L191.5 -2.0Q191.6 -1.6 191.9 -1.4Q192.3 -1.2 192.9 -1.2Q193.2 -1.2 193.5 -1.3Q193.8 -1.4 194.0 -1.5Q194.1 -1.7 194.1 -2.0V-2.0Q194.1 -2.3 193.9 -2.5Q193.7 -2.7 193.1 -2.8L191.9 -3.1Q191.2 -3.2 190.8 -3.5Q190.3 -3.8 190.1 -4.2Q189.9 -4.6 189.9 -5.1V-5.1Q189.9 -5.8 190.2 -6.3Q190.6 -6.8 191.3 -7.1Q191.9 -7.3 192.8 -7.3Q193.7 -7.3 194.4 -7.1Q195.0 -6.8 195.4 -6.3Q195.7 -5.8 195.8 -5.2L195.8 -5.2H194.1L194.1 -5.2Q194.0 -5.6 193.7 -5.8Q193.4 -6.0 192.8 -6.0Q192.5 -6.0 192.2 -5.9Q191.9 -5.8 191.8 -5.6Q191.6 -5.5 191.6 -5.2V-5.2Q191.6 -5.0 191.7 -4.9Q191.8 -4.7 192.1 -4.6Q192.3 -4.5 192.7 -4.4L193.9 -4.1Q194.6 -4.0 195.0 -3.7Q195.5 -3.5 195.7 -3.1Q196.0 -2.7 196.0 -2.2V-2.2Q196.0 -1.5 195.6 -1.0Q195.2 -0.4 194.5 -0.1Q193.8 0.1 192.8 0.1Z M197.6 0.0V-9.9H199.4V0.0ZM202.1 0.0 199.8 -3.2 201.1 -4.3 204.3 0.0ZM199.2 -2.3 199.2 -4.3H199.5L202.0 -7.2H204.1L201.0 -3.8L200.2 -3.3Z M205.4 0.0V-7.2H207.3V0.0ZM206.4 -8.3Q205.9 -8.3 205.6 -8.6Q205.3 -8.9 205.3 -9.3Q205.3 -9.7 205.6 -10.0Q205.9 -10.3 206.4 -10.3Q206.8 -10.3 207.1 -10.0Q207.4 -9.7 207.4 -9.3Q207.4 -8.9 207.1 -8.6Q206.8 -8.3 206.4 -8.3Z M209.2 0.0V-9.9H211.1V0.0Z M213.1 0.0V-9.9H214.9V0.0Z M219.7 0.1Q218.7 0.1 218.0 -0.1Q217.4 -0.4 217.0 -0.9Q216.6 -1.4 216.5 -2.0L216.5 -2.0H218.3L218.3 -2.0Q218.4 -1.6 218.8 -1.4Q219.1 -1.2 219.7 -1.2Q220.1 -1.2 220.4 -1.3Q220.7 -1.4 220.8 -1.5Q221.0 -1.7 221.0 -2.0V-2.0Q221.0 -2.3 220.7 -2.5Q220.5 -2.7 219.9 -2.8L218.8 -3.1Q218.1 -3.2 217.6 -3.5Q217.2 -3.8 216.9 -4.2Q216.7 -4.6 216.7 -5.1V-5.1Q216.7 -5.8 217.1 -6.3Q217.4 -6.8 218.1 -7.1Q218.8 -7.3 219.7 -7.3Q220.6 -7.3 221.2 -7.1Q221.9 -6.8 222.2 -6.3Q222.6 -5.8 222.6 -5.2L222.6 -5.2H220.9L220.9 -5.2Q220.9 -5.6 220.5 -5.8Q220.2 -6.0 219.7 -6.0Q219.3 -6.0 219.1 -5.9Q218.8 -5.8 218.6 -5.6Q218.5 -5.5 218.5 -5.2V-5.2Q218.5 -5.0 218.6 -4.9Q218.7 -4.7 218.9 -4.6Q219.1 -4.5 219.5 -4.4L220.7 -4.1Q221.4 -4.0 221.9 -3.7Q222.4 -3.5 222.6 -3.1Q222.8 -2.7 222.8 -2.2V-2.2Q222.8 -1.5 222.4 -1.0Q222.0 -0.4 221.3 -0.1Q220.6 0.1 219.7 0.1Z"/></g>
  <g transform="translate(46,74)" fill="#9CA3AF"><path d="M1.0 0.0V-8.1H2.1L6.7 -1.6L5.9 -2.0H6.4V-8.1H7.5V0.0H6.5L1.9 -6.5L2.7 -6.1H2.1V0.0Z M9.6 0.0V-6.1H10.7V0.0ZM10.2 -7.2Q9.9 -7.2 9.7 -7.4Q9.5 -7.6 9.5 -7.9Q9.5 -8.2 9.7 -8.4Q9.9 -8.6 10.2 -8.6Q10.5 -8.6 10.7 -8.4Q10.9 -8.2 10.9 -7.9Q10.9 -7.6 10.7 -7.4Q10.5 -7.2 10.2 -7.2Z M12.6 0.0V-6.1H13.7V-5.2H13.8Q14.0 -5.6 14.5 -5.9Q14.9 -6.2 15.6 -6.2Q16.6 -6.2 17.2 -5.6Q17.7 -5.0 17.7 -3.9V0.0H16.6V-3.7Q16.6 -4.5 16.3 -4.8Q15.9 -5.2 15.2 -5.2Q14.8 -5.2 14.4 -5.0Q14.1 -4.8 13.9 -4.5Q13.7 -4.1 13.7 -3.6V0.0Z M22.1 0.1Q21.2 0.1 20.6 -0.3Q19.9 -0.7 19.6 -1.4Q19.3 -2.1 19.3 -3.0V-3.0Q19.3 -4.0 19.6 -4.7Q19.9 -5.4 20.6 -5.8Q21.2 -6.2 22.0 -6.2Q22.8 -6.2 23.4 -5.8Q24.0 -5.4 24.4 -4.7Q24.7 -4.0 24.7 -3.1V-2.7H19.8V-3.6H24.1L23.6 -2.8V-3.2Q23.6 -3.9 23.4 -4.4Q23.2 -4.8 22.8 -5.0Q22.5 -5.2 22.0 -5.2Q21.5 -5.2 21.2 -5.0Q20.8 -4.8 20.6 -4.3Q20.4 -3.9 20.4 -3.2V-2.8Q20.4 -2.2 20.6 -1.7Q20.8 -1.3 21.2 -1.1Q21.6 -0.8 22.1 -0.8Q22.5 -0.8 22.8 -0.9Q23.1 -1.0 23.3 -1.2Q23.5 -1.4 23.5 -1.6L23.6 -1.6L24.6 -1.6L24.6 -1.6Q24.5 -1.2 24.3 -1.0Q24.1 -0.7 23.8 -0.4Q23.5 -0.2 23.1 -0.0Q22.6 0.1 22.1 0.1Z M31.7 0.1Q31.0 0.1 30.5 -0.1Q30.0 -0.3 29.7 -0.7Q29.4 -1.1 29.3 -1.6L29.3 -1.6H30.4L30.4 -1.6Q30.5 -1.2 30.9 -1.0Q31.2 -0.8 31.8 -0.8Q32.2 -0.8 32.5 -0.9Q32.8 -1.0 32.9 -1.2Q33.1 -1.4 33.1 -1.7V-1.7Q33.1 -2.0 32.9 -2.2Q32.6 -2.4 32.1 -2.5L31.1 -2.7Q30.6 -2.9 30.2 -3.1Q29.8 -3.3 29.7 -3.6Q29.5 -3.9 29.5 -4.4V-4.4Q29.5 -4.9 29.8 -5.3Q30.1 -5.7 30.6 -5.9Q31.1 -6.2 31.8 -6.2Q32.4 -6.2 32.9 -6.0Q33.4 -5.8 33.7 -5.4Q34.0 -5.0 34.1 -4.5L34.1 -4.5H33.1L33.1 -4.5Q33.0 -4.9 32.6 -5.1Q32.3 -5.3 31.8 -5.3Q31.4 -5.3 31.2 -5.2Q30.9 -5.1 30.7 -4.9Q30.6 -4.7 30.6 -4.4V-4.4Q30.6 -4.2 30.7 -4.1Q30.8 -3.9 31.0 -3.8Q31.2 -3.7 31.6 -3.6L32.5 -3.4Q33.1 -3.3 33.5 -3.0Q33.8 -2.8 34.0 -2.5Q34.2 -2.2 34.2 -1.8V-1.7Q34.2 -1.2 33.9 -0.8Q33.6 -0.4 33.0 -0.1Q32.5 0.1 31.7 0.1Z M35.9 0.0V-8.5H37.0V0.0ZM39.7 0.0 37.4 -2.9 38.2 -3.6 41.0 0.0ZM36.8 -2.1 36.8 -3.5H37.1L39.6 -6.1H40.9L38.1 -3.3L37.7 -3.0Z M42.3 0.0V-6.1H43.4V0.0ZM42.9 -7.2Q42.6 -7.2 42.4 -7.4Q42.2 -7.6 42.2 -7.9Q42.2 -8.2 42.4 -8.4Q42.6 -8.6 42.9 -8.6Q43.2 -8.6 43.4 -8.4Q43.6 -8.2 43.6 -7.9Q43.6 -7.6 43.4 -7.4Q43.2 -7.2 42.9 -7.2Z M45.4 0.0V-8.5H46.5V0.0Z M48.5 0.0V-8.5H49.6V0.0Z M53.7 0.1Q53.0 0.1 52.5 -0.1Q52.0 -0.3 51.6 -0.7Q51.3 -1.1 51.3 -1.6L51.3 -1.6H52.4L52.4 -1.6Q52.5 -1.2 52.8 -1.0Q53.2 -0.8 53.7 -0.8Q54.1 -0.8 54.4 -0.9Q54.7 -1.0 54.9 -1.2Q55.1 -1.4 55.1 -1.7V-1.7Q55.1 -2.0 54.8 -2.2Q54.6 -2.4 54.1 -2.5L53.1 -2.7Q52.5 -2.9 52.2 -3.1Q51.8 -3.3 51.6 -3.6Q51.4 -3.9 51.4 -4.4V-4.4Q51.4 -4.9 51.7 -5.3Q52.0 -5.7 52.6 -5.9Q53.1 -6.2 53.7 -6.2Q54.4 -6.2 54.9 -6.0Q55.4 -5.8 55.7 -5.4Q56.0 -5.0 56.1 -4.5L56.1 -4.5H55.0L55.0 -4.5Q54.9 -4.9 54.6 -5.1Q54.3 -5.3 53.7 -5.3Q53.4 -5.3 53.1 -5.2Q52.9 -5.1 52.7 -4.9Q52.5 -4.7 52.5 -4.4V-4.4Q52.5 -4.2 52.6 -4.1Q52.7 -3.9 53.0 -3.8Q53.2 -3.7 53.5 -3.6L54.5 -3.4Q55.1 -3.3 55.4 -3.0Q55.8 -2.8 56.0 -2.5Q56.2 -2.2 56.2 -1.8V-1.7Q56.2 -1.2 55.9 -0.8Q55.5 -0.4 55.0 -0.1Q54.4 0.1 53.7 0.1Z M63.3 0.0Q62.3 0.0 61.9 -0.3Q61.5 -0.7 61.5 -1.6V-5.2H60.5V-6.1H61.5V-7.6H62.6V-6.1H63.9V-5.2H62.6V-1.8Q62.6 -1.3 62.8 -1.1Q63.0 -0.9 63.5 -0.9Q63.6 -0.9 63.7 -0.9Q63.8 -0.9 63.9 -0.9V-0.0Q63.8 0.0 63.6 0.0Q63.5 0.0 63.3 0.0Z M65.5 0.0V-8.5H66.6V-5.1H66.7Q66.9 -5.6 67.4 -5.9Q67.8 -6.2 68.5 -6.2Q69.2 -6.2 69.6 -5.9Q70.1 -5.6 70.4 -5.1Q70.6 -4.6 70.6 -3.9V0.0H69.5V-3.7Q69.5 -4.5 69.2 -4.8Q68.8 -5.2 68.1 -5.2Q67.7 -5.2 67.3 -5.0Q67.0 -4.8 66.8 -4.5Q66.6 -4.1 66.6 -3.6V0.0Z M74.1 0.1Q73.6 0.1 73.1 -0.1Q72.6 -0.3 72.4 -0.7Q72.1 -1.1 72.1 -1.7V-1.7Q72.1 -2.3 72.4 -2.6Q72.6 -3.0 73.1 -3.2Q73.6 -3.5 74.3 -3.5L76.6 -3.6V-2.8L74.5 -2.7Q73.8 -2.7 73.5 -2.4Q73.2 -2.2 73.2 -1.7V-1.7Q73.2 -1.3 73.5 -1.0Q73.9 -0.8 74.4 -0.8Q74.9 -0.8 75.2 -1.0Q75.6 -1.2 75.8 -1.5Q76.0 -1.8 76.0 -2.3V-4.1Q76.0 -4.7 75.7 -5.0Q75.4 -5.2 74.7 -5.2Q74.2 -5.2 73.9 -5.1Q73.5 -4.9 73.4 -4.5L73.4 -4.5H72.3L72.4 -4.5Q72.4 -5.0 72.8 -5.4Q73.1 -5.8 73.6 -6.0Q74.1 -6.2 74.8 -6.2Q75.5 -6.2 76.1 -5.9Q76.6 -5.7 76.8 -5.2Q77.1 -4.8 77.1 -4.2V0.0H76.0V-0.9H75.9Q75.8 -0.6 75.5 -0.3Q75.2 -0.1 74.9 -0.0Q74.5 0.1 74.1 0.1Z M81.2 0.0Q80.2 0.0 79.8 -0.3Q79.4 -0.7 79.4 -1.6V-5.2H78.4V-6.1H79.4V-7.6H80.5V-6.1H81.8V-5.2H80.5V-1.8Q80.5 -1.3 80.7 -1.1Q80.9 -0.9 81.4 -0.9Q81.5 -0.9 81.6 -0.9Q81.7 -0.9 81.8 -0.9V-0.0Q81.7 0.0 81.5 0.0Q81.4 0.0 81.2 0.0Z M86.7 0.0V-6.1H87.8V-5.1H87.9Q88.1 -5.6 88.5 -5.9Q88.9 -6.2 89.5 -6.2Q89.9 -6.2 90.3 -6.0Q90.6 -5.9 90.8 -5.7Q91.1 -5.4 91.2 -5.1H91.3Q91.4 -5.4 91.7 -5.7Q92.0 -5.9 92.4 -6.0Q92.7 -6.2 93.1 -6.2Q93.7 -6.2 94.2 -5.9Q94.6 -5.7 94.8 -5.3Q95.1 -4.8 95.1 -4.2V0.0H94.0V-3.9Q94.0 -4.4 93.8 -4.7Q93.7 -4.9 93.4 -5.1Q93.2 -5.2 92.8 -5.2Q92.4 -5.2 92.1 -5.0Q91.8 -4.9 91.6 -4.6Q91.4 -4.2 91.4 -3.9V0.0H90.3V-4.1Q90.3 -4.4 90.2 -4.7Q90.0 -4.9 89.8 -5.1Q89.5 -5.2 89.1 -5.2Q88.7 -5.2 88.4 -5.0Q88.1 -4.8 88.0 -4.5Q87.8 -4.2 87.8 -3.7V0.0Z M98.6 0.1Q98.0 0.1 97.6 -0.1Q97.1 -0.3 96.8 -0.7Q96.6 -1.1 96.6 -1.7V-1.7Q96.6 -2.3 96.8 -2.6Q97.1 -3.0 97.6 -3.2Q98.1 -3.5 98.8 -3.5L101.0 -3.6V-2.8L99.0 -2.7Q98.3 -2.7 98.0 -2.4Q97.7 -2.2 97.7 -1.7V-1.7Q97.7 -1.3 98.0 -1.0Q98.3 -0.8 98.9 -0.8Q99.3 -0.8 99.7 -1.0Q100.1 -1.2 100.3 -1.5Q100.5 -1.8 100.5 -2.3V-4.1Q100.5 -4.7 100.2 -5.0Q99.9 -5.2 99.2 -5.2Q98.7 -5.2 98.3 -5.1Q98.0 -4.9 97.9 -4.5L97.9 -4.5H96.8L96.8 -4.5Q96.9 -5.0 97.2 -5.4Q97.5 -5.8 98.1 -6.0Q98.6 -6.2 99.2 -6.2Q100.0 -6.2 100.5 -5.9Q101.0 -5.7 101.3 -5.2Q101.6 -4.8 101.6 -4.2V0.0H100.5V-0.9H100.4Q100.2 -0.6 100.0 -0.3Q99.7 -0.1 99.3 -0.0Q99.0 0.1 98.6 0.1Z M103.5 0.0V-8.5H104.6V0.0ZM107.3 0.0 105.1 -2.9 105.9 -3.6 108.7 0.0ZM104.5 -2.1 104.4 -3.5H104.7L107.2 -6.1H108.5L105.7 -3.3L105.4 -3.0Z M112.5 0.1Q111.6 0.1 110.9 -0.3Q110.3 -0.7 110.0 -1.4Q109.6 -2.1 109.6 -3.0V-3.0Q109.6 -4.0 110.0 -4.7Q110.3 -5.4 110.9 -5.8Q111.6 -6.2 112.4 -6.2Q113.2 -6.2 113.8 -5.8Q114.4 -5.4 114.8 -4.7Q115.1 -4.0 115.1 -3.1V-2.7H110.2V-3.6H114.5L114.0 -2.8V-3.2Q114.0 -3.9 113.8 -4.4Q113.6 -4.8 113.2 -5.0Q112.9 -5.2 112.4 -5.2Q111.9 -5.2 111.5 -5.0Q111.2 -4.8 111.0 -4.3Q110.7 -3.9 110.7 -3.2V-2.8Q110.7 -2.2 111.0 -1.7Q111.2 -1.3 111.6 -1.1Q111.9 -0.8 112.5 -0.8Q112.9 -0.8 113.2 -0.9Q113.5 -1.0 113.7 -1.2Q113.8 -1.4 113.9 -1.6L113.9 -1.6L115.0 -1.6L115.0 -1.6Q114.9 -1.2 114.7 -1.0Q114.5 -0.7 114.2 -0.4Q113.9 -0.2 113.4 -0.0Q113.0 0.1 112.5 0.1Z M121.7 0.1Q121.1 0.1 120.6 -0.1Q120.2 -0.3 119.9 -0.7Q119.6 -1.1 119.6 -1.7V-1.7Q119.6 -2.3 119.9 -2.6Q120.2 -3.0 120.7 -3.2Q121.2 -3.5 121.9 -3.5L124.1 -3.6V-2.8L122.0 -2.7Q121.4 -2.7 121.0 -2.4Q120.7 -2.2 120.7 -1.7V-1.7Q120.7 -1.3 121.1 -1.0Q121.4 -0.8 121.9 -0.8Q122.4 -0.8 122.8 -1.0Q123.1 -1.2 123.4 -1.5Q123.6 -1.8 123.6 -2.3V-4.1Q123.6 -4.7 123.2 -5.0Q122.9 -5.2 122.3 -5.2Q121.7 -5.2 121.4 -5.1Q121.1 -4.9 121.0 -4.5L120.9 -4.5H119.9L119.9 -4.5Q120.0 -5.0 120.3 -5.4Q120.6 -5.8 121.1 -6.0Q121.6 -6.2 122.3 -6.2Q123.1 -6.2 123.6 -5.9Q124.1 -5.7 124.4 -5.2Q124.7 -4.8 124.7 -4.2V0.0H123.6V-0.9H123.5Q123.3 -0.6 123.0 -0.3Q122.8 -0.1 122.4 -0.0Q122.1 0.1 121.7 0.1Z M132.3 0.1Q131.5 0.1 130.8 -0.3Q130.2 -0.7 129.9 -1.4Q129.5 -2.1 129.5 -3.0V-3.1Q129.5 -4.0 129.9 -4.7Q130.2 -5.4 130.8 -5.8Q131.5 -6.2 132.3 -6.2Q133.1 -6.2 133.6 -5.9Q134.2 -5.7 134.5 -5.2Q134.8 -4.8 134.9 -4.2L134.9 -4.2H133.8L133.8 -4.2Q133.7 -4.6 133.4 -4.9Q133.0 -5.2 132.3 -5.2Q131.8 -5.2 131.4 -5.0Q131.1 -4.7 130.8 -4.2Q130.6 -3.7 130.6 -3.1V-3.0Q130.6 -2.4 130.8 -1.9Q131.1 -1.4 131.4 -1.1Q131.8 -0.8 132.3 -0.8Q132.9 -0.8 133.3 -1.1Q133.7 -1.3 133.8 -1.8L133.8 -1.9L134.9 -1.9L134.9 -1.8Q134.8 -1.3 134.5 -0.8Q134.1 -0.4 133.6 -0.1Q133.1 0.1 132.3 0.1Z M139.0 0.1Q138.1 0.1 137.5 -0.3Q136.8 -0.6 136.5 -1.4Q136.1 -2.1 136.1 -3.0V-3.0Q136.1 -4.0 136.5 -4.7Q136.8 -5.4 137.5 -5.8Q138.1 -6.2 139.0 -6.2Q139.8 -6.2 140.5 -5.8Q141.1 -5.4 141.5 -4.7Q141.8 -4.0 141.8 -3.0V-3.0Q141.8 -2.1 141.5 -1.4Q141.1 -0.6 140.5 -0.3Q139.8 0.1 139.0 0.1ZM139.0 -0.8Q139.5 -0.8 139.9 -1.1Q140.3 -1.3 140.5 -1.8Q140.7 -2.3 140.7 -3.0V-3.0Q140.7 -3.7 140.5 -4.2Q140.3 -4.7 139.9 -5.0Q139.5 -5.2 139.0 -5.2Q138.4 -5.2 138.0 -5.0Q137.7 -4.7 137.5 -4.2Q137.2 -3.7 137.2 -3.0V-3.0Q137.2 -2.3 137.5 -1.8Q137.7 -1.3 138.0 -1.1Q138.4 -0.8 139.0 -0.8Z M145.6 0.1Q144.9 0.1 144.3 -0.3Q143.7 -0.7 143.4 -1.4Q143.1 -2.1 143.1 -3.0V-3.0Q143.1 -4.0 143.4 -4.7Q143.7 -5.4 144.3 -5.8Q144.9 -6.2 145.6 -6.2Q146.1 -6.2 146.4 -6.0Q146.8 -5.9 147.1 -5.7Q147.4 -5.4 147.5 -5.1H147.6V-8.5H148.7V0.0H147.6V-1.0H147.5Q147.3 -0.6 147.1 -0.4Q146.8 -0.2 146.4 -0.0Q146.1 0.1 145.6 0.1ZM145.9 -0.8Q146.4 -0.8 146.8 -1.1Q147.2 -1.4 147.4 -1.9Q147.6 -2.4 147.6 -3.0V-3.0Q147.6 -3.7 147.4 -4.2Q147.2 -4.7 146.8 -5.0Q146.4 -5.2 145.9 -5.2Q145.4 -5.2 145.0 -5.0Q144.6 -4.7 144.4 -4.2Q144.2 -3.7 144.2 -3.0V-3.0Q144.2 -2.3 144.4 -1.9Q144.6 -1.4 145.0 -1.1Q145.4 -0.8 145.9 -0.8Z M150.7 0.0V-6.1H151.8V0.0ZM151.2 -7.2Q150.9 -7.2 150.7 -7.4Q150.5 -7.6 150.5 -7.9Q150.5 -8.2 150.7 -8.4Q150.9 -8.6 151.2 -8.6Q151.5 -8.6 151.7 -8.4Q151.9 -8.2 151.9 -7.9Q151.9 -7.6 151.7 -7.4Q151.5 -7.2 151.2 -7.2Z M153.7 0.0V-6.1H154.8V-5.2H154.9Q155.1 -5.6 155.5 -5.9Q156.0 -6.2 156.6 -6.2Q157.7 -6.2 158.2 -5.6Q158.8 -5.0 158.8 -3.9V0.0H157.7V-3.7Q157.7 -4.5 157.3 -4.8Q157.0 -5.2 156.3 -5.2Q155.8 -5.2 155.5 -5.0Q155.2 -4.8 155.0 -4.5Q154.8 -4.1 154.8 -3.6V0.0Z M163.2 2.1Q162.4 2.1 161.8 1.9Q161.3 1.7 161.0 1.3Q160.6 1.0 160.6 0.5L160.6 0.5H161.7L161.7 0.5Q161.8 0.8 162.1 1.0Q162.5 1.2 163.2 1.2Q163.9 1.2 164.4 0.9Q164.8 0.5 164.8 -0.1V-1.3H164.7Q164.6 -1.0 164.3 -0.8Q164.0 -0.5 163.6 -0.4Q163.3 -0.3 162.8 -0.3Q162.1 -0.3 161.5 -0.7Q160.9 -1.0 160.6 -1.7Q160.3 -2.4 160.3 -3.2V-3.2Q160.3 -4.1 160.6 -4.7Q160.9 -5.4 161.5 -5.8Q162.1 -6.2 162.9 -6.2Q163.3 -6.2 163.7 -6.0Q164.0 -5.9 164.3 -5.7Q164.6 -5.4 164.7 -5.1H164.8V-6.1H165.9V-0.1Q165.9 0.6 165.6 1.1Q165.2 1.6 164.6 1.9Q164.0 2.1 163.2 2.1ZM163.1 -1.2Q163.7 -1.2 164.0 -1.5Q164.4 -1.7 164.6 -2.2Q164.8 -2.6 164.8 -3.2V-3.2Q164.8 -3.8 164.6 -4.3Q164.4 -4.7 164.0 -5.0Q163.7 -5.2 163.1 -5.2Q162.6 -5.2 162.2 -5.0Q161.8 -4.7 161.6 -4.3Q161.4 -3.8 161.4 -3.2V-3.2Q161.4 -2.6 161.6 -2.2Q161.8 -1.7 162.2 -1.5Q162.6 -1.2 163.1 -1.2Z M172.8 0.1Q172.2 0.1 171.8 -0.1Q171.3 -0.3 171.0 -0.7Q170.8 -1.1 170.8 -1.7V-1.7Q170.8 -2.3 171.0 -2.6Q171.3 -3.0 171.8 -3.2Q172.3 -3.5 173.0 -3.5L175.2 -3.6V-2.8L173.1 -2.7Q172.5 -2.7 172.2 -2.4Q171.9 -2.2 171.9 -1.7V-1.7Q171.9 -1.3 172.2 -1.0Q172.5 -0.8 173.0 -0.8Q173.5 -0.8 173.9 -1.0Q174.3 -1.2 174.5 -1.5Q174.7 -1.8 174.7 -2.3V-4.1Q174.7 -4.7 174.4 -5.0Q174.0 -5.2 173.4 -5.2Q172.9 -5.2 172.5 -5.1Q172.2 -4.9 172.1 -4.5L172.1 -4.5H171.0L171.0 -4.5Q171.1 -5.0 171.4 -5.4Q171.7 -5.8 172.2 -6.0Q172.8 -6.2 173.4 -6.2Q174.2 -6.2 174.7 -5.9Q175.2 -5.7 175.5 -5.2Q175.8 -4.8 175.8 -4.2V0.0H174.7V-0.9H174.6Q174.4 -0.6 174.2 -0.3Q173.9 -0.1 173.5 -0.0Q173.2 0.1 172.8 0.1Z M180.2 2.1Q179.4 2.1 178.9 1.9Q178.3 1.7 178.0 1.3Q177.7 1.0 177.6 0.5L177.6 0.5H178.7L178.7 0.5Q178.8 0.8 179.2 1.0Q179.6 1.2 180.2 1.2Q181.0 1.2 181.4 0.9Q181.9 0.5 181.9 -0.1V-1.3H181.8Q181.6 -1.0 181.3 -0.8Q181.0 -0.5 180.7 -0.4Q180.3 -0.3 179.9 -0.3Q179.1 -0.3 178.5 -0.7Q178.0 -1.0 177.7 -1.7Q177.4 -2.4 177.4 -3.2V-3.2Q177.4 -4.1 177.7 -4.7Q178.0 -5.4 178.5 -5.8Q179.1 -6.2 179.9 -6.2Q180.3 -6.2 180.7 -6.0Q181.1 -5.9 181.3 -5.7Q181.6 -5.4 181.8 -5.1H181.9V-6.1H182.9V-0.1Q182.9 0.6 182.6 1.1Q182.3 1.6 181.7 1.9Q181.0 2.1 180.2 2.1ZM180.2 -1.2Q180.7 -1.2 181.1 -1.5Q181.5 -1.7 181.7 -2.2Q181.9 -2.6 181.9 -3.2V-3.2Q181.9 -3.8 181.7 -4.3Q181.5 -4.7 181.1 -5.0Q180.7 -5.2 180.2 -5.2Q179.6 -5.2 179.2 -5.0Q178.9 -4.7 178.7 -4.3Q178.5 -3.8 178.5 -3.2V-3.2Q178.5 -2.6 178.7 -2.2Q178.9 -1.7 179.2 -1.5Q179.6 -1.2 180.2 -1.2Z M187.4 0.1Q186.5 0.1 185.9 -0.3Q185.2 -0.7 184.9 -1.4Q184.6 -2.1 184.6 -3.0V-3.0Q184.6 -4.0 184.9 -4.7Q185.2 -5.4 185.9 -5.8Q186.5 -6.2 187.3 -6.2Q188.1 -6.2 188.7 -5.8Q189.3 -5.4 189.7 -4.7Q190.0 -4.0 190.0 -3.1V-2.7H185.1V-3.6H189.4L188.9 -2.8V-3.2Q188.9 -3.9 188.7 -4.4Q188.5 -4.8 188.1 -5.0Q187.8 -5.2 187.3 -5.2Q186.8 -5.2 186.5 -5.0Q186.1 -4.8 185.9 -4.3Q185.7 -3.9 185.7 -3.2V-2.8Q185.7 -2.2 185.9 -1.7Q186.1 -1.3 186.5 -1.1Q186.9 -0.8 187.4 -0.8Q187.8 -0.8 188.1 -0.9Q188.4 -1.0 188.6 -1.2Q188.8 -1.4 188.8 -1.6L188.9 -1.6L189.9 -1.6L189.9 -1.6Q189.8 -1.2 189.6 -1.0Q189.4 -0.7 189.1 -0.4Q188.8 -0.2 188.4 -0.0Q187.9 0.1 187.4 0.1Z M191.6 0.0V-6.1H192.7V-5.2H192.8Q193.0 -5.6 193.4 -5.9Q193.9 -6.2 194.5 -6.2Q195.6 -6.2 196.1 -5.6Q196.7 -5.0 196.7 -3.9V0.0H195.6V-3.7Q195.6 -4.5 195.2 -4.8Q194.9 -5.2 194.2 -5.2Q193.7 -5.2 193.4 -5.0Q193.1 -4.8 192.9 -4.5Q192.7 -4.1 192.7 -3.6V0.0Z M200.7 0.0Q199.8 0.0 199.3 -0.3Q198.9 -0.7 198.9 -1.6V-5.2H198.0V-6.1H198.9V-7.6H200.0V-6.1H201.3V-5.2H200.0V-1.8Q200.0 -1.3 200.2 -1.1Q200.4 -0.9 200.9 -0.9Q201.0 -0.9 201.1 -0.9Q201.2 -0.9 201.3 -0.9V-0.0Q201.2 0.0 201.0 0.0Q200.9 0.0 200.7 0.0Z M208.7 0.1Q207.9 0.1 207.2 -0.3Q206.6 -0.7 206.3 -1.4Q205.9 -2.1 205.9 -3.0V-3.1Q205.9 -4.0 206.3 -4.7Q206.6 -5.4 207.2 -5.8Q207.9 -6.2 208.7 -6.2Q209.5 -6.2 210.0 -5.9Q210.6 -5.7 210.9 -5.2Q211.2 -4.8 211.3 -4.2L211.3 -4.2H210.2L210.2 -4.2Q210.1 -4.6 209.7 -4.9Q209.4 -5.2 208.7 -5.2Q208.2 -5.2 207.8 -5.0Q207.4 -4.7 207.2 -4.2Q207.0 -3.7 207.0 -3.1V-3.0Q207.0 -2.4 207.2 -1.9Q207.4 -1.4 207.8 -1.1Q208.2 -0.8 208.7 -0.8Q209.3 -0.8 209.7 -1.1Q210.1 -1.3 210.2 -1.8L210.2 -1.9L211.3 -1.9L211.3 -1.8Q211.2 -1.3 210.8 -0.8Q210.5 -0.4 210.0 -0.1Q209.5 0.1 208.7 0.1Z M212.9 0.0V-8.5H214.0V-5.1H214.1Q214.3 -5.6 214.7 -5.9Q215.2 -6.2 215.8 -6.2Q216.5 -6.2 217.0 -5.9Q217.4 -5.6 217.7 -5.1Q217.9 -4.6 217.9 -3.9V0.0H216.8V-3.7Q216.8 -4.5 216.5 -4.8Q216.2 -5.2 215.5 -5.2Q215.0 -5.2 214.7 -5.0Q214.3 -4.8 214.1 -4.5Q214.0 -4.1 214.0 -3.6V0.0Z M222.3 0.1Q221.4 0.1 220.8 -0.3Q220.2 -0.7 219.8 -1.4Q219.5 -2.1 219.5 -3.0V-3.0Q219.5 -4.0 219.8 -4.7Q220.2 -5.4 220.8 -5.8Q221.4 -6.2 222.2 -6.2Q223.1 -6.2 223.7 -5.8Q224.3 -5.4 224.6 -4.7Q224.9 -4.0 224.9 -3.1V-2.7H220.0V-3.6H224.4L223.8 -2.8V-3.2Q223.8 -3.9 223.6 -4.4Q223.4 -4.8 223.1 -5.0Q222.7 -5.2 222.2 -5.2Q221.8 -5.2 221.4 -5.0Q221.0 -4.8 220.8 -4.3Q220.6 -3.9 220.6 -3.2V-2.8Q220.6 -2.2 220.8 -1.7Q221.0 -1.3 221.4 -1.1Q221.8 -0.8 222.3 -0.8Q222.7 -0.8 223.0 -0.9Q223.3 -1.0 223.5 -1.2Q223.7 -1.4 223.8 -1.6L223.8 -1.6L224.9 -1.6L224.8 -1.6Q224.8 -1.2 224.6 -1.0Q224.4 -0.7 224.1 -0.4Q223.7 -0.2 223.3 -0.0Q222.9 0.1 222.3 0.1Z M229.1 0.1Q228.2 0.1 227.6 -0.3Q226.9 -0.7 226.6 -1.4Q226.2 -2.1 226.2 -3.0V-3.1Q226.2 -4.0 226.6 -4.7Q226.9 -5.4 227.6 -5.8Q228.2 -6.2 229.0 -6.2Q229.8 -6.2 230.3 -5.9Q230.9 -5.7 231.2 -5.2Q231.5 -4.8 231.6 -4.2L231.6 -4.2H230.6L230.6 -4.2Q230.4 -4.6 230.1 -4.9Q229.7 -5.2 229.1 -5.2Q228.5 -5.2 228.1 -5.0Q227.8 -4.7 227.6 -4.2Q227.3 -3.7 227.3 -3.1V-3.0Q227.3 -2.4 227.6 -1.9Q227.8 -1.4 228.1 -1.1Q228.5 -0.8 229.1 -0.8Q229.6 -0.8 230.0 -1.1Q230.4 -1.3 230.5 -1.8L230.6 -1.9L231.6 -1.9L231.6 -1.8Q231.5 -1.3 231.2 -0.8Q230.9 -0.4 230.3 -0.1Q229.8 0.1 229.1 0.1Z M233.2 0.0V-8.5H234.3V0.0ZM237.0 0.0 234.7 -2.9 235.5 -3.6 238.4 0.0ZM234.2 -2.1 234.1 -3.5H234.4L236.9 -6.1H238.2L235.4 -3.3L235.0 -3.0Z M242.9 0.0V-6.1H244.0V0.0ZM243.5 -7.2Q243.2 -7.2 243.0 -7.4Q242.8 -7.6 242.8 -7.9Q242.8 -8.2 243.0 -8.4Q243.2 -8.6 243.5 -8.6Q243.8 -8.6 244.0 -8.4Q244.2 -8.2 244.2 -7.9Q244.2 -7.6 244.0 -7.4Q243.8 -7.2 243.5 -7.2Z M248.2 0.0Q247.2 0.0 246.8 -0.3Q246.4 -0.7 246.4 -1.6V-5.2H245.4V-6.1H246.4V-7.6H247.5V-6.1H248.8V-5.2H247.5V-1.8Q247.5 -1.3 247.7 -1.1Q247.9 -0.9 248.3 -0.9Q248.5 -0.9 248.6 -0.9Q248.7 -0.9 248.8 -0.9V-0.0Q248.6 0.0 248.5 0.0Q248.3 0.0 248.2 0.0Z M252.5 0.1Q251.8 0.1 251.3 -0.1Q250.7 -0.3 250.4 -0.7Q250.1 -1.1 250.1 -1.6L250.1 -1.6H251.2L251.2 -1.6Q251.3 -1.2 251.6 -1.0Q252.0 -0.8 252.5 -0.8Q252.9 -0.8 253.2 -0.9Q253.5 -1.0 253.7 -1.2Q253.9 -1.4 253.9 -1.7V-1.7Q253.9 -2.0 253.6 -2.2Q253.4 -2.4 252.8 -2.5L251.9 -2.7Q251.3 -2.9 250.9 -3.1Q250.6 -3.3 250.4 -3.6Q250.2 -3.9 250.2 -4.4V-4.4Q250.2 -4.9 250.5 -5.3Q250.8 -5.7 251.3 -5.9Q251.9 -6.2 252.5 -6.2Q253.2 -6.2 253.7 -6.0Q254.2 -5.8 254.5 -5.4Q254.8 -5.0 254.9 -4.5L254.9 -4.5H253.8L253.8 -4.5Q253.7 -4.9 253.4 -5.1Q253.1 -5.3 252.5 -5.3Q252.2 -5.3 251.9 -5.2Q251.6 -5.1 251.5 -4.9Q251.3 -4.7 251.3 -4.4V-4.4Q251.3 -4.2 251.4 -4.1Q251.5 -3.9 251.7 -3.8Q252.0 -3.7 252.3 -3.6L253.3 -3.4Q253.8 -3.3 254.2 -3.0Q254.6 -2.8 254.8 -2.5Q255.0 -2.2 255.0 -1.8V-1.7Q255.0 -1.2 254.6 -0.8Q254.3 -0.4 253.8 -0.1Q253.2 0.1 252.5 0.1Z"/></g><g transform="translate(46,93)" fill="#9CA3AF"><path d="M2.1 0.0 0.4 -6.1H1.5L2.6 -1.3H2.7L4.0 -6.1H5.0L6.3 -1.3H6.4L7.6 -6.1H8.6L7.0 0.0H5.9L4.5 -4.6H4.5L3.2 0.0Z M12.6 0.1Q11.7 0.1 11.1 -0.3Q10.4 -0.6 10.1 -1.4Q9.7 -2.1 9.7 -3.0V-3.0Q9.7 -4.0 10.1 -4.7Q10.4 -5.4 11.1 -5.8Q11.7 -6.2 12.6 -6.2Q13.4 -6.2 14.1 -5.8Q14.7 -5.4 15.1 -4.7Q15.4 -4.0 15.4 -3.0V-3.0Q15.4 -2.1 15.1 -1.4Q14.7 -0.6 14.1 -0.3Q13.4 0.1 12.6 0.1ZM12.6 -0.8Q13.1 -0.8 13.5 -1.1Q13.9 -1.3 14.1 -1.8Q14.3 -2.3 14.3 -3.0V-3.0Q14.3 -3.7 14.1 -4.2Q13.9 -4.7 13.5 -5.0Q13.1 -5.2 12.6 -5.2Q12.0 -5.2 11.6 -5.0Q11.3 -4.7 11.1 -4.2Q10.9 -3.7 10.9 -3.0V-3.0Q10.9 -2.3 11.1 -1.8Q11.3 -1.3 11.6 -1.1Q12.0 -0.8 12.6 -0.8Z M17.0 0.0V-6.1H18.1V-5.2H18.2Q18.4 -5.6 18.8 -5.9Q19.2 -6.2 19.8 -6.2Q19.9 -6.2 20.1 -6.2Q20.2 -6.1 20.3 -6.1V-5.1Q20.1 -5.1 20.0 -5.1Q19.8 -5.2 19.7 -5.2Q19.2 -5.2 18.9 -5.0Q18.5 -4.8 18.3 -4.5Q18.1 -4.1 18.1 -3.7V0.0Z M21.7 0.0V-8.5H22.8V0.0ZM25.5 0.0 23.2 -2.9 24.0 -3.6 26.8 0.0ZM22.6 -2.1 22.6 -3.5H22.8L25.4 -6.1H26.7L23.8 -3.3L23.5 -3.0Z M31.4 0.0V-6.1H32.5V0.0ZM32.0 -7.2Q31.7 -7.2 31.5 -7.4Q31.2 -7.6 31.2 -7.9Q31.2 -8.2 31.5 -8.4Q31.7 -8.6 32.0 -8.6Q32.2 -8.6 32.5 -8.4Q32.7 -8.2 32.7 -7.9Q32.7 -7.6 32.5 -7.4Q32.2 -7.2 32.0 -7.2Z M34.4 0.0V-6.1H35.5V-5.2H35.6Q35.8 -5.6 36.3 -5.9Q36.7 -6.2 37.4 -6.2Q38.4 -6.2 38.9 -5.6Q39.5 -5.0 39.5 -3.9V0.0H38.4V-3.7Q38.4 -4.5 38.1 -4.8Q37.7 -5.2 37.0 -5.2Q36.6 -5.2 36.2 -5.0Q35.9 -4.8 35.7 -4.5Q35.5 -4.1 35.5 -3.6V0.0Z M43.5 0.1Q42.8 0.1 42.3 -0.1Q41.7 -0.3 41.4 -0.7Q41.1 -1.1 41.0 -1.6L41.0 -1.6H42.1L42.1 -1.6Q42.3 -1.2 42.6 -1.0Q43.0 -0.8 43.5 -0.8Q43.9 -0.8 44.2 -0.9Q44.5 -1.0 44.7 -1.2Q44.8 -1.4 44.8 -1.7V-1.7Q44.8 -2.0 44.6 -2.2Q44.4 -2.4 43.8 -2.5L42.9 -2.7Q42.3 -2.9 41.9 -3.1Q41.6 -3.3 41.4 -3.6Q41.2 -3.9 41.2 -4.4V-4.4Q41.2 -4.9 41.5 -5.3Q41.8 -5.7 42.3 -5.9Q42.9 -6.2 43.5 -6.2Q44.2 -6.2 44.7 -6.0Q45.2 -5.8 45.5 -5.4Q45.8 -5.0 45.8 -4.5L45.8 -4.5H44.8L44.8 -4.5Q44.7 -4.9 44.4 -5.1Q44.0 -5.3 43.5 -5.3Q43.2 -5.3 42.9 -5.2Q42.6 -5.1 42.5 -4.9Q42.3 -4.7 42.3 -4.4V-4.4Q42.3 -4.2 42.4 -4.1Q42.5 -3.9 42.7 -3.8Q43.0 -3.7 43.3 -3.6L44.2 -3.4Q44.8 -3.3 45.2 -3.0Q45.6 -2.8 45.8 -2.5Q46.0 -2.2 46.0 -1.8V-1.7Q46.0 -1.2 45.6 -0.8Q45.3 -0.4 44.7 -0.1Q44.2 0.1 43.5 0.1Z M49.8 0.0Q48.8 0.0 48.4 -0.3Q48.0 -0.7 48.0 -1.6V-5.2H47.0V-6.1H48.0V-7.6H49.1V-6.1H50.4V-5.2H49.1V-1.8Q49.1 -1.3 49.3 -1.1Q49.5 -0.9 49.9 -0.9Q50.1 -0.9 50.2 -0.9Q50.3 -0.9 50.4 -0.9V-0.0Q50.2 0.0 50.1 0.0Q49.9 0.0 49.8 0.0Z M54.5 0.1Q53.6 0.1 53.0 -0.3Q52.3 -0.7 52.0 -1.4Q51.7 -2.1 51.7 -3.0V-3.0Q51.7 -4.0 52.0 -4.7Q52.3 -5.4 52.9 -5.8Q53.6 -6.2 54.4 -6.2Q55.2 -6.2 55.8 -5.8Q56.4 -5.4 56.8 -4.7Q57.1 -4.0 57.1 -3.1V-2.7H52.2V-3.6H56.5L56.0 -2.8V-3.2Q56.0 -3.9 55.8 -4.4Q55.6 -4.8 55.2 -5.0Q54.9 -5.2 54.4 -5.2Q53.9 -5.2 53.6 -5.0Q53.2 -4.8 53.0 -4.3Q52.8 -3.9 52.8 -3.2V-2.8Q52.8 -2.2 53.0 -1.7Q53.2 -1.3 53.6 -1.1Q54.0 -0.8 54.5 -0.8Q54.9 -0.8 55.2 -0.9Q55.5 -1.0 55.7 -1.2Q55.9 -1.4 55.9 -1.6L56.0 -1.6L57.0 -1.6L57.0 -1.6Q56.9 -1.2 56.7 -1.0Q56.5 -0.7 56.2 -0.4Q55.9 -0.2 55.5 -0.0Q55.0 0.1 54.5 0.1Z M60.4 0.1Q59.8 0.1 59.3 -0.1Q58.9 -0.3 58.6 -0.7Q58.4 -1.1 58.4 -1.7V-1.7Q58.4 -2.3 58.6 -2.6Q58.9 -3.0 59.4 -3.2Q59.9 -3.5 60.6 -3.5L62.8 -3.6V-2.8L60.7 -2.7Q60.1 -2.7 59.8 -2.4Q59.5 -2.2 59.5 -1.7V-1.7Q59.5 -1.3 59.8 -1.0Q60.1 -0.8 60.6 -0.8Q61.1 -0.8 61.5 -1.0Q61.9 -1.2 62.1 -1.5Q62.3 -1.8 62.3 -2.3V-4.1Q62.3 -4.7 62.0 -5.0Q61.6 -5.2 61.0 -5.2Q60.5 -5.2 60.1 -5.1Q59.8 -4.9 59.7 -4.5L59.7 -4.5H58.6L58.6 -4.5Q58.7 -5.0 59.0 -5.4Q59.3 -5.8 59.8 -6.0Q60.4 -6.2 61.0 -6.2Q61.8 -6.2 62.3 -5.9Q62.8 -5.7 63.1 -5.2Q63.4 -4.8 63.4 -4.2V0.0H62.3V-0.9H62.2Q62.0 -0.6 61.7 -0.3Q61.5 -0.1 61.1 -0.0Q60.8 0.1 60.4 0.1Z M67.5 0.1Q66.7 0.1 66.1 -0.3Q65.6 -0.7 65.3 -1.4Q64.9 -2.1 64.9 -3.0V-3.0Q64.9 -4.0 65.3 -4.7Q65.6 -5.4 66.1 -5.8Q66.7 -6.2 67.5 -6.2Q67.9 -6.2 68.3 -6.0Q68.6 -5.9 68.9 -5.7Q69.2 -5.4 69.4 -5.1H69.4V-8.5H70.5V0.0H69.4V-1.0H69.4Q69.2 -0.6 68.9 -0.4Q68.6 -0.2 68.3 -0.0Q67.9 0.1 67.5 0.1ZM67.8 -0.8Q68.3 -0.8 68.7 -1.1Q69.0 -1.4 69.3 -1.9Q69.5 -2.4 69.5 -3.0V-3.0Q69.5 -3.7 69.3 -4.2Q69.0 -4.7 68.7 -5.0Q68.3 -5.2 67.8 -5.2Q67.2 -5.2 66.8 -5.0Q66.5 -4.7 66.3 -4.2Q66.1 -3.7 66.1 -3.0V-3.0Q66.1 -2.3 66.3 -1.9Q66.5 -1.4 66.8 -1.1Q67.2 -0.8 67.8 -0.8Z M78.3 0.1Q77.5 0.1 76.8 -0.3Q76.2 -0.6 75.8 -1.4Q75.5 -2.1 75.5 -3.0V-3.0Q75.5 -4.0 75.8 -4.7Q76.2 -5.4 76.8 -5.8Q77.5 -6.2 78.3 -6.2Q79.2 -6.2 79.8 -5.8Q80.5 -5.4 80.8 -4.7Q81.2 -4.0 81.2 -3.0V-3.0Q81.2 -2.1 80.8 -1.4Q80.5 -0.6 79.8 -0.3Q79.2 0.1 78.3 0.1ZM78.3 -0.8Q78.9 -0.8 79.3 -1.1Q79.6 -1.3 79.8 -1.8Q80.0 -2.3 80.0 -3.0V-3.0Q80.0 -3.7 79.8 -4.2Q79.6 -4.7 79.3 -5.0Q78.9 -5.2 78.3 -5.2Q77.8 -5.2 77.4 -5.0Q77.0 -4.7 76.8 -4.2Q76.6 -3.7 76.6 -3.0V-3.0Q76.6 -2.3 76.8 -1.8Q77.0 -1.3 77.4 -1.1Q77.8 -0.8 78.3 -0.8Z M83.2 0.0V-5.2H82.2V-6.1H83.2V-6.7Q83.2 -7.3 83.4 -7.7Q83.6 -8.1 84.0 -8.3Q84.4 -8.5 85.0 -8.5Q85.2 -8.5 85.3 -8.5Q85.5 -8.5 85.7 -8.5V-7.6Q85.6 -7.6 85.5 -7.6Q85.3 -7.7 85.2 -7.7Q84.7 -7.7 84.5 -7.4Q84.3 -7.2 84.3 -6.7V-6.1H85.6V-5.2H84.3V0.0Z M90.4 0.0V-6.1H91.5V-5.2H91.6Q91.8 -5.6 92.2 -5.9Q92.6 -6.2 93.2 -6.2Q93.3 -6.2 93.5 -6.2Q93.6 -6.1 93.7 -6.1V-5.1Q93.6 -5.1 93.4 -5.1Q93.3 -5.2 93.1 -5.2Q92.6 -5.2 92.3 -5.0Q91.9 -4.8 91.7 -4.5Q91.5 -4.1 91.5 -3.7V0.0Z M97.5 0.1Q96.7 0.1 96.0 -0.3Q95.4 -0.7 95.1 -1.4Q94.7 -2.1 94.7 -3.0V-3.0Q94.7 -4.0 95.1 -4.7Q95.4 -5.4 96.0 -5.8Q96.6 -6.2 97.5 -6.2Q98.3 -6.2 98.9 -5.8Q99.5 -5.4 99.8 -4.7Q100.2 -4.0 100.2 -3.1V-2.7H95.3V-3.6H99.6L99.1 -2.8V-3.2Q99.1 -3.9 98.9 -4.4Q98.7 -4.8 98.3 -5.0Q97.9 -5.2 97.5 -5.2Q97.0 -5.2 96.6 -5.0Q96.3 -4.8 96.0 -4.3Q95.8 -3.9 95.8 -3.2V-2.8Q95.8 -2.2 96.0 -1.7Q96.3 -1.3 96.6 -1.1Q97.0 -0.8 97.6 -0.8Q98.0 -0.8 98.3 -0.9Q98.6 -1.0 98.7 -1.2Q98.9 -1.4 99.0 -1.6L99.0 -1.6L100.1 -1.6L100.1 -1.6Q100.0 -1.2 99.8 -1.0Q99.6 -0.7 99.3 -0.4Q99.0 -0.2 98.5 -0.0Q98.1 0.1 97.5 0.1Z M101.8 2.0V-6.1H102.9V-5.1H103.0Q103.1 -5.4 103.4 -5.7Q103.7 -5.9 104.0 -6.0Q104.4 -6.2 104.8 -6.2Q105.6 -6.2 106.2 -5.8Q106.7 -5.4 107.0 -4.7Q107.4 -4.0 107.4 -3.0V-3.0Q107.4 -2.1 107.0 -1.4Q106.7 -0.7 106.2 -0.3Q105.6 0.1 104.8 0.1Q104.4 0.1 104.0 -0.0Q103.7 -0.2 103.4 -0.4Q103.1 -0.6 103.0 -1.0H102.9V2.0ZM104.6 -0.8Q105.1 -0.8 105.5 -1.1Q105.8 -1.4 106.0 -1.9Q106.3 -2.3 106.3 -3.0V-3.0Q106.3 -3.7 106.0 -4.2Q105.8 -4.7 105.5 -5.0Q105.1 -5.2 104.6 -5.2Q104.0 -5.2 103.6 -5.0Q103.3 -4.7 103.0 -4.2Q102.8 -3.7 102.8 -3.0V-3.0Q102.8 -2.4 103.0 -1.9Q103.3 -1.4 103.6 -1.1Q104.0 -0.8 104.6 -0.8Z M111.5 0.1Q110.6 0.1 110.0 -0.3Q109.4 -0.6 109.0 -1.4Q108.7 -2.1 108.7 -3.0V-3.0Q108.7 -4.0 109.0 -4.7Q109.4 -5.4 110.0 -5.8Q110.6 -6.2 111.5 -6.2Q112.4 -6.2 113.0 -5.8Q113.7 -5.4 114.0 -4.7Q114.3 -4.0 114.3 -3.0V-3.0Q114.3 -2.1 114.0 -1.4Q113.7 -0.6 113.0 -0.3Q112.4 0.1 111.5 0.1ZM111.5 -0.8Q112.1 -0.8 112.4 -1.1Q112.8 -1.3 113.0 -1.8Q113.2 -2.3 113.2 -3.0V-3.0Q113.2 -3.7 113.0 -4.2Q112.8 -4.7 112.4 -5.0Q112.1 -5.2 111.5 -5.2Q111.0 -5.2 110.6 -5.0Q110.2 -4.7 110.0 -4.2Q109.8 -3.7 109.8 -3.0V-3.0Q109.8 -2.3 110.0 -1.8Q110.2 -1.3 110.6 -1.1Q111.0 -0.8 111.5 -0.8Z M116.0 0.0V-6.1H117.0V-5.2H117.1Q117.3 -5.6 117.7 -5.9Q118.1 -6.2 118.7 -6.2Q118.9 -6.2 119.0 -6.2Q119.1 -6.1 119.2 -6.1V-5.1Q119.1 -5.1 118.9 -5.1Q118.8 -5.2 118.6 -5.2Q118.1 -5.2 117.8 -5.0Q117.4 -4.8 117.2 -4.5Q117.0 -4.1 117.0 -3.7V0.0Z M122.8 0.0Q121.8 0.0 121.4 -0.3Q120.9 -0.7 120.9 -1.6V-5.2H120.0V-6.1H120.9V-7.6H122.1V-6.1H123.4V-5.2H122.1V-1.8Q122.1 -1.3 122.3 -1.1Q122.5 -0.9 122.9 -0.9Q123.0 -0.9 123.1 -0.9Q123.2 -0.9 123.4 -0.9V-0.0Q123.2 0.0 123.1 0.0Q122.9 0.0 122.8 0.0Z M125.0 0.0V-6.1H126.0V0.0ZM125.5 -7.2Q125.2 -7.2 125.0 -7.4Q124.8 -7.6 124.8 -7.9Q124.8 -8.2 125.0 -8.4Q125.2 -8.6 125.5 -8.6Q125.8 -8.6 126.0 -8.4Q126.2 -8.2 126.2 -7.9Q126.2 -7.6 126.0 -7.4Q125.8 -7.2 125.5 -7.2Z M128.0 0.0V-6.1H129.1V-5.2H129.2Q129.4 -5.6 129.8 -5.9Q130.3 -6.2 130.9 -6.2Q131.9 -6.2 132.5 -5.6Q133.0 -5.0 133.0 -3.9V0.0H132.0V-3.7Q132.0 -4.5 131.6 -4.8Q131.3 -5.2 130.6 -5.2Q130.1 -5.2 129.8 -5.0Q129.4 -4.8 129.3 -4.5Q129.1 -4.1 129.1 -3.6V0.0Z M137.4 2.1Q136.7 2.1 136.1 1.9Q135.6 1.7 135.2 1.3Q134.9 1.0 134.8 0.5L134.8 0.5H136.0L136.0 0.5Q136.0 0.8 136.4 1.0Q136.8 1.2 137.4 1.2Q138.2 1.2 138.7 0.9Q139.1 0.5 139.1 -0.1V-1.3H139.0Q138.8 -1.0 138.5 -0.8Q138.3 -0.5 137.9 -0.4Q137.5 -0.3 137.1 -0.3Q136.4 -0.3 135.8 -0.7Q135.2 -1.0 134.9 -1.7Q134.6 -2.4 134.6 -3.2V-3.2Q134.6 -4.1 134.9 -4.7Q135.2 -5.4 135.8 -5.8Q136.4 -6.2 137.2 -6.2Q137.6 -6.2 137.9 -6.0Q138.3 -5.9 138.6 -5.7Q138.8 -5.4 139.0 -5.1H139.1V-6.1H140.2V-0.1Q140.2 0.6 139.8 1.1Q139.5 1.6 138.9 1.9Q138.3 2.1 137.4 2.1ZM137.4 -1.2Q137.9 -1.2 138.3 -1.5Q138.7 -1.7 138.9 -2.2Q139.1 -2.6 139.1 -3.2V-3.2Q139.1 -3.8 138.9 -4.3Q138.7 -4.7 138.3 -5.0Q137.9 -5.2 137.4 -5.2Q136.9 -5.2 136.5 -5.0Q136.1 -4.7 135.9 -4.3Q135.7 -3.8 135.7 -3.2V-3.2Q135.7 -2.6 135.9 -2.2Q136.1 -1.7 136.5 -1.5Q136.9 -1.2 137.4 -1.2Z M147.5 0.1Q146.8 0.1 146.3 -0.1Q145.8 -0.3 145.5 -0.7Q145.2 -1.1 145.1 -1.6L145.1 -1.6H146.2L146.2 -1.6Q146.3 -1.2 146.7 -1.0Q147.0 -0.8 147.6 -0.8Q148.0 -0.8 148.3 -0.9Q148.6 -1.0 148.7 -1.2Q148.9 -1.4 148.9 -1.7V-1.7Q148.9 -2.0 148.7 -2.2Q148.4 -2.4 147.9 -2.5L146.9 -2.7Q146.4 -2.9 146.0 -3.1Q145.6 -3.3 145.4 -3.6Q145.3 -3.9 145.3 -4.4V-4.4Q145.3 -4.9 145.6 -5.3Q145.9 -5.7 146.4 -5.9Q146.9 -6.2 147.6 -6.2Q148.2 -6.2 148.7 -6.0Q149.2 -5.8 149.5 -5.4Q149.8 -5.0 149.9 -4.5L149.9 -4.5H148.8L148.8 -4.5Q148.8 -4.9 148.4 -5.1Q148.1 -5.3 147.6 -5.3Q147.2 -5.3 146.9 -5.2Q146.7 -5.1 146.5 -4.9Q146.4 -4.7 146.4 -4.4V-4.4Q146.4 -4.2 146.5 -4.1Q146.6 -3.9 146.8 -3.8Q147.0 -3.7 147.4 -3.6L148.3 -3.4Q148.9 -3.3 149.3 -3.0Q149.6 -2.8 149.8 -2.5Q150.0 -2.2 150.0 -1.8V-1.7Q150.0 -1.2 149.7 -0.8Q149.4 -0.4 148.8 -0.1Q148.2 0.1 147.5 0.1Z M153.6 0.1Q153.0 0.1 152.5 -0.2Q152.0 -0.4 151.8 -0.9Q151.6 -1.4 151.6 -2.1V-6.1H152.7V-2.4Q152.7 -1.6 153.0 -1.2Q153.3 -0.8 154.0 -0.8Q154.3 -0.8 154.6 -1.0Q154.9 -1.1 155.1 -1.3Q155.3 -1.5 155.4 -1.8Q155.5 -2.1 155.5 -2.5V-6.1H156.6V0.0H155.5V-0.9H155.4Q155.3 -0.6 155.0 -0.4Q154.8 -0.1 154.4 -0.0Q154.1 0.1 153.6 0.1Z M161.1 0.1Q160.2 0.1 159.6 -0.3Q158.9 -0.7 158.6 -1.4Q158.2 -2.1 158.2 -3.0V-3.1Q158.2 -4.0 158.6 -4.7Q158.9 -5.4 159.5 -5.8Q160.2 -6.2 161.0 -6.2Q161.8 -6.2 162.3 -5.9Q162.9 -5.7 163.2 -5.2Q163.5 -4.8 163.6 -4.2L163.6 -4.2H162.6L162.5 -4.2Q162.4 -4.6 162.1 -4.9Q161.7 -5.2 161.0 -5.2Q160.5 -5.2 160.1 -5.0Q159.8 -4.7 159.6 -4.2Q159.3 -3.7 159.3 -3.1V-3.0Q159.3 -2.4 159.6 -1.9Q159.8 -1.4 160.1 -1.1Q160.5 -0.8 161.0 -0.8Q161.6 -0.8 162.0 -1.1Q162.4 -1.3 162.5 -1.8L162.6 -1.9L163.6 -1.9L163.6 -1.8Q163.5 -1.3 163.2 -0.8Q162.8 -0.4 162.3 -0.1Q161.8 0.1 161.1 0.1Z M167.7 0.1Q166.8 0.1 166.2 -0.3Q165.5 -0.7 165.2 -1.4Q164.8 -2.1 164.8 -3.0V-3.1Q164.8 -4.0 165.2 -4.7Q165.5 -5.4 166.2 -5.8Q166.8 -6.2 167.7 -6.2Q168.4 -6.2 168.9 -5.9Q169.5 -5.7 169.8 -5.2Q170.1 -4.8 170.2 -4.2L170.2 -4.2H169.2L169.2 -4.2Q169.0 -4.6 168.7 -4.9Q168.3 -5.2 167.7 -5.2Q167.1 -5.2 166.7 -5.0Q166.4 -4.7 166.2 -4.2Q166.0 -3.7 166.0 -3.1V-3.0Q166.0 -2.4 166.2 -1.9Q166.4 -1.4 166.8 -1.1Q167.1 -0.8 167.7 -0.8Q168.2 -0.8 168.6 -1.1Q169.0 -1.3 169.2 -1.8L169.2 -1.9L170.2 -1.9L170.2 -1.8Q170.1 -1.3 169.8 -0.8Q169.5 -0.4 168.9 -0.1Q168.4 0.1 167.7 0.1Z M174.3 0.1Q173.4 0.1 172.8 -0.3Q172.1 -0.7 171.8 -1.4Q171.4 -2.1 171.4 -3.0V-3.0Q171.4 -4.0 171.8 -4.7Q172.1 -5.4 172.7 -5.8Q173.4 -6.2 174.2 -6.2Q175.0 -6.2 175.6 -5.8Q176.2 -5.4 176.6 -4.7Q176.9 -4.0 176.9 -3.1V-2.7H172.0V-3.6H176.3L175.8 -2.8V-3.2Q175.8 -3.9 175.6 -4.4Q175.4 -4.8 175.0 -5.0Q174.7 -5.2 174.2 -5.2Q173.7 -5.2 173.4 -5.0Q173.0 -4.8 172.8 -4.3Q172.6 -3.9 172.6 -3.2V-2.8Q172.6 -2.2 172.8 -1.7Q173.0 -1.3 173.4 -1.1Q173.8 -0.8 174.3 -0.8Q174.7 -0.8 175.0 -0.9Q175.3 -1.0 175.5 -1.2Q175.7 -1.4 175.7 -1.6L175.7 -1.6L176.8 -1.6L176.8 -1.6Q176.7 -1.2 176.5 -1.0Q176.3 -0.7 176.0 -0.4Q175.7 -0.2 175.3 -0.0Q174.8 0.1 174.3 0.1Z M180.6 0.1Q179.9 0.1 179.4 -0.1Q178.9 -0.3 178.6 -0.7Q178.3 -1.1 178.2 -1.6L178.2 -1.6H179.3L179.3 -1.6Q179.4 -1.2 179.8 -1.0Q180.1 -0.8 180.7 -0.8Q181.1 -0.8 181.4 -0.9Q181.7 -1.0 181.8 -1.2Q182.0 -1.4 182.0 -1.7V-1.7Q182.0 -2.0 181.8 -2.2Q181.5 -2.4 181.0 -2.5L180.0 -2.7Q179.5 -2.9 179.1 -3.1Q178.7 -3.3 178.5 -3.6Q178.4 -3.9 178.4 -4.4V-4.4Q178.4 -4.9 178.7 -5.3Q179.0 -5.7 179.5 -5.9Q180.0 -6.2 180.7 -6.2Q181.3 -6.2 181.8 -6.0Q182.3 -5.8 182.6 -5.4Q182.9 -5.0 183.0 -4.5L183.0 -4.5H181.9L181.9 -4.5Q181.9 -4.9 181.5 -5.1Q181.2 -5.3 180.7 -5.3Q180.3 -5.3 180.0 -5.2Q179.8 -5.1 179.6 -4.9Q179.5 -4.7 179.5 -4.4V-4.4Q179.5 -4.2 179.6 -4.1Q179.7 -3.9 179.9 -3.8Q180.1 -3.7 180.5 -3.6L181.4 -3.4Q182.0 -3.3 182.4 -3.0Q182.7 -2.8 182.9 -2.5Q183.1 -2.2 183.1 -1.8V-1.7Q183.1 -1.2 182.8 -0.8Q182.5 -0.4 181.9 -0.1Q181.3 0.1 180.6 0.1Z M186.9 0.1Q186.2 0.1 185.6 -0.1Q185.1 -0.3 184.8 -0.7Q184.5 -1.1 184.4 -1.6L184.4 -1.6H185.5L185.5 -1.6Q185.6 -1.2 186.0 -1.0Q186.3 -0.8 186.9 -0.8Q187.3 -0.8 187.6 -0.9Q187.9 -1.0 188.0 -1.2Q188.2 -1.4 188.2 -1.7V-1.7Q188.2 -2.0 188.0 -2.2Q187.7 -2.4 187.2 -2.5L186.2 -2.7Q185.7 -2.9 185.3 -3.1Q184.9 -3.3 184.8 -3.6Q184.6 -3.9 184.6 -4.4V-4.4Q184.6 -4.9 184.9 -5.3Q185.2 -5.7 185.7 -5.9Q186.2 -6.2 186.9 -6.2Q187.5 -6.2 188.1 -6.0Q188.6 -5.8 188.9 -5.4Q189.2 -5.0 189.2 -4.5L189.2 -4.5H188.2L188.2 -4.5Q188.1 -4.9 187.7 -5.1Q187.4 -5.3 186.9 -5.3Q186.5 -5.3 186.3 -5.2Q186.0 -5.1 185.8 -4.9Q185.7 -4.7 185.7 -4.4V-4.4Q185.7 -4.2 185.8 -4.1Q185.9 -3.9 186.1 -3.8Q186.3 -3.7 186.7 -3.6L187.6 -3.4Q188.2 -3.3 188.6 -3.0Q189.0 -2.8 189.1 -2.5Q189.3 -2.2 189.3 -1.8V-1.7Q189.3 -1.2 189.0 -0.8Q188.7 -0.4 188.1 -0.1Q187.6 0.1 186.9 0.1Z M191.8 0.1Q191.5 0.1 191.2 -0.2Q191.0 -0.4 191.0 -0.7Q191.0 -1.0 191.2 -1.2Q191.5 -1.5 191.8 -1.5Q192.1 -1.5 192.3 -1.2Q192.6 -1.0 192.6 -0.7Q192.6 -0.4 192.3 -0.2Q192.1 0.1 191.8 0.1Z"/></g><circle cx="51.0" cy="126.0" r="4.2" fill="#9CA3AF"/><g transform="translate(60.0,129.5)" fill="#9CA3AF"><path d="M0.9 0.0V-7.0H2.3L4.4 -1.6H4.5L6.7 -7.0H8.0V0.0H7.0V-5.1H6.4L7.6 -6.9L4.9 0.0H4.0L1.3 -6.9L2.5 -5.1H2.0V0.0Z M11.3 0.1Q10.8 0.1 10.4 -0.1Q10.0 -0.3 9.8 -0.7Q9.6 -1.0 9.6 -1.5V-1.5Q9.6 -2.0 9.8 -2.3Q10.0 -2.7 10.5 -2.9Q10.9 -3.1 11.6 -3.1L13.5 -3.2V-2.4L11.7 -2.3Q11.2 -2.3 11.0 -2.1Q10.7 -1.9 10.7 -1.6V-1.6Q10.7 -1.2 11.0 -1.0Q11.2 -0.8 11.7 -0.8Q12.0 -0.8 12.3 -1.0Q12.6 -1.1 12.8 -1.4Q13.0 -1.6 13.0 -2.0V-3.6Q13.0 -4.1 12.7 -4.3Q12.4 -4.5 11.9 -4.5Q11.5 -4.5 11.2 -4.3Q11.0 -4.2 10.9 -3.9L10.9 -3.9H9.8L9.8 -3.9Q9.8 -4.4 10.1 -4.7Q10.4 -5.1 10.9 -5.2Q11.4 -5.4 12.0 -5.4Q12.7 -5.4 13.1 -5.2Q13.6 -5.0 13.9 -4.6Q14.1 -4.2 14.1 -3.6V0.0H13.0V-0.7H12.9Q12.7 -0.5 12.5 -0.3Q12.3 -0.1 12.0 -0.0Q11.7 0.1 11.3 0.1Z M15.8 0.0V-5.3H16.9V-4.5H17.0Q17.2 -4.9 17.5 -5.2Q17.9 -5.4 18.4 -5.4Q18.5 -5.4 18.7 -5.4Q18.8 -5.4 18.9 -5.4V-4.3Q18.7 -4.3 18.6 -4.4Q18.4 -4.4 18.3 -4.4Q17.9 -4.4 17.6 -4.2Q17.3 -4.1 17.1 -3.8Q16.9 -3.5 16.9 -3.1V0.0Z M20.1 0.0V-7.4H21.3V0.0ZM23.5 0.0 21.6 -2.4 22.5 -3.2 24.9 0.0ZM21.2 -1.8 21.1 -3.1H21.4L23.4 -5.3H24.7L22.4 -2.9L21.9 -2.5Z M27.9 0.1Q27.3 0.1 26.8 -0.2Q26.3 -0.6 26.0 -1.2Q25.8 -1.8 25.8 -2.7V-2.7Q25.8 -3.5 26.0 -4.1Q26.3 -4.7 26.8 -5.1Q27.3 -5.4 27.9 -5.4Q28.3 -5.4 28.6 -5.3Q28.9 -5.2 29.2 -5.0Q29.4 -4.8 29.6 -4.5H29.7V-7.4H30.8V0.0H29.7V-0.8H29.6Q29.4 -0.5 29.2 -0.3Q28.9 -0.1 28.6 -0.0Q28.3 0.1 27.9 0.1ZM28.3 -0.9Q28.7 -0.9 29.0 -1.1Q29.3 -1.3 29.5 -1.7Q29.7 -2.1 29.7 -2.7V-2.7Q29.7 -3.2 29.5 -3.6Q29.3 -4.0 29.0 -4.2Q28.7 -4.4 28.3 -4.4Q27.9 -4.4 27.6 -4.2Q27.3 -4.0 27.1 -3.6Q26.9 -3.2 26.9 -2.7V-2.7Q26.9 -2.1 27.1 -1.7Q27.3 -1.3 27.6 -1.1Q27.9 -0.9 28.3 -0.9Z M34.8 0.1Q34.1 0.1 33.5 -0.2Q32.9 -0.6 32.6 -1.2Q32.3 -1.8 32.3 -2.7V-2.7Q32.3 -3.5 32.6 -4.1Q32.9 -4.8 33.5 -5.1Q34.1 -5.4 34.8 -5.4Q35.6 -5.4 36.2 -5.1Q36.8 -4.8 37.1 -4.1Q37.4 -3.5 37.4 -2.7V-2.7Q37.4 -1.8 37.1 -1.2Q36.8 -0.6 36.2 -0.2Q35.6 0.1 34.8 0.1ZM34.8 -0.8Q35.3 -0.8 35.6 -1.1Q35.9 -1.3 36.0 -1.7Q36.2 -2.1 36.2 -2.7V-2.7Q36.2 -3.2 36.0 -3.6Q35.9 -4.0 35.6 -4.3Q35.3 -4.5 34.8 -4.5Q34.4 -4.5 34.1 -4.3Q33.8 -4.0 33.6 -3.6Q33.5 -3.2 33.5 -2.7V-2.7Q33.5 -2.1 33.6 -1.7Q33.8 -1.3 34.1 -1.1Q34.4 -0.8 34.8 -0.8Z M39.8 0.0 38.4 -5.3H39.5L40.5 -1.3H40.5L41.6 -5.3H42.7L43.7 -1.3H43.8L44.7 -5.3H45.9L44.4 0.0H43.2L42.2 -3.9H42.1L41.0 0.0Z M47.1 0.0V-5.3H48.3V-4.5H48.4Q48.6 -4.9 49.0 -5.2Q49.3 -5.4 49.9 -5.4Q50.8 -5.4 51.3 -4.9Q51.8 -4.4 51.8 -3.4V0.0H50.6V-3.2Q50.6 -3.8 50.3 -4.1Q50.1 -4.4 49.5 -4.4Q49.1 -4.4 48.9 -4.3Q48.6 -4.1 48.5 -3.8Q48.3 -3.5 48.3 -3.1V0.0Z"/></g><circle cx="133.7" cy="126.0" r="4.2" fill="#6B7280"/><g transform="translate(142.7,129.5)" fill="#9CA3AF"><path d="M0.9 0.0V-7.0H2.3L4.4 -1.6H4.5L6.7 -7.0H8.0V0.0H7.0V-5.1H6.4L7.6 -6.9L4.9 0.0H4.0L1.3 -6.9L2.5 -5.1H2.0V0.0Z M10.0 0.0V-7.0H11.2V0.0Z M14.9 0.0V-6.0H12.7V-7.0H18.3V-6.0H16.1V0.0Z"/></g><circle cx="182.6" cy="126.0" r="4.2" fill="#6B7280"/><g transform="translate(191.6,129.5)" fill="#9CA3AF"><path d="M3.2 -7.2Q3.8 -7.2 4.3 -7.0Q4.8 -6.8 5.2 -6.4Q5.6 -5.9 5.8 -5.3Q6.0 -4.6 6.0 -3.6V-3.6Q6.0 -2.4 5.7 -1.6Q5.3 -0.7 4.7 -0.3Q4.1 0.2 3.2 0.2Q2.5 0.2 2.0 -0.1Q1.5 -0.3 1.2 -0.7Q0.8 -1.1 0.7 -1.7L0.7 -1.7H1.9L1.9 -1.7Q2.0 -1.4 2.2 -1.2Q2.4 -1.0 2.6 -0.9Q2.9 -0.8 3.2 -0.8Q3.8 -0.8 4.1 -1.2Q4.5 -1.5 4.7 -2.1Q4.8 -2.6 4.9 -3.3Q4.9 -3.4 4.9 -3.4Q4.9 -3.5 4.9 -3.6L4.6 -4.8Q4.6 -5.2 4.5 -5.5Q4.3 -5.8 3.9 -6.0Q3.6 -6.2 3.2 -6.2Q2.8 -6.2 2.5 -6.0Q2.2 -5.9 2.0 -5.5Q1.8 -5.2 1.8 -4.8V-4.8Q1.8 -4.4 2.0 -4.0Q2.2 -3.7 2.5 -3.5Q2.8 -3.3 3.2 -3.3Q3.6 -3.3 3.9 -3.5Q4.3 -3.7 4.5 -4.0Q4.6 -4.3 4.6 -4.8V-4.8H4.9V-3.5H4.8Q4.6 -3.2 4.4 -2.9Q4.1 -2.7 3.8 -2.6Q3.4 -2.4 2.9 -2.4Q2.3 -2.4 1.7 -2.7Q1.2 -3.0 0.9 -3.5Q0.6 -4.1 0.6 -4.7V-4.8Q0.6 -5.5 1.0 -6.0Q1.3 -6.6 1.9 -6.9Q2.5 -7.2 3.2 -7.2Z M12.4 0.1Q11.8 0.1 11.3 -0.1Q10.8 -0.3 10.5 -0.6Q10.2 -1.0 10.2 -1.4L10.2 -1.4H11.3L11.3 -1.4Q11.4 -1.1 11.7 -0.9Q12.0 -0.8 12.5 -0.8Q12.8 -0.8 13.0 -0.9Q13.2 -0.9 13.4 -1.1Q13.5 -1.3 13.5 -1.5V-1.5Q13.5 -1.7 13.3 -1.9Q13.1 -2.0 12.7 -2.1L11.8 -2.3Q11.3 -2.4 11.0 -2.6Q10.7 -2.8 10.5 -3.1Q10.3 -3.4 10.3 -3.8V-3.8Q10.3 -4.3 10.6 -4.7Q10.9 -5.0 11.3 -5.2Q11.8 -5.4 12.4 -5.4Q13.1 -5.4 13.5 -5.2Q14.0 -5.0 14.3 -4.7Q14.5 -4.4 14.6 -3.9V-3.9H13.5L13.5 -3.9Q13.4 -4.2 13.1 -4.4Q12.9 -4.6 12.4 -4.6Q12.2 -4.6 11.9 -4.5Q11.7 -4.4 11.6 -4.2Q11.5 -4.1 11.5 -3.9V-3.9Q11.5 -3.7 11.6 -3.6Q11.6 -3.5 11.8 -3.4Q12.0 -3.3 12.3 -3.2L13.1 -3.0Q13.7 -2.9 14.0 -2.7Q14.3 -2.5 14.5 -2.3Q14.7 -2.0 14.7 -1.6V-1.6Q14.7 -1.1 14.4 -0.7Q14.1 -0.3 13.6 -0.1Q13.1 0.1 12.4 0.1Z M16.2 0.0V-7.4H17.3V0.0ZM19.5 0.0 17.7 -2.4 18.5 -3.2 20.9 0.0ZM17.2 -1.8 17.2 -3.1H17.4L19.4 -5.3H20.8L18.4 -2.9L17.9 -2.5Z M22.1 0.0V-5.3H23.2V0.0ZM22.7 -6.2Q22.4 -6.2 22.2 -6.4Q22.0 -6.6 22.0 -6.9Q22.0 -7.2 22.2 -7.4Q22.4 -7.6 22.7 -7.6Q22.9 -7.6 23.1 -7.4Q23.4 -7.2 23.4 -6.9Q23.4 -6.6 23.1 -6.4Q22.9 -6.2 22.7 -6.2Z M25.0 0.0V-7.4H26.1V0.0Z M27.9 0.0V-7.4H29.1V0.0Z M32.8 0.1Q32.2 0.1 31.7 -0.1Q31.2 -0.3 30.9 -0.6Q30.6 -1.0 30.6 -1.4L30.6 -1.4H31.7L31.7 -1.4Q31.8 -1.1 32.1 -0.9Q32.4 -0.8 32.9 -0.8Q33.2 -0.8 33.4 -0.9Q33.6 -0.9 33.8 -1.1Q33.9 -1.3 33.9 -1.5V-1.5Q33.9 -1.7 33.7 -1.9Q33.5 -2.0 33.1 -2.1L32.2 -2.3Q31.7 -2.4 31.4 -2.6Q31.1 -2.8 30.9 -3.1Q30.7 -3.4 30.7 -3.8V-3.8Q30.7 -4.3 31.0 -4.7Q31.3 -5.0 31.7 -5.2Q32.2 -5.4 32.8 -5.4Q33.5 -5.4 33.9 -5.2Q34.4 -5.0 34.7 -4.7Q34.9 -4.4 35.0 -3.9V-3.9H33.9L33.9 -3.9Q33.8 -4.2 33.5 -4.4Q33.3 -4.6 32.8 -4.6Q32.6 -4.6 32.3 -4.5Q32.1 -4.4 32.0 -4.2Q31.9 -4.1 31.9 -3.9V-3.9Q31.9 -3.7 32.0 -3.6Q32.0 -3.5 32.2 -3.4Q32.4 -3.3 32.7 -3.2L33.5 -3.0Q34.1 -2.9 34.4 -2.7Q34.7 -2.5 34.9 -2.3Q35.1 -2.0 35.1 -1.6V-1.6Q35.1 -1.1 34.8 -0.7Q34.5 -0.3 34.0 -0.1Q33.5 0.1 32.8 0.1Z"/></g>
</svg>