<svg xmlns="http://www.w3.org/2000/svg" viewBox="0 0 470 152" width="470" height="152" role="img" aria-label="obsidian-vault-mcp — Obsidian MCP that survives iCloud — detects dataless notes instead of hanging on them.">
  <rect x="0.75" y="0.75" width="468" height="150" rx="12" fill="#0D1117" stroke="#1F2937" stroke-width="1.5"/>
  <rect x="0.75" y="0.75" width="4" height="150" rx="2" fill="#0D9488"/>
  <circle cx="30" cy="41" r="5.5" fill="none" stroke="#0D9488" stroke-width="2"/>
  <g transform="translate(46,46)" fill="#F8F9FA"><path d="M5.0 0.2Q3.7 0.2 2.7 -0.4Q1.7 -0.9 1.2 -1.9Q0.7 -3.0 0.7 -4.4V-4.4Q0.7 -5.8 1.2 -6.8Q1.7 -7.9 2.7 -8.4Q3.7 -9.0 5.0 -9.0Q6.3 -9.0 7.3 -8.4Q8.2 -7.9 8.8 -6.8Q9.3 -5.8 9.3 -4.4V-4.4Q9.3 -3.0 8.8 -1.9Q8.2 -0.9 7.3 -0.4Q6.3 0.2 5.0 0.2ZM5.0 -1.6Q5.6 -1.6 6.1 -1.9Q6.5 -2.2 6.8 -2.9Q7.0 -3.5 7.0 -4.4V-4.4Q7.0 -5.3 6.8 -5.9Q6.5 -6.5 6.1 -6.9Q5.6 -7.2 5.0 -7.2Q4.4 -7.2 3.9 -6.9Q3.4 -6.5 3.2 -5.9Q3.0 -5.3 3.0 -4.4V-4.4Q3.0 -3.5 3.2 -2.9Q3.4 -2.2 3.9 -1.9Q4.3 -1.6 5.0 -1.6Z M16.3 0.2Q15.6 0.2 15.1 -0.0Q14.6 -0.2 14.2 -0.6Q13.8 -0.9 13.6 -1.4H13.5V0.0H11.2V-12.1H13.5V-7.4H13.6Q13.8 -7.9 14.2 -8.2Q14.6 -8.6 15.1 -8.7Q15.6 -8.9 16.3 -8.9Q17.4 -8.9 18.2 -8.4Q19.0 -7.8 19.4 -6.8Q19.8 -5.8 19.8 -4.4V-4.4Q19.8 -3.0 19.4 -2.0Q19.0 -0.9 18.2 -0.4Q17.4 0.2 16.3 0.2ZM15.5 -1.7Q16.2 -1.7 16.6 -2.0Q17.1 -2.4 17.3 -3.0Q17.6 -3.6 17.6 -4.4V-4.4Q17.6 -5.2 17.3 -5.8Q17.1 -6.4 16.6 -6.8Q16.2 -7.1 15.5 -7.1Q14.9 -7.1 14.4 -6.8Q14.0 -6.4 13.7 -5.8Q13.5 -5.2 13.5 -4.4V-4.4Q13.5 -3.6 13.7 -3.0Q14.0 -2.4 14.4 -2.0Q14.9 -1.7 15.5 -1.7Z M25.2 0.2Q24.0 0.2 23.2 -0.1Q22.3 -0.5 21.9 -1.1Q21.4 -1.7 21.3 -2.4L21.3 -2.5H23.5L23.5 -2.4Q23.7 -2.0 24.1 -1.7Q24.5 -1.4 25.2 -1.4Q25.7 -1.4 26.0 -1.5Q26.4 -1.7 26.6 -1.9Q26.8 -2.1 26.8 -2.4V-2.4Q26.8 -2.8 26.5 -3.0Q26.2 -3.3 25.5 -3.4L24.0 -3.7Q23.2 -3.9 22.6 -4.3Q22.1 -4.6 21.8 -5.1Q21.5 -5.6 21.5 -6.2V-6.2Q21.5 -7.1 22.0 -7.7Q22.4 -8.3 23.3 -8.6Q24.1 -9.0 25.1 -9.0Q26.3 -9.0 27.1 -8.6Q27.9 -8.3 28.3 -7.7Q28.7 -7.1 28.8 -6.4L28.8 -6.3H26.7L26.7 -6.4Q26.6 -6.8 26.2 -7.1Q25.8 -7.4 25.1 -7.4Q24.7 -7.4 24.4 -7.3Q24.1 -7.1 23.9 -6.9Q23.7 -6.7 23.7 -6.4V-6.4Q23.7 -6.1 23.8 -5.9Q24.0 -5.8 24.2 -5.6Q24.5 -5.5 25.0 -5.4L26.4 -5.1Q27.3 -4.9 27.9 -4.6Q28.4 -4.2 28.7 -3.8Q29.0 -3.3 29.0 -2.7V-2.7Q29.0 -1.8 28.5 -1.2Q28.0 -0.5 27.1 -0.2Q26.3 0.2 25.2 0.2Z M30.9 0.0V-8.8H33.1V0.0ZM32.0 -10.1Q31.5 -10.1 31.1 -10.5Q30.7 -10.9 30.7 -11.4Q30.7 -11.9 31.1 -12.3Q31.5 -12.6 32.0 -12.6Q32.5 -12.6 32.9 -12.3Q33.3 -11.9 33.3 -11.4Q33.3 -10.9 32.9 -10.5Q32.5 -10.1 32.0 -10.1Z M38.6 0.2Q37.5 0.2 36.7 -0.4Q35.9 -0.9 35.5 -2.0Q35.0 -3.0 35.0 -4.4V-4.4Q35.0 -5.8 35.5 -6.8Q35.9 -7.8 36.7 -8.4Q37.5 -8.9 38.6 -8.9Q39.2 -8.9 39.7 -8.7Q40.3 -8.6 40.7 -8.2Q41.0 -7.9 41.3 -7.4H41.4V-12.1H43.6V0.0H41.4V-1.4H41.3Q41.0 -0.9 40.7 -0.6Q40.3 -0.2 39.8 -0.0Q39.2 0.2 38.6 0.2ZM39.3 -1.7Q40.0 -1.7 40.4 -2.0Q40.9 -2.4 41.2 -3.0Q41.4 -3.6 41.4 -4.4V-4.4Q41.4 -5.2 41.2 -5.8Q40.9 -6.4 40.4 -6.8Q40.0 -7.1 39.3 -7.1Q38.7 -7.1 38.3 -6.8Q37.8 -6.4 37.5 -5.8Q37.3 -5.2 37.3 -4.4V-4.4Q37.3 -3.6 37.5 -3.0Q37.8 -2.4 38.3 -2.0Q38.7 -1.7 39.3 -1.7Z M46.0 0.0V-8.8H48.2V0.0ZM47.1 -10.1Q46.6 -10.1 46.2 -10.5Q45.9 -10.9 45.9 -11.4Q45.9 -11.9 46.2 -12.3Q46.6 -12.6 47.1 -12.6Q47.7 -12.6 48.0 -12.3Q48.4 -11.9 48.4 -11.4Q48.4 -10.9 48.0 -10.5Q47.7 -10.1 47.1 -10.1Z M53.0 0.1Q52.2 0.1 51.5 -0.2Q50.9 -0.5 50.5 -1.1Q50.1 -1.7 50.1 -2.5V-2.5Q50.1 -3.3 50.5 -3.9Q50.9 -4.4 51.7 -4.8Q52.4 -5.1 53.5 -5.1L56.8 -5.3V-3.9L53.8 -3.8Q53.1 -3.7 52.7 -3.4Q52.3 -3.1 52.3 -2.6V-2.6Q52.3 -2.1 52.7 -1.8Q53.1 -1.5 53.7 -1.5Q54.3 -1.5 54.7 -1.7Q55.2 -2.0 55.4 -2.3Q55.7 -2.7 55.7 -3.2V-6.0Q55.7 -6.6 55.3 -6.9Q54.9 -7.2 54.1 -7.2Q53.5 -7.2 53.1 -7.0Q52.7 -6.8 52.5 -6.4L52.5 -6.3H50.5L50.5 -6.4Q50.6 -7.2 51.0 -7.7Q51.5 -8.3 52.3 -8.6Q53.2 -9.0 54.3 -9.0Q55.4 -9.0 56.2 -8.6Q57.0 -8.3 57.5 -7.6Q57.9 -6.9 57.9 -6.0V0.0H55.7V-1.2H55.6Q55.3 -0.8 54.9 -0.5Q54.6 -0.2 54.1 -0.0Q53.6 0.1 53.0 0.1Z M60.1 0.0V-8.8H62.4V-7.4H62.5Q62.8 -8.1 63.4 -8.6Q64.1 -9.0 65.0 -9.0Q66.5 -9.0 67.3 -8.1Q68.1 -7.2 68.1 -5.7V0.0H65.8V-5.2Q65.8 -6.1 65.4 -6.6Q65.0 -7.1 64.2 -7.1Q63.6 -7.1 63.2 -6.9Q62.8 -6.6 62.6 -6.2Q62.4 -5.7 62.4 -5.1V0.0Z M70.4 -3.7V-5.7H75.7V-3.7Z M80.5 0.0 77.4 -8.8H79.8L81.7 -2.1H81.8L83.7 -8.8H86.0L83.0 0.0Z M90.0 0.1Q89.2 0.1 88.5 -0.2Q87.9 -0.5 87.5 -1.1Q87.1 -1.7 87.1 -2.5V-2.5Q87.1 -3.3 87.5 -3.9Q87.9 -4.4 88.7 -4.8Q89.4 -5.1 90.5 -5.1L93.8 -5.3V-3.9L90.9 -3.8Q90.1 -3.7 89.7 -3.4Q89.3 -3.1 89.3 -2.6V-2.6Q89.3 -2.1 89.7 -1.8Q90.1 -1.5 90.8 -1.5Q91.3 -1.5 91.8 -1.7Q92.2 -2.0 92.5 -2.3Q92.7 -2.7 92.7 -3.2V-6.0Q92.7 -6.6 92.3 -6.9Q91.9 -7.2 91.2 -7.2Q90.5 -7.2 90.1 -7.0Q89.7 -6.8 89.6 -6.4L89.6 -6.3H87.5L87.5 -6.4Q87.6 -7.2 88.1 -7.7Q88.6 -8.3 89.4 -8.6Q90.2 -9.0 91.3 -9.0Q92.4 -9.0 93.3 -8.6Q94.1 -8.3 94.5 -7.6Q94.9 -6.9 94.9 -6.0V0.0H92.7V-1.2H92.6Q92.4 -0.8 92.0 -0.5Q91.6 -0.2 91.1 -0.0Q90.6 0.1 90.0 0.1Z M100.1 0.2Q99.1 0.2 98.4 -0.2Q97.8 -0.6 97.4 -1.3Q97.1 -2.1 97.1 -3.1V-8.8H99.3V-3.6Q99.3 -2.7 99.7 -2.2Q100.1 -1.7 101.0 -1.7Q101.4 -1.7 101.7 -1.8Q102.1 -2.0 102.3 -2.2Q102.6 -2.5 102.7 -2.9Q102.8 -3.2 102.8 -3.7V-8.8H105.0V0.0H102.8V-1.4H102.7Q102.5 -0.9 102.1 -0.5Q101.7 -0.2 101.2 -0.0Q100.7 0.2 100.1 0.2Z M107.4 0.0V-12.1H109.6V0.0Z M115.5 0.1Q114.0 0.1 113.3 -0.5Q112.6 -1.1 112.6 -2.4V-7.1H111.3V-8.8H112.6V-10.9H114.9V-8.8H116.6V-7.1H114.9V-2.8Q114.9 -2.2 115.1 -1.9Q115.4 -1.7 116.0 -1.7Q116.2 -1.7 116.3 -1.7Q116.5 -1.7 116.6 -1.7V-0.0Q116.4 0.0 116.1 0.0Q115.9 0.1 115.5 0.1Z M118.7 -3.7V-5.7H124.0V-3.7Z M126.5 0.0V-8.8H128.7V-7.4H128.8Q129.1 -8.1 129.7 -8.6Q130.4 -9.0 131.2 -9.0Q131.8 -9.0 132.3 -8.8Q132.8 -8.6 133.1 -8.2Q133.5 -7.8 133.7 -7.3H133.8Q134.0 -7.8 134.4 -8.2Q134.8 -8.6 135.3 -8.8Q135.8 -9.0 136.5 -9.0Q137.3 -9.0 138.0 -8.6Q138.6 -8.3 139.0 -7.6Q139.3 -6.9 139.3 -6.0V0.0H137.1V-5.5Q137.1 -6.0 136.9 -6.4Q136.7 -6.7 136.4 -6.9Q136.1 -7.1 135.6 -7.1Q135.1 -7.1 134.7 -6.9Q134.4 -6.7 134.2 -6.3Q134.0 -5.9 134.0 -5.4V0.0H131.8V-5.6Q131.8 -6.1 131.6 -6.4Q131.4 -6.8 131.1 -6.9Q130.7 -7.1 130.3 -7.1Q129.8 -7.1 129.5 -6.9Q129.1 -6.6 128.9 -6.2Q128.7 -5.8 128.7 -5.3V0.0Z M145.4 0.2Q144.0 0.2 143.1 -0.4Q142.1 -0.9 141.6 -1.9Q141.1 -3.0 141.1 -4.4V-4.4Q141.1 -5.9 141.6 -6.9Q142.1 -7.9 143.1 -8.4Q144.0 -9.0 145.4 -9.0Q146.5 -9.0 147.4 -8.6Q148.2 -8.2 148.7 -7.4Q149.2 -6.7 149.3 -5.8L149.3 -5.7H147.2L147.2 -5.8Q147.1 -6.4 146.6 -6.8Q146.2 -7.2 145.4 -7.2Q144.8 -7.2 144.3 -6.9Q143.9 -6.5 143.6 -5.9Q143.4 -5.3 143.4 -4.4V-4.4Q143.4 -3.5 143.6 -2.9Q143.9 -2.2 144.3 -1.9Q144.8 -1.6 145.4 -1.6Q146.1 -1.6 146.6 -1.9Q147.0 -2.3 147.2 -3.0L147.2 -3.0L149.3 -3.0L149.3 -3.0Q149.2 -2.0 148.7 -1.3Q148.2 -0.6 147.4 -0.2Q146.5 0.2 145.4 0.2Z M151.1 2.9V-8.8H153.3V-7.4H153.4Q153.7 -7.9 154.1 -8.2Q154.4 -8.6 155.0 -8.8Q155.5 -8.9 156.1 -8.9Q157.2 -8.9 158.0 -8.4Q158.8 -7.8 159.2 -6.8Q159.7 -5.8 159.7 -4.4V-4.4Q159.7 -3.0 159.2 -2.0Q158.8 -0.9 158.0 -0.4Q157.2 0.2 156.1 0.2Q155.5 0.2 155.0 -0.0Q154.4 -0.2 154.1 -0.6Q153.7 -0.9 153.4 -1.4H153.3V2.9ZM155.4 -1.7Q156.0 -1.7 156.5 -2.0Q156.9 -2.4 157.2 -3.0Q157.4 -3.6 157.4 -4.4V-4.4Q157.4 -5.2 157.2 -5.8Q156.9 -6.4 156.5 -6.8Q156.0 -7.1 155.4 -7.1Q154.7 -7.1 154.3 -6.8Q153.8 -6.4 153.5 -5.8Q153.3 -5.2 153.3 -4.4V-4.4Q153.3 -3.6 153.5 -3.0Q153.8 -2.4 154.3 -2.0Q154.7 -1.7 155.4 -1.7Z"/></g>
  <g transform="translate(46,74)" fill="#9CA3AF"><path d="M4.4 0.2Q3.3 0.2 2.4 -0.3Q1.6 -0.8 1.1 -1.8Q0.7 -2.8 0.7 -4.0V-4.1Q0.7 -5.4 1.1 -6.3Q1.6 -7.3 2.4 -7.8Q3.3 -8.3 4.4 -8.3Q5.6 -8.3 6.4 -7.8Q7.3 -7.3 7.7 -6.3Q8.2 -5.4 8.2 -4.1V-4.0Q8.2 -2.8 7.7 -1.8Q7.3 -0.9 6.4 -0.3Q5.6 0.2 4.4 0.2ZM4.4 -0.8Q5.2 -0.8 5.8 -1.2Q6.4 -1.6 6.7 -2.3Q7.0 -3.1 7.0 -4.0V-4.1Q7.0 -5.0 6.7 -5.8Q6.4 -6.5 5.8 -6.9Q5.2 -7.3 4.4 -7.3Q3.6 -7.3 3.1 -6.9Q2.5 -6.5 2.2 -5.8Q1.8 -5.0 1.8 -4.1V-4.0Q1.8 -3.1 2.2 -2.3Q2.5 -1.6 3.0 -1.2Q3.6 -0.8 4.4 -0.8Z M13.0 0.1Q12.6 0.1 12.2 -0.0Q11.9 -0.2 11.6 -0.4Q11.3 -0.6 11.1 -1.0H11.1V0.0H10.0V-8.5H11.1V-5.1H11.1Q11.3 -5.4 11.6 -5.7Q11.9 -5.9 12.2 -6.0Q12.6 -6.2 13.0 -6.2Q13.8 -6.2 14.4 -5.8Q14.9 -5.4 15.2 -4.7Q15.6 -4.0 15.6 -3.0V-3.0Q15.6 -2.1 15.2 -1.4Q14.9 -0.7 14.4 -0.3Q13.8 0.1 13.0 0.1ZM12.7 -0.8Q13.3 -0.8 13.7 -1.1Q14.0 -1.4 14.2 -1.9Q14.4 -2.3 14.4 -3.0V-3.0Q14.4 -3.7 14.2 -4.2Q14.0 -4.7 13.7 -5.0Q13.3 -5.2 12.7 -5.2Q12.2 -5.2 11.8 -5.0Q11.4 -4.7 11.2 -4.2Q11.0 -3.7 11.0 -3.0V-3.0Q11.0 -2.4 11.2 -1.9Q11.4 -1.4 11.8 -1.1Q12.2 -0.8 12.7 -0.8Z M19.3 0.1Q18.6 0.1 18.1 -0.1Q17.5 -0.3 17.2 -0.7Q16.9 -1.1 16.9 -1.6L16.9 -1.6H18.0L18.0 -1.6Q18.1 -1.2 18.4 -1.0Q18.8 -0.8 19.3 -0.8Q19.7 -0.8 20.0 -0.9Q20.3 -1.0 20.5 -1.2Q20.7 -1.4 20.7 -1.7V-1.7Q20.7 -2.0 20.4 -2.2Q20.2 -2.4 19.6 -2.5L18.7 -2.7Q18.1 -2.9 17.8 -3.1Q17.4 -3.3 17.2 -3.6Q17.0 -3.9 17.0 -4.4V-4.4Q17.0 -4.9 17.3 -5.3Q17.6 -5.7 18.1 -5.9Q18.7 -6.2 19.3 -6.2Q20.0 -6.2 20.5 -6.0Q21.0 -5.8 21.3 -5.4Q21.6 -5.0 21.7 -4.5L21.7 -4.5H20.6L20.6 -4.5Q20.5 -4.9 20.2 -5.1Q19.9 -5.3 19.3 -5.3Q19.0 -5.3 18.7 -5.2Q18.4 -5.1 18.3 -4.9Q18.1 -4.7 18.1 -4.4V-4.4Q18.1 -4.2 18.2 -4.1Q18.3 -3.9 18.6 -3.8Q18.8 -3.7 19.1 -3.6L20.1 -3.4Q20.6 -3.3 21.0 -3.0Q21.4 -2.8 21.6 -2.5Q21.8 -2.2 21.8 -1.8V-1.7Q21.8 -1.2 21.4 -0.8Q21.1 -0.4 20.6 -0.1Q20.0 0.1 19.3 0.1Z M23.4 0.0V-6.1H24.5V0.0ZM24.0 -7.2Q23.7 -7.2 23.5 -7.4Q23.2 -7.6 23.2 -7.9Q23.2 -8.2 23.5 -8.4Q23.7 -8.6 24.0 -8.6Q24.3 -8.6 24.5 -8.4Q24.7 -8.2 24.7 -7.9Q24.7 -7.6 24.5 -7.4Q24.3 -7.2 24.0 -7.2Z M28.7 0.1Q27.9 0.1 27.3 -0.3Q26.8 -0.7 26.4 -1.4Q26.1 -2.1 26.1 -3.0V-3.0Q26.1 -4.0 26.4 -4.7Q26.8 -5.4 27.3 -5.8Q27.9 -6.2 28.7 -6.2Q29.1 -6.2 29.4 -6.0Q29.8 -5.9 30.1 -5.7Q30.4 -5.4 30.5 -5.1H30.6V-8.5H31.7V0.0H30.6V-1.0H30.5Q30.4 -0.6 30.1 -0.4Q29.8 -0.2 29.4 -0.0Q29.1 0.1 28.7 0.1ZM28.9 -0.8Q29.5 -0.8 29.9 -1.1Q30.2 -1.4 30.4 -1.9Q30.6 -2.4 30.6 -3.0V-3.0Q30.6 -3.7 30.4 -4.2Q30.2 -4.7 29.9 -5.0Q29.5 -5.2 28.9 -5.2Q28.4 -5.2 28.0 -5.0Q27.6 -4.7 27.4 -4.2Q27.2 -3.7 27.2 -3.0V-3.0Q27.2 -2.3 27.4 -1.9Q27.6 -1.4 28.0 -1.1Q28.4 -0.8 28.9 -0.8Z M33.7 0.0V-6.1H34.8V0.0ZM34.3 -7.2Q34.0 -7.2 33.8 -7.4Q33.5 -7.6 33.5 -7.9Q33.5 -8.2 33.8 -8.4Q34.0 -8.6 34.3 -8.6Q34.6 -8.6 34.8 -8.4Q35.0 -8.2 35.0 -7.9Q35.0 -7.6 34.8 -7.4Q34.6 -7.2 34.3 -7.2Z M38.4 0.1Q37.8 0.1 37.4 -0.1Q36.9 -0.3 36.6 -0.7Q36.4 -1.1 36.4 -1.7V-1.7Q36.4 -2.3 36.6 -2.6Q36.9 -3.0 37.4 -3.2Q37.9 -3.5 38.6 -3.5L40.9 -3.6V-2.8L38.8 -2.7Q38.1 -2.7 37.8 -2.4Q37.5 -2.2 37.5 -1.7V-1.7Q37.5 -1.3 37.8 -1.0Q38.1 -0.8 38.7 -0.8Q39.1 -0.8 39.5 -1.0Q39.9 -1.2 40.1 -1.5Q40.3 -1.8 40.3 -2.3V-4.1Q40.3 -4.7 40.0 -5.0Q39.7 -5.2 39.0 -5.2Q38.5 -5.2 38.1 -5.1Q37.8 -4.9 37.7 -4.5L37.7 -4.5H36.6L36.6 -4.5Q36.7 -5.0 37.0 -5.4Q37.3 -5.8 37.9 -6.0Q38.4 -6.2 39.0 -6.2Q39.8 -6.2 40.3 -5.9Q40.8 -5.7 41.1 -5.2Q41.4 -4.8 41.4 -4.2V0.0H40.3V-0.9H40.2Q40.0 -0.6 39.8 -0.3Q39.5 -0.1 39.2 -0.0Q38.8 0.1 38.4 0.1Z M43.3 0.0V-6.1H44.4V-5.2H44.4Q44.7 -5.6 45.1 -5.9Q45.5 -6.2 46.2 -6.2Q47.2 -6.2 47.8 -5.6Q48.3 -5.0 48.3 -3.9V0.0H47.2V-3.7Q47.2 -4.5 46.9 -4.8Q46.6 -5.2 45.9 -5.2Q45.4 -5.2 45.1 -5.0Q44.7 -4.8 44.5 -4.5Q44.4 -4.1 44.4 -3.6V0.0Z M53.6 0.0V-8.1H54.9L57.6 -1.5H57.7L60.4 -8.1H61.7V0.0H60.6V-6.1H60.1L61.3 -7.9L58.1 0.0H57.2L54.0 -7.9L55.2 -6.1H54.7V0.0Z M67.2 0.2Q66.0 0.2 65.2 -0.3Q64.4 -0.8 64.0 -1.8Q63.5 -2.7 63.5 -4.0V-4.1Q63.5 -5.4 64.0 -6.3Q64.4 -7.3 65.2 -7.8Q66.0 -8.3 67.2 -8.3Q68.0 -8.3 68.7 -8.0Q69.4 -7.6 69.9 -7.0Q70.4 -6.4 70.5 -5.6L70.5 -5.6H69.3L69.3 -5.6Q69.2 -6.1 68.9 -6.5Q68.6 -6.9 68.1 -7.1Q67.7 -7.3 67.2 -7.3Q66.4 -7.3 65.8 -6.9Q65.3 -6.5 65.0 -5.8Q64.7 -5.0 64.7 -4.1V-4.0Q64.7 -3.1 65.0 -2.3Q65.3 -1.6 65.8 -1.2Q66.4 -0.8 67.2 -0.8Q67.7 -0.8 68.2 -1.0Q68.6 -1.2 68.9 -1.5Q69.2 -1.9 69.3 -2.3L69.3 -2.3H70.5L70.5 -2.3Q70.3 -1.6 69.9 -1.0Q69.4 -0.4 68.7 -0.1Q68.0 0.2 67.2 0.2Z M72.8 -2.8V-3.8H75.1Q75.9 -3.8 76.4 -4.2Q76.9 -4.7 76.9 -5.5V-5.5Q76.9 -6.3 76.4 -6.7Q75.9 -7.1 75.1 -7.1H72.8V-8.1H75.4Q76.1 -8.1 76.7 -7.8Q77.3 -7.4 77.7 -6.9Q78.0 -6.3 78.0 -5.5V-5.5Q78.0 -4.7 77.7 -4.1Q77.3 -3.5 76.7 -3.2Q76.1 -2.8 75.4 -2.8ZM72.3 0.0V-8.1H73.4V0.0Z M85.2 0.0Q84.2 0.0 83.8 -0.3Q83.3 -0.7 83.3 -1.6V-5.2H82.4V-6.1H83.3V-7.6H84.5V-6.1H85.8V-5.2H84.5V-1.8Q84.5 -1.3 84.7 -1.1Q84.9 -0.9 85.3 -0.9Q85.4 -0.9 85.5 -0.9Q85.6 -0.9 85.8 -0.9V-0.0Q85.6 0.0 85.5 0.0Q85.3 0.0 85.2 0.0Z M87.4 0.0V-8.5H88.5V-5.1H88.6Q88.8 -5.6 89.2 -5.9Q89.7 -6.2 90.3 -6.2Q91.0 -6.2 91.5 -5.9Q92.0 -5.6 92.2 -5.1Q92.4 -4.6 92.4 -3.9V0.0H91.4V-3.7Q91.4 -4.5 91.0 -4.8Q90.7 -5.2 90.0 -5.2Q89.5 -5.2 89.2 -5.0Q88.8 -4.8 88.7 -4.5Q88.5 -4.1 88.5 -3.6V0.0Z M96.0 0.1Q95.4 0.1 94.9 -0.1Q94.5 -0.3 94.2 -0.7Q94.0 -1.1 94.0 -1.7V-1.7Q94.0 -2.3 94.2 -2.6Q94.5 -3.0 95.0 -3.2Q95.5 -3.5 96.2 -3.5L98.4 -3.6V-2.8L96.3 -2.7Q95.7 -2.7 95.4 -2.4Q95.1 -2.2 95.1 -1.7V-1.7Q95.1 -1.3 95.4 -1.0Q95.7 -0.8 96.2 -0.8Q96.7 -0.8 97.1 -1.0Q97.5 -1.2 97.7 -1.5Q97.9 -1.8 97.9 -2.3V-4.1Q97.9 -4.7 97.6 -5.0Q97.2 -5.2 96.6 -5.2Q96.1 -5.2 95.7 -5.1Q95.4 -4.9 95.3 -4.5L95.3 -4.5H94.2L94.2 -4.5Q94.3 -5.0 94.6 -5.4Q94.9 -5.8 95.4 -6.0Q96.0 -6.2 96.6 -6.2Q97.4 -6.2 97.9 -5.9Q98.4 -5.7 98.7 -5.2Q99.0 -4.8 99.0 -4.2V0.0H97.9V-0.9H97.8Q97.6 -0.6 97.3 -0.3Q97.1 -0.1 96.7 -0.0Q96.4 0.1 96.0 0.1Z M103.1 0.0Q102.1 0.0 101.7 -0.3Q101.2 -0.7 101.2 -1.6V-5.2H100.3V-6.1H101.2V-7.6H102.4V-6.1H103.7V-5.2H102.4V-1.8Q102.4 -1.3 102.6 -1.1Q102.8 -0.9 103.2 -0.9Q103.3 -0.9 103.4 -0.9Q103.5 -0.9 103.7 -0.9V-0.0Q103.5 0.0 103.4 0.0Q103.2 0.0 103.1 0.0Z M110.7 0.1Q110.0 0.1 109.4 -0.1Q108.9 -0.3 108.6 -0.7Q108.3 -1.1 108.2 -1.6L108.2 -1.6H109.3L109.3 -1.6Q109.5 -1.2 109.8 -1.0Q110.1 -0.8 110.7 -0.8Q111.1 -0.8 111.4 -0.9Q111.7 -1.0 111.9 -1.2Q112.0 -1.4 112.0 -1.7V-1.7Q112.0 -2.0 111.8 -2.2Q111.6 -2.4 111.0 -2.5L110.1 -2.7Q109.5 -2.9 109.1 -3.1Q108.8 -3.3 108.6 -3.6Q108.4 -3.9 108.4 -4.4V-4.4Q108.4 -4.9 108.7 -5.3Q109.0 -5.7 109.5 -5.9Q110.0 -6.2 110.7 -6.2Q111.4 -6.2 111.9 -6.0Q112.4 -5.8 112.7 -5.4Q113.0 -5.0 113.0 -4.5L113.0 -4.5H112.0L112.0 -4.5Q111.9 -4.9 111.6 -5.1Q111.2 -5.3 110.7 -5.3Q110.4 -5.3 110.1 -5.2Q109.8 -5.1 109.7 -4.9Q109.5 -4.7 109.5 -4.4V-4.4Q109.5 -4.2 109.6 -4.1Q109.7 -3.9 109.9 -3.8Q110.1 -3.7 110.5 -3.6L111.4 -3.4Q112.0 -3.3 112.4 -3.0Q112.8 -2.8 113.0 -2.5Q113.1 -2.2 113.1 -1.8V-1.7Q113.1 -1.2 112.8 -0.8Q112.5 -0.4 111.9 -0.1Q111.4 0.1 110.7 0.1Z M116.8 0.1Q116.1 0.1 115.6 -0.2Q115.2 -0.4 114.9 -0.9Q114.7 -1.4 114.7 -2.1V-6.1H115.8V-2.4Q115.8 -1.6 116.1 -1.2Q116.4 -0.8 117.1 -0.8Q117.5 -0.8 117.8 -1.0Q118.1 -1.1 118.3 -1.3Q118.5 -1.5 118.6 -1.8Q118.7 -2.1 118.7 -2.5V-6.1H119.8V0.0H118.7V-0.9H118.6Q118.4 -0.6 118.2 -0.4Q117.9 -0.1 117.6 -0.0Q117.2 0.1 116.8 0.1Z M121.7 0.0V-6.1H122.8V-5.2H122.8Q123.0 -5.6 123.4 -5.9Q123.8 -6.2 124.4 -6.2Q124.6 -6.2 124.7 -6.2Q124.9 -6.1 124.9 -6.1V-5.1Q124.8 -5.1 124.6 -5.1Q124.5 -5.2 124.3 -5.2Q123.9 -5.2 123.5 -5.0Q123.2 -4.8 123.0 -4.5Q122.8 -4.1 122.8 -3.7V0.0Z M128.0 0.0 125.7 -6.1H126.9L128.5 -1.1H128.6L130.2 -6.1H131.3L129.1 0.0Z M132.7 0.0V-6.1H133.8V0.0ZM133.3 -7.2Q133.0 -7.2 132.8 -7.4Q132.6 -7.6 132.6 -7.9Q132.6 -8.2 132.8 -8.4Q133.0 -8.6 133.3 -8.6Q133.6 -8.6 133.8 -8.4Q134.0 -8.2 134.0 -7.9Q134.0 -7.6 133.8 -7.4Q133.6 -7.2 133.3 -7.2Z M137.4 0.0 135.2 -6.1H136.4L138.0 -1.1H138.1L139.6 -6.1H140.8L138.6 0.0Z M144.7 0.1Q143.8 0.1 143.2 -0.3Q142.5 -0.7 142.2 -1.4Q141.9 -2.1 141.9 -3.0V-3.0Q141.9 -4.0 142.2 -4.7Q142.5 -5.4 143.2 -5.8Q143.8 -6.2 144.6 -6.2Q145.5 -6.2 146.1 -5.8Q146.7 -5.4 147.0 -4.7Q147.3 -4.0 147.3 -3.1V-2.7H142.4V-3.6H146.8L146.2 -2.8V-3.2Q146.2 -3.9 146.0 -4.4Q145.8 -4.8 145.5 -5.0Q145.1 -5.2 144.6 -5.2Q144.1 -5.2 143.8 -5.0Q143.4 -4.8 143.2 -4.3Q143.0 -3.9 143.0 -3.2V-2.8Q143.0 -2.2 143.2 -1.7Q143.4 -1.3 143.8 -1.1Q144.2 -0.8 144.7 -0.8Q145.1 -0.8 145.4 -0.9Q145.7 -1.0 145.9 -1.2Q146.1 -1.4 146.1 -1.6L146.2 -1.6L147.2 -1.6L147.2 -1.6Q147.2 -1.2 147.0 -1.0Q146.8 -0.7 146.4 -0.4Q146.1 -0.2 145.7 -0.0Q145.2 0.1 144.7 0.1Z M151.1 0.1Q150.4 0.1 149.8 -0.1Q149.3 -0.3 149.0 -0.7Q148.7 -1.1 148.6 -1.6L148.6 -1.6H149.7L149.7 -1.6Q149.8 -1.2 150.2 -1.0Q150.5 -0.8 151.1 -0.8Q151.5 -0.8 151.8 -0.9Q152.1 -1.0 152.3 -1.2Q152.4 -1.4 152.4 -1.7V-1.7Q152.4 -2.0 152.2 -2.2Q151.9 -2.4 151.4 -2.5L150.5 -2.7Q149.9 -2.9 149.5 -3.1Q149.1 -3.3 149.0 -3.6Q148.8 -3.9 148.8 -4.4V-4.4Q148.8 -4.9 149.1 -5.3Q149.4 -5.7 149.9 -5.9Q150.4 -6.2 151.1 -6.2Q151.8 -6.2 152.3 -6.0Q152.8 -5.8 153.1 -5.4Q153.4 -5.0 153.4 -4.5L153.4 -4.5H152.4L152.4 -4.5Q152.3 -4.9 151.9 -5.1Q151.6 -5.3 151.1 -5.3Q150.7 -5.3 150.5 -5.2Q150.2 -5.1 150.0 -4.9Q149.9 -4.7 149.9 -4.4V-4.4Q149.9 -4.2 150.0 -4.1Q150.1 -3.9 150.3 -3.8Q150.5 -3.7 150.9 -3.6L151.8 -3.4Q152.4 -3.3 152.8 -3.0Q153.2 -2.8 153.3 -2.5Q153.5 -2.2 153.5 -1.8V-1.7Q153.5 -1.2 153.2 -0.8Q152.9 -0.4 152.3 -0.1Q151.8 0.1 151.1 0.1Z M158.5 0.0V-6.1H159.6V0.0ZM159.0 -7.2Q158.7 -7.2 158.5 -7.4Q158.3 -7.6 158.3 -7.9Q158.3 -8.2 158.5 -8.4Q158.7 -8.6 159.0 -8.6Q159.3 -8.6 159.5 -8.4Q159.7 -8.2 159.7 -7.9Q159.7 -7.6 159.5 -7.4Q159.3 -7.2 159.0 -7.2Z M164.9 0.2Q163.8 0.2 163.0 -0.3Q162.2 -0.8 161.7 -1.8Q161.3 -2.7 161.3 -4.0V-4.1Q161.3 -5.4 161.7 -6.3Q162.2 -7.3 163.0 -7.8Q163.8 -8.3 164.9 -8.3Q165.8 -8.3 166.5 -8.0Q167.2 -7.6 167.7 -7.0Q168.1 -6.4 168.2 -5.6L168.2 -5.6H167.1L167.1 -5.6Q167.0 -6.1 166.7 -6.5Q166.4 -6.9 165.9 -7.1Q165.5 -7.3 164.9 -7.3Q164.2 -7.3 163.6 -6.9Q163.1 -6.5 162.8 -5.8Q162.5 -5.0 162.5 -4.1V-4.0Q162.5 -3.1 162.8 -2.3Q163.1 -1.6 163.6 -1.2Q164.2 -0.8 164.9 -0.8Q165.5 -0.8 165.9 -1.0Q166.4 -1.2 166.7 -1.5Q167.0 -1.9 167.1 -2.3L167.1 -2.3H168.2L168.2 -2.3Q168.1 -1.6 167.7 -1.0Q167.2 -0.4 166.5 -0.1Q165.8 0.2 164.9 0.2Z M170.0 0.0V-8.5H171.0V0.0Z M175.5 0.1Q174.7 0.1 174.0 -0.3Q173.4 -0.6 173.1 -1.4Q172.7 -2.1 172.7 -3.0V-3.0Q172.7 -4.0 173.1 -4.7Q173.4 -5.4 174.0 -5.8Q174.7 -6.2 175.5 -6.2Q176.4 -6.2 177.1 -5.8Q177.7 -5.4 178.0 -4.7Q178.4 -4.0 178.4 -3.0V-3.0Q178.4 -2.1 178.0 -1.4Q177.7 -0.6 177.1 -0.3Q176.4 0.1 175.5 0.1ZM175.5 -0.8Q176.1 -0.8 176.5 -1.1Q176.9 -1.3 177.1 -1.8Q177.3 -2.3 177.3 -3.0V-3.0Q177.3 -3.7 177.1 -4.2Q176.9 -4.7 176.5 -5.0Q176.1 -5.2 175.5 -5.2Q175.0 -5.2 174.6 -5.0Q174.2 -4.7 174.0 -4.2Q173.8 -3.7 173.8 -3.0V-3.0Q173.8 -2.3 174.0 -1.8Q174.2 -1.3 174.6 -1.1Q175.0 -0.8 175.5 -0.8Z M182.0 0.1Q181.3 0.1 180.9 -0.2Q180.4 -0.4 180.2 -0.9Q179.9 -1.4 179.9 -2.1V-6.1H181.0V-2.4Q181.0 -1.6 181.3 -1.2Q181.6 -0.8 182.3 -0.8Q182.7 -0.8 183.0 -1.0Q183.3 -1.1 183.5 -1.3Q183.7 -1.5 183.8 -1.8Q183.9 -2.1 183.9 -2.5V-6.1H185.0V0.0H183.9V-0.9H183.8Q183.7 -0.6 183.4 -0.4Q183.2 -0.1 182.8 -0.0Q182.5 0.1 182.0 0.1Z M189.1 0.1Q188.4 0.1 187.8 -0.3Q187.2 -0.7 186.9 -1.4Q186.6 -2.1 186.6 -3.0V-3.0Q186.6 -4.0 186.9 -4.7Q187.2 -5.4 187.8 -5.8Q188.4 -6.2 189.1 -6.2Q189.5 -6.2 189.9 -6.0Q190.3 -5.9 190.6 -5.7Q190.8 -5.4 191.0 -5.1H191.1V-8.5H192.2V0.0H191.1V-1.0H191.0Q190.8 -0.6 190.6 -0.4Q190.3 -0.2 189.9 -0.0Q189.6 0.1 189.1 0.1ZM189.4 -0.8Q189.9 -0.8 190.3 -1.1Q190.7 -1.4 190.9 -1.9Q191.1 -2.4 191.1 -3.0V-3.0Q191.1 -3.7 190.9 -4.2Q190.7 -4.7 190.3 -5.0Q189.9 -5.2 189.4 -5.2Q188.9 -5.2 188.5 -5.0Q188.1 -4.7 187.9 -4.2Q187.7 -3.7 187.7 -3.0V-3.0Q187.7 -2.3 187.9 -1.9Q188.1 -1.4 188.5 -1.1Q188.9 -0.8 189.4 -0.8Z M197.0 -2.8V-3.8H206.2V-2.8Z M213.2 0.1Q212.5 0.1 211.9 -0.3Q211.3 -0.7 211.0 -1.4Q210.7 -2.1 210.7 -3.0V-3.0Q210.7 -4.0 211.0 -4.7Q211.3 -5.4 211.9 -5.8Q212.5 -6.2 213.2 -6.2Q213.6 -6.2 214.0 -6.0Q214.4 -5.9 214.7 -5.7Q214.9 -5.4 215.1 -5.1H215.2V-8.5H216.3V0.0H215.2V-1.0H215.1Q214.9 -0.6 214.6 -0.4Q214.4 -0.2 214.0 -0.0Q213.6 0.1 213.2 0.1ZM213.5 -0.8Q214.0 -0.8 214.4 -1.1Q214.8 -1.4 215.0 -1.9Q215.2 -2.4 215.2 -3.0V-3.0Q215.2 -3.7 215.0 -4.2Q214.8 -4.7 214.4 -5.0Q214.0 -5.2 213.5 -5.2Q213.0 -5.2 212.6 -5.0Q212.2 -4.7 212.0 -4.2Q211.8 -3.7 211.8 -3.0V-3.0Q211.8 -2.3 212.0 -1.9Q212.2 -1.4 212.6 -1.1Q213.0 -0.8 213.5 -0.8Z M220.8 0.1Q219.9 0.1 219.3 -0.3Q218.6 -0.7 218.3 -1.4Q217.9 -2.1 217.9 -3.0V-3.0Q217.9 -4.0 218.3 -4.7Q218.6 -5.4 219.2 -5.8Q219.9 -6.2 220.7 -6.2Q221.5 -6.2 222.1 -5.8Q222.7 -5.4 223.1 -4.7Q223.4 -4.0 223.4 -3.1V-2.7H218.5V-3.6H222.8L222.3 -2.8V-3.2Q222.3 -3.9 222.1 -4.4Q221.9 -4.8 221.5 -5.0Q221.2 -5.2 220.7 -5.2Q220.2 -5.2 219.9 -5.0Q219.5 -4.8 219.3 -4.3Q219.1 -3.9 219.1 -3.2V-2.8Q219.1 -2.2 219.3 -1.7Q219.5 -1.3 219.9 -1.1Q220.3 -0.8 220.8 -0.8Q221.2 -0.8 221.5 -0.9Q221.8 -1.0 222.0 -1.2Q222.2 -1.4 222.2 -1.6L222.2 -1.6L223.3 -1.6L223.3 -1.6Q223.2 -1.2 223.0 -1.0Q222.8 -0.7 222.5 -0.4Q222.2 -0.2 221.8 -0.0Q221.3 0.1 220.8 0.1Z M227.2 0.0Q226.2 0.0 225.8 -0.3Q225.4 -0.7 225.4 -1.6V-5.2H224.4V-6.1H225.4V-7.6H226.5V-6.1H227.8V-5.2H226.5V-1.8Q226.5 -1.3 226.7 -1.1Q226.9 -0.9 227.4 -0.9Q227.5 -0.9 227.6 -0.9Q227.7 -0.9 227.8 -0.9V-0.0Q227.7 0.0 227.5 0.0Q227.4 0.0 227.2 0.0Z M231.9 0.1Q231.0 0.1 230.4 -0.3Q229.8 -0.7 229.4 -1.4Q229.1 -2.1 229.1 -3.0V-3.0Q229.1 -4.0 229.4 -4.7Q229.8 -5.4 230.4 -5.8Q231.0 -6.2 231.8 -6.2Q232.7 -6.2 233.3 -5.8Q233.9 -5.4 234.2 -4.7Q234.5 -4.0 234.5 -3.1V-2.7H229.6V-3.6H234.0L233.4 -2.8V-3.2Q233.4 -3.9 233.2 -4.4Q233.0 -4.8 232.7 -5.0Q232.3 -5.2 231.8 -5.2Q231.4 -5.2 231.0 -5.0Q230.6 -4.8 230.4 -4.3Q230.2 -3.9 230.2 -3.2V-2.8Q230.2 -2.2 230.4 -1.7Q230.6 -1.3 231.0 -1.1Q231.4 -0.8 231.9 -0.8Q232.3 -0.8 232.6 -0.9Q232.9 -1.0 233.1 -1.2Q233.3 -1.4 233.4 -1.6L233.4 -1.6L234.5 -1.6L234.4 -1.6Q234.4 -1.2 234.2 -1.0Q234.0 -0.7 233.6 -0.4Q233.3 -0.2 232.9 -0.0Q232.5 0.1 231.9 0.1Z M238.7 0.1Q237.8 0.1 237.2 -0.3Q236.5 -0.7 236.2 -1.4Q235.8 -2.1 235.8 -3.0V-3.1Q235.8 -4.0 236.2 -4.7Q236.5 -5.4 237.1 -5.8Q237.8 -6.2 238.6 -6.2Q239.4 -6.2 239.9 -5.9Q240.5 -5.7 240.8 -5.2Q241.1 -4.8 241.2 -4.2L241.2 -4.2H240.2L240.1 -4.2Q240.0 -4.6 239.7 -4.9Q239.3 -5.2 238.6 -5.2Q238.1 -5.2 237.7 -5.0Q237.4 -4.7 237.2 -4.2Q236.9 -3.7 236.9 -3.1V-3.0Q236.9 -2.4 237.2 -1.9Q237.4 -1.4 237.7 -1.1Q238.1 -0.8 238.6 -0.8Q239.2 -0.8 239.6 -1.1Q240.0 -1.3 240.1 -1.8L240.2 -1.9L241.2 -1.9L241.2 -1.8Q241.1 -1.3 240.8 -0.8Q240.4 -0.4 239.9 -0.1Q239.4 0.1 238.7 0.1Z M245.0 0.0Q244.0 0.0 243.6 -0.3Q243.1 -0.7 243.1 -1.6V-5.2H242.2V-6.1H243.1V-7.6H244.3V-6.1H245.6V-5.2H244.3V-1.8Q244.3 -1.3 244.5 -1.1Q244.7 -0.9 245.1 -0.9Q245.2 -0.9 245.3 -0.9Q245.4 -0.9 245.6 -0.9V-0.0Q245.4 0.0 245.3 0.0Q245.1 0.0 245.0 0.0Z M249.3 0.1Q248.6 0.1 248.0 -0.1Q247.5 -0.3 247.2 -0.7Q246.9 -1.1 246.8 -1.6L246.8 -1.6H247.9L247.9 -1.6Q248.0 -1.2 248.4 -1.0Q248.7 -0.8 249.3 -0.8Q249.7 -0.8 250.0 -0.9Q250.3 -1.0 250.5 -1.2Q250.6 -1.4 250.6 -1.7V-1.7Q250.6 -2.0 250.4 -2.2Q250.2 -2.4 249.6 -2.5L248.7 -2.7Q248.1 -2.9 247.7 -3.1Q247.4 -3.3 247.2 -3.6Q247.0 -3.9 247.0 -4.4V-4.4Q247.0 -4.9 247.3 -5.3Q247.6 -5.7 248.1 -5.9Q248.6 -6.2 249.3 -6.2Q250.0 -6.2 250.5 -6.0Q251.0 -5.8 251.3 -5.4Q251.6 -5.0 251.6 -4.5L251.6 -4.5H250.6L250.6 -4.5Q250.5 -4.9 250.2 -5.1Q249.8 -5.3 249.3 -5.3Q248.9 -5.3 248.7 -5.2Q248.4 -5.1 248.3 -4.9Q248.1 -4.7 248.1 -4.4V-4.4Q248.1 -4.2 248.2 -4.1Q248.3 -3.9 248.5 -3.8Q248.7 -3.7 249.1 -3.6L250.0 -3.4Q250.6 -3.3 251.0 -3.0Q251.4 -2.8 251.6 -2.5Q251.7 -2.2 251.7 -1.8V-1.7Q251.7 -1.2 251.4 -0.8Q251.1 -0.4 250.5 -0.1Q250.0 0.1 249.3 0.1Z"/></g><g transform="translate(46,93)" fill="#9CA3AF"><path d="M3.1 0.1Q2.3 0.1 1.8 -0.3Q1.2 -0.7 0.9 -1.4Q0.6 -2.1 0.6 -3.0V-3.0Q0.6 -4.0 0.9 -4.7Q1.2 -5.4 1.8 -5.8Q2.3 -6.2 3.1 -6.2Q3.5 -6.2 3.9 -6.0Q4.3 -5.9 4.5 -5.7Q4.8 -5.4 5.0 -5.1H5.1V-8.5H6.2V0.0H5.1V-1.0H5.0Q4.8 -0.6 4.5 -0.4Q4.3 -0.2 3.9 -0.0Q3.5 0.1 3.1 0.1ZM3.4 -0.8Q3.9 -0.8 4.3 -1.1Q4.7 -1.4 4.9 -1.9Q5.1 -2.4 5.1 -3.0V-3.0Q5.1 -3.7 4.9 -4.2Q4.7 -4.7 4.3 -5.0Q3.9 -5.2 3.4 -5.2Q2.9 -5.2 2.5 -5.0Q2.1 -4.7 1.9 -4.2Q1.7 -3.7 1.7 -3.0V-3.0Q1.7 -2.3 1.9 -1.9Q2.1 -1.4 2.5 -1.1Q2.9 -0.8 3.4 -0.8Z M9.8 0.1Q9.2 0.1 8.8 -0.1Q8.3 -0.3 8.1 -0.7Q7.8 -1.1 7.8 -1.7V-1.7Q7.8 -2.3 8.0 -2.6Q8.3 -3.0 8.8 -3.2Q9.3 -3.5 10.0 -3.5L12.3 -3.6V-2.8L10.2 -2.7Q9.5 -2.7 9.2 -2.4Q8.9 -2.2 8.9 -1.7V-1.7Q8.9 -1.3 9.2 -1.0Q9.6 -0.8 10.1 -0.8Q10.5 -0.8 10.9 -1.0Q11.3 -1.2 11.5 -1.5Q11.7 -1.8 11.7 -2.3V-4.1Q11.7 -4.7 11.4 -5.0Q11.1 -5.2 10.4 -5.2Q9.9 -5.2 9.5 -5.1Q9.2 -4.9 9.1 -4.5L9.1 -4.5H8.0L8.0 -4.5Q8.1 -5.0 8.4 -5.4Q8.7 -5.8 9.3 -6.0Q9.8 -6.2 10.5 -6.2Q11.2 -6.2 11.7 -5.9Q12.3 -5.7 12.5 -5.2Q12.8 -4.8 12.8 -4.2V0.0H11.7V-0.9H11.6Q11.4 -0.6 11.2 -0.3Q10.9 -0.1 10.6 -0.0Q10.2 0.1 9.8 0.1Z M16.9 0.0Q15.9 0.0 15.5 -0.3Q15.1 -0.7 15.1 -1.6V-5.2H14.1V-6.1H15.1V-7.6H16.2V-6.1H17.5V-5.2H16.2V-1.8Q16.2 -1.3 16.4 -1.1Q16.6 -0.9 17.0 -0.9Q17.2 -0.9 17.3 -0.9Q17.4 -0.9 17.5 -0.9V-0.0Q17.4 0.0 17.2 0.0Q17.0 0.0 16.9 0.0Z M20.7 0.1Q20.2 0.1 19.7 -0.1Q19.2 -0.3 19.0 -0.7Q18.7 -1.1 18.7 -1.7V-1.7Q18.7 -2.3 19.0 -2.6Q19.2 -3.0 19.7 -3.2Q20.2 -3.5 21.0 -3.5L23.2 -3.6V-2.8L21.1 -2.7Q20.4 -2.7 20.1 -2.4Q19.8 -2.2 19.8 -1.7V-1.7Q19.8 -1.3 20.1 -1.0Q20.5 -0.8 21.0 -0.8Q21.5 -0.8 21.8 -1.0Q22.2 -1.2 22.4 -1.5Q22.6 -1.8 22.6 -2.3V-4.1Q22.6 -4.7 22.3 -5.0Q22.0 -5.2 21.3 -5.2Q20.8 -5.2 20.5 -5.1Q20.1 -4.9 20.0 -4.5L20.0 -4.5H19.0L19.0 -4.5Q19.0 -5.0 19.4 -5.4Q19.7 -5.8 20.2 -6.0Q20.7 -6.2 21.4 -6.2Q22.1 -6.2 22.7 -5.9Q23.2 -5.7 23.5 -5.2Q23.7 -4.8 23.7 -4.2V0.0H22.6V-0.9H22.6Q22.4 -0.6 22.1 -0.3Q21.8 -0.1 21.5 -0.0Q21.1 0.1 20.7 0.1Z M25.7 0.0V-8.5H26.7V0.0Z M31.2 0.1Q30.4 0.1 29.7 -0.3Q29.1 -0.7 28.8 -1.4Q28.4 -2.1 28.4 -3.0V-3.0Q28.4 -4.0 28.8 -4.7Q29.1 -5.4 29.7 -5.8Q30.3 -6.2 31.2 -6.2Q32.0 -6.2 32.6 -5.8Q33.2 -5.4 33.5 -4.7Q33.9 -4.0 33.9 -3.1V-2.7H29.0V-3.6H33.3L32.8 -2.8V-3.2Q32.8 -3.9 32.6 -4.4Q32.4 -4.8 32.0 -5.0Q31.6 -5.2 31.2 -5.2Q30.7 -5.2 30.3 -5.0Q30.0 -4.8 29.7 -4.3Q29.5 -3.9 29.5 -3.2V-2.8Q29.5 -2.2 29.7 -1.7Q29.9 -1.3 30.3 -1.1Q30.7 -0.8 31.3 -0.8Q31.7 -0.8 31.9 -0.9Q32.2 -1.0 32.4 -1.2Q32.6 -1.4 32.7 -1.6L32.7 -1.6L33.8 -1.6L33.8 -1.6Q33.7 -1.2 33.5 -1.0Q33.3 -0.7 33.0 -0.4Q32.7 -0.2 32.2 -0.0Q31.8 0.1 31.2 0.1Z M37.6 0.1Q36.9 0.1 36.4 -0.1Q35.8 -0.3 35.5 -0.7Q35.2 -1.1 35.2 -1.6L35.2 -1.6H36.3L36.3 -1.6Q36.4 -1.2 36.7 -1.0Q37.1 -0.8 37.6 -0.8Q38.0 -0.8 38.3 -0.9Q38.6 -1.0 38.8 -1.2Q39.0 -1.4 39.0 -1.7V-1.7Q39.0 -2.0 38.7 -2.2Q38.5 -2.4 38.0 -2.5L37.0 -2.7Q36.4 -2.9 36.1 -3.1Q35.7 -3.3 35.5 -3.6Q35.3 -3.9 35.3 -4.4V-4.4Q35.3 -4.9 35.6 -5.3Q35.9 -5.7 36.5 -5.9Q37.0 -6.2 37.6 -6.2Q38.3 -6.2 38.8 -6.0Q39.3 -5.8 39.6 -5.4Q39.9 -5.0 40.0 -4.5L40.0 -4.5H38.9L38.9 -4.5Q38.8 -4.9 38.5 -5.1Q38.2 -5.3 37.6 -5.3Q37.3 -5.3 37.0 -5.2Q36.7 -5.1 36.6 -4.9Q36.4 -4.7 36.4 -4.4V-4.4Q36.4 -4.2 36.5 -4.1Q36.6 -3.9 36.9 -3.8Q37.1 -3.7 37.4 -3.6L38.4 -3.4Q38.9 -3.3 39.3 -3.0Q39.7 -2.8 39.9 -2.5Q40.1 -2.2 40.1 -1.8V-1.7Q40.1 -1.2 39.8 -0.8Q39.4 -0.4 38.9 -0.1Q38.3 0.1 37.6 0.1Z M43.8 0.1Q43.1 0.1 42.6 -0.1Q42.1 -0.3 41.8 -0.7Q41.4 -1.1 41.4 -1.6L41.4 -1.6H42.5L42.5 -1.6Q42.6 -1.2 42.9 -1.0Q43.3 -0.8 43.9 -0.8Q44.3 -0.8 44.6 -0.9Q44.8 -1.0 45.0 -1.2Q45.2 -1.4 45.2 -1.7V-1.7Q45.2 -2.0 45.0 -2.2Q44.7 -2.4 44.2 -2.5L43.2 -2.7Q42.6 -2.9 42.3 -3.1Q41.9 -3.3 41.7 -3.6Q41.6 -3.9 41.6 -4.4V-4.4Q41.6 -4.9 41.9 -5.3Q42.2 -5.7 42.7 -5.9Q43.2 -6.2 43.9 -6.2Q44.5 -6.2 45.0 -6.0Q45.5 -5.8 45.8 -5.4Q46.1 -5.0 46.2 -4.5L46.2 -4.5H45.1L45.1 -4.5Q45.0 -4.9 44.7 -5.1Q44.4 -5.3 43.8 -5.3Q43.5 -5.3 43.2 -5.2Q43.0 -5.1 42.8 -4.9Q42.7 -4.7 42.7 -4.4V-4.4Q42.7 -4.2 42.8 -4.1Q42.9 -3.9 43.1 -3.8Q43.3 -3.7 43.6 -3.6L44.6 -3.4Q45.2 -3.3 45.5 -3.0Q45.9 -2.8 46.1 -2.5Q46.3 -2.2 46.3 -1.8V-1.7Q46.3 -1.2 46.0 -0.8Q45.6 -0.4 45.1 -0.1Q44.5 0.1 43.8 0.1Z M51.2 0.0V-6.1H52.3V-5.2H52.4Q52.6 -5.6 53.0 -5.9Q53.5 -6.2 54.2 -6.2Q55.2 -6.2 55.7 -5.6Q56.3 -5.0 56.3 -3.9V0.0H55.2V-3.7Q55.2 -4.5 54.8 -4.8Q54.5 -5.2 53.8 -5.2Q53.3 -5.2 53.0 -5.0Q52.7 -4.8 52.5 -4.5Q52.3 -4.1 52.3 -3.6V0.0Z M60.7 0.1Q59.8 0.1 59.1 -0.3Q58.5 -0.6 58.2 -1.4Q57.8 -2.1 57.8 -3.0V-3.0Q57.8 -4.0 58.2 -4.7Q58.5 -5.4 59.1 -5.8Q59.8 -6.2 60.7 -6.2Q61.5 -6.2 62.2 -5.8Q62.8 -5.4 63.1 -4.7Q63.5 -4.0 63.5 -3.0V-3.0Q63.5 -2.1 63.1 -1.4Q62.8 -0.6 62.2 -0.3Q61.5 0.1 60.7 0.1ZM60.7 -0.8Q61.2 -0.8 61.6 -1.1Q62.0 -1.3 62.2 -1.8Q62.4 -2.3 62.4 -3.0V-3.0Q62.4 -3.7 62.2 -4.2Q62.0 -4.7 61.6 -5.0Q61.2 -5.2 60.7 -5.2Q60.1 -5.2 59.7 -5.0Q59.3 -4.7 59.1 -4.2Q58.9 -3.7 58.9 -3.0V-3.0Q58.9 -2.3 59.1 -1.8Q59.3 -1.3 59.7 -1.1Q60.1 -0.8 60.7 -0.8Z M67.3 0.0Q66.3 0.0 65.9 -0.3Q65.5 -0.7 65.5 -1.6V-5.2H64.5V-6.1H65.5V-7.6H66.6V-6.1H67.9V-5.2H66.6V-1.8Q66.6 -1.3 66.8 -1.1Q67.0 -0.9 67.5 -0.9Q67.6 -0.9 67.7 -0.9Q67.8 -0.9 67.9 -0.9V-0.0Q67.8 0.0 67.6 0.0Q67.5 0.0 67.3 0.0Z M72.0 0.1Q71.1 0.1 70.5 -0.3Q69.9 -0.7 69.5 -1.4Q69.2 -2.1 69.2 -3.0V-3.0Q69.2 -4.0 69.5 -4.7Q69.9 -5.4 70.5 -5.8Q71.1 -6.2 71.9 -6.2Q72.8 -6.2 73.4 -5.8Q74.0 -5.4 74.3 -4.7Q74.6 -4.0 74.6 -3.1V-2.7H69.7V-3.6H74.1L73.5 -2.8V-3.2Q73.5 -3.9 73.3 -4.4Q73.1 -4.8 72.8 -5.0Q72.4 -5.2 71.9 -5.2Q71.5 -5.2 71.1 -5.0Q70.7 -4.8 70.5 -4.3Q70.3 -3.9 70.3 -3.2V-2.8Q70.3 -2.2 70.5 -1.7Q70.7 -1.3 71.1 -1.1Q71.5 -0.8 72.0 -0.8Q72.4 -0.8 72.7 -0.9Q73.0 -1.0 73.2 -1.2Q73.4 -1.4 73.5 -1.6L73.5 -1.6L74.5 -1.6L74.5 -1.6Q74.5 -1.2 74.3 -1.0Q74.1 -0.7 73.7 -0.4Q73.4 -0.2 73.0 -0.0Q72.5 0.1 72.0 0.1Z M78.4 0.1Q77.7 0.1 77.1 -0.1Q76.6 -0.3 76.3 -0.7Q76.0 -1.1 75.9 -1.6L75.9 -1.6H77.0L77.0 -1.6Q77.1 -1.2 77.5 -1.0Q77.8 -0.8 78.4 -0.8Q78.8 -0.8 79.1 -0.9Q79.4 -1.0 79.6 -1.2Q79.7 -1.4 79.7 -1.7V-1.7Q79.7 -2.0 79.5 -2.2Q79.3 -2.4 78.7 -2.5L77.8 -2.7Q77.2 -2.9 76.8 -3.1Q76.4 -3.3 76.3 -3.6Q76.1 -3.9 76.1 -4.4V-4.4Q76.1 -4.9 76.4 -5.3Q76.7 -5.7 77.2 -5.9Q77.7 -6.2 78.4 -6.2Q79.1 -6.2 79.6 -6.0Q80.1 -5.8 80.4 -5.4Q80.7 -5.0 80.7 -4.5L80.7 -4.5H79.7L79.7 -4.5Q79.6 -4.9 79.3 -5.1Q78.9 -5.3 78.4 -5.3Q78.0 -5.3 77.8 -5.2Q77.5 -5.1 77.3 -4.9Q77.2 -4.7 77.2 -4.4V-4.4Q77.2 -4.2 77.3 -4.1Q77.4 -3.9 77.6 -3.8Q77.8 -3.7 78.2 -3.6L79.1 -3.4Q79.7 -3.3 80.1 -3.0Q80.5 -2.8 80.7 -2.5Q80.8 -2.2 80.8 -1.8V-1.7Q80.8 -1.2 80.5 -0.8Q80.2 -0.4 79.6 -0.1Q79.1 0.1 78.4 0.1Z M85.8 0.0V-6.1H86.9V0.0ZM86.3 -7.2Q86.0 -7.2 85.8 -7.4Q85.6 -7.6 85.6 -7.9Q85.6 -8.2 85.8 -8.4Q86.0 -8.6 86.3 -8.6Q86.6 -8.6 86.8 -8.4Q87.0 -8.2 87.0 -7.9Q87.0 -7.6 86.8 -7.4Q86.6 -7.2 86.3 -7.2Z M88.8 0.0V-6.1H89.9V-5.2H90.0Q90.2 -5.6 90.6 -5.9Q91.1 -6.2 91.7 -6.2Q92.8 -6.2 93.3 -5.6Q93.9 -5.0 93.9 -3.9V0.0H92.8V-3.7Q92.8 -4.5 92.4 -4.8Q92.1 -5.2 91.4 -5.2Q90.9 -5.2 90.6 -5.0Q90.3 -4.8 90.1 -4.5Q89.9 -4.1 89.9 -3.6V0.0Z M97.9 0.1Q97.2 0.1 96.6 -0.1Q96.1 -0.3 95.8 -0.7Q95.5 -1.1 95.4 -1.6L95.4 -1.6H96.5L96.5 -1.6Q96.6 -1.2 97.0 -1.0Q97.3 -0.8 97.9 -0.8Q98.3 -0.8 98.6 -0.9Q98.9 -1.0 99.0 -1.2Q99.2 -1.4 99.2 -1.7V-1.7Q99.2 -2.0 99.0 -2.2Q98.7 -2.4 98.2 -2.5L97.2 -2.7Q96.7 -2.9 96.3 -3.1Q95.9 -3.3 95.8 -3.6Q95.6 -3.9 95.6 -4.4V-4.4Q95.6 -4.9 95.9 -5.3Q96.2 -5.7 96.7 -5.9Q97.2 -6.2 97.9 -6.2Q98.5 -6.2 99.0 -6.0Q99.6 -5.8 99.9 -5.4Q100.2 -5.0 100.2 -4.5L100.2 -4.5H99.2L99.2 -4.5Q99.1 -4.9 98.7 -5.1Q98.4 -5.3 97.9 -5.3Q97.5 -5.3 97.3 -5.2Q97.0 -5.1 96.8 -4.9Q96.7 -4.7 96.7 -4.4V-4.4Q96.7 -4.2 96.8 -4.1Q96.9 -3.9 97.1 -3.8Q97.3 -3.7 97.7 -3.6L98.6 -3.4Q99.2 -3.3 99.6 -3.0Q99.9 -2.8 100.1 -2.5Q100.3 -2.2 100.3 -1.8V-1.7Q100.3 -1.2 100.0 -0.8Q99.7 -0.4 99.1 -0.1Q98.6 0.1 97.9 0.1Z M104.1 0.0Q103.2 0.0 102.8 -0.3Q102.3 -0.7 102.3 -1.6V-5.2H101.4V-6.1H102.3V-7.6H103.4V-6.1H104.7V-5.2H103.4V-1.8Q103.4 -1.3 103.6 -1.1Q103.8 -0.9 104.3 -0.9Q104.4 -0.9 104.5 -0.9Q104.6 -0.9 104.7 -0.9V-0.0Q104.6 0.0 104.5 0.0Q104.3 0.0 104.1 0.0Z M108.8 0.1Q108.0 0.1 107.3 -0.3Q106.7 -0.7 106.4 -1.4Q106.0 -2.1 106.0 -3.0V-3.0Q106.0 -4.0 106.4 -4.7Q106.7 -5.4 107.3 -5.8Q107.9 -6.2 108.8 -6.2Q109.6 -6.2 110.2 -5.8Q110.8 -5.4 111.1 -4.7Q111.5 -4.0 111.5 -3.1V-2.7H106.6V-3.6H110.9L110.4 -2.8V-3.2Q110.4 -3.9 110.2 -4.4Q110.0 -4.8 109.6 -5.0Q109.2 -5.2 108.8 -5.2Q108.3 -5.2 107.9 -5.0Q107.6 -4.8 107.3 -4.3Q107.1 -3.9 107.1 -3.2V-2.8Q107.1 -2.2 107.3 -1.7Q107.5 -1.3 107.9 -1.1Q108.3 -0.8 108.9 -0.8Q109.3 -0.8 109.6 -0.9Q109.8 -1.0 110.0 -1.2Q110.2 -1.4 110.3 -1.6L110.3 -1.6L111.4 -1.6L111.4 -1.6Q111.3 -1.2 111.1 -1.0Q110.9 -0.7 110.6 -0.4Q110.3 -0.2 109.8 -0.0Q109.4 0.1 108.8 0.1Z M114.7 0.1Q114.2 0.1 113.7 -0.1Q113.2 -0.3 113.0 -0.7Q112.7 -1.1 112.7 -1.7V-1.7Q112.7 -2.3 113.0 -2.6Q113.2 -3.0 113.7 -3.2Q114.2 -3.5 115.0 -3.5L117.2 -3.6V-2.8L115.1 -2.7Q114.4 -2.7 114.1 -2.4Q113.8 -2.2 113.8 -1.7V-1.7Q113.8 -1.3 114.2 -1.0Q114.5 -0.8 115.0 -0.8Q115.5 -0.8 115.8 -1.0Q116.2 -1.2 116.4 -1.5Q116.6 -1.8 116.6 -2.3V-4.1Q116.6 -4.7 116.3 -5.0Q116.0 -5.2 115.3 -5.2Q114.8 -5.2 114.5 -5.1Q114.1 -4.9 114.0 -4.5L114.0 -4.5H113.0L113.0 -4.5Q113.0 -5.0 113.4 -5.4Q113.7 -5.8 114.2 -6.0Q114.7 -6.2 115.4 -6.2Q116.1 -6.2 116.7 -5.9Q117.2 -5.7 117.5 -5.2Q117.7 -4.8 117.7 -4.2V0.0H116.6V-0.9H116.6Q116.4 -0.6 116.1 -0.3Q115.8 -0.1 115.5 -0.0Q115.1 0.1 114.7 0.1Z M121.8 0.1Q121.1 0.1 120.5 -0.3Q119.9 -0.7 119.6 -1.4Q119.3 -2.1 119.3 -3.0V-3.0Q119.3 -4.0 119.6 -4.7Q119.9 -5.4 120.5 -5.8Q121.1 -6.2 121.8 -6.2Q122.3 -6.2 122.6 -6.0Q123.0 -5.9 123.3 -5.7Q123.6 -5.4 123.7 -5.1H123.8V-8.5H124.9V0.0H123.8V-1.0H123.7Q123.5 -0.6 123.3 -0.4Q123.0 -0.2 122.6 -0.0Q122.3 0.1 121.8 0.1ZM122.1 -0.8Q122.6 -0.8 123.0 -1.1Q123.4 -1.4 123.6 -1.9Q123.8 -2.4 123.8 -3.0V-3.0Q123.8 -3.7 123.6 -4.2Q123.4 -4.7 123.0 -5.0Q122.6 -5.2 122.1 -5.2Q121.6 -5.2 121.2 -5.0Q120.8 -4.7 120.6 -4.2Q120.4 -3.7 120.4 -3.0V-3.0Q120.4 -2.3 120.6 -1.9Q120.8 -1.4 121.2 -1.1Q121.6 -0.8 122.1 -0.8Z M132.7 0.1Q131.8 0.1 131.2 -0.3Q130.5 -0.6 130.2 -1.4Q129.9 -2.1 129.9 -3.0V-3.0Q129.9 -4.0 130.2 -4.7Q130.6 -5.4 131.2 -5.8Q131.8 -6.2 132.7 -6.2Q133.6 -6.2 134.2 -5.8Q134.8 -5.4 135.2 -4.7Q135.5 -4.0 135.5 -3.0V-3.0Q135.5 -2.1 135.2 -1.4Q134.8 -0.6 134.2 -0.3Q133.6 0.1 132.7 0.1ZM132.7 -0.8Q133.2 -0.8 133.6 -1.1Q134.0 -1.3 134.2 -1.8Q134.4 -2.3 134.4 -3.0V-3.0Q134.4 -3.7 134.2 -4.2Q134.0 -4.7 133.6 -5.0Q133.2 -5.2 132.7 -5.2Q132.1 -5.2 131.8 -5.0Q131.4 -4.7 131.2 -4.2Q131.0 -3.7 131.0 -3.0V-3.0Q131.0 -2.3 131.2 -1.8Q131.4 -1.3 131.8 -1.1Q132.1 -0.8 132.7 -0.8Z M137.5 0.0V-5.2H136.5V-6.1H137.5V-6.7Q137.5 -7.3 137.7 -7.7Q137.9 -8.1 138.4 -8.3Q138.8 -8.5 139.4 -8.5Q139.5 -8.5 139.7 -8.5Q139.9 -8.5 140.0 -8.5V-7.6Q139.9 -7.6 139.8 -7.6Q139.7 -7.7 139.6 -7.7Q139.1 -7.7 138.8 -7.4Q138.6 -7.2 138.6 -6.7V-6.1H140.0V-5.2H138.6V0.0Z M144.9 0.0V-8.5H145.9V-5.1H146.0Q146.3 -5.6 146.7 -5.9Q147.1 -6.2 147.8 -6.2Q148.5 -6.2 148.9 -5.9Q149.4 -5.6 149.7 -5.1Q149.9 -4.6 149.9 -3.9V0.0H148.8V-3.7Q148.8 -4.5 148.5 -4.8Q148.2 -5.2 147.5 -5.2Q147.0 -5.2 146.7 -5.0Q146.3 -4.8 146.1 -4.5Q145.9 -4.1 145.9 -3.6V0.0Z M153.4 0.1Q152.9 0.1 152.4 -0.1Q152.0 -0.3 151.7 -0.7Q151.4 -1.1 151.4 -1.7V-1.7Q151.4 -2.3 151.7 -2.6Q151.9 -3.0 152.4 -3.2Q152.9 -3.5 153.7 -3.5L155.9 -3.6V-2.8L153.8 -2.7Q153.1 -2.7 152.8 -2.4Q152.5 -2.2 152.5 -1.7V-1.7Q152.5 -1.3 152.9 -1.0Q153.2 -0.8 153.7 -0.8Q154.2 -0.8 154.5 -1.0Q154.9 -1.2 155.1 -1.5Q155.3 -1.8 155.3 -2.3V-4.1Q155.3 -4.7 155.0 -5.0Q154.7 -5.2 154.0 -5.2Q153.5 -5.2 153.2 -5.1Q152.8 -4.9 152.7 -4.5L152.7 -4.5H151.7L151.7 -4.5Q151.7 -5.0 152.1 -5.4Q152.4 -5.8 152.9 -6.0Q153.4 -6.2 154.1 -6.2Q154.8 -6.2 155.4 -5.9Q155.9 -5.7 156.2 -5.2Q156.4 -4.8 156.4 -4.2V0.0H155.3V-0.9H155.3Q155.1 -0.6 154.8 -0.3Q154.5 -0.1 154.2 -0.0Q153.8 0.1 153.4 0.1Z M158.3 0.0V-6.1H159.4V-5.2H159.5Q159.7 -5.6 160.2 -5.9Q160.6 -6.2 161.3 -6.2Q162.3 -6.2 162.8 -5.6Q163.4 -5.0 163.4 -3.9V0.0H162.3V-3.7Q162.3 -4.5 161.9 -4.8Q161.6 -5.2 160.9 -5.2Q160.4 -5.2 160.1 -5.0Q159.8 -4.8 159.6 -4.5Q159.4 -4.1 159.4 -3.6V0.0Z M167.8 2.1Q167.0 2.1 166.5 1.9Q165.9 1.7 165.6 1.3Q165.2 1.0 165.2 0.5L165.2 0.5H166.3L166.3 0.5Q166.4 0.8 166.8 1.0Q167.1 1.2 167.8 1.2Q168.6 1.2 169.0 0.9Q169.4 0.5 169.4 -0.1V-1.3H169.3Q169.2 -1.0 168.9 -0.8Q168.6 -0.5 168.2 -0.4Q167.9 -0.3 167.5 -0.3Q166.7 -0.3 166.1 -0.7Q165.5 -1.0 165.2 -1.7Q164.9 -2.4 164.9 -3.2V-3.2Q164.9 -4.1 165.2 -4.7Q165.5 -5.4 166.1 -5.8Q166.7 -6.2 167.5 -6.2Q167.9 -6.2 168.3 -6.0Q168.6 -5.9 168.9 -5.7Q169.2 -5.4 169.4 -5.1H169.4V-6.1H170.5V-0.1Q170.5 0.6 170.2 1.1Q169.8 1.6 169.2 1.9Q168.6 2.1 167.8 2.1ZM167.7 -1.2Q168.3 -1.2 168.6 -1.5Q169.0 -1.7 169.2 -2.2Q169.5 -2.6 169.5 -3.2V-3.2Q169.5 -3.8 169.2 -4.3Q169.0 -4.7 168.6 -5.0Q168.3 -5.2 167.7 -5.2Q167.2 -5.2 166.8 -5.0Q166.4 -4.7 166.2 -4.3Q166.0 -3.8 166.0 -3.2V-3.2Q166.0 -2.6 166.2 -2.2Q166.4 -1.7 166.8 -1.5Q167.2 -1.2 167.7 -1.2Z M172.4 0.0V-6.1H173.5V0.0ZM173.0 -7.2Q172.7 -7.2 172.5 -7.4Q172.3 -7.6 172.3 -7.9Q172.3 -8.2 172.5 -8.4Q172.7 -8.6 173.0 -8.6Q173.3 -8.6 173.5 -8.4Q173.7 -8.2 173.7 -7.9Q173.7 -7.6 173.5 -7.4Q173.3 -7.2 173.0 -7.2Z M175.5 0.0V-6.1H176.6V-5.2H176.6Q176.9 -5.6 177.3 -5.9Q177.7 -6.2 178.4 -6.2Q179.4 -6.2 180.0 -5.6Q180.5 -5.0 180.5 -3.9V0.0H179.4V-3.7Q179.4 -4.5 179.1 -4.8Q178.8 -5.2 178.1 -5.2Q177.6 -5.2 177.3 -5.0Q176.9 -4.8 176.7 -4.5Q176.6 -4.1 176.6 -3.6V0.0Z M184.9 2.1Q184.2 2.1 183.6 1.9Q183.1 1.7 182.7 1.3Q182.4 1.0 182.3 0.5L182.3 0.5H183.4L183.5 0.5Q183.5 0.8 183.9 1.0Q184.3 1.2 184.9 1.2Q185.7 1.2 186.2 0.9Q186.6 0.5 186.6 -0.1V-1.3H186.5Q186.3 -1.0 186.0 -0.8Q185.8 -0.5 185.4 -0.4Q185.0 -0.3 184.6 -0.3Q183.8 -0.3 183.3 -0.7Q182.7 -1.0 182.4 -1.7Q182.1 -2.4 182.1 -3.2V-3.2Q182.1 -4.1 182.4 -4.7Q182.7 -5.4 183.3 -5.8Q183.8 -6.2 184.6 -6.2Q185.1 -6.2 185.4 -6.0Q185.8 -5.9 186.1 -5.7Q186.3 -5.4 186.5 -5.1H186.6V-6.1H187.7V-0.1Q187.7 0.6 187.3 1.1Q187.0 1.6 186.4 1.9Q185.8 2.1 184.9 2.1ZM184.9 -1.2Q185.4 -1.2 185.8 -1.5Q186.2 -1.7 186.4 -2.2Q186.6 -2.6 186.6 -3.2V-3.2Q186.6 -3.8 186.4 -4.3Q186.2 -4.7 185.8 -5.0Q185.4 -5.2 184.9 -5.2Q184.3 -5.2 184.0 -5.0Q183.6 -4.7 183.4 -4.3Q183.2 -3.8 183.2 -3.2V-3.2Q183.2 -2.6 183.4 -2.2Q183.6 -1.7 184.0 -1.5Q184.3 -1.2 184.9 -1.2Z M195.4 0.1Q194.5 0.1 193.9 -0.3Q193.3 -0.6 192.9 -1.4Q192.6 -2.1 192.6 -3.0V-3.0Q192.6 -4.0 192.9 -4.7Q193.3 -5.4 193.9 -5.8Q194.5 -6.2 195.4 -6.2Q196.3 -6.2 196.9 -5.8Q197.6 -5.4 197.9 -4.7Q198.2 -4.0 198.2 -3.0V-3.0Q198.2 -2.1 197.9 -1.4Q197.6 -0.6 196.9 -0.3Q196.3 0.1 195.4 0.1ZM195.4 -0.8Q196.0 -0.8 196.3 -1.1Q196.7 -1.3 196.9 -1.8Q197.1 -2.3 197.1 -3.0V-3.0Q197.1 -3.7 196.9 -4.2Q196.7 -4.7 196.3 -5.0Q196.0 -5.2 195.4 -5.2Q194.9 -5.2 194.5 -5.0Q194.1 -4.7 193.9 -4.2Q193.7 -3.7 193.7 -3.0V-3.0Q193.7 -2.3 193.9 -1.8Q194.1 -1.3 194.5 -1.1Q194.9 -0.8 195.4 -0.8Z M199.9 0.0V-6.1H200.9V-5.2H201.0Q201.3 -5.6 201.7 -5.9Q202.1 -6.2 202.8 -6.2Q203.8 -6.2 204.4 -5.6Q204.9 -5.0 204.9 -3.9V0.0H203.8V-3.7Q203.8 -4.5 203.5 -4.8Q203.2 -5.2 202.5 -5.2Q202.0 -5.2 201.7 -5.0Q201.3 -4.8 201.1 -4.5Q200.9 -4.1 200.9 -3.6V0.0Z M212.3 0.0Q211.3 0.0 210.9 -0.3Q210.5 -0.7 210.5 -1.6V-5.2H209.5V-6.1H210.5V-7.6H211.6V-6.1H212.9V-5.2H211.6V-1.8Q211.6 -1.3 211.8 -1.1Q212.0 -0.9 212.4 -0.9Q212.6 -0.9 212.7 -0.9Q212.8 -0.9 212.9 -0.9V-0.0Q212.7 0.0 212.6 0.0Q212.4 0.0 212.3 0.0Z M214.5 0.0V-8.5H215.6V-5.1H215.7Q215.9 -5.6 216.4 -5.9Q216.8 -6.2 217.5 -6.2Q218.1 -6.2 218.6 -5.9Q219.1 -5.6 219.3 -5.1Q219.6 -4.6 219.6 -3.9V0.0H218.5V-3.7Q218.5 -4.5 218.2 -4.8Q217.8 -5.2 217.1 -5.2Q216.7 -5.2 216.3 -5.0Q216.0 -4.8 215.8 -4.5Q215.6 -4.1 215.6 -3.6V0.0Z M223.9 0.1Q223.1 0.1 222.4 -0.3Q221.8 -0.7 221.5 -1.4Q221.1 -2.1 221.1 -3.0V-3.0Q221.1 -4.0 221.5 -4.7Q221.8 -5.4 222.4 -5.8Q223.0 -6.2 223.9 -6.2Q224.7 -6.2 225.3 -5.8Q225.9 -5.4 226.2 -4.7Q226.6 -4.0 226.6 -3.1V-2.7H221.7V-3.6H226.0L225.5 -2.8V-3.2Q225.5 -3.9 225.3 -4.4Q225.1 -4.8 224.7 -5.0Q224.3 -5.2 223.9 -5.2Q223.4 -5.2 223.0 -5.0Q222.7 -4.8 222.4 -4.3Q222.2 -3.9 222.2 -3.2V-2.8Q222.2 -2.2 222.4 -1.7Q222.7 -1.3 223.0 -1.1Q223.4 -0.8 224.0 -0.8Q224.4 -0.8 224.7 -0.9Q225.0 -1.0 225.1 -1.2Q225.3 -1.4 225.4 -1.6L225.4 -1.6L226.5 -1.6L226.5 -1.6Q226.4 -1.2 226.2 -1.0Q226.0 -0.7 225.7 -0.4Q225.4 -0.2 224.9 -0.0Q224.5 0.1 223.9 0.1Z M228.2 0.0V-6.1H229.3V-5.1H229.4Q229.6 -5.6 230.0 -5.9Q230.4 -6.2 231.0 -6.2Q231.4 -6.2 231.7 -6.0Q232.1 -5.9 232.3 -5.7Q232.5 -5.4 232.7 -5.1H232.8Q232.9 -5.4 233.2 -5.7Q233.5 -5.9 233.8 -6.0Q234.2 -6.2 234.6 -6.2Q235.2 -6.2 235.7 -5.9Q236.1 -5.7 236.3 -5.3Q236.6 -4.8 236.6 -4.2V0.0H235.5V-3.9Q235.5 -4.4 235.3 -4.7Q235.2 -4.9 234.9 -5.1Q234.7 -5.2 234.3 -5.2Q233.8 -5.2 233.5 -5.0Q233.2 -4.9 233.1 -4.6Q232.9 -4.2 232.9 -3.9V0.0H231.8V-4.1Q231.8 -4.4 231.7 -4.7Q231.5 -4.9 231.2 -5.1Q231.0 -5.2 230.6 -5.2Q230.2 -5.2 229.9 -5.0Q229.6 -4.8 229.4 -4.5Q229.3 -4.2 229.3 -3.7V0.0Z M239.3 0.1Q239.0 0.1 238.7 -0.2Q238.5 -0.4 238.5 -0.7Q238.5 -1.0 238.7 -1.2Q239.0 -1.5 239.3 -1.5Q239.6 -1.5 239.8 -1.2Q240.0 -1.0 240.0 -0.7Q240.0 -0.4 239.8 -0.2Q239.6 0.1 239.3 0.1Z"/></g><circle cx="51.0" cy="126.0" r="4.2" fill="#F1E05A"/><g transform="translate(60.0,129.5)" fill="#9CA3AF"><path d="M2.6 0.2Q2.1 0.2 1.7 0.0Q1.3 -0.1 1.0 -0.4Q0.7 -0.6 0.6 -1.0Q0.4 -1.4 0.4 -1.8L0.4 -1.9H1.6L1.6 -1.8Q1.6 -1.6 1.7 -1.3Q1.8 -1.1 2.0 -1.0Q2.3 -0.9 2.6 -0.9Q3.1 -0.9 3.4 -1.2Q3.6 -1.5 3.6 -2.1V-7.0H4.8V-2.1Q4.8 -1.4 4.6 -0.9Q4.3 -0.4 3.8 -0.1Q3.3 0.2 2.6 0.2Z M8.1 0.1Q7.6 0.1 7.2 -0.1Q6.8 -0.3 6.6 -0.7Q6.4 -1.0 6.4 -1.5V-1.5Q6.4 -2.0 6.6 -2.3Q6.8 -2.7 7.3 -2.9Q7.7 -3.1 8.4 -3.1L10.3 -3.2V-2.4L8.5 -2.3Q8.0 -2.3 7.8 -2.1Q7.5 -1.9 7.5 -1.6V-1.6Q7.5 -1.2 7.8 -1.0Q8.0 -0.8 8.5 -0.8Q8.8 -0.8 9.1 -1.0Q9.4 -1.1 9.6 -1.4Q9.8 -1.6 9.8 -2.0V-3.6Q9.8 -4.1 9.5 -4.3Q9.2 -4.5 8.7 -4.5Q8.3 -4.5 8.0 -4.3Q7.8 -4.2 7.7 -3.9L7.7 -3.9H6.6L6.6 -3.9Q6.6 -4.4 6.9 -4.7Q7.2 -5.1 7.7 -5.2Q8.2 -5.4 8.8 -5.4Q9.5 -5.4 9.9 -5.2Q10.4 -5.0 10.7 -4.6Q10.9 -4.2 10.9 -3.6V0.0H9.8V-0.7H9.7Q9.5 -0.5 9.3 -0.3Q9.1 -0.1 8.8 -0.0Q8.5 0.1 8.1 0.1Z M14.0 0.0 12.1 -5.3H13.4L14.6 -1.1H14.7L16.0 -5.3H17.2L15.3 0.0Z M19.9 0.1Q19.4 0.1 19.0 -0.1Q18.6 -0.3 18.4 -0.7Q18.1 -1.0 18.1 -1.5V-1.5Q18.1 -2.0 18.4 -2.3Q18.6 -2.7 19.0 -2.9Q19.5 -3.1 20.1 -3.1L22.1 -3.2V-2.4L20.3 -2.3Q19.8 -2.3 19.5 -2.1Q19.3 -1.9 19.3 -1.6V-1.6Q19.3 -1.2 19.5 -1.0Q19.8 -0.8 20.2 -0.8Q20.6 -0.8 20.9 -1.0Q21.2 -1.1 21.4 -1.4Q21.5 -1.6 21.5 -2.0V-3.6Q21.5 -4.1 21.3 -4.3Q21.0 -4.5 20.5 -4.5Q20.1 -4.5 19.8 -4.3Q19.5 -4.2 19.4 -3.9L19.4 -3.9H18.3L18.3 -3.9Q18.4 -4.4 18.7 -4.7Q19.0 -5.1 19.5 -5.2Q19.9 -5.4 20.6 -5.4Q21.2 -5.4 21.7 -5.2Q22.2 -5.0 22.4 -4.6Q22.7 -4.2 22.7 -3.6V0.0H21.5V-0.7H21.4Q21.3 -0.5 21.1 -0.3Q20.8 -0.1 20.5 -0.0Q20.2 0.1 19.9 0.1Z M26.9 0.2Q26.1 0.2 25.5 -0.1Q24.9 -0.3 24.5 -0.8Q24.2 -1.2 24.1 -1.8L24.1 -1.9H25.3L25.3 -1.9Q25.3 -1.5 25.6 -1.3Q25.8 -1.1 26.1 -1.0Q26.5 -0.8 26.9 -0.8Q27.4 -0.8 27.7 -1.0Q28.0 -1.1 28.2 -1.4Q28.4 -1.6 28.4 -1.9V-1.9Q28.4 -2.3 28.1 -2.5Q27.8 -2.8 27.1 -2.9L26.4 -3.1Q25.6 -3.3 25.2 -3.5Q24.7 -3.8 24.5 -4.2Q24.3 -4.6 24.3 -5.1V-5.1Q24.3 -5.8 24.6 -6.2Q25.0 -6.7 25.6 -7.0Q26.1 -7.2 26.9 -7.2Q27.7 -7.2 28.2 -7.0Q28.8 -6.7 29.1 -6.3Q29.4 -5.8 29.5 -5.3L29.5 -5.2H28.3L28.3 -5.2Q28.3 -5.5 28.1 -5.7Q27.9 -6.0 27.6 -6.1Q27.3 -6.2 26.9 -6.2Q26.5 -6.2 26.2 -6.1Q25.9 -6.0 25.7 -5.7Q25.5 -5.5 25.5 -5.2V-5.2Q25.5 -4.9 25.6 -4.8Q25.8 -4.6 26.0 -4.4Q26.3 -4.3 26.8 -4.2L27.5 -4.0Q28.3 -3.9 28.7 -3.6Q29.2 -3.3 29.4 -3.0Q29.6 -2.6 29.6 -2.0V-2.0Q29.6 -1.4 29.3 -0.9Q29.0 -0.4 28.3 -0.1Q27.7 0.2 26.9 0.2Z M33.4 0.1Q32.6 0.1 32.0 -0.2Q31.5 -0.6 31.2 -1.2Q30.8 -1.8 30.8 -2.7V-2.7Q30.8 -3.5 31.2 -4.2Q31.5 -4.8 32.0 -5.1Q32.6 -5.4 33.4 -5.4Q34.1 -5.4 34.5 -5.2Q35.0 -5.0 35.3 -4.5Q35.6 -4.1 35.7 -3.6L35.7 -3.6H34.6L34.6 -3.6Q34.5 -4.0 34.2 -4.2Q33.9 -4.5 33.4 -4.5Q33.0 -4.5 32.7 -4.3Q32.4 -4.1 32.2 -3.6Q32.0 -3.2 32.0 -2.7V-2.7Q32.0 -2.1 32.2 -1.7Q32.4 -1.3 32.7 -1.1Q33.0 -0.8 33.4 -0.8Q33.9 -0.8 34.2 -1.1Q34.5 -1.3 34.6 -1.7L34.6 -1.7L35.7 -1.7L35.7 -1.7Q35.6 -1.2 35.3 -0.7Q35.0 -0.3 34.5 -0.1Q34.1 0.1 33.4 0.1Z M37.1 0.0V-5.3H38.2V-4.5H38.3Q38.4 -4.9 38.8 -5.2Q39.1 -5.4 39.7 -5.4Q39.8 -5.4 39.9 -5.4Q40.1 -5.4 40.2 -5.4V-4.3Q40.0 -4.3 39.9 -4.4Q39.7 -4.4 39.6 -4.4Q39.2 -4.4 38.9 -4.2Q38.6 -4.1 38.4 -3.8Q38.2 -3.5 38.2 -3.1V0.0Z M41.4 0.0V-5.3H42.5V0.0ZM41.9 -6.2Q41.7 -6.2 41.5 -6.4Q41.2 -6.6 41.2 -6.9Q41.2 -7.2 41.5 -7.4Q41.7 -7.6 41.9 -7.6Q42.2 -7.6 42.4 -7.4Q42.7 -7.2 42.7 -6.9Q42.7 -6.6 42.4 -6.4Q42.2 -6.2 41.9 -6.2Z M44.2 1.8V-5.3H45.4V-4.5H45.5Q45.6 -4.8 45.9 -5.0Q46.1 -5.2 46.4 -5.3Q46.7 -5.4 47.1 -5.4Q47.8 -5.4 48.3 -5.1Q48.8 -4.7 49.0 -4.1Q49.3 -3.5 49.3 -2.7V-2.7Q49.3 -1.8 49.0 -1.2Q48.8 -0.6 48.3 -0.2Q47.8 0.1 47.1 0.1Q46.7 0.1 46.4 -0.0Q46.1 -0.1 45.9 -0.3Q45.6 -0.6 45.5 -0.8H45.4V1.8ZM46.8 -0.9Q47.2 -0.9 47.5 -1.1Q47.8 -1.3 48.0 -1.7Q48.1 -2.1 48.1 -2.7V-2.7Q48.1 -3.2 48.0 -3.6Q47.8 -4.0 47.5 -4.2Q47.2 -4.4 46.8 -4.4Q46.3 -4.4 46.0 -4.2Q45.7 -4.0 45.5 -3.6Q45.4 -3.2 45.4 -2.7V-2.7Q45.4 -2.1 45.5 -1.7Q45.7 -1.3 46.0 -1.1Q46.3 -0.9 46.8 -0.9Z M52.8 0.0Q51.9 0.0 51.5 -0.3Q51.1 -0.6 51.1 -1.4V-4.4H50.3V-5.3H51.1V-6.6H52.3V-5.3H53.4V-4.4H52.3V-1.7Q52.3 -1.3 52.5 -1.1Q52.6 -0.9 53.0 -0.9Q53.1 -0.9 53.2 -0.9Q53.3 -0.9 53.4 -0.9V-0.0Q53.3 -0.0 53.1 0.0Q53.0 0.0 52.8 0.0Z"/></g><circle cx="135.1" cy="126.0" r="4.2" fill="#6B7280"/><g transform="translate(144.1,129.5)" fill="#9CA3AF"><path d="M0.9 0.0V-7.0H2.3L4.4 -1.6H4.5L6.7 -7.0H8.0V0.0H7.0V-5.1H6.4L7.6 -6.9L4.9 0.0H4.0L1.3 -6.9L2.5 -5.1H2.0V0.0Z M10.0 0.0V-7.0H11.2V0.0Z M14.9 0.0V-6.0H12.7V-7.0H18.3V-6.0H16.1V0.0Z"/></g><circle cx="184.0" cy="126.0" r="4.2" fill="#6B7280"/><g transform="translate(193.0,129.5)" fill="#9CA3AF"><path d="M3.3 0.2Q2.5 0.2 2.0 -0.1Q1.5 -0.4 1.1 -0.8Q0.8 -1.3 0.8 -1.9L0.8 -1.9H1.9L1.9 -1.9Q1.9 -1.6 2.1 -1.3Q2.3 -1.1 2.6 -1.0Q2.9 -0.8 3.3 -0.8Q3.7 -0.8 4.0 -1.0Q4.3 -1.2 4.5 -1.5Q4.7 -1.8 4.7 -2.3V-2.3Q4.7 -2.7 4.5 -3.0Q4.3 -3.3 4.0 -3.5Q3.7 -3.7 3.3 -3.7Q3.0 -3.7 2.7 -3.6Q2.4 -3.5 2.2 -3.3Q2.1 -3.3 2.1 -3.2Q2.0 -3.1 1.9 -2.9H0.9L1.2 -7.0H5.4V-6.1H2.2L2.0 -3.9H2.1Q2.2 -4.1 2.4 -4.3Q2.7 -4.4 2.9 -4.5Q3.2 -4.6 3.6 -4.6Q4.2 -4.6 4.7 -4.3Q5.2 -4.0 5.5 -3.5Q5.8 -3.0 5.8 -2.3V-2.3Q5.8 -1.6 5.5 -1.0Q5.2 -0.4 4.6 -0.1Q4.0 0.2 3.3 0.2Z M12.3 0.0Q11.4 0.0 11.0 -0.3Q10.6 -0.6 10.6 -1.4V-4.4H9.8V-5.3H10.6V-6.6H11.8V-5.3H12.9V-4.4H11.8V-1.7Q11.8 -1.3 12.0 -1.1Q12.1 -0.9 12.5 -0.9Q12.6 -0.9 12.7 -0.9Q12.8 -0.9 12.9 -0.9V-0.0Q12.8 -0.0 12.6 0.0Q12.5 0.0 12.3 0.0Z M16.6 0.1Q15.8 0.1 15.3 -0.2Q14.7 -0.6 14.4 -1.2Q14.1 -1.8 14.1 -2.7V-2.7Q14.1 -3.5 14.4 -4.1Q14.7 -4.8 15.3 -5.1Q15.8 -5.4 16.6 -5.4Q17.4 -5.4 18.0 -5.1Q18.6 -4.8 18.9 -4.1Q19.2 -3.5 19.2 -2.7V-2.7Q19.2 -1.8 18.9 -1.2Q18.6 -0.6 18.0 -0.2Q17.4 0.1 16.6 0.1ZM16.6 -0.8Q17.1 -0.8 17.4 -1.1Q17.7 -1.3 17.8 -1.7Q18.0 -2.1 18.0 -2.7V-2.7Q18.0 -3.2 17.8 -3.6Q17.7 -4.0 17.4 -4.3Q17.1 -4.5 16.6 -4.5Q16.2 -4.5 15.9 -4.3Q15.6 -4.0 15.4 -3.6Q15.3 -3.2 15.3 -2.7V-2.7Q15.3 -2.1 15.4 -1.7Q15.6 -1.3 15.9 -1.1Q16.2 -0.8 16.6 -0.8Z M22.9 0.1Q22.1 0.1 21.5 -0.2Q21.0 -0.6 20.7 -1.2Q20.3 -1.8 20.3 -2.7V-2.7Q20.3 -3.5 20.7 -4.1Q21.0 -4.8 21.5 -5.1Q22.1 -5.4 22.9 -5.4Q23.7 -5.4 24.3 -5.1Q24.8 -4.8 25.1 -4.1Q25.4 -3.5 25.4 -2.7V-2.7Q25.4 -1.8 25.1 -1.2Q24.8 -0.6 24.3 -0.2Q23.7 0.1 22.9 0.1ZM22.9 -0.8Q23.3 -0.8 23.6 -1.1Q23.9 -1.3 24.1 -1.7Q24.3 -2.1 24.3 -2.7V-2.7Q24.3 -3.2 24.1 -3.6Q23.9 -4.0 23.6 -4.3Q23.3 -4.5 22.9 -4.5Q22.5 -4.5 22.2 -4.3Q21.9 -4.0 21.7 -3.6Q21.5 -3.2 21.5 -2.7V-2.7Q21.5 -2.1 21.7 -1.7Q21.9 -1.3 22.2 -1.1Q22.5 -0.8 22.9 -0.8Z M26.9 0.0V-7.4H28.1V0.0Z M31.8 0.1Q31.1 0.1 30.7 -0.1Q30.2 -0.3 29.9 -0.6Q29.6 -1.0 29.6 -1.4L29.6 -1.4H30.7L30.7 -1.4Q30.8 -1.1 31.1 -0.9Q31.4 -0.8 31.8 -0.8Q32.1 -0.8 32.4 -0.9Q32.6 -0.9 32.7 -1.1Q32.9 -1.3 32.9 -1.5V-1.5Q32.9 -1.7 32.7 -1.9Q32.5 -2.0 32.0 -2.1L31.2 -2.3Q30.7 -2.4 30.4 -2.6Q30.0 -2.8 29.9 -3.1Q29.7 -3.4 29.7 -3.8V-3.8Q29.7 -4.3 30.0 -4.7Q30.2 -5.0 30.7 -5.2Q31.2 -5.4 31.8 -5.4Q32.4 -5.4 32.9 -5.2Q33.4 -5.0 33.6 -4.7Q33.9 -4.4 33.9 -3.9V-3.9H32.8L32.8 -3.9Q32.8 -4.2 32.5 -4.4Q32.2 -4.6 31.8 -4.6Q31.5 -4.6 31.3 -4.5Q31.1 -4.4 31.0 -4.2Q30.9 -4.1 30.9 -3.9V-3.9Q30.9 -3.7 30.9 -3.6Q31.0 -3.5 31.2 -3.4Q31.4 -3.3 31.7 -3.2L32.5 -3.0Q33.0 -2.9 33.4 -2.7Q33.7 -2.5 33.9 -2.3Q34.0 -2.0 34.0 -1.6V-1.6Q34.0 -1.1 33.8 -0.7Q33.5 -0.3 33.0 -0.1Q32.5 0.1 31.8 0.1Z M39.2 -2.1Q38.9 -2.1 38.7 -2.3Q38.5 -2.5 38.5 -2.8Q38.5 -3.2 38.7 -3.4Q38.9 -3.6 39.2 -3.6Q39.6 -3.6 39.8 -3.4Q40.0 -3.2 40.0 -2.8Q40.0 -2.5 39.8 -2.3Q39.6 -2.1 39.2 -2.1Z M46.4 0.0V-5.8H46.3L44.6 -4.6V-5.7L46.4 -7.0H47.6V0.0Z M52.3 0.2Q51.6 0.2 51.0 -0.1Q50.5 -0.4 50.2 -0.8Q49.9 -1.3 49.8 -1.9L49.8 -1.9H50.9L50.9 -1.9Q51.0 -1.6 51.2 -1.3Q51.3 -1.1 51.6 -1.0Q51.9 -0.8 52.3 -0.8Q52.7 -0.8 53.0 -1.0Q53.4 -1.2 53.5 -1.5Q53.7 -1.8 53.7 -2.3V-2.3Q53.7 -2.7 53.5 -3.0Q53.4 -3.3 53.0 -3.5Q52.7 -3.7 52.3 -3.7Q52.0 -3.7 51.7 -3.6Q51.5 -3.5 51.3 -3.3Q51.2 -3.3 51.1 -3.2Q51.0 -3.1 51.0 -2.9H49.9L50.3 -7.0H54.5V-6.1H51.2L51.0 -3.9H51.1Q51.2 -4.1 51.5 -4.3Q51.7 -4.4 52.0 -4.5Q52.3 -4.6 52.6 -4.6Q53.3 -4.6 53.8 -4.3Q54.3 -4.0 54.6 -3.5Q54.9 -3.0 54.9 -2.3V-2.3Q54.9 -1.6 54.5 -1.0Q54.2 -0.4 53.6 -0.1Q53.0 0.2 52.3 0.2Z M61.4 0.0Q60.5 0.0 60.1 -0.3Q59.7 -0.6 59.7 -1.4V-4.4H58.8V-5.3H59.7V-6.6H60.8V-5.3H62.0V-4.4H60.8V-1.7Q60.8 -1.3 61.0 -1.1Q61.2 -0.9 61.6 -0.9Q61.7 -0.9 61.8 -0.9Q61.9 -0.9 62.0 -0.9V-0.0Q61.8 -0.0 61.7 0.0Q61.5 0.0 61.4 0.0Z M65.7 0.1Q64.9 0.1 64.3 -0.2Q63.7 -0.6 63.4 -1.2Q63.1 -1.8 63.1 -2.6V-2.7Q63.1 -3.5 63.4 -4.1Q63.7 -4.7 64.3 -5.1Q64.8 -5.4 65.6 -5.4Q66.4 -5.4 66.9 -5.1Q67.4 -4.8 67.7 -4.2Q68.0 -3.6 68.0 -2.8V-2.4H63.7V-3.2H67.5L66.9 -2.4V-2.9Q66.9 -3.4 66.7 -3.8Q66.6 -4.1 66.3 -4.3Q66.0 -4.5 65.6 -4.5Q65.2 -4.5 64.9 -4.3Q64.6 -4.1 64.5 -3.8Q64.3 -3.4 64.3 -2.9V-2.4Q64.3 -1.9 64.5 -1.6Q64.6 -1.2 64.9 -1.0Q65.3 -0.8 65.7 -0.8Q66.0 -0.8 66.3 -0.9Q66.5 -1.0 66.6 -1.1Q66.8 -1.3 66.9 -1.4L66.9 -1.4L68.0 -1.4L68.0 -1.4Q67.9 -1.1 67.7 -0.9Q67.6 -0.6 67.3 -0.4Q67.0 -0.2 66.6 -0.0Q66.2 0.1 65.7 0.1Z M71.4 0.1Q70.8 0.1 70.3 -0.1Q69.8 -0.3 69.5 -0.6Q69.3 -1.0 69.2 -1.4L69.2 -1.4H70.4L70.4 -1.4Q70.5 -1.1 70.7 -0.9Q71.0 -0.8 71.5 -0.8Q71.8 -0.8 72.0 -0.9Q72.3 -0.9 72.4 -1.1Q72.5 -1.3 72.5 -1.5V-1.5Q72.5 -1.7 72.3 -1.9Q72.1 -2.0 71.7 -2.1L70.8 -2.3Q70.3 -2.4 70.0 -2.6Q69.7 -2.8 69.5 -3.1Q69.3 -3.4 69.3 -3.8V-3.8Q69.3 -4.3 69.6 -4.7Q69.9 -5.0 70.4 -5.2Q70.8 -5.4 71.5 -5.4Q72.1 -5.4 72.5 -5.2Q73.0 -5.0 73.3 -4.7Q73.5 -4.4 73.6 -3.9V-3.9H72.5L72.5 -3.9Q72.4 -4.2 72.1 -4.4Q71.9 -4.6 71.4 -4.6Q71.2 -4.6 71.0 -4.5Q70.7 -4.4 70.6 -4.2Q70.5 -4.1 70.5 -3.9V-3.9Q70.5 -3.7 70.6 -3.6Q70.7 -3.5 70.8 -3.4Q71.0 -3.3 71.3 -3.2L72.2 -3.0Q72.7 -2.9 73.0 -2.7Q73.4 -2.5 73.5 -2.3Q73.7 -2.0 73.7 -1.6V-1.6Q73.7 -1.1 73.4 -0.7Q73.1 -0.3 72.6 -0.1Q72.1 0.1 71.4 0.1Z M77.2 0.0Q76.3 0.0 75.9 -0.3Q75.5 -0.6 75.5 -1.4V-4.4H74.7V-5.3H75.5V-6.6H76.7V-5.3H77.8V-4.4H76.7V-1.7Q76.7 -1.3 76.8 -1.1Q77.0 -0.9 77.4 -0.9Q77.5 -0.9 77.6 -0.9Q77.7 -0.9 77.8 -0.9V-0.0Q77.7 -0.0 77.5 0.0Q77.4 0.0 77.2 0.0Z M81.2 0.1Q80.5 0.1 80.1 -0.1Q79.6 -0.3 79.3 -0.6Q79.0 -1.0 79.0 -1.4L79.0 -1.4H80.1L80.1 -1.4Q80.2 -1.1 80.5 -0.9Q80.8 -0.8 81.2 -0.8Q81.5 -0.8 81.8 -0.9Q82.0 -0.9 82.1 -1.1Q82.3 -1.3 82.3 -1.5V-1.5Q82.3 -1.7 82.1 -1.9Q81.9 -2.0 81.4 -2.1L80.6 -2.3Q80.1 -2.4 79.8 -2.6Q79.4 -2.8 79.3 -3.1Q79.1 -3.4 79.1 -3.8V-3.8Q79.1 -4.3 79.4 -4.7Q79.6 -5.0 80.1 -5.2Q80.6 -5.4 81.2 -5.4Q81.8 -5.4 82.3 -5.2Q82.8 -5.0 83.0 -4.7Q83.3 -4.4 83.3 -3.9V-3.9H82.2L82.2 -3.9Q82.2 -4.2 81.9 -4.4Q81.6 -4.6 81.2 -4.6Q80.9 -4.6 80.7 -4.5Q80.5 -4.4 80.4 -4.2Q80.3 -4.1 80.3 -3.9V-3.9Q80.3 -3.7 80.3 -3.6Q80.4 -3.5 80.6 -3.4Q80.8 -3.3 81.1 -3.2L81.9 -3.0Q82.4 -2.9 82.8 -2.7Q83.1 -2.5 83.3 -2.3Q83.4 -2.0 83.4 -1.6V-1.6Q83.4 -1.1 83.2 -0.7Q82.9 -0.3 82.4 -0.1Q81.9 0.1 81.2 0.1Z"/></g>
</svg>