<svg xmlns="http://www.w3.org/2000/svg" viewBox="0 0 470 152" width="470" height="152" role="img" aria-label="hf-papers-mcp — MCP server for Hugging Face Papers — search, daily digests, metadata, citations.">
  <rect x="0.75" y="0.75" width="468" height="150" rx="12" fill="#0D1117" stroke="#1F2937" stroke-width="1.5"/>
  <rect x="0.75" y="0.75" width="4" height="150" rx="2" fill="#2563EB"/>
  <circle cx="30" cy="41" r="5.5" fill="none" stroke="#2563EB" stroke-width="2"/>
  <g transform="translate(46,46)" fill="#F8F9FA"><path d="M1.2 0.0V-12.1H3.4V-7.4H3.5Q3.8 -8.1 4.5 -8.6Q5.1 -9.0 6.1 -9.0Q7.1 -9.0 7.7 -8.6Q8.4 -8.2 8.8 -7.4Q9.1 -6.7 9.1 -5.6V0.0H6.9V-5.1Q6.9 -6.1 6.5 -6.6Q6.1 -7.1 5.2 -7.1Q4.6 -7.1 4.2 -6.9Q3.8 -6.6 3.6 -6.2Q3.4 -5.7 3.4 -5.1V0.0Z M12.0 0.0V-7.1H10.6V-8.8H12.0V-9.6Q12.0 -10.5 12.3 -11.1Q12.6 -11.6 13.2 -11.9Q13.9 -12.2 14.9 -12.2Q15.3 -12.2 15.6 -12.2Q15.8 -12.2 16.1 -12.1V-10.6Q16.0 -10.6 15.8 -10.6Q15.6 -10.7 15.4 -10.7Q14.7 -10.7 14.5 -10.4Q14.2 -10.1 14.2 -9.5V-8.8H16.0V-7.1H14.2V0.0Z M18.0 -3.7V-5.7H23.3V-3.7Z M25.8 2.9V-8.8H28.0V-7.4H28.1Q28.3 -7.9 28.7 -8.2Q29.1 -8.6 29.6 -8.8Q30.1 -8.9 30.8 -8.9Q31.9 -8.9 32.7 -8.4Q33.5 -7.8 33.9 -6.8Q34.4 -5.8 34.4 -4.4V-4.4Q34.4 -3.0 33.9 -2.0Q33.5 -0.9 32.7 -0.4Q31.9 0.2 30.8 0.2Q30.2 0.2 29.6 -0.0Q29.1 -0.2 28.7 -0.6Q28.3 -0.9 28.1 -1.4H28.0V2.9ZM30.0 -1.7Q30.7 -1.7 31.1 -2.0Q31.6 -2.4 31.8 -3.0Q32.1 -3.6 32.1 -4.4V-4.4Q32.1 -5.2 31.8 -5.8Q31.6 -6.4 31.1 -6.8Q30.7 -7.1 30.0 -7.1Q29.4 -7.1 28.9 -6.8Q28.5 -6.4 28.2 -5.8Q28.0 -5.2 28.0 -4.4V-4.4Q28.0 -3.6 28.2 -3.0Q28.5 -2.4 28.9 -2.0Q29.4 -1.7 30.0 -1.7Z M38.7 0.1Q37.8 0.1 37.2 -0.2Q36.5 -0.5 36.2 -1.1Q35.8 -1.7 35.8 -2.5V-2.5Q35.8 -3.3 36.2 -3.9Q36.6 -4.4 37.3 -4.8Q38.1 -5.1 39.2 -5.1L42.5 -5.3V-3.9L39.5 -3.8Q38.7 -3.7 38.4 -3.4Q38.0 -3.1 38.0 -2.6V-2.6Q38.0 -2.1 38.4 -1.8Q38.8 -1.5 39.4 -1.5Q40.0 -1.5 40.4 -1.7Q40.9 -2.0 41.1 -2.3Q41.4 -2.7 41.4 -3.2V-6.0Q41.4 -6.6 41.0 -6.9Q40.6 -7.2 39.8 -7.2Q39.2 -7.2 38.8 -7.0Q38.4 -6.8 38.2 -6.4L38.2 -6.3H36.1L36.1 -6.4Q36.2 -7.2 36.7 -7.7Q37.2 -8.3 38.0 -8.6Q38.8 -9.0 39.9 -9.0Q41.1 -9.0 41.9 -8.6Q42.7 -8.3 43.1 -7.6Q43.6 -6.9 43.6 -6.0V0.0H41.4V-1.2H41.2Q41.0 -0.8 40.6 -0.5Q40.3 -0.2 39.8 -0.0Q39.3 0.1 38.7 0.1Z M45.8 2.9V-8.8H48.0V-7.4H48.2Q48.4 -7.9 48.8 -8.2Q49.2 -8.6 49.7 -8.8Q50.2 -8.9 50.8 -8.9Q51.9 -8.9 52.7 -8.4Q53.5 -7.8 54.0 -6.8Q54.4 -5.8 54.4 -4.4V-4.4Q54.4 -3.0 54.0 -2.0Q53.5 -0.9 52.7 -0.4Q51.9 0.2 50.8 0.2Q50.2 0.2 49.7 -0.0Q49.2 -0.2 48.8 -0.6Q48.4 -0.9 48.2 -1.4H48.0V2.9ZM50.1 -1.7Q50.7 -1.7 51.2 -2.0Q51.6 -2.4 51.9 -3.0Q52.1 -3.6 52.1 -4.4V-4.4Q52.1 -5.2 51.9 -5.8Q51.6 -6.4 51.2 -6.8Q50.7 -7.1 50.1 -7.1Q49.5 -7.1 49.0 -6.8Q48.5 -6.4 48.3 -5.8Q48.0 -5.2 48.0 -4.4V-4.4Q48.0 -3.6 48.3 -3.0Q48.5 -2.4 49.0 -2.0Q49.5 -1.7 50.1 -1.7Z M60.2 0.2Q58.8 0.2 57.9 -0.4Q56.9 -0.9 56.4 -1.9Q55.9 -3.0 55.9 -4.4V-4.4Q55.9 -5.8 56.4 -6.8Q56.9 -7.8 57.9 -8.4Q58.8 -9.0 60.1 -9.0Q61.3 -9.0 62.3 -8.4Q63.2 -7.9 63.7 -6.9Q64.2 -5.9 64.2 -4.6V-3.9H57.0V-5.3H63.1L62.1 -3.9V-4.8Q62.1 -5.6 61.8 -6.2Q61.6 -6.7 61.1 -7.0Q60.7 -7.3 60.1 -7.3Q59.5 -7.3 59.1 -7.0Q58.6 -6.7 58.4 -6.2Q58.1 -5.6 58.1 -4.8V-3.9Q58.1 -3.2 58.4 -2.6Q58.6 -2.1 59.1 -1.8Q59.6 -1.5 60.2 -1.5Q60.7 -1.5 61.1 -1.7Q61.5 -1.8 61.7 -2.0Q61.9 -2.3 62.0 -2.4L62.0 -2.5L64.1 -2.5L64.1 -2.4Q64.0 -2.0 63.7 -1.5Q63.4 -1.1 63.0 -0.7Q62.5 -0.3 61.8 -0.1Q61.1 0.2 60.2 0.2Z M66.1 0.0V-8.8H68.3V-7.4H68.4Q68.6 -8.1 69.2 -8.5Q69.8 -8.9 70.6 -8.9Q70.8 -8.9 71.0 -8.9Q71.2 -8.9 71.4 -8.8V-6.9Q71.2 -6.9 70.9 -7.0Q70.7 -7.0 70.4 -7.0Q69.8 -7.0 69.3 -6.8Q68.8 -6.5 68.5 -6.1Q68.3 -5.6 68.3 -5.0V0.0Z M76.4 0.2Q75.2 0.2 74.4 -0.1Q73.6 -0.5 73.1 -1.1Q72.6 -1.7 72.5 -2.4L72.5 -2.5H74.7L74.7 -2.4Q74.9 -2.0 75.3 -1.7Q75.7 -1.4 76.4 -1.4Q76.9 -1.4 77.2 -1.5Q77.6 -1.7 77.8 -1.9Q78.0 -2.1 78.0 -2.4V-2.4Q78.0 -2.8 77.7 -3.0Q77.4 -3.3 76.7 -3.4L75.3 -3.7Q74.4 -3.9 73.9 -4.3Q73.3 -4.6 73.0 -5.1Q72.8 -5.6 72.8 -6.2V-6.2Q72.8 -7.1 73.2 -7.7Q73.7 -8.3 74.5 -8.6Q75.3 -9.0 76.4 -9.0Q77.5 -9.0 78.3 -8.6Q79.1 -8.3 79.5 -7.7Q80.0 -7.1 80.0 -6.4L80.0 -6.3H77.9L77.9 -6.4Q77.8 -6.8 77.4 -7.1Q77.0 -7.4 76.4 -7.4Q75.9 -7.4 75.6 -7.3Q75.3 -7.1 75.1 -6.9Q74.9 -6.7 74.9 -6.4V-6.4Q74.9 -6.1 75.1 -5.9Q75.2 -5.8 75.5 -5.6Q75.7 -5.5 76.2 -5.4L77.6 -5.1Q78.5 -4.9 79.1 -4.6Q79.7 -4.2 79.9 -3.8Q80.2 -3.3 80.2 -2.7V-2.7Q80.2 -1.8 79.7 -1.2Q79.2 -0.5 78.4 -0.2Q77.5 0.2 76.4 0.2Z M82.2 -3.7V-5.7H87.6V-3.7Z M90.0 0.0V-8.8H92.2V-7.4H92.3Q92.6 -8.1 93.3 -8.6Q93.9 -9.0 94.8 -9.0Q95.4 -9.0 95.9 -8.8Q96.3 -8.6 96.7 -8.2Q97.0 -7.8 97.2 -7.3H97.3Q97.5 -7.8 97.9 -8.2Q98.3 -8.6 98.9 -8.8Q99.4 -9.0 100.0 -9.0Q100.9 -9.0 101.5 -8.6Q102.2 -8.3 102.5 -7.6Q102.8 -6.9 102.8 -6.0V0.0H100.6V-5.5Q100.6 -6.0 100.5 -6.4Q100.3 -6.7 100.0 -6.9Q99.6 -7.1 99.1 -7.1Q98.6 -7.1 98.3 -6.9Q97.9 -6.7 97.7 -6.3Q97.5 -5.9 97.5 -5.4V0.0H95.3V-5.6Q95.3 -6.1 95.1 -6.4Q95.0 -6.8 94.6 -6.9Q94.3 -7.1 93.8 -7.1Q93.4 -7.1 93.0 -6.9Q92.6 -6.6 92.4 -6.2Q92.2 -5.8 92.2 -5.3V0.0Z M108.9 0.2Q107.6 0.2 106.6 -0.4Q105.7 -0.9 105.2 -1.9Q104.7 -3.0 104.7 -4.4V-4.4Q104.7 -5.9 105.2 -6.9Q105.7 -7.9 106.6 -8.4Q107.6 -9.0 108.9 -9.0Q110.1 -9.0 110.9 -8.6Q111.8 -8.2 112.3 -7.4Q112.7 -6.7 112.8 -5.8L112.8 -5.7H110.8L110.7 -5.8Q110.6 -6.4 110.2 -6.8Q109.7 -7.2 108.9 -7.2Q108.3 -7.2 107.9 -6.9Q107.4 -6.5 107.2 -5.9Q106.9 -5.3 106.9 -4.4V-4.4Q106.9 -3.5 107.2 -2.9Q107.4 -2.2 107.9 -1.9Q108.3 -1.6 108.9 -1.6Q109.7 -1.6 110.1 -1.9Q110.6 -2.3 110.7 -3.0L110.8 -3.0L112.8 -3.0L112.8 -3.0Q112.7 -2.0 112.2 -1.3Q111.7 -0.6 110.9 -0.2Q110.1 0.2 108.9 0.2Z M114.6 2.9V-8.8H116.9V-7.4H117.0Q117.2 -7.9 117.6 -8.2Q118.0 -8.6 118.5 -8.8Q119.0 -8.9 119.6 -8.9Q120.7 -8.9 121.5 -8.4Q122.3 -7.8 122.8 -6.8Q123.2 -5.8 123.2 -4.4V-4.4Q123.2 -3.0 122.8 -2.0Q122.4 -0.9 121.6 -0.4Q120.8 0.2 119.6 0.2Q119.0 0.2 118.5 -0.0Q118.0 -0.2 117.6 -0.6Q117.2 -0.9 117.0 -1.4H116.9V2.9ZM118.9 -1.7Q119.5 -1.7 120.0 -2.0Q120.5 -2.4 120.7 -3.0Q121.0 -3.6 121.0 -4.4V-4.4Q121.0 -5.2 120.7 -5.8Q120.5 -6.4 120.0 -6.8Q119.5 -7.1 118.9 -7.1Q118.3 -7.1 117.8 -6.8Q117.3 -6.4 117.1 -5.8Q116.8 -5.2 116.8 -4.4V-4.4Q116.8 -3.6 117.1 -3.0Q117.3 -2.4 117.8 -2.0Q118.3 -1.7 118.9 -1.7Z"/></g>
  <g transform="translate(46,74)" fill="#9CA3AF"><path d="M1.0 0.0V-8.1H2.3L5.0 -1.5H5.1L7.8 -8.1H9.1V0.0H8.0V-6.1H7.5L8.7 -7.9L5.5 0.0H4.6L1.4 -7.9L2.6 -6.1H2.1V0.0Z M14.6 0.2Q13.4 0.2 12.6 -0.3Q11.8 -0.8 11.4 -1.8Q10.9 -2.7 10.9 -4.0V-4.1Q10.9 -5.4 11.4 -6.3Q11.8 -7.3 12.6 -7.8Q13.4 -8.3 14.5 -8.3Q15.4 -8.3 16.1 -8.0Q16.8 -7.6 17.3 -7.0Q17.8 -6.4 17.9 -5.6L17.9 -5.6H16.7L16.7 -5.6Q16.6 -6.1 16.3 -6.5Q16.0 -6.9 15.5 -7.1Q15.1 -7.3 14.5 -7.3Q13.8 -7.3 13.2 -6.9Q12.7 -6.5 12.4 -5.8Q12.1 -5.0 12.1 -4.1V-4.0Q12.1 -3.1 12.4 -2.3Q12.7 -1.6 13.2 -1.2Q13.8 -0.8 14.6 -0.8Q15.1 -0.8 15.6 -1.0Q16.0 -1.2 16.3 -1.5Q16.6 -1.9 16.7 -2.3L16.7 -2.3H17.9L17.9 -2.3Q17.7 -1.6 17.3 -1.0Q16.8 -0.4 16.1 -0.1Q15.4 0.2 14.6 0.2Z M20.2 -2.8V-3.8H22.5Q23.3 -3.8 23.8 -4.2Q24.3 -4.7 24.3 -5.5V-5.5Q24.3 -6.3 23.8 -6.7Q23.3 -7.1 22.5 -7.1H20.2V-8.1H22.8Q23.5 -8.1 24.1 -7.8Q24.7 -7.4 25.1 -6.9Q25.4 -6.3 25.4 -5.5V-5.5Q25.4 -4.7 25.1 -4.1Q24.7 -3.5 24.1 -3.2Q23.5 -2.8 22.8 -2.8ZM19.7 0.0V-8.1H20.8V0.0Z M32.5 0.1Q31.8 0.1 31.2 -0.1Q30.7 -0.3 30.4 -0.7Q30.1 -1.1 30.0 -1.6L30.0 -1.6H31.1L31.1 -1.6Q31.3 -1.2 31.6 -1.0Q31.9 -0.8 32.5 -0.8Q32.9 -0.8 33.2 -0.9Q33.5 -1.0 33.7 -1.2Q33.8 -1.4 33.8 -1.7V-1.7Q33.8 -2.0 33.6 -2.2Q33.4 -2.4 32.8 -2.5L31.9 -2.7Q31.3 -2.9 30.9 -3.1Q30.6 -3.3 30.4 -3.6Q30.2 -3.9 30.2 -4.4V-4.4Q30.2 -4.9 30.5 -5.3Q30.8 -5.7 31.3 -5.9Q31.8 -6.2 32.5 -6.2Q33.2 -6.2 33.7 -6.0Q34.2 -5.8 34.5 -5.4Q34.8 -5.0 34.8 -4.5L34.8 -4.5H33.8L33.8 -4.5Q33.7 -4.9 33.4 -5.1Q33.0 -5.3 32.5 -5.3Q32.2 -5.3 31.9 -5.2Q31.6 -5.1 31.5 -4.9Q31.3 -4.7 31.3 -4.4V-4.4Q31.3 -4.2 31.4 -4.1Q31.5 -3.9 31.7 -3.8Q31.9 -3.7 32.3 -3.6L33.2 -3.4Q33.8 -3.3 34.2 -3.0Q34.6 -2.8 34.8 -2.5Q34.9 -2.2 34.9 -1.8V-1.7Q34.9 -1.2 34.6 -0.8Q34.3 -0.4 33.7 -0.1Q33.2 0.1 32.5 0.1Z M39.1 0.1Q38.2 0.1 37.6 -0.3Q36.9 -0.7 36.6 -1.4Q36.3 -2.1 36.3 -3.0V-3.0Q36.3 -4.0 36.6 -4.7Q36.9 -5.4 37.6 -5.8Q38.2 -6.2 39.0 -6.2Q39.8 -6.2 40.4 -5.8Q41.0 -5.4 41.4 -4.7Q41.7 -4.0 41.7 -3.1V-2.7H36.8V-3.6H41.1L40.6 -2.8V-3.2Q40.6 -3.9 40.4 -4.4Q40.2 -4.8 39.8 -5.0Q39.5 -5.2 39.0 -5.2Q38.5 -5.2 38.2 -5.0Q37.8 -4.8 37.6 -4.3Q37.4 -3.9 37.4 -3.2V-2.8Q37.4 -2.2 37.6 -1.7Q37.8 -1.3 38.2 -1.1Q38.6 -0.8 39.1 -0.8Q39.5 -0.8 39.8 -0.9Q40.1 -1.0 40.3 -1.2Q40.5 -1.4 40.5 -1.6L40.6 -1.6L41.6 -1.6L41.6 -1.6Q41.5 -1.2 41.3 -1.0Q41.1 -0.7 40.8 -0.4Q40.5 -0.2 40.1 -0.0Q39.6 0.1 39.1 0.1Z M43.3 0.0V-6.1H44.4V-5.2H44.5Q44.7 -5.6 45.1 -5.9Q45.5 -6.2 46.1 -6.2Q46.2 -6.2 46.4 -6.2Q46.5 -6.1 46.6 -6.1V-5.1Q46.4 -5.1 46.3 -5.1Q46.1 -5.2 46.0 -5.2Q45.5 -5.2 45.1 -5.0Q44.8 -4.8 44.6 -4.5Q44.4 -4.1 44.4 -3.7V0.0Z M49.6 0.0 47.4 -6.1H48.5L50.1 -1.1H50.2L51.8 -6.1H52.9L50.7 0.0Z M56.8 0.1Q56.0 0.1 55.3 -0.3Q54.7 -0.7 54.4 -1.4Q54.0 -2.1 54.0 -3.0V-3.0Q54.0 -4.0 54.4 -4.7Q54.7 -5.4 55.3 -5.8Q55.9 -6.2 56.8 -6.2Q57.6 -6.2 58.2 -5.8Q58.8 -5.4 59.1 -4.7Q59.5 -4.0 59.5 -3.1V-2.7H54.6V-3.6H58.9L58.4 -2.8V-3.2Q58.4 -3.9 58.2 -4.4Q58.0 -4.8 57.6 -5.0Q57.3 -5.2 56.8 -5.2Q56.3 -5.2 55.9 -5.0Q55.6 -4.8 55.3 -4.3Q55.1 -3.9 55.1 -3.2V-2.8Q55.1 -2.2 55.3 -1.7Q55.6 -1.3 55.9 -1.1Q56.3 -0.8 56.9 -0.8Q57.3 -0.8 57.6 -0.9Q57.9 -1.0 58.0 -1.2Q58.2 -1.4 58.3 -1.6L58.3 -1.6L59.4 -1.6L59.4 -1.6Q59.3 -1.2 59.1 -1.0Q58.9 -0.7 58.6 -0.4Q58.3 -0.2 57.8 -0.0Q57.4 0.1 56.8 0.1Z M61.1 0.0V-6.1H62.2V-5.2H62.3Q62.4 -5.6 62.8 -5.9Q63.2 -6.2 63.9 -6.2Q64.0 -6.2 64.1 -6.2Q64.3 -6.1 64.4 -6.1V-5.1Q64.2 -5.1 64.1 -5.1Q63.9 -5.2 63.7 -5.2Q63.3 -5.2 62.9 -5.0Q62.6 -4.8 62.4 -4.5Q62.2 -4.1 62.2 -3.7V0.0Z M69.4 0.0V-5.2H68.4V-6.1H69.4V-6.7Q69.4 -7.3 69.6 -7.7Q69.8 -8.1 70.2 -8.3Q70.6 -8.5 71.2 -8.5Q71.4 -8.5 71.6 -8.5Q71.7 -8.5 71.9 -8.5V-7.6Q71.8 -7.6 71.7 -7.6Q71.6 -7.7 71.4 -7.7Q70.9 -7.7 70.7 -7.4Q70.5 -7.2 70.5 -6.7V-6.1H71.8V-5.2H70.5V0.0Z M75.9 0.1Q75.0 0.1 74.4 -0.3Q73.7 -0.6 73.4 -1.4Q73.0 -2.1 73.0 -3.0V-3.0Q73.0 -4.0 73.4 -4.7Q73.7 -5.4 74.4 -5.8Q75.0 -6.2 75.9 -6.2Q76.7 -6.2 77.4 -5.8Q78.0 -5.4 78.4 -4.7Q78.7 -4.0 78.7 -3.0V-3.0Q78.7 -2.1 78.4 -1.4Q78.0 -0.6 77.4 -0.3Q76.7 0.1 75.9 0.1ZM75.9 -0.8Q76.4 -0.8 76.8 -1.1Q77.2 -1.3 77.4 -1.8Q77.6 -2.3 77.6 -3.0V-3.0Q77.6 -3.7 77.4 -4.2Q77.2 -4.7 76.8 -5.0Q76.4 -5.2 75.9 -5.2Q75.3 -5.2 74.9 -5.0Q74.6 -4.7 74.4 -4.2Q74.2 -3.7 74.2 -3.0V-3.0Q74.2 -2.3 74.4 -1.8Q74.6 -1.3 74.9 -1.1Q75.3 -0.8 75.9 -0.8Z M80.3 0.0V-6.1H81.4V-5.2H81.5Q81.7 -5.6 82.1 -5.9Q82.5 -6.2 83.1 -6.2Q83.2 -6.2 83.4 -6.2Q83.5 -6.1 83.6 -6.1V-5.1Q83.4 -5.1 83.3 -5.1Q83.1 -5.2 83.0 -5.2Q82.5 -5.2 82.2 -5.0Q81.8 -4.8 81.6 -4.5Q81.4 -4.1 81.4 -3.7V0.0Z M88.3 0.0V-8.1H89.5V-4.6H93.8V-8.1H94.9V0.0H93.8V-3.6H89.5V0.0Z M99.0 0.1Q98.3 0.1 97.8 -0.2Q97.4 -0.4 97.1 -0.9Q96.9 -1.4 96.9 -2.1V-6.1H98.0V-2.4Q98.0 -1.6 98.3 -1.2Q98.6 -0.8 99.3 -0.8Q99.7 -0.8 100.0 -1.0Q100.3 -1.1 100.5 -1.3Q100.7 -1.5 100.8 -1.8Q100.9 -2.1 100.9 -2.5V-6.1H102.0V0.0H100.9V-0.9H100.8Q100.6 -0.6 100.4 -0.4Q100.1 -0.1 99.8 -0.0Q99.4 0.1 99.0 0.1Z M106.4 2.1Q105.6 2.1 105.1 1.9Q104.5 1.7 104.2 1.3Q103.9 1.0 103.8 0.5L103.8 0.5H104.9L104.9 0.5Q105.0 0.8 105.4 1.0Q105.8 1.2 106.4 1.2Q107.2 1.2 107.6 0.9Q108.1 0.5 108.1 -0.1V-1.3H108.0Q107.8 -1.0 107.5 -0.8Q107.2 -0.5 106.9 -0.4Q106.5 -0.3 106.1 -0.3Q105.3 -0.3 104.7 -0.7Q104.2 -1.0 103.9 -1.7Q103.6 -2.4 103.6 -3.2V-3.2Q103.6 -4.1 103.9 -4.7Q104.2 -5.4 104.8 -5.8Q105.3 -6.2 106.1 -6.2Q106.5 -6.2 106.9 -6.0Q107.3 -5.9 107.5 -5.7Q107.8 -5.4 108.0 -5.1H108.1V-6.1H109.1V-0.1Q109.1 0.6 108.8 1.1Q108.5 1.6 107.9 1.9Q107.2 2.1 106.4 2.1ZM106.4 -1.2Q106.9 -1.2 107.3 -1.5Q107.7 -1.7 107.9 -2.2Q108.1 -2.6 108.1 -3.2V-3.2Q108.1 -3.8 107.9 -4.3Q107.7 -4.7 107.3 -5.0Q106.9 -5.2 106.4 -5.2Q105.8 -5.2 105.4 -5.0Q105.1 -4.7 104.9 -4.3Q104.7 -3.8 104.7 -3.2V-3.2Q104.7 -2.6 104.9 -2.2Q105.1 -1.7 105.4 -1.5Q105.8 -1.2 106.4 -1.2Z M113.6 2.1Q112.8 2.1 112.3 1.9Q111.7 1.7 111.4 1.3Q111.1 1.0 111.0 0.5L111.0 0.5H112.1L112.1 0.5Q112.2 0.8 112.6 1.0Q113.0 1.2 113.6 1.2Q114.4 1.2 114.8 0.9Q115.3 0.5 115.3 -0.1V-1.3H115.2Q115.0 -1.0 114.7 -0.8Q114.4 -0.5 114.1 -0.4Q113.7 -0.3 113.3 -0.3Q112.5 -0.3 111.9 -0.7Q111.4 -1.0 111.1 -1.7Q110.8 -2.4 110.8 -3.2V-3.2Q110.8 -4.1 111.1 -4.7Q111.4 -5.4 112.0 -5.8Q112.5 -6.2 113.3 -6.2Q113.7 -6.2 114.1 -6.0Q114.5 -5.9 114.7 -5.7Q115.0 -5.4 115.2 -5.1H115.3V-6.1H116.3V-0.1Q116.3 0.6 116.0 1.1Q115.7 1.6 115.1 1.9Q114.4 2.1 113.6 2.1ZM113.6 -1.2Q114.1 -1.2 114.5 -1.5Q114.9 -1.7 115.1 -2.2Q115.3 -2.6 115.3 -3.2V-3.2Q115.3 -3.8 115.1 -4.3Q114.9 -4.7 114.5 -5.0Q114.1 -5.2 113.6 -5.2Q113.0 -5.2 112.6 -5.0Q112.3 -4.7 112.1 -4.3Q111.9 -3.8 111.9 -3.2V-3.2Q111.9 -2.6 112.1 -2.2Q112.3 -1.7 112.6 -1.5Q113.0 -1.2 113.6 -1.2Z M118.3 0.0V-6.1H119.4V0.0ZM118.8 -7.2Q118.5 -7.2 118.3 -7.4Q118.1 -7.6 118.1 -7.9Q118.1 -8.2 118.3 -8.4Q118.5 -8.6 118.8 -8.6Q119.1 -8.6 119.3 -8.4Q119.5 -8.2 119.5 -7.9Q119.5 -7.6 119.3 -7.4Q119.1 -7.2 118.8 -7.2Z M121.3 0.0V-6.1H122.4V-5.2H122.5Q122.7 -5.6 123.1 -5.9Q123.6 -6.2 124.3 -6.2Q125.3 -6.2 125.8 -5.6Q126.4 -5.0 126.4 -3.9V0.0H125.3V-3.7Q125.3 -4.5 124.9 -4.8Q124.6 -5.2 123.9 -5.2Q123.4 -5.2 123.1 -5.0Q122.8 -4.8 122.6 -4.5Q122.4 -4.1 122.4 -3.6V0.0Z M130.8 2.1Q130.0 2.1 129.5 1.9Q128.9 1.7 128.6 1.3Q128.2 1.0 128.2 0.5L128.2 0.5H129.3L129.3 0.5Q129.4 0.8 129.7 1.0Q130.1 1.2 130.8 1.2Q131.5 1.2 132.0 0.9Q132.4 0.5 132.4 -0.1V-1.3H132.3Q132.2 -1.0 131.9 -0.8Q131.6 -0.5 131.2 -0.4Q130.9 -0.3 130.5 -0.3Q129.7 -0.3 129.1 -0.7Q128.5 -1.0 128.2 -1.7Q127.9 -2.4 127.9 -3.2V-3.2Q127.9 -4.1 128.2 -4.7Q128.5 -5.4 129.1 -5.8Q129.7 -6.2 130.5 -6.2Q130.9 -6.2 131.3 -6.0Q131.6 -5.9 131.9 -5.7Q132.2 -5.4 132.4 -5.1H132.4V-6.1H133.5V-0.1Q133.5 0.6 133.2 1.1Q132.8 1.6 132.2 1.9Q131.6 2.1 130.8 2.1ZM130.7 -1.2Q131.3 -1.2 131.6 -1.5Q132.0 -1.7 132.2 -2.2Q132.4 -2.6 132.4 -3.2V-3.2Q132.4 -3.8 132.2 -4.3Q132.0 -4.7 131.6 -5.0Q131.3 -5.2 130.7 -5.2Q130.2 -5.2 129.8 -5.0Q129.4 -4.7 129.2 -4.3Q129.0 -3.8 129.0 -3.2V-3.2Q129.0 -2.6 129.2 -2.2Q129.4 -1.7 129.8 -1.5Q130.2 -1.2 130.7 -1.2Z M138.9 0.0V-8.1H143.8V-7.1H140.0V-4.4H143.5V-3.5H140.0V0.0Z M147.1 0.1Q146.6 0.1 146.1 -0.1Q145.7 -0.3 145.4 -0.7Q145.1 -1.1 145.1 -1.7V-1.7Q145.1 -2.3 145.4 -2.6Q145.6 -3.0 146.1 -3.2Q146.6 -3.5 147.4 -3.5L149.6 -3.6V-2.8L147.5 -2.7Q146.8 -2.7 146.5 -2.4Q146.2 -2.2 146.2 -1.7V-1.7Q146.2 -1.3 146.6 -1.0Q146.9 -0.8 147.4 -0.8Q147.9 -0.8 148.3 -1.0Q148.6 -1.2 148.8 -1.5Q149.1 -1.8 149.1 -2.3V-4.1Q149.1 -4.7 148.7 -5.0Q148.4 -5.2 147.8 -5.2Q147.2 -5.2 146.9 -5.1Q146.5 -4.9 146.4 -4.5L146.4 -4.5H145.4L145.4 -4.5Q145.4 -5.0 145.8 -5.4Q146.1 -5.8 146.6 -6.0Q147.1 -6.2 147.8 -6.2Q148.5 -6.2 149.1 -5.9Q149.6 -5.7 149.9 -5.2Q150.1 -4.8 150.1 -4.2V0.0H149.1V-0.9H149.0Q148.8 -0.6 148.5 -0.3Q148.2 -0.1 147.9 -0.0Q147.6 0.1 147.1 0.1Z M154.5 0.1Q153.7 0.1 153.0 -0.3Q152.4 -0.7 152.1 -1.4Q151.7 -2.1 151.7 -3.0V-3.1Q151.7 -4.0 152.1 -4.7Q152.4 -5.4 153.0 -5.8Q153.7 -6.2 154.5 -6.2Q155.3 -6.2 155.8 -5.9Q156.4 -5.7 156.7 -5.2Q157.0 -4.8 157.1 -4.2L157.1 -4.2H156.0L156.0 -4.2Q155.9 -4.6 155.5 -4.9Q155.2 -5.2 154.5 -5.2Q154.0 -5.2 153.6 -5.0Q153.2 -4.7 153.0 -4.2Q152.8 -3.7 152.8 -3.1V-3.0Q152.8 -2.4 153.0 -1.9Q153.2 -1.4 153.6 -1.1Q154.0 -0.8 154.5 -0.8Q155.1 -0.8 155.5 -1.1Q155.9 -1.3 156.0 -1.8L156.0 -1.9L157.1 -1.9L157.1 -1.8Q157.0 -1.3 156.6 -0.8Q156.3 -0.4 155.8 -0.1Q155.3 0.1 154.5 0.1Z M161.1 0.1Q160.3 0.1 159.6 -0.3Q159.0 -0.7 158.7 -1.4Q158.3 -2.1 158.3 -3.0V-3.0Q158.3 -4.0 158.7 -4.7Q159.0 -5.4 159.6 -5.8Q160.2 -6.2 161.1 -6.2Q161.9 -6.2 162.5 -5.8Q163.1 -5.4 163.4 -4.7Q163.8 -4.0 163.8 -3.1V-2.7H158.9V-3.6H163.2L162.7 -2.8V-3.2Q162.7 -3.9 162.5 -4.4Q162.3 -4.8 161.9 -5.0Q161.5 -5.2 161.1 -5.2Q160.6 -5.2 160.2 -5.0Q159.9 -4.8 159.6 -4.3Q159.4 -3.9 159.4 -3.2V-2.8Q159.4 -2.2 159.6 -1.7Q159.8 -1.3 160.2 -1.1Q160.6 -0.8 161.2 -0.8Q161.6 -0.8 161.9 -0.9Q162.1 -1.0 162.3 -1.2Q162.5 -1.4 162.6 -1.6L162.6 -1.6L163.7 -1.6L163.7 -1.6Q163.6 -1.2 163.4 -1.0Q163.2 -0.7 162.9 -0.4Q162.6 -0.2 162.1 -0.0Q161.7 0.1 161.1 0.1Z M169.4 -2.8V-3.8H171.6Q172.5 -3.8 172.9 -4.2Q173.4 -4.7 173.4 -5.5V-5.5Q173.4 -6.3 172.9 -6.7Q172.5 -7.1 171.6 -7.1H169.4V-8.1H171.9Q172.7 -8.1 173.3 -7.8Q173.9 -7.4 174.2 -6.9Q174.5 -6.3 174.5 -5.5V-5.5Q174.5 -4.7 174.2 -4.1Q173.9 -3.5 173.3 -3.2Q172.7 -2.8 171.9 -2.8ZM168.8 0.0V-8.1H169.9V0.0Z M177.8 0.1Q177.3 0.1 176.8 -0.1Q176.4 -0.3 176.1 -0.7Q175.8 -1.1 175.8 -1.7V-1.7Q175.8 -2.3 176.1 -2.6Q176.3 -3.0 176.8 -3.2Q177.3 -3.5 178.1 -3.5L180.3 -3.6V-2.8L178.2 -2.7Q177.5 -2.7 177.2 -2.4Q176.9 -2.2 176.9 -1.7V-1.7Q176.9 -1.3 177.3 -1.0Q177.6 -0.8 178.1 -0.8Q178.6 -0.8 179.0 -1.0Q179.3 -1.2 179.5 -1.5Q179.7 -1.8 179.7 -2.3V-4.1Q179.7 -4.7 179.4 -5.0Q179.1 -5.2 178.4 -5.2Q177.9 -5.2 177.6 -5.1Q177.2 -4.9 177.1 -4.5L177.1 -4.5H176.1L176.1 -4.5Q176.1 -5.0 176.5 -5.4Q176.8 -5.8 177.3 -6.0Q177.8 -6.2 178.5 -6.2Q179.2 -6.2 179.8 -5.9Q180.3 -5.7 180.6 -5.2Q180.8 -4.8 180.8 -4.2V0.0H179.7V-0.9H179.7Q179.5 -0.6 179.2 -0.3Q178.9 -0.1 178.6 -0.0Q178.2 0.1 177.8 0.1Z M182.7 2.0V-6.1H183.8V-5.1H183.9Q184.1 -5.4 184.3 -5.7Q184.6 -5.9 185.0 -6.0Q185.3 -6.2 185.8 -6.2Q186.5 -6.2 187.1 -5.8Q187.7 -5.4 188.0 -4.7Q188.3 -4.0 188.3 -3.0V-3.0Q188.3 -2.1 188.0 -1.4Q187.7 -0.7 187.1 -0.3Q186.5 0.1 185.8 0.1Q185.4 0.1 185.0 -0.0Q184.6 -0.2 184.3 -0.4Q184.1 -0.6 183.9 -1.0H183.8V2.0ZM185.5 -0.8Q186.0 -0.8 186.4 -1.1Q186.8 -1.4 187.0 -1.9Q187.2 -2.3 187.2 -3.0V-3.0Q187.2 -3.7 187.0 -4.2Q186.8 -4.7 186.4 -5.0Q186.0 -5.2 185.5 -5.2Q185.0 -5.2 184.6 -5.0Q184.2 -4.7 184.0 -4.2Q183.8 -3.7 183.8 -3.0V-3.0Q183.8 -2.4 184.0 -1.9Q184.2 -1.4 184.6 -1.1Q185.0 -0.8 185.5 -0.8Z M192.4 0.1Q191.6 0.1 190.9 -0.3Q190.3 -0.7 190.0 -1.4Q189.6 -2.1 189.6 -3.0V-3.0Q189.6 -4.0 190.0 -4.7Q190.3 -5.4 190.9 -5.8Q191.5 -6.2 192.4 -6.2Q193.2 -6.2 193.8 -5.8Q194.4 -5.4 194.7 -4.7Q195.1 -4.0 195.1 -3.1V-2.7H190.2V-3.6H194.5L194.0 -2.8V-3.2Q194.0 -3.9 193.8 -4.4Q193.6 -4.8 193.2 -5.0Q192.8 -5.2 192.4 -5.2Q191.9 -5.2 191.5 -5.0Q191.2 -4.8 190.9 -4.3Q190.7 -3.9 190.7 -3.2V-2.8Q190.7 -2.2 190.9 -1.7Q191.1 -1.3 191.5 -1.1Q191.9 -0.8 192.5 -0.8Q192.9 -0.8 193.1 -0.9Q193.4 -1.0 193.6 -1.2Q193.8 -1.4 193.9 -1.6L193.9 -1.6L195.0 -1.6L195.0 -1.6Q194.9 -1.2 194.7 -1.0Q194.5 -0.7 194.2 -0.4Q193.9 -0.2 193.4 -0.0Q193.0 0.1 192.4 0.1Z M196.7 0.0V-6.1H197.8V-5.2H197.8Q198.0 -5.6 198.4 -5.9Q198.8 -6.2 199.4 -6.2Q199.6 -6.2 199.7 -6.2Q199.9 -6.1 199.9 -6.1V-5.1Q199.8 -5.1 199.6 -5.1Q199.5 -5.2 199.3 -5.2Q198.9 -5.2 198.5 -5.0Q198.2 -4.8 198.0 -4.5Q197.8 -4.1 197.8 -3.7V0.0Z M203.4 0.1Q202.7 0.1 202.2 -0.1Q201.6 -0.3 201.3 -0.7Q201.0 -1.1 201.0 -1.6L201.0 -1.6H202.1L202.1 -1.6Q202.2 -1.2 202.5 -1.0Q202.9 -0.8 203.4 -0.8Q203.8 -0.8 204.1 -0.9Q204.4 -1.0 204.6 -1.2Q204.8 -1.4 204.8 -1.7V-1.7Q204.8 -2.0 204.5 -2.2Q204.3 -2.4 203.7 -2.5L202.8 -2.7Q202.2 -2.9 201.9 -3.1Q201.5 -3.3 201.3 -3.6Q201.1 -3.9 201.1 -4.4V-4.4Q201.1 -4.9 201.4 -5.3Q201.7 -5.7 202.2 -5.9Q202.8 -6.2 203.4 -6.2Q204.1 -6.2 204.6 -6.0Q205.1 -5.8 205.4 -5.4Q205.7 -5.0 205.8 -4.5L205.8 -4.5H204.7L204.7 -4.5Q204.6 -4.9 204.3 -5.1Q204.0 -5.3 203.4 -5.3Q203.1 -5.3 202.8 -5.2Q202.5 -5.1 202.4 -4.9Q202.2 -4.7 202.2 -4.4V-4.4Q202.2 -4.2 202.3 -4.1Q202.4 -3.9 202.7 -3.8Q202.9 -3.7 203.2 -3.6L204.2 -3.4Q204.7 -3.3 205.1 -3.0Q205.5 -2.8 205.7 -2.5Q205.9 -2.2 205.9 -1.8V-1.7Q205.9 -1.2 205.5 -0.8Q205.2 -0.4 204.7 -0.1Q204.1 0.1 203.4 0.1Z M210.3 -2.8V-3.8H219.6V-2.8Z M226.5 0.1Q225.8 0.1 225.2 -0.1Q224.7 -0.3 224.4 -0.7Q224.1 -1.1 224.0 -1.6L224.0 -1.6H225.1L225.1 -1.6Q225.2 -1.2 225.6 -1.0Q225.9 -0.8 226.5 -0.8Q226.9 -0.8 227.2 -0.9Q227.5 -1.0 227.7 -1.2Q227.8 -1.4 227.8 -1.7V-1.7Q227.8 -2.0 227.6 -2.2Q227.4 -2.4 226.8 -2.5L225.9 -2.7Q225.3 -2.9 224.9 -3.1Q224.5 -3.3 224.4 -3.6Q224.2 -3.9 224.2 -4.4V-4.4Q224.2 -4.9 224.5 -5.3Q224.8 -5.7 225.3 -5.9Q225.8 -6.2 226.5 -6.2Q227.2 -6.2 227.7 -6.0Q228.2 -5.8 228.5 -5.4Q228.8 -5.0 228.8 -4.5L228.8 -4.5H227.8L227.8 -4.5Q227.7 -4.9 227.4 -5.1Q227.0 -5.3 226.5 -5.3Q226.1 -5.3 225.9 -5.2Q225.6 -5.1 225.4 -4.9Q225.3 -4.7 225.3 -4.4V-4.4Q225.3 -4.2 225.4 -4.1Q225.5 -3.9 225.7 -3.8Q225.9 -3.7 226.3 -3.6L227.2 -3.4Q227.8 -3.3 228.2 -3.0Q228.6 -2.8 228.7 -2.5Q228.9 -2.2 228.9 -1.8V-1.7Q228.9 -1.2 228.6 -0.8Q228.3 -0.4 227.7 -0.1Q227.2 0.1 226.5 0.1Z M233.1 0.1Q232.2 0.1 231.5 -0.3Q230.9 -0.7 230.6 -1.4Q230.2 -2.1 230.2 -3.0V-3.0Q230.2 -4.0 230.6 -4.7Q230.9 -5.4 231.5 -5.8Q232.2 -6.2 233.0 -6.2Q233.8 -6.2 234.4 -5.8Q235.0 -5.4 235.4 -4.7Q235.7 -4.0 235.7 -3.1V-2.7H230.8V-3.6H235.1L234.6 -2.8V-3.2Q234.6 -3.9 234.4 -4.4Q234.2 -4.8 233.8 -5.0Q233.5 -5.2 233.0 -5.2Q232.5 -5.2 232.1 -5.0Q231.8 -4.8 231.6 -4.3Q231.3 -3.9 231.3 -3.2V-2.8Q231.3 -2.2 231.6 -1.7Q231.8 -1.3 232.2 -1.1Q232.5 -0.8 233.1 -0.8Q233.5 -0.8 233.8 -0.9Q234.1 -1.0 234.3 -1.2Q234.4 -1.4 234.5 -1.6L234.5 -1.6L235.6 -1.6L235.6 -1.6Q235.5 -1.2 235.3 -1.0Q235.1 -0.7 234.8 -0.4Q234.5 -0.2 234.1 -0.0Q233.6 0.1 233.1 0.1Z M239.0 0.1Q238.4 0.1 237.9 -0.1Q237.5 -0.3 237.2 -0.7Q236.9 -1.1 236.9 -1.7V-1.7Q236.9 -2.3 237.2 -2.6Q237.5 -3.0 238.0 -3.2Q238.5 -3.5 239.2 -3.5L241.4 -3.6V-2.8L239.3 -2.7Q238.7 -2.7 238.4 -2.4Q238.0 -2.2 238.0 -1.7V-1.7Q238.0 -1.3 238.4 -1.0Q238.7 -0.8 239.2 -0.8Q239.7 -0.8 240.1 -1.0Q240.4 -1.2 240.7 -1.5Q240.9 -1.8 240.9 -2.3V-4.1Q240.9 -4.7 240.5 -5.0Q240.2 -5.2 239.6 -5.2Q239.0 -5.2 238.7 -5.1Q238.4 -4.9 238.3 -4.5L238.2 -4.5H237.2L237.2 -4.5Q237.3 -5.0 237.6 -5.4Q237.9 -5.8 238.4 -6.0Q238.9 -6.2 239.6 -6.2Q240.4 -6.2 240.9 -5.9Q241.4 -5.7 241.7 -5.2Q242.0 -4.8 242.0 -4.2V0.0H240.9V-0.9H240.8Q240.6 -0.6 240.3 -0.3Q240.1 -0.1 239.7 -0.0Q239.4 0.1 239.0 0.1Z M243.8 0.0V-6.1H244.9V-5.2H245.0Q245.2 -5.6 245.6 -5.9Q246.0 -6.2 246.6 -6.2Q246.8 -6.2 246.9 -6.2Q247.0 -6.1 247.1 -6.1V-5.1Q247.0 -5.1 246.8 -5.1Q246.7 -5.2 246.5 -5.2Q246.0 -5.2 245.7 -5.0Q245.3 -4.8 245.1 -4.5Q244.9 -4.1 244.9 -3.7V0.0Z M250.9 0.1Q250.1 0.1 249.4 -0.3Q248.8 -0.7 248.5 -1.4Q248.1 -2.1 248.1 -3.0V-3.1Q248.1 -4.0 248.5 -4.7Q248.8 -5.4 249.4 -5.8Q250.1 -6.2 250.9 -6.2Q251.7 -6.2 252.2 -5.9Q252.8 -5.7 253.1 -5.2Q253.4 -4.8 253.5 -4.2L253.5 -4.2H252.4L252.4 -4.2Q252.3 -4.6 252.0 -4.9Q251.6 -5.2 250.9 -5.2Q250.4 -5.2 250.0 -5.0Q249.7 -4.7 249.4 -4.2Q249.2 -3.7 249.2 -3.1V-3.0Q249.2 -2.4 249.4 -1.9Q249.7 -1.4 250.0 -1.1Q250.4 -0.8 250.9 -0.8Q251.5 -0.8 251.9 -1.1Q252.3 -1.3 252.4 -1.8L252.4 -1.9L253.5 -1.9L253.5 -1.8Q253.4 -1.3 253.1 -0.8Q252.7 -0.4 252.2 -0.1Q251.7 0.1 250.9 0.1Z M255.1 0.0V-8.5H256.2V-5.1H256.3Q256.5 -5.6 256.9 -5.9Q257.4 -6.2 258.0 -6.2Q258.7 -6.2 259.2 -5.9Q259.7 -5.6 259.9 -5.1Q260.2 -4.6 260.2 -3.9V0.0H259.1V-3.7Q259.1 -4.5 258.7 -4.8Q258.4 -5.2 257.7 -5.2Q257.2 -5.2 256.9 -5.0Q256.6 -4.8 256.4 -4.5Q256.2 -4.1 256.2 -3.6V0.0Z M261.8 2.1 262.3 -1.2H263.5L262.6 2.1Z"/></g><g transform="translate(46,93)" fill="#9CA3AF"><path d="M3.1 0.1Q2.3 0.1 1.8 -0.3Q1.2 -0.7 0.9 -1.4Q0.6 -2.1 0.6 -3.0V-3.0Q0.6 -4.0 0.9 -4.7Q1.2 -5.4 1.8 -5.8Q2.3 -6.2 3.1 -6.2Q3.5 -6.2 3.9 -6.0Q4.3 -5.9 4.5 -5.7Q4.8 -5.4 5.0 -5.1H5.1V-8.5H6.2V0.0H5.1V-1.0H5.0Q4.8 -0.6 4.5 -0.4Q4.3 -0.2 3.9 -0.0Q3.5 0.1 3.1 0.1ZM3.4 -0.8Q3.9 -0.8 4.3 -1.1Q4.7 -1.4 4.9 -1.9Q5.1 -2.4 5.1 -3.0V-3.0Q5.1 -3.7 4.9 -4.2Q4.7 -4.7 4.3 -5.0Q3.9 -5.2 3.4 -5.2Q2.9 -5.2 2.5 -5.0Q2.1 -4.7 1.9 -4.2Q1.7 -3.7 1.7 -3.0V-3.0Q1.7 -2.3 1.9 -1.9Q2.1 -1.4 2.5 -1.1Q2.9 -0.8 3.4 -0.8Z M9.8 0.1Q9.2 0.1 8.8 -0.1Q8.3 -0.3 8.1 -0.7Q7.8 -1.1 7.8 -1.7V-1.7Q7.8 -2.3 8.0 -2.6Q8.3 -3.0 8.8 -3.2Q9.3 -3.5 10.0 -3.5L12.3 -3.6V-2.8L10.2 -2.7Q9.5 -2.7 9.2 -2.4Q8.9 -2.2 8.9 -1.7V-1.7Q8.9 -1.3 9.2 -1.0Q9.6 -0.8 10.1 -0.8Q10.5 -0.8 10.9 -1.0Q11.3 -1.2 11.5 -1.5Q11.7 -1.8 11.7 -2.3V-4.1Q11.7 -4.7 11.4 -5.0Q11.1 -5.2 10.4 -5.2Q9.9 -5.2 9.5 -5.1Q9.2 -4.9 9.1 -4.5L9.1 -4.5H8.0L8.0 -4.5Q8.1 -5.0 8.4 -5.4Q8.7 -5.8 9.3 -6.0Q9.8 -6.2 10.5 -6.2Q11.2 -6.2 11.7 -5.9Q12.3 -5.7 12.5 -5.2Q12.8 -4.8 12.8 -4.2V0.0H11.7V-0.9H11.6Q11.4 -0.6 11.2 -0.3Q10.9 -0.1 10.6 -0.0Q10.2 0.1 9.8 0.1Z M14.7 0.0V-6.1H15.8V0.0ZM15.2 -7.2Q15.0 -7.2 14.7 -7.4Q14.5 -7.6 14.5 -7.9Q14.5 -8.2 14.7 -8.4Q15.0 -8.6 15.2 -8.6Q15.5 -8.6 15.8 -8.4Q16.0 -8.2 16.0 -7.9Q16.0 -7.6 15.8 -7.4Q15.5 -7.2 15.2 -7.2Z M17.8 0.0V-8.5H18.9V0.0Z M21.4 2.1Q21.3 2.1 21.2 2.1Q21.0 2.1 20.9 2.1V1.2Q21.0 1.2 21.1 1.2Q21.2 1.2 21.3 1.2Q21.8 1.2 22.0 1.0Q22.3 0.8 22.4 0.3L22.5 0.0L20.3 -6.1H21.5L23.3 -0.5L22.9 -1.1H23.4L23.0 -0.5L24.8 -6.1H25.9L23.6 0.3Q23.3 1.0 23.1 1.4Q22.8 1.8 22.4 2.0Q22.0 2.1 21.4 2.1Z M32.8 0.1Q32.1 0.1 31.5 -0.3Q30.9 -0.7 30.6 -1.4Q30.3 -2.1 30.3 -3.0V-3.0Q30.3 -4.0 30.6 -4.7Q30.9 -5.4 31.5 -5.8Q32.1 -6.2 32.8 -6.2Q33.2 -6.2 33.6 -6.0Q34.0 -5.9 34.3 -5.7Q34.6 -5.4 34.7 -5.1H34.8V-8.5H35.9V0.0H34.8V-1.0H34.7Q34.5 -0.6 34.3 -0.4Q34.0 -0.2 33.6 -0.0Q33.3 0.1 32.8 0.1ZM33.1 -0.8Q33.6 -0.8 34.0 -1.1Q34.4 -1.4 34.6 -1.9Q34.8 -2.4 34.8 -3.0V-3.0Q34.8 -3.7 34.6 -4.2Q34.4 -4.7 34.0 -5.0Q33.6 -5.2 33.1 -5.2Q32.6 -5.2 32.2 -5.0Q31.8 -4.7 31.6 -4.2Q31.4 -3.7 31.4 -3.0V-3.0Q31.4 -2.3 31.6 -1.9Q31.8 -1.4 32.2 -1.1Q32.6 -0.8 33.1 -0.8Z M37.9 0.0V-6.1H39.0V0.0ZM38.4 -7.2Q38.1 -7.2 37.9 -7.4Q37.7 -7.6 37.7 -7.9Q37.7 -8.2 37.9 -8.4Q38.1 -8.6 38.4 -8.6Q38.7 -8.6 38.9 -8.4Q39.1 -8.2 39.1 -7.9Q39.1 -7.6 38.9 -7.4Q38.7 -7.2 38.4 -7.2Z M43.4 2.1Q42.7 2.1 42.1 1.9Q41.6 1.7 41.2 1.3Q40.9 1.0 40.8 0.5L40.9 0.5H42.0L42.0 0.5Q42.1 0.8 42.4 1.0Q42.8 1.2 43.4 1.2Q44.2 1.2 44.7 0.9Q45.1 0.5 45.1 -0.1V-1.3H45.0Q44.8 -1.0 44.6 -0.8Q44.3 -0.5 43.9 -0.4Q43.6 -0.3 43.1 -0.3Q42.4 -0.3 41.8 -0.7Q41.2 -1.0 40.9 -1.7Q40.6 -2.4 40.6 -3.2V-3.2Q40.6 -4.1 40.9 -4.7Q41.2 -5.4 41.8 -5.8Q42.4 -6.2 43.2 -6.2Q43.6 -6.2 43.9 -6.0Q44.3 -5.9 44.6 -5.7Q44.9 -5.4 45.0 -5.1H45.1V-6.1H46.2V-0.1Q46.2 0.6 45.9 1.1Q45.5 1.6 44.9 1.9Q44.3 2.1 43.4 2.1ZM43.4 -1.2Q43.9 -1.2 44.3 -1.5Q44.7 -1.7 44.9 -2.2Q45.1 -2.6 45.1 -3.2V-3.2Q45.1 -3.8 44.9 -4.3Q44.7 -4.7 44.3 -5.0Q43.9 -5.2 43.4 -5.2Q42.9 -5.2 42.5 -5.0Q42.1 -4.7 41.9 -4.3Q41.7 -3.8 41.7 -3.2V-3.2Q41.7 -2.6 41.9 -2.2Q42.1 -1.7 42.5 -1.5Q42.9 -1.2 43.4 -1.2Z M50.6 0.1Q49.7 0.1 49.1 -0.3Q48.5 -0.7 48.1 -1.4Q47.8 -2.1 47.8 -3.0V-3.0Q47.8 -4.0 48.1 -4.7Q48.5 -5.4 49.1 -5.8Q49.7 -6.2 50.5 -6.2Q51.4 -6.2 52.0 -5.8Q52.6 -5.4 52.9 -4.7Q53.2 -4.0 53.2 -3.1V-2.7H48.4V-3.6H52.7L52.2 -2.8V-3.2Q52.2 -3.9 52.0 -4.4Q51.7 -4.8 51.4 -5.0Q51.0 -5.2 50.5 -5.2Q50.1 -5.2 49.7 -5.0Q49.3 -4.8 49.1 -4.3Q48.9 -3.9 48.9 -3.2V-2.8Q48.9 -2.2 49.1 -1.7Q49.3 -1.3 49.7 -1.1Q50.1 -0.8 50.6 -0.8Q51.0 -0.8 51.3 -0.9Q51.6 -1.0 51.8 -1.2Q52.0 -1.4 52.1 -1.6L52.1 -1.6L53.2 -1.6L53.2 -1.6Q53.1 -1.2 52.9 -1.0Q52.7 -0.7 52.4 -0.4Q52.0 -0.2 51.6 -0.0Q51.2 0.1 50.6 0.1Z M57.0 0.1Q56.3 0.1 55.8 -0.1Q55.2 -0.3 54.9 -0.7Q54.6 -1.1 54.5 -1.6L54.5 -1.6H55.6L55.6 -1.6Q55.8 -1.2 56.1 -1.0Q56.5 -0.8 57.0 -0.8Q57.4 -0.8 57.7 -0.9Q58.0 -1.0 58.2 -1.2Q58.4 -1.4 58.4 -1.7V-1.7Q58.4 -2.0 58.1 -2.2Q57.9 -2.4 57.3 -2.5L56.4 -2.7Q55.8 -2.9 55.4 -3.1Q55.1 -3.3 54.9 -3.6Q54.7 -3.9 54.7 -4.4V-4.4Q54.7 -4.9 55.0 -5.3Q55.3 -5.7 55.8 -5.9Q56.4 -6.2 57.0 -6.2Q57.7 -6.2 58.2 -6.0Q58.7 -5.8 59.0 -5.4Q59.3 -5.0 59.3 -4.5L59.3 -4.5H58.3L58.3 -4.5Q58.2 -4.9 57.9 -5.1Q57.5 -5.3 57.0 -5.3Q56.7 -5.3 56.4 -5.2Q56.1 -5.1 56.0 -4.9Q55.8 -4.7 55.8 -4.4V-4.4Q55.8 -4.2 55.9 -4.1Q56.0 -3.9 56.2 -3.8Q56.5 -3.7 56.8 -3.6L57.8 -3.4Q58.3 -3.3 58.7 -3.0Q59.1 -2.8 59.3 -2.5Q59.5 -2.2 59.5 -1.8V-1.7Q59.5 -1.2 59.1 -0.8Q58.8 -0.4 58.3 -0.1Q57.7 0.1 57.0 0.1Z M63.3 0.0Q62.3 0.0 61.9 -0.3Q61.5 -0.7 61.5 -1.6V-5.2H60.5V-6.1H61.5V-7.6H62.6V-6.1H63.9V-5.2H62.6V-1.8Q62.6 -1.3 62.8 -1.1Q63.0 -0.9 63.4 -0.9Q63.6 -0.9 63.7 -0.9Q63.8 -0.9 63.9 -0.9V-0.0Q63.7 0.0 63.6 0.0Q63.4 0.0 63.3 0.0Z M67.6 0.1Q66.9 0.1 66.4 -0.1Q65.8 -0.3 65.5 -0.7Q65.2 -1.1 65.2 -1.6L65.2 -1.6H66.3L66.3 -1.6Q66.4 -1.2 66.7 -1.0Q67.1 -0.8 67.6 -0.8Q68.0 -0.8 68.3 -0.9Q68.6 -1.0 68.8 -1.2Q69.0 -1.4 69.0 -1.7V-1.7Q69.0 -2.0 68.7 -2.2Q68.5 -2.4 67.9 -2.5L67.0 -2.7Q66.4 -2.9 66.1 -3.1Q65.7 -3.3 65.5 -3.6Q65.3 -3.9 65.3 -4.4V-4.4Q65.3 -4.9 65.6 -5.3Q65.9 -5.7 66.4 -5.9Q67.0 -6.2 67.6 -6.2Q68.3 -6.2 68.8 -6.0Q69.3 -5.8 69.6 -5.4Q69.9 -5.0 70.0 -4.5L70.0 -4.5H68.9L68.9 -4.5Q68.8 -4.9 68.5 -5.1Q68.2 -5.3 67.6 -5.3Q67.3 -5.3 67.0 -5.2Q66.7 -5.1 66.6 -4.9Q66.4 -4.7 66.4 -4.4V-4.4Q66.4 -4.2 66.5 -4.1Q66.6 -3.9 66.8 -3.8Q67.1 -3.7 67.4 -3.6L68.4 -3.4Q68.9 -3.3 69.3 -3.0Q69.7 -2.8 69.9 -2.5Q70.1 -2.2 70.1 -1.8V-1.7Q70.1 -1.2 69.7 -0.8Q69.4 -0.4 68.9 -0.1Q68.3 0.1 67.6 0.1Z M71.4 2.1 71.9 -1.2H73.1L72.2 2.1Z M78.6 0.0V-6.1H79.7V-5.1H79.8Q80.0 -5.6 80.4 -5.9Q80.8 -6.2 81.4 -6.2Q81.8 -6.2 82.2 -6.0Q82.5 -5.9 82.7 -5.7Q83.0 -5.4 83.1 -5.1H83.2Q83.3 -5.4 83.6 -5.7Q83.9 -5.9 84.3 -6.0Q84.6 -6.2 85.0 -6.2Q85.7 -6.2 86.1 -5.9Q86.5 -5.7 86.7 -5.3Q87.0 -4.8 87.0 -4.2V0.0H85.9V-3.9Q85.9 -4.4 85.8 -4.7Q85.6 -4.9 85.3 -5.1Q85.1 -5.2 84.7 -5.2Q84.3 -5.2 84.0 -5.0Q83.7 -4.9 83.5 -4.6Q83.3 -4.2 83.3 -3.9V0.0H82.2V-4.1Q82.2 -4.4 82.1 -4.7Q81.9 -4.9 81.7 -5.1Q81.4 -5.2 81.0 -5.2Q80.6 -5.2 80.3 -5.0Q80.0 -4.8 79.9 -4.5Q79.7 -4.2 79.7 -3.7V0.0Z M91.3 0.1Q90.5 0.1 89.8 -0.3Q89.2 -0.7 88.9 -1.4Q88.5 -2.1 88.5 -3.0V-3.0Q88.5 -4.0 88.9 -4.7Q89.2 -5.4 89.8 -5.8Q90.5 -6.2 91.3 -6.2Q92.1 -6.2 92.7 -5.8Q93.3 -5.4 93.6 -4.7Q94.0 -4.0 94.0 -3.1V-2.7H89.1V-3.6H93.4L92.9 -2.8V-3.2Q92.9 -3.9 92.7 -4.4Q92.5 -4.8 92.1 -5.0Q91.8 -5.2 91.3 -5.2Q90.8 -5.2 90.4 -5.0Q90.1 -4.8 89.9 -4.3Q89.6 -3.9 89.6 -3.2V-2.8Q89.6 -2.2 89.8 -1.7Q90.1 -1.3 90.4 -1.1Q90.8 -0.8 91.4 -0.8Q91.8 -0.8 92.1 -0.9Q92.4 -1.0 92.5 -1.2Q92.7 -1.4 92.8 -1.6L92.8 -1.6L93.9 -1.6L93.9 -1.6Q93.8 -1.2 93.6 -1.0Q93.4 -0.7 93.1 -0.4Q92.8 -0.2 92.3 -0.0Q91.9 0.1 91.3 0.1Z M97.8 0.0Q96.8 0.0 96.4 -0.3Q96.0 -0.7 96.0 -1.6V-5.2H95.0V-6.1H96.0V-7.6H97.1V-6.1H98.4V-5.2H97.1V-1.8Q97.1 -1.3 97.3 -1.1Q97.5 -0.9 98.0 -0.9Q98.1 -0.9 98.2 -0.9Q98.3 -0.9 98.4 -0.9V-0.0Q98.3 0.0 98.1 0.0Q98.0 0.0 97.8 0.0Z M101.6 0.1Q101.1 0.1 100.6 -0.1Q100.2 -0.3 99.9 -0.7Q99.6 -1.1 99.6 -1.7V-1.7Q99.6 -2.3 99.9 -2.6Q100.1 -3.0 100.6 -3.2Q101.1 -3.5 101.9 -3.5L104.1 -3.6V-2.8L102.0 -2.7Q101.3 -2.7 101.0 -2.4Q100.7 -2.2 100.7 -1.7V-1.7Q100.7 -1.3 101.1 -1.0Q101.4 -0.8 101.9 -0.8Q102.4 -0.8 102.8 -1.0Q103.1 -1.2 103.3 -1.5Q103.6 -1.8 103.6 -2.3V-4.1Q103.6 -4.7 103.2 -5.0Q102.9 -5.2 102.2 -5.2Q101.7 -5.2 101.4 -5.1Q101.0 -4.9 100.9 -4.5L100.9 -4.5H99.9L99.9 -4.5Q99.9 -5.0 100.3 -5.4Q100.6 -5.8 101.1 -6.0Q101.6 -6.2 102.3 -6.2Q103.0 -6.2 103.6 -5.9Q104.1 -5.7 104.4 -5.2Q104.6 -4.8 104.6 -4.2V0.0H103.6V-0.9H103.5Q103.3 -0.6 103.0 -0.3Q102.7 -0.1 102.4 -0.0Q102.0 0.1 101.6 0.1Z M108.7 0.1Q108.0 0.1 107.4 -0.3Q106.8 -0.7 106.5 -1.4Q106.2 -2.1 106.2 -3.0V-3.0Q106.2 -4.0 106.5 -4.7Q106.8 -5.4 107.4 -5.8Q108.0 -6.2 108.7 -6.2Q109.2 -6.2 109.5 -6.0Q109.9 -5.9 110.2 -5.7Q110.5 -5.4 110.6 -5.1H110.7V-8.5H111.8V0.0H110.7V-1.0H110.6Q110.4 -0.6 110.2 -0.4Q109.9 -0.2 109.5 -0.0Q109.2 0.1 108.7 0.1ZM109.0 -0.8Q109.5 -0.8 109.9 -1.1Q110.3 -1.4 110.5 -1.9Q110.7 -2.4 110.7 -3.0V-3.0Q110.7 -3.7 110.5 -4.2Q110.3 -4.7 109.9 -5.0Q109.5 -5.2 109.0 -5.2Q108.5 -5.2 108.1 -5.0Q107.7 -4.7 107.5 -4.2Q107.3 -3.7 107.3 -3.0V-3.0Q107.3 -2.3 107.5 -1.9Q107.7 -1.4 108.1 -1.1Q108.5 -0.8 109.0 -0.8Z M115.4 0.1Q114.9 0.1 114.4 -0.1Q113.9 -0.3 113.7 -0.7Q113.4 -1.1 113.4 -1.7V-1.7Q113.4 -2.3 113.7 -2.6Q113.9 -3.0 114.4 -3.2Q114.9 -3.5 115.7 -3.5L117.9 -3.6V-2.8L115.8 -2.7Q115.1 -2.7 114.8 -2.4Q114.5 -2.2 114.5 -1.7V-1.7Q114.5 -1.3 114.9 -1.0Q115.2 -0.8 115.7 -0.8Q116.2 -0.8 116.5 -1.0Q116.9 -1.2 117.1 -1.5Q117.3 -1.8 117.3 -2.3V-4.1Q117.3 -4.7 117.0 -5.0Q116.7 -5.2 116.0 -5.2Q115.5 -5.2 115.2 -5.1Q114.8 -4.9 114.7 -4.5L114.7 -4.5H113.7L113.7 -4.5Q113.7 -5.0 114.1 -5.4Q114.4 -5.8 114.9 -6.0Q115.4 -6.2 116.1 -6.2Q116.8 -6.2 117.4 -5.9Q117.9 -5.7 118.2 -5.2Q118.4 -4.8 118.4 -4.2V0.0H117.3V-0.9H117.3Q117.1 -0.6 116.8 -0.3Q116.5 -0.1 116.2 -0.0Q115.8 0.1 115.4 0.1Z M122.5 0.0Q121.6 0.0 121.1 -0.3Q120.7 -0.7 120.7 -1.6V-5.2H119.7V-6.1H120.7V-7.6H121.8V-6.1H123.1V-5.2H121.8V-1.8Q121.8 -1.3 122.0 -1.1Q122.2 -0.9 122.7 -0.9Q122.8 -0.9 122.9 -0.9Q123.0 -0.9 123.1 -0.9V-0.0Q123.0 0.0 122.8 0.0Q122.7 0.0 122.5 0.0Z M126.4 0.1Q125.8 0.1 125.3 -0.1Q124.9 -0.3 124.6 -0.7Q124.3 -1.1 124.3 -1.7V-1.7Q124.3 -2.3 124.6 -2.6Q124.9 -3.0 125.4 -3.2Q125.9 -3.5 126.6 -3.5L128.8 -3.6V-2.8L126.7 -2.7Q126.1 -2.7 125.8 -2.4Q125.4 -2.2 125.4 -1.7V-1.7Q125.4 -1.3 125.8 -1.0Q126.1 -0.8 126.6 -0.8Q127.1 -0.8 127.5 -1.0Q127.8 -1.2 128.1 -1.5Q128.3 -1.8 128.3 -2.3V-4.1Q128.3 -4.7 127.9 -5.0Q127.6 -5.2 127.0 -5.2Q126.4 -5.2 126.1 -5.1Q125.8 -4.9 125.7 -4.5L125.7 -4.5H124.6L124.6 -4.5Q124.7 -5.0 125.0 -5.4Q125.3 -5.8 125.8 -6.0Q126.3 -6.2 127.0 -6.2Q127.8 -6.2 128.3 -5.9Q128.8 -5.7 129.1 -5.2Q129.4 -4.8 129.4 -4.2V0.0H128.3V-0.9H128.2Q128.0 -0.6 127.7 -0.3Q127.5 -0.1 127.1 -0.0Q126.8 0.1 126.4 0.1Z M131.0 2.1 131.5 -1.2H132.7L131.8 2.1Z M140.7 0.1Q139.8 0.1 139.2 -0.3Q138.5 -0.7 138.2 -1.4Q137.8 -2.1 137.8 -3.0V-3.1Q137.8 -4.0 138.2 -4.7Q138.5 -5.4 139.2 -5.8Q139.8 -6.2 140.7 -6.2Q141.4 -6.2 142.0 -5.9Q142.5 -5.7 142.8 -5.2Q143.1 -4.8 143.2 -4.2L143.2 -4.2H142.2L142.2 -4.2Q142.1 -4.6 141.7 -4.9Q141.3 -5.2 140.7 -5.2Q140.1 -5.2 139.8 -5.0Q139.4 -4.7 139.2 -4.2Q139.0 -3.7 139.0 -3.1V-3.0Q139.0 -2.4 139.2 -1.9Q139.4 -1.4 139.8 -1.1Q140.1 -0.8 140.7 -0.8Q141.3 -0.8 141.6 -1.1Q142.0 -1.3 142.2 -1.8L142.2 -1.9L143.2 -1.9L143.2 -1.8Q143.1 -1.3 142.8 -0.8Q142.5 -0.4 141.9 -0.1Q141.4 0.1 140.7 0.1Z M144.8 0.0V-6.1H145.9V0.0ZM145.3 -7.2Q145.0 -7.2 144.8 -7.4Q144.6 -7.6 144.6 -7.9Q144.6 -8.2 144.8 -8.4Q145.0 -8.6 145.3 -8.6Q145.6 -8.6 145.8 -8.4Q146.0 -8.2 146.0 -7.9Q146.0 -7.6 145.8 -7.4Q145.6 -7.2 145.3 -7.2Z M150.0 0.0Q149.1 0.0 148.6 -0.3Q148.2 -0.7 148.2 -1.6V-5.2H147.2V-6.1H148.2V-7.6H149.3V-6.1H150.6V-5.2H149.3V-1.8Q149.3 -1.3 149.5 -1.1Q149.7 -0.9 150.2 -0.9Q150.3 -0.9 150.4 -0.9Q150.5 -0.9 150.6 -0.9V-0.0Q150.5 0.0 150.3 0.0Q150.2 0.0 150.0 0.0Z M153.9 0.1Q153.3 0.1 152.8 -0.1Q152.4 -0.3 152.1 -0.7Q151.8 -1.1 151.8 -1.7V-1.7Q151.8 -2.3 152.1 -2.6Q152.4 -3.0 152.9 -3.2Q153.4 -3.5 154.1 -3.5L156.3 -3.6V-2.8L154.2 -2.7Q153.6 -2.7 153.3 -2.4Q152.9 -2.2 152.9 -1.7V-1.7Q152.9 -1.3 153.3 -1.0Q153.6 -0.8 154.1 -0.8Q154.6 -0.8 155.0 -1.0Q155.3 -1.2 155.6 -1.5Q155.8 -1.8 155.8 -2.3V-4.1Q155.8 -4.7 155.4 -5.0Q155.1 -5.2 154.5 -5.2Q153.9 -5.2 153.6 -5.1Q153.3 -4.9 153.2 -4.5L153.2 -4.5H152.1L152.1 -4.5Q152.2 -5.0 152.5 -5.4Q152.8 -5.8 153.3 -6.0Q153.8 -6.2 154.5 -6.2Q155.3 -6.2 155.8 -5.9Q156.3 -5.7 156.6 -5.2Q156.9 -4.8 156.9 -4.2V0.0H155.8V-0.9H155.7Q155.5 -0.6 155.2 -0.3Q155.0 -0.1 154.6 -0.0Q154.3 0.1 153.9 0.1Z M160.9 0.0Q160.0 0.0 159.6 -0.3Q159.1 -0.7 159.1 -1.6V-5.2H158.2V-6.1H159.1V-7.6H160.2V-6.1H161.6V-5.2H160.2V-1.8Q160.2 -1.3 160.4 -1.1Q160.6 -0.9 161.1 -0.9Q161.2 -0.9 161.3 -0.9Q161.4 -0.9 161.6 -0.9V-0.0Q161.4 0.0 161.3 0.0Q161.1 0.0 160.9 0.0Z M163.1 0.0V-6.1H164.2V0.0ZM163.7 -7.2Q163.4 -7.2 163.2 -7.4Q163.0 -7.6 163.0 -7.9Q163.0 -8.2 163.2 -8.4Q163.4 -8.6 163.7 -8.6Q164.0 -8.6 164.2 -8.4Q164.4 -8.2 164.4 -7.9Q164.4 -7.6 164.2 -7.4Q164.0 -7.2 163.7 -7.2Z M168.7 0.1Q167.8 0.1 167.2 -0.3Q166.6 -0.6 166.2 -1.4Q165.9 -2.1 165.9 -3.0V-3.0Q165.9 -4.0 166.2 -4.7Q166.6 -5.4 167.2 -5.8Q167.8 -6.2 168.7 -6.2Q169.6 -6.2 170.2 -5.8Q170.8 -5.4 171.2 -4.7Q171.5 -4.0 171.5 -3.0V-3.0Q171.5 -2.1 171.2 -1.4Q170.8 -0.6 170.2 -0.3Q169.6 0.1 168.7 0.1ZM168.7 -0.8Q169.2 -0.8 169.6 -1.1Q170.0 -1.3 170.2 -1.8Q170.4 -2.3 170.4 -3.0V-3.0Q170.4 -3.7 170.2 -4.2Q170.0 -4.7 169.6 -5.0Q169.2 -5.2 168.7 -5.2Q168.2 -5.2 167.8 -5.0Q167.4 -4.7 167.2 -4.2Q167.0 -3.7 167.0 -3.0V-3.0Q167.0 -2.3 167.2 -1.8Q167.4 -1.3 167.8 -1.1Q168.2 -0.8 168.7 -0.8Z M173.1 0.0V-6.1H174.2V-5.2H174.3Q174.5 -5.6 175.0 -5.9Q175.4 -6.2 176.1 -6.2Q177.1 -6.2 177.6 -5.6Q178.2 -5.0 178.2 -3.9V0.0H177.1V-3.7Q177.1 -4.5 176.8 -4.8Q176.4 -5.2 175.7 -5.2Q175.3 -5.2 174.9 -5.0Q174.6 -4.8 174.4 -4.5Q174.2 -4.1 174.2 -3.6V0.0Z M182.2 0.1Q181.5 0.1 181.0 -0.1Q180.4 -0.3 180.1 -0.7Q179.8 -1.1 179.8 -1.6L179.8 -1.6H180.9L180.9 -1.6Q181.0 -1.2 181.3 -1.0Q181.7 -0.8 182.2 -0.8Q182.6 -0.8 182.9 -0.9Q183.2 -1.0 183.4 -1.2Q183.6 -1.4 183.6 -1.7V-1.7Q183.6 -2.0 183.3 -2.2Q183.1 -2.4 182.5 -2.5L181.6 -2.7Q181.0 -2.9 180.6 -3.1Q180.3 -3.3 180.1 -3.6Q179.9 -3.9 179.9 -4.4V-4.4Q179.9 -4.9 180.2 -5.3Q180.5 -5.7 181.0 -5.9Q181.6 -6.2 182.2 -6.2Q182.9 -6.2 183.4 -6.0Q183.9 -5.8 184.2 -5.4Q184.5 -5.0 184.6 -4.5L184.6 -4.5H183.5L183.5 -4.5Q183.4 -4.9 183.1 -5.1Q182.8 -5.3 182.2 -5.3Q181.9 -5.3 181.6 -5.2Q181.3 -5.1 181.2 -4.9Q181.0 -4.7 181.0 -4.4V-4.4Q181.0 -4.2 181.1 -4.1Q181.2 -3.9 181.4 -3.8Q181.7 -3.7 182.0 -3.6L183.0 -3.4Q183.5 -3.3 183.9 -3.0Q184.3 -2.8 184.5 -2.5Q184.7 -2.2 184.7 -1.8V-1.7Q184.7 -1.2 184.3 -0.8Q184.0 -0.4 183.5 -0.1Q182.9 0.1 182.2 0.1Z M187.1 0.1Q186.8 0.1 186.6 -0.2Q186.4 -0.4 186.4 -0.7Q186.4 -1.0 186.6 -1.2Q186.8 -1.5 187.1 -1.5Q187.5 -1.5 187.7 -1.2Q187.9 -1.0 187.9 -0.7Q187.9 -0.4 187.7 -0.2Q187.5 0.1 187.1 0.1Z"/></g><circle cx="51.0" cy="126.0" r="4.2" fill="#3572A5"/><g transform="translate(60.0,129.5)" fill="#9CA3AF"><path d="M1.5 -2.4V-3.3H3.4Q4.1 -3.3 4.4 -3.7Q4.8 -4.1 4.8 -4.7V-4.7Q4.8 -5.4 4.4 -5.7Q4.1 -6.1 3.4 -6.1H1.5V-7.0H3.7Q4.4 -7.0 4.9 -6.8Q5.4 -6.5 5.7 -5.9Q6.0 -5.4 6.0 -4.7V-4.7Q6.0 -4.0 5.7 -3.5Q5.4 -2.9 4.9 -2.7Q4.4 -2.4 3.7 -2.4ZM0.9 0.0V-7.0H2.1V0.0Z M8.1 1.9Q8.0 1.9 7.8 1.9Q7.7 1.9 7.6 1.9V1.0Q7.7 1.0 7.8 1.0Q7.9 1.0 8.0 1.0Q8.3 1.0 8.6 0.8Q8.8 0.6 8.9 0.3L9.0 0.0L7.1 -5.3H8.3L9.8 -0.6L9.4 -1.1H9.8L9.5 -0.6L11.0 -5.3H12.2L10.2 0.1Q10.0 0.8 9.7 1.2Q9.4 1.6 9.0 1.7Q8.6 1.9 8.1 1.9Z M15.5 0.0Q14.6 0.0 14.2 -0.3Q13.8 -0.6 13.8 -1.4V-4.4H13.0V-5.3H13.8V-6.6H15.0V-5.3H16.1V-4.4H15.0V-1.7Q15.0 -1.3 15.1 -1.1Q15.3 -0.9 15.7 -0.9Q15.8 -0.9 15.9 -0.9Q16.0 -0.9 16.1 -0.9V-0.0Q16.0 -0.0 15.8 0.0Q15.7 0.0 15.5 0.0Z M17.6 0.0V-7.4H18.7V-4.5H18.8Q19.0 -4.9 19.4 -5.2Q19.8 -5.4 20.3 -5.4Q20.9 -5.4 21.4 -5.2Q21.8 -5.0 22.0 -4.5Q22.2 -4.1 22.2 -3.4V0.0H21.0V-3.2Q21.0 -3.8 20.8 -4.1Q20.5 -4.4 19.9 -4.4Q19.6 -4.4 19.3 -4.3Q19.0 -4.1 18.9 -3.8Q18.7 -3.5 18.7 -3.1V0.0Z M26.1 0.1Q25.3 0.1 24.8 -0.2Q24.2 -0.6 23.9 -1.2Q23.6 -1.8 23.6 -2.7V-2.7Q23.6 -3.5 23.9 -4.1Q24.2 -4.8 24.8 -5.1Q25.3 -5.4 26.1 -5.4Q26.9 -5.4 27.5 -5.1Q28.0 -4.8 28.4 -4.1Q28.7 -3.5 28.7 -2.7V-2.7Q28.7 -1.8 28.4 -1.2Q28.1 -0.6 27.5 -0.2Q26.9 0.1 26.1 0.1ZM26.1 -0.8Q26.6 -0.8 26.9 -1.1Q27.2 -1.3 27.3 -1.7Q27.5 -2.1 27.5 -2.7V-2.7Q27.5 -3.2 27.3 -3.6Q27.2 -4.0 26.9 -4.3Q26.6 -4.5 26.1 -4.5Q25.7 -4.5 25.4 -4.3Q25.1 -4.0 24.9 -3.6Q24.8 -3.2 24.8 -2.7V-2.7Q24.8 -2.1 24.9 -1.7Q25.1 -1.3 25.4 -1.1Q25.7 -0.8 26.1 -0.8Z M30.1 0.0V-5.3H31.3V-4.5H31.3Q31.5 -4.9 31.9 -5.2Q32.3 -5.4 32.9 -5.4Q33.8 -5.4 34.2 -4.9Q34.7 -4.4 34.7 -3.4V0.0H33.6V-3.2Q33.6 -3.8 33.3 -4.1Q33.0 -4.4 32.5 -4.4Q32.1 -4.4 31.8 -4.3Q31.5 -4.1 31.4 -3.8Q31.3 -3.5 31.3 -3.1V0.0Z"/></g><circle cx="116.6" cy="126.0" r="4.2" fill="#6B7280"/><g transform="translate(125.6,129.5)" fill="#9CA3AF"><path d="M0.9 0.0V-7.0H2.3L4.4 -1.6H4.5L6.7 -7.0H8.0V0.0H7.0V-5.1H6.4L7.6 -6.9L4.9 0.0H4.0L1.3 -6.9L2.5 -5.1H2.0V0.0Z M10.0 0.0V-7.0H11.2V0.0Z M14.9 0.0V-6.0H12.7V-7.0H18.3V-6.0H16.1V0.0Z"/></g><circle cx="165.6" cy="126.0" r="4.2" fill="#6B7280"/><g transform="translate(174.6,129.5)" fill="#9CA3AF"><path d="M3.4 0.2Q2.9 0.2 2.4 -0.0Q1.8 -0.2 1.5 -0.7Q1.1 -1.1 0.8 -1.8Q0.6 -2.5 0.6 -3.4V-3.4Q0.6 -4.6 1.0 -5.5Q1.3 -6.3 1.9 -6.8Q2.6 -7.2 3.4 -7.2Q4.1 -7.2 4.6 -7.0Q5.1 -6.8 5.4 -6.3Q5.8 -5.9 5.9 -5.4L5.9 -5.3H4.7L4.7 -5.4Q4.6 -5.6 4.4 -5.8Q4.3 -6.0 4.0 -6.1Q3.8 -6.2 3.4 -6.2Q2.9 -6.2 2.5 -5.9Q2.1 -5.6 2.0 -5.0Q1.8 -4.4 1.8 -3.7Q1.8 -3.7 1.8 -3.6Q1.8 -3.5 1.8 -3.5L2.0 -2.3Q2.0 -1.9 2.2 -1.5Q2.3 -1.2 2.7 -1.0Q3.0 -0.8 3.4 -0.8Q3.8 -0.8 4.1 -1.0Q4.4 -1.2 4.6 -1.5Q4.8 -1.9 4.8 -2.3V-2.3Q4.8 -2.7 4.6 -3.0Q4.5 -3.3 4.1 -3.5Q3.8 -3.7 3.4 -3.7Q3.0 -3.7 2.7 -3.5Q2.4 -3.3 2.2 -3.0Q2.0 -2.7 2.0 -2.3V-2.3H1.7V-3.6H1.8Q2.0 -3.9 2.2 -4.1Q2.5 -4.3 2.8 -4.5Q3.2 -4.6 3.7 -4.6Q4.4 -4.6 4.9 -4.3Q5.4 -4.0 5.7 -3.5Q6.0 -3.0 6.0 -2.3V-2.3Q6.0 -1.6 5.7 -1.0Q5.3 -0.5 4.7 -0.1Q4.2 0.2 3.4 0.2Z M12.5 0.0Q11.6 0.0 11.2 -0.3Q10.8 -0.6 10.8 -1.4V-4.4H10.0V-5.3H10.8V-6.6H12.0V-5.3H13.1V-4.4H12.0V-1.7Q12.0 -1.3 12.2 -1.1Q12.3 -0.9 12.7 -0.9Q12.8 -0.9 12.9 -0.9Q13.0 -0.9 13.1 -0.9V-0.0Q13.0 -0.0 12.8 0.0Q12.7 0.0 12.5 0.0Z M16.8 0.1Q16.0 0.1 15.5 -0.2Q14.9 -0.6 14.6 -1.2Q14.3 -1.8 14.3 -2.7V-2.7Q14.3 -3.5 14.6 -4.1Q14.9 -4.8 15.5 -5.1Q16.0 -5.4 16.8 -5.4Q17.6 -5.4 18.2 -5.1Q18.8 -4.8 19.1 -4.1Q19.4 -3.5 19.4 -2.7V-2.7Q19.4 -1.8 19.1 -1.2Q18.8 -0.6 18.2 -0.2Q17.6 0.1 16.8 0.1ZM16.8 -0.8Q17.3 -0.8 17.6 -1.1Q17.9 -1.3 18.0 -1.7Q18.2 -2.1 18.2 -2.7V-2.7Q18.2 -3.2 18.0 -3.6Q17.9 -4.0 17.6 -4.3Q17.3 -4.5 16.8 -4.5Q16.4 -4.5 16.1 -4.3Q15.8 -4.0 15.6 -3.6Q15.5 -3.2 15.5 -2.7V-2.7Q15.5 -2.1 15.6 -1.7Q15.8 -1.3 16.1 -1.1Q16.4 -0.8 16.8 -0.8Z M23.1 0.1Q22.3 0.1 21.7 -0.2Q21.2 -0.6 20.8 -1.2Q20.5 -1.8 20.5 -2.7V-2.7Q20.5 -3.5 20.9 -4.1Q21.2 -4.8 21.7 -5.1Q22.3 -5.4 23.1 -5.4Q23.9 -5.4 24.4 -5.1Q25.0 -4.8 25.3 -4.1Q25.6 -3.5 25.6 -2.7V-2.7Q25.6 -1.8 25.3 -1.2Q25.0 -0.6 24.5 -0.2Q23.9 0.1 23.1 0.1ZM23.1 -0.8Q23.5 -0.8 23.8 -1.1Q24.1 -1.3 24.3 -1.7Q24.5 -2.1 24.5 -2.7V-2.7Q24.5 -3.2 24.3 -3.6Q24.1 -4.0 23.8 -4.3Q23.5 -4.5 23.1 -4.5Q22.7 -4.5 22.4 -4.3Q22.0 -4.0 21.9 -3.6Q21.7 -3.2 21.7 -2.7V-2.7Q21.7 -2.1 21.9 -1.7Q22.0 -1.3 22.4 -1.1Q22.7 -0.8 23.1 -0.8Z M27.1 0.0V-7.4H28.3V0.0Z M32.0 0.1Q31.3 0.1 30.9 -0.1Q30.4 -0.3 30.1 -0.6Q29.8 -1.0 29.8 -1.4L29.8 -1.4H30.9L30.9 -1.4Q31.0 -1.1 31.3 -0.9Q31.6 -0.8 32.0 -0.8Q32.3 -0.8 32.6 -0.9Q32.8 -0.9 32.9 -1.1Q33.1 -1.3 33.1 -1.5V-1.5Q33.1 -1.7 32.9 -1.9Q32.7 -2.0 32.2 -2.1L31.4 -2.3Q30.9 -2.4 30.6 -2.6Q30.2 -2.8 30.1 -3.1Q29.9 -3.4 29.9 -3.8V-3.8Q29.9 -4.3 30.2 -4.7Q30.4 -5.0 30.9 -5.2Q31.4 -5.4 32.0 -5.4Q32.6 -5.4 33.1 -5.2Q33.6 -5.0 33.8 -4.7Q34.1 -4.4 34.1 -3.9V-3.9H33.0L33.0 -3.9Q33.0 -4.2 32.7 -4.4Q32.4 -4.6 32.0 -4.6Q31.7 -4.6 31.5 -4.5Q31.3 -4.4 31.2 -4.2Q31.0 -4.1 31.0 -3.9V-3.9Q31.0 -3.7 31.1 -3.6Q31.2 -3.5 31.4 -3.4Q31.6 -3.3 31.9 -3.2L32.7 -3.0Q33.2 -2.9 33.6 -2.7Q33.9 -2.5 34.1 -2.3Q34.2 -2.0 34.2 -1.6V-1.6Q34.2 -1.1 34.0 -0.7Q33.7 -0.3 33.2 -0.1Q32.7 0.1 32.0 0.1Z M39.4 -2.1Q39.1 -2.1 38.9 -2.3Q38.7 -2.5 38.7 -2.8Q38.7 -3.2 38.9 -3.4Q39.1 -3.6 39.4 -3.6Q39.8 -3.6 40.0 -3.4Q40.2 -3.2 40.2 -2.8Q40.2 -2.5 40.0 -2.3Q39.8 -2.1 39.4 -2.1Z M46.6 0.0V-5.8H46.5L44.8 -4.6V-5.7L46.6 -7.0H47.8V0.0Z M51.7 0.0V-5.8H51.6L49.9 -4.6V-5.7L51.7 -7.0H52.9V0.0Z M60.0 0.0Q59.1 0.0 58.7 -0.3Q58.3 -0.6 58.3 -1.4V-4.4H57.5V-5.3H58.3V-6.6H59.5V-5.3H60.6V-4.4H59.5V-1.7Q59.5 -1.3 59.7 -1.1Q59.8 -0.9 60.2 -0.9Q60.4 -0.9 60.4 -0.9Q60.5 -0.9 60.6 -0.9V-0.0Q60.5 -0.0 60.4 0.0Q60.2 0.0 60.0 0.0Z M64.3 0.1Q63.5 0.1 63.0 -0.2Q62.4 -0.6 62.1 -1.2Q61.8 -1.8 61.8 -2.6V-2.7Q61.8 -3.5 62.1 -4.1Q62.4 -4.7 63.0 -5.1Q63.5 -5.4 64.3 -5.4Q65.0 -5.4 65.6 -5.1Q66.1 -4.8 66.4 -4.2Q66.7 -3.6 66.7 -2.8V-2.4H62.4V-3.2H66.1L65.6 -2.4V-2.9Q65.6 -3.4 65.4 -3.8Q65.2 -4.1 65.0 -4.3Q64.7 -4.5 64.3 -4.5Q63.9 -4.5 63.6 -4.3Q63.3 -4.1 63.1 -3.8Q63.0 -3.4 63.0 -2.9V-2.4Q63.0 -1.9 63.1 -1.6Q63.3 -1.2 63.6 -1.0Q63.9 -0.8 64.3 -0.8Q64.7 -0.8 64.9 -0.9Q65.2 -1.0 65.3 -1.1Q65.5 -1.3 65.5 -1.4L65.5 -1.4L66.6 -1.4L66.6 -1.4Q66.6 -1.1 66.4 -0.9Q66.2 -0.6 65.9 -0.4Q65.7 -0.2 65.3 -0.0Q64.9 0.1 64.3 0.1Z M70.1 0.1Q69.4 0.1 69.0 -0.1Q68.5 -0.3 68.2 -0.6Q67.9 -1.0 67.9 -1.4L67.9 -1.4H69.0L69.0 -1.4Q69.1 -1.1 69.4 -0.9Q69.7 -0.8 70.1 -0.8Q70.4 -0.8 70.7 -0.9Q70.9 -0.9 71.1 -1.1Q71.2 -1.3 71.2 -1.5V-1.5Q71.2 -1.7 71.0 -1.9Q70.8 -2.0 70.4 -2.1L69.5 -2.3Q69.0 -2.4 68.7 -2.6Q68.3 -2.8 68.2 -3.1Q68.0 -3.4 68.0 -3.8V-3.8Q68.0 -4.3 68.3 -4.7Q68.5 -5.0 69.0 -5.2Q69.5 -5.4 70.1 -5.4Q70.8 -5.4 71.2 -5.2Q71.7 -5.0 71.9 -4.7Q72.2 -4.4 72.2 -3.9V-3.9H71.1L71.1 -3.9Q71.1 -4.2 70.8 -4.4Q70.6 -4.6 70.1 -4.6Q69.8 -4.6 69.6 -4.5Q69.4 -4.4 69.3 -4.2Q69.2 -4.1 69.2 -3.9V-3.9Q69.2 -3.7 69.2 -3.6Q69.3 -3.5 69.5 -3.4Q69.7 -3.3 70.0 -3.2L70.8 -3.0Q71.3 -2.9 71.7 -2.7Q72.0 -2.5 72.2 -2.3Q72.4 -2.0 72.4 -1.6V-1.6Q72.4 -1.1 72.1 -0.7Q71.8 -0.3 71.3 -0.1Q70.8 0.1 70.1 0.1Z M75.9 0.0Q75.0 0.0 74.6 -0.3Q74.2 -0.6 74.2 -1.4V-4.4H73.3V-5.3H74.2V-6.6H75.3V-5.3H76.5V-4.4H75.3V-1.7Q75.3 -1.3 75.5 -1.1Q75.7 -0.9 76.1 -0.9Q76.2 -0.9 76.3 -0.9Q76.4 -0.9 76.5 -0.9V-0.0Q76.3 -0.0 76.2 0.0Q76.0 0.0 75.9 0.0Z M79.9 0.1Q79.2 0.1 78.7 -0.1Q78.2 -0.3 78.0 -0.6Q77.7 -1.0 77.6 -1.4L77.6 -1.4H78.8L78.8 -1.4Q78.9 -1.1 79.2 -0.9Q79.4 -0.8 79.9 -0.8Q80.2 -0.8 80.4 -0.9Q80.7 -0.9 80.8 -1.1Q80.9 -1.3 80.9 -1.5V-1.5Q80.9 -1.7 80.8 -1.9Q80.6 -2.0 80.1 -2.1L79.3 -2.3Q78.8 -2.4 78.4 -2.6Q78.1 -2.8 77.9 -3.1Q77.8 -3.4 77.8 -3.8V-3.8Q77.8 -4.3 78.0 -4.7Q78.3 -5.0 78.8 -5.2Q79.3 -5.4 79.9 -5.4Q80.5 -5.4 81.0 -5.2Q81.4 -5.0 81.7 -4.7Q82.0 -4.4 82.0 -3.9V-3.9H80.9L80.9 -3.9Q80.8 -4.2 80.6 -4.4Q80.3 -4.6 79.9 -4.6Q79.6 -4.6 79.4 -4.5Q79.2 -4.4 79.0 -4.2Q78.9 -4.1 78.9 -3.9V-3.9Q78.9 -3.7 79.0 -3.6Q79.1 -3.5 79.3 -3.4Q79.4 -3.3 79.7 -3.2L80.6 -3.0Q81.1 -2.9 81.4 -2.7Q81.8 -2.5 81.9 -2.3Q82.1 -2.0 82.1 -1.6V-1.6Q82.1 -1.1 81.8 -0.7Q81.5 -0.3 81.0 -0.1Q80.5 0.1 79.9 0.1Z"/></g>
</svg>